<?xml version="1.0" encoding="UTF-8" standalone="no"?>
<!DOCTYPE svg PUBLIC "-//W3C//DTD SVG 1.1//EN"
 "http://www.w3.org/Graphics/SVG/1.1/DTD/svg11.dtd">
<!-- Generated by graphviz version 2.38.0 (20140413.2041)
 -->
<!-- Title: dfa Pages: 1 -->
<svg width="356pt" height="133pt"
 viewBox="0.00 0.00 355.60 133.29" xmlns="http://www.w3.org/2000/svg" xmlns:xlink="http://www.w3.org/1999/xlink">
<g id="graph0" class="graph" transform="scale(1 1) rotate(0) translate(4 129.291)">
<title>dfa</title>
<polygon fill="white" stroke="none" points="-4,4 -4,-129.291 351.6,-129.291 351.6,4 -4,4"/>
<!-- __start -->
<!-- 0 -->
<g id="node2" class="node"><title>0</title>
<ellipse fill="none" stroke="black" cx="82.6" cy="-46.2909" rx="18" ry="18"/>
<text text-anchor="middle" x="82.6" y="-42.5909" font-family="Times New Roman,serif" font-size="14.00">0</text>
</g>
<!-- __start&#45;&gt;0 -->
<g id="edge1" class="edge"><title>__start&#45;&gt;0</title>
<path fill="none" stroke="black" d="M3.68496,-46.2909C8.69573,-46.2909 34.008,-46.2909 54.4423,-46.2909"/>
<polygon fill="black" stroke="black" points="54.5501,-49.791 64.5501,-46.2909 54.5501,-42.791 54.5501,-49.791"/>
<text text-anchor="middle" x="34.1" y="-50.0909" font-family="Times New Roman,serif" font-size="14.00">start</text>
</g>
<!-- 1 -->
<g id="node3" class="node"><title>1</title>
<ellipse fill="none" stroke="black" cx="325.6" cy="-67.2909" rx="18" ry="18"/>
<ellipse fill="none" stroke="black" cx="325.6" cy="-67.2909" rx="22" ry="22"/>
<text text-anchor="middle" x="325.6" y="-63.5909" font-family="Times New Roman,serif" font-size="14.00">1</text>
</g>
<!-- 0&#45;&gt;1 -->
<g id="edge7" class="edge"><title>0&#45;&gt;1</title>
<path fill="none" stroke="black" d="M93.549,-60.802C104.1,-74.7604 122.183,-94.9377 143.6,-103.291 195.661,-123.596 260.799,-99.5229 297.03,-82.1165"/>
<polygon fill="black" stroke="black" points="298.624,-85.2325 306.02,-77.6463 295.508,-78.9646 298.624,-85.2325"/>
<text text-anchor="middle" x="201.6" y="-114.091" font-family="Times New Roman,serif" font-size="14.00">d</text>
</g>
<!-- 2 -->
<g id="node4" class="node"><title>2</title>
<ellipse fill="none" stroke="black" cx="161.6" cy="-76.2909" rx="18" ry="18"/>
<text text-anchor="middle" x="161.6" y="-72.5909" font-family="Times New Roman,serif" font-size="14.00">2</text>
</g>
<!-- 0&#45;&gt;2 -->
<g id="edge6" class="edge"><title>0&#45;&gt;2</title>
<path fill="none" stroke="black" d="M99.5544,-52.5069C109.879,-56.5294 123.543,-61.8531 135.326,-66.4437"/>
<polygon fill="black" stroke="black" points="134.078,-69.7137 144.666,-70.0829 136.619,-63.1913 134.078,-69.7137"/>
<text text-anchor="middle" x="122.1" y="-65.0909" font-family="Times New Roman,serif" font-size="14.00">x</text>
</g>
<!-- 1&#45;&gt;0 -->
<g id="edge4" class="edge"><title>1&#45;&gt;0</title>
<path fill="none" stroke="black" d="M311.898,-49.8382C300.179,-35.3497 281.341,-15.7912 259.6,-7.29091 207.379,13.1265 142.052,-14.1342 107.538,-32.3395"/>
<polygon fill="black" stroke="black" points="105.758,-29.3238 98.6573,-37.1871 109.112,-35.4681 105.758,-29.3238"/>
<text text-anchor="middle" x="201.6" y="-6.09091" font-family="Times New Roman,serif" font-size="14.00">x</text>
</g>
<!-- 1&#45;&gt;1 -->
<g id="edge5" class="edge"><title>1&#45;&gt;1</title>
<path fill="none" stroke="black" d="M317.594,-87.8717C316.486,-98.1356 319.155,-107.291 325.6,-107.291 329.729,-107.291 332.308,-103.534 333.337,-98.1345"/>
<polygon fill="black" stroke="black" points="336.843,-97.96 333.606,-87.8717 329.845,-97.7766 336.843,-97.96"/>
<text text-anchor="middle" x="325.6" y="-111.091" font-family="Times New Roman,serif" font-size="14.00">d</text>
</g>
<!-- 2&#45;&gt;1 -->
<g id="edge3" class="edge"><title>2&#45;&gt;1</title>
<path fill="none" stroke="black" d="M179.76,-75.5411C187.635,-75.1846 197.092,-74.739 205.6,-74.2909 235.35,-72.7241 269.27,-70.706 293.264,-69.2395"/>
<polygon fill="black" stroke="black" points="293.772,-72.715 303.538,-68.6082 293.342,-65.7282 293.772,-72.715"/>
<text text-anchor="middle" x="241.6" y="-77.0909" font-family="Times New Roman,serif" font-size="14.00">d</text>
</g>
<!-- 3 -->
<g id="node5" class="node"><title>3</title>
<ellipse fill="none" stroke="black" cx="241.6" cy="-34.2909" rx="18" ry="18"/>
<text text-anchor="middle" x="241.6" y="-30.5909" font-family="Times New Roman,serif" font-size="14.00">3</text>
</g>
<!-- 2&#45;&gt;3 -->
<g id="edge2" class="edge"><title>2&#45;&gt;3</title>
<path fill="none" stroke="black" d="M178.01,-67.9931C188.978,-62.0874 203.932,-54.035 216.473,-47.2822"/>
<polygon fill="black" stroke="black" points="218.342,-50.2513 225.487,-42.4286 215.023,-44.088 218.342,-50.2513"/>
<text text-anchor="middle" x="201.6" y="-60.0909" font-family="Times New Roman,serif" font-size="14.00">x</text>
</g>
<!-- 3&#45;&gt;0 -->
<g id="edge8" class="edge"><title>3&#45;&gt;0</title>
<path fill="none" stroke="black" d="M223.378,-33.2695C203.946,-32.3541 171.419,-31.5363 143.6,-34.2909 132.616,-35.3786 120.664,-37.5602 110.339,-39.7686"/>
<polygon fill="black" stroke="black" points="109.264,-36.423 100.277,-42.0349 110.802,-43.2519 109.264,-36.423"/>
<text text-anchor="middle" x="161.6" y="-38.0909" font-family="Times New Roman,serif" font-size="14.00">x</text>
</g>
<!-- 3&#45;&gt;1 -->
<g id="edge9" class="edge"><title>3&#45;&gt;1</title>
<path fill="none" stroke="black" d="M258.801,-40.8107C269.26,-45.0199 283.169,-50.6173 295.503,-55.5813"/>
<polygon fill="black" stroke="black" points="294.379,-58.9014 304.962,-59.3879 296.992,-52.4075 294.379,-58.9014"/>
<text text-anchor="middle" x="281.6" y="-54.0909" font-family="Times New Roman,serif" font-size="14.00">d</text>
</g>
</g>
</svg>
