<?xml version="1.0" encoding="UTF-8" standalone="no"?>
<!DOCTYPE svg PUBLIC "-//W3C//DTD SVG 1.1//EN"
 "http://www.w3.org/Graphics/SVG/1.1/DTD/svg11.dtd">
<!-- Generated by graphviz version 2.38.0 (20140413.2041)
 -->
<!-- Title: enfa Pages: 1 -->
<svg width="354pt" height="111pt"
 viewBox="0.00 0.00 353.60 111.00" xmlns="http://www.w3.org/2000/svg" xmlns:xlink="http://www.w3.org/1999/xlink">
<g id="graph0" class="graph" transform="scale(1 1) rotate(0) translate(4 107)">
<title>enfa</title>
<polygon fill="white" stroke="none" points="-4,4 -4,-107 349.6,-107 349.6,4 -4,4"/>
<!-- __start -->
<!-- 0 -->
<g id="node2" class="node"><title>0</title>
<ellipse fill="none" stroke="black" cx="82.6" cy="-22" rx="18" ry="18"/>
<text text-anchor="middle" x="82.6" y="-18.3" font-family="Times New Roman,serif" font-size="14.00">0</text>
</g>
<!-- __start&#45;&gt;0 -->
<g id="edge1" class="edge"><title>__start&#45;&gt;0</title>
<path fill="none" stroke="black" d="M3.68496,-22C8.69573,-22 34.008,-22 54.4423,-22"/>
<polygon fill="black" stroke="black" points="54.5501,-25.5001 64.5501,-22 54.5501,-18.5001 54.5501,-25.5001"/>
<text text-anchor="middle" x="34.1" y="-25.8" font-family="Times New Roman,serif" font-size="14.00">start</text>
</g>
<!-- 3 -->
<g id="node5" class="node"><title>3</title>
<ellipse fill="none" stroke="black" cx="161.6" cy="-52" rx="18" ry="18"/>
<text text-anchor="middle" x="161.6" y="-48.3" font-family="Times New Roman,serif" font-size="14.00">3</text>
</g>
<!-- 0&#45;&gt;3 -->
<g id="edge4" class="edge"><title>0&#45;&gt;3</title>
<path fill="none" stroke="black" d="M99.5544,-28.216C109.879,-32.2385 123.543,-37.5621 135.326,-42.1528"/>
<polygon fill="black" stroke="black" points="134.078,-45.4228 144.666,-45.7919 136.619,-38.9004 134.078,-45.4228"/>
<text text-anchor="middle" x="122.1" y="-40.8" font-family="Times New Roman,serif" font-size="14.00">x</text>
</g>
<!-- 1 -->
<g id="node3" class="node"><title>1</title>
<ellipse fill="none" stroke="black" cx="244.6" cy="-22" rx="18" ry="18"/>
<ellipse fill="none" stroke="black" cx="244.6" cy="-22" rx="22" ry="22"/>
<text text-anchor="middle" x="244.6" y="-18.3" font-family="Times New Roman,serif" font-size="14.00">1</text>
</g>
<!-- 1&#45;&gt;0 -->
<g id="edge2" class="edge"><title>1&#45;&gt;0</title>
<path fill="none" stroke="black" d="M222.984,-17.129C210.508,-14.4332 194.233,-11.36 179.6,-10 163.669,-8.51934 159.522,-8.4234 143.6,-10 132.616,-11.0877 120.664,-13.2693 110.339,-15.4777"/>
<polygon fill="black" stroke="black" points="109.264,-12.132 100.277,-17.744 110.802,-18.961 109.264,-12.132"/>
<text text-anchor="middle" x="161.6" y="-13.8" font-family="Times New Roman,serif" font-size="14.00">h</text>
</g>
<!-- 1&#45;&gt;1 -->
<g id="edge8" class="edge"><title>1&#45;&gt;1</title>
<path fill="none" stroke="black" d="M236.917,-42.9908C235.969,-53.0872 238.53,-62 244.6,-62 248.489,-62 250.937,-58.3422 251.946,-53.0587"/>
<polygon fill="black" stroke="black" points="255.446,-53.1023 252.283,-42.9908 248.45,-52.868 255.446,-53.1023"/>
<text text-anchor="middle" x="244.6" y="-65.8" font-family="Times New Roman,serif" font-size="14.00">x</text>
</g>
<!-- 2 -->
<g id="node4" class="node"><title>2</title>
<ellipse fill="none" stroke="black" cx="327.6" cy="-22" rx="18" ry="18"/>
<text text-anchor="middle" x="327.6" y="-18.3" font-family="Times New Roman,serif" font-size="14.00">2</text>
</g>
<!-- 1&#45;&gt;2 -->
<g id="edge3" class="edge"><title>1&#45;&gt;2</title>
<path fill="none" stroke="black" d="M266.882,-22C276.866,-22 288.878,-22 299.503,-22"/>
<polygon fill="black" stroke="black" points="299.54,-25.5001 309.539,-22 299.539,-18.5001 299.54,-25.5001"/>
<text text-anchor="middle" x="288.1" y="-25.8" font-family="Times New Roman,serif" font-size="14.00">h</text>
</g>
<!-- 2&#45;&gt;2 -->
<g id="edge7" class="edge"><title>2&#45;&gt;2</title>
<path fill="none" stroke="black" d="M320.866,-39.0373C319.492,-48.8579 321.737,-58 327.6,-58 331.265,-58 333.516,-54.4289 334.353,-49.3529"/>
<polygon fill="black" stroke="black" points="337.852,-49.0307 334.334,-39.0373 330.852,-49.0439 337.852,-49.0307"/>
<text text-anchor="middle" x="327.6" y="-61.8" font-family="Times New Roman,serif" font-size="14.00">h</text>
</g>
<!-- 3&#45;&gt;1 -->
<g id="edge6" class="edge"><title>3&#45;&gt;1</title>
<path fill="none" stroke="black" d="M178.603,-46.073C188.689,-42.3376 202.021,-37.3998 213.984,-32.9689"/>
<polygon fill="black" stroke="black" points="215.448,-36.159 223.61,-29.4037 213.017,-29.5948 215.448,-36.159"/>
<text text-anchor="middle" x="201.1" y="-41.8" font-family="Times New Roman,serif" font-size="14.00">x</text>
</g>
<!-- 3&#45;&gt;3 -->
<g id="edge5" class="edge"><title>3&#45;&gt;3</title>
<path fill="none" stroke="black" d="M154.866,-69.0373C153.492,-78.8579 155.737,-88 161.6,-88 165.265,-88 167.516,-84.4289 168.353,-79.3529"/>
<polygon fill="black" stroke="black" points="171.852,-79.0307 168.334,-69.0373 164.852,-79.0439 171.852,-79.0307"/>
<text text-anchor="middle" x="161.6" y="-91.8" font-family="Times New Roman,serif" font-size="14.00">x</text>
</g>
</g>
</svg>
