<?xml version="1.0" encoding="UTF-8" standalone="no"?>
<!DOCTYPE svg PUBLIC "-//W3C//DTD SVG 1.1//EN"
 "http://www.w3.org/Graphics/SVG/1.1/DTD/svg11.dtd">
<!-- Generated by graphviz version 2.38.0 (20140413.2041)
 -->
<!-- Title: enfa Pages: 1 -->
<svg width="372pt" height="111pt"
 viewBox="0.00 0.00 371.60 111.00" xmlns="http://www.w3.org/2000/svg" xmlns:xlink="http://www.w3.org/1999/xlink">
<g id="graph0" class="graph" transform="scale(1 1) rotate(0) translate(4 107)">
<title>enfa</title>
<polygon fill="white" stroke="none" points="-4,4 -4,-107 367.6,-107 367.6,4 -4,4"/>
<!-- __start -->
<!-- 0 -->
<g id="node2" class="node"><title>0</title>
<ellipse fill="none" stroke="black" cx="91.6" cy="-22" rx="27" ry="18"/>
<text text-anchor="middle" x="91.6" y="-18.3" font-family="Times New Roman,serif" font-size="14.00">0</text>
</g>
<!-- __start&#45;&gt;0 -->
<g id="edge1" class="edge"><title>__start&#45;&gt;0</title>
<path fill="none" stroke="black" d="M3.78604,-22C8.86985,-22 32.7092,-22 54.1222,-22"/>
<polygon fill="black" stroke="black" points="54.3463,-25.5001 64.3463,-22 54.3463,-18.5001 54.3463,-25.5001"/>
<text text-anchor="middle" x="34.1" y="-25.8" font-family="Times New Roman,serif" font-size="14.00">start</text>
</g>
<!-- 3 -->
<g id="node5" class="node"><title>3</title>
<ellipse fill="none" stroke="black" cx="179.6" cy="-52" rx="18" ry="18"/>
<text text-anchor="middle" x="179.6" y="-48.3" font-family="Times New Roman,serif" font-size="14.00">3</text>
</g>
<!-- 0&#45;&gt;3 -->
<g id="edge4" class="edge"><title>0&#45;&gt;3</title>
<path fill="none" stroke="black" d="M116.1,-30.1976C127.485,-34.1694 141.185,-38.9483 152.853,-43.0185"/>
<polygon fill="black" stroke="black" points="151.88,-46.3858 162.475,-46.3748 154.185,-39.7763 151.88,-46.3858"/>
<text text-anchor="middle" x="140.1" y="-42.8" font-family="Times New Roman,serif" font-size="14.00">x</text>
</g>
<!-- 1 -->
<g id="node3" class="node"><title>1</title>
<ellipse fill="none" stroke="black" cx="262.6" cy="-22" rx="18" ry="18"/>
<ellipse fill="none" stroke="black" cx="262.6" cy="-22" rx="22" ry="22"/>
<text text-anchor="middle" x="262.6" y="-18.3" font-family="Times New Roman,serif" font-size="14.00">1</text>
</g>
<!-- 1&#45;&gt;0 -->
<g id="edge2" class="edge"><title>1&#45;&gt;0</title>
<path fill="none" stroke="black" d="M240.984,-17.129C228.508,-14.4332 212.233,-11.36 197.6,-10 181.669,-8.51934 177.541,-8.62417 161.6,-10 150.4,-10.9666 138.291,-12.8002 127.389,-14.7484"/>
<polygon fill="black" stroke="black" points="126.559,-11.3429 117.376,-16.6269 127.85,-18.2229 126.559,-11.3429"/>
<text text-anchor="middle" x="179.6" y="-13.8" font-family="Times New Roman,serif" font-size="14.00">h</text>
</g>
<!-- 1&#45;&gt;1 -->
<g id="edge8" class="edge"><title>1&#45;&gt;1</title>
<path fill="none" stroke="black" d="M254.917,-42.9908C253.969,-53.0872 256.53,-62 262.6,-62 266.489,-62 268.937,-58.3422 269.946,-53.0587"/>
<polygon fill="black" stroke="black" points="273.446,-53.1023 270.283,-42.9908 266.45,-52.868 273.446,-53.1023"/>
<text text-anchor="middle" x="262.6" y="-65.8" font-family="Times New Roman,serif" font-size="14.00">x</text>
</g>
<!-- 2 -->
<g id="node4" class="node"><title>2</title>
<ellipse fill="none" stroke="black" cx="345.6" cy="-22" rx="18" ry="18"/>
<text text-anchor="middle" x="345.6" y="-18.3" font-family="Times New Roman,serif" font-size="14.00">2</text>
</g>
<!-- 1&#45;&gt;2 -->
<g id="edge3" class="edge"><title>1&#45;&gt;2</title>
<path fill="none" stroke="black" d="M284.882,-22C294.866,-22 306.878,-22 317.503,-22"/>
<polygon fill="black" stroke="black" points="317.54,-25.5001 327.539,-22 317.539,-18.5001 317.54,-25.5001"/>
<text text-anchor="middle" x="306.1" y="-25.8" font-family="Times New Roman,serif" font-size="14.00">h</text>
</g>
<!-- 2&#45;&gt;2 -->
<g id="edge7" class="edge"><title>2&#45;&gt;2</title>
<path fill="none" stroke="black" d="M338.866,-39.0373C337.492,-48.8579 339.737,-58 345.6,-58 349.265,-58 351.516,-54.4289 352.353,-49.3529"/>
<polygon fill="black" stroke="black" points="355.852,-49.0307 352.334,-39.0373 348.852,-49.0439 355.852,-49.0307"/>
<text text-anchor="middle" x="345.6" y="-61.8" font-family="Times New Roman,serif" font-size="14.00">h</text>
</g>
<!-- 3&#45;&gt;1 -->
<g id="edge6" class="edge"><title>3&#45;&gt;1</title>
<path fill="none" stroke="black" d="M196.603,-46.073C206.689,-42.3376 220.021,-37.3998 231.984,-32.9689"/>
<polygon fill="black" stroke="black" points="233.448,-36.159 241.61,-29.4037 231.017,-29.5948 233.448,-36.159"/>
<text text-anchor="middle" x="219.1" y="-41.8" font-family="Times New Roman,serif" font-size="14.00">x</text>
</g>
<!-- 3&#45;&gt;3 -->
<g id="edge5" class="edge"><title>3&#45;&gt;3</title>
<path fill="none" stroke="black" d="M172.866,-69.0373C171.492,-78.8579 173.737,-88 179.6,-88 183.265,-88 185.516,-84.4289 186.353,-79.3529"/>
<polygon fill="black" stroke="black" points="189.852,-79.0307 186.334,-69.0373 182.852,-79.0439 189.852,-79.0307"/>
<text text-anchor="middle" x="179.6" y="-91.8" font-family="Times New Roman,serif" font-size="14.00">x</text>
</g>
</g>
</svg>
