<?xml version="1.0" encoding="UTF-8" standalone="no"?>
<!DOCTYPE svg PUBLIC "-//W3C//DTD SVG 1.1//EN"
 "http://www.w3.org/Graphics/SVG/1.1/DTD/svg11.dtd">
<!-- Generated by graphviz version 2.38.0 (20140413.2041)
 -->
<!-- Title: dfa Pages: 1 -->
<svg width="293pt" height="208pt"
 viewBox="0.00 0.00 292.60 208.00" xmlns="http://www.w3.org/2000/svg" xmlns:xlink="http://www.w3.org/1999/xlink">
<g id="graph0" class="graph" transform="scale(1 1) rotate(0) translate(4 204)">
<title>dfa</title>
<polygon fill="white" stroke="none" points="-4,4 -4,-204 288.6,-204 288.6,4 -4,4"/>
<!-- __start -->
<!-- 0 -->
<g id="node2" class="node"><title>0</title>
<ellipse fill="none" stroke="black" cx="91.6" cy="-66" rx="27" ry="18"/>
<text text-anchor="middle" x="91.6" y="-62.3" font-family="Times New Roman,serif" font-size="14.00">0</text>
</g>
<!-- __start&#45;&gt;0 -->
<g id="edge1" class="edge"><title>__start&#45;&gt;0</title>
<path fill="none" stroke="black" d="M3.78604,-66C8.86985,-66 32.7092,-66 54.1222,-66"/>
<polygon fill="black" stroke="black" points="54.3463,-69.5001 64.3463,-66 54.3463,-62.5001 54.3463,-69.5001"/>
<text text-anchor="middle" x="34.1" y="-69.8" font-family="Times New Roman,serif" font-size="14.00">start</text>
</g>
<!-- 2 -->
<g id="node4" class="node"><title>2</title>
<ellipse fill="none" stroke="black" cx="262.6" cy="-116" rx="18" ry="18"/>
<text text-anchor="middle" x="262.6" y="-112.3" font-family="Times New Roman,serif" font-size="14.00">2</text>
</g>
<!-- 0&#45;&gt;2 -->
<g id="edge2" class="edge"><title>0&#45;&gt;2</title>
<path fill="none" stroke="black" d="M114.361,-75.8978C121.399,-78.9635 129.276,-82.2545 136.6,-85 169.391,-97.2928 208.848,-106.148 234.54,-111.17"/>
<polygon fill="black" stroke="black" points="234.171,-114.662 244.648,-113.086 235.475,-107.785 234.171,-114.662"/>
<text text-anchor="middle" x="179.6" y="-105.8" font-family="Times New Roman,serif" font-size="14.00">h</text>
</g>
<!-- 3 -->
<g id="node5" class="node"><title>3</title>
<ellipse fill="none" stroke="black" cx="179.6" cy="-66" rx="18" ry="18"/>
<text text-anchor="middle" x="179.6" y="-62.3" font-family="Times New Roman,serif" font-size="14.00">3</text>
</g>
<!-- 0&#45;&gt;3 -->
<g id="edge3" class="edge"><title>0&#45;&gt;3</title>
<path fill="none" stroke="black" d="M118.87,-66C129.135,-66 140.908,-66 151.272,-66"/>
<polygon fill="black" stroke="black" points="151.442,-69.5001 161.442,-66 151.442,-62.5001 151.442,-69.5001"/>
<text text-anchor="middle" x="140.1" y="-69.8" font-family="Times New Roman,serif" font-size="14.00">x</text>
</g>
<!-- 1 -->
<g id="node3" class="node"><title>1</title>
<ellipse fill="none" stroke="black" cx="262.6" cy="-22" rx="18" ry="18"/>
<ellipse fill="none" stroke="black" cx="262.6" cy="-22" rx="22" ry="22"/>
<text text-anchor="middle" x="262.6" y="-18.3" font-family="Times New Roman,serif" font-size="14.00">1</text>
</g>
<!-- 1&#45;&gt;0 -->
<g id="edge8" class="edge"><title>1&#45;&gt;0</title>
<path fill="none" stroke="black" d="M240.437,-19.2822C219.86,-17.3646 187.942,-16.3285 161.6,-24 145.89,-28.5753 130.167,-37.7049 117.706,-46.2867"/>
<polygon fill="black" stroke="black" points="115.329,-43.6847 109.256,-52.3659 119.417,-49.3669 115.329,-43.6847"/>
<text text-anchor="middle" x="179.6" y="-27.8" font-family="Times New Roman,serif" font-size="14.00">h</text>
</g>
<!-- 1&#45;&gt;1 -->
<g id="edge9" class="edge"><title>1&#45;&gt;1</title>
<path fill="none" stroke="black" d="M254.917,-42.9908C253.969,-53.0872 256.53,-62 262.6,-62 266.489,-62 268.937,-58.3422 269.946,-53.0587"/>
<polygon fill="black" stroke="black" points="273.446,-53.1023 270.283,-42.9908 266.45,-52.868 273.446,-53.1023"/>
<text text-anchor="middle" x="262.6" y="-65.8" font-family="Times New Roman,serif" font-size="14.00">x</text>
</g>
<!-- 2&#45;&gt;2 -->
<g id="edge4" class="edge"><title>2&#45;&gt;2</title>
<path fill="none" stroke="black" d="M258.825,-133.782C258.183,-143.315 259.442,-152 262.6,-152 264.525,-152 265.744,-148.775 266.257,-144.098"/>
<polygon fill="black" stroke="black" points="269.76,-143.821 266.375,-133.782 262.761,-143.741 269.76,-143.821"/>
<text text-anchor="middle" x="262.6" y="-155.8" font-family="Times New Roman,serif" font-size="14.00">h</text>
</g>
<!-- 2&#45;&gt;2 -->
<g id="edge5" class="edge"><title>2&#45;&gt;2</title>
<path fill="none" stroke="black" d="M256.455,-133.142C252.841,-150.585 254.889,-170 262.6,-170 268.805,-170 271.343,-157.428 270.214,-143.429"/>
<polygon fill="black" stroke="black" points="273.624,-142.546 268.745,-133.142 266.694,-143.536 273.624,-142.546"/>
<text text-anchor="middle" x="262.6" y="-173.8" font-family="Times New Roman,serif" font-size="14.00">x</text>
</g>
<!-- 3&#45;&gt;1 -->
<g id="edge7" class="edge"><title>3&#45;&gt;1</title>
<path fill="none" stroke="black" d="M195.835,-57.7239C206.604,-51.8746 221.339,-43.8702 234.132,-36.9207"/>
<polygon fill="black" stroke="black" points="235.904,-39.9417 243.02,-32.0928 232.562,-33.7906 235.904,-39.9417"/>
<text text-anchor="middle" x="219.1" y="-49.8" font-family="Times New Roman,serif" font-size="14.00">x</text>
</g>
<!-- 3&#45;&gt;2 -->
<g id="edge6" class="edge"><title>3&#45;&gt;2</title>
<path fill="none" stroke="black" d="M195.444,-74.6742C203.515,-79.4307 213.649,-85.469 222.6,-91 227.86,-94.2499 233.477,-97.8024 238.764,-101.183"/>
<polygon fill="black" stroke="black" points="236.922,-104.159 247.226,-106.625 240.708,-98.2718 236.922,-104.159"/>
<text text-anchor="middle" x="219.1" y="-94.8" font-family="Times New Roman,serif" font-size="14.00">h</text>
</g>
</g>
</svg>
