<?xml version="1.0" encoding="UTF-8" standalone="no"?>
<!DOCTYPE svg PUBLIC "-//W3C//DTD SVG 1.1//EN"
 "http://www.w3.org/Graphics/SVG/1.1/DTD/svg11.dtd">
<!-- Generated by graphviz version 2.38.0 (20140413.2041)
 -->
<!-- Title: dfa Pages: 1 -->
<svg width="275pt" height="208pt"
 viewBox="0.00 0.00 274.60 208.00" xmlns="http://www.w3.org/2000/svg" xmlns:xlink="http://www.w3.org/1999/xlink">
<g id="graph0" class="graph" transform="scale(1 1) rotate(0) translate(4 204)">
<title>dfa</title>
<polygon fill="white" stroke="none" points="-4,4 -4,-204 270.6,-204 270.6,4 -4,4"/>
<!-- __start -->
<!-- 0 -->
<g id="node2" class="node"><title>0</title>
<ellipse fill="none" stroke="black" cx="82.6" cy="-66" rx="18" ry="18"/>
<text text-anchor="middle" x="82.6" y="-62.3" font-family="Times New Roman,serif" font-size="14.00">0</text>
</g>
<!-- __start&#45;&gt;0 -->
<g id="edge1" class="edge"><title>__start&#45;&gt;0</title>
<path fill="none" stroke="black" d="M3.68496,-66C8.69573,-66 34.008,-66 54.4423,-66"/>
<polygon fill="black" stroke="black" points="54.5501,-69.5001 64.5501,-66 54.5501,-62.5001 54.5501,-69.5001"/>
<text text-anchor="middle" x="34.1" y="-69.8" font-family="Times New Roman,serif" font-size="14.00">start</text>
</g>
<!-- 2 -->
<g id="node4" class="node"><title>2</title>
<ellipse fill="none" stroke="black" cx="244.6" cy="-116" rx="18" ry="18"/>
<text text-anchor="middle" x="244.6" y="-112.3" font-family="Times New Roman,serif" font-size="14.00">2</text>
</g>
<!-- 0&#45;&gt;2 -->
<g id="edge2" class="edge"><title>0&#45;&gt;2</title>
<path fill="none" stroke="black" d="M98.6251,-74.9611C104.701,-78.3701 111.86,-82.1223 118.6,-85 150.807,-98.7508 190.394,-107.28 216.275,-111.829"/>
<polygon fill="black" stroke="black" points="216.026,-115.336 226.467,-113.539 217.184,-108.432 216.026,-115.336"/>
<text text-anchor="middle" x="161.6" y="-106.8" font-family="Times New Roman,serif" font-size="14.00">h</text>
</g>
<!-- 3 -->
<g id="node5" class="node"><title>3</title>
<ellipse fill="none" stroke="black" cx="161.6" cy="-66" rx="18" ry="18"/>
<text text-anchor="middle" x="161.6" y="-62.3" font-family="Times New Roman,serif" font-size="14.00">3</text>
</g>
<!-- 0&#45;&gt;3 -->
<g id="edge3" class="edge"><title>0&#45;&gt;3</title>
<path fill="none" stroke="black" d="M100.689,-66C110.259,-66 122.417,-66 133.277,-66"/>
<polygon fill="black" stroke="black" points="133.559,-69.5001 143.559,-66 133.559,-62.5001 133.559,-69.5001"/>
<text text-anchor="middle" x="122.1" y="-69.8" font-family="Times New Roman,serif" font-size="14.00">x</text>
</g>
<!-- 1 -->
<g id="node3" class="node"><title>1</title>
<ellipse fill="none" stroke="black" cx="244.6" cy="-22" rx="18" ry="18"/>
<ellipse fill="none" stroke="black" cx="244.6" cy="-22" rx="22" ry="22"/>
<text text-anchor="middle" x="244.6" y="-18.3" font-family="Times New Roman,serif" font-size="14.00">1</text>
</g>
<!-- 1&#45;&gt;0 -->
<g id="edge8" class="edge"><title>1&#45;&gt;0</title>
<path fill="none" stroke="black" d="M222.714,-18.9555C202.067,-16.739 169.848,-15.4366 143.6,-24 128.958,-28.7769 114.74,-38.4358 103.822,-47.2876"/>
<polygon fill="black" stroke="black" points="101.511,-44.6584 96.1641,-53.805 106.048,-49.9891 101.511,-44.6584"/>
<text text-anchor="middle" x="161.6" y="-27.8" font-family="Times New Roman,serif" font-size="14.00">h</text>
</g>
<!-- 1&#45;&gt;1 -->
<g id="edge9" class="edge"><title>1&#45;&gt;1</title>
<path fill="none" stroke="black" d="M236.917,-42.9908C235.969,-53.0872 238.53,-62 244.6,-62 248.489,-62 250.937,-58.3422 251.946,-53.0587"/>
<polygon fill="black" stroke="black" points="255.446,-53.1023 252.283,-42.9908 248.45,-52.868 255.446,-53.1023"/>
<text text-anchor="middle" x="244.6" y="-65.8" font-family="Times New Roman,serif" font-size="14.00">x</text>
</g>
<!-- 2&#45;&gt;2 -->
<g id="edge4" class="edge"><title>2&#45;&gt;2</title>
<path fill="none" stroke="black" d="M240.825,-133.782C240.183,-143.315 241.442,-152 244.6,-152 246.525,-152 247.744,-148.775 248.257,-144.098"/>
<polygon fill="black" stroke="black" points="251.76,-143.821 248.375,-133.782 244.761,-143.741 251.76,-143.821"/>
<text text-anchor="middle" x="244.6" y="-155.8" font-family="Times New Roman,serif" font-size="14.00">h</text>
</g>
<!-- 2&#45;&gt;2 -->
<g id="edge5" class="edge"><title>2&#45;&gt;2</title>
<path fill="none" stroke="black" d="M238.455,-133.142C234.841,-150.585 236.889,-170 244.6,-170 250.805,-170 253.343,-157.428 252.214,-143.429"/>
<polygon fill="black" stroke="black" points="255.624,-142.546 250.745,-133.142 248.694,-143.536 255.624,-142.546"/>
<text text-anchor="middle" x="244.6" y="-173.8" font-family="Times New Roman,serif" font-size="14.00">x</text>
</g>
<!-- 3&#45;&gt;1 -->
<g id="edge7" class="edge"><title>3&#45;&gt;1</title>
<path fill="none" stroke="black" d="M177.835,-57.7239C188.604,-51.8746 203.339,-43.8702 216.132,-36.9207"/>
<polygon fill="black" stroke="black" points="217.904,-39.9417 225.02,-32.0928 214.562,-33.7906 217.904,-39.9417"/>
<text text-anchor="middle" x="201.1" y="-49.8" font-family="Times New Roman,serif" font-size="14.00">x</text>
</g>
<!-- 3&#45;&gt;2 -->
<g id="edge6" class="edge"><title>3&#45;&gt;2</title>
<path fill="none" stroke="black" d="M177.444,-74.6742C185.515,-79.4307 195.649,-85.469 204.6,-91 209.86,-94.2499 215.477,-97.8024 220.764,-101.183"/>
<polygon fill="black" stroke="black" points="218.922,-104.159 229.226,-106.625 222.708,-98.2718 218.922,-104.159"/>
<text text-anchor="middle" x="201.1" y="-94.8" font-family="Times New Roman,serif" font-size="14.00">h</text>
</g>
</g>
</svg>
