<?xml version="1.0" encoding="UTF-8" standalone="no"?>
<!DOCTYPE svg PUBLIC "-//W3C//DTD SVG 1.1//EN"
 "http://www.w3.org/Graphics/SVG/1.1/DTD/svg11.dtd">
<!-- Generated by graphviz version 2.38.0 (20140413.2041)
 -->
<!-- Title: dfa Pages: 1 -->
<svg width="601pt" height="233pt"
 viewBox="0.00 0.00 601.07 233.00" xmlns="http://www.w3.org/2000/svg" xmlns:xlink="http://www.w3.org/1999/xlink">
<g id="graph0" class="graph" transform="scale(1 1) rotate(0) translate(4 229)">
<title>dfa</title>
<polygon fill="white" stroke="none" points="-4,4 -4,-229 597.073,-229 597.073,4 -4,4"/>
<!-- __start -->
<!-- {0} -->
<g id="node2" class="node"><title>{0}</title>
<ellipse fill="none" stroke="black" cx="88.6479" cy="-184" rx="24.0958" ry="24.0958"/>
<text text-anchor="middle" x="88.6479" y="-180.3" font-family="Times New Roman,serif" font-size="14.00">{0}</text>
</g>
<!-- __start&#45;&gt;{0} -->
<g id="edge1" class="edge"><title>__start&#45;&gt;{0}</title>
<path fill="none" stroke="black" d="M3.75288,-184C8.82222,-184 33.1893,-184 54.3658,-184"/>
<polygon fill="black" stroke="black" points="54.4068,-187.5 64.4067,-184 54.4067,-180.5 54.4068,-187.5"/>
<text text-anchor="middle" x="34.1" y="-187.8" font-family="Times New Roman,serif" font-size="14.00">start</text>
</g>
<!-- {} -->
<g id="node4" class="node"><title>{}</title>
<ellipse fill="none" stroke="black" cx="573.575" cy="-94" rx="19.4965" ry="19.4965"/>
<text text-anchor="middle" x="573.575" y="-90.3" font-family="Times New Roman,serif" font-size="14.00">{}</text>
</g>
<!-- {0}&#45;&gt;{} -->
<g id="edge2" class="edge"><title>{0}&#45;&gt;{}</title>
<path fill="none" stroke="black" d="M110.748,-193.829C128.492,-201.192 154.735,-210 178.744,-210 178.744,-210 178.744,-210 488.028,-210 531.051,-210 554.497,-157.245 565.204,-122.888"/>
<polygon fill="black" stroke="black" points="568.679,-123.476 568.126,-112.896 561.96,-121.512 568.679,-123.476"/>
<text text-anchor="middle" x="337.386" y="-213.8" font-family="Times New Roman,serif" font-size="14.00">h</text>
</g>
<!-- {3} -->
<g id="node5" class="node"><title>{3}</title>
<ellipse fill="none" stroke="black" cx="179.744" cy="-110" rx="24.0958" ry="24.0958"/>
<text text-anchor="middle" x="179.744" y="-106.3" font-family="Times New Roman,serif" font-size="14.00">{3}</text>
</g>
<!-- {0}&#45;&gt;{3} -->
<g id="edge3" class="edge"><title>{0}&#45;&gt;{3}</title>
<path fill="none" stroke="black" d="M107.678,-169.025C120.599,-158.293 138.201,-143.673 152.654,-131.669"/>
<polygon fill="black" stroke="black" points="155.284,-134.034 160.741,-124.953 150.812,-128.65 155.284,-134.034"/>
<text text-anchor="middle" x="134.196" y="-153.8" font-family="Times New Roman,serif" font-size="14.00">x</text>
</g>
<!-- {1,3} -->
<g id="node3" class="node"><title>{1,3}</title>
<ellipse fill="none" stroke="black" cx="281.339" cy="-63" rx="30.5892" ry="30.5892"/>
<ellipse fill="none" stroke="black" cx="281.339" cy="-63" rx="34.5946" ry="34.5946"/>
<text text-anchor="middle" x="281.339" y="-59.3" font-family="Times New Roman,serif" font-size="14.00">{1,3}</text>
</g>
<!-- {1,3}&#45;&gt;{1,3} -->
<g id="edge9" class="edge"><title>{1,3}&#45;&gt;{1,3}</title>
<path fill="none" stroke="black" d="M270.839,-96.0982C270.894,-106.926 274.393,-115.547 281.339,-115.547 285.897,-115.547 288.971,-111.834 290.561,-106.221"/>
<polygon fill="black" stroke="black" points="294.059,-106.458 291.838,-96.0982 287.114,-105.581 294.059,-106.458"/>
<text text-anchor="middle" x="281.339" y="-119.347" font-family="Times New Roman,serif" font-size="14.00">x</text>
</g>
<!-- {0,2} -->
<g id="node6" class="node"><title>{0,2}</title>
<ellipse fill="none" stroke="black" cx="389.433" cy="-94" rx="30.5947" ry="30.5947"/>
<text text-anchor="middle" x="389.433" y="-90.3" font-family="Times New Roman,serif" font-size="14.00">{0,2}</text>
</g>
<!-- {1,3}&#45;&gt;{0,2} -->
<g id="edge8" class="edge"><title>{1,3}&#45;&gt;{0,2}</title>
<path fill="none" stroke="black" d="M314.747,-72.4695C325.87,-75.7196 338.428,-79.3888 349.983,-82.7652"/>
<polygon fill="black" stroke="black" points="349.238,-86.1938 359.819,-85.639 351.202,-79.4748 349.238,-86.1938"/>
<text text-anchor="middle" x="337.386" y="-83.8" font-family="Times New Roman,serif" font-size="14.00">h</text>
</g>
<!-- {}&#45;&gt;{} -->
<g id="edge4" class="edge"><title>{}&#45;&gt;{}</title>
<path fill="none" stroke="black" d="M569.935,-113.294C569.432,-122.916 570.645,-131.498 573.575,-131.498 575.36,-131.498 576.508,-128.311 577.018,-123.644"/>
<polygon fill="black" stroke="black" points="580.524,-123.358 577.214,-113.294 573.525,-123.226 580.524,-123.358"/>
<text text-anchor="middle" x="573.575" y="-135.298" font-family="Times New Roman,serif" font-size="14.00">h</text>
</g>
<!-- {}&#45;&gt;{} -->
<g id="edge5" class="edge"><title>{}&#45;&gt;{}</title>
<path fill="none" stroke="black" d="M567.51,-112.764C564.366,-130.385 566.387,-149.498 573.575,-149.498 579.414,-149.498 581.844,-136.88 580.863,-122.697"/>
<polygon fill="black" stroke="black" points="584.336,-122.261 579.639,-112.764 577.388,-123.117 584.336,-122.261"/>
<text text-anchor="middle" x="573.575" y="-153.298" font-family="Times New Roman,serif" font-size="14.00">x</text>
</g>
<!-- {3}&#45;&gt;{1,3} -->
<g id="edge7" class="edge"><title>{3}&#45;&gt;{1,3}</title>
<path fill="none" stroke="black" d="M201.865,-100.033C213.076,-94.7418 227.229,-88.0629 240.419,-81.8386"/>
<polygon fill="black" stroke="black" points="242.247,-84.846 249.797,-77.413 239.26,-78.5155 242.247,-84.846"/>
<text text-anchor="middle" x="225.291" y="-93.8" font-family="Times New Roman,serif" font-size="14.00">x</text>
</g>
<!-- {3}&#45;&gt;{} -->
<g id="edge6" class="edge"><title>{3}&#45;&gt;{}</title>
<path fill="none" stroke="black" d="M189.145,-87.7399C202.894,-55.5975 233.452,-0 280.339,-0 280.339,-0 280.339,-0 488.028,-0 524.156,-0 548.777,-38.8575 561.753,-66.606"/>
<polygon fill="black" stroke="black" points="558.608,-68.1489 565.857,-75.8759 565.009,-65.315 558.608,-68.1489"/>
<text text-anchor="middle" x="389.433" y="-3.8" font-family="Times New Roman,serif" font-size="14.00">h</text>
</g>
<!-- {0,2}&#45;&gt;{3} -->
<g id="edge11" class="edge"><title>{0,2}&#45;&gt;{3}</title>
<path fill="none" stroke="black" d="M365.59,-113.247C352.072,-123.357 334.075,-134.719 315.886,-140 286.395,-148.562 276.805,-146.497 246.791,-140 234.098,-137.252 220.913,-131.85 209.693,-126.378"/>
<polygon fill="black" stroke="black" points="211.281,-123.259 200.784,-121.822 208.093,-129.491 211.281,-123.259"/>
<text text-anchor="middle" x="281.339" y="-149.8" font-family="Times New Roman,serif" font-size="14.00">x</text>
</g>
<!-- {2} -->
<g id="node7" class="node"><title>{2}</title>
<ellipse fill="none" stroke="black" cx="487.028" cy="-94" rx="24.0958" ry="24.0958"/>
<text text-anchor="middle" x="487.028" y="-90.3" font-family="Times New Roman,serif" font-size="14.00">{2}</text>
</g>
<!-- {0,2}&#45;&gt;{2} -->
<g id="edge10" class="edge"><title>{0,2}&#45;&gt;{2}</title>
<path fill="none" stroke="black" d="M420.156,-94C430.433,-94 442.017,-94 452.572,-94"/>
<polygon fill="black" stroke="black" points="452.699,-97.5001 462.699,-94 452.699,-90.5001 452.699,-97.5001"/>
<text text-anchor="middle" x="441.481" y="-97.8" font-family="Times New Roman,serif" font-size="14.00">h</text>
</g>
<!-- {2}&#45;&gt;{} -->
<g id="edge13" class="edge"><title>{2}&#45;&gt;{}</title>
<path fill="none" stroke="black" d="M511.131,-94C521.252,-94 533.232,-94 543.914,-94"/>
<polygon fill="black" stroke="black" points="544.047,-97.5001 554.047,-94 544.047,-90.5001 544.047,-97.5001"/>
<text text-anchor="middle" x="532.576" y="-97.8" font-family="Times New Roman,serif" font-size="14.00">x</text>
</g>
<!-- {2}&#45;&gt;{2} -->
<g id="edge12" class="edge"><title>{2}&#45;&gt;{2}</title>
<path fill="none" stroke="black" d="M478.907,-116.923C478.134,-127.178 480.841,-136.048 487.028,-136.048 490.992,-136.048 493.528,-132.408 494.635,-127.095"/>
<polygon fill="black" stroke="black" points="498.14,-127.087 495.15,-116.923 491.149,-126.733 498.14,-127.087"/>
<text text-anchor="middle" x="487.028" y="-139.848" font-family="Times New Roman,serif" font-size="14.00">h</text>
</g>
</g>
</svg>
