<?xml version="1.0" encoding="UTF-8" standalone="no"?>
<!DOCTYPE svg PUBLIC "-//W3C//DTD SVG 1.1//EN"
 "http://www.w3.org/Graphics/SVG/1.1/DTD/svg11.dtd">
<!-- Generated by graphviz version 2.38.0 (20140413.2041)
 -->
<!-- Title: dfa Pages: 1 -->
<svg width="607pt" height="233pt"
 viewBox="0.00 0.00 606.98 233.00" xmlns="http://www.w3.org/2000/svg" xmlns:xlink="http://www.w3.org/1999/xlink">
<g id="graph0" class="graph" transform="scale(1 1) rotate(0) translate(4 229)">
<title>dfa</title>
<polygon fill="white" stroke="none" points="-4,4 -4,-229 602.977,-229 602.977,4 -4,4"/>
<!-- __start -->
<!-- {0} -->
<g id="node2" class="node"><title>{0}</title>
<ellipse fill="none" stroke="black" cx="91.6" cy="-184" rx="27" ry="18"/>
<text text-anchor="middle" x="91.6" y="-180.3" font-family="Times New Roman,serif" font-size="14.00">{0}</text>
</g>
<!-- __start&#45;&gt;{0} -->
<g id="edge1" class="edge"><title>__start&#45;&gt;{0}</title>
<path fill="none" stroke="black" d="M3.78604,-184C8.86985,-184 32.7092,-184 54.1222,-184"/>
<polygon fill="black" stroke="black" points="54.3463,-187.5 64.3463,-184 54.3463,-180.5 54.3463,-187.5"/>
<text text-anchor="middle" x="34.1" y="-187.8" font-family="Times New Roman,serif" font-size="14.00">start</text>
</g>
<!-- {} -->
<g id="node4" class="node"><title>{}</title>
<ellipse fill="none" stroke="black" cx="579.479" cy="-94" rx="19.4965" ry="19.4965"/>
<text text-anchor="middle" x="579.479" y="-90.3" font-family="Times New Roman,serif" font-size="14.00">{}</text>
</g>
<!-- {0}&#45;&gt;{} -->
<g id="edge2" class="edge"><title>{0}&#45;&gt;{}</title>
<path fill="none" stroke="black" d="M114.432,-193.829C132.782,-201.192 159.905,-210 184.648,-210 184.648,-210 184.648,-210 493.933,-210 536.955,-210 560.401,-157.245 571.109,-122.888"/>
<polygon fill="black" stroke="black" points="574.583,-123.476 574.03,-112.896 567.865,-121.512 574.583,-123.476"/>
<text text-anchor="middle" x="343.29" y="-213.8" font-family="Times New Roman,serif" font-size="14.00">h</text>
</g>
<!-- {3} -->
<g id="node5" class="node"><title>{3}</title>
<ellipse fill="none" stroke="black" cx="185.648" cy="-110" rx="24.0958" ry="24.0958"/>
<text text-anchor="middle" x="185.648" y="-106.3" font-family="Times New Roman,serif" font-size="14.00">{3}</text>
</g>
<!-- {0}&#45;&gt;{3} -->
<g id="edge3" class="edge"><title>{0}&#45;&gt;{3}</title>
<path fill="none" stroke="black" d="M109.483,-170.427C123.184,-159.413 142.738,-143.692 158.468,-131.047"/>
<polygon fill="black" stroke="black" points="160.693,-133.749 166.294,-124.756 156.307,-128.293 160.693,-133.749"/>
<text text-anchor="middle" x="140.1" y="-150.8" font-family="Times New Roman,serif" font-size="14.00">x</text>
</g>
<!-- {1,3} -->
<g id="node3" class="node"><title>{1,3}</title>
<ellipse fill="none" stroke="black" cx="287.243" cy="-63" rx="30.5892" ry="30.5892"/>
<ellipse fill="none" stroke="black" cx="287.243" cy="-63" rx="34.5946" ry="34.5946"/>
<text text-anchor="middle" x="287.243" y="-59.3" font-family="Times New Roman,serif" font-size="14.00">{1,3}</text>
</g>
<!-- {1,3}&#45;&gt;{1,3} -->
<g id="edge9" class="edge"><title>{1,3}&#45;&gt;{1,3}</title>
<path fill="none" stroke="black" d="M276.744,-96.0982C276.798,-106.926 280.298,-115.547 287.243,-115.547 291.801,-115.547 294.875,-111.834 296.465,-106.221"/>
<polygon fill="black" stroke="black" points="299.963,-106.458 297.742,-96.0982 293.018,-105.581 299.963,-106.458"/>
<text text-anchor="middle" x="287.243" y="-119.347" font-family="Times New Roman,serif" font-size="14.00">x</text>
</g>
<!-- {0,2} -->
<g id="node6" class="node"><title>{0,2}</title>
<ellipse fill="none" stroke="black" cx="395.338" cy="-94" rx="30.5947" ry="30.5947"/>
<text text-anchor="middle" x="395.338" y="-90.3" font-family="Times New Roman,serif" font-size="14.00">{0,2}</text>
</g>
<!-- {1,3}&#45;&gt;{0,2} -->
<g id="edge8" class="edge"><title>{1,3}&#45;&gt;{0,2}</title>
<path fill="none" stroke="black" d="M320.651,-72.4695C331.775,-75.7196 344.332,-79.3888 355.887,-82.7652"/>
<polygon fill="black" stroke="black" points="355.143,-86.1938 365.723,-85.639 357.106,-79.4748 355.143,-86.1938"/>
<text text-anchor="middle" x="343.29" y="-83.8" font-family="Times New Roman,serif" font-size="14.00">h</text>
</g>
<!-- {}&#45;&gt;{} -->
<g id="edge4" class="edge"><title>{}&#45;&gt;{}</title>
<path fill="none" stroke="black" d="M575.84,-113.294C575.336,-122.916 576.549,-131.498 579.479,-131.498 581.264,-131.498 582.412,-128.311 582.922,-123.644"/>
<polygon fill="black" stroke="black" points="586.428,-123.358 583.118,-113.294 579.43,-123.226 586.428,-123.358"/>
<text text-anchor="middle" x="579.479" y="-135.298" font-family="Times New Roman,serif" font-size="14.00">h</text>
</g>
<!-- {}&#45;&gt;{} -->
<g id="edge5" class="edge"><title>{}&#45;&gt;{}</title>
<path fill="none" stroke="black" d="M573.414,-112.764C570.27,-130.385 572.291,-149.498 579.479,-149.498 585.319,-149.498 587.748,-136.88 586.767,-122.697"/>
<polygon fill="black" stroke="black" points="590.24,-122.261 585.543,-112.764 583.293,-123.117 590.24,-122.261"/>
<text text-anchor="middle" x="579.479" y="-153.298" font-family="Times New Roman,serif" font-size="14.00">x</text>
</g>
<!-- {3}&#45;&gt;{1,3} -->
<g id="edge7" class="edge"><title>{3}&#45;&gt;{1,3}</title>
<path fill="none" stroke="black" d="M207.769,-100.033C218.981,-94.7418 233.134,-88.0629 246.323,-81.8386"/>
<polygon fill="black" stroke="black" points="248.151,-84.846 255.701,-77.413 245.164,-78.5155 248.151,-84.846"/>
<text text-anchor="middle" x="231.196" y="-93.8" font-family="Times New Roman,serif" font-size="14.00">x</text>
</g>
<!-- {3}&#45;&gt;{} -->
<g id="edge6" class="edge"><title>{3}&#45;&gt;{}</title>
<path fill="none" stroke="black" d="M195.049,-87.7399C208.798,-55.5975 239.356,-0 286.243,-0 286.243,-0 286.243,-0 493.933,-0 530.06,-0 554.681,-38.8575 567.657,-66.606"/>
<polygon fill="black" stroke="black" points="564.513,-68.1489 571.762,-75.8759 570.914,-65.315 564.513,-68.1489"/>
<text text-anchor="middle" x="395.338" y="-3.8" font-family="Times New Roman,serif" font-size="14.00">h</text>
</g>
<!-- {0,2}&#45;&gt;{3} -->
<g id="edge11" class="edge"><title>{0,2}&#45;&gt;{3}</title>
<path fill="none" stroke="black" d="M371.495,-113.247C357.976,-123.357 339.979,-134.719 321.79,-140 292.299,-148.562 282.709,-146.497 252.696,-140 240.002,-137.252 226.817,-131.85 215.597,-126.378"/>
<polygon fill="black" stroke="black" points="217.185,-123.259 206.688,-121.822 213.998,-129.491 217.185,-123.259"/>
<text text-anchor="middle" x="287.243" y="-149.8" font-family="Times New Roman,serif" font-size="14.00">x</text>
</g>
<!-- {2} -->
<g id="node7" class="node"><title>{2}</title>
<ellipse fill="none" stroke="black" cx="492.933" cy="-94" rx="24.0958" ry="24.0958"/>
<text text-anchor="middle" x="492.933" y="-90.3" font-family="Times New Roman,serif" font-size="14.00">{2}</text>
</g>
<!-- {0,2}&#45;&gt;{2} -->
<g id="edge10" class="edge"><title>{0,2}&#45;&gt;{2}</title>
<path fill="none" stroke="black" d="M426.06,-94C436.337,-94 447.921,-94 458.477,-94"/>
<polygon fill="black" stroke="black" points="458.603,-97.5001 468.603,-94 458.603,-90.5001 458.603,-97.5001"/>
<text text-anchor="middle" x="447.385" y="-97.8" font-family="Times New Roman,serif" font-size="14.00">h</text>
</g>
<!-- {2}&#45;&gt;{} -->
<g id="edge13" class="edge"><title>{2}&#45;&gt;{}</title>
<path fill="none" stroke="black" d="M517.035,-94C527.156,-94 539.136,-94 549.819,-94"/>
<polygon fill="black" stroke="black" points="549.951,-97.5001 559.951,-94 549.951,-90.5001 549.951,-97.5001"/>
<text text-anchor="middle" x="538.481" y="-97.8" font-family="Times New Roman,serif" font-size="14.00">x</text>
</g>
<!-- {2}&#45;&gt;{2} -->
<g id="edge12" class="edge"><title>{2}&#45;&gt;{2}</title>
<path fill="none" stroke="black" d="M484.812,-116.923C484.038,-127.178 486.745,-136.048 492.933,-136.048 496.897,-136.048 499.432,-132.408 500.539,-127.095"/>
<polygon fill="black" stroke="black" points="504.044,-127.087 501.054,-116.923 497.053,-126.733 504.044,-127.087"/>
<text text-anchor="middle" x="492.933" y="-139.848" font-family="Times New Roman,serif" font-size="14.00">h</text>
</g>
</g>
</svg>
