<?xml version="1.0" encoding="UTF-8" standalone="no"?>
<!DOCTYPE svg PUBLIC "-//W3C//DTD SVG 1.1//EN"
 "http://www.w3.org/Graphics/SVG/1.1/DTD/svg11.dtd">
<!-- Generated by graphviz version 2.38.0 (20140413.2041)
 -->
<!-- Title: dfa Pages: 1 -->
<svg width="354pt" height="128pt"
 viewBox="0.00 0.00 353.60 128.00" xmlns="http://www.w3.org/2000/svg" xmlns:xlink="http://www.w3.org/1999/xlink">
<g id="graph0" class="graph" transform="scale(1 1) rotate(0) translate(4 124)">
<title>dfa</title>
<polygon fill="white" stroke="none" points="-4,4 -4,-124 349.6,-124 349.6,4 -4,4"/>
<!-- __start -->
<!-- 0 -->
<g id="node2" class="node"><title>0</title>
<ellipse fill="none" stroke="black" cx="82.6" cy="-56" rx="18" ry="18"/>
<text text-anchor="middle" x="82.6" y="-52.3" font-family="Times New Roman,serif" font-size="14.00">0</text>
</g>
<!-- __start&#45;&gt;0 -->
<g id="edge1" class="edge"><title>__start&#45;&gt;0</title>
<path fill="none" stroke="black" d="M3.68496,-56C8.69573,-56 34.008,-56 54.4423,-56"/>
<polygon fill="black" stroke="black" points="54.5501,-59.5001 64.5501,-56 54.5501,-52.5001 54.5501,-59.5001"/>
<text text-anchor="middle" x="34.1" y="-59.8" font-family="Times New Roman,serif" font-size="14.00">start</text>
</g>
<!-- 1 -->
<g id="node3" class="node"><title>1</title>
<ellipse fill="none" stroke="black" cx="244.6" cy="-56" rx="18" ry="18"/>
<ellipse fill="none" stroke="black" cx="244.6" cy="-56" rx="22" ry="22"/>
<text text-anchor="middle" x="244.6" y="-52.3" font-family="Times New Roman,serif" font-size="14.00">1</text>
</g>
<!-- 0&#45;&gt;1 -->
<g id="edge3" class="edge"><title>0&#45;&gt;1</title>
<path fill="none" stroke="black" d="M94.3681,-69.8186C100.745,-77.2358 109.368,-86.0498 118.6,-92 141.635,-106.846 153.298,-108.696 179.6,-101 194.706,-96.58 209.249,-86.9417 220.644,-77.7147"/>
<polygon fill="black" stroke="black" points="223.007,-80.2994 228.348,-71.1492 218.467,-74.9716 223.007,-80.2994"/>
<text text-anchor="middle" x="161.6" y="-108.8" font-family="Times New Roman,serif" font-size="14.00">g</text>
</g>
<!-- 2 -->
<g id="node4" class="node"><title>2</title>
<ellipse fill="none" stroke="black" cx="161.6" cy="-74" rx="18" ry="18"/>
<text text-anchor="middle" x="161.6" y="-70.3" font-family="Times New Roman,serif" font-size="14.00">2</text>
</g>
<!-- 0&#45;&gt;2 -->
<g id="edge2" class="edge"><title>0&#45;&gt;2</title>
<path fill="none" stroke="black" d="M98.8229,-64.4898C104.805,-67.4126 111.848,-70.3606 118.6,-72 123.193,-73.1152 128.15,-73.7942 132.992,-74.1863"/>
<polygon fill="black" stroke="black" points="133.078,-77.6936 143.225,-74.6445 133.391,-70.7006 133.078,-77.6936"/>
<text text-anchor="middle" x="122.1" y="-76.8" font-family="Times New Roman,serif" font-size="14.00">c</text>
</g>
<!-- 1&#45;&gt;0 -->
<g id="edge5" class="edge"><title>1&#45;&gt;0</title>
<path fill="none" stroke="black" d="M224.509,-46.7762C212.048,-41.2799 195.246,-34.8372 179.6,-32 163.857,-29.1452 159.311,-28.9743 143.6,-32 131.454,-34.3391 118.642,-39.1148 107.989,-43.7945"/>
<polygon fill="black" stroke="black" points="106.507,-40.6236 98.8949,-47.9926 109.441,-46.9791 106.507,-40.6236"/>
<text text-anchor="middle" x="161.6" y="-35.8" font-family="Times New Roman,serif" font-size="14.00">g</text>
</g>
<!-- 3 -->
<g id="node5" class="node"><title>3</title>
<ellipse fill="none" stroke="black" cx="327.6" cy="-18" rx="18" ry="18"/>
<text text-anchor="middle" x="327.6" y="-14.3" font-family="Times New Roman,serif" font-size="14.00">3</text>
</g>
<!-- 1&#45;&gt;3 -->
<g id="edge4" class="edge"><title>1&#45;&gt;3</title>
<path fill="none" stroke="black" d="M264.796,-46.9945C275.834,-41.8163 289.823,-35.2535 301.699,-29.6817"/>
<polygon fill="black" stroke="black" points="303.501,-32.7026 311.068,-25.2867 300.528,-26.3654 303.501,-32.7026"/>
<text text-anchor="middle" x="288.1" y="-40.8" font-family="Times New Roman,serif" font-size="14.00">c</text>
</g>
<!-- 2&#45;&gt;0 -->
<g id="edge6" class="edge"><title>2&#45;&gt;0</title>
<path fill="none" stroke="black" d="M146.763,-63.33C140.63,-59.2506 133.112,-55.0807 125.6,-53 120.748,-51.656 115.466,-51.2524 110.338,-51.3803"/>
<polygon fill="black" stroke="black" points="109.872,-47.9075 100.212,-52.2588 110.477,-54.8813 109.872,-47.9075"/>
<text text-anchor="middle" x="122.1" y="-56.8" font-family="Times New Roman,serif" font-size="14.00">c</text>
</g>
<!-- 2&#45;&gt;1 -->
<g id="edge7" class="edge"><title>2&#45;&gt;1</title>
<path fill="none" stroke="black" d="M179.383,-70.2704C189.033,-68.1259 201.457,-65.3651 212.802,-62.8441"/>
<polygon fill="black" stroke="black" points="213.804,-66.2069 222.806,-60.6208 212.285,-59.3736 213.804,-66.2069"/>
<text text-anchor="middle" x="201.1" y="-69.8" font-family="Times New Roman,serif" font-size="14.00">g</text>
</g>
<!-- 3&#45;&gt;0 -->
<g id="edge8" class="edge"><title>3&#45;&gt;0</title>
<path fill="none" stroke="black" d="M310.031,-12.8288C304.259,-11.2715 297.7,-9.77173 291.6,-9 288.513,-8.60951 287.708,-8.85741 284.6,-9 221.597,-11.8906 205.283,-11.85 143.6,-25 132.315,-27.4058 129.054,-27.1162 118.6,-32 114.278,-34.0192 109.903,-36.5523 105.779,-39.2103"/>
<polygon fill="black" stroke="black" points="103.515,-36.5199 97.2676,-45.077 107.487,-42.2833 103.515,-36.5199"/>
<text text-anchor="middle" x="201.1" y="-18.8" font-family="Times New Roman,serif" font-size="14.00">c</text>
</g>
<!-- 3&#45;&gt;1 -->
<g id="edge9" class="edge"><title>3&#45;&gt;1</title>
<path fill="none" stroke="black" d="M310.055,-13.3602C302.07,-11.9713 292.528,-11.5996 284.6,-15 276.855,-18.322 269.922,-24.0212 264.126,-30.1315"/>
<polygon fill="black" stroke="black" points="261.277,-28.0766 257.416,-37.9431 266.587,-32.6374 261.277,-28.0766"/>
<text text-anchor="middle" x="288.1" y="-18.8" font-family="Times New Roman,serif" font-size="14.00">g</text>
</g>
</g>
</svg>
