<?xml version="1.0" encoding="UTF-8" standalone="no"?>
<!DOCTYPE svg PUBLIC "-//W3C//DTD SVG 1.1//EN"
 "http://www.w3.org/Graphics/SVG/1.1/DTD/svg11.dtd">
<!-- Generated by graphviz version 2.38.0 (20140413.2041)
 -->
<!-- Title: dfa Pages: 1 -->
<svg width="372pt" height="128pt"
 viewBox="0.00 0.00 371.60 128.00" xmlns="http://www.w3.org/2000/svg" xmlns:xlink="http://www.w3.org/1999/xlink">
<g id="graph0" class="graph" transform="scale(1 1) rotate(0) translate(4 124)">
<title>dfa</title>
<polygon fill="white" stroke="none" points="-4,4 -4,-124 367.6,-124 367.6,4 -4,4"/>
<!-- __start -->
<!-- 0 -->
<g id="node2" class="node"><title>0</title>
<ellipse fill="none" stroke="black" cx="91.6" cy="-56" rx="27" ry="18"/>
<text text-anchor="middle" x="91.6" y="-52.3" font-family="Times New Roman,serif" font-size="14.00">0</text>
</g>
<!-- __start&#45;&gt;0 -->
<g id="edge1" class="edge"><title>__start&#45;&gt;0</title>
<path fill="none" stroke="black" d="M3.78604,-56C8.86985,-56 32.7092,-56 54.1222,-56"/>
<polygon fill="black" stroke="black" points="54.3463,-59.5001 64.3463,-56 54.3463,-52.5001 54.3463,-59.5001"/>
<text text-anchor="middle" x="34.1" y="-59.8" font-family="Times New Roman,serif" font-size="14.00">start</text>
</g>
<!-- 1 -->
<g id="node3" class="node"><title>1</title>
<ellipse fill="none" stroke="black" cx="262.6" cy="-56" rx="18" ry="18"/>
<ellipse fill="none" stroke="black" cx="262.6" cy="-56" rx="22" ry="22"/>
<text text-anchor="middle" x="262.6" y="-52.3" font-family="Times New Roman,serif" font-size="14.00">1</text>
</g>
<!-- 0&#45;&gt;1 -->
<g id="edge3" class="edge"><title>0&#45;&gt;1</title>
<path fill="none" stroke="black" d="M107.936,-70.7406C115.984,-77.8847 126.296,-86.1598 136.6,-92 160.441,-105.513 171.298,-108.696 197.6,-101 212.706,-96.58 227.249,-86.9417 238.644,-77.7147"/>
<polygon fill="black" stroke="black" points="241.007,-80.2994 246.348,-71.1492 236.467,-74.9716 241.007,-80.2994"/>
<text text-anchor="middle" x="179.6" y="-108.8" font-family="Times New Roman,serif" font-size="14.00">g</text>
</g>
<!-- 2 -->
<g id="node4" class="node"><title>2</title>
<ellipse fill="none" stroke="black" cx="179.6" cy="-74" rx="18" ry="18"/>
<text text-anchor="middle" x="179.6" y="-70.3" font-family="Times New Roman,serif" font-size="14.00">2</text>
</g>
<!-- 0&#45;&gt;2 -->
<g id="edge2" class="edge"><title>0&#45;&gt;2</title>
<path fill="none" stroke="black" d="M114.61,-65.4733C121.524,-68.0472 129.268,-70.5277 136.6,-72 141.234,-72.9306 146.211,-73.5184 151.061,-73.8773"/>
<polygon fill="black" stroke="black" points="151.143,-77.3845 161.292,-74.3414 151.461,-70.3917 151.143,-77.3845"/>
<text text-anchor="middle" x="140.1" y="-76.8" font-family="Times New Roman,serif" font-size="14.00">c</text>
</g>
<!-- 1&#45;&gt;0 -->
<g id="edge5" class="edge"><title>1&#45;&gt;0</title>
<path fill="none" stroke="black" d="M242.509,-46.7762C230.048,-41.2799 213.246,-34.8372 197.6,-32 181.857,-29.1452 177.376,-29.3346 161.6,-32 149.026,-34.1244 135.685,-38.2823 124.119,-42.5487"/>
<polygon fill="black" stroke="black" points="122.541,-39.4063 114.476,-46.2774 125.066,-45.9352 122.541,-39.4063"/>
<text text-anchor="middle" x="179.6" y="-35.8" font-family="Times New Roman,serif" font-size="14.00">g</text>
</g>
<!-- 3 -->
<g id="node5" class="node"><title>3</title>
<ellipse fill="none" stroke="black" cx="345.6" cy="-18" rx="18" ry="18"/>
<text text-anchor="middle" x="345.6" y="-14.3" font-family="Times New Roman,serif" font-size="14.00">3</text>
</g>
<!-- 1&#45;&gt;3 -->
<g id="edge4" class="edge"><title>1&#45;&gt;3</title>
<path fill="none" stroke="black" d="M282.796,-46.9945C293.834,-41.8163 307.823,-35.2535 319.699,-29.6817"/>
<polygon fill="black" stroke="black" points="321.501,-32.7026 329.068,-25.2867 318.528,-26.3654 321.501,-32.7026"/>
<text text-anchor="middle" x="306.1" y="-40.8" font-family="Times New Roman,serif" font-size="14.00">c</text>
</g>
<!-- 2&#45;&gt;0 -->
<g id="edge6" class="edge"><title>2&#45;&gt;0</title>
<path fill="none" stroke="black" d="M164.763,-63.33C158.63,-59.2506 151.112,-55.0807 143.6,-53 138.6,-51.615 133.221,-51.0196 127.899,-50.9253"/>
<polygon fill="black" stroke="black" points="127.715,-47.4296 117.847,-51.2857 127.966,-54.4251 127.715,-47.4296"/>
<text text-anchor="middle" x="140.1" y="-56.8" font-family="Times New Roman,serif" font-size="14.00">c</text>
</g>
<!-- 2&#45;&gt;1 -->
<g id="edge7" class="edge"><title>2&#45;&gt;1</title>
<path fill="none" stroke="black" d="M197.383,-70.2704C207.033,-68.1259 219.457,-65.3651 230.802,-62.8441"/>
<polygon fill="black" stroke="black" points="231.804,-66.2069 240.806,-60.6208 230.285,-59.3736 231.804,-66.2069"/>
<text text-anchor="middle" x="219.1" y="-69.8" font-family="Times New Roman,serif" font-size="14.00">g</text>
</g>
<!-- 3&#45;&gt;0 -->
<g id="edge8" class="edge"><title>3&#45;&gt;0</title>
<path fill="none" stroke="black" d="M328.031,-12.8288C322.259,-11.2715 315.7,-9.77173 309.6,-9 306.513,-8.60951 305.708,-8.85741 302.6,-9 239.597,-11.8906 223.283,-11.85 161.6,-25 150.315,-27.4058 147.289,-27.654 136.6,-32 131.461,-34.0893 126.153,-36.6264 121.079,-39.2586"/>
<polygon fill="black" stroke="black" points="119.41,-36.1821 112.285,-44.0232 122.745,-42.3368 119.41,-36.1821"/>
<text text-anchor="middle" x="219.1" y="-18.8" font-family="Times New Roman,serif" font-size="14.00">c</text>
</g>
<!-- 3&#45;&gt;1 -->
<g id="edge9" class="edge"><title>3&#45;&gt;1</title>
<path fill="none" stroke="black" d="M328.055,-13.3602C320.07,-11.9713 310.528,-11.5996 302.6,-15 294.855,-18.322 287.922,-24.0212 282.126,-30.1315"/>
<polygon fill="black" stroke="black" points="279.277,-28.0766 275.416,-37.9431 284.587,-32.6374 279.277,-28.0766"/>
<text text-anchor="middle" x="306.1" y="-18.8" font-family="Times New Roman,serif" font-size="14.00">g</text>
</g>
</g>
</svg>
