<?xml version="1.0" encoding="UTF-8" standalone="no"?>
<!DOCTYPE svg PUBLIC "-//W3C//DTD SVG 1.1//EN"
 "http://www.w3.org/Graphics/SVG/1.1/DTD/svg11.dtd">
<!-- Generated by graphviz version 2.38.0 (20140413.2041)
 -->
<!-- Title: dfa Pages: 1 -->
<svg width="196pt" height="84pt"
 viewBox="0.00 0.00 195.60 83.59" xmlns="http://www.w3.org/2000/svg" xmlns:xlink="http://www.w3.org/1999/xlink">
<g id="graph0" class="graph" transform="scale(1 1) rotate(0) translate(4 79.5866)">
<title>dfa</title>
<polygon fill="white" stroke="none" points="-4,4 -4,-79.5866 191.6,-79.5866 191.6,4 -4,4"/>
<!-- __start -->
<!-- 0 -->
<g id="node2" class="node"><title>0</title>
<ellipse fill="none" stroke="black" cx="82.6" cy="-24.5866" rx="18" ry="18"/>
<text text-anchor="middle" x="82.6" y="-20.8866" font-family="Times New Roman,serif" font-size="14.00">0</text>
</g>
<!-- __start&#45;&gt;0 -->
<g id="edge1" class="edge"><title>__start&#45;&gt;0</title>
<path fill="none" stroke="black" d="M3.68496,-24.5866C8.69573,-24.5866 34.008,-24.5866 54.4423,-24.5866"/>
<polygon fill="black" stroke="black" points="54.5501,-28.0867 64.5501,-24.5866 54.5501,-21.0867 54.5501,-28.0867"/>
<text text-anchor="middle" x="34.1" y="-28.3866" font-family="Times New Roman,serif" font-size="14.00">start</text>
</g>
<!-- 0&#45;&gt;0 -->
<g id="edge2" class="edge"><title>0&#45;&gt;0</title>
<path fill="none" stroke="black" d="M75.8664,-41.6239C74.4922,-51.4446 76.7367,-60.5866 82.6,-60.5866 86.2646,-60.5866 88.5155,-57.0155 89.3529,-51.9396"/>
<polygon fill="black" stroke="black" points="92.8524,-51.6173 89.3336,-41.6239 85.8524,-51.6305 92.8524,-51.6173"/>
<text text-anchor="middle" x="82.6" y="-64.3866" font-family="Times New Roman,serif" font-size="14.00">c</text>
</g>
<!-- 1 -->
<g id="node3" class="node"><title>1</title>
<ellipse fill="none" stroke="black" cx="165.6" cy="-24.5866" rx="18" ry="18"/>
<ellipse fill="none" stroke="black" cx="165.6" cy="-24.5866" rx="22" ry="22"/>
<text text-anchor="middle" x="165.6" y="-20.8866" font-family="Times New Roman,serif" font-size="14.00">1</text>
</g>
<!-- 0&#45;&gt;1 -->
<g id="edge3" class="edge"><title>0&#45;&gt;1</title>
<path fill="none" stroke="black" d="M98.7836,-33.2468C104.761,-36.1905 111.811,-39.1084 118.6,-40.5866 124.634,-41.9004 130.969,-41.1624 136.942,-39.4365"/>
<polygon fill="black" stroke="black" points="138.433,-42.6138 146.535,-35.7868 135.944,-36.0712 138.433,-42.6138"/>
<text text-anchor="middle" x="122.1" y="-44.3866" font-family="Times New Roman,serif" font-size="14.00">g</text>
</g>
<!-- 1&#45;&gt;0 -->
<g id="edge4" class="edge"><title>1&#45;&gt;0</title>
<path fill="none" stroke="black" d="M143.543,-22.2571C135.715,-21.6431 126.756,-21.2378 118.6,-21.5866 116.041,-21.6961 113.379,-21.8504 110.718,-22.0319"/>
<polygon fill="black" stroke="black" points="110.363,-18.549 100.671,-22.8291 110.917,-25.5271 110.363,-18.549"/>
<text text-anchor="middle" x="122.1" y="-25.3866" font-family="Times New Roman,serif" font-size="14.00">c</text>
</g>
<!-- 1&#45;&gt;0 -->
<g id="edge5" class="edge"><title>1&#45;&gt;0</title>
<path fill="none" stroke="black" d="M148.983,-10.0167C140.331,-3.71043 129.207,1.58664 118.6,-1.58664 114.09,-2.936 109.622,-5.07417 105.463,-7.51579"/>
<polygon fill="black" stroke="black" points="103.357,-4.7128 96.9585,-13.1571 107.227,-10.5462 103.357,-4.7128"/>
<text text-anchor="middle" x="122.1" y="-5.38664" font-family="Times New Roman,serif" font-size="14.00">g</text>
</g>
</g>
</svg>
