<?xml version="1.0" encoding="UTF-8" standalone="no"?>
<!DOCTYPE svg PUBLIC "-//W3C//DTD SVG 1.1//EN"
 "http://www.w3.org/Graphics/SVG/1.1/DTD/svg11.dtd">
<!-- Generated by graphviz version 2.38.0 (20140413.2041)
 -->
<!-- Title: enfa Pages: 1 -->
<svg width="271pt" height="81pt"
 viewBox="0.00 0.00 270.60 81.00" xmlns="http://www.w3.org/2000/svg" xmlns:xlink="http://www.w3.org/1999/xlink">
<g id="graph0" class="graph" transform="scale(1 1) rotate(0) translate(4 77)">
<title>enfa</title>
<polygon fill="white" stroke="none" points="-4,4 -4,-77 266.6,-77 266.6,4 -4,4"/>
<!-- __start -->
<!-- 0 -->
<g id="node2" class="node"><title>0</title>
<ellipse fill="none" stroke="black" cx="82.6" cy="-29" rx="18" ry="18"/>
<text text-anchor="middle" x="82.6" y="-25.3" font-family="Times New Roman,serif" font-size="14.00">0</text>
</g>
<!-- __start&#45;&gt;0 -->
<g id="edge1" class="edge"><title>__start&#45;&gt;0</title>
<path fill="none" stroke="black" d="M3.68496,-29C8.69573,-29 34.008,-29 54.4423,-29"/>
<polygon fill="black" stroke="black" points="54.5501,-32.5001 64.5501,-29 54.5501,-25.5001 54.5501,-32.5001"/>
<text text-anchor="middle" x="34.1" y="-32.8" font-family="Times New Roman,serif" font-size="14.00">start</text>
</g>
<!-- 1 -->
<g id="node3" class="node"><title>1</title>
<ellipse fill="none" stroke="black" cx="163.6" cy="-51" rx="18" ry="18"/>
<ellipse fill="none" stroke="black" cx="163.6" cy="-51" rx="22" ry="22"/>
<text text-anchor="middle" x="163.6" y="-47.3" font-family="Times New Roman,serif" font-size="14.00">1</text>
</g>
<!-- 0&#45;&gt;1 -->
<g id="edge3" class="edge"><title>0&#45;&gt;1</title>
<path fill="none" stroke="black" d="M98.906,-37.1775C104.899,-40.062 111.926,-43.0654 118.6,-45 122.682,-46.1833 127.046,-47.1352 131.382,-47.9005"/>
<polygon fill="black" stroke="black" points="130.895,-51.3665 141.3,-49.3685 131.92,-44.4419 130.895,-51.3665"/>
<text text-anchor="middle" x="121.1" y="-49.8" font-family="Times New Roman,serif" font-size="14.00">r</text>
</g>
<!-- 1&#45;&gt;0 -->
<g id="edge5" class="edge"><title>1&#45;&gt;0</title>
<path fill="none" stroke="black" d="M146.169,-37.5129C139.568,-32.9188 131.627,-28.3518 123.6,-26 119.39,-24.7664 114.829,-24.3216 110.346,-24.3522"/>
<polygon fill="black" stroke="black" points="109.924,-20.8743 100.226,-25.1385 110.467,-27.8533 109.924,-20.8743"/>
<text text-anchor="middle" x="121.1" y="-29.8" font-family="Times New Roman,serif" font-size="14.00">r</text>
</g>
<!-- 2 -->
<g id="node4" class="node"><title>2</title>
<ellipse fill="none" stroke="black" cx="244.6" cy="-18" rx="18" ry="18"/>
<text text-anchor="middle" x="244.6" y="-14.3" font-family="Times New Roman,serif" font-size="14.00">2</text>
</g>
<!-- 1&#45;&gt;2 -->
<g id="edge6" class="edge"><title>1&#45;&gt;2</title>
<path fill="none" stroke="black" d="M184.128,-42.8427C194.413,-38.5465 207.149,-33.2262 218.194,-28.6127"/>
<polygon fill="black" stroke="black" points="219.864,-31.7082 227.742,-24.6241 217.166,-25.249 219.864,-31.7082"/>
<text text-anchor="middle" x="206.1" y="-37.8" font-family="Times New Roman,serif" font-size="14.00">r</text>
</g>
<!-- 2&#45;&gt;0 -->
<g id="edge4" class="edge"><title>2&#45;&gt;0</title>
<path fill="none" stroke="black" d="M227.235,-12.6843C206.993,-6.8492 171.541,0.949993 141.6,-5 130.098,-7.2857 118.018,-11.8905 107.877,-16.4608"/>
<polygon fill="black" stroke="black" points="106.364,-13.3046 98.8319,-20.7553 109.367,-19.6281 106.364,-13.3046"/>
<text text-anchor="middle" x="163.6" y="-8.8" font-family="Times New Roman,serif" font-size="14.00">ε</text>
</g>
<!-- 2&#45;&gt;2 -->
<g id="edge2" class="edge"><title>2&#45;&gt;2</title>
<path fill="none" stroke="black" d="M237.866,-35.0373C236.492,-44.8579 238.737,-54 244.6,-54 248.265,-54 250.516,-50.4289 251.353,-45.3529"/>
<polygon fill="black" stroke="black" points="254.852,-45.0307 251.334,-35.0373 247.852,-45.0439 254.852,-45.0307"/>
<text text-anchor="middle" x="244.6" y="-57.8" font-family="Times New Roman,serif" font-size="14.00">r</text>
</g>
</g>
</svg>
