<?xml version="1.0" encoding="UTF-8" standalone="no"?>
<!DOCTYPE svg PUBLIC "-//W3C//DTD SVG 1.1//EN"
 "http://www.w3.org/Graphics/SVG/1.1/DTD/svg11.dtd">
<!-- Generated by graphviz version 2.38.0 (20140413.2041)
 -->
<!-- Title: enfa Pages: 1 -->
<svg width="289pt" height="81pt"
 viewBox="0.00 0.00 288.60 81.00" xmlns="http://www.w3.org/2000/svg" xmlns:xlink="http://www.w3.org/1999/xlink">
<g id="graph0" class="graph" transform="scale(1 1) rotate(0) translate(4 77)">
<title>enfa</title>
<polygon fill="white" stroke="none" points="-4,4 -4,-77 284.6,-77 284.6,4 -4,4"/>
<!-- __start -->
<!-- 0 -->
<g id="node2" class="node"><title>0</title>
<ellipse fill="none" stroke="black" cx="91.6" cy="-29" rx="27" ry="18"/>
<text text-anchor="middle" x="91.6" y="-25.3" font-family="Times New Roman,serif" font-size="14.00">0</text>
</g>
<!-- __start&#45;&gt;0 -->
<g id="edge1" class="edge"><title>__start&#45;&gt;0</title>
<path fill="none" stroke="black" d="M3.78604,-29C8.86985,-29 32.7092,-29 54.1222,-29"/>
<polygon fill="black" stroke="black" points="54.3463,-32.5001 64.3463,-29 54.3463,-25.5001 54.3463,-32.5001"/>
<text text-anchor="middle" x="34.1" y="-32.8" font-family="Times New Roman,serif" font-size="14.00">start</text>
</g>
<!-- 1 -->
<g id="node3" class="node"><title>1</title>
<ellipse fill="none" stroke="black" cx="181.6" cy="-51" rx="18" ry="18"/>
<ellipse fill="none" stroke="black" cx="181.6" cy="-51" rx="22" ry="22"/>
<text text-anchor="middle" x="181.6" y="-47.3" font-family="Times New Roman,serif" font-size="14.00">1</text>
</g>
<!-- 0&#45;&gt;1 -->
<g id="edge3" class="edge"><title>0&#45;&gt;1</title>
<path fill="none" stroke="black" d="M115.15,-38.2451C121.951,-40.7475 129.498,-43.2458 136.6,-45 140.726,-46.0191 145.115,-46.8775 149.463,-47.5972"/>
<polygon fill="black" stroke="black" points="148.991,-51.0652 159.389,-49.035 149.994,-44.1375 148.991,-51.0652"/>
<text text-anchor="middle" x="139.1" y="-49.8" font-family="Times New Roman,serif" font-size="14.00">r</text>
</g>
<!-- 1&#45;&gt;0 -->
<g id="edge5" class="edge"><title>1&#45;&gt;0</title>
<path fill="none" stroke="black" d="M164.169,-37.5129C157.568,-32.9188 149.627,-28.3518 141.6,-26 137.202,-24.7115 132.491,-24.0966 127.791,-23.9292"/>
<polygon fill="black" stroke="black" points="127.554,-20.434 117.647,-24.1895 127.734,-27.4317 127.554,-20.434"/>
<text text-anchor="middle" x="139.1" y="-29.8" font-family="Times New Roman,serif" font-size="14.00">r</text>
</g>
<!-- 2 -->
<g id="node4" class="node"><title>2</title>
<ellipse fill="none" stroke="black" cx="262.6" cy="-18" rx="18" ry="18"/>
<text text-anchor="middle" x="262.6" y="-14.3" font-family="Times New Roman,serif" font-size="14.00">2</text>
</g>
<!-- 1&#45;&gt;2 -->
<g id="edge6" class="edge"><title>1&#45;&gt;2</title>
<path fill="none" stroke="black" d="M202.128,-42.8427C212.413,-38.5465 225.149,-33.2262 236.194,-28.6127"/>
<polygon fill="black" stroke="black" points="237.864,-31.7082 245.742,-24.6241 235.166,-25.249 237.864,-31.7082"/>
<text text-anchor="middle" x="224.1" y="-37.8" font-family="Times New Roman,serif" font-size="14.00">r</text>
</g>
<!-- 2&#45;&gt;0 -->
<g id="edge4" class="edge"><title>2&#45;&gt;0</title>
<path fill="none" stroke="black" d="M245.28,-12.9244C225.083,-7.33118 189.676,0.224192 159.6,-5 147.67,-7.07224 135.055,-11.075 124.029,-15.2266"/>
<polygon fill="black" stroke="black" points="122.425,-12.0969 114.414,-19.0299 125,-18.6062 122.425,-12.0969"/>
<text text-anchor="middle" x="181.6" y="-8.8" font-family="Times New Roman,serif" font-size="14.00">ε</text>
</g>
<!-- 2&#45;&gt;2 -->
<g id="edge2" class="edge"><title>2&#45;&gt;2</title>
<path fill="none" stroke="black" d="M255.866,-35.0373C254.492,-44.8579 256.737,-54 262.6,-54 266.265,-54 268.516,-50.4289 269.353,-45.3529"/>
<polygon fill="black" stroke="black" points="272.852,-45.0307 269.334,-35.0373 265.852,-45.0439 272.852,-45.0307"/>
<text text-anchor="middle" x="262.6" y="-57.8" font-family="Times New Roman,serif" font-size="14.00">r</text>
</g>
</g>
</svg>
