<?xml version="1.0" encoding="UTF-8" standalone="no"?>
<!DOCTYPE svg PUBLIC "-//W3C//DTD SVG 1.1//EN"
 "http://www.w3.org/Graphics/SVG/1.1/DTD/svg11.dtd">
<!-- Generated by graphviz version 2.38.0 (20140413.2041)
 -->
<!-- Title: dfa Pages: 1 -->
<svg width="356pt" height="85pt"
 viewBox="0.00 0.00 355.60 85.00" xmlns="http://www.w3.org/2000/svg" xmlns:xlink="http://www.w3.org/1999/xlink">
<g id="graph0" class="graph" transform="scale(1 1) rotate(0) translate(4 81)">
<title>dfa</title>
<polygon fill="white" stroke="none" points="-4,4 -4,-81 351.6,-81 351.6,4 -4,4"/>
<!-- __start -->
<!-- 0 -->
<g id="node2" class="node"><title>0</title>
<ellipse fill="none" stroke="black" cx="82.6" cy="-22" rx="18" ry="18"/>
<text text-anchor="middle" x="82.6" y="-18.3" font-family="Times New Roman,serif" font-size="14.00">0</text>
</g>
<!-- __start&#45;&gt;0 -->
<g id="edge1" class="edge"><title>__start&#45;&gt;0</title>
<path fill="none" stroke="black" d="M3.68496,-22C8.69573,-22 34.008,-22 54.4423,-22"/>
<polygon fill="black" stroke="black" points="54.5501,-25.5001 64.5501,-22 54.5501,-18.5001 54.5501,-25.5001"/>
<text text-anchor="middle" x="34.1" y="-25.8" font-family="Times New Roman,serif" font-size="14.00">start</text>
</g>
<!-- 1 -->
<g id="node3" class="node"><title>1</title>
<ellipse fill="none" stroke="black" cx="163.6" cy="-22" rx="18" ry="18"/>
<ellipse fill="none" stroke="black" cx="163.6" cy="-22" rx="22" ry="22"/>
<text text-anchor="middle" x="163.6" y="-18.3" font-family="Times New Roman,serif" font-size="14.00">1</text>
</g>
<!-- 0&#45;&gt;1 -->
<g id="edge2" class="edge"><title>0&#45;&gt;1</title>
<path fill="none" stroke="black" d="M100.742,-22C109.727,-22 121.014,-22 131.478,-22"/>
<polygon fill="black" stroke="black" points="131.553,-25.5001 141.553,-22 131.553,-18.5001 131.553,-25.5001"/>
<text text-anchor="middle" x="121.1" y="-25.8" font-family="Times New Roman,serif" font-size="14.00">r</text>
</g>
<!-- 3 -->
<g id="node5" class="node"><title>3</title>
<ellipse fill="none" stroke="black" cx="244.6" cy="-22" rx="18" ry="18"/>
<text text-anchor="middle" x="244.6" y="-18.3" font-family="Times New Roman,serif" font-size="14.00">3</text>
</g>
<!-- 1&#45;&gt;3 -->
<g id="edge3" class="edge"><title>1&#45;&gt;3</title>
<path fill="none" stroke="black" d="M185.771,-22C195.101,-22 206.186,-22 216.141,-22"/>
<polygon fill="black" stroke="black" points="216.365,-25.5001 226.365,-22 216.365,-18.5001 216.365,-25.5001"/>
<text text-anchor="middle" x="206.1" y="-25.8" font-family="Times New Roman,serif" font-size="14.00">r</text>
</g>
<!-- 2 -->
<g id="node4" class="node"><title>2</title>
<ellipse fill="none" stroke="black" cx="325.6" cy="-22" rx="18" ry="18"/>
<ellipse fill="none" stroke="black" cx="325.6" cy="-22" rx="22" ry="22"/>
<text text-anchor="middle" x="325.6" y="-18.3" font-family="Times New Roman,serif" font-size="14.00">2</text>
</g>
<!-- 2&#45;&gt;2 -->
<g id="edge5" class="edge"><title>2&#45;&gt;2</title>
<path fill="none" stroke="black" d="M317.917,-42.9908C316.969,-53.0872 319.53,-62 325.6,-62 329.489,-62 331.937,-58.3422 332.946,-53.0587"/>
<polygon fill="black" stroke="black" points="336.446,-53.1023 333.283,-42.9908 329.45,-52.868 336.446,-53.1023"/>
<text text-anchor="middle" x="325.6" y="-65.8" font-family="Times New Roman,serif" font-size="14.00">r</text>
</g>
<!-- 3&#45;&gt;2 -->
<g id="edge4" class="edge"><title>3&#45;&gt;2</title>
<path fill="none" stroke="black" d="M262.742,-22C271.727,-22 283.014,-22 293.478,-22"/>
<polygon fill="black" stroke="black" points="293.553,-25.5001 303.553,-22 293.553,-18.5001 293.553,-25.5001"/>
<text text-anchor="middle" x="283.1" y="-25.8" font-family="Times New Roman,serif" font-size="14.00">r</text>
</g>
</g>
</svg>
