<?xml version="1.0" encoding="UTF-8" standalone="no"?>
<!DOCTYPE svg PUBLIC "-//W3C//DTD SVG 1.1//EN"
 "http://www.w3.org/Graphics/SVG/1.1/DTD/svg11.dtd">
<!-- Generated by graphviz version 2.38.0 (20140413.2041)
 -->
<!-- Title: dfa Pages: 1 -->
<svg width="374pt" height="85pt"
 viewBox="0.00 0.00 373.60 85.00" xmlns="http://www.w3.org/2000/svg" xmlns:xlink="http://www.w3.org/1999/xlink">
<g id="graph0" class="graph" transform="scale(1 1) rotate(0) translate(4 81)">
<title>dfa</title>
<polygon fill="white" stroke="none" points="-4,4 -4,-81 369.6,-81 369.6,4 -4,4"/>
<!-- __start -->
<!-- 0 -->
<g id="node2" class="node"><title>0</title>
<ellipse fill="none" stroke="black" cx="91.6" cy="-22" rx="27" ry="18"/>
<text text-anchor="middle" x="91.6" y="-18.3" font-family="Times New Roman,serif" font-size="14.00">0</text>
</g>
<!-- __start&#45;&gt;0 -->
<g id="edge1" class="edge"><title>__start&#45;&gt;0</title>
<path fill="none" stroke="black" d="M3.78604,-22C8.86985,-22 32.7092,-22 54.1222,-22"/>
<polygon fill="black" stroke="black" points="54.3463,-25.5001 64.3463,-22 54.3463,-18.5001 54.3463,-25.5001"/>
<text text-anchor="middle" x="34.1" y="-25.8" font-family="Times New Roman,serif" font-size="14.00">start</text>
</g>
<!-- 1 -->
<g id="node3" class="node"><title>1</title>
<ellipse fill="none" stroke="black" cx="181.6" cy="-22" rx="18" ry="18"/>
<ellipse fill="none" stroke="black" cx="181.6" cy="-22" rx="22" ry="22"/>
<text text-anchor="middle" x="181.6" y="-18.3" font-family="Times New Roman,serif" font-size="14.00">1</text>
</g>
<!-- 0&#45;&gt;1 -->
<g id="edge2" class="edge"><title>0&#45;&gt;1</title>
<path fill="none" stroke="black" d="M119.003,-22C128.521,-22 139.354,-22 149.253,-22"/>
<polygon fill="black" stroke="black" points="149.522,-25.5001 159.522,-22 149.522,-18.5001 149.522,-25.5001"/>
<text text-anchor="middle" x="139.1" y="-25.8" font-family="Times New Roman,serif" font-size="14.00">r</text>
</g>
<!-- 3 -->
<g id="node5" class="node"><title>3</title>
<ellipse fill="none" stroke="black" cx="262.6" cy="-22" rx="18" ry="18"/>
<text text-anchor="middle" x="262.6" y="-18.3" font-family="Times New Roman,serif" font-size="14.00">3</text>
</g>
<!-- 1&#45;&gt;3 -->
<g id="edge3" class="edge"><title>1&#45;&gt;3</title>
<path fill="none" stroke="black" d="M203.771,-22C213.101,-22 224.186,-22 234.141,-22"/>
<polygon fill="black" stroke="black" points="234.365,-25.5001 244.365,-22 234.365,-18.5001 234.365,-25.5001"/>
<text text-anchor="middle" x="224.1" y="-25.8" font-family="Times New Roman,serif" font-size="14.00">r</text>
</g>
<!-- 2 -->
<g id="node4" class="node"><title>2</title>
<ellipse fill="none" stroke="black" cx="343.6" cy="-22" rx="18" ry="18"/>
<ellipse fill="none" stroke="black" cx="343.6" cy="-22" rx="22" ry="22"/>
<text text-anchor="middle" x="343.6" y="-18.3" font-family="Times New Roman,serif" font-size="14.00">2</text>
</g>
<!-- 2&#45;&gt;2 -->
<g id="edge5" class="edge"><title>2&#45;&gt;2</title>
<path fill="none" stroke="black" d="M335.917,-42.9908C334.969,-53.0872 337.53,-62 343.6,-62 347.489,-62 349.937,-58.3422 350.946,-53.0587"/>
<polygon fill="black" stroke="black" points="354.446,-53.1023 351.283,-42.9908 347.45,-52.868 354.446,-53.1023"/>
<text text-anchor="middle" x="343.6" y="-65.8" font-family="Times New Roman,serif" font-size="14.00">r</text>
</g>
<!-- 3&#45;&gt;2 -->
<g id="edge4" class="edge"><title>3&#45;&gt;2</title>
<path fill="none" stroke="black" d="M280.742,-22C289.727,-22 301.014,-22 311.478,-22"/>
<polygon fill="black" stroke="black" points="311.553,-25.5001 321.553,-22 311.553,-18.5001 311.553,-25.5001"/>
<text text-anchor="middle" x="301.1" y="-25.8" font-family="Times New Roman,serif" font-size="14.00">r</text>
</g>
</g>
</svg>
