<?xml version="1.0" encoding="UTF-8" standalone="no"?>
<!DOCTYPE svg PUBLIC "-//W3C//DTD SVG 1.1//EN"
 "http://www.w3.org/Graphics/SVG/1.1/DTD/svg11.dtd">
<!-- Generated by graphviz version 2.38.0 (20140413.2041)
 -->
<!-- Title: dfa Pages: 1 -->
<svg width="444pt" height="124pt"
 viewBox="0.00 0.00 444.28 124.39" xmlns="http://www.w3.org/2000/svg" xmlns:xlink="http://www.w3.org/1999/xlink">
<g id="graph0" class="graph" transform="scale(1 1) rotate(0) translate(4 120.393)">
<title>dfa</title>
<polygon fill="white" stroke="none" points="-4,4 -4,-120.393 440.279,-120.393 440.279,4 -4,4"/>
<!-- __start -->
<!-- {0} -->
<g id="node2" class="node"><title>{0}</title>
<ellipse fill="none" stroke="black" cx="88.6479" cy="-41.6967" rx="24.0958" ry="24.0958"/>
<text text-anchor="middle" x="88.6479" y="-37.9967" font-family="Times New Roman,serif" font-size="14.00">{0}</text>
</g>
<!-- __start&#45;&gt;{0} -->
<g id="edge1" class="edge"><title>__start&#45;&gt;{0}</title>
<path fill="none" stroke="black" d="M3.75288,-41.6967C8.82222,-41.6967 33.1893,-41.6967 54.3658,-41.6967"/>
<polygon fill="black" stroke="black" points="54.4068,-45.1968 64.4067,-41.6967 54.4067,-38.1968 54.4068,-45.1968"/>
<text text-anchor="middle" x="34.1" y="-45.4967" font-family="Times New Roman,serif" font-size="14.00">start</text>
</g>
<!-- {1} -->
<g id="node3" class="node"><title>{1}</title>
<ellipse fill="none" stroke="black" cx="181.744" cy="-41.6967" rx="24.089" ry="24.089"/>
<ellipse fill="none" stroke="black" cx="181.744" cy="-41.6967" rx="28.0958" ry="28.0958"/>
<text text-anchor="middle" x="181.744" y="-37.9967" font-family="Times New Roman,serif" font-size="14.00">{1}</text>
</g>
<!-- {0}&#45;&gt;{1} -->
<g id="edge2" class="edge"><title>{0}&#45;&gt;{1}</title>
<path fill="none" stroke="black" d="M113.107,-41.6967C122.263,-41.6967 132.989,-41.6967 143.167,-41.6967"/>
<polygon fill="black" stroke="black" points="143.487,-45.1968 153.487,-41.6967 143.487,-38.1968 143.487,-45.1968"/>
<text text-anchor="middle" x="133.196" y="-45.4967" font-family="Times New Roman,serif" font-size="14.00">r</text>
</g>
<!-- {0,2} -->
<g id="node5" class="node"><title>{0,2}</title>
<ellipse fill="none" stroke="black" cx="281.339" cy="-41.6967" rx="30.5947" ry="30.5947"/>
<text text-anchor="middle" x="281.339" y="-37.9967" font-family="Times New Roman,serif" font-size="14.00">{0,2}</text>
</g>
<!-- {1}&#45;&gt;{0,2} -->
<g id="edge3" class="edge"><title>{1}&#45;&gt;{0,2}</title>
<path fill="none" stroke="black" d="M209.929,-41.6967C219.405,-41.6967 230.243,-41.6967 240.529,-41.6967"/>
<polygon fill="black" stroke="black" points="240.56,-45.1968 250.56,-41.6967 240.56,-38.1968 240.56,-45.1968"/>
<text text-anchor="middle" x="230.291" y="-45.4967" font-family="Times New Roman,serif" font-size="14.00">r</text>
</g>
<!-- {0,1,2} -->
<g id="node4" class="node"><title>{0,1,2}</title>
<ellipse fill="none" stroke="black" cx="394.583" cy="-41.6967" rx="37.8753" ry="37.8753"/>
<ellipse fill="none" stroke="black" cx="394.583" cy="-41.6967" rx="41.8942" ry="41.8942"/>
<text text-anchor="middle" x="394.583" y="-37.9967" font-family="Times New Roman,serif" font-size="14.00">{0,1,2}</text>
</g>
<!-- {0,1,2}&#45;&gt;{0,1,2} -->
<g id="edge5" class="edge"><title>{0,1,2}&#45;&gt;{0,1,2}</title>
<path fill="none" stroke="black" d="M383.029,-81.8728C383.587,-92.9377 387.438,-101.393 394.583,-101.393 399.271,-101.393 402.542,-97.7518 404.394,-92.1211"/>
<polygon fill="black" stroke="black" points="407.91,-92.3181 406.137,-81.8728 401.009,-91.1444 407.91,-92.3181"/>
<text text-anchor="middle" x="394.583" y="-105.193" font-family="Times New Roman,serif" font-size="14.00">r</text>
</g>
<!-- {0,2}&#45;&gt;{0,1,2} -->
<g id="edge4" class="edge"><title>{0,2}&#45;&gt;{0,1,2}</title>
<path fill="none" stroke="black" d="M312.15,-41.6967C321.514,-41.6967 332.133,-41.6967 342.536,-41.6967"/>
<polygon fill="black" stroke="black" points="342.813,-45.1968 352.813,-41.6967 342.813,-38.1968 342.813,-45.1968"/>
<text text-anchor="middle" x="332.386" y="-45.4967" font-family="Times New Roman,serif" font-size="14.00">r</text>
</g>
</g>
</svg>
