<?xml version="1.0" encoding="UTF-8" standalone="no"?>
<!DOCTYPE svg PUBLIC "-//W3C//DTD SVG 1.1//EN"
 "http://www.w3.org/Graphics/SVG/1.1/DTD/svg11.dtd">
<!-- Generated by graphviz version 2.38.0 (20140413.2041)
 -->
<!-- Title: dfa Pages: 1 -->
<svg width="450pt" height="124pt"
 viewBox="0.00 0.00 450.18 124.39" xmlns="http://www.w3.org/2000/svg" xmlns:xlink="http://www.w3.org/1999/xlink">
<g id="graph0" class="graph" transform="scale(1 1) rotate(0) translate(4 120.393)">
<title>dfa</title>
<polygon fill="white" stroke="none" points="-4,4 -4,-120.393 446.184,-120.393 446.184,4 -4,4"/>
<!-- __start -->
<!-- {0} -->
<g id="node2" class="node"><title>{0}</title>
<ellipse fill="none" stroke="black" cx="91.6" cy="-41.6967" rx="27" ry="18"/>
<text text-anchor="middle" x="91.6" y="-37.9967" font-family="Times New Roman,serif" font-size="14.00">{0}</text>
</g>
<!-- __start&#45;&gt;{0} -->
<g id="edge1" class="edge"><title>__start&#45;&gt;{0}</title>
<path fill="none" stroke="black" d="M3.78604,-41.6967C8.86985,-41.6967 32.7092,-41.6967 54.1222,-41.6967"/>
<polygon fill="black" stroke="black" points="54.3463,-45.1968 64.3463,-41.6967 54.3463,-38.1968 54.3463,-45.1968"/>
<text text-anchor="middle" x="34.1" y="-45.4967" font-family="Times New Roman,serif" font-size="14.00">start</text>
</g>
<!-- {1} -->
<g id="node3" class="node"><title>{1}</title>
<ellipse fill="none" stroke="black" cx="187.648" cy="-41.6967" rx="24.089" ry="24.089"/>
<ellipse fill="none" stroke="black" cx="187.648" cy="-41.6967" rx="28.0958" ry="28.0958"/>
<text text-anchor="middle" x="187.648" y="-37.9967" font-family="Times New Roman,serif" font-size="14.00">{1}</text>
</g>
<!-- {0}&#45;&gt;{1} -->
<g id="edge2" class="edge"><title>{0}&#45;&gt;{1}</title>
<path fill="none" stroke="black" d="M118.798,-41.6967C128.156,-41.6967 138.894,-41.6967 149.025,-41.6967"/>
<polygon fill="black" stroke="black" points="149.28,-45.1968 159.279,-41.6967 149.279,-38.1968 149.28,-45.1968"/>
<text text-anchor="middle" x="139.1" y="-45.4967" font-family="Times New Roman,serif" font-size="14.00">r</text>
</g>
<!-- {0,2} -->
<g id="node5" class="node"><title>{0,2}</title>
<ellipse fill="none" stroke="black" cx="287.243" cy="-41.6967" rx="30.5947" ry="30.5947"/>
<text text-anchor="middle" x="287.243" y="-37.9967" font-family="Times New Roman,serif" font-size="14.00">{0,2}</text>
</g>
<!-- {1}&#45;&gt;{0,2} -->
<g id="edge3" class="edge"><title>{1}&#45;&gt;{0,2}</title>
<path fill="none" stroke="black" d="M215.834,-41.6967C225.309,-41.6967 236.147,-41.6967 246.433,-41.6967"/>
<polygon fill="black" stroke="black" points="246.464,-45.1968 256.464,-41.6967 246.464,-38.1968 246.464,-45.1968"/>
<text text-anchor="middle" x="236.196" y="-45.4967" font-family="Times New Roman,serif" font-size="14.00">r</text>
</g>
<!-- {0,1,2} -->
<g id="node4" class="node"><title>{0,1,2}</title>
<ellipse fill="none" stroke="black" cx="400.487" cy="-41.6967" rx="37.8753" ry="37.8753"/>
<ellipse fill="none" stroke="black" cx="400.487" cy="-41.6967" rx="41.8942" ry="41.8942"/>
<text text-anchor="middle" x="400.487" y="-37.9967" font-family="Times New Roman,serif" font-size="14.00">{0,1,2}</text>
</g>
<!-- {0,1,2}&#45;&gt;{0,1,2} -->
<g id="edge5" class="edge"><title>{0,1,2}&#45;&gt;{0,1,2}</title>
<path fill="none" stroke="black" d="M388.933,-81.8728C389.491,-92.9377 393.342,-101.393 400.487,-101.393 405.176,-101.393 408.446,-97.7518 410.298,-92.1211"/>
<polygon fill="black" stroke="black" points="413.815,-92.3181 412.041,-81.8728 406.914,-91.1444 413.815,-92.3181"/>
<text text-anchor="middle" x="400.487" y="-105.193" font-family="Times New Roman,serif" font-size="14.00">r</text>
</g>
<!-- {0,2}&#45;&gt;{0,1,2} -->
<g id="edge4" class="edge"><title>{0,2}&#45;&gt;{0,1,2}</title>
<path fill="none" stroke="black" d="M318.054,-41.6967C327.419,-41.6967 338.037,-41.6967 348.44,-41.6967"/>
<polygon fill="black" stroke="black" points="348.718,-45.1968 358.718,-41.6967 348.718,-38.1968 348.718,-45.1968"/>
<text text-anchor="middle" x="338.29" y="-45.4967" font-family="Times New Roman,serif" font-size="14.00">r</text>
</g>
</g>
</svg>
