<?xml version="1.0" encoding="UTF-8" standalone="no"?>
<!DOCTYPE svg PUBLIC "-//W3C//DTD SVG 1.1//EN"
 "http://www.w3.org/Graphics/SVG/1.1/DTD/svg11.dtd">
<!-- Generated by graphviz version 2.38.0 (20140413.2041)
 -->
<!-- Title: enfa Pages: 1 -->
<svg width="293pt" height="120pt"
 viewBox="0.00 0.00 292.60 119.76" xmlns="http://www.w3.org/2000/svg" xmlns:xlink="http://www.w3.org/1999/xlink">
<g id="graph0" class="graph" transform="scale(1 1) rotate(0) translate(4 115.763)">
<title>enfa</title>
<polygon fill="white" stroke="none" points="-4,4 -4,-115.763 288.6,-115.763 288.6,4 -4,4"/>
<!-- __start -->
<!-- 0 -->
<g id="node2" class="node"><title>0</title>
<ellipse fill="none" stroke="black" cx="91.6" cy="-47.7627" rx="27" ry="18"/>
<text text-anchor="middle" x="91.6" y="-44.0627" font-family="Times New Roman,serif" font-size="14.00">0</text>
</g>
<!-- __start&#45;&gt;0 -->
<g id="edge1" class="edge"><title>__start&#45;&gt;0</title>
<path fill="none" stroke="black" d="M3.78604,-47.7627C8.86985,-47.7627 32.7092,-47.7627 54.1222,-47.7627"/>
<polygon fill="black" stroke="black" points="54.3463,-51.2628 64.3463,-47.7627 54.3463,-44.2628 54.3463,-51.2628"/>
<text text-anchor="middle" x="34.1" y="-51.5627" font-family="Times New Roman,serif" font-size="14.00">start</text>
</g>
<!-- 0&#45;&gt;0 -->
<g id="edge4" class="edge"><title>0&#45;&gt;0</title>
<path fill="none" stroke="black" d="M83.0307,-65.1726C81.4311,-74.8506 84.2875,-83.7627 91.6,-83.7627 96.1703,-83.7627 99,-80.2815 100.089,-75.3077"/>
<polygon fill="black" stroke="black" points="103.59,-75.2001 100.169,-65.1726 96.5901,-75.1446 103.59,-75.2001"/>
<text text-anchor="middle" x="91.6" y="-87.5627" font-family="Times New Roman,serif" font-size="14.00">u</text>
</g>
<!-- 1 -->
<g id="node3" class="node"><title>1</title>
<ellipse fill="none" stroke="black" cx="262.6" cy="-35.7627" rx="18" ry="18"/>
<ellipse fill="none" stroke="black" cx="262.6" cy="-35.7627" rx="22" ry="22"/>
<text text-anchor="middle" x="262.6" y="-32.0627" font-family="Times New Roman,serif" font-size="14.00">1</text>
</g>
<!-- 0&#45;&gt;1 -->
<g id="edge3" class="edge"><title>0&#45;&gt;1</title>
<path fill="none" stroke="black" d="M107.936,-62.5033C115.984,-69.6474 126.296,-77.9226 136.6,-83.7627 160.441,-97.2758 171.96,-102.438 197.6,-92.7627 214.729,-86.2991 230.178,-72.8805 241.604,-60.686"/>
<polygon fill="black" stroke="black" points="244.471,-62.7297 248.509,-52.9347 239.244,-58.0735 244.471,-62.7297"/>
<text text-anchor="middle" x="179.6" y="-100.563" font-family="Times New Roman,serif" font-size="14.00">u</text>
</g>
<!-- 2 -->
<g id="node4" class="node"><title>2</title>
<ellipse fill="none" stroke="black" cx="179.6" cy="-65.7627" rx="18" ry="18"/>
<text text-anchor="middle" x="179.6" y="-62.0627" font-family="Times New Roman,serif" font-size="14.00">2</text>
</g>
<!-- 0&#45;&gt;2 -->
<g id="edge8" class="edge"><title>0&#45;&gt;2</title>
<path fill="none" stroke="black" d="M114.61,-57.2361C121.524,-59.81 129.268,-62.2905 136.6,-63.7627 141.234,-64.6934 146.211,-65.2811 151.061,-65.64"/>
<polygon fill="black" stroke="black" points="151.143,-69.1473 161.292,-66.1042 151.461,-62.1545 151.143,-69.1473"/>
<text text-anchor="middle" x="140.1" y="-68.5627" font-family="Times New Roman,serif" font-size="14.00">c</text>
</g>
<!-- 1&#45;&gt;0 -->
<g id="edge2" class="edge"><title>1&#45;&gt;0</title>
<path fill="none" stroke="black" d="M241.216,-29.905C220.95,-24.882 189.014,-19.1312 161.6,-23.7627 149.026,-25.8872 135.685,-30.0451 124.119,-34.3114"/>
<polygon fill="black" stroke="black" points="122.541,-31.169 114.476,-38.0401 125.066,-37.6979 122.541,-31.169"/>
<text text-anchor="middle" x="179.6" y="-27.5627" font-family="Times New Roman,serif" font-size="14.00">c</text>
</g>
<!-- 1&#45;&gt;0 -->
<g id="edge7" class="edge"><title>1&#45;&gt;0</title>
<path fill="none" stroke="black" d="M244.356,-23.4159C224.504,-10.757 190.865,5.93695 161.6,-2.76275 145.227,-7.63006 129.112,-17.7509 116.579,-27.1636"/>
<polygon fill="black" stroke="black" points="114.22,-24.5659 108.515,-33.4938 118.542,-30.0721 114.22,-24.5659"/>
<text text-anchor="middle" x="179.6" y="-6.56275" font-family="Times New Roman,serif" font-size="14.00">u</text>
</g>
<!-- 2&#45;&gt;0 -->
<g id="edge6" class="edge"><title>2&#45;&gt;0</title>
<path fill="none" stroke="black" d="M163.804,-56.8165C157.76,-53.6384 150.562,-50.4362 143.6,-48.7627 138.845,-47.6199 133.769,-46.9236 128.731,-46.5343"/>
<polygon fill="black" stroke="black" points="128.692,-43.03 118.559,-46.1218 128.409,-50.0242 128.692,-43.03"/>
<text text-anchor="middle" x="140.1" y="-52.5627" font-family="Times New Roman,serif" font-size="14.00">u</text>
</g>
<!-- 2&#45;&gt;1 -->
<g id="edge5" class="edge"><title>2&#45;&gt;1</title>
<path fill="none" stroke="black" d="M196.603,-59.8357C206.689,-56.1003 220.021,-51.1625 231.984,-46.7317"/>
<polygon fill="black" stroke="black" points="233.448,-49.9218 241.61,-43.1664 231.017,-43.3575 233.448,-49.9218"/>
<text text-anchor="middle" x="219.1" y="-55.5627" font-family="Times New Roman,serif" font-size="14.00">c</text>
</g>
</g>
</svg>
