<?xml version="1.0" encoding="UTF-8" standalone="no"?>
<!DOCTYPE svg PUBLIC "-//W3C//DTD SVG 1.1//EN"
 "http://www.w3.org/Graphics/SVG/1.1/DTD/svg11.dtd">
<!-- Generated by graphviz version 2.38.0 (20140413.2041)
 -->
<!-- Title: enfa Pages: 1 -->
<svg width="275pt" height="122pt"
 viewBox="0.00 0.00 274.60 122.22" xmlns="http://www.w3.org/2000/svg" xmlns:xlink="http://www.w3.org/1999/xlink">
<g id="graph0" class="graph" transform="scale(1 1) rotate(0) translate(4 118.221)">
<title>enfa</title>
<polygon fill="white" stroke="none" points="-4,4 -4,-118.221 270.6,-118.221 270.6,4 -4,4"/>
<!-- __start -->
<!-- 0 -->
<g id="node2" class="node"><title>0</title>
<ellipse fill="none" stroke="black" cx="82.6" cy="-49.2212" rx="18" ry="18"/>
<text text-anchor="middle" x="82.6" y="-45.5212" font-family="Times New Roman,serif" font-size="14.00">0</text>
</g>
<!-- __start&#45;&gt;0 -->
<g id="edge1" class="edge"><title>__start&#45;&gt;0</title>
<path fill="none" stroke="black" d="M3.68496,-49.2212C8.69573,-49.2212 34.008,-49.2212 54.4423,-49.2212"/>
<polygon fill="black" stroke="black" points="54.5501,-52.7213 64.5501,-49.2212 54.5501,-45.7213 54.5501,-52.7213"/>
<text text-anchor="middle" x="34.1" y="-53.0212" font-family="Times New Roman,serif" font-size="14.00">start</text>
</g>
<!-- 0&#45;&gt;0 -->
<g id="edge4" class="edge"><title>0&#45;&gt;0</title>
<path fill="none" stroke="black" d="M75.8664,-66.2585C74.4922,-76.0791 76.7367,-85.2212 82.6,-85.2212 86.2646,-85.2212 88.5155,-81.6501 89.3529,-76.5741"/>
<polygon fill="black" stroke="black" points="92.8524,-76.2519 89.3336,-66.2585 85.8524,-76.2651 92.8524,-76.2519"/>
<text text-anchor="middle" x="82.6" y="-89.0212" font-family="Times New Roman,serif" font-size="14.00">u</text>
</g>
<!-- 1 -->
<g id="node3" class="node"><title>1</title>
<ellipse fill="none" stroke="black" cx="244.6" cy="-37.2212" rx="18" ry="18"/>
<ellipse fill="none" stroke="black" cx="244.6" cy="-37.2212" rx="22" ry="22"/>
<text text-anchor="middle" x="244.6" y="-33.5212" font-family="Times New Roman,serif" font-size="14.00">1</text>
</g>
<!-- 0&#45;&gt;1 -->
<g id="edge3" class="edge"><title>0&#45;&gt;1</title>
<path fill="none" stroke="black" d="M94.3681,-63.0398C100.745,-70.457 109.368,-79.271 118.6,-85.2212 141.635,-100.068 153.96,-103.896 179.6,-94.2212 196.729,-87.7575 212.178,-74.3389 223.604,-62.1445"/>
<polygon fill="black" stroke="black" points="226.471,-64.1882 230.509,-54.3931 221.244,-59.532 226.471,-64.1882"/>
<text text-anchor="middle" x="161.6" y="-103.021" font-family="Times New Roman,serif" font-size="14.00">u</text>
</g>
<!-- 2 -->
<g id="node4" class="node"><title>2</title>
<ellipse fill="none" stroke="black" cx="161.6" cy="-67.2212" rx="18" ry="18"/>
<text text-anchor="middle" x="161.6" y="-63.5212" font-family="Times New Roman,serif" font-size="14.00">2</text>
</g>
<!-- 0&#45;&gt;2 -->
<g id="edge8" class="edge"><title>0&#45;&gt;2</title>
<path fill="none" stroke="black" d="M98.8229,-57.711C104.805,-60.6338 111.848,-63.5818 118.6,-65.2212 123.193,-66.3364 128.15,-67.0154 132.992,-67.4075"/>
<polygon fill="black" stroke="black" points="133.078,-70.9148 143.225,-67.8657 133.391,-63.9218 133.078,-70.9148"/>
<text text-anchor="middle" x="122.1" y="-70.0212" font-family="Times New Roman,serif" font-size="14.00">c</text>
</g>
<!-- 1&#45;&gt;0 -->
<g id="edge2" class="edge"><title>1&#45;&gt;0</title>
<path fill="none" stroke="black" d="M223.168,-31.0938C202.864,-25.866 170.901,-19.9636 143.6,-25.2212 131.454,-27.5603 118.642,-32.336 107.989,-37.0157"/>
<polygon fill="black" stroke="black" points="106.507,-33.8448 98.8949,-41.2138 109.441,-40.2003 106.507,-33.8448"/>
<text text-anchor="middle" x="161.6" y="-29.0212" font-family="Times New Roman,serif" font-size="14.00">c</text>
</g>
<!-- 1&#45;&gt;0 -->
<g id="edge7" class="edge"><title>1&#45;&gt;0</title>
<path fill="none" stroke="black" d="M226.616,-24.4224C206.723,-11.06 172.774,6.67513 143.6,-3.2212 128.196,-8.44642 113.646,-19.3918 102.733,-29.295"/>
<polygon fill="black" stroke="black" points="100.288,-26.79 95.4685,-36.2252 105.12,-31.8549 100.288,-26.79"/>
<text text-anchor="middle" x="161.6" y="-7.0212" font-family="Times New Roman,serif" font-size="14.00">u</text>
</g>
<!-- 2&#45;&gt;0 -->
<g id="edge6" class="edge"><title>2&#45;&gt;0</title>
<path fill="none" stroke="black" d="M145.8,-58.29C139.755,-55.114 132.559,-51.9092 125.6,-50.2212 120.928,-49.088 115.879,-48.472 110.955,-48.182"/>
<polygon fill="black" stroke="black" points="110.635,-44.6757 100.573,-47.9936 110.508,-51.6745 110.635,-44.6757"/>
<text text-anchor="middle" x="122.1" y="-54.0212" font-family="Times New Roman,serif" font-size="14.00">u</text>
</g>
<!-- 2&#45;&gt;1 -->
<g id="edge5" class="edge"><title>2&#45;&gt;1</title>
<path fill="none" stroke="black" d="M178.603,-61.2942C188.689,-57.5588 202.021,-52.621 213.984,-48.1901"/>
<polygon fill="black" stroke="black" points="215.448,-51.3802 223.61,-44.6249 213.017,-44.816 215.448,-51.3802"/>
<text text-anchor="middle" x="201.1" y="-57.0212" font-family="Times New Roman,serif" font-size="14.00">c</text>
</g>
</g>
</svg>
