<?xml version="1.0" encoding="UTF-8" standalone="no"?>
<!DOCTYPE svg PUBLIC "-//W3C//DTD SVG 1.1//EN"
 "http://www.w3.org/Graphics/SVG/1.1/DTD/svg11.dtd">
<!-- Generated by graphviz version 2.38.0 (20140413.2041)
 -->
<!-- Title: dfa Pages: 1 -->
<svg width="388pt" height="221pt"
 viewBox="0.00 0.00 387.60 220.52" xmlns="http://www.w3.org/2000/svg" xmlns:xlink="http://www.w3.org/1999/xlink">
<g id="graph0" class="graph" transform="scale(1 1) rotate(0) translate(4 216.521)">
<title>dfa</title>
<polygon fill="white" stroke="none" points="-4,4 -4,-216.521 383.6,-216.521 383.6,4 -4,4"/>
<!-- __start -->
<!-- 0 -->
<g id="node2" class="node"><title>0</title>
<ellipse fill="none" stroke="black" cx="91.6" cy="-64.5209" rx="27" ry="18"/>
<text text-anchor="middle" x="91.6" y="-60.8209" font-family="Times New Roman,serif" font-size="14.00">0</text>
</g>
<!-- __start&#45;&gt;0 -->
<g id="edge1" class="edge"><title>__start&#45;&gt;0</title>
<path fill="none" stroke="black" d="M3.78604,-64.5209C8.86985,-64.5209 32.7092,-64.5209 54.1222,-64.5209"/>
<polygon fill="black" stroke="black" points="54.3463,-68.021 64.3463,-64.5209 54.3463,-61.021 54.3463,-68.021"/>
<text text-anchor="middle" x="34.1" y="-68.3209" font-family="Times New Roman,serif" font-size="14.00">start</text>
</g>
<!-- 2 -->
<g id="node4" class="node"><title>2</title>
<ellipse fill="none" stroke="black" cx="183.6" cy="-157.521" rx="18" ry="18"/>
<ellipse fill="none" stroke="black" cx="183.6" cy="-157.521" rx="22" ry="22"/>
<text text-anchor="middle" x="183.6" y="-153.821" font-family="Times New Roman,serif" font-size="14.00">2</text>
</g>
<!-- 0&#45;&gt;2 -->
<g id="edge3" class="edge"><title>0&#45;&gt;2</title>
<path fill="none" stroke="black" d="M104.674,-80.399C113.18,-91.2394 125.064,-105.719 136.6,-117.521 143.193,-124.266 150.771,-131.163 157.848,-137.288"/>
<polygon fill="black" stroke="black" points="155.949,-140.267 165.838,-144.069 160.479,-134.93 155.949,-140.267"/>
<text text-anchor="middle" x="140.1" y="-126.321" font-family="Times New Roman,serif" font-size="14.00">u</text>
</g>
<!-- 4 -->
<g id="node6" class="node"><title>4</title>
<ellipse fill="none" stroke="black" cx="183.6" cy="-99.5209" rx="18" ry="18"/>
<text text-anchor="middle" x="183.6" y="-95.8209" font-family="Times New Roman,serif" font-size="14.00">4</text>
</g>
<!-- 0&#45;&gt;4 -->
<g id="edge2" class="edge"><title>0&#45;&gt;4</title>
<path fill="none" stroke="black" d="M107.525,-79.2986C115.469,-86.17 125.811,-93.6622 136.6,-97.5209 142.483,-99.6248 149.061,-100.631 155.362,-101.012"/>
<polygon fill="black" stroke="black" points="155.485,-104.514 165.532,-101.15 155.58,-97.515 155.485,-104.514"/>
<text text-anchor="middle" x="140.1" y="-102.321" font-family="Times New Roman,serif" font-size="14.00">c</text>
</g>
<!-- 1 -->
<g id="node3" class="node"><title>1</title>
<ellipse fill="none" stroke="black" cx="270.6" cy="-48.5209" rx="18" ry="18"/>
<ellipse fill="none" stroke="black" cx="270.6" cy="-48.5209" rx="22" ry="22"/>
<text text-anchor="middle" x="270.6" y="-44.8209" font-family="Times New Roman,serif" font-size="14.00">1</text>
</g>
<!-- 1&#45;&gt;0 -->
<g id="edge6" class="edge"><title>1&#45;&gt;0</title>
<path fill="none" stroke="black" d="M248.482,-50.168C226.704,-51.893 191.764,-54.7343 161.6,-57.5209 150.899,-58.5095 139.273,-59.6596 128.668,-60.7384"/>
<polygon fill="black" stroke="black" points="128.065,-57.2818 118.474,-61.7848 128.779,-64.2452 128.065,-57.2818"/>
<text text-anchor="middle" x="183.6" y="-61.3209" font-family="Times New Roman,serif" font-size="14.00">c</text>
</g>
<!-- 1&#45;&gt;0 -->
<g id="edge7" class="edge"><title>1&#45;&gt;0</title>
<path fill="none" stroke="black" d="M249.543,-41.9498C227.743,-35.7283 191.958,-28.2069 161.6,-34.5209 147.977,-37.3543 133.744,-43.0241 121.768,-48.6791"/>
<polygon fill="black" stroke="black" points="120.118,-45.5904 112.702,-53.1568 123.218,-51.8667 120.118,-45.5904"/>
<text text-anchor="middle" x="183.6" y="-38.3209" font-family="Times New Roman,serif" font-size="14.00">u</text>
</g>
<!-- 2&#45;&gt;2 -->
<g id="edge9" class="edge"><title>2&#45;&gt;2</title>
<path fill="none" stroke="black" d="M175.917,-178.512C174.969,-188.608 177.53,-197.521 183.6,-197.521 187.489,-197.521 189.937,-193.863 190.946,-188.58"/>
<polygon fill="black" stroke="black" points="194.446,-188.623 191.283,-178.512 187.45,-188.389 194.446,-188.623"/>
<text text-anchor="middle" x="183.6" y="-201.321" font-family="Times New Roman,serif" font-size="14.00">u</text>
</g>
<!-- 5 -->
<g id="node7" class="node"><title>5</title>
<ellipse fill="none" stroke="black" cx="270.6" cy="-171.521" rx="18" ry="18"/>
<text text-anchor="middle" x="270.6" y="-167.821" font-family="Times New Roman,serif" font-size="14.00">5</text>
</g>
<!-- 2&#45;&gt;5 -->
<g id="edge8" class="edge"><title>2&#45;&gt;5</title>
<path fill="none" stroke="black" d="M204.082,-165.999C210.209,-168.259 217.08,-170.386 223.6,-171.521 229.648,-172.574 236.212,-172.994 242.437,-173.067"/>
<polygon fill="black" stroke="black" points="242.496,-176.567 252.44,-172.912 242.387,-169.568 242.496,-176.567"/>
<text text-anchor="middle" x="227.1" y="-175.321" font-family="Times New Roman,serif" font-size="14.00">c</text>
</g>
<!-- 3 -->
<g id="node5" class="node"><title>3</title>
<ellipse fill="none" stroke="black" cx="357.6" cy="-120.521" rx="18" ry="18"/>
<ellipse fill="none" stroke="black" cx="357.6" cy="-120.521" rx="22" ry="22"/>
<text text-anchor="middle" x="357.6" y="-116.821" font-family="Times New Roman,serif" font-size="14.00">3</text>
</g>
<!-- 3&#45;&gt;0 -->
<g id="edge13" class="edge"><title>3&#45;&gt;0</title>
<path fill="none" stroke="black" d="M350.327,-99.4319C341.744,-74.7953 323.739,-35.1633 292.6,-17.5209 231.876,16.8835 199.559,-5.40088 136.6,-35.5209 130.642,-38.371 124.546,-41.9197 118.863,-45.5463"/>
<polygon fill="black" stroke="black" points="116.731,-42.7612 110.352,-51.2203 120.614,-48.5856 116.731,-42.7612"/>
<text text-anchor="middle" x="227.1" y="-4.32089" font-family="Times New Roman,serif" font-size="14.00">u</text>
</g>
<!-- 3&#45;&gt;2 -->
<g id="edge12" class="edge"><title>3&#45;&gt;2</title>
<path fill="none" stroke="black" d="M335.562,-120.247C313.549,-120.427 278.149,-122.046 248.6,-129.521 236.323,-132.627 223.415,-137.857 212.431,-142.962"/>
<polygon fill="black" stroke="black" points="210.818,-139.854 203.34,-147.359 213.866,-146.156 210.818,-139.854"/>
<text text-anchor="middle" x="270.6" y="-133.321" font-family="Times New Roman,serif" font-size="14.00">c</text>
</g>
<!-- 4&#45;&gt;0 -->
<g id="edge5" class="edge"><title>4&#45;&gt;0</title>
<path fill="none" stroke="black" d="M167.796,-90.5242C160.665,-86.46 151.881,-81.8373 143.6,-78.5209 138.379,-76.4301 132.737,-74.5383 127.175,-72.8701"/>
<polygon fill="black" stroke="black" points="127.929,-69.4466 117.355,-70.1139 126.037,-76.1862 127.929,-69.4466"/>
<text text-anchor="middle" x="140.1" y="-82.3209" font-family="Times New Roman,serif" font-size="14.00">u</text>
</g>
<!-- 4&#45;&gt;1 -->
<g id="edge4" class="edge"><title>4&#45;&gt;1</title>
<path fill="none" stroke="black" d="M199.406,-90.6374C211.267,-83.5205 228.226,-73.3451 242.503,-64.7789"/>
<polygon fill="black" stroke="black" points="244.643,-67.5766 251.418,-59.4304 241.042,-61.5742 244.643,-67.5766"/>
<text text-anchor="middle" x="227.1" y="-79.3209" font-family="Times New Roman,serif" font-size="14.00">c</text>
</g>
<!-- 5&#45;&gt;2 -->
<g id="edge11" class="edge"><title>5&#45;&gt;2</title>
<path fill="none" stroke="black" d="M255.004,-162.45C247.919,-158.57 239.113,-154.484 230.6,-152.521 225.766,-151.406 220.588,-151.12 215.513,-151.328"/>
<polygon fill="black" stroke="black" points="214.985,-147.863 205.383,-152.34 215.682,-154.828 214.985,-147.863"/>
<text text-anchor="middle" x="227.1" y="-156.321" font-family="Times New Roman,serif" font-size="14.00">u</text>
</g>
<!-- 5&#45;&gt;3 -->
<g id="edge10" class="edge"><title>5&#45;&gt;3</title>
<path fill="none" stroke="black" d="M286.406,-162.637C298.267,-155.521 315.226,-145.345 329.503,-136.779"/>
<polygon fill="black" stroke="black" points="331.643,-139.577 338.418,-131.43 328.042,-133.574 331.643,-139.577"/>
<text text-anchor="middle" x="314.1" y="-151.321" font-family="Times New Roman,serif" font-size="14.00">c</text>
</g>
</g>
</svg>
