<?xml version="1.0" encoding="UTF-8" standalone="no"?>
<!DOCTYPE svg PUBLIC "-//W3C//DTD SVG 1.1//EN"
 "http://www.w3.org/Graphics/SVG/1.1/DTD/svg11.dtd">
<!-- Generated by graphviz version 2.38.0 (20140413.2041)
 -->
<!-- Title: dfa Pages: 1 -->
<svg width="449pt" height="263pt"
 viewBox="0.00 0.00 448.98 262.78" xmlns="http://www.w3.org/2000/svg" xmlns:xlink="http://www.w3.org/1999/xlink">
<g id="graph0" class="graph" transform="scale(1 1) rotate(0) translate(4 258.783)">
<title>dfa</title>
<polygon fill="white" stroke="none" points="-4,4 -4,-258.783 444.979,-258.783 444.979,4 -4,4"/>
<!-- __start -->
<!-- {0} -->
<g id="node2" class="node"><title>{0}</title>
<ellipse fill="none" stroke="black" cx="88.6479" cy="-69.2359" rx="24.0958" ry="24.0958"/>
<text text-anchor="middle" x="88.6479" y="-65.5359" font-family="Times New Roman,serif" font-size="14.00">{0}</text>
</g>
<!-- __start&#45;&gt;{0} -->
<g id="edge1" class="edge"><title>__start&#45;&gt;{0}</title>
<path fill="none" stroke="black" d="M3.75288,-69.2359C8.82222,-69.2359 33.1893,-69.2359 54.3658,-69.2359"/>
<polygon fill="black" stroke="black" points="54.4068,-72.736 64.4067,-69.2359 54.4067,-65.736 54.4068,-72.736"/>
<text text-anchor="middle" x="34.1" y="-73.0359" font-family="Times New Roman,serif" font-size="14.00">start</text>
</g>
<!-- {0,1} -->
<g id="node4" class="node"><title>{0,1}</title>
<ellipse fill="none" stroke="black" cx="190.243" cy="-187.236" rx="30.5892" ry="30.5892"/>
<ellipse fill="none" stroke="black" cx="190.243" cy="-187.236" rx="34.5946" ry="34.5946"/>
<text text-anchor="middle" x="190.243" y="-183.536" font-family="Times New Roman,serif" font-size="14.00">{0,1}</text>
</g>
<!-- {0}&#45;&gt;{0,1} -->
<g id="edge3" class="edge"><title>{0}&#45;&gt;{0,1}</title>
<path fill="none" stroke="black" d="M103.216,-88.4599C110.988,-99.2012 121.082,-112.705 130.696,-124.236 139.458,-134.746 149.449,-145.804 158.667,-155.672"/>
<polygon fill="black" stroke="black" points="156.126,-158.079 165.532,-162.956 161.221,-153.278 156.126,-158.079"/>
<text text-anchor="middle" x="134.196" y="-136.036" font-family="Times New Roman,serif" font-size="14.00">u</text>
</g>
<!-- {2} -->
<g id="node6" class="node"><title>{2}</title>
<ellipse fill="none" stroke="black" cx="190.243" cy="-110.236" rx="24.0958" ry="24.0958"/>
<text text-anchor="middle" x="190.243" y="-106.536" font-family="Times New Roman,serif" font-size="14.00">{2}</text>
</g>
<!-- {0}&#45;&gt;{2} -->
<g id="edge2" class="edge"><title>{0}&#45;&gt;{2}</title>
<path fill="none" stroke="black" d="M106.242,-86.001C113.225,-92.0874 121.793,-98.4038 130.696,-102.236 138.534,-105.61 147.459,-107.636 155.938,-108.833"/>
<polygon fill="black" stroke="black" points="155.637,-112.321 165.956,-109.919 156.391,-105.362 155.637,-112.321"/>
<text text-anchor="middle" x="134.196" y="-109.036" font-family="Times New Roman,serif" font-size="14.00">c</text>
</g>
<!-- {1} -->
<g id="node3" class="node"><title>{1}</title>
<ellipse fill="none" stroke="black" cx="298.338" cy="-53.2359" rx="24.089" ry="24.089"/>
<ellipse fill="none" stroke="black" cx="298.338" cy="-53.2359" rx="28.0958" ry="28.0958"/>
<text text-anchor="middle" x="298.338" y="-49.5359" font-family="Times New Roman,serif" font-size="14.00">{1}</text>
</g>
<!-- {1}&#45;&gt;{0} -->
<g id="edge6" class="edge"><title>{1}&#45;&gt;{0}</title>
<path fill="none" stroke="black" d="M270.159,-54.622C241.626,-56.1571 195.47,-58.866 155.696,-62.2359 144.924,-63.1485 133.184,-64.3315 122.63,-65.4644"/>
<polygon fill="black" stroke="black" points="122.109,-62.0004 112.55,-66.5688 122.872,-68.9587 122.109,-62.0004"/>
<text text-anchor="middle" x="190.243" y="-66.0359" font-family="Times New Roman,serif" font-size="14.00">c</text>
</g>
<!-- {1}&#45;&gt;{0} -->
<g id="edge7" class="edge"><title>{1}&#45;&gt;{0}</title>
<path fill="none" stroke="black" d="M271.214,-45.853C242.58,-38.869 195.424,-30.636 155.696,-39.2359 143.002,-41.9836 129.817,-47.3858 118.597,-52.858"/>
<polygon fill="black" stroke="black" points="116.998,-49.7448 109.688,-57.4143 120.185,-55.9771 116.998,-49.7448"/>
<text text-anchor="middle" x="190.243" y="-43.0359" font-family="Times New Roman,serif" font-size="14.00">u</text>
</g>
<!-- {0,1}&#45;&gt;{0,1} -->
<g id="edge9" class="edge"><title>{0,1}&#45;&gt;{0,1}</title>
<path fill="none" stroke="black" d="M179.744,-220.334C179.798,-231.162 183.298,-239.783 190.243,-239.783 194.801,-239.783 197.875,-236.07 199.465,-230.457"/>
<polygon fill="black" stroke="black" points="202.963,-230.694 200.742,-220.334 196.018,-229.817 202.963,-230.694"/>
<text text-anchor="middle" x="190.243" y="-243.583" font-family="Times New Roman,serif" font-size="14.00">u</text>
</g>
<!-- {0,2} -->
<g id="node7" class="node"><title>{0,2}</title>
<ellipse fill="none" stroke="black" cx="298.338" cy="-192.236" rx="30.5947" ry="30.5947"/>
<text text-anchor="middle" x="298.338" y="-188.536" font-family="Times New Roman,serif" font-size="14.00">{0,2}</text>
</g>
<!-- {0,1}&#45;&gt;{0,2} -->
<g id="edge8" class="edge"><title>{0,1}&#45;&gt;{0,2}</title>
<path fill="none" stroke="black" d="M224.76,-190.961C230.757,-191.492 236.953,-191.953 242.79,-192.236 247.564,-192.467 252.576,-192.607 257.546,-192.683"/>
<polygon fill="black" stroke="black" points="257.574,-196.183 267.6,-192.757 257.626,-189.183 257.574,-196.183"/>
<text text-anchor="middle" x="246.29" y="-196.036" font-family="Times New Roman,serif" font-size="14.00">c</text>
</g>
<!-- {1,2} -->
<g id="node5" class="node"><title>{1,2}</title>
<ellipse fill="none" stroke="black" cx="406.432" cy="-128.236" rx="30.5892" ry="30.5892"/>
<ellipse fill="none" stroke="black" cx="406.432" cy="-128.236" rx="34.5946" ry="34.5946"/>
<text text-anchor="middle" x="406.432" y="-124.536" font-family="Times New Roman,serif" font-size="14.00">{1,2}</text>
</g>
<!-- {1,2}&#45;&gt;{0} -->
<g id="edge13" class="edge"><title>{1,2}&#45;&gt;{0}</title>
<path fill="none" stroke="black" d="M393.472,-96.0746C381.595,-69.2969 360.545,-32.9456 328.885,-16.2359 260.522,19.8454 230.713,-13.5861 155.696,-32.2359 144.235,-35.085 141.213,-35.8656 130.696,-41.2359 126.014,-43.6264 121.235,-46.4654 116.671,-49.4039"/>
<polygon fill="black" stroke="black" points="114.577,-46.5946 108.24,-55.0856 118.489,-52.3995 114.577,-46.5946"/>
<text text-anchor="middle" x="246.29" y="-8.03589" font-family="Times New Roman,serif" font-size="14.00">u</text>
</g>
<!-- {1,2}&#45;&gt;{0,1} -->
<g id="edge12" class="edge"><title>{1,2}&#45;&gt;{0,1}</title>
<path fill="none" stroke="black" d="M371.706,-125.741C343.264,-124.733 301.865,-125.87 267.79,-137.236 252.987,-142.174 238.264,-150.693 225.743,-159.315"/>
<polygon fill="black" stroke="black" points="223.541,-156.587 217.453,-165.257 227.62,-162.276 223.541,-156.587"/>
<text text-anchor="middle" x="298.338" y="-141.036" font-family="Times New Roman,serif" font-size="14.00">c</text>
</g>
<!-- {2}&#45;&gt;{0} -->
<g id="edge5" class="edge"><title>{2}&#45;&gt;{0}</title>
<path fill="none" stroke="black" d="M169.118,-98.5027C159.768,-93.3649 148.378,-87.5399 137.696,-83.2359 132.785,-81.2572 127.489,-79.4273 122.271,-77.7874"/>
<polygon fill="black" stroke="black" points="123.033,-74.363 112.451,-74.8789 121.045,-81.0748 123.033,-74.363"/>
<text text-anchor="middle" x="134.196" y="-87.0359" font-family="Times New Roman,serif" font-size="14.00">u</text>
</g>
<!-- {2}&#45;&gt;{1} -->
<g id="edge4" class="edge"><title>{2}&#45;&gt;{1}</title>
<path fill="none" stroke="black" d="M211.699,-99.2457C226.534,-91.2753 246.922,-80.3219 264.084,-71.1018"/>
<polygon fill="black" stroke="black" points="266.077,-74.0039 273.23,-66.1879 262.764,-67.8375 266.077,-74.0039"/>
<text text-anchor="middle" x="246.29" y="-86.0359" font-family="Times New Roman,serif" font-size="14.00">c</text>
</g>
<!-- {0,2}&#45;&gt;{0,1} -->
<g id="edge11" class="edge"><title>{0,2}&#45;&gt;{0,1}</title>
<path fill="none" stroke="black" d="M270.469,-179.45C263.854,-176.88 256.686,-174.563 249.79,-173.236 244.274,-172.175 238.493,-172.176 232.802,-172.841"/>
<polygon fill="black" stroke="black" points="231.946,-169.439 222.731,-174.668 233.196,-176.327 231.946,-169.439"/>
<text text-anchor="middle" x="246.29" y="-177.036" font-family="Times New Roman,serif" font-size="14.00">u</text>
</g>
<!-- {0,2}&#45;&gt;{1,2} -->
<g id="edge10" class="edge"><title>{0,2}&#45;&gt;{1,2}</title>
<path fill="none" stroke="black" d="M325.02,-176.743C337.697,-169.096 353.246,-159.716 367.281,-151.25"/>
<polygon fill="black" stroke="black" points="369.485,-154.008 376.24,-145.846 365.869,-148.014 369.485,-154.008"/>
<text text-anchor="middle" x="350.385" y="-166.036" font-family="Times New Roman,serif" font-size="14.00">c</text>
</g>
</g>
</svg>
