<?xml version="1.0" encoding="UTF-8" standalone="no"?>
<!DOCTYPE svg PUBLIC "-//W3C//DTD SVG 1.1//EN"
 "http://www.w3.org/Graphics/SVG/1.1/DTD/svg11.dtd">
<!-- Generated by graphviz version 2.38.0 (20140413.2041)
 -->
<!-- Title: dfa Pages: 1 -->
<svg width="455pt" height="267pt"
 viewBox="0.00 0.00 454.88 267.43" xmlns="http://www.w3.org/2000/svg" xmlns:xlink="http://www.w3.org/1999/xlink">
<g id="graph0" class="graph" transform="scale(1 1) rotate(0) translate(4 263.425)">
<title>dfa</title>
<polygon fill="white" stroke="none" points="-4,4 -4,-263.425 450.884,-263.425 450.884,4 -4,4"/>
<!-- __start -->
<!-- {0} -->
<g id="node2" class="node"><title>{0}</title>
<ellipse fill="none" stroke="black" cx="91.6" cy="-73.878" rx="27" ry="18"/>
<text text-anchor="middle" x="91.6" y="-70.178" font-family="Times New Roman,serif" font-size="14.00">{0}</text>
</g>
<!-- __start&#45;&gt;{0} -->
<g id="edge1" class="edge"><title>__start&#45;&gt;{0}</title>
<path fill="none" stroke="black" d="M3.78604,-73.878C8.86985,-73.878 32.7092,-73.878 54.1222,-73.878"/>
<polygon fill="black" stroke="black" points="54.3463,-77.3781 64.3463,-73.878 54.3463,-70.3781 54.3463,-77.3781"/>
<text text-anchor="middle" x="34.1" y="-77.678" font-family="Times New Roman,serif" font-size="14.00">start</text>
</g>
<!-- {0,1} -->
<g id="node4" class="node"><title>{0,1}</title>
<ellipse fill="none" stroke="black" cx="196.147" cy="-191.878" rx="30.5892" ry="30.5892"/>
<ellipse fill="none" stroke="black" cx="196.147" cy="-191.878" rx="34.5946" ry="34.5946"/>
<text text-anchor="middle" x="196.147" y="-188.178" font-family="Times New Roman,serif" font-size="14.00">{0,1}</text>
</g>
<!-- {0}&#45;&gt;{0,1} -->
<g id="edge3" class="edge"><title>{0}&#45;&gt;{0,1}</title>
<path fill="none" stroke="black" d="M105.002,-90.0174C113.653,-101.116 125.578,-116.1 136.6,-128.878 145.537,-139.239 155.579,-150.255 164.788,-160.13"/>
<polygon fill="black" stroke="black" points="162.242,-162.531 171.636,-167.429 167.346,-157.741 162.242,-162.531"/>
<text text-anchor="middle" x="140.1" y="-140.678" font-family="Times New Roman,serif" font-size="14.00">u</text>
</g>
<!-- {2} -->
<g id="node6" class="node"><title>{2}</title>
<ellipse fill="none" stroke="black" cx="196.147" cy="-114.878" rx="24.0958" ry="24.0958"/>
<text text-anchor="middle" x="196.147" y="-111.178" font-family="Times New Roman,serif" font-size="14.00">{2}</text>
</g>
<!-- {0}&#45;&gt;{2} -->
<g id="edge2" class="edge"><title>{0}&#45;&gt;{2}</title>
<path fill="none" stroke="black" d="M108.087,-88.5764C116.015,-95.2523 126.177,-102.598 136.6,-106.878 144.494,-110.12 153.439,-112.099 161.919,-113.295"/>
<polygon fill="black" stroke="black" points="161.607,-116.781 171.93,-114.396 162.372,-109.823 161.607,-116.781"/>
<text text-anchor="middle" x="140.1" y="-113.678" font-family="Times New Roman,serif" font-size="14.00">c</text>
</g>
<!-- {1} -->
<g id="node3" class="node"><title>{1}</title>
<ellipse fill="none" stroke="black" cx="304.242" cy="-57.878" rx="24.089" ry="24.089"/>
<ellipse fill="none" stroke="black" cx="304.242" cy="-57.878" rx="28.0958" ry="28.0958"/>
<text text-anchor="middle" x="304.242" y="-54.178" font-family="Times New Roman,serif" font-size="14.00">{1}</text>
</g>
<!-- {1}&#45;&gt;{0} -->
<g id="edge6" class="edge"><title>{1}&#45;&gt;{0}</title>
<path fill="none" stroke="black" d="M276.066,-59.3003C247.536,-60.8647 201.382,-63.5974 161.6,-66.878 150.89,-67.7612 139.261,-68.8794 128.656,-69.9614"/>
<polygon fill="black" stroke="black" points="128.048,-66.5056 118.464,-71.0212 128.772,-73.4681 128.048,-66.5056"/>
<text text-anchor="middle" x="196.147" y="-70.678" font-family="Times New Roman,serif" font-size="14.00">c</text>
</g>
<!-- {1}&#45;&gt;{0} -->
<g id="edge7" class="edge"><title>{1}&#45;&gt;{0}</title>
<path fill="none" stroke="black" d="M277.145,-50.6187C248.533,-43.7417 201.397,-35.6007 161.6,-43.878 147.977,-46.7114 133.744,-52.3812 121.768,-58.0363"/>
<polygon fill="black" stroke="black" points="120.118,-54.9475 112.702,-62.5139 123.218,-61.2238 120.118,-54.9475"/>
<text text-anchor="middle" x="196.147" y="-47.678" font-family="Times New Roman,serif" font-size="14.00">u</text>
</g>
<!-- {0,1}&#45;&gt;{0,1} -->
<g id="edge9" class="edge"><title>{0,1}&#45;&gt;{0,1}</title>
<path fill="none" stroke="black" d="M185.648,-224.976C185.702,-235.804 189.202,-244.425 196.147,-244.425 200.705,-244.425 203.779,-240.712 205.369,-235.1"/>
<polygon fill="black" stroke="black" points="208.867,-235.336 206.647,-224.976 201.922,-234.459 208.867,-235.336"/>
<text text-anchor="middle" x="196.147" y="-248.225" font-family="Times New Roman,serif" font-size="14.00">u</text>
</g>
<!-- {0,2} -->
<g id="node7" class="node"><title>{0,2}</title>
<ellipse fill="none" stroke="black" cx="304.242" cy="-196.878" rx="30.5947" ry="30.5947"/>
<text text-anchor="middle" x="304.242" y="-193.178" font-family="Times New Roman,serif" font-size="14.00">{0,2}</text>
</g>
<!-- {0,1}&#45;&gt;{0,2} -->
<g id="edge8" class="edge"><title>{0,1}&#45;&gt;{0,2}</title>
<path fill="none" stroke="black" d="M230.664,-195.603C236.661,-196.134 242.857,-196.596 248.695,-196.878 253.468,-197.109 258.48,-197.249 263.45,-197.325"/>
<polygon fill="black" stroke="black" points="263.478,-200.825 273.504,-197.399 263.53,-193.825 263.478,-200.825"/>
<text text-anchor="middle" x="252.195" y="-200.678" font-family="Times New Roman,serif" font-size="14.00">c</text>
</g>
<!-- {1,2} -->
<g id="node5" class="node"><title>{1,2}</title>
<ellipse fill="none" stroke="black" cx="412.336" cy="-132.878" rx="30.5892" ry="30.5892"/>
<ellipse fill="none" stroke="black" cx="412.336" cy="-132.878" rx="34.5946" ry="34.5946"/>
<text text-anchor="middle" x="412.336" y="-129.178" font-family="Times New Roman,serif" font-size="14.00">{1,2}</text>
</g>
<!-- {1,2}&#45;&gt;{0} -->
<g id="edge13" class="edge"><title>{1,2}&#45;&gt;{0}</title>
<path fill="none" stroke="black" d="M399.377,-100.717C387.499,-73.939 366.449,-37.5877 334.789,-20.878 256.272,20.5624 216.305,-6.77054 136.6,-45.878 130.976,-48.6375 125.178,-51.9506 119.711,-55.3165"/>
<polygon fill="black" stroke="black" points="117.451,-52.6068 110.912,-60.9425 121.222,-58.5044 117.451,-52.6068"/>
<text text-anchor="middle" x="252.195" y="-5.67801" font-family="Times New Roman,serif" font-size="14.00">u</text>
</g>
<!-- {1,2}&#45;&gt;{0,1} -->
<g id="edge12" class="edge"><title>{1,2}&#45;&gt;{0,1}</title>
<path fill="none" stroke="black" d="M377.61,-130.383C349.169,-129.376 307.77,-130.512 273.695,-141.878 258.891,-146.816 244.168,-155.335 231.647,-163.957"/>
<polygon fill="black" stroke="black" points="229.446,-161.229 223.357,-169.899 233.524,-166.918 229.446,-161.229"/>
<text text-anchor="middle" x="304.242" y="-145.678" font-family="Times New Roman,serif" font-size="14.00">c</text>
</g>
<!-- {2}&#45;&gt;{0} -->
<g id="edge5" class="edge"><title>{2}&#45;&gt;{0}</title>
<path fill="none" stroke="black" d="M175.053,-103.068C165.71,-97.9143 154.316,-92.0985 143.6,-87.878 138.367,-85.8171 132.719,-83.9409 127.154,-82.2791"/>
<polygon fill="black" stroke="black" points="127.907,-78.8553 117.333,-79.5257 126.017,-85.5954 127.907,-78.8553"/>
<text text-anchor="middle" x="140.1" y="-91.678" font-family="Times New Roman,serif" font-size="14.00">u</text>
</g>
<!-- {2}&#45;&gt;{1} -->
<g id="edge4" class="edge"><title>{2}&#45;&gt;{1}</title>
<path fill="none" stroke="black" d="M217.603,-103.888C232.439,-95.9174 252.827,-84.964 269.988,-75.744"/>
<polygon fill="black" stroke="black" points="271.982,-78.646 279.134,-70.83 268.669,-72.4796 271.982,-78.646"/>
<text text-anchor="middle" x="252.195" y="-90.678" font-family="Times New Roman,serif" font-size="14.00">c</text>
</g>
<!-- {0,2}&#45;&gt;{0,1} -->
<g id="edge11" class="edge"><title>{0,2}&#45;&gt;{0,1}</title>
<path fill="none" stroke="black" d="M276.374,-184.092C269.759,-181.522 262.591,-179.205 255.695,-177.878 250.178,-176.817 244.398,-176.818 238.706,-177.483"/>
<polygon fill="black" stroke="black" points="237.85,-174.081 228.636,-179.31 239.1,-180.969 237.85,-174.081"/>
<text text-anchor="middle" x="252.195" y="-181.678" font-family="Times New Roman,serif" font-size="14.00">u</text>
</g>
<!-- {0,2}&#45;&gt;{1,2} -->
<g id="edge10" class="edge"><title>{0,2}&#45;&gt;{1,2}</title>
<path fill="none" stroke="black" d="M330.924,-181.385C343.602,-173.738 359.15,-164.359 373.185,-155.892"/>
<polygon fill="black" stroke="black" points="375.389,-158.65 382.144,-150.488 371.773,-152.656 375.389,-158.65"/>
<text text-anchor="middle" x="356.289" y="-170.678" font-family="Times New Roman,serif" font-size="14.00">c</text>
</g>
</g>
</svg>
