<?xml version="1.0" encoding="UTF-8" standalone="no"?>
<!DOCTYPE svg PUBLIC "-//W3C//DTD SVG 1.1//EN"
 "http://www.w3.org/Graphics/SVG/1.1/DTD/svg11.dtd">
<!-- Generated by graphviz version 2.38.0 (20140413.2041)
 -->
<!-- Title: dfa Pages: 1 -->
<svg width="214pt" height="81pt"
 viewBox="0.00 0.00 213.60 81.00" xmlns="http://www.w3.org/2000/svg" xmlns:xlink="http://www.w3.org/1999/xlink">
<g id="graph0" class="graph" transform="scale(1 1) rotate(0) translate(4 77)">
<title>dfa</title>
<polygon fill="white" stroke="none" points="-4,4 -4,-77 209.6,-77 209.6,4 -4,4"/>
<!-- __start -->
<!-- 0 -->
<g id="node2" class="node"><title>0</title>
<ellipse fill="none" stroke="black" cx="91.6" cy="-22" rx="27" ry="18"/>
<text text-anchor="middle" x="91.6" y="-18.3" font-family="Times New Roman,serif" font-size="14.00">0</text>
</g>
<!-- __start&#45;&gt;0 -->
<g id="edge1" class="edge"><title>__start&#45;&gt;0</title>
<path fill="none" stroke="black" d="M3.78604,-22C8.86985,-22 32.7092,-22 54.1222,-22"/>
<polygon fill="black" stroke="black" points="54.3463,-25.5001 64.3463,-22 54.3463,-18.5001 54.3463,-25.5001"/>
<text text-anchor="middle" x="34.1" y="-25.8" font-family="Times New Roman,serif" font-size="14.00">start</text>
</g>
<!-- 0&#45;&gt;0 -->
<g id="edge5" class="edge"><title>0&#45;&gt;0</title>
<path fill="none" stroke="black" d="M83.0307,-39.4099C81.4311,-49.0879 84.2875,-58 91.6,-58 96.1703,-58 99,-54.5187 100.089,-49.5449"/>
<polygon fill="black" stroke="black" points="103.59,-49.4374 100.169,-39.4099 96.5901,-49.3818 103.59,-49.4374"/>
<text text-anchor="middle" x="91.6" y="-61.8" font-family="Times New Roman,serif" font-size="14.00">g</text>
</g>
<!-- 1 -->
<g id="node3" class="node"><title>1</title>
<ellipse fill="none" stroke="black" cx="183.6" cy="-22" rx="18" ry="18"/>
<ellipse fill="none" stroke="black" cx="183.6" cy="-22" rx="22" ry="22"/>
<text text-anchor="middle" x="183.6" y="-18.3" font-family="Times New Roman,serif" font-size="14.00">1</text>
</g>
<!-- 0&#45;&gt;1 -->
<g id="edge4" class="edge"><title>0&#45;&gt;1</title>
<path fill="none" stroke="black" d="M113.177,-33.4005C122.367,-37.1992 133.403,-40.0104 143.6,-38 147.08,-37.3139 150.641,-36.314 154.126,-35.1438"/>
<polygon fill="black" stroke="black" points="155.531,-38.3539 163.622,-31.5139 153.031,-31.8154 155.531,-38.3539"/>
<text text-anchor="middle" x="140.1" y="-41.8" font-family="Times New Roman,serif" font-size="14.00">n</text>
</g>
<!-- 1&#45;&gt;0 -->
<g id="edge2" class="edge"><title>1&#45;&gt;0</title>
<path fill="none" stroke="black" d="M161.469,-22C151.766,-22 139.98,-22 128.92,-22"/>
<polygon fill="black" stroke="black" points="128.632,-18.5001 118.632,-22 128.632,-25.5001 128.632,-18.5001"/>
<text text-anchor="middle" x="140.1" y="-25.8" font-family="Times New Roman,serif" font-size="14.00">n</text>
</g>
<!-- 1&#45;&gt;0 -->
<g id="edge3" class="edge"><title>1&#45;&gt;0</title>
<path fill="none" stroke="black" d="M164.196,-10.9159C157.891,-7.703 150.645,-4.6249 143.6,-3 136.004,-1.24817 128.008,-2.5987 120.657,-5.23395"/>
<polygon fill="black" stroke="black" points="118.859,-2.20268 111.133,-9.4531 121.694,-8.60281 118.859,-2.20268"/>
<text text-anchor="middle" x="140.1" y="-6.8" font-family="Times New Roman,serif" font-size="14.00">g</text>
</g>
</g>
</svg>
