<?xml version="1.0" encoding="UTF-8" standalone="no"?>
<!DOCTYPE svg PUBLIC "-//W3C//DTD SVG 1.1//EN"
 "http://www.w3.org/Graphics/SVG/1.1/DTD/svg11.dtd">
<!-- Generated by graphviz version 2.38.0 (20140413.2041)
 -->
<!-- Title: dfa Pages: 1 -->
<svg width="196pt" height="81pt"
 viewBox="0.00 0.00 195.60 81.00" xmlns="http://www.w3.org/2000/svg" xmlns:xlink="http://www.w3.org/1999/xlink">
<g id="graph0" class="graph" transform="scale(1 1) rotate(0) translate(4 77)">
<title>dfa</title>
<polygon fill="white" stroke="none" points="-4,4 -4,-77 191.6,-77 191.6,4 -4,4"/>
<!-- __start -->
<!-- 0 -->
<g id="node2" class="node"><title>0</title>
<ellipse fill="none" stroke="black" cx="82.6" cy="-22" rx="18" ry="18"/>
<text text-anchor="middle" x="82.6" y="-18.3" font-family="Times New Roman,serif" font-size="14.00">0</text>
</g>
<!-- __start&#45;&gt;0 -->
<g id="edge1" class="edge"><title>__start&#45;&gt;0</title>
<path fill="none" stroke="black" d="M3.68496,-22C8.69573,-22 34.008,-22 54.4423,-22"/>
<polygon fill="black" stroke="black" points="54.5501,-25.5001 64.5501,-22 54.5501,-18.5001 54.5501,-25.5001"/>
<text text-anchor="middle" x="34.1" y="-25.8" font-family="Times New Roman,serif" font-size="14.00">start</text>
</g>
<!-- 0&#45;&gt;0 -->
<g id="edge5" class="edge"><title>0&#45;&gt;0</title>
<path fill="none" stroke="black" d="M75.8664,-39.0373C74.4922,-48.8579 76.7367,-58 82.6,-58 86.2646,-58 88.5155,-54.4289 89.3529,-49.3529"/>
<polygon fill="black" stroke="black" points="92.8524,-49.0307 89.3336,-39.0373 85.8524,-49.0439 92.8524,-49.0307"/>
<text text-anchor="middle" x="82.6" y="-61.8" font-family="Times New Roman,serif" font-size="14.00">g</text>
</g>
<!-- 1 -->
<g id="node3" class="node"><title>1</title>
<ellipse fill="none" stroke="black" cx="165.6" cy="-22" rx="18" ry="18"/>
<ellipse fill="none" stroke="black" cx="165.6" cy="-22" rx="22" ry="22"/>
<text text-anchor="middle" x="165.6" y="-18.3" font-family="Times New Roman,serif" font-size="14.00">1</text>
</g>
<!-- 0&#45;&gt;1 -->
<g id="edge4" class="edge"><title>0&#45;&gt;1</title>
<path fill="none" stroke="black" d="M98.7836,-30.6602C104.761,-33.6039 111.811,-36.5217 118.6,-38 124.634,-39.3138 130.969,-38.5758 136.942,-36.8498"/>
<polygon fill="black" stroke="black" points="138.433,-40.0272 146.535,-33.2002 135.944,-33.4846 138.433,-40.0272"/>
<text text-anchor="middle" x="122.1" y="-41.8" font-family="Times New Roman,serif" font-size="14.00">n</text>
</g>
<!-- 1&#45;&gt;0 -->
<g id="edge2" class="edge"><title>1&#45;&gt;0</title>
<path fill="none" stroke="black" d="M143.411,-22C133.448,-22 121.449,-22 110.822,-22"/>
<polygon fill="black" stroke="black" points="110.778,-18.5001 100.778,-22 110.778,-25.5001 110.778,-18.5001"/>
<text text-anchor="middle" x="122.1" y="-25.8" font-family="Times New Roman,serif" font-size="14.00">n</text>
</g>
<!-- 1&#45;&gt;0 -->
<g id="edge3" class="edge"><title>1&#45;&gt;0</title>
<path fill="none" stroke="black" d="M147.525,-9.20141C139.028,-4.3314 128.482,-0.490639 118.6,-3 114.642,-4.00504 110.647,-5.55766 106.844,-7.35171"/>
<polygon fill="black" stroke="black" points="105.075,-4.32845 97.9113,-12.1343 108.379,-10.4996 105.075,-4.32845"/>
<text text-anchor="middle" x="122.1" y="-6.8" font-family="Times New Roman,serif" font-size="14.00">g</text>
</g>
</g>
</svg>
