<?xml version="1.0" encoding="UTF-8" standalone="no"?>
<!DOCTYPE svg PUBLIC "-//W3C//DTD SVG 1.1//EN"
 "http://www.w3.org/Graphics/SVG/1.1/DTD/svg11.dtd">
<!-- Generated by graphviz version 2.38.0 (20140413.2041)
 -->
<!-- Title: dfa Pages: 1 -->
<svg width="293pt" height="78pt"
 viewBox="0.00 0.00 292.60 78.00" xmlns="http://www.w3.org/2000/svg" xmlns:xlink="http://www.w3.org/1999/xlink">
<g id="graph0" class="graph" transform="scale(1 1) rotate(0) translate(4 74)">
<title>dfa</title>
<polygon fill="white" stroke="none" points="-4,4 -4,-74 288.6,-74 288.6,4 -4,4"/>
<!-- __start -->
<!-- 0 -->
<g id="node2" class="node"><title>0</title>
<ellipse fill="none" stroke="black" cx="91.6" cy="-18" rx="27" ry="18"/>
<text text-anchor="middle" x="91.6" y="-14.3" font-family="Times New Roman,serif" font-size="14.00">0</text>
</g>
<!-- __start&#45;&gt;0 -->
<g id="edge1" class="edge"><title>__start&#45;&gt;0</title>
<path fill="none" stroke="black" d="M3.78604,-18C8.86985,-18 32.7092,-18 54.1222,-18"/>
<polygon fill="black" stroke="black" points="54.3463,-21.5001 64.3463,-18 54.3463,-14.5001 54.3463,-21.5001"/>
<text text-anchor="middle" x="34.1" y="-21.8" font-family="Times New Roman,serif" font-size="14.00">start</text>
</g>
<!-- 1 -->
<g id="node3" class="node"><title>1</title>
<ellipse fill="none" stroke="black" cx="183.6" cy="-48" rx="18" ry="18"/>
<ellipse fill="none" stroke="black" cx="183.6" cy="-48" rx="22" ry="22"/>
<text text-anchor="middle" x="183.6" y="-44.3" font-family="Times New Roman,serif" font-size="14.00">1</text>
</g>
<!-- 0&#45;&gt;1 -->
<g id="edge6" class="edge"><title>0&#45;&gt;1</title>
<path fill="none" stroke="black" d="M115.811,-26.7024C122.495,-29.1374 129.815,-31.7357 136.6,-34 141.715,-35.707 147.177,-37.4438 152.486,-39.0869"/>
<polygon fill="black" stroke="black" points="151.788,-42.5329 162.374,-42.0982 153.827,-35.8366 151.788,-42.5329"/>
<text text-anchor="middle" x="140.1" y="-39.8" font-family="Times New Roman,serif" font-size="14.00">n</text>
</g>
<!-- 2 -->
<g id="node4" class="node"><title>2</title>
<ellipse fill="none" stroke="black" cx="266.6" cy="-18" rx="18" ry="18"/>
<text text-anchor="middle" x="266.6" y="-14.3" font-family="Times New Roman,serif" font-size="14.00">2</text>
</g>
<!-- 0&#45;&gt;2 -->
<g id="edge7" class="edge"><title>0&#45;&gt;2</title>
<path fill="none" stroke="black" d="M116.633,-11.0077C129.788,-7.54154 146.451,-3.73346 161.6,-2 181.029,0.223119 186.21,0.540908 205.6,-2 216.904,-3.48131 229.107,-6.46904 239.538,-9.46586"/>
<polygon fill="black" stroke="black" points="238.694,-12.8671 249.279,-12.4103 240.719,-6.16649 238.694,-12.8671"/>
<text text-anchor="middle" x="183.6" y="-5.8" font-family="Times New Roman,serif" font-size="14.00">g</text>
</g>
<!-- 1&#45;&gt;0 -->
<g id="edge3" class="edge"><title>1&#45;&gt;0</title>
<path fill="none" stroke="black" d="M167.212,-33.0857C160.511,-27.5706 152.222,-21.9485 143.6,-19 138.923,-17.4007 133.862,-16.4512 128.805,-15.9443"/>
<polygon fill="black" stroke="black" points="128.713,-12.4361 118.558,-15.4586 128.382,-19.4282 128.713,-12.4361"/>
<text text-anchor="middle" x="140.1" y="-22.8" font-family="Times New Roman,serif" font-size="14.00">g</text>
</g>
<!-- 1&#45;&gt;2 -->
<g id="edge2" class="edge"><title>1&#45;&gt;2</title>
<path fill="none" stroke="black" d="M204.948,-42.4416C213.016,-40.0736 222.325,-37.1346 230.6,-34 233.95,-32.7308 237.433,-31.2913 240.845,-29.8085"/>
<polygon fill="black" stroke="black" points="242.438,-32.9295 250.108,-25.6203 239.554,-26.5511 242.438,-32.9295"/>
<text text-anchor="middle" x="227.1" y="-39.8" font-family="Times New Roman,serif" font-size="14.00">n</text>
</g>
<!-- 2&#45;&gt;1 -->
<g id="edge4" class="edge"><title>2&#45;&gt;1</title>
<path fill="none" stroke="black" d="M248.8,-13.6727C240.933,-12.4258 231.562,-12.0833 223.6,-15 217.479,-17.2423 211.658,-20.9173 206.469,-25.0174"/>
<polygon fill="black" stroke="black" points="204.097,-22.4423 198.883,-31.6657 208.711,-27.7066 204.097,-22.4423"/>
<text text-anchor="middle" x="227.1" y="-18.8" font-family="Times New Roman,serif" font-size="14.00">n</text>
</g>
<!-- 2&#45;&gt;2 -->
<g id="edge5" class="edge"><title>2&#45;&gt;2</title>
<path fill="none" stroke="black" d="M259.866,-35.0373C258.492,-44.8579 260.737,-54 266.6,-54 270.265,-54 272.516,-50.4289 273.353,-45.3529"/>
<polygon fill="black" stroke="black" points="276.852,-45.0307 273.334,-35.0373 269.852,-45.0439 276.852,-45.0307"/>
<text text-anchor="middle" x="266.6" y="-57.8" font-family="Times New Roman,serif" font-size="14.00">g</text>
</g>
</g>
</svg>
