<?xml version="1.0" encoding="UTF-8" standalone="no"?>
<!DOCTYPE svg PUBLIC "-//W3C//DTD SVG 1.1//EN"
 "http://www.w3.org/Graphics/SVG/1.1/DTD/svg11.dtd">
<!-- Generated by graphviz version 2.38.0 (20140413.2041)
 -->
<!-- Title: dfa Pages: 1 -->
<svg width="275pt" height="78pt"
 viewBox="0.00 0.00 274.60 78.00" xmlns="http://www.w3.org/2000/svg" xmlns:xlink="http://www.w3.org/1999/xlink">
<g id="graph0" class="graph" transform="scale(1 1) rotate(0) translate(4 74)">
<title>dfa</title>
<polygon fill="white" stroke="none" points="-4,4 -4,-74 270.6,-74 270.6,4 -4,4"/>
<!-- __start -->
<!-- 0 -->
<g id="node2" class="node"><title>0</title>
<ellipse fill="none" stroke="black" cx="82.6" cy="-18" rx="18" ry="18"/>
<text text-anchor="middle" x="82.6" y="-14.3" font-family="Times New Roman,serif" font-size="14.00">0</text>
</g>
<!-- __start&#45;&gt;0 -->
<g id="edge1" class="edge"><title>__start&#45;&gt;0</title>
<path fill="none" stroke="black" d="M3.68496,-18C8.69573,-18 34.008,-18 54.4423,-18"/>
<polygon fill="black" stroke="black" points="54.5501,-21.5001 64.5501,-18 54.5501,-14.5001 54.5501,-21.5001"/>
<text text-anchor="middle" x="34.1" y="-21.8" font-family="Times New Roman,serif" font-size="14.00">start</text>
</g>
<!-- 1 -->
<g id="node3" class="node"><title>1</title>
<ellipse fill="none" stroke="black" cx="165.6" cy="-48" rx="18" ry="18"/>
<ellipse fill="none" stroke="black" cx="165.6" cy="-48" rx="22" ry="22"/>
<text text-anchor="middle" x="165.6" y="-44.3" font-family="Times New Roman,serif" font-size="14.00">1</text>
</g>
<!-- 0&#45;&gt;1 -->
<g id="edge6" class="edge"><title>0&#45;&gt;1</title>
<path fill="none" stroke="black" d="M99.0919,-25.6203C105.107,-28.4364 112.102,-31.5385 118.6,-34 123.642,-35.9102 129.069,-37.7477 134.365,-39.4276"/>
<polygon fill="black" stroke="black" points="133.665,-42.8735 144.252,-42.4416 135.707,-36.1777 133.665,-42.8735"/>
<text text-anchor="middle" x="122.1" y="-39.8" font-family="Times New Roman,serif" font-size="14.00">n</text>
</g>
<!-- 2 -->
<g id="node4" class="node"><title>2</title>
<ellipse fill="none" stroke="black" cx="248.6" cy="-18" rx="18" ry="18"/>
<text text-anchor="middle" x="248.6" y="-14.3" font-family="Times New Roman,serif" font-size="14.00">2</text>
</g>
<!-- 0&#45;&gt;2 -->
<g id="edge7" class="edge"><title>0&#45;&gt;2</title>
<path fill="none" stroke="black" d="M99.921,-12.4103C111.857,-8.62824 128.528,-3.97508 143.6,-2 162.99,0.540908 168.21,0.540908 187.6,-2 198.904,-3.48131 211.107,-6.46904 221.538,-9.46586"/>
<polygon fill="black" stroke="black" points="220.694,-12.8671 231.279,-12.4103 222.719,-6.16649 220.694,-12.8671"/>
<text text-anchor="middle" x="165.6" y="-5.8" font-family="Times New Roman,serif" font-size="14.00">g</text>
</g>
<!-- 1&#45;&gt;0 -->
<g id="edge3" class="edge"><title>1&#45;&gt;0</title>
<path fill="none" stroke="black" d="M149.206,-33.1038C142.504,-27.5915 134.216,-21.9666 125.6,-19 121.055,-17.4351 116.066,-16.6096 111.164,-16.2466"/>
<polygon fill="black" stroke="black" points="110.829,-12.741 100.775,-16.0831 110.718,-19.7402 110.829,-12.741"/>
<text text-anchor="middle" x="122.1" y="-22.8" font-family="Times New Roman,serif" font-size="14.00">g</text>
</g>
<!-- 1&#45;&gt;2 -->
<g id="edge2" class="edge"><title>1&#45;&gt;2</title>
<path fill="none" stroke="black" d="M186.948,-42.4416C195.016,-40.0736 204.325,-37.1346 212.6,-34 215.95,-32.7308 219.433,-31.2913 222.845,-29.8085"/>
<polygon fill="black" stroke="black" points="224.438,-32.9295 232.108,-25.6203 221.554,-26.5511 224.438,-32.9295"/>
<text text-anchor="middle" x="209.1" y="-39.8" font-family="Times New Roman,serif" font-size="14.00">n</text>
</g>
<!-- 2&#45;&gt;1 -->
<g id="edge4" class="edge"><title>2&#45;&gt;1</title>
<path fill="none" stroke="black" d="M230.8,-13.6727C222.933,-12.4258 213.562,-12.0833 205.6,-15 199.479,-17.2423 193.658,-20.9173 188.469,-25.0174"/>
<polygon fill="black" stroke="black" points="186.097,-22.4423 180.883,-31.6657 190.711,-27.7066 186.097,-22.4423"/>
<text text-anchor="middle" x="209.1" y="-18.8" font-family="Times New Roman,serif" font-size="14.00">n</text>
</g>
<!-- 2&#45;&gt;2 -->
<g id="edge5" class="edge"><title>2&#45;&gt;2</title>
<path fill="none" stroke="black" d="M241.866,-35.0373C240.492,-44.8579 242.737,-54 248.6,-54 252.265,-54 254.516,-50.4289 255.353,-45.3529"/>
<polygon fill="black" stroke="black" points="258.852,-45.0307 255.334,-35.0373 251.852,-45.0439 258.852,-45.0307"/>
<text text-anchor="middle" x="248.6" y="-57.8" font-family="Times New Roman,serif" font-size="14.00">g</text>
</g>
</g>
</svg>
