<?xml version="1.0" encoding="UTF-8" standalone="no"?>
<!DOCTYPE svg PUBLIC "-//W3C//DTD SVG 1.1//EN"
 "http://www.w3.org/Graphics/SVG/1.1/DTD/svg11.dtd">
<!-- Generated by graphviz version 2.38.0 (20140413.2041)
 -->
<!-- Title: dfa Pages: 1 -->
<svg width="293pt" height="139pt"
 viewBox="0.00 0.00 292.60 139.15" xmlns="http://www.w3.org/2000/svg" xmlns:xlink="http://www.w3.org/1999/xlink">
<g id="graph0" class="graph" transform="scale(1 1) rotate(0) translate(4 135.148)">
<title>dfa</title>
<polygon fill="white" stroke="none" points="-4,4 -4,-135.148 288.6,-135.148 288.6,4 -4,4"/>
<!-- __start -->
<!-- 0 -->
<g id="node2" class="node"><title>0</title>
<ellipse fill="none" stroke="black" cx="91.6" cy="-21.1483" rx="27" ry="18"/>
<text text-anchor="middle" x="91.6" y="-17.4483" font-family="Times New Roman,serif" font-size="14.00">0</text>
</g>
<!-- __start&#45;&gt;0 -->
<g id="edge1" class="edge"><title>__start&#45;&gt;0</title>
<path fill="none" stroke="black" d="M3.78604,-21.1483C8.86985,-21.1483 32.7092,-21.1483 54.1222,-21.1483"/>
<polygon fill="black" stroke="black" points="54.3463,-24.6484 64.3463,-21.1483 54.3463,-17.6484 54.3463,-24.6484"/>
<text text-anchor="middle" x="34.1" y="-24.9483" font-family="Times New Roman,serif" font-size="14.00">start</text>
</g>
<!-- 0&#45;&gt;0 -->
<g id="edge7" class="edge"><title>0&#45;&gt;0</title>
<path fill="none" stroke="black" d="M83.0307,-38.5582C81.4311,-48.2362 84.2875,-57.1483 91.6,-57.1483 96.1703,-57.1483 99,-53.667 100.089,-48.6932"/>
<polygon fill="black" stroke="black" points="103.59,-48.5857 100.169,-38.5582 96.5901,-48.5301 103.59,-48.5857"/>
<text text-anchor="middle" x="91.6" y="-60.9483" font-family="Times New Roman,serif" font-size="14.00">b</text>
</g>
<!-- 1 -->
<g id="node3" class="node"><title>1</title>
<ellipse fill="none" stroke="black" cx="183.6" cy="-76.1483" rx="18" ry="18"/>
<ellipse fill="none" stroke="black" cx="183.6" cy="-76.1483" rx="22" ry="22"/>
<text text-anchor="middle" x="183.6" y="-72.4483" font-family="Times New Roman,serif" font-size="14.00">1</text>
</g>
<!-- 0&#45;&gt;1 -->
<g id="edge6" class="edge"><title>0&#45;&gt;1</title>
<path fill="none" stroke="black" d="M112.129,-33.0825C124.851,-40.8575 141.624,-51.1077 155.615,-59.6574"/>
<polygon fill="black" stroke="black" points="153.978,-62.7591 164.336,-64.9872 157.629,-56.7861 153.978,-62.7591"/>
<text text-anchor="middle" x="140.1" y="-54.9483" font-family="Times New Roman,serif" font-size="14.00">a</text>
</g>
<!-- 1&#45;&gt;1 -->
<g id="edge5" class="edge"><title>1&#45;&gt;1</title>
<path fill="none" stroke="black" d="M175.917,-97.139C174.969,-107.236 177.53,-116.148 183.6,-116.148 187.489,-116.148 189.937,-112.49 190.946,-107.207"/>
<polygon fill="black" stroke="black" points="194.446,-107.251 191.283,-97.139 187.45,-107.016 194.446,-107.251"/>
<text text-anchor="middle" x="183.6" y="-119.948" font-family="Times New Roman,serif" font-size="14.00">b</text>
</g>
<!-- 2 -->
<g id="node4" class="node"><title>2</title>
<ellipse fill="none" stroke="black" cx="266.6" cy="-21.1483" rx="18" ry="18"/>
<text text-anchor="middle" x="266.6" y="-17.4483" font-family="Times New Roman,serif" font-size="14.00">2</text>
</g>
<!-- 1&#45;&gt;2 -->
<g id="edge4" class="edge"><title>1&#45;&gt;2</title>
<path fill="none" stroke="black" d="M202.176,-64.2141C214.122,-56.1024 230.036,-45.2966 242.935,-36.5384"/>
<polygon fill="black" stroke="black" points="244.99,-39.3736 251.297,-30.8605 241.057,-33.5825 244.99,-39.3736"/>
<text text-anchor="middle" x="227.1" y="-51.9483" font-family="Times New Roman,serif" font-size="14.00">a</text>
</g>
<!-- 2&#45;&gt;0 -->
<g id="edge2" class="edge"><title>2&#45;&gt;0</title>
<path fill="none" stroke="black" d="M248.534,-21.1483C220.942,-21.1483 165.923,-21.1483 129.178,-21.1483"/>
<polygon fill="black" stroke="black" points="128.875,-17.6484 118.875,-21.1483 128.875,-24.6484 128.875,-17.6484"/>
<text text-anchor="middle" x="183.6" y="-24.9483" font-family="Times New Roman,serif" font-size="14.00">a</text>
</g>
<!-- 2&#45;&gt;0 -->
<g id="edge3" class="edge"><title>2&#45;&gt;0</title>
<path fill="none" stroke="black" d="M249.624,-14.6105C237.717,-10.1048 220.934,-4.51811 205.6,-2.14829 186.274,0.838583 180.979,0.471128 161.6,-2.14829 149.722,-3.75383 136.998,-6.84736 125.752,-10.0795"/>
<polygon fill="black" stroke="black" points="124.47,-6.81017 115.906,-13.048 126.491,-13.5122 124.47,-6.81017"/>
<text text-anchor="middle" x="183.6" y="-5.94829" font-family="Times New Roman,serif" font-size="14.00">b</text>
</g>
</g>
</svg>
