<?xml version="1.0" encoding="UTF-8" standalone="no"?>
<!DOCTYPE svg PUBLIC "-//W3C//DTD SVG 1.1//EN"
 "http://www.w3.org/Graphics/SVG/1.1/DTD/svg11.dtd">
<!-- Generated by graphviz version 2.38.0 (20140413.2041)
 -->
<!-- Title: dfa Pages: 1 -->
<svg width="215pt" height="150pt"
 viewBox="0.00 0.00 214.60 150.00" xmlns="http://www.w3.org/2000/svg" xmlns:xlink="http://www.w3.org/1999/xlink">
<g id="graph0" class="graph" transform="scale(1 1) rotate(0) translate(4 146)">
<title>dfa</title>
<polygon fill="white" stroke="none" points="-4,4 -4,-146 210.6,-146 210.6,4 -4,4"/>
<!-- __start -->
<!-- 0 -->
<g id="node2" class="node"><title>0</title>
<ellipse fill="none" stroke="black" cx="91.6" cy="-82" rx="27" ry="18"/>
<text text-anchor="middle" x="91.6" y="-78.3" font-family="Times New Roman,serif" font-size="14.00">0</text>
</g>
<!-- __start&#45;&gt;0 -->
<g id="edge1" class="edge"><title>__start&#45;&gt;0</title>
<path fill="none" stroke="black" d="M3.78604,-82C8.86985,-82 32.7092,-82 54.1222,-82"/>
<polygon fill="black" stroke="black" points="54.3463,-85.5001 64.3463,-82 54.3463,-78.5001 54.3463,-85.5001"/>
<text text-anchor="middle" x="34.1" y="-85.8" font-family="Times New Roman,serif" font-size="14.00">start</text>
</g>
<!-- 1 -->
<g id="node3" class="node"><title>1</title>
<ellipse fill="none" stroke="black" cx="184.6" cy="-120" rx="18" ry="18"/>
<ellipse fill="none" stroke="black" cx="184.6" cy="-120" rx="22" ry="22"/>
<text text-anchor="middle" x="184.6" y="-116.3" font-family="Times New Roman,serif" font-size="14.00">1</text>
</g>
<!-- 0&#45;&gt;1 -->
<g id="edge4" class="edge"><title>0&#45;&gt;1</title>
<path fill="none" stroke="black" d="M104.987,-98.0142C112.931,-106.921 124.082,-117.161 136.6,-122 141.613,-123.938 147.155,-124.748 152.623,-124.881"/>
<polygon fill="black" stroke="black" points="153.053,-128.365 162.886,-124.422 152.74,-121.372 153.053,-128.365"/>
<text text-anchor="middle" x="140.6" y="-127.8" font-family="Times New Roman,serif" font-size="14.00">a</text>
</g>
<!-- 2 -->
<g id="node4" class="node"><title>2</title>
<ellipse fill="none" stroke="black" cx="184.6" cy="-18" rx="18" ry="18"/>
<text text-anchor="middle" x="184.6" y="-14.3" font-family="Times New Roman,serif" font-size="14.00">2</text>
</g>
<!-- 0&#45;&gt;2 -->
<g id="edge5" class="edge"><title>0&#45;&gt;2</title>
<path fill="none" stroke="black" d="M111.015,-69.0486C125.429,-58.9117 145.543,-44.7651 160.944,-33.9342"/>
<polygon fill="black" stroke="black" points="163.221,-36.6112 169.387,-27.9956 159.194,-30.8855 163.221,-36.6112"/>
<text text-anchor="middle" x="140.6" y="-53.8" font-family="Times New Roman,serif" font-size="14.00">b</text>
</g>
<!-- 1&#45;&gt;0 -->
<g id="edge2" class="edge"><title>1&#45;&gt;0</title>
<path fill="none" stroke="black" d="M164.139,-111.874C152.567,-107.041 137.608,-100.795 124.363,-95.2637"/>
<polygon fill="black" stroke="black" points="125.671,-92.017 115.094,-91.3933 122.973,-98.4764 125.671,-92.017"/>
<text text-anchor="middle" x="140.6" y="-106.8" font-family="Times New Roman,serif" font-size="14.00">a</text>
</g>
<!-- 1&#45;&gt;0 -->
<g id="edge3" class="edge"><title>1&#45;&gt;0</title>
<path fill="none" stroke="black" d="M170.828,-102.441C164.027,-94.6037 154.933,-86.2018 144.6,-82 139.606,-79.9692 134.112,-78.8859 128.623,-78.4185"/>
<polygon fill="black" stroke="black" points="128.282,-74.9104 118.208,-78.1917 128.129,-81.9087 128.282,-74.9104"/>
<text text-anchor="middle" x="140.6" y="-85.8" font-family="Times New Roman,serif" font-size="14.00">b</text>
</g>
<!-- 2&#45;&gt;0 -->
<g id="edge6" class="edge"><title>2&#45;&gt;0</title>
<path fill="none" stroke="black" d="M166.484,-18.4236C157.09,-19.3297 145.564,-21.5944 136.6,-27 124.738,-34.1531 114.758,-45.7452 107.317,-56.4472"/>
<polygon fill="black" stroke="black" points="104.2,-54.8199 101.679,-65.1104 110.067,-58.6383 104.2,-54.8199"/>
<text text-anchor="middle" x="140.6" y="-30.8" font-family="Times New Roman,serif" font-size="14.00">a</text>
</g>
<!-- 2&#45;&gt;2 -->
<g id="edge7" class="edge"><title>2&#45;&gt;2</title>
<path fill="none" stroke="black" d="M176.932,-34.2903C175.083,-44.3892 177.639,-54 184.6,-54 189.059,-54 191.711,-50.0557 192.555,-44.5656"/>
<polygon fill="black" stroke="black" points="196.046,-44.1887 192.268,-34.2903 189.048,-44.384 196.046,-44.1887"/>
<text text-anchor="middle" x="184.6" y="-57.8" font-family="Times New Roman,serif" font-size="14.00">b</text>
</g>
</g>
</svg>
