<?xml version="1.0" encoding="UTF-8" standalone="no"?>
<!DOCTYPE svg PUBLIC "-//W3C//DTD SVG 1.1//EN"
 "http://www.w3.org/Graphics/SVG/1.1/DTD/svg11.dtd">
<!-- Generated by graphviz version 2.38.0 (20140413.2041)
 -->
<!-- Title: dfa Pages: 1 -->
<svg width="197pt" height="150pt"
 viewBox="0.00 0.00 196.60 150.00" xmlns="http://www.w3.org/2000/svg" xmlns:xlink="http://www.w3.org/1999/xlink">
<g id="graph0" class="graph" transform="scale(1 1) rotate(0) translate(4 146)">
<title>dfa</title>
<polygon fill="white" stroke="none" points="-4,4 -4,-146 192.6,-146 192.6,4 -4,4"/>
<!-- __start -->
<!-- 0 -->
<g id="node2" class="node"><title>0</title>
<ellipse fill="none" stroke="black" cx="82.6" cy="-82" rx="18" ry="18"/>
<text text-anchor="middle" x="82.6" y="-78.3" font-family="Times New Roman,serif" font-size="14.00">0</text>
</g>
<!-- __start&#45;&gt;0 -->
<g id="edge1" class="edge"><title>__start&#45;&gt;0</title>
<path fill="none" stroke="black" d="M3.68496,-82C8.69573,-82 34.008,-82 54.4423,-82"/>
<polygon fill="black" stroke="black" points="54.5501,-85.5001 64.5501,-82 54.5501,-78.5001 54.5501,-85.5001"/>
<text text-anchor="middle" x="34.1" y="-85.8" font-family="Times New Roman,serif" font-size="14.00">start</text>
</g>
<!-- 1 -->
<g id="node3" class="node"><title>1</title>
<ellipse fill="none" stroke="black" cx="166.6" cy="-120" rx="18" ry="18"/>
<ellipse fill="none" stroke="black" cx="166.6" cy="-120" rx="22" ry="22"/>
<text text-anchor="middle" x="166.6" y="-116.3" font-family="Times New Roman,serif" font-size="14.00">1</text>
</g>
<!-- 0&#45;&gt;1 -->
<g id="edge4" class="edge"><title>0&#45;&gt;1</title>
<path fill="none" stroke="black" d="M92.9294,-97.1519C99.0628,-105.592 107.922,-115.318 118.6,-120 123.518,-122.157 129.014,-123.204 134.465,-123.571"/>
<polygon fill="black" stroke="black" points="134.737,-127.07 144.729,-123.548 134.722,-120.07 134.737,-127.07"/>
<text text-anchor="middle" x="122.6" y="-125.8" font-family="Times New Roman,serif" font-size="14.00">a</text>
</g>
<!-- 2 -->
<g id="node4" class="node"><title>2</title>
<ellipse fill="none" stroke="black" cx="166.6" cy="-18" rx="18" ry="18"/>
<text text-anchor="middle" x="166.6" y="-14.3" font-family="Times New Roman,serif" font-size="14.00">2</text>
</g>
<!-- 0&#45;&gt;2 -->
<g id="edge5" class="edge"><title>0&#45;&gt;2</title>
<path fill="none" stroke="black" d="M97.5102,-71.1433C110.191,-61.2457 129.131,-46.4635 143.818,-35.0002"/>
<polygon fill="black" stroke="black" points="146.166,-37.6083 151.895,-28.6964 141.859,-32.09 146.166,-37.6083"/>
<text text-anchor="middle" x="122.6" y="-56.8" font-family="Times New Roman,serif" font-size="14.00">b</text>
</g>
<!-- 1&#45;&gt;0 -->
<g id="edge2" class="edge"><title>1&#45;&gt;0</title>
<path fill="none" stroke="black" d="M146.375,-111.091C135.096,-105.864 120.721,-99.2024 108.573,-93.573"/>
<polygon fill="black" stroke="black" points="109.955,-90.3559 99.4104,-89.3268 107.012,-96.707 109.955,-90.3559"/>
<text text-anchor="middle" x="122.6" y="-104.8" font-family="Times New Roman,serif" font-size="14.00">a</text>
</g>
<!-- 1&#45;&gt;0 -->
<g id="edge3" class="edge"><title>1&#45;&gt;0</title>
<path fill="none" stroke="black" d="M153.784,-101.943C146.988,-93.2576 137.615,-83.7246 126.6,-79 121.571,-76.8428 115.906,-76.1628 110.38,-76.2921"/>
<polygon fill="black" stroke="black" points="109.708,-72.8431 100.125,-77.3624 110.435,-79.8053 109.708,-72.8431"/>
<text text-anchor="middle" x="122.6" y="-82.8" font-family="Times New Roman,serif" font-size="14.00">b</text>
</g>
<!-- 2&#45;&gt;0 -->
<g id="edge6" class="edge"><title>2&#45;&gt;0</title>
<path fill="none" stroke="black" d="M148.268,-19.8601C138.806,-21.5594 127.284,-24.8054 118.6,-31 109.192,-37.7105 101.509,-47.7909 95.7634,-57.2224"/>
<polygon fill="black" stroke="black" points="92.7141,-55.5045 90.855,-65.9349 98.8128,-58.9404 92.7141,-55.5045"/>
<text text-anchor="middle" x="122.6" y="-34.8" font-family="Times New Roman,serif" font-size="14.00">a</text>
</g>
<!-- 2&#45;&gt;2 -->
<g id="edge7" class="edge"><title>2&#45;&gt;2</title>
<path fill="none" stroke="black" d="M158.932,-34.2903C157.083,-44.3892 159.639,-54 166.6,-54 171.059,-54 173.711,-50.0557 174.555,-44.5656"/>
<polygon fill="black" stroke="black" points="178.046,-44.1887 174.268,-34.2903 171.048,-44.384 178.046,-44.1887"/>
<text text-anchor="middle" x="166.6" y="-57.8" font-family="Times New Roman,serif" font-size="14.00">b</text>
</g>
</g>
</svg>
