<?xml version="1.0" encoding="UTF-8" standalone="no"?>
<!DOCTYPE svg PUBLIC "-//W3C//DTD SVG 1.1//EN"
 "http://www.w3.org/Graphics/SVG/1.1/DTD/svg11.dtd">
<!-- Generated by graphviz version 2.38.0 (20140413.2041)
 -->
<!-- Title: dfa Pages: 1 -->
<svg width="634pt" height="361pt"
 viewBox="0.00 0.00 633.97 361.00" xmlns="http://www.w3.org/2000/svg" xmlns:xlink="http://www.w3.org/1999/xlink">
<g id="graph0" class="graph" transform="scale(1 1) rotate(0) translate(4 357)">
<title>dfa</title>
<polygon fill="white" stroke="none" points="-4,4 -4,-357 629.97,-357 629.97,4 -4,4"/>
<!-- __start -->
<!-- (0,0) -->
<g id="node2" class="node"><title>(0,0)</title>
<ellipse fill="none" stroke="black" cx="92.5475" cy="-76" rx="27.8951" ry="18"/>
<text text-anchor="middle" x="92.5475" y="-72.3" font-family="Times New Roman,serif" font-size="14.00">(0,0)</text>
</g>
<!-- __start&#45;&gt;(0,0) -->
<g id="edge1" class="edge"><title>__start&#45;&gt;(0,0)</title>
<path fill="none" stroke="black" d="M3.79668,-76C8.92583,-76 32.9428,-76 54.5557,-76"/>
<polygon fill="black" stroke="black" points="54.5589,-79.5001 64.5589,-76 54.5588,-72.5001 54.5589,-79.5001"/>
<text text-anchor="middle" x="34.1" y="-79.8" font-family="Times New Roman,serif" font-size="14.00">start</text>
</g>
<!-- (1,1) -->
<g id="node3" class="node"><title>(1,1)</title>
<ellipse fill="none" stroke="black" cx="195.443" cy="-154" rx="27.9017" ry="27.9017"/>
<ellipse fill="none" stroke="black" cx="195.443" cy="-154" rx="31.8951" ry="31.8951"/>
<text text-anchor="middle" x="195.443" y="-150.3" font-family="Times New Roman,serif" font-size="14.00">(1,1)</text>
</g>
<!-- (0,0)&#45;&gt;(1,1) -->
<g id="edge10" class="edge"><title>(0,0)&#45;&gt;(1,1)</title>
<path fill="none" stroke="black" d="M111.122,-89.5866C124.999,-100.314 144.753,-115.586 161.544,-128.567"/>
<polygon fill="black" stroke="black" points="159.458,-131.378 169.51,-134.725 163.739,-125.84 159.458,-131.378"/>
<text text-anchor="middle" x="141.995" y="-118.8" font-family="Times New Roman,serif" font-size="14.00">a</text>
</g>
<!-- (2,0) -->
<g id="node8" class="node"><title>(2,0)</title>
<ellipse fill="none" stroke="black" cx="598.023" cy="-262" rx="27.8951" ry="27.8951"/>
<text text-anchor="middle" x="598.023" y="-258.3" font-family="Times New Roman,serif" font-size="14.00">(2,0)</text>
</g>
<!-- (0,0)&#45;&gt;(2,0) -->
<g id="edge11" class="edge"><title>(0,0)&#45;&gt;(2,0)</title>
<path fill="none" stroke="black" d="M96.4504,-94.0083C106.494,-153.202 142.045,-338 194.443,-338 194.443,-338 194.443,-338 499.128,-338 530.226,-338 557.414,-313.774 575.194,-292.678"/>
<polygon fill="black" stroke="black" points="577.99,-294.786 581.536,-284.803 572.538,-290.395 577.99,-294.786"/>
<text text-anchor="middle" x="349.285" y="-341.8" font-family="Times New Roman,serif" font-size="14.00">b</text>
</g>
<!-- (0,1) -->
<g id="node6" class="node"><title>(0,1)</title>
<ellipse fill="none" stroke="black" cx="299.338" cy="-154" rx="27.8951" ry="27.8951"/>
<text text-anchor="middle" x="299.338" y="-150.3" font-family="Times New Roman,serif" font-size="14.00">(0,1)</text>
</g>
<!-- (1,1)&#45;&gt;(0,1) -->
<g id="edge7" class="edge"><title>(1,1)&#45;&gt;(0,1)</title>
<path fill="none" stroke="black" d="M227.568,-154C238.124,-154 250.025,-154 261.013,-154"/>
<polygon fill="black" stroke="black" points="261.195,-157.5 271.195,-154 261.195,-150.5 261.195,-157.5"/>
<text text-anchor="middle" x="249.39" y="-157.8" font-family="Times New Roman,serif" font-size="14.00">b</text>
</g>
<!-- (0,2) -->
<g id="node7" class="node"><title>(0,2)</title>
<ellipse fill="none" stroke="black" cx="498.128" cy="-183" rx="27.8951" ry="27.8951"/>
<text text-anchor="middle" x="498.128" y="-179.3" font-family="Times New Roman,serif" font-size="14.00">(0,2)</text>
</g>
<!-- (1,1)&#45;&gt;(0,2) -->
<g id="edge6" class="edge"><title>(1,1)&#45;&gt;(0,2)</title>
<path fill="none" stroke="black" d="M216.684,-178.103C242.911,-207.349 291.671,-255.309 345.285,-276 389.656,-293.124 412.149,-306.681 452.18,-281 472.853,-267.738 484.143,-242.324 490.236,-220.699"/>
<polygon fill="black" stroke="black" points="493.688,-221.328 492.757,-210.774 486.903,-219.605 493.688,-221.328"/>
<text text-anchor="middle" x="349.285" y="-282.8" font-family="Times New Roman,serif" font-size="14.00">a</text>
</g>
<!-- (1,2) -->
<g id="node4" class="node"><title>(1,2)</title>
<ellipse fill="none" stroke="black" cx="399.233" cy="-61" rx="27.8951" ry="27.8951"/>
<text text-anchor="middle" x="399.233" y="-57.3" font-family="Times New Roman,serif" font-size="14.00">(1,2)</text>
</g>
<!-- (1,2)&#45;&gt;(0,0) -->
<g id="edge2" class="edge"><title>(1,2)&#45;&gt;(0,0)</title>
<path fill="none" stroke="black" d="M372.344,-53.2997C342.004,-45.1996 290.176,-34.2363 245.39,-39 204.06,-43.3961 157.824,-55.779 127.352,-65.0166"/>
<polygon fill="black" stroke="black" points="126.174,-61.7173 117.652,-68.0127 128.24,-68.4055 126.174,-61.7173"/>
<text text-anchor="middle" x="249.39" y="-42.8" font-family="Times New Roman,serif" font-size="14.00">a</text>
</g>
<!-- (1,2)&#45;&gt;(0,0) -->
<g id="edge3" class="edge"><title>(1,2)&#45;&gt;(0,0)</title>
<path fill="none" stroke="black" d="M371.254,-62.3282C316.648,-65.0165 192.949,-71.1063 130.74,-74.169"/>
<polygon fill="black" stroke="black" points="130.402,-70.6813 120.586,-74.6689 130.746,-77.6728 130.402,-70.6813"/>
<text text-anchor="middle" x="249.39" y="-72.8" font-family="Times New Roman,serif" font-size="14.00">b</text>
</g>
<!-- (1,0) -->
<g id="node5" class="node"><title>(1,0)</title>
<ellipse fill="none" stroke="black" cx="598.023" cy="-117" rx="27.8951" ry="27.8951"/>
<text text-anchor="middle" x="598.023" y="-113.3" font-family="Times New Roman,serif" font-size="14.00">(1,0)</text>
</g>
<!-- (1,0)&#45;&gt;(0,0) -->
<g id="edge5" class="edge"><title>(1,0)&#45;&gt;(0,0)</title>
<path fill="none" stroke="black" d="M588.314,-90.7429C575.021,-56.2474 546.138,-0 499.128,-0 194.443,-0 194.443,-0 194.443,-0 159.635,-0 129.204,-29.2154 111.103,-51.4185"/>
<polygon fill="black" stroke="black" points="108.182,-49.4731 104.786,-59.5091 113.699,-53.781 108.182,-49.4731"/>
<text text-anchor="middle" x="349.285" y="-3.8" font-family="Times New Roman,serif" font-size="14.00">b</text>
</g>
<!-- (1,0)&#45;&gt;(0,1) -->
<g id="edge4" class="edge"><title>(1,0)&#45;&gt;(0,1)</title>
<path fill="none" stroke="black" d="M569.739,-117.849C527.118,-119.5 442.265,-124.092 371.285,-136 359.771,-137.932 347.383,-140.795 336.232,-143.673"/>
<polygon fill="black" stroke="black" points="335.161,-140.336 326.4,-146.294 336.964,-147.1 335.161,-140.336"/>
<text text-anchor="middle" x="448.68" y="-130.8" font-family="Times New Roman,serif" font-size="14.00">a</text>
</g>
<!-- (0,1)&#45;&gt;(1,2) -->
<g id="edge12" class="edge"><title>(0,1)&#45;&gt;(1,2)</title>
<path fill="none" stroke="black" d="M318.548,-132.911C326.497,-124.035 336.089,-113.757 345.285,-105 352.595,-98.0393 360.844,-90.8826 368.617,-84.4168"/>
<polygon fill="black" stroke="black" points="371.281,-86.759 376.798,-77.7139 366.845,-81.3443 371.281,-86.759"/>
<text text-anchor="middle" x="349.285" y="-108.8" font-family="Times New Roman,serif" font-size="14.00">a</text>
</g>
<!-- (2,1) -->
<g id="node9" class="node"><title>(2,1)</title>
<ellipse fill="none" stroke="black" cx="399.233" cy="-173" rx="27.8951" ry="27.8951"/>
<text text-anchor="middle" x="399.233" y="-169.3" font-family="Times New Roman,serif" font-size="14.00">(2,1)</text>
</g>
<!-- (0,1)&#45;&gt;(2,1) -->
<g id="edge13" class="edge"><title>(0,1)&#45;&gt;(2,1)</title>
<path fill="none" stroke="black" d="M326.829,-159.142C337.603,-161.233 350.23,-163.683 361.845,-165.938"/>
<polygon fill="black" stroke="black" points="361.236,-169.385 371.72,-167.854 362.57,-162.513 361.236,-169.385"/>
<text text-anchor="middle" x="349.285" y="-168.8" font-family="Times New Roman,serif" font-size="14.00">b</text>
</g>
<!-- (0,2)&#45;&gt;(1,0) -->
<g id="edge8" class="edge"><title>(0,2)&#45;&gt;(1,0)</title>
<path fill="none" stroke="black" d="M521.833,-167.692C534.93,-158.863 551.586,-147.633 565.89,-137.989"/>
<polygon fill="black" stroke="black" points="568.106,-140.717 574.441,-132.225 564.193,-134.913 568.106,-140.717"/>
<text text-anchor="middle" x="548.075" y="-155.8" font-family="Times New Roman,serif" font-size="14.00">a</text>
</g>
<!-- (0,2)&#45;&gt;(2,0) -->
<g id="edge9" class="edge"><title>(0,2)&#45;&gt;(2,0)</title>
<path fill="none" stroke="black" d="M520.369,-200.142C534.224,-211.322 552.494,-226.066 567.723,-238.355"/>
<polygon fill="black" stroke="black" points="565.842,-241.335 575.822,-244.892 570.238,-235.888 565.842,-241.335"/>
<text text-anchor="middle" x="548.075" y="-228.8" font-family="Times New Roman,serif" font-size="14.00">b</text>
</g>
<!-- (2,0)&#45;&gt;(0,1) -->
<g id="edge14" class="edge"><title>(2,0)&#45;&gt;(0,1)</title>
<path fill="none" stroke="black" d="M570.09,-266.25C525.732,-271.888 435.799,-277.484 371.285,-243 348.163,-230.641 329.951,-207.186 317.77,-187.457"/>
<polygon fill="black" stroke="black" points="320.702,-185.537 312.602,-178.707 314.675,-189.098 320.702,-185.537"/>
<text text-anchor="middle" x="448.68" y="-271.8" font-family="Times New Roman,serif" font-size="14.00">a</text>
</g>
<!-- (2,0)&#45;&gt;(2,0) -->
<g id="edge15" class="edge"><title>(2,0)&#45;&gt;(2,0)</title>
<path fill="none" stroke="black" d="M589.058,-288.901C588.659,-299.302 591.648,-307.948 598.023,-307.948 602.107,-307.948 604.801,-304.4 606.105,-299.115"/>
<polygon fill="black" stroke="black" points="609.614,-299.166 606.988,-288.901 602.64,-298.563 609.614,-299.166"/>
<text text-anchor="middle" x="598.023" y="-311.748" font-family="Times New Roman,serif" font-size="14.00">b</text>
</g>
<!-- (2,1)&#45;&gt;(0,2) -->
<g id="edge16" class="edge"><title>(2,1)&#45;&gt;(0,2)</title>
<path fill="none" stroke="black" d="M427.223,-175.786C437.408,-176.837 449.178,-178.051 460.121,-179.181"/>
<polygon fill="black" stroke="black" points="459.975,-182.684 470.282,-180.229 460.694,-175.721 459.975,-182.684"/>
<text text-anchor="middle" x="448.68" y="-182.8" font-family="Times New Roman,serif" font-size="14.00">a</text>
</g>
<!-- (2,1)&#45;&gt;(2,1) -->
<g id="edge17" class="edge"><title>(2,1)&#45;&gt;(2,1)</title>
<path fill="none" stroke="black" d="M390.268,-199.901C389.869,-210.302 392.858,-218.948 399.233,-218.948 403.317,-218.948 406.011,-215.4 407.315,-210.115"/>
<polygon fill="black" stroke="black" points="410.823,-210.166 408.197,-199.901 403.849,-209.563 410.823,-210.166"/>
<text text-anchor="middle" x="399.233" y="-222.748" font-family="Times New Roman,serif" font-size="14.00">b</text>
</g>
</g>
</svg>
