<?xml version="1.0" encoding="UTF-8" standalone="no"?>
<!DOCTYPE svg PUBLIC "-//W3C//DTD SVG 1.1//EN"
 "http://www.w3.org/Graphics/SVG/1.1/DTD/svg11.dtd">
<!-- Generated by graphviz version 2.38.0 (20140413.2041)
 -->
<!-- Title: dfa Pages: 1 -->
<svg width="272pt" height="110pt"
 viewBox="0.00 0.00 271.60 110.00" xmlns="http://www.w3.org/2000/svg" xmlns:xlink="http://www.w3.org/1999/xlink">
<g id="graph0" class="graph" transform="scale(1 1) rotate(0) translate(4 106)">
<title>dfa</title>
<polygon fill="white" stroke="none" points="-4,4 -4,-106 267.6,-106 267.6,4 -4,4"/>
<!-- __start -->
<!-- 0 -->
<g id="node2" class="node"><title>0</title>
<ellipse fill="none" stroke="black" cx="86.6" cy="-30" rx="18" ry="18"/>
<ellipse fill="none" stroke="black" cx="86.6" cy="-30" rx="22" ry="22"/>
<text text-anchor="middle" x="86.6" y="-26.3" font-family="Times New Roman,serif" font-size="14.00">0</text>
</g>
<!-- __start&#45;&gt;0 -->
<g id="edge1" class="edge"><title>__start&#45;&gt;0</title>
<path fill="none" stroke="black" d="M3.72988,-30C8.77597,-30 33.4162,-30 54.3593,-30"/>
<polygon fill="black" stroke="black" points="54.5455,-33.5001 64.5454,-30 54.5454,-26.5001 54.5455,-33.5001"/>
<text text-anchor="middle" x="34.1" y="-33.8" font-family="Times New Roman,serif" font-size="14.00">start</text>
</g>
<!-- 1 -->
<g id="node3" class="node"><title>1</title>
<ellipse fill="none" stroke="black" cx="169.6" cy="-48" rx="18" ry="18"/>
<text text-anchor="middle" x="169.6" y="-44.3" font-family="Times New Roman,serif" font-size="14.00">1</text>
</g>
<!-- 0&#45;&gt;1 -->
<g id="edge2" class="edge"><title>0&#45;&gt;1</title>
<path fill="none" stroke="black" d="M106.619,-39.3215C112.842,-41.9559 119.884,-44.5091 126.6,-46 131.214,-47.0244 136.181,-47.6585 141.028,-48.0342"/>
<polygon fill="black" stroke="black" points="141.112,-51.5415 151.259,-48.4954 141.427,-44.5486 141.112,-51.5415"/>
<text text-anchor="middle" x="130.1" y="-50.8" font-family="Times New Roman,serif" font-size="14.00">t</text>
</g>
<!-- 2 -->
<g id="node4" class="node"><title>2</title>
<ellipse fill="none" stroke="black" cx="245.6" cy="-18" rx="18" ry="18"/>
<text text-anchor="middle" x="245.6" y="-14.3" font-family="Times New Roman,serif" font-size="14.00">2</text>
</g>
<!-- 0&#45;&gt;2 -->
<g id="edge3" class="edge"><title>0&#45;&gt;2</title>
<path fill="none" stroke="black" d="M106.691,-20.7762C119.152,-15.2799 135.954,-8.83719 151.6,-6 173.932,-1.95044 199.522,-5.87044 218.198,-10.2808"/>
<polygon fill="black" stroke="black" points="217.503,-13.7154 228.058,-12.8055 219.239,-6.93423 217.503,-13.7154"/>
<text text-anchor="middle" x="169.6" y="-9.8" font-family="Times New Roman,serif" font-size="14.00">n</text>
</g>
<!-- 1&#45;&gt;0 -->
<g id="edge5" class="edge"><title>1&#45;&gt;0</title>
<path fill="none" stroke="black" d="M154.763,-37.33C148.63,-33.2506 141.112,-29.0807 133.6,-27 128.837,-25.6808 123.696,-25.1726 118.636,-25.1609"/>
<polygon fill="black" stroke="black" points="118.296,-21.6744 108.51,-25.7333 118.691,-28.6632 118.296,-21.6744"/>
<text text-anchor="middle" x="130.1" y="-30.8" font-family="Times New Roman,serif" font-size="14.00">n</text>
</g>
<!-- 1&#45;&gt;2 -->
<g id="edge4" class="edge"><title>1&#45;&gt;2</title>
<path fill="none" stroke="black" d="M186.657,-41.4904C196.16,-37.6378 208.412,-32.671 219.199,-28.2975"/>
<polygon fill="black" stroke="black" points="220.622,-31.4976 228.574,-24.4968 217.992,-25.0104 220.622,-31.4976"/>
<text text-anchor="middle" x="207.6" y="-36.8" font-family="Times New Roman,serif" font-size="14.00">t</text>
</g>
<!-- 2&#45;&gt;2 -->
<g id="edge6" class="edge"><title>2&#45;&gt;2</title>
<path fill="none" stroke="black" d="M242.184,-35.7817C241.604,-45.3149 242.743,-54 245.6,-54 247.341,-54 248.444,-50.7749 248.909,-46.0981"/>
<polygon fill="black" stroke="black" points="252.412,-45.8174 249.016,-35.7817 245.412,-45.745 252.412,-45.8174"/>
<text text-anchor="middle" x="245.6" y="-57.8" font-family="Times New Roman,serif" font-size="14.00">t</text>
</g>
<!-- 2&#45;&gt;2 -->
<g id="edge7" class="edge"><title>2&#45;&gt;2</title>
<path fill="none" stroke="black" d="M240.041,-35.1418C236.77,-52.585 238.623,-72 245.6,-72 251.214,-72 253.51,-59.4283 252.489,-45.4287"/>
<polygon fill="black" stroke="black" points="255.913,-44.6105 251.159,-35.1418 248.97,-45.508 255.913,-44.6105"/>
<text text-anchor="middle" x="245.6" y="-75.8" font-family="Times New Roman,serif" font-size="14.00">n</text>
</g>
</g>
</svg>
