<?xml version="1.0" encoding="UTF-8" standalone="no"?>
<!DOCTYPE svg PUBLIC "-//W3C//DTD SVG 1.1//EN"
 "http://www.w3.org/Graphics/SVG/1.1/DTD/svg11.dtd">
<!-- Generated by graphviz version 2.38.0 (20140413.2041)
 -->
<!-- Title: dfa Pages: 1 -->
<svg width="465pt" height="187pt"
 viewBox="0.00 0.00 465.48 187.39" xmlns="http://www.w3.org/2000/svg" xmlns:xlink="http://www.w3.org/1999/xlink">
<g id="graph0" class="graph" transform="scale(1 1) rotate(0) translate(4 183.393)">
<title>dfa</title>
<polygon fill="white" stroke="none" points="-4,4 -4,-183.393 461.478,-183.393 461.478,4 -4,4"/>
<!-- __start -->
<!-- {0,1,2} -->
<g id="node2" class="node"><title>{0,1,2}</title>
<ellipse fill="none" stroke="black" cx="106.297" cy="-41.6967" rx="37.8753" ry="37.8753"/>
<ellipse fill="none" stroke="black" cx="106.297" cy="-41.6967" rx="41.8942" ry="41.8942"/>
<text text-anchor="middle" x="106.297" y="-37.9967" font-family="Times New Roman,serif" font-size="14.00">{0,1,2}</text>
</g>
<!-- __start&#45;&gt;{0,1,2} -->
<g id="edge1" class="edge"><title>__start&#45;&gt;{0,1,2}</title>
<path fill="none" stroke="black" d="M3.95109,-41.6967C9.21507,-41.6967 31.7043,-41.6967 54.1639,-41.6967"/>
<polygon fill="black" stroke="black" points="54.4191,-45.1968 64.4191,-41.6967 54.419,-38.1968 54.4191,-45.1968"/>
<text text-anchor="middle" x="34.1" y="-45.4967" font-family="Times New Roman,serif" font-size="14.00">start</text>
</g>
<!-- {3,4} -->
<g id="node4" class="node"><title>{3,4}</title>
<ellipse fill="none" stroke="black" cx="218.541" cy="-85.6967" rx="30.5947" ry="30.5947"/>
<text text-anchor="middle" x="218.541" y="-81.9967" font-family="Times New Roman,serif" font-size="14.00">{3,4}</text>
</g>
<!-- {0,1,2}&#45;&gt;{3,4} -->
<g id="edge2" class="edge"><title>{0,1,2}&#45;&gt;{3,4}</title>
<path fill="none" stroke="black" d="M145.236,-56.839C156.605,-61.3764 169.058,-66.3464 180.376,-70.8637"/>
<polygon fill="black" stroke="black" points="179.39,-74.2385 189.975,-74.6947 181.985,-67.7372 179.39,-74.2385"/>
<text text-anchor="middle" x="167.993" y="-70.4967" font-family="Times New Roman,serif" font-size="14.00">t</text>
</g>
<!-- {} -->
<g id="node5" class="node"><title>{}</title>
<ellipse fill="none" stroke="black" cx="437.979" cy="-62.6967" rx="19.4965" ry="19.4965"/>
<text text-anchor="middle" x="437.979" y="-58.9967" font-family="Times New Roman,serif" font-size="14.00">{}</text>
</g>
<!-- {0,1,2}&#45;&gt;{} -->
<g id="edge3" class="edge"><title>{0,1,2}&#45;&gt;{}</title>
<path fill="none" stroke="black" d="M148.278,-42.1808C176.611,-42.6801 215.163,-43.6854 249.088,-45.6967 305.629,-49.0488 371.519,-55.6294 408.327,-59.5472"/>
<polygon fill="black" stroke="black" points="408.023,-63.0346 418.34,-60.6239 408.772,-56.0747 408.023,-63.0346"/>
<text text-anchor="middle" x="270.588" y="-51.4967" font-family="Times New Roman,serif" font-size="14.00">n</text>
</g>
<!-- {1,2,5} -->
<g id="node3" class="node"><title>{1,2,5}</title>
<ellipse fill="none" stroke="black" cx="333.785" cy="-137.697" rx="37.8753" ry="37.8753"/>
<ellipse fill="none" stroke="black" cx="333.785" cy="-137.697" rx="41.8942" ry="41.8942"/>
<text text-anchor="middle" x="333.785" y="-133.997" font-family="Times New Roman,serif" font-size="14.00">{1,2,5}</text>
</g>
<!-- {1,2,5}&#45;&gt;{3,4} -->
<g id="edge6" class="edge"><title>{1,2,5}&#45;&gt;{3,4}</title>
<path fill="none" stroke="black" d="M301.097,-111.207C292.739,-105.32 283.432,-99.6603 274.088,-95.6967 269.335,-93.6804 264.18,-92.0701 258.999,-90.7841"/>
<polygon fill="black" stroke="black" points="259.614,-87.3366 249.105,-88.6893 258.164,-94.1848 259.614,-87.3366"/>
<text text-anchor="middle" x="270.588" y="-99.4967" font-family="Times New Roman,serif" font-size="14.00">t</text>
</g>
<!-- {1,2,5}&#45;&gt;{} -->
<g id="edge7" class="edge"><title>{1,2,5}&#45;&gt;{}</title>
<path fill="none" stroke="black" d="M367.964,-113.346C382.785,-102.469 399.909,-89.9025 413.392,-80.0076"/>
<polygon fill="black" stroke="black" points="415.674,-82.674 421.665,-73.9357 411.532,-77.0306 415.674,-82.674"/>
<text text-anchor="middle" x="396.981" y="-97.4967" font-family="Times New Roman,serif" font-size="14.00">n</text>
</g>
<!-- {3,4}&#45;&gt;{1,2,5} -->
<g id="edge5" class="edge"><title>{3,4}&#45;&gt;{1,2,5}</title>
<path fill="none" stroke="black" d="M244.653,-102.37C251.741,-106.698 259.572,-111.138 267.088,-114.697 272.475,-117.248 278.226,-119.67 284,-121.917"/>
<polygon fill="black" stroke="black" points="283.085,-125.312 293.678,-125.528 285.532,-118.753 283.085,-125.312"/>
<text text-anchor="middle" x="270.588" y="-122.497" font-family="Times New Roman,serif" font-size="14.00">n</text>
</g>
<!-- {3,4}&#45;&gt;{} -->
<g id="edge4" class="edge"><title>{3,4}&#45;&gt;{}</title>
<path fill="none" stroke="black" d="M248.701,-79.1814C261.888,-76.4648 277.708,-73.523 292.088,-71.6967 331.994,-66.6281 378.462,-64.3813 407.796,-63.4079"/>
<polygon fill="black" stroke="black" points="408.262,-66.8955 418.151,-63.094 408.05,-59.8987 408.262,-66.8955"/>
<text text-anchor="middle" x="333.785" y="-75.4967" font-family="Times New Roman,serif" font-size="14.00">t</text>
</g>
<!-- {}&#45;&gt;{} -->
<g id="edge8" class="edge"><title>{}&#45;&gt;{}</title>
<path fill="none" stroke="black" d="M434.34,-81.9903C433.837,-91.6123 435.05,-100.195 437.979,-100.195 439.765,-100.195 440.913,-97.0079 441.423,-92.3407"/>
<polygon fill="black" stroke="black" points="444.929,-92.0547 441.619,-81.9903 437.93,-91.9223 444.929,-92.0547"/>
<text text-anchor="middle" x="437.979" y="-103.995" font-family="Times New Roman,serif" font-size="14.00">t</text>
</g>
<!-- {}&#45;&gt;{} -->
<g id="edge9" class="edge"><title>{}&#45;&gt;{}</title>
<path fill="none" stroke="black" d="M431.915,-81.4609C428.77,-99.0813 430.792,-118.195 437.979,-118.195 443.819,-118.195 446.249,-105.577 445.268,-91.394"/>
<polygon fill="black" stroke="black" points="448.741,-90.9577 444.044,-81.4609 441.793,-91.8139 448.741,-90.9577"/>
<text text-anchor="middle" x="437.979" y="-121.995" font-family="Times New Roman,serif" font-size="14.00">n</text>
</g>
</g>
</svg>
