<?xml version="1.0" encoding="UTF-8" standalone="no"?>
<!DOCTYPE svg PUBLIC "-//W3C//DTD SVG 1.1//EN"
 "http://www.w3.org/Graphics/SVG/1.1/DTD/svg11.dtd">
<!-- Generated by graphviz version 2.38.0 (20140413.2041)
 -->
<!-- Title: enfa Pages: 1 -->
<svg width="509pt" height="104pt"
 viewBox="0.00 0.00 508.60 104.26" xmlns="http://www.w3.org/2000/svg" xmlns:xlink="http://www.w3.org/1999/xlink">
<g id="graph0" class="graph" transform="scale(1 1) rotate(0) translate(4 100.258)">
<title>enfa</title>
<polygon fill="white" stroke="none" points="-4,4 -4,-100.258 504.6,-100.258 504.6,4 -4,4"/>
<!-- __start -->
<!-- 0 -->
<g id="node2" class="node"><title>0</title>
<ellipse fill="none" stroke="black" cx="82.6" cy="-62.2576" rx="18" ry="18"/>
<text text-anchor="middle" x="82.6" y="-58.5576" font-family="Times New Roman,serif" font-size="14.00">0</text>
</g>
<!-- __start&#45;&gt;0 -->
<g id="edge1" class="edge"><title>__start&#45;&gt;0</title>
<path fill="none" stroke="black" d="M3.68496,-62.2576C8.69573,-62.2576 34.008,-62.2576 54.4423,-62.2576"/>
<polygon fill="black" stroke="black" points="54.5501,-65.7577 64.5501,-62.2576 54.5501,-58.7577 54.5501,-65.7577"/>
<text text-anchor="middle" x="34.1" y="-66.0576" font-family="Times New Roman,serif" font-size="14.00">start</text>
</g>
<!-- 1 -->
<g id="node3" class="node"><title>1</title>
<ellipse fill="none" stroke="black" cx="478.6" cy="-62.2576" rx="18" ry="18"/>
<ellipse fill="none" stroke="black" cx="478.6" cy="-62.2576" rx="22" ry="22"/>
<text text-anchor="middle" x="478.6" y="-58.5576" font-family="Times New Roman,serif" font-size="14.00">1</text>
</g>
<!-- 0&#45;&gt;1 -->
<g id="edge6" class="edge"><title>0&#45;&gt;1</title>
<path fill="none" stroke="black" d="M99.5412,-68.5843C114.92,-74.1115 138.983,-81.2576 160.6,-81.2576 160.6,-81.2576 160.6,-81.2576 396.6,-81.2576 413.852,-81.2576 432.637,-77.1219 447.77,-72.7094"/>
<polygon fill="black" stroke="black" points="449.087,-75.9655 457.599,-69.6579 447.011,-69.2803 449.087,-75.9655"/>
<text text-anchor="middle" x="277.1" y="-85.0576" font-family="Times New Roman,serif" font-size="14.00">ε</text>
</g>
<!-- 2 -->
<g id="node4" class="node"><title>2</title>
<ellipse fill="none" stroke="black" cx="161.6" cy="-35.2576" rx="18" ry="18"/>
<text text-anchor="middle" x="161.6" y="-31.5576" font-family="Times New Roman,serif" font-size="14.00">2</text>
</g>
<!-- 0&#45;&gt;2 -->
<g id="edge5" class="edge"><title>0&#45;&gt;2</title>
<path fill="none" stroke="black" d="M99.9297,-56.5316C110.036,-52.9877 123.235,-48.3596 134.74,-44.3255"/>
<polygon fill="black" stroke="black" points="136.015,-47.5872 144.294,-40.9754 133.699,-40.9816 136.015,-47.5872"/>
<text text-anchor="middle" x="122.1" y="-53.0576" font-family="Times New Roman,serif" font-size="14.00">ε</text>
</g>
<!-- 3 -->
<g id="node5" class="node"><title>3</title>
<ellipse fill="none" stroke="black" cx="237.6" cy="-35.2576" rx="18" ry="18"/>
<text text-anchor="middle" x="237.6" y="-31.5576" font-family="Times New Roman,serif" font-size="14.00">3</text>
</g>
<!-- 2&#45;&gt;3 -->
<g id="edge2" class="edge"><title>2&#45;&gt;3</title>
<path fill="none" stroke="black" d="M179.763,-35.2576C188.542,-35.2576 199.437,-35.2576 209.333,-35.2576"/>
<polygon fill="black" stroke="black" points="209.53,-38.7577 219.53,-35.2576 209.53,-31.7577 209.53,-38.7577"/>
<text text-anchor="middle" x="199.6" y="-39.0576" font-family="Times New Roman,serif" font-size="14.00">t</text>
</g>
<!-- 4 -->
<g id="node6" class="node"><title>4</title>
<ellipse fill="none" stroke="black" cx="316.6" cy="-35.2576" rx="18" ry="18"/>
<text text-anchor="middle" x="316.6" y="-31.5576" font-family="Times New Roman,serif" font-size="14.00">4</text>
</g>
<!-- 3&#45;&gt;4 -->
<g id="edge4" class="edge"><title>3&#45;&gt;4</title>
<path fill="none" stroke="black" d="M255.689,-35.2576C265.259,-35.2576 277.417,-35.2576 288.277,-35.2576"/>
<polygon fill="black" stroke="black" points="288.559,-38.7577 298.559,-35.2576 288.559,-31.7577 288.559,-38.7577"/>
<text text-anchor="middle" x="277.1" y="-39.0576" font-family="Times New Roman,serif" font-size="14.00">ε</text>
</g>
<!-- 5 -->
<g id="node7" class="node"><title>5</title>
<ellipse fill="none" stroke="black" cx="395.6" cy="-35.2576" rx="18" ry="18"/>
<text text-anchor="middle" x="395.6" y="-31.5576" font-family="Times New Roman,serif" font-size="14.00">5</text>
</g>
<!-- 4&#45;&gt;5 -->
<g id="edge3" class="edge"><title>4&#45;&gt;5</title>
<path fill="none" stroke="black" d="M334.689,-35.2576C344.259,-35.2576 356.417,-35.2576 367.277,-35.2576"/>
<polygon fill="black" stroke="black" points="367.559,-38.7577 377.559,-35.2576 367.559,-31.7577 367.559,-38.7577"/>
<text text-anchor="middle" x="356.1" y="-39.0576" font-family="Times New Roman,serif" font-size="14.00">n</text>
</g>
<!-- 5&#45;&gt;1 -->
<g id="edge8" class="edge"><title>5&#45;&gt;1</title>
<path fill="none" stroke="black" d="M412.992,-40.7215C423.032,-44.0681 436.179,-48.4508 447.992,-52.3883"/>
<polygon fill="black" stroke="black" points="446.909,-55.7166 457.503,-55.5585 449.123,-49.0758 446.909,-55.7166"/>
<text text-anchor="middle" x="435.1" y="-52.0576" font-family="Times New Roman,serif" font-size="14.00">ε</text>
</g>
<!-- 5&#45;&gt;2 -->
<g id="edge7" class="edge"><title>5&#45;&gt;2</title>
<path fill="none" stroke="black" d="M379.431,-26.2578C367.657,-19.821 350.683,-11.7095 334.6,-8.25761 284.627,2.46832 269.466,2.95555 219.6,-8.25761 208.104,-10.8427 196.201,-16.0252 186.265,-21.1648"/>
<polygon fill="black" stroke="black" points="184.519,-18.1301 177.418,-25.993 187.873,-24.2745 184.519,-18.1301"/>
<text text-anchor="middle" x="277.1" y="-4.05761" font-family="Times New Roman,serif" font-size="14.00">ε</text>
</g>
</g>
</svg>
