<?xml version="1.0" encoding="UTF-8" standalone="no"?>
<!DOCTYPE svg PUBLIC "-//W3C//DTD SVG 1.1//EN"
 "http://www.w3.org/Graphics/SVG/1.1/DTD/svg11.dtd">
<!-- Generated by graphviz version 2.38.0 (20140413.2041)
 -->
<!-- Title: dfa Pages: 1 -->
<svg width="283pt" height="81pt"
 viewBox="0.00 0.00 282.60 81.00" xmlns="http://www.w3.org/2000/svg" xmlns:xlink="http://www.w3.org/1999/xlink">
<g id="graph0" class="graph" transform="scale(1 1) rotate(0) translate(4 77)">
<title>dfa</title>
<polygon fill="white" stroke="none" points="-4,4 -4,-77 278.6,-77 278.6,4 -4,4"/>
<!-- __start -->
<!-- 0 -->
<g id="node2" class="node"><title>0</title>
<ellipse fill="none" stroke="black" cx="86.6" cy="-22" rx="18" ry="18"/>
<ellipse fill="none" stroke="black" cx="86.6" cy="-22" rx="22" ry="22"/>
<text text-anchor="middle" x="86.6" y="-18.3" font-family="Times New Roman,serif" font-size="14.00">0</text>
</g>
<!-- __start&#45;&gt;0 -->
<g id="edge1" class="edge"><title>__start&#45;&gt;0</title>
<path fill="none" stroke="black" d="M3.72988,-22C8.77597,-22 33.4162,-22 54.3593,-22"/>
<polygon fill="black" stroke="black" points="54.5455,-25.5001 64.5454,-22 54.5454,-18.5001 54.5455,-25.5001"/>
<text text-anchor="middle" x="34.1" y="-25.8" font-family="Times New Roman,serif" font-size="14.00">start</text>
</g>
<!-- 1 -->
<g id="node3" class="node"><title>1</title>
<ellipse fill="none" stroke="black" cx="173.6" cy="-22" rx="18" ry="18"/>
<ellipse fill="none" stroke="black" cx="173.6" cy="-22" rx="22" ry="22"/>
<text text-anchor="middle" x="173.6" y="-18.3" font-family="Times New Roman,serif" font-size="14.00">1</text>
</g>
<!-- 0&#45;&gt;1 -->
<g id="edge2" class="edge"><title>0&#45;&gt;1</title>
<path fill="none" stroke="black" d="M108.611,-22C118.521,-22 130.547,-22 141.485,-22"/>
<polygon fill="black" stroke="black" points="141.536,-25.5001 151.536,-22 141.536,-18.5001 141.536,-25.5001"/>
<text text-anchor="middle" x="130.1" y="-25.8" font-family="Times New Roman,serif" font-size="14.00">k</text>
</g>
<!-- 2 -->
<g id="node4" class="node"><title>2</title>
<ellipse fill="none" stroke="black" cx="256.6" cy="-22" rx="18" ry="18"/>
<text text-anchor="middle" x="256.6" y="-18.3" font-family="Times New Roman,serif" font-size="14.00">2</text>
</g>
<!-- 1&#45;&gt;2 -->
<g id="edge3" class="edge"><title>1&#45;&gt;2</title>
<path fill="none" stroke="black" d="M195.882,-22C205.866,-22 217.878,-22 228.503,-22"/>
<polygon fill="black" stroke="black" points="228.54,-25.5001 238.539,-22 228.539,-18.5001 228.54,-25.5001"/>
<text text-anchor="middle" x="217.1" y="-25.8" font-family="Times New Roman,serif" font-size="14.00">k</text>
</g>
<!-- 2&#45;&gt;2 -->
<g id="edge4" class="edge"><title>2&#45;&gt;2</title>
<path fill="none" stroke="black" d="M249.866,-39.0373C248.492,-48.8579 250.737,-58 256.6,-58 260.265,-58 262.516,-54.4289 263.353,-49.3529"/>
<polygon fill="black" stroke="black" points="266.852,-49.0307 263.334,-39.0373 259.852,-49.0439 266.852,-49.0307"/>
<text text-anchor="middle" x="256.6" y="-61.8" font-family="Times New Roman,serif" font-size="14.00">k</text>
</g>
</g>
</svg>
