<?xml version="1.0" encoding="UTF-8" standalone="no"?>
<!DOCTYPE svg PUBLIC "-//W3C//DTD SVG 1.1//EN"
 "http://www.w3.org/Graphics/SVG/1.1/DTD/svg11.dtd">
<!-- Generated by graphviz version 2.38.0 (20140413.2041)
 -->
<!-- Title: enfa Pages: 1 -->
<svg width="354pt" height="98pt"
 viewBox="0.00 0.00 353.60 98.00" xmlns="http://www.w3.org/2000/svg" xmlns:xlink="http://www.w3.org/1999/xlink">
<g id="graph0" class="graph" transform="scale(1 1) rotate(0) translate(4 94)">
<title>enfa</title>
<polygon fill="white" stroke="none" points="-4,4 -4,-94 349.6,-94 349.6,4 -4,4"/>
<!-- __start -->
<!-- 0 -->
<g id="node2" class="node"><title>0</title>
<ellipse fill="none" stroke="black" cx="82.6" cy="-47" rx="18" ry="18"/>
<text text-anchor="middle" x="82.6" y="-43.3" font-family="Times New Roman,serif" font-size="14.00">0</text>
</g>
<!-- __start&#45;&gt;0 -->
<g id="edge1" class="edge"><title>__start&#45;&gt;0</title>
<path fill="none" stroke="black" d="M3.68496,-47C8.69573,-47 34.008,-47 54.4423,-47"/>
<polygon fill="black" stroke="black" points="54.5501,-50.5001 64.5501,-47 54.5501,-43.5001 54.5501,-50.5001"/>
<text text-anchor="middle" x="34.1" y="-50.8" font-family="Times New Roman,serif" font-size="14.00">start</text>
</g>
<!-- 2 -->
<g id="node4" class="node"><title>2</title>
<ellipse fill="none" stroke="black" cx="161.6" cy="-72" rx="18" ry="18"/>
<text text-anchor="middle" x="161.6" y="-68.3" font-family="Times New Roman,serif" font-size="14.00">2</text>
</g>
<!-- 0&#45;&gt;2 -->
<g id="edge4" class="edge"><title>0&#45;&gt;2</title>
<path fill="none" stroke="black" d="M99.9297,-52.3019C110.036,-55.5832 123.235,-59.8685 134.74,-63.6038"/>
<polygon fill="black" stroke="black" points="133.702,-66.9466 144.294,-66.7058 135.863,-60.2887 133.702,-66.9466"/>
<text text-anchor="middle" x="122.1" y="-63.8" font-family="Times New Roman,serif" font-size="14.00">ε</text>
</g>
<!-- 4 -->
<g id="node6" class="node"><title>4</title>
<ellipse fill="none" stroke="black" cx="161.6" cy="-18" rx="18" ry="18"/>
<text text-anchor="middle" x="161.6" y="-14.3" font-family="Times New Roman,serif" font-size="14.00">4</text>
</g>
<!-- 0&#45;&gt;4 -->
<g id="edge5" class="edge"><title>0&#45;&gt;4</title>
<path fill="none" stroke="black" d="M99.9297,-40.8498C110.105,-37.0177 123.414,-32.0053 134.973,-27.6518"/>
<polygon fill="black" stroke="black" points="136.433,-30.8419 144.558,-24.0418 133.966,-24.2911 136.433,-30.8419"/>
<text text-anchor="middle" x="122.1" y="-36.8" font-family="Times New Roman,serif" font-size="14.00">ε</text>
</g>
<!-- 1 -->
<g id="node3" class="node"><title>1</title>
<ellipse fill="none" stroke="black" cx="323.6" cy="-47" rx="18" ry="18"/>
<ellipse fill="none" stroke="black" cx="323.6" cy="-47" rx="22" ry="22"/>
<text text-anchor="middle" x="323.6" y="-43.3" font-family="Times New Roman,serif" font-size="14.00">1</text>
</g>
<!-- 3 -->
<g id="node5" class="node"><title>3</title>
<ellipse fill="none" stroke="black" cx="240.6" cy="-72" rx="18" ry="18"/>
<text text-anchor="middle" x="240.6" y="-68.3" font-family="Times New Roman,serif" font-size="14.00">3</text>
</g>
<!-- 2&#45;&gt;3 -->
<g id="edge2" class="edge"><title>2&#45;&gt;3</title>
<path fill="none" stroke="black" d="M179.689,-72C189.259,-72 201.417,-72 212.277,-72"/>
<polygon fill="black" stroke="black" points="212.559,-75.5001 222.559,-72 212.559,-68.5001 212.559,-75.5001"/>
<text text-anchor="middle" x="201.1" y="-75.8" font-family="Times New Roman,serif" font-size="14.00">k</text>
</g>
<!-- 3&#45;&gt;1 -->
<g id="edge6" class="edge"><title>3&#45;&gt;1</title>
<path fill="none" stroke="black" d="M257.992,-66.9409C267.86,-63.8952 280.73,-59.9228 292.384,-56.3259"/>
<polygon fill="black" stroke="black" points="293.683,-59.588 302.206,-53.2944 291.619,-52.8993 293.683,-59.588"/>
<text text-anchor="middle" x="280.1" y="-63.8" font-family="Times New Roman,serif" font-size="14.00">ε</text>
</g>
<!-- 5 -->
<g id="node7" class="node"><title>5</title>
<ellipse fill="none" stroke="black" cx="240.6" cy="-18" rx="18" ry="18"/>
<text text-anchor="middle" x="240.6" y="-14.3" font-family="Times New Roman,serif" font-size="14.00">5</text>
</g>
<!-- 4&#45;&gt;5 -->
<g id="edge3" class="edge"><title>4&#45;&gt;5</title>
<path fill="none" stroke="black" d="M179.689,-18C189.259,-18 201.417,-18 212.277,-18"/>
<polygon fill="black" stroke="black" points="212.559,-21.5001 222.559,-18 212.559,-14.5001 212.559,-21.5001"/>
<text text-anchor="middle" x="201.1" y="-21.8" font-family="Times New Roman,serif" font-size="14.00">ε</text>
</g>
<!-- 5&#45;&gt;1 -->
<g id="edge7" class="edge"><title>5&#45;&gt;1</title>
<path fill="none" stroke="black" d="M257.992,-23.8686C268.032,-27.4632 281.179,-32.1704 292.992,-36.3996"/>
<polygon fill="black" stroke="black" points="291.908,-39.7291 302.503,-39.8047 294.268,-33.1387 291.908,-39.7291"/>
<text text-anchor="middle" x="280.1" y="-35.8" font-family="Times New Roman,serif" font-size="14.00">ε</text>
</g>
</g>
</svg>
