<?xml version="1.0" encoding="UTF-8" standalone="no"?>
<!DOCTYPE svg PUBLIC "-//W3C//DTD SVG 1.1//EN"
 "http://www.w3.org/Graphics/SVG/1.1/DTD/svg11.dtd">
<!-- Generated by graphviz version 2.38.0 (20140413.2041)
 -->
<!-- Title: dfa Pages: 1 -->
<svg width="377pt" height="119pt"
 viewBox="0.00 0.00 377.38 118.69" xmlns="http://www.w3.org/2000/svg" xmlns:xlink="http://www.w3.org/1999/xlink">
<g id="graph0" class="graph" transform="scale(1 1) rotate(0) translate(4 114.691)">
<title>dfa</title>
<polygon fill="white" stroke="none" points="-4,4 -4,-114.691 373.382,-114.691 373.382,4 -4,4"/>
<!-- __start -->
<!-- {0,1,2,4,5} -->
<g id="node2" class="node"><title>{0,1,2,4,5}</title>
<ellipse fill="none" stroke="black" cx="119.945" cy="-55.3454" rx="51.2025" ry="51.2025"/>
<ellipse fill="none" stroke="black" cx="119.945" cy="-55.3454" rx="55.1913" ry="55.1913"/>
<text text-anchor="middle" x="119.945" y="-51.6454" font-family="Times New Roman,serif" font-size="14.00">{0,1,2,4,5}</text>
</g>
<!-- __start&#45;&gt;{0,1,2,4,5} -->
<g id="edge1" class="edge"><title>__start&#45;&gt;{0,1,2,4,5}</title>
<path fill="none" stroke="black" d="M4.10437,-55.3454C9.53174,-55.3454 31.1184,-55.3454 54.1362,-55.3454"/>
<polygon fill="black" stroke="black" points="54.4011,-58.8455 64.4011,-55.3454 54.4011,-51.8455 54.4011,-58.8455"/>
<text text-anchor="middle" x="34.1" y="-59.1454" font-family="Times New Roman,serif" font-size="14.00">start</text>
</g>
<!-- {1,3} -->
<g id="node3" class="node"><title>{1,3}</title>
<ellipse fill="none" stroke="black" cx="252.838" cy="-55.3454" rx="30.5892" ry="30.5892"/>
<ellipse fill="none" stroke="black" cx="252.838" cy="-55.3454" rx="34.5946" ry="34.5946"/>
<text text-anchor="middle" x="252.838" y="-51.6454" font-family="Times New Roman,serif" font-size="14.00">{1,3}</text>
</g>
<!-- {0,1,2,4,5}&#45;&gt;{1,3} -->
<g id="edge2" class="edge"><title>{0,1,2,4,5}&#45;&gt;{1,3}</title>
<path fill="none" stroke="black" d="M175.319,-55.3454C186.171,-55.3454 197.441,-55.3454 207.889,-55.3454"/>
<polygon fill="black" stroke="black" points="208.017,-58.8455 218.017,-55.3454 208.017,-51.8455 208.017,-58.8455"/>
<text text-anchor="middle" x="196.791" y="-59.1454" font-family="Times New Roman,serif" font-size="14.00">k</text>
</g>
<!-- {} -->
<g id="node4" class="node"><title>{}</title>
<ellipse fill="none" stroke="black" cx="349.884" cy="-55.3454" rx="19.4965" ry="19.4965"/>
<text text-anchor="middle" x="349.884" y="-51.6454" font-family="Times New Roman,serif" font-size="14.00">{}</text>
</g>
<!-- {1,3}&#45;&gt;{} -->
<g id="edge3" class="edge"><title>{1,3}&#45;&gt;{}</title>
<path fill="none" stroke="black" d="M287.615,-55.3454C298.228,-55.3454 309.842,-55.3454 320.077,-55.3454"/>
<polygon fill="black" stroke="black" points="320.145,-58.8455 330.145,-55.3454 320.145,-51.8455 320.145,-58.8455"/>
<text text-anchor="middle" x="308.885" y="-59.1454" font-family="Times New Roman,serif" font-size="14.00">k</text>
</g>
<!-- {}&#45;&gt;{} -->
<g id="edge4" class="edge"><title>{}&#45;&gt;{}</title>
<path fill="none" stroke="black" d="M342.693,-73.8672C341.471,-83.7972 343.868,-92.8437 349.884,-92.8437 353.644,-92.8437 355.99,-89.3099 356.922,-84.2353"/>
<polygon fill="black" stroke="black" points="360.427,-83.9175 357.074,-73.8672 353.428,-83.8148 360.427,-83.9175"/>
<text text-anchor="middle" x="349.884" y="-96.6437" font-family="Times New Roman,serif" font-size="14.00">k</text>
</g>
</g>
</svg>
