<?xml version="1.0" encoding="UTF-8" standalone="no"?>
<!DOCTYPE svg PUBLIC "-//W3C//DTD SVG 1.1//EN"
 "http://www.w3.org/Graphics/SVG/1.1/DTD/svg11.dtd">
<!-- Generated by graphviz version 2.38.0 (20140413.2041)
 -->
<!-- Title: dfa Pages: 1 -->
<svg width="197pt" height="182pt"
 viewBox="0.00 0.00 196.60 181.54" xmlns="http://www.w3.org/2000/svg" xmlns:xlink="http://www.w3.org/1999/xlink">
<g id="graph0" class="graph" transform="scale(1 1) rotate(0) translate(4 177.543)">
<title>dfa</title>
<polygon fill="white" stroke="none" points="-4,4 -4,-177.543 192.6,-177.543 192.6,4 -4,4"/>
<!-- __start -->
<!-- 0 -->
<g id="node2" class="node"><title>0</title>
<ellipse fill="none" stroke="black" cx="82.6" cy="-61.5434" rx="18" ry="18"/>
<text text-anchor="middle" x="82.6" y="-57.8434" font-family="Times New Roman,serif" font-size="14.00">0</text>
</g>
<!-- __start&#45;&gt;0 -->
<g id="edge1" class="edge"><title>__start&#45;&gt;0</title>
<path fill="none" stroke="black" d="M3.68496,-61.5434C8.69573,-61.5434 34.008,-61.5434 54.4423,-61.5434"/>
<polygon fill="black" stroke="black" points="54.5501,-65.0435 64.5501,-61.5434 54.5501,-58.0435 54.5501,-65.0435"/>
<text text-anchor="middle" x="34.1" y="-65.3434" font-family="Times New Roman,serif" font-size="14.00">start</text>
</g>
<!-- 1 -->
<g id="node3" class="node"><title>1</title>
<ellipse fill="none" stroke="black" cx="166.6" cy="-118.543" rx="18" ry="18"/>
<ellipse fill="none" stroke="black" cx="166.6" cy="-118.543" rx="22" ry="22"/>
<text text-anchor="middle" x="166.6" y="-114.843" font-family="Times New Roman,serif" font-size="14.00">1</text>
</g>
<!-- 0&#45;&gt;1 -->
<g id="edge6" class="edge"><title>0&#45;&gt;1</title>
<path fill="none" stroke="black" d="M91.5203,-77.4647C97.5341,-87.8994 106.781,-100.965 118.6,-108.543 123.34,-111.583 128.848,-113.715 134.39,-115.206"/>
<polygon fill="black" stroke="black" points="133.738,-118.646 144.242,-117.257 135.165,-111.793 133.738,-118.646"/>
<text text-anchor="middle" x="122.6" y="-115.343" font-family="Times New Roman,serif" font-size="14.00">n</text>
</g>
<!-- 2 -->
<g id="node4" class="node"><title>2</title>
<ellipse fill="none" stroke="black" cx="166.6" cy="-23.5434" rx="18" ry="18"/>
<ellipse fill="none" stroke="black" cx="166.6" cy="-23.5434" rx="22" ry="22"/>
<text text-anchor="middle" x="166.6" y="-19.8434" font-family="Times New Roman,serif" font-size="14.00">2</text>
</g>
<!-- 0&#45;&gt;2 -->
<g id="edge7" class="edge"><title>0&#45;&gt;2</title>
<path fill="none" stroke="black" d="M99.4104,-54.2166C110.091,-49.2669 124.496,-42.5917 137.14,-36.7323"/>
<polygon fill="black" stroke="black" points="138.773,-39.8329 146.375,-32.4527 135.83,-33.4817 138.773,-39.8329"/>
<text text-anchor="middle" x="122.6" y="-48.3434" font-family="Times New Roman,serif" font-size="14.00">p</text>
</g>
<!-- 1&#45;&gt;0 -->
<g id="edge3" class="edge"><title>1&#45;&gt;0</title>
<path fill="none" stroke="black" d="M148.059,-106.35C135.897,-97.8959 119.583,-86.5559 106.411,-77.3997"/>
<polygon fill="black" stroke="black" points="108.092,-74.3059 97.8833,-71.472 104.097,-80.0536 108.092,-74.3059"/>
<text text-anchor="middle" x="122.6" y="-93.3434" font-family="Times New Roman,serif" font-size="14.00">p</text>
</g>
<!-- 1&#45;&gt;1 -->
<g id="edge2" class="edge"><title>1&#45;&gt;1</title>
<path fill="none" stroke="black" d="M158.594,-139.124C157.486,-149.388 160.155,-158.543 166.6,-158.543 170.729,-158.543 173.308,-154.786 174.337,-149.387"/>
<polygon fill="black" stroke="black" points="177.843,-149.212 174.606,-139.124 170.845,-149.029 177.843,-149.212"/>
<text text-anchor="middle" x="166.6" y="-162.343" font-family="Times New Roman,serif" font-size="14.00">n</text>
</g>
<!-- 2&#45;&gt;0 -->
<g id="edge4" class="edge"><title>2&#45;&gt;0</title>
<path fill="none" stroke="black" d="M144.717,-20.5782C136.282,-20.2355 126.658,-20.9715 118.6,-24.5434 111.375,-27.7457 104.929,-33.2218 99.5984,-38.9937"/>
<polygon fill="black" stroke="black" points="96.7574,-36.9361 93.0526,-46.8621 102.139,-41.4129 96.7574,-36.9361"/>
<text text-anchor="middle" x="122.6" y="-28.3434" font-family="Times New Roman,serif" font-size="14.00">n</text>
</g>
<!-- 2&#45;&gt;0 -->
<g id="edge5" class="edge"><title>2&#45;&gt;0</title>
<path fill="none" stroke="black" d="M149.988,-9.11093C140.658,-2.29894 128.696,3.20624 118.6,-2.54335 106.269,-9.56575 97.8347,-22.8319 92.3409,-35.0086"/>
<polygon fill="black" stroke="black" points="89.0474,-33.8174 88.5471,-44.4005 95.5378,-36.4393 89.0474,-33.8174"/>
<text text-anchor="middle" x="122.6" y="-6.34335" font-family="Times New Roman,serif" font-size="14.00">p</text>
</g>
</g>
</svg>
