<?xml version="1.0" encoding="UTF-8" standalone="no"?>
<!DOCTYPE svg PUBLIC "-//W3C//DTD SVG 1.1//EN"
 "http://www.w3.org/Graphics/SVG/1.1/DTD/svg11.dtd">
<!-- Generated by graphviz version 2.38.0 (20140413.2041)
 -->
<!-- Title: dfa Pages: 1 -->
<svg width="301pt" height="78pt"
 viewBox="0.00 0.00 300.60 78.00" xmlns="http://www.w3.org/2000/svg" xmlns:xlink="http://www.w3.org/1999/xlink">
<g id="graph0" class="graph" transform="scale(1 1) rotate(0) translate(4 74)">
<title>dfa</title>
<polygon fill="white" stroke="none" points="-4,4 -4,-74 296.6,-74 296.6,4 -4,4"/>
<!-- __start -->
<!-- 0 -->
<g id="node2" class="node"><title>0</title>
<ellipse fill="none" stroke="black" cx="91.6" cy="-18" rx="27" ry="18"/>
<text text-anchor="middle" x="91.6" y="-14.3" font-family="Times New Roman,serif" font-size="14.00">0</text>
</g>
<!-- __start&#45;&gt;0 -->
<g id="edge1" class="edge"><title>__start&#45;&gt;0</title>
<path fill="none" stroke="black" d="M3.78604,-18C8.86985,-18 32.7092,-18 54.1222,-18"/>
<polygon fill="black" stroke="black" points="54.3463,-21.5001 64.3463,-18 54.3463,-14.5001 54.3463,-21.5001"/>
<text text-anchor="middle" x="34.1" y="-21.8" font-family="Times New Roman,serif" font-size="14.00">start</text>
</g>
<!-- 0&#45;&gt;0 -->
<g id="edge4" class="edge"><title>0&#45;&gt;0</title>
<path fill="none" stroke="black" d="M82.74,-35.0373C80.9318,-44.8579 83.8852,-54 91.6,-54 96.4218,-54 99.3836,-50.4289 100.485,-45.3529"/>
<polygon fill="black" stroke="black" points="103.985,-45.0286 100.46,-35.0373 96.9848,-45.0459 103.985,-45.0286"/>
<text text-anchor="middle" x="91.6" y="-57.8" font-family="Times New Roman,serif" font-size="14.00">o</text>
</g>
<!-- 1 -->
<g id="node3" class="node"><title>1</title>
<ellipse fill="none" stroke="black" cx="187.6" cy="-48" rx="18" ry="18"/>
<ellipse fill="none" stroke="black" cx="187.6" cy="-48" rx="22" ry="22"/>
<text text-anchor="middle" x="187.6" y="-44.3" font-family="Times New Roman,serif" font-size="14.00">1</text>
</g>
<!-- 0&#45;&gt;1 -->
<g id="edge5" class="edge"><title>0&#45;&gt;1</title>
<path fill="none" stroke="black" d="M115.324,-26.635C122.129,-29.1203 129.635,-31.7622 136.6,-34 142.908,-36.0268 149.715,-38.0438 156.215,-39.8896"/>
<polygon fill="black" stroke="black" points="155.489,-43.3203 166.061,-42.626 157.363,-36.5759 155.489,-43.3203"/>
<text text-anchor="middle" x="142.1" y="-40.8" font-family="Times New Roman,serif" font-size="14.00">m</text>
</g>
<!-- 1&#45;&gt;0 -->
<g id="edge2" class="edge"><title>1&#45;&gt;0</title>
<path fill="none" stroke="black" d="M171.215,-33.0795C164.513,-27.5635 156.224,-21.9424 147.6,-19 141.55,-16.9359 134.903,-15.8828 128.386,-15.4532"/>
<polygon fill="black" stroke="black" points="128.428,-11.9534 118.355,-15.2356 128.276,-18.9517 128.428,-11.9534"/>
<text text-anchor="middle" x="142.1" y="-22.8" font-family="Times New Roman,serif" font-size="14.00">o</text>
</g>
<!-- 2 -->
<g id="node4" class="node"><title>2</title>
<ellipse fill="none" stroke="black" cx="274.6" cy="-18" rx="18" ry="18"/>
<text text-anchor="middle" x="274.6" y="-14.3" font-family="Times New Roman,serif" font-size="14.00">2</text>
</g>
<!-- 1&#45;&gt;2 -->
<g id="edge3" class="edge"><title>1&#45;&gt;2</title>
<path fill="none" stroke="black" d="M209.264,-42.9885C218.364,-40.5839 229.119,-37.4704 238.6,-34 241.964,-32.7685 245.455,-31.3508 248.872,-29.8791"/>
<polygon fill="black" stroke="black" points="250.462,-33.0014 258.137,-25.6976 247.582,-26.621 250.462,-33.0014"/>
<text text-anchor="middle" x="233.1" y="-40.8" font-family="Times New Roman,serif" font-size="14.00">m</text>
</g>
<!-- 2&#45;&gt;0 -->
<g id="edge6" class="edge"><title>2&#45;&gt;0</title>
<path fill="none" stroke="black" d="M257.255,-12.5382C244.459,-8.59958 226.121,-3.69112 209.6,-2 190.146,-0.0086154 185.042,0.105624 165.6,-2 152.701,-3.39701 138.74,-6.14401 126.516,-8.97316"/>
<polygon fill="black" stroke="black" points="125.615,-5.59003 116.717,-11.3411 127.259,-12.3942 125.615,-5.59003"/>
<text text-anchor="middle" x="187.6" y="-5.8" font-family="Times New Roman,serif" font-size="14.00">o</text>
</g>
<!-- 2&#45;&gt;1 -->
<g id="edge7" class="edge"><title>2&#45;&gt;1</title>
<path fill="none" stroke="black" d="M256.955,-13.7072C248.002,-12.1838 236.918,-11.5866 227.6,-15 221.479,-17.2423 215.658,-20.9173 210.469,-25.0174"/>
<polygon fill="black" stroke="black" points="208.097,-22.4423 202.883,-31.6657 212.711,-27.7066 208.097,-22.4423"/>
<text text-anchor="middle" x="233.1" y="-18.8" font-family="Times New Roman,serif" font-size="14.00">m</text>
</g>
</g>
</svg>
