<?xml version="1.0" encoding="UTF-8" standalone="no"?>
<!DOCTYPE svg PUBLIC "-//W3C//DTD SVG 1.1//EN"
 "http://www.w3.org/Graphics/SVG/1.1/DTD/svg11.dtd">
<!-- Generated by graphviz version 2.38.0 (20140413.2041)
 -->
<!-- Title: dfa Pages: 1 -->
<svg width="283pt" height="78pt"
 viewBox="0.00 0.00 282.60 78.43" xmlns="http://www.w3.org/2000/svg" xmlns:xlink="http://www.w3.org/1999/xlink">
<g id="graph0" class="graph" transform="scale(1 1) rotate(0) translate(4 74.4325)">
<title>dfa</title>
<polygon fill="white" stroke="none" points="-4,4 -4,-74.4325 278.6,-74.4325 278.6,4 -4,4"/>
<!-- __start -->
<!-- 0 -->
<g id="node2" class="node"><title>0</title>
<ellipse fill="none" stroke="black" cx="82.6" cy="-18.4325" rx="18" ry="18"/>
<text text-anchor="middle" x="82.6" y="-14.7325" font-family="Times New Roman,serif" font-size="14.00">0</text>
</g>
<!-- __start&#45;&gt;0 -->
<g id="edge1" class="edge"><title>__start&#45;&gt;0</title>
<path fill="none" stroke="black" d="M3.68496,-18.4325C8.69573,-18.4325 34.008,-18.4325 54.4423,-18.4325"/>
<polygon fill="black" stroke="black" points="54.5501,-21.9326 64.5501,-18.4325 54.5501,-14.9326 54.5501,-21.9326"/>
<text text-anchor="middle" x="34.1" y="-22.2325" font-family="Times New Roman,serif" font-size="14.00">start</text>
</g>
<!-- 0&#45;&gt;0 -->
<g id="edge4" class="edge"><title>0&#45;&gt;0</title>
<path fill="none" stroke="black" d="M75.5688,-35.0965C74.0063,-45.0575 76.35,-54.4325 82.6,-54.4325 86.6039,-54.4325 89.0047,-50.585 89.8023,-45.2007"/>
<polygon fill="black" stroke="black" points="93.3001,-45.0358 89.6313,-35.0965 86.3011,-45.1544 93.3001,-45.0358"/>
<text text-anchor="middle" x="82.6" y="-58.2325" font-family="Times New Roman,serif" font-size="14.00">o</text>
</g>
<!-- 1 -->
<g id="node3" class="node"><title>1</title>
<ellipse fill="none" stroke="black" cx="169.6" cy="-48.4325" rx="18" ry="18"/>
<ellipse fill="none" stroke="black" cx="169.6" cy="-48.4325" rx="22" ry="22"/>
<text text-anchor="middle" x="169.6" y="-44.7325" font-family="Times New Roman,serif" font-size="14.00">1</text>
</g>
<!-- 0&#45;&gt;1 -->
<g id="edge5" class="edge"><title>0&#45;&gt;1</title>
<path fill="none" stroke="black" d="M99.0632,-26.13C105.075,-28.9556 112.075,-32.044 118.6,-34.4325 124.822,-36.7099 131.593,-38.8337 138.084,-40.7042"/>
<polygon fill="black" stroke="black" points="137.366,-44.1367 147.936,-43.421 139.227,-37.3885 137.366,-44.1367"/>
<text text-anchor="middle" x="124.1" y="-41.2325" font-family="Times New Roman,serif" font-size="14.00">m</text>
</g>
<!-- 1&#45;&gt;0 -->
<g id="edge2" class="edge"><title>1&#45;&gt;0</title>
<path fill="none" stroke="black" d="M153.209,-33.5273C146.507,-28.0137 138.219,-22.3902 129.6,-19.4325 123.695,-17.4061 117.108,-16.5238 110.806,-16.2759"/>
<polygon fill="black" stroke="black" points="110.607,-12.7775 100.639,-16.3677 110.671,-19.7772 110.607,-12.7775"/>
<text text-anchor="middle" x="124.1" y="-23.2325" font-family="Times New Roman,serif" font-size="14.00">o</text>
</g>
<!-- 2 -->
<g id="node4" class="node"><title>2</title>
<ellipse fill="none" stroke="black" cx="256.6" cy="-18.4325" rx="18" ry="18"/>
<text text-anchor="middle" x="256.6" y="-14.7325" font-family="Times New Roman,serif" font-size="14.00">2</text>
</g>
<!-- 1&#45;&gt;2 -->
<g id="edge3" class="edge"><title>1&#45;&gt;2</title>
<path fill="none" stroke="black" d="M191.264,-43.421C200.364,-41.0164 211.119,-37.9029 220.6,-34.4325 223.964,-33.2009 227.455,-31.7833 230.872,-30.3115"/>
<polygon fill="black" stroke="black" points="232.462,-33.4338 240.137,-26.13 229.582,-27.0535 232.462,-33.4338"/>
<text text-anchor="middle" x="215.1" y="-41.2325" font-family="Times New Roman,serif" font-size="14.00">m</text>
</g>
<!-- 2&#45;&gt;0 -->
<g id="edge6" class="edge"><title>2&#45;&gt;0</title>
<path fill="none" stroke="black" d="M239.286,-13.4994C233.42,-11.7978 226.737,-9.94174 220.6,-8.43246 188.988,-0.657688 179.91,1.54507 147.6,-2.43246 134.981,-3.98598 121.27,-7.20103 109.789,-10.3444"/>
<polygon fill="black" stroke="black" points="108.614,-7.04018 99.9662,-13.1613 110.544,-13.769 108.614,-7.04018"/>
<text text-anchor="middle" x="169.6" y="-6.23246" font-family="Times New Roman,serif" font-size="14.00">o</text>
</g>
<!-- 2&#45;&gt;1 -->
<g id="edge7" class="edge"><title>2&#45;&gt;1</title>
<path fill="none" stroke="black" d="M238.955,-14.1396C230.002,-12.6163 218.918,-12.0191 209.6,-15.4325 203.479,-17.6747 197.658,-21.3497 192.469,-25.4499"/>
<polygon fill="black" stroke="black" points="190.097,-22.8748 184.883,-32.0981 194.711,-28.1391 190.097,-22.8748"/>
<text text-anchor="middle" x="215.1" y="-19.2325" font-family="Times New Roman,serif" font-size="14.00">m</text>
</g>
</g>
</svg>
