<?xml version="1.0" encoding="UTF-8" standalone="no"?>
<!DOCTYPE svg PUBLIC "-//W3C//DTD SVG 1.1//EN"
 "http://www.w3.org/Graphics/SVG/1.1/DTD/svg11.dtd">
<!-- Generated by graphviz version 2.38.0 (20140413.2041)
 -->
<!-- Title: dfa Pages: 1 -->
<svg width="275pt" height="133pt"
 viewBox="0.00 0.00 274.60 132.55" xmlns="http://www.w3.org/2000/svg" xmlns:xlink="http://www.w3.org/1999/xlink">
<g id="graph0" class="graph" transform="scale(1 1) rotate(0) translate(4 128.55)">
<title>dfa</title>
<polygon fill="white" stroke="none" points="-4,4 -4,-128.55 270.6,-128.55 270.6,4 -4,4"/>
<!-- __start -->
<!-- 0 -->
<g id="node2" class="node"><title>0</title>
<ellipse fill="none" stroke="black" cx="82.6" cy="-45.5504" rx="18" ry="18"/>
<text text-anchor="middle" x="82.6" y="-41.8504" font-family="Times New Roman,serif" font-size="14.00">0</text>
</g>
<!-- __start&#45;&gt;0 -->
<g id="edge1" class="edge"><title>__start&#45;&gt;0</title>
<path fill="none" stroke="black" d="M3.68496,-45.5504C8.69573,-45.5504 34.008,-45.5504 54.4423,-45.5504"/>
<polygon fill="black" stroke="black" points="54.5501,-49.0505 64.5501,-45.5504 54.5501,-42.0505 54.5501,-49.0505"/>
<text text-anchor="middle" x="34.1" y="-49.3504" font-family="Times New Roman,serif" font-size="14.00">start</text>
</g>
<!-- 1 -->
<g id="node3" class="node"><title>1</title>
<ellipse fill="none" stroke="black" cx="244.6" cy="-45.5504" rx="18" ry="18"/>
<ellipse fill="none" stroke="black" cx="244.6" cy="-45.5504" rx="22" ry="22"/>
<text text-anchor="middle" x="244.6" y="-41.8504" font-family="Times New Roman,serif" font-size="14.00">1</text>
</g>
<!-- 0&#45;&gt;1 -->
<g id="edge6" class="edge"><title>0&#45;&gt;1</title>
<path fill="none" stroke="black" d="M93.2029,-60.4561C103.606,-75.0827 121.688,-96.4741 143.6,-105.55 158.382,-111.673 164.721,-111.434 179.6,-105.55 197.428,-98.5004 213.197,-83.8773 224.622,-70.8329"/>
<polygon fill="black" stroke="black" points="227.439,-72.9192 231.153,-62.9967 222.062,-68.4372 227.439,-72.9192"/>
<text text-anchor="middle" x="161.6" y="-113.35" font-family="Times New Roman,serif" font-size="14.00">e</text>
</g>
<!-- 2 -->
<g id="node4" class="node"><title>2</title>
<ellipse fill="none" stroke="black" cx="161.6" cy="-45.5504" rx="18" ry="18"/>
<text text-anchor="middle" x="161.6" y="-41.8504" font-family="Times New Roman,serif" font-size="14.00">2</text>
</g>
<!-- 0&#45;&gt;2 -->
<g id="edge7" class="edge"><title>0&#45;&gt;2</title>
<path fill="none" stroke="black" d="M100.689,-45.5504C110.259,-45.5504 122.417,-45.5504 133.277,-45.5504"/>
<polygon fill="black" stroke="black" points="133.559,-49.0505 143.559,-45.5504 133.559,-42.0505 133.559,-49.0505"/>
<text text-anchor="middle" x="122.1" y="-49.3504" font-family="Times New Roman,serif" font-size="14.00">x</text>
</g>
<!-- 1&#45;&gt;0 -->
<g id="edge3" class="edge"><title>1&#45;&gt;0</title>
<path fill="none" stroke="black" d="M227.586,-31.1964C215.396,-21.2852 197.682,-8.95366 179.6,-3.55037 164.27,1.03066 158.86,1.25986 143.6,-3.55037 128.911,-8.18059 114.69,-17.8316 103.783,-26.7158"/>
<polygon fill="black" stroke="black" points="101.455,-24.1017 96.1349,-33.2643 106.007,-29.4189 101.455,-24.1017"/>
<text text-anchor="middle" x="161.6" y="-7.35037" font-family="Times New Roman,serif" font-size="14.00">x</text>
</g>
<!-- 1&#45;&gt;1 -->
<g id="edge2" class="edge"><title>1&#45;&gt;1</title>
<path fill="none" stroke="black" d="M236.917,-66.5411C235.969,-76.6376 238.53,-85.5504 244.6,-85.5504 248.489,-85.5504 250.937,-81.8926 251.946,-76.609"/>
<polygon fill="black" stroke="black" points="255.446,-76.6527 252.283,-66.5411 248.45,-76.4184 255.446,-76.6527"/>
<text text-anchor="middle" x="244.6" y="-89.3504" font-family="Times New Roman,serif" font-size="14.00">e</text>
</g>
<!-- 2&#45;&gt;1 -->
<g id="edge4" class="edge"><title>2&#45;&gt;1</title>
<path fill="none" stroke="black" d="M179.778,-45.5504C189.21,-45.5504 201.201,-45.5504 212.237,-45.5504"/>
<polygon fill="black" stroke="black" points="212.411,-49.0505 222.411,-45.5504 212.411,-42.0505 212.411,-49.0505"/>
<text text-anchor="middle" x="201.1" y="-49.3504" font-family="Times New Roman,serif" font-size="14.00">e</text>
</g>
<!-- 2&#45;&gt;2 -->
<g id="edge5" class="edge"><title>2&#45;&gt;2</title>
<path fill="none" stroke="black" d="M154.866,-62.5877C153.492,-72.4083 155.737,-81.5504 161.6,-81.5504 165.265,-81.5504 167.516,-77.9792 168.353,-72.9033"/>
<polygon fill="black" stroke="black" points="171.852,-72.5811 168.334,-62.5877 164.852,-72.5943 171.852,-72.5811"/>
<text text-anchor="middle" x="161.6" y="-85.3504" font-family="Times New Roman,serif" font-size="14.00">x</text>
</g>
</g>
</svg>
