<?xml version="1.0" encoding="UTF-8" standalone="no"?>
<!DOCTYPE svg PUBLIC "-//W3C//DTD SVG 1.1//EN"
 "http://www.w3.org/Graphics/SVG/1.1/DTD/svg11.dtd">
<!-- Generated by graphviz version 2.38.0 (20140413.2041)
 -->
<!-- Title: dfa Pages: 1 -->
<svg width="293pt" height="132pt"
 viewBox="0.00 0.00 292.60 132.37" xmlns="http://www.w3.org/2000/svg" xmlns:xlink="http://www.w3.org/1999/xlink">
<g id="graph0" class="graph" transform="scale(1 1) rotate(0) translate(4 128.371)">
<title>dfa</title>
<polygon fill="white" stroke="none" points="-4,4 -4,-128.371 288.6,-128.371 288.6,4 -4,4"/>
<!-- __start -->
<!-- 0 -->
<g id="node2" class="node"><title>0</title>
<ellipse fill="none" stroke="black" cx="91.6" cy="-45.3705" rx="27" ry="18"/>
<text text-anchor="middle" x="91.6" y="-41.6705" font-family="Times New Roman,serif" font-size="14.00">0</text>
</g>
<!-- __start&#45;&gt;0 -->
<g id="edge1" class="edge"><title>__start&#45;&gt;0</title>
<path fill="none" stroke="black" d="M3.78604,-45.3705C8.86985,-45.3705 32.7092,-45.3705 54.1222,-45.3705"/>
<polygon fill="black" stroke="black" points="54.3463,-48.8706 64.3463,-45.3705 54.3463,-41.8706 54.3463,-48.8706"/>
<text text-anchor="middle" x="34.1" y="-49.1705" font-family="Times New Roman,serif" font-size="14.00">start</text>
</g>
<!-- 1 -->
<g id="node3" class="node"><title>1</title>
<ellipse fill="none" stroke="black" cx="262.6" cy="-45.3705" rx="18" ry="18"/>
<ellipse fill="none" stroke="black" cx="262.6" cy="-45.3705" rx="22" ry="22"/>
<text text-anchor="middle" x="262.6" y="-41.6705" font-family="Times New Roman,serif" font-size="14.00">1</text>
</g>
<!-- 0&#45;&gt;1 -->
<g id="edge6" class="edge"><title>0&#45;&gt;1</title>
<path fill="none" stroke="black" d="M104.865,-61.1542C117.33,-75.7887 138.107,-96.5847 161.6,-105.371 176.586,-110.975 182.721,-111.254 197.6,-105.371 215.428,-98.3205 231.197,-83.6974 242.622,-70.653"/>
<polygon fill="black" stroke="black" points="245.439,-72.7393 249.153,-62.8169 240.062,-68.2574 245.439,-72.7393"/>
<text text-anchor="middle" x="179.6" y="-113.171" font-family="Times New Roman,serif" font-size="14.00">e</text>
</g>
<!-- 2 -->
<g id="node4" class="node"><title>2</title>
<ellipse fill="none" stroke="black" cx="179.6" cy="-45.3705" rx="18" ry="18"/>
<text text-anchor="middle" x="179.6" y="-41.6705" font-family="Times New Roman,serif" font-size="14.00">2</text>
</g>
<!-- 0&#45;&gt;2 -->
<g id="edge7" class="edge"><title>0&#45;&gt;2</title>
<path fill="none" stroke="black" d="M118.87,-45.3705C129.135,-45.3705 140.908,-45.3705 151.272,-45.3705"/>
<polygon fill="black" stroke="black" points="151.442,-48.8706 161.442,-45.3705 151.442,-41.8706 151.442,-48.8706"/>
<text text-anchor="middle" x="140.1" y="-49.1705" font-family="Times New Roman,serif" font-size="14.00">x</text>
</g>
<!-- 1&#45;&gt;0 -->
<g id="edge3" class="edge"><title>1&#45;&gt;0</title>
<path fill="none" stroke="black" d="M245.586,-31.0166C233.396,-21.1053 215.682,-8.77381 197.6,-3.37052 182.27,1.21051 177.006,0.949499 161.6,-3.37052 145.845,-7.78855 130.118,-16.9042 117.666,-25.5175"/>
<polygon fill="black" stroke="black" points="115.274,-22.9281 109.224,-31.6261 119.378,-28.5991 115.274,-22.9281"/>
<text text-anchor="middle" x="179.6" y="-7.17052" font-family="Times New Roman,serif" font-size="14.00">x</text>
</g>
<!-- 1&#45;&gt;1 -->
<g id="edge2" class="edge"><title>1&#45;&gt;1</title>
<path fill="none" stroke="black" d="M254.917,-66.3613C253.969,-76.4578 256.53,-85.3705 262.6,-85.3705 266.489,-85.3705 268.937,-81.7127 269.946,-76.4292"/>
<polygon fill="black" stroke="black" points="273.446,-76.4728 270.283,-66.3613 266.45,-76.2385 273.446,-76.4728"/>
<text text-anchor="middle" x="262.6" y="-89.1705" font-family="Times New Roman,serif" font-size="14.00">e</text>
</g>
<!-- 2&#45;&gt;1 -->
<g id="edge4" class="edge"><title>2&#45;&gt;1</title>
<path fill="none" stroke="black" d="M197.778,-45.3705C207.21,-45.3705 219.201,-45.3705 230.237,-45.3705"/>
<polygon fill="black" stroke="black" points="230.411,-48.8706 240.411,-45.3705 230.411,-41.8706 230.411,-48.8706"/>
<text text-anchor="middle" x="219.1" y="-49.1705" font-family="Times New Roman,serif" font-size="14.00">e</text>
</g>
<!-- 2&#45;&gt;2 -->
<g id="edge5" class="edge"><title>2&#45;&gt;2</title>
<path fill="none" stroke="black" d="M172.866,-62.4078C171.492,-72.2284 173.737,-81.3705 179.6,-81.3705 183.265,-81.3705 185.516,-77.7994 186.353,-72.7234"/>
<polygon fill="black" stroke="black" points="189.852,-72.4012 186.334,-62.4078 182.852,-72.4144 189.852,-72.4012"/>
<text text-anchor="middle" x="179.6" y="-85.1705" font-family="Times New Roman,serif" font-size="14.00">x</text>
</g>
</g>
</svg>
