<?xml version="1.0" encoding="UTF-8" standalone="no"?>
<!DOCTYPE svg PUBLIC "-//W3C//DTD SVG 1.1//EN"
 "http://www.w3.org/Graphics/SVG/1.1/DTD/svg11.dtd">
<!-- Generated by graphviz version 2.38.0 (20140413.2041)
 -->
<!-- Title: dfa Pages: 1 -->
<svg width="196pt" height="85pt"
 viewBox="0.00 0.00 195.60 85.00" xmlns="http://www.w3.org/2000/svg" xmlns:xlink="http://www.w3.org/1999/xlink">
<g id="graph0" class="graph" transform="scale(1 1) rotate(0) translate(4 81)">
<title>dfa</title>
<polygon fill="white" stroke="none" points="-4,4 -4,-81 191.6,-81 191.6,4 -4,4"/>
<!-- __start -->
<!-- 0 -->
<g id="node2" class="node"><title>0</title>
<ellipse fill="none" stroke="black" cx="82.6" cy="-22" rx="18" ry="18"/>
<text text-anchor="middle" x="82.6" y="-18.3" font-family="Times New Roman,serif" font-size="14.00">0</text>
</g>
<!-- __start&#45;&gt;0 -->
<g id="edge1" class="edge"><title>__start&#45;&gt;0</title>
<path fill="none" stroke="black" d="M3.68496,-22C8.69573,-22 34.008,-22 54.4423,-22"/>
<polygon fill="black" stroke="black" points="54.5501,-25.5001 64.5501,-22 54.5501,-18.5001 54.5501,-25.5001"/>
<text text-anchor="middle" x="34.1" y="-25.8" font-family="Times New Roman,serif" font-size="14.00">start</text>
</g>
<!-- 0&#45;&gt;0 -->
<g id="edge5" class="edge"><title>0&#45;&gt;0</title>
<path fill="none" stroke="black" d="M75.8664,-39.0373C74.4922,-48.8579 76.7367,-58 82.6,-58 86.2646,-58 88.5155,-54.4289 89.3529,-49.3529"/>
<polygon fill="black" stroke="black" points="92.8524,-49.0307 89.3336,-39.0373 85.8524,-49.0439 92.8524,-49.0307"/>
<text text-anchor="middle" x="82.6" y="-61.8" font-family="Times New Roman,serif" font-size="14.00">x</text>
</g>
<!-- 1 -->
<g id="node3" class="node"><title>1</title>
<ellipse fill="none" stroke="black" cx="165.6" cy="-22" rx="18" ry="18"/>
<ellipse fill="none" stroke="black" cx="165.6" cy="-22" rx="22" ry="22"/>
<text text-anchor="middle" x="165.6" y="-18.3" font-family="Times New Roman,serif" font-size="14.00">1</text>
</g>
<!-- 0&#45;&gt;1 -->
<g id="edge4" class="edge"><title>0&#45;&gt;1</title>
<path fill="none" stroke="black" d="M100.778,-22C110.21,-22 122.201,-22 133.237,-22"/>
<polygon fill="black" stroke="black" points="133.411,-25.5001 143.411,-22 133.411,-18.5001 133.411,-25.5001"/>
<text text-anchor="middle" x="122.1" y="-25.8" font-family="Times New Roman,serif" font-size="14.00">e</text>
</g>
<!-- 1&#45;&gt;0 -->
<g id="edge3" class="edge"><title>1&#45;&gt;0</title>
<path fill="none" stroke="black" d="M147.05,-9.63813C138.62,-5.13585 128.269,-1.65948 118.6,-4 114.86,-4.9053 111.072,-6.28328 107.438,-7.8822"/>
<polygon fill="black" stroke="black" points="105.686,-4.84541 98.3168,-12.4577 108.825,-11.1023 105.686,-4.84541"/>
<text text-anchor="middle" x="122.1" y="-7.8" font-family="Times New Roman,serif" font-size="14.00">x</text>
</g>
<!-- 1&#45;&gt;1 -->
<g id="edge2" class="edge"><title>1&#45;&gt;1</title>
<path fill="none" stroke="black" d="M157.917,-42.9908C156.969,-53.0872 159.53,-62 165.6,-62 169.489,-62 171.937,-58.3422 172.946,-53.0587"/>
<polygon fill="black" stroke="black" points="176.446,-53.1023 173.283,-42.9908 169.45,-52.868 176.446,-53.1023"/>
<text text-anchor="middle" x="165.6" y="-65.8" font-family="Times New Roman,serif" font-size="14.00">e</text>
</g>
</g>
</svg>
