<?xml version="1.0" encoding="UTF-8" standalone="no"?>
<!DOCTYPE svg PUBLIC "-//W3C//DTD SVG 1.1//EN"
 "http://www.w3.org/Graphics/SVG/1.1/DTD/svg11.dtd">
<!-- Generated by graphviz version 2.38.0 (20140413.2041)
 -->
<!-- Title: dfa Pages: 1 -->
<svg width="351pt" height="126pt"
 viewBox="0.00 0.00 350.60 126.00" xmlns="http://www.w3.org/2000/svg" xmlns:xlink="http://www.w3.org/1999/xlink">
<g id="graph0" class="graph" transform="scale(1 1) rotate(0) translate(4 122)">
<title>dfa</title>
<polygon fill="white" stroke="none" points="-4,4 -4,-122 346.6,-122 346.6,4 -4,4"/>
<!-- __start -->
<!-- 0 -->
<g id="node2" class="node"><title>0</title>
<ellipse fill="none" stroke="black" cx="82.6" cy="-51" rx="18" ry="18"/>
<text text-anchor="middle" x="82.6" y="-47.3" font-family="Times New Roman,serif" font-size="14.00">0</text>
</g>
<!-- __start&#45;&gt;0 -->
<g id="edge1" class="edge"><title>__start&#45;&gt;0</title>
<path fill="none" stroke="black" d="M3.68496,-51C8.69573,-51 34.008,-51 54.4423,-51"/>
<polygon fill="black" stroke="black" points="54.5501,-54.5001 64.5501,-51 54.5501,-47.5001 54.5501,-54.5001"/>
<text text-anchor="middle" x="34.1" y="-54.8" font-family="Times New Roman,serif" font-size="14.00">start</text>
</g>
<!-- 2 -->
<g id="node4" class="node"><title>2</title>
<ellipse fill="none" stroke="black" cx="239.6" cy="-60" rx="18" ry="18"/>
<text text-anchor="middle" x="239.6" y="-56.3" font-family="Times New Roman,serif" font-size="14.00">2</text>
</g>
<!-- 0&#45;&gt;2 -->
<g id="edge4" class="edge"><title>0&#45;&gt;2</title>
<path fill="none" stroke="black" d="M100.681,-52.5864C106.377,-53.0828 112.759,-53.6038 118.6,-54 150.364,-56.1547 186.906,-57.8728 211.239,-58.9091"/>
<polygon fill="black" stroke="black" points="211.362,-62.4171 221.499,-59.3363 211.653,-55.4232 211.362,-62.4171"/>
<text text-anchor="middle" x="162.6" y="-60.8" font-family="Times New Roman,serif" font-size="14.00">f</text>
</g>
<!-- 3 -->
<g id="node5" class="node"><title>3</title>
<ellipse fill="none" stroke="black" cx="162.6" cy="-18" rx="18" ry="18"/>
<text text-anchor="middle" x="162.6" y="-14.3" font-family="Times New Roman,serif" font-size="14.00">3</text>
</g>
<!-- 0&#45;&gt;3 -->
<g id="edge5" class="edge"><title>0&#45;&gt;3</title>
<path fill="none" stroke="black" d="M99.3845,-44.322C110.063,-39.8043 124.391,-33.7421 136.606,-28.5743"/>
<polygon fill="black" stroke="black" points="137.993,-31.788 145.839,-24.6681 135.266,-25.3412 137.993,-31.788"/>
<text text-anchor="middle" x="122.6" y="-38.8" font-family="Times New Roman,serif" font-size="14.00">d</text>
</g>
<!-- 1 -->
<g id="node3" class="node"><title>1</title>
<ellipse fill="none" stroke="black" cx="320.6" cy="-30" rx="18" ry="18"/>
<ellipse fill="none" stroke="black" cx="320.6" cy="-30" rx="22" ry="22"/>
<text text-anchor="middle" x="320.6" y="-26.3" font-family="Times New Roman,serif" font-size="14.00">1</text>
</g>
<!-- 1&#45;&gt;1 -->
<g id="edge2" class="edge"><title>1&#45;&gt;1</title>
<path fill="none" stroke="black" d="M316.724,-51.8066C316.355,-61.5625 317.647,-70 320.6,-70 322.446,-70 323.643,-66.7041 324.19,-61.8504"/>
<polygon fill="black" stroke="black" points="327.69,-61.9021 324.476,-51.8066 320.693,-61.7031 327.69,-61.9021"/>
<text text-anchor="middle" x="320.6" y="-73.8" font-family="Times New Roman,serif" font-size="14.00">f</text>
</g>
<!-- 1&#45;&gt;1 -->
<g id="edge3" class="edge"><title>1&#45;&gt;1</title>
<path fill="none" stroke="black" d="M313.975,-51.1143C311.05,-69.0956 313.258,-88 320.6,-88 326.565,-88 329.141,-75.5201 328.329,-61.1954"/>
<polygon fill="black" stroke="black" points="331.793,-60.6738 327.225,-51.1143 324.834,-61.4359 331.793,-60.6738"/>
<text text-anchor="middle" x="320.6" y="-91.8" font-family="Times New Roman,serif" font-size="14.00">d</text>
</g>
<!-- 2&#45;&gt;1 -->
<g id="edge8" class="edge"><title>2&#45;&gt;1</title>
<path fill="none" stroke="black" d="M256.587,-53.9291C266.211,-50.2742 278.764,-45.5074 290.13,-41.1911"/>
<polygon fill="black" stroke="black" points="291.604,-44.3755 299.71,-37.5533 289.118,-37.8315 291.604,-44.3755"/>
<text text-anchor="middle" x="278.1" y="-48.8" font-family="Times New Roman,serif" font-size="14.00">f</text>
</g>
<!-- 2&#45;&gt;2 -->
<g id="edge9" class="edge"><title>2&#45;&gt;2</title>
<path fill="none" stroke="black" d="M232.866,-77.0373C231.492,-86.8579 233.737,-96 239.6,-96 243.265,-96 245.516,-92.4289 246.353,-87.3529"/>
<polygon fill="black" stroke="black" points="249.852,-87.0307 246.334,-77.0373 242.852,-87.0439 249.852,-87.0307"/>
<text text-anchor="middle" x="239.6" y="-99.8" font-family="Times New Roman,serif" font-size="14.00">d</text>
</g>
<!-- 3&#45;&gt;1 -->
<g id="edge7" class="edge"><title>3&#45;&gt;1</title>
<path fill="none" stroke="black" d="M180.628,-17.0257C199.494,-16.1728 230.796,-15.4299 257.6,-18 267.968,-18.9941 279.179,-20.9029 289.18,-22.9107"/>
<polygon fill="black" stroke="black" points="288.569,-26.3589 299.077,-25.0046 290.018,-19.5105 288.569,-26.3589"/>
<text text-anchor="middle" x="239.6" y="-21.8" font-family="Times New Roman,serif" font-size="14.00">d</text>
</g>
<!-- 3&#45;&gt;2 -->
<g id="edge6" class="edge"><title>3&#45;&gt;2</title>
<path fill="none" stroke="black" d="M178.777,-26.4993C189.045,-32.2491 202.822,-39.9646 214.568,-46.5418"/>
<polygon fill="black" stroke="black" points="213.01,-49.681 223.445,-51.5133 216.43,-43.5735 213.01,-49.681"/>
<text text-anchor="middle" x="201.1" y="-43.8" font-family="Times New Roman,serif" font-size="14.00">f</text>
</g>
</g>
</svg>
