<?xml version="1.0" encoding="UTF-8" standalone="no"?>
<!DOCTYPE svg PUBLIC "-//W3C//DTD SVG 1.1//EN"
 "http://www.w3.org/Graphics/SVG/1.1/DTD/svg11.dtd">
<!-- Generated by graphviz version 2.38.0 (20140413.2041)
 -->
<!-- Title: dfa Pages: 1 -->
<svg width="355pt" height="159pt"
 viewBox="0.00 0.00 354.60 158.98" xmlns="http://www.w3.org/2000/svg" xmlns:xlink="http://www.w3.org/1999/xlink">
<g id="graph0" class="graph" transform="scale(1 1) rotate(0) translate(4 154.984)">
<title>dfa</title>
<polygon fill="white" stroke="none" points="-4,4 -4,-154.984 350.6,-154.984 350.6,4 -4,4"/>
<!-- __start -->
<!-- 0 -->
<g id="node2" class="node"><title>0</title>
<ellipse fill="none" stroke="black" cx="82.6" cy="-40.9836" rx="18" ry="18"/>
<text text-anchor="middle" x="82.6" y="-37.2836" font-family="Times New Roman,serif" font-size="14.00">0</text>
</g>
<!-- __start&#45;&gt;0 -->
<g id="edge1" class="edge"><title>__start&#45;&gt;0</title>
<path fill="none" stroke="black" d="M3.68496,-40.9836C8.69573,-40.9836 34.008,-40.9836 54.4423,-40.9836"/>
<polygon fill="black" stroke="black" points="54.5501,-44.4837 64.5501,-40.9836 54.5501,-37.4837 54.5501,-44.4837"/>
<text text-anchor="middle" x="34.1" y="-44.7836" font-family="Times New Roman,serif" font-size="14.00">start</text>
</g>
<!-- 1 -->
<g id="node3" class="node"><title>1</title>
<ellipse fill="none" stroke="black" cx="166.6" cy="-95.9836" rx="18" ry="18"/>
<ellipse fill="none" stroke="black" cx="166.6" cy="-95.9836" rx="22" ry="22"/>
<text text-anchor="middle" x="166.6" y="-92.2836" font-family="Times New Roman,serif" font-size="14.00">1</text>
</g>
<!-- 0&#45;&gt;1 -->
<g id="edge8" class="edge"><title>0&#45;&gt;1</title>
<path fill="none" stroke="black" d="M97.8833,-50.5639C109.251,-58.1884 125.471,-69.0681 139.187,-78.2679"/>
<polygon fill="black" stroke="black" points="137.508,-81.3561 147.763,-84.0198 141.408,-75.5427 137.508,-81.3561"/>
<text text-anchor="middle" x="122.6" y="-71.7836" font-family="Times New Roman,serif" font-size="14.00">p</text>
</g>
<!-- 2 -->
<g id="node4" class="node"><title>2</title>
<ellipse fill="none" stroke="black" cx="249.6" cy="-40.9836" rx="18" ry="18"/>
<text text-anchor="middle" x="249.6" y="-37.2836" font-family="Times New Roman,serif" font-size="14.00">2</text>
</g>
<!-- 0&#45;&gt;2 -->
<g id="edge9" class="edge"><title>0&#45;&gt;2</title>
<path fill="none" stroke="black" d="M100.636,-40.9836C129.167,-40.9836 186.848,-40.9836 221.158,-40.9836"/>
<polygon fill="black" stroke="black" points="221.409,-44.4837 231.409,-40.9836 221.409,-37.4837 221.409,-44.4837"/>
<text text-anchor="middle" x="166.6" y="-44.7836" font-family="Times New Roman,serif" font-size="14.00">x</text>
</g>
<!-- 1&#45;&gt;1 -->
<g id="edge2" class="edge"><title>1&#45;&gt;1</title>
<path fill="none" stroke="black" d="M158.917,-116.974C157.969,-127.071 160.53,-135.984 166.6,-135.984 170.489,-135.984 172.937,-132.326 173.946,-127.042"/>
<polygon fill="black" stroke="black" points="177.446,-127.086 174.283,-116.974 170.45,-126.852 177.446,-127.086"/>
<text text-anchor="middle" x="166.6" y="-139.784" font-family="Times New Roman,serif" font-size="14.00">p</text>
</g>
<!-- 1&#45;&gt;2 -->
<g id="edge3" class="edge"><title>1&#45;&gt;2</title>
<path fill="none" stroke="black" d="M185.176,-84.0494C197.122,-75.9378 213.036,-65.1319 225.935,-56.3737"/>
<polygon fill="black" stroke="black" points="227.99,-59.209 234.297,-50.6958 224.057,-53.4178 227.99,-59.209"/>
<text text-anchor="middle" x="210.1" y="-71.7836" font-family="Times New Roman,serif" font-size="14.00">x</text>
</g>
<!-- 2&#45;&gt;0 -->
<g id="edge4" class="edge"><title>2&#45;&gt;0</title>
<path fill="none" stroke="black" d="M235.342,-29.7818C223.825,-20.8335 206.261,-8.99124 188.6,-3.98361 169.786,1.35095 163.433,1.28171 144.6,-3.98361 130.481,-7.93086 116.379,-16.1373 105.295,-23.8207"/>
<polygon fill="black" stroke="black" points="103.135,-21.0637 97.1109,-29.7792 107.255,-26.7228 103.135,-21.0637"/>
<text text-anchor="middle" x="166.6" y="-7.78361" font-family="Times New Roman,serif" font-size="14.00">p</text>
</g>
<!-- 3 -->
<g id="node5" class="node"><title>3</title>
<ellipse fill="none" stroke="black" cx="328.6" cy="-40.9836" rx="18" ry="18"/>
<text text-anchor="middle" x="328.6" y="-37.2836" font-family="Times New Roman,serif" font-size="14.00">3</text>
</g>
<!-- 2&#45;&gt;3 -->
<g id="edge5" class="edge"><title>2&#45;&gt;3</title>
<path fill="none" stroke="black" d="M267.689,-40.9836C277.259,-40.9836 289.417,-40.9836 300.277,-40.9836"/>
<polygon fill="black" stroke="black" points="300.559,-44.4837 310.559,-40.9836 300.559,-37.4837 300.559,-44.4837"/>
<text text-anchor="middle" x="289.1" y="-44.7836" font-family="Times New Roman,serif" font-size="14.00">x</text>
</g>
<!-- 3&#45;&gt;3 -->
<g id="edge6" class="edge"><title>3&#45;&gt;3</title>
<path fill="none" stroke="black" d="M325.184,-58.7653C324.604,-68.2986 325.743,-76.9836 328.6,-76.9836 330.341,-76.9836 331.444,-73.7585 331.909,-69.0817"/>
<polygon fill="black" stroke="black" points="335.412,-68.801 332.016,-58.7653 328.412,-68.7286 335.412,-68.801"/>
<text text-anchor="middle" x="328.6" y="-80.7836" font-family="Times New Roman,serif" font-size="14.00">p</text>
</g>
<!-- 3&#45;&gt;3 -->
<g id="edge7" class="edge"><title>3&#45;&gt;3</title>
<path fill="none" stroke="black" d="M323.041,-58.1254C319.77,-75.5686 321.623,-94.9836 328.6,-94.9836 334.214,-94.9836 336.51,-82.4119 335.489,-68.4123"/>
<polygon fill="black" stroke="black" points="338.913,-67.5941 334.159,-58.1254 331.97,-68.4916 338.913,-67.5941"/>
<text text-anchor="middle" x="328.6" y="-98.7836" font-family="Times New Roman,serif" font-size="14.00">x</text>
</g>
</g>
</svg>
