<?xml version="1.0" encoding="UTF-8" standalone="no"?>
<!DOCTYPE svg PUBLIC "-//W3C//DTD SVG 1.1//EN"
 "http://www.w3.org/Graphics/SVG/1.1/DTD/svg11.dtd">
<!-- Generated by graphviz version 2.38.0 (20140413.2041)
 -->
<!-- Title: dfa Pages: 1 -->
<svg width="290pt" height="114pt"
 viewBox="0.00 0.00 289.60 114.00" xmlns="http://www.w3.org/2000/svg" xmlns:xlink="http://www.w3.org/1999/xlink">
<g id="graph0" class="graph" transform="scale(1 1) rotate(0) translate(4 110)">
<title>dfa</title>
<polygon fill="white" stroke="none" points="-4,4 -4,-110 285.6,-110 285.6,4 -4,4"/>
<!-- __start -->
<!-- 0 -->
<g id="node2" class="node"><title>0</title>
<ellipse fill="none" stroke="black" cx="91.6" cy="-22" rx="27" ry="18"/>
<text text-anchor="middle" x="91.6" y="-18.3" font-family="Times New Roman,serif" font-size="14.00">0</text>
</g>
<!-- __start&#45;&gt;0 -->
<g id="edge1" class="edge"><title>__start&#45;&gt;0</title>
<path fill="none" stroke="black" d="M3.78604,-22C8.86985,-22 32.7092,-22 54.1222,-22"/>
<polygon fill="black" stroke="black" points="54.3463,-25.5001 64.3463,-22 54.3463,-18.5001 54.3463,-25.5001"/>
<text text-anchor="middle" x="34.1" y="-25.8" font-family="Times New Roman,serif" font-size="14.00">start</text>
</g>
<!-- 0&#45;&gt;0 -->
<g id="edge2" class="edge"><title>0&#45;&gt;0</title>
<path fill="none" stroke="black" d="M83.3877,-39.4099C81.8548,-49.0879 84.5922,-58 91.6,-58 95.9799,-58 98.6916,-54.5187 99.7353,-49.5449"/>
<polygon fill="black" stroke="black" points="103.236,-49.4362 99.8123,-39.4099 96.2363,-49.383 103.236,-49.4362"/>
<text text-anchor="middle" x="91.6" y="-61.8" font-family="Times New Roman,serif" font-size="14.00">h</text>
</g>
<!-- 1 -->
<g id="node3" class="node"><title>1</title>
<ellipse fill="none" stroke="black" cx="180.6" cy="-22" rx="18" ry="18"/>
<ellipse fill="none" stroke="black" cx="180.6" cy="-22" rx="22" ry="22"/>
<text text-anchor="middle" x="180.6" y="-18.3" font-family="Times New Roman,serif" font-size="14.00">1</text>
</g>
<!-- 0&#45;&gt;1 -->
<g id="edge3" class="edge"><title>0&#45;&gt;1</title>
<path fill="none" stroke="black" d="M118.703,-22C128.039,-22 138.655,-22 148.38,-22"/>
<polygon fill="black" stroke="black" points="148.479,-25.5001 158.479,-22 148.479,-18.5001 148.479,-25.5001"/>
<text text-anchor="middle" x="138.6" y="-25.8" font-family="Times New Roman,serif" font-size="14.00">i</text>
</g>
<!-- 2 -->
<g id="node4" class="node"><title>2</title>
<ellipse fill="none" stroke="black" cx="263.6" cy="-22" rx="18" ry="18"/>
<text text-anchor="middle" x="263.6" y="-18.3" font-family="Times New Roman,serif" font-size="14.00">2</text>
</g>
<!-- 1&#45;&gt;2 -->
<g id="edge6" class="edge"><title>1&#45;&gt;2</title>
<path fill="none" stroke="black" d="M202.882,-22C212.866,-22 224.878,-22 235.503,-22"/>
<polygon fill="black" stroke="black" points="235.54,-25.5001 245.539,-22 235.539,-18.5001 235.54,-25.5001"/>
<text text-anchor="middle" x="224.1" y="-25.8" font-family="Times New Roman,serif" font-size="14.00">h</text>
</g>
<!-- 1&#45;&gt;2 -->
<g id="edge7" class="edge"><title>1&#45;&gt;2</title>
<path fill="none" stroke="black" d="M198.675,-9.20141C207.172,-4.3314 217.718,-0.490639 227.6,-3 231.558,-4.00504 235.553,-5.55766 239.356,-7.35171"/>
<polygon fill="black" stroke="black" points="237.821,-10.4996 248.289,-12.1343 241.125,-4.32845 237.821,-10.4996"/>
<text text-anchor="middle" x="224.1" y="-6.8" font-family="Times New Roman,serif" font-size="14.00">i</text>
</g>
<!-- 2&#45;&gt;2 -->
<g id="edge4" class="edge"><title>2&#45;&gt;2</title>
<path fill="none" stroke="black" d="M260.184,-39.7817C259.604,-49.3149 260.743,-58 263.6,-58 265.341,-58 266.444,-54.7749 266.909,-50.0981"/>
<polygon fill="black" stroke="black" points="270.412,-49.8174 267.016,-39.7817 263.412,-49.745 270.412,-49.8174"/>
<text text-anchor="middle" x="263.6" y="-61.8" font-family="Times New Roman,serif" font-size="14.00">h</text>
</g>
<!-- 2&#45;&gt;2 -->
<g id="edge5" class="edge"><title>2&#45;&gt;2</title>
<path fill="none" stroke="black" d="M258.041,-39.1418C254.77,-56.585 256.623,-76 263.6,-76 269.214,-76 271.51,-63.4283 270.489,-49.4287"/>
<polygon fill="black" stroke="black" points="273.913,-48.6105 269.159,-39.1418 266.97,-49.508 273.913,-48.6105"/>
<text text-anchor="middle" x="263.6" y="-79.8" font-family="Times New Roman,serif" font-size="14.00">i</text>
</g>
</g>
</svg>
