<?xml version="1.0" encoding="UTF-8" standalone="no"?>
<!DOCTYPE svg PUBLIC "-//W3C//DTD SVG 1.1//EN"
 "http://www.w3.org/Graphics/SVG/1.1/DTD/svg11.dtd">
<!-- Generated by graphviz version 2.38.0 (20140413.2041)
 -->
<!-- Title: dfa Pages: 1 -->
<svg width="272pt" height="114pt"
 viewBox="0.00 0.00 271.60 114.00" xmlns="http://www.w3.org/2000/svg" xmlns:xlink="http://www.w3.org/1999/xlink">
<g id="graph0" class="graph" transform="scale(1 1) rotate(0) translate(4 110)">
<title>dfa</title>
<polygon fill="white" stroke="none" points="-4,4 -4,-110 267.6,-110 267.6,4 -4,4"/>
<!-- __start -->
<!-- 0 -->
<g id="node2" class="node"><title>0</title>
<ellipse fill="none" stroke="black" cx="82.6" cy="-22" rx="18" ry="18"/>
<text text-anchor="middle" x="82.6" y="-18.3" font-family="Times New Roman,serif" font-size="14.00">0</text>
</g>
<!-- __start&#45;&gt;0 -->
<g id="edge1" class="edge"><title>__start&#45;&gt;0</title>
<path fill="none" stroke="black" d="M3.68496,-22C8.69573,-22 34.008,-22 54.4423,-22"/>
<polygon fill="black" stroke="black" points="54.5501,-25.5001 64.5501,-22 54.5501,-18.5001 54.5501,-25.5001"/>
<text text-anchor="middle" x="34.1" y="-25.8" font-family="Times New Roman,serif" font-size="14.00">start</text>
</g>
<!-- 0&#45;&gt;0 -->
<g id="edge2" class="edge"><title>0&#45;&gt;0</title>
<path fill="none" stroke="black" d="M75.8664,-39.0373C74.4922,-48.8579 76.7367,-58 82.6,-58 86.2646,-58 88.5155,-54.4289 89.3529,-49.3529"/>
<polygon fill="black" stroke="black" points="92.8524,-49.0307 89.3336,-39.0373 85.8524,-49.0439 92.8524,-49.0307"/>
<text text-anchor="middle" x="82.6" y="-61.8" font-family="Times New Roman,serif" font-size="14.00">h</text>
</g>
<!-- 1 -->
<g id="node3" class="node"><title>1</title>
<ellipse fill="none" stroke="black" cx="162.6" cy="-22" rx="18" ry="18"/>
<ellipse fill="none" stroke="black" cx="162.6" cy="-22" rx="22" ry="22"/>
<text text-anchor="middle" x="162.6" y="-18.3" font-family="Times New Roman,serif" font-size="14.00">1</text>
</g>
<!-- 0&#45;&gt;1 -->
<g id="edge3" class="edge"><title>0&#45;&gt;1</title>
<path fill="none" stroke="black" d="M100.911,-22C109.571,-22 120.325,-22 130.363,-22"/>
<polygon fill="black" stroke="black" points="130.447,-25.5001 140.447,-22 130.447,-18.5001 130.447,-25.5001"/>
<text text-anchor="middle" x="120.6" y="-25.8" font-family="Times New Roman,serif" font-size="14.00">i</text>
</g>
<!-- 2 -->
<g id="node4" class="node"><title>2</title>
<ellipse fill="none" stroke="black" cx="245.6" cy="-22" rx="18" ry="18"/>
<text text-anchor="middle" x="245.6" y="-18.3" font-family="Times New Roman,serif" font-size="14.00">2</text>
</g>
<!-- 1&#45;&gt;2 -->
<g id="edge6" class="edge"><title>1&#45;&gt;2</title>
<path fill="none" stroke="black" d="M184.882,-22C194.866,-22 206.878,-22 217.503,-22"/>
<polygon fill="black" stroke="black" points="217.54,-25.5001 227.539,-22 217.539,-18.5001 217.54,-25.5001"/>
<text text-anchor="middle" x="206.1" y="-25.8" font-family="Times New Roman,serif" font-size="14.00">h</text>
</g>
<!-- 1&#45;&gt;2 -->
<g id="edge7" class="edge"><title>1&#45;&gt;2</title>
<path fill="none" stroke="black" d="M180.675,-9.20141C189.172,-4.3314 199.718,-0.490639 209.6,-3 213.558,-4.00504 217.553,-5.55766 221.356,-7.35171"/>
<polygon fill="black" stroke="black" points="219.821,-10.4996 230.289,-12.1343 223.125,-4.32845 219.821,-10.4996"/>
<text text-anchor="middle" x="206.1" y="-6.8" font-family="Times New Roman,serif" font-size="14.00">i</text>
</g>
<!-- 2&#45;&gt;2 -->
<g id="edge4" class="edge"><title>2&#45;&gt;2</title>
<path fill="none" stroke="black" d="M242.184,-39.7817C241.604,-49.3149 242.743,-58 245.6,-58 247.341,-58 248.444,-54.7749 248.909,-50.0981"/>
<polygon fill="black" stroke="black" points="252.412,-49.8174 249.016,-39.7817 245.412,-49.745 252.412,-49.8174"/>
<text text-anchor="middle" x="245.6" y="-61.8" font-family="Times New Roman,serif" font-size="14.00">h</text>
</g>
<!-- 2&#45;&gt;2 -->
<g id="edge5" class="edge"><title>2&#45;&gt;2</title>
<path fill="none" stroke="black" d="M240.041,-39.1418C236.77,-56.585 238.623,-76 245.6,-76 251.214,-76 253.51,-63.4283 252.489,-49.4287"/>
<polygon fill="black" stroke="black" points="255.913,-48.6105 251.159,-39.1418 248.97,-49.508 255.913,-48.6105"/>
<text text-anchor="middle" x="245.6" y="-79.8" font-family="Times New Roman,serif" font-size="14.00">i</text>
</g>
</g>
</svg>
