<?xml version="1.0" encoding="UTF-8" standalone="no"?>
<!DOCTYPE svg PUBLIC "-//W3C//DTD SVG 1.1//EN"
 "http://www.w3.org/Graphics/SVG/1.1/DTD/svg11.dtd">
<!-- Generated by graphviz version 2.38.0 (20140413.2041)
 -->
<!-- Title: dfa Pages: 1 -->
<svg width="430pt" height="262pt"
 viewBox="0.00 0.00 430.18 261.90" xmlns="http://www.w3.org/2000/svg" xmlns:xlink="http://www.w3.org/1999/xlink">
<g id="graph0" class="graph" transform="scale(1 1) rotate(0) translate(4 257.895)">
<title>dfa</title>
<polygon fill="white" stroke="none" points="-4,4 -4,-257.895 426.18,-257.895 426.18,4 -4,4"/>
<!-- __start -->
<!-- (0,0) -->
<g id="node2" class="node"><title>(0,0)</title>
<ellipse fill="none" stroke="black" cx="92.5475" cy="-159.948" rx="27.8951" ry="27.8951"/>
<text text-anchor="middle" x="92.5475" y="-156.248" font-family="Times New Roman,serif" font-size="14.00">(0,0)</text>
</g>
<!-- __start&#45;&gt;(0,0) -->
<g id="edge1" class="edge"><title>__start&#45;&gt;(0,0)</title>
<path fill="none" stroke="black" d="M3.79668,-159.948C8.92583,-159.948 32.9428,-159.948 54.5557,-159.948"/>
<polygon fill="black" stroke="black" points="54.5589,-163.448 64.5589,-159.948 54.5588,-156.448 54.5589,-163.448"/>
<text text-anchor="middle" x="34.1" y="-163.748" font-family="Times New Roman,serif" font-size="14.00">start</text>
</g>
<!-- (1,0) -->
<g id="node4" class="node"><title>(1,0)</title>
<ellipse fill="none" stroke="black" cx="191.443" cy="-192.948" rx="27.8951" ry="27.8951"/>
<text text-anchor="middle" x="191.443" y="-189.248" font-family="Times New Roman,serif" font-size="14.00">(1,0)</text>
</g>
<!-- (0,0)&#45;&gt;(1,0) -->
<g id="edge2" class="edge"><title>(0,0)&#45;&gt;(1,0)</title>
<path fill="none" stroke="black" d="M119.259,-168.704C130.21,-172.434 143.164,-176.846 155,-180.877"/>
<polygon fill="black" stroke="black" points="154.016,-184.239 164.611,-184.15 156.273,-177.613 154.016,-184.239"/>
<text text-anchor="middle" x="141.995" y="-181.748" font-family="Times New Roman,serif" font-size="14.00">h</text>
</g>
<!-- (0,1) -->
<g id="node5" class="node"><title>(0,1)</title>
<ellipse fill="none" stroke="black" cx="191.443" cy="-118.948" rx="27.8951" ry="27.8951"/>
<text text-anchor="middle" x="191.443" y="-115.248" font-family="Times New Roman,serif" font-size="14.00">(0,1)</text>
</g>
<!-- (0,0)&#45;&gt;(0,1) -->
<g id="edge3" class="edge"><title>(0,0)&#45;&gt;(0,1)</title>
<path fill="none" stroke="black" d="M118.5,-149.389C129.827,-144.596 143.415,-138.847 155.716,-133.642"/>
<polygon fill="black" stroke="black" points="157.392,-136.733 165.237,-129.613 154.664,-130.286 157.392,-136.733"/>
<text text-anchor="middle" x="141.995" y="-144.748" font-family="Times New Roman,serif" font-size="14.00">i</text>
</g>
<!-- (1,1) -->
<g id="node3" class="node"><title>(1,1)</title>
<ellipse fill="none" stroke="black" cx="291.338" cy="-192.948" rx="27.9017" ry="27.9017"/>
<ellipse fill="none" stroke="black" cx="291.338" cy="-192.948" rx="31.8951" ry="31.8951"/>
<text text-anchor="middle" x="291.338" y="-189.248" font-family="Times New Roman,serif" font-size="14.00">(1,1)</text>
</g>
<!-- (1,2) -->
<g id="node6" class="node"><title>(1,2)</title>
<ellipse fill="none" stroke="black" cx="394.233" cy="-140.948" rx="27.8951" ry="27.8951"/>
<text text-anchor="middle" x="394.233" y="-137.248" font-family="Times New Roman,serif" font-size="14.00">(1,2)</text>
</g>
<!-- (1,1)&#45;&gt;(1,2) -->
<g id="edge10" class="edge"><title>(1,1)&#45;&gt;(1,2)</title>
<path fill="none" stroke="black" d="M322.364,-184.626C330.96,-181.748 340.189,-178.166 348.285,-173.948 353.565,-171.196 358.902,-167.863 363.964,-164.385"/>
<polygon fill="black" stroke="black" points="366.099,-167.16 372.165,-158.474 362.006,-161.482 366.099,-167.16"/>
<text text-anchor="middle" x="344.785" y="-180.748" font-family="Times New Roman,serif" font-size="14.00">h</text>
</g>
<!-- (1,1)&#45;&gt;(1,2) -->
<g id="edge11" class="edge"><title>(1,1)&#45;&gt;(1,2)</title>
<path fill="none" stroke="black" d="M315.456,-171.967C323.227,-165.772 332.231,-159.452 341.285,-154.948 346.075,-152.564 351.323,-150.546 356.583,-148.85"/>
<polygon fill="black" stroke="black" points="357.953,-152.098 366.597,-145.972 356.019,-145.37 357.953,-152.098"/>
<text text-anchor="middle" x="344.785" y="-158.748" font-family="Times New Roman,serif" font-size="14.00">i</text>
</g>
<!-- (1,0)&#45;&gt;(1,1) -->
<g id="edge9" class="edge"><title>(1,0)&#45;&gt;(1,1)</title>
<path fill="none" stroke="black" d="M219.452,-192.948C228.609,-192.948 239.057,-192.948 249.066,-192.948"/>
<polygon fill="black" stroke="black" points="249.265,-196.448 259.265,-192.948 249.265,-189.448 249.265,-196.448"/>
<text text-anchor="middle" x="239.39" y="-196.748" font-family="Times New Roman,serif" font-size="14.00">i</text>
</g>
<!-- (1,0)&#45;&gt;(1,0) -->
<g id="edge8" class="edge"><title>(1,0)&#45;&gt;(1,0)</title>
<path fill="none" stroke="black" d="M182.851,-219.849C182.469,-230.25 185.333,-238.895 191.443,-238.895 195.356,-238.895 197.938,-235.347 199.188,-230.062"/>
<polygon fill="black" stroke="black" points="202.697,-230.104 200.034,-219.849 195.72,-229.526 202.697,-230.104"/>
<text text-anchor="middle" x="191.443" y="-242.695" font-family="Times New Roman,serif" font-size="14.00">h</text>
</g>
<!-- (0,1)&#45;&gt;(1,2) -->
<g id="edge4" class="edge"><title>(0,1)&#45;&gt;(1,2)</title>
<path fill="none" stroke="black" d="M219.522,-121.915C254.799,-125.78 316.63,-132.554 356.217,-136.892"/>
<polygon fill="black" stroke="black" points="355.941,-140.382 366.262,-137.992 356.703,-133.424 355.941,-140.382"/>
<text text-anchor="middle" x="291.338" y="-137.748" font-family="Times New Roman,serif" font-size="14.00">h</text>
</g>
<!-- (0,2) -->
<g id="node7" class="node"><title>(0,2)</title>
<ellipse fill="none" stroke="black" cx="291.338" cy="-27.9475" rx="27.8951" ry="27.8951"/>
<text text-anchor="middle" x="291.338" y="-24.2475" font-family="Times New Roman,serif" font-size="14.00">(0,2)</text>
</g>
<!-- (0,1)&#45;&gt;(0,2) -->
<g id="edge5" class="edge"><title>(0,1)&#45;&gt;(0,2)</title>
<path fill="none" stroke="black" d="M212.726,-100.092C227.165,-86.6707 246.741,-68.4732 262.62,-53.7126"/>
<polygon fill="black" stroke="black" points="265.138,-56.1506 270.08,-46.7786 260.372,-51.0236 265.138,-56.1506"/>
<text text-anchor="middle" x="239.39" y="-80.7475" font-family="Times New Roman,serif" font-size="14.00">i</text>
</g>
<!-- (1,2)&#45;&gt;(1,2) -->
<g id="edge12" class="edge"><title>(1,2)&#45;&gt;(1,2)</title>
<path fill="none" stroke="black" d="M389.737,-168.762C389.64,-178.751 391.139,-186.895 394.233,-186.895 396.166,-186.895 397.477,-183.714 398.164,-178.889"/>
<polygon fill="black" stroke="black" points="401.666,-178.941 398.728,-168.762 394.677,-178.552 401.666,-178.941"/>
<text text-anchor="middle" x="394.233" y="-190.695" font-family="Times New Roman,serif" font-size="14.00">h</text>
</g>
<!-- (1,2)&#45;&gt;(1,2) -->
<g id="edge13" class="edge"><title>(1,2)&#45;&gt;(1,2)</title>
<path fill="none" stroke="black" d="M386.112,-167.888C383.651,-186.535 386.358,-204.895 394.233,-204.895 400.631,-204.895 403.618,-192.775 403.193,-178.228"/>
<polygon fill="black" stroke="black" points="406.651,-177.572 402.354,-167.888 399.674,-178.139 406.651,-177.572"/>
<text text-anchor="middle" x="394.233" y="-208.695" font-family="Times New Roman,serif" font-size="14.00">i</text>
</g>
<!-- (0,2)&#45;&gt;(1,2) -->
<g id="edge6" class="edge"><title>(0,2)&#45;&gt;(1,2)</title>
<path fill="none" stroke="black" d="M310.609,-48.411C326.651,-66.3781 350.144,-92.6898 367.982,-112.668"/>
<polygon fill="black" stroke="black" points="365.485,-115.126 374.756,-120.254 370.707,-110.464 365.485,-115.126"/>
<text text-anchor="middle" x="344.785" y="-95.7475" font-family="Times New Roman,serif" font-size="14.00">h</text>
</g>
<!-- (0,2)&#45;&gt;(0,2) -->
<g id="edge7" class="edge"><title>(0,2)&#45;&gt;(0,2)</title>
<path fill="none" stroke="black" d="M282.02,-54.3889C281.493,-64.9938 284.599,-73.895 291.338,-73.895 295.76,-73.895 298.617,-70.0616 299.911,-64.4289"/>
<polygon fill="black" stroke="black" points="303.406,-64.6204 300.655,-54.3889 296.425,-64.1025 303.406,-64.6204"/>
<text text-anchor="middle" x="291.338" y="-77.695" font-family="Times New Roman,serif" font-size="14.00">i</text>
</g>
</g>
</svg>
