<?xml version="1.0" encoding="UTF-8" standalone="no"?>
<!DOCTYPE svg PUBLIC "-//W3C//DTD SVG 1.1//EN"
 "http://www.w3.org/Graphics/SVG/1.1/DTD/svg11.dtd">
<!-- Generated by graphviz version 2.38.0 (20140413.2041)
 -->
<!-- Title: dfa Pages: 1 -->
<svg width="275pt" height="197pt"
 viewBox="0.00 0.00 274.60 197.00" xmlns="http://www.w3.org/2000/svg" xmlns:xlink="http://www.w3.org/1999/xlink">
<g id="graph0" class="graph" transform="scale(1 1) rotate(0) translate(4 193)">
<title>dfa</title>
<polygon fill="white" stroke="none" points="-4,4 -4,-193 270.6,-193 270.6,4 -4,4"/>
<!-- __start -->
<!-- 0 -->
<g id="node2" class="node"><title>0</title>
<ellipse fill="none" stroke="black" cx="82.6" cy="-77" rx="18" ry="18"/>
<text text-anchor="middle" x="82.6" y="-73.3" font-family="Times New Roman,serif" font-size="14.00">0</text>
</g>
<!-- __start&#45;&gt;0 -->
<g id="edge1" class="edge"><title>__start&#45;&gt;0</title>
<path fill="none" stroke="black" d="M3.68496,-77C8.69573,-77 34.008,-77 54.4423,-77"/>
<polygon fill="black" stroke="black" points="54.5501,-80.5001 64.5501,-77 54.5501,-73.5001 54.5501,-80.5001"/>
<text text-anchor="middle" x="34.1" y="-80.8" font-family="Times New Roman,serif" font-size="14.00">start</text>
</g>
<!-- 1 -->
<g id="node3" class="node"><title>1</title>
<ellipse fill="none" stroke="black" cx="165.6" cy="-77" rx="18" ry="18"/>
<ellipse fill="none" stroke="black" cx="165.6" cy="-77" rx="22" ry="22"/>
<text text-anchor="middle" x="165.6" y="-73.3" font-family="Times New Roman,serif" font-size="14.00">1</text>
</g>
<!-- 0&#45;&gt;1 -->
<g id="edge6" class="edge"><title>0&#45;&gt;1</title>
<path fill="none" stroke="black" d="M100.778,-77C110.21,-77 122.201,-77 133.237,-77"/>
<polygon fill="black" stroke="black" points="133.411,-80.5001 143.411,-77 133.411,-73.5001 133.411,-80.5001"/>
<text text-anchor="middle" x="122.1" y="-80.8" font-family="Times New Roman,serif" font-size="14.00">c</text>
</g>
<!-- 3 -->
<g id="node5" class="node"><title>3</title>
<ellipse fill="none" stroke="black" cx="248.6" cy="-18" rx="18" ry="18"/>
<text text-anchor="middle" x="248.6" y="-14.3" font-family="Times New Roman,serif" font-size="14.00">3</text>
</g>
<!-- 0&#45;&gt;3 -->
<g id="edge7" class="edge"><title>0&#45;&gt;3</title>
<path fill="none" stroke="black" d="M95.6782,-64.5645C106.984,-53.7587 124.898,-38.6704 143.6,-31 168.227,-20.8993 198.668,-18.0974 220.237,-17.5509"/>
<polygon fill="black" stroke="black" points="220.377,-21.0497 230.339,-17.4428 220.302,-14.0501 220.377,-21.0497"/>
<text text-anchor="middle" x="165.6" y="-34.8" font-family="Times New Roman,serif" font-size="14.00">l</text>
</g>
<!-- 2 -->
<g id="node4" class="node"><title>2</title>
<ellipse fill="none" stroke="black" cx="248.6" cy="-138" rx="18" ry="18"/>
<text text-anchor="middle" x="248.6" y="-134.3" font-family="Times New Roman,serif" font-size="14.00">2</text>
</g>
<!-- 1&#45;&gt;2 -->
<g id="edge2" class="edge"><title>1&#45;&gt;2</title>
<path fill="none" stroke="black" d="M184.851,-88.601C193.434,-94.2326 203.712,-101.232 212.6,-108 217.296,-111.576 222.191,-115.581 226.78,-119.472"/>
<polygon fill="black" stroke="black" points="224.749,-122.342 234.603,-126.233 229.326,-117.046 224.749,-122.342"/>
<text text-anchor="middle" x="209.1" y="-111.8" font-family="Times New Roman,serif" font-size="14.00">c</text>
</g>
<!-- 1&#45;&gt;3 -->
<g id="edge3" class="edge"><title>1&#45;&gt;3</title>
<path fill="none" stroke="black" d="M183.778,-64.4876C195.968,-55.6083 212.435,-43.6142 225.588,-34.0331"/>
<polygon fill="black" stroke="black" points="227.653,-36.8592 233.676,-28.1425 223.532,-31.2011 227.653,-36.8592"/>
<text text-anchor="middle" x="209.1" y="-50.8" font-family="Times New Roman,serif" font-size="14.00">l</text>
</g>
<!-- 2&#45;&gt;0 -->
<g id="edge9" class="edge"><title>2&#45;&gt;0</title>
<path fill="none" stroke="black" d="M230.748,-134.06C209.942,-128.986 173.626,-119.446 143.6,-108 132.083,-103.61 129.575,-101.608 118.6,-96 115.133,-94.2283 111.498,-92.3167 107.936,-90.4124"/>
<polygon fill="black" stroke="black" points="109.306,-87.174 98.8456,-85.4902 105.973,-93.3295 109.306,-87.174"/>
<text text-anchor="middle" x="165.6" y="-125.8" font-family="Times New Roman,serif" font-size="14.00">l</text>
</g>
<!-- 2&#45;&gt;2 -->
<g id="edge8" class="edge"><title>2&#45;&gt;2</title>
<path fill="none" stroke="black" d="M241.866,-155.037C240.492,-164.858 242.737,-174 248.6,-174 252.265,-174 254.516,-170.429 255.353,-165.353"/>
<polygon fill="black" stroke="black" points="258.852,-165.031 255.334,-155.037 251.852,-165.044 258.852,-165.031"/>
<text text-anchor="middle" x="248.6" y="-177.8" font-family="Times New Roman,serif" font-size="14.00">c</text>
</g>
<!-- 3&#45;&gt;3 -->
<g id="edge4" class="edge"><title>3&#45;&gt;3</title>
<path fill="none" stroke="black" d="M245.184,-35.7817C244.604,-45.3149 245.743,-54 248.6,-54 250.341,-54 251.444,-50.7749 251.909,-46.0981"/>
<polygon fill="black" stroke="black" points="255.412,-45.8174 252.016,-35.7817 248.412,-45.745 255.412,-45.8174"/>
<text text-anchor="middle" x="248.6" y="-57.8" font-family="Times New Roman,serif" font-size="14.00">c</text>
</g>
<!-- 3&#45;&gt;3 -->
<g id="edge5" class="edge"><title>3&#45;&gt;3</title>
<path fill="none" stroke="black" d="M243.041,-35.1418C239.77,-52.585 241.623,-72 248.6,-72 254.214,-72 256.51,-59.4283 255.489,-45.4287"/>
<polygon fill="black" stroke="black" points="258.913,-44.6105 254.159,-35.1418 251.97,-45.508 258.913,-44.6105"/>
<text text-anchor="middle" x="248.6" y="-75.8" font-family="Times New Roman,serif" font-size="14.00">l</text>
</g>
</g>
</svg>
