<?xml version="1.0" encoding="UTF-8" standalone="no"?>
<!DOCTYPE svg PUBLIC "-//W3C//DTD SVG 1.1//EN"
 "http://www.w3.org/Graphics/SVG/1.1/DTD/svg11.dtd">
<!-- Generated by graphviz version 2.38.0 (20140413.2041)
 -->
<!-- Title: enfa Pages: 1 -->
<svg width="277pt" height="133pt"
 viewBox="0.00 0.00 276.60 133.00" xmlns="http://www.w3.org/2000/svg" xmlns:xlink="http://www.w3.org/1999/xlink">
<g id="graph0" class="graph" transform="scale(1 1) rotate(0) translate(4 129)">
<title>enfa</title>
<polygon fill="white" stroke="none" points="-4,4 -4,-129 272.6,-129 272.6,4 -4,4"/>
<!-- __start -->
<!-- 0 -->
<g id="node2" class="node"><title>0</title>
<ellipse fill="none" stroke="black" cx="82.6" cy="-55" rx="18" ry="18"/>
<text text-anchor="middle" x="82.6" y="-51.3" font-family="Times New Roman,serif" font-size="14.00">0</text>
</g>
<!-- __start&#45;&gt;0 -->
<g id="edge1" class="edge"><title>__start&#45;&gt;0</title>
<path fill="none" stroke="black" d="M3.68496,-55C8.69573,-55 34.008,-55 54.4423,-55"/>
<polygon fill="black" stroke="black" points="54.5501,-58.5001 64.5501,-55 54.5501,-51.5001 54.5501,-58.5001"/>
<text text-anchor="middle" x="34.1" y="-58.8" font-family="Times New Roman,serif" font-size="14.00">start</text>
</g>
<!-- 0&#45;&gt;0 -->
<g id="edge6" class="edge"><title>0&#45;&gt;0</title>
<path fill="none" stroke="black" d="M75.5688,-71.6641C74.0063,-81.625 76.35,-91 82.6,-91 86.6039,-91 89.0047,-87.1525 89.8023,-81.7682"/>
<polygon fill="black" stroke="black" points="93.3001,-81.6033 89.6313,-71.6641 86.3011,-81.7219 93.3001,-81.6033"/>
<text text-anchor="middle" x="82.6" y="-94.8" font-family="Times New Roman,serif" font-size="14.00">o</text>
</g>
<!-- 2 -->
<g id="node4" class="node"><title>2</title>
<ellipse fill="none" stroke="black" cx="162.6" cy="-83" rx="18" ry="18"/>
<text text-anchor="middle" x="162.6" y="-79.3" font-family="Times New Roman,serif" font-size="14.00">2</text>
</g>
<!-- 0&#45;&gt;2 -->
<g id="edge2" class="edge"><title>0&#45;&gt;2</title>
<path fill="none" stroke="black" d="M89.3846,-71.767C94.7722,-84.5162 104.171,-101.157 118.6,-109 126.818,-113.467 135.695,-109.631 143.238,-103.664"/>
<polygon fill="black" stroke="black" points="145.853,-106.012 150.804,-96.6449 141.092,-100.88 145.853,-106.012"/>
<text text-anchor="middle" x="122.6" y="-113.8" font-family="Times New Roman,serif" font-size="14.00">t</text>
</g>
<!-- 1 -->
<g id="node3" class="node"><title>1</title>
<ellipse fill="none" stroke="black" cx="246.6" cy="-22" rx="18" ry="18"/>
<ellipse fill="none" stroke="black" cx="246.6" cy="-22" rx="22" ry="22"/>
<text text-anchor="middle" x="246.6" y="-18.3" font-family="Times New Roman,serif" font-size="14.00">1</text>
</g>
<!-- 1&#45;&gt;0 -->
<g id="edge3" class="edge"><title>1&#45;&gt;0</title>
<path fill="none" stroke="black" d="M224.833,-25.4767C199.611,-29.8024 155.82,-37.6442 118.6,-46 115.882,-46.6103 113.053,-47.2797 110.235,-47.9692"/>
<polygon fill="black" stroke="black" points="109.12,-44.6408 100.284,-50.4861 110.837,-51.427 109.12,-44.6408"/>
<text text-anchor="middle" x="162.6" y="-43.8" font-family="Times New Roman,serif" font-size="14.00">o</text>
</g>
<!-- 1&#45;&gt;0 -->
<g id="edge7" class="edge"><title>1&#45;&gt;0</title>
<path fill="none" stroke="black" d="M225.388,-16.1011C204.653,-11.0355 171.689,-5.74238 144.6,-14 129.816,-18.5067 115.366,-27.9273 104.244,-36.6029"/>
<polygon fill="black" stroke="black" points="101.955,-33.9536 96.4367,-42.9982 106.391,-39.3687 101.955,-33.9536"/>
<text text-anchor="middle" x="162.6" y="-17.8" font-family="Times New Roman,serif" font-size="14.00">t</text>
</g>
<!-- 2&#45;&gt;0 -->
<g id="edge4" class="edge"><title>2&#45;&gt;0</title>
<path fill="none" stroke="black" d="M144.662,-78.9282C136.665,-76.84 127.044,-74.0868 118.6,-71 115.235,-69.7699 111.744,-68.3531 108.327,-66.8818"/>
<polygon fill="black" stroke="black" points="109.617,-63.6237 99.0621,-62.7006 106.737,-70.0041 109.617,-63.6237"/>
<text text-anchor="middle" x="122.6" y="-76.8" font-family="Times New Roman,serif" font-size="14.00">o</text>
</g>
<!-- 2&#45;&gt;0 -->
<g id="edge8" class="edge"><title>2&#45;&gt;0</title>
<path fill="none" stroke="black" d="M150.481,-69.2969C144.243,-62.7161 135.86,-55.5111 126.6,-52 121.569,-50.0921 115.971,-49.4928 110.522,-49.6173"/>
<polygon fill="black" stroke="black" points="110.033,-46.1482 100.416,-50.5952 110.707,-53.1157 110.033,-46.1482"/>
<text text-anchor="middle" x="122.6" y="-55.8" font-family="Times New Roman,serif" font-size="14.00">t</text>
</g>
<!-- 2&#45;&gt;1 -->
<g id="edge5" class="edge"><title>2&#45;&gt;1</title>
<path fill="none" stroke="black" d="M177.51,-72.6522C189.165,-63.9823 206.106,-51.38 220.173,-40.9151"/>
<polygon fill="black" stroke="black" points="222.554,-43.5065 228.488,-34.7296 218.376,-37.8901 222.554,-43.5065"/>
<text text-anchor="middle" x="202.6" y="-59.8" font-family="Times New Roman,serif" font-size="14.00">o</text>
</g>
</g>
</svg>
