<?xml version="1.0" encoding="UTF-8" standalone="no"?>
<!DOCTYPE svg PUBLIC "-//W3C//DTD SVG 1.1//EN"
 "http://www.w3.org/Graphics/SVG/1.1/DTD/svg11.dtd">
<!-- Generated by graphviz version 2.38.0 (20140413.2041)
 -->
<!-- Title: dfa Pages: 1 -->
<svg width="275pt" height="234pt"
 viewBox="0.00 0.00 274.60 234.00" xmlns="http://www.w3.org/2000/svg" xmlns:xlink="http://www.w3.org/1999/xlink">
<g id="graph0" class="graph" transform="scale(1 1) rotate(0) translate(4 230)">
<title>dfa</title>
<polygon fill="white" stroke="none" points="-4,4 -4,-230 270.6,-230 270.6,4 -4,4"/>
<!-- __start -->
<!-- 0 -->
<g id="node2" class="node"><title>0</title>
<ellipse fill="none" stroke="black" cx="82.6" cy="-88" rx="18" ry="18"/>
<text text-anchor="middle" x="82.6" y="-84.3" font-family="Times New Roman,serif" font-size="14.00">0</text>
</g>
<!-- __start&#45;&gt;0 -->
<g id="edge1" class="edge"><title>__start&#45;&gt;0</title>
<path fill="none" stroke="black" d="M3.68496,-88C8.69573,-88 34.008,-88 54.4423,-88"/>
<polygon fill="black" stroke="black" points="54.5501,-91.5001 64.5501,-88 54.5501,-84.5001 54.5501,-91.5001"/>
<text text-anchor="middle" x="34.1" y="-91.8" font-family="Times New Roman,serif" font-size="14.00">start</text>
</g>
<!-- 2 -->
<g id="node4" class="node"><title>2</title>
<ellipse fill="none" stroke="black" cx="161.6" cy="-138" rx="18" ry="18"/>
<text text-anchor="middle" x="161.6" y="-134.3" font-family="Times New Roman,serif" font-size="14.00">2</text>
</g>
<!-- 0&#45;&gt;2 -->
<g id="edge8" class="edge"><title>0&#45;&gt;2</title>
<path fill="none" stroke="black" d="M98.0831,-97.4046C109.161,-104.598 124.655,-114.659 137.447,-122.966"/>
<polygon fill="black" stroke="black" points="135.889,-126.127 146.182,-128.638 139.701,-120.256 135.889,-126.127"/>
<text text-anchor="middle" x="122.1" y="-118.8" font-family="Times New Roman,serif" font-size="14.00">h</text>
</g>
<!-- 3 -->
<g id="node5" class="node"><title>3</title>
<ellipse fill="none" stroke="black" cx="161.6" cy="-18" rx="18" ry="18"/>
<text text-anchor="middle" x="161.6" y="-14.3" font-family="Times New Roman,serif" font-size="14.00">3</text>
</g>
<!-- 0&#45;&gt;3 -->
<g id="edge9" class="edge"><title>0&#45;&gt;3</title>
<path fill="none" stroke="black" d="M96.662,-76.1255C108.57,-65.2999 126.355,-49.1319 140.147,-36.594"/>
<polygon fill="black" stroke="black" points="142.686,-39.0157 147.731,-29.6992 137.977,-33.8361 142.686,-39.0157"/>
<text text-anchor="middle" x="122.1" y="-59.8" font-family="Times New Roman,serif" font-size="14.00">u</text>
</g>
<!-- 1 -->
<g id="node3" class="node"><title>1</title>
<ellipse fill="none" stroke="black" cx="244.6" cy="-138" rx="18" ry="18"/>
<ellipse fill="none" stroke="black" cx="244.6" cy="-138" rx="22" ry="22"/>
<text text-anchor="middle" x="244.6" y="-134.3" font-family="Times New Roman,serif" font-size="14.00">1</text>
</g>
<!-- 1&#45;&gt;1 -->
<g id="edge2" class="edge"><title>1&#45;&gt;1</title>
<path fill="none" stroke="black" d="M240.724,-159.807C240.355,-169.563 241.647,-178 244.6,-178 246.446,-178 247.643,-174.704 248.19,-169.85"/>
<polygon fill="black" stroke="black" points="251.69,-169.902 248.476,-159.807 244.693,-169.703 251.69,-169.902"/>
<text text-anchor="middle" x="244.6" y="-181.8" font-family="Times New Roman,serif" font-size="14.00">h</text>
</g>
<!-- 1&#45;&gt;1 -->
<g id="edge3" class="edge"><title>1&#45;&gt;1</title>
<path fill="none" stroke="black" d="M237.975,-159.114C235.05,-177.096 237.258,-196 244.6,-196 250.565,-196 253.141,-183.52 252.329,-169.195"/>
<polygon fill="black" stroke="black" points="255.793,-168.674 251.225,-159.114 248.834,-169.436 255.793,-168.674"/>
<text text-anchor="middle" x="244.6" y="-199.8" font-family="Times New Roman,serif" font-size="14.00">u</text>
</g>
<!-- 2&#45;&gt;1 -->
<g id="edge5" class="edge"><title>2&#45;&gt;1</title>
<path fill="none" stroke="black" d="M179.778,-138C189.21,-138 201.201,-138 212.237,-138"/>
<polygon fill="black" stroke="black" points="212.411,-141.5 222.411,-138 212.411,-134.5 212.411,-141.5"/>
<text text-anchor="middle" x="201.1" y="-141.8" font-family="Times New Roman,serif" font-size="14.00">u</text>
</g>
<!-- 2&#45;&gt;2 -->
<g id="edge4" class="edge"><title>2&#45;&gt;2</title>
<path fill="none" stroke="black" d="M154.866,-155.037C153.492,-164.858 155.737,-174 161.6,-174 165.265,-174 167.516,-170.429 168.353,-165.353"/>
<polygon fill="black" stroke="black" points="171.852,-165.031 168.334,-155.037 164.852,-165.044 171.852,-165.031"/>
<text text-anchor="middle" x="161.6" y="-177.8" font-family="Times New Roman,serif" font-size="14.00">h</text>
</g>
<!-- 3&#45;&gt;3 -->
<g id="edge6" class="edge"><title>3&#45;&gt;3</title>
<path fill="none" stroke="black" d="M158.184,-35.7817C157.604,-45.3149 158.743,-54 161.6,-54 163.341,-54 164.444,-50.7749 164.909,-46.0981"/>
<polygon fill="black" stroke="black" points="168.412,-45.8174 165.016,-35.7817 161.412,-45.745 168.412,-45.8174"/>
<text text-anchor="middle" x="161.6" y="-57.8" font-family="Times New Roman,serif" font-size="14.00">h</text>
</g>
<!-- 3&#45;&gt;3 -->
<g id="edge7" class="edge"><title>3&#45;&gt;3</title>
<path fill="none" stroke="black" d="M156.041,-35.1418C152.77,-52.585 154.623,-72 161.6,-72 167.214,-72 169.51,-59.4283 168.489,-45.4287"/>
<polygon fill="black" stroke="black" points="171.913,-44.6105 167.159,-35.1418 164.97,-45.508 171.913,-44.6105"/>
<text text-anchor="middle" x="161.6" y="-75.8" font-family="Times New Roman,serif" font-size="14.00">u</text>
</g>
</g>
</svg>
