<?xml version="1.0" encoding="UTF-8" standalone="no"?>
<!DOCTYPE svg PUBLIC "-//W3C//DTD SVG 1.1//EN"
 "http://www.w3.org/Graphics/SVG/1.1/DTD/svg11.dtd">
<!-- Generated by graphviz version 2.38.0 (20140413.2041)
 -->
<!-- Title: dfa Pages: 1 -->
<svg width="293pt" height="234pt"
 viewBox="0.00 0.00 292.60 234.00" xmlns="http://www.w3.org/2000/svg" xmlns:xlink="http://www.w3.org/1999/xlink">
<g id="graph0" class="graph" transform="scale(1 1) rotate(0) translate(4 230)">
<title>dfa</title>
<polygon fill="white" stroke="none" points="-4,4 -4,-230 288.6,-230 288.6,4 -4,4"/>
<!-- __start -->
<!-- 0 -->
<g id="node2" class="node"><title>0</title>
<ellipse fill="none" stroke="black" cx="91.6" cy="-88" rx="27" ry="18"/>
<text text-anchor="middle" x="91.6" y="-84.3" font-family="Times New Roman,serif" font-size="14.00">0</text>
</g>
<!-- __start&#45;&gt;0 -->
<g id="edge1" class="edge"><title>__start&#45;&gt;0</title>
<path fill="none" stroke="black" d="M3.78604,-88C8.86985,-88 32.7092,-88 54.1222,-88"/>
<polygon fill="black" stroke="black" points="54.3463,-91.5001 64.3463,-88 54.3463,-84.5001 54.3463,-91.5001"/>
<text text-anchor="middle" x="34.1" y="-91.8" font-family="Times New Roman,serif" font-size="14.00">start</text>
</g>
<!-- 2 -->
<g id="node4" class="node"><title>2</title>
<ellipse fill="none" stroke="black" cx="179.6" cy="-138" rx="18" ry="18"/>
<text text-anchor="middle" x="179.6" y="-134.3" font-family="Times New Roman,serif" font-size="14.00">2</text>
</g>
<!-- 0&#45;&gt;2 -->
<g id="edge8" class="edge"><title>0&#45;&gt;2</title>
<path fill="none" stroke="black" d="M112.546,-99.5967C125.084,-106.886 141.334,-116.334 154.578,-124.034"/>
<polygon fill="black" stroke="black" points="153.191,-127.276 163.595,-129.276 156.709,-121.224 153.191,-127.276"/>
<text text-anchor="middle" x="140.1" y="-121.8" font-family="Times New Roman,serif" font-size="14.00">h</text>
</g>
<!-- 3 -->
<g id="node5" class="node"><title>3</title>
<ellipse fill="none" stroke="black" cx="179.6" cy="-18" rx="18" ry="18"/>
<text text-anchor="middle" x="179.6" y="-14.3" font-family="Times New Roman,serif" font-size="14.00">3</text>
</g>
<!-- 0&#45;&gt;3 -->
<g id="edge9" class="edge"><title>0&#45;&gt;3</title>
<path fill="none" stroke="black" d="M109.591,-74.1703C123.176,-63.1123 142.31,-47.5383 156.985,-35.5932"/>
<polygon fill="black" stroke="black" points="159.489,-38.0682 165.035,-29.041 155.07,-32.6393 159.489,-38.0682"/>
<text text-anchor="middle" x="140.1" y="-54.8" font-family="Times New Roman,serif" font-size="14.00">u</text>
</g>
<!-- 1 -->
<g id="node3" class="node"><title>1</title>
<ellipse fill="none" stroke="black" cx="262.6" cy="-138" rx="18" ry="18"/>
<ellipse fill="none" stroke="black" cx="262.6" cy="-138" rx="22" ry="22"/>
<text text-anchor="middle" x="262.6" y="-134.3" font-family="Times New Roman,serif" font-size="14.00">1</text>
</g>
<!-- 1&#45;&gt;1 -->
<g id="edge2" class="edge"><title>1&#45;&gt;1</title>
<path fill="none" stroke="black" d="M258.724,-159.807C258.355,-169.563 259.647,-178 262.6,-178 264.446,-178 265.643,-174.704 266.19,-169.85"/>
<polygon fill="black" stroke="black" points="269.69,-169.902 266.476,-159.807 262.693,-169.703 269.69,-169.902"/>
<text text-anchor="middle" x="262.6" y="-181.8" font-family="Times New Roman,serif" font-size="14.00">h</text>
</g>
<!-- 1&#45;&gt;1 -->
<g id="edge3" class="edge"><title>1&#45;&gt;1</title>
<path fill="none" stroke="black" d="M255.975,-159.114C253.05,-177.096 255.258,-196 262.6,-196 268.565,-196 271.141,-183.52 270.329,-169.195"/>
<polygon fill="black" stroke="black" points="273.793,-168.674 269.225,-159.114 266.834,-169.436 273.793,-168.674"/>
<text text-anchor="middle" x="262.6" y="-199.8" font-family="Times New Roman,serif" font-size="14.00">u</text>
</g>
<!-- 2&#45;&gt;1 -->
<g id="edge5" class="edge"><title>2&#45;&gt;1</title>
<path fill="none" stroke="black" d="M197.778,-138C207.21,-138 219.201,-138 230.237,-138"/>
<polygon fill="black" stroke="black" points="230.411,-141.5 240.411,-138 230.411,-134.5 230.411,-141.5"/>
<text text-anchor="middle" x="219.1" y="-141.8" font-family="Times New Roman,serif" font-size="14.00">u</text>
</g>
<!-- 2&#45;&gt;2 -->
<g id="edge4" class="edge"><title>2&#45;&gt;2</title>
<path fill="none" stroke="black" d="M172.866,-155.037C171.492,-164.858 173.737,-174 179.6,-174 183.265,-174 185.516,-170.429 186.353,-165.353"/>
<polygon fill="black" stroke="black" points="189.852,-165.031 186.334,-155.037 182.852,-165.044 189.852,-165.031"/>
<text text-anchor="middle" x="179.6" y="-177.8" font-family="Times New Roman,serif" font-size="14.00">h</text>
</g>
<!-- 3&#45;&gt;3 -->
<g id="edge6" class="edge"><title>3&#45;&gt;3</title>
<path fill="none" stroke="black" d="M176.184,-35.7817C175.604,-45.3149 176.743,-54 179.6,-54 181.341,-54 182.444,-50.7749 182.909,-46.0981"/>
<polygon fill="black" stroke="black" points="186.412,-45.8174 183.016,-35.7817 179.412,-45.745 186.412,-45.8174"/>
<text text-anchor="middle" x="179.6" y="-57.8" font-family="Times New Roman,serif" font-size="14.00">h</text>
</g>
<!-- 3&#45;&gt;3 -->
<g id="edge7" class="edge"><title>3&#45;&gt;3</title>
<path fill="none" stroke="black" d="M174.041,-35.1418C170.77,-52.585 172.623,-72 179.6,-72 185.214,-72 187.51,-59.4283 186.489,-45.4287"/>
<polygon fill="black" stroke="black" points="189.913,-44.6105 185.159,-35.1418 182.97,-45.508 189.913,-44.6105"/>
<text text-anchor="middle" x="179.6" y="-75.8" font-family="Times New Roman,serif" font-size="14.00">u</text>
</g>
</g>
</svg>
