<?xml version="1.0" encoding="UTF-8" standalone="no"?>
<!DOCTYPE svg PUBLIC "-//W3C//DTD SVG 1.1//EN"
 "http://www.w3.org/Graphics/SVG/1.1/DTD/svg11.dtd">
<!-- Generated by graphviz version 2.38.0 (20140413.2041)
 -->
<!-- Title: dfa Pages: 1 -->
<svg width="275pt" height="191pt"
 viewBox="0.00 0.00 274.60 191.48" xmlns="http://www.w3.org/2000/svg" xmlns:xlink="http://www.w3.org/1999/xlink">
<g id="graph0" class="graph" transform="scale(1 1) rotate(0) translate(4 187.482)">
<title>dfa</title>
<polygon fill="white" stroke="none" points="-4,4 -4,-187.482 270.6,-187.482 270.6,4 -4,4"/>
<!-- __start -->
<!-- 0 -->
<g id="node2" class="node"><title>0</title>
<ellipse fill="none" stroke="black" cx="82.6" cy="-53.4819" rx="18" ry="18"/>
<text text-anchor="middle" x="82.6" y="-49.7819" font-family="Times New Roman,serif" font-size="14.00">0</text>
</g>
<!-- __start&#45;&gt;0 -->
<g id="edge1" class="edge"><title>__start&#45;&gt;0</title>
<path fill="none" stroke="black" d="M3.68496,-53.4819C8.69573,-53.4819 34.008,-53.4819 54.4423,-53.4819"/>
<polygon fill="black" stroke="black" points="54.5501,-56.982 64.5501,-53.4819 54.5501,-49.982 54.5501,-56.982"/>
<text text-anchor="middle" x="34.1" y="-57.2819" font-family="Times New Roman,serif" font-size="14.00">start</text>
</g>
<!-- 2 -->
<g id="node4" class="node"><title>2</title>
<ellipse fill="none" stroke="black" cx="161.6" cy="-132.482" rx="18" ry="18"/>
<text text-anchor="middle" x="161.6" y="-128.782" font-family="Times New Roman,serif" font-size="14.00">2</text>
</g>
<!-- 0&#45;&gt;2 -->
<g id="edge9" class="edge"><title>0&#45;&gt;2</title>
<path fill="none" stroke="black" d="M95.9714,-66.1746C108.167,-78.687 126.986,-97.9944 141.177,-112.554"/>
<polygon fill="black" stroke="black" points="139.027,-115.363 148.513,-120.081 144.04,-110.477 139.027,-115.363"/>
<text text-anchor="middle" x="122.1" y="-98.2819" font-family="Times New Roman,serif" font-size="14.00">u</text>
</g>
<!-- 3 -->
<g id="node5" class="node"><title>3</title>
<ellipse fill="none" stroke="black" cx="161.6" cy="-45.4819" rx="18" ry="18"/>
<text text-anchor="middle" x="161.6" y="-41.7819" font-family="Times New Roman,serif" font-size="14.00">3</text>
</g>
<!-- 0&#45;&gt;3 -->
<g id="edge8" class="edge"><title>0&#45;&gt;3</title>
<path fill="none" stroke="black" d="M100.789,-52.5291C108.402,-52.0362 117.459,-51.3531 125.6,-50.4819 128.163,-50.2076 130.828,-49.8888 133.491,-49.5473"/>
<polygon fill="black" stroke="black" points="134.111,-52.9951 143.54,-48.1652 133.157,-46.0604 134.111,-52.9951"/>
<text text-anchor="middle" x="122.1" y="-54.2819" font-family="Times New Roman,serif" font-size="14.00">h</text>
</g>
<!-- 1 -->
<g id="node3" class="node"><title>1</title>
<ellipse fill="none" stroke="black" cx="244.6" cy="-36.4819" rx="18" ry="18"/>
<ellipse fill="none" stroke="black" cx="244.6" cy="-36.4819" rx="22" ry="22"/>
<text text-anchor="middle" x="244.6" y="-32.7819" font-family="Times New Roman,serif" font-size="14.00">1</text>
</g>
<!-- 1&#45;&gt;0 -->
<g id="edge5" class="edge"><title>1&#45;&gt;0</title>
<path fill="none" stroke="black" d="M226.512,-23.7581C206.521,-10.5055 172.479,6.97381 143.6,-3.48193 127.595,-9.27643 112.86,-21.4107 101.997,-32.2739"/>
<polygon fill="black" stroke="black" points="99.1522,-30.187 94.8086,-39.8505 104.23,-35.0048 99.1522,-30.187"/>
<text text-anchor="middle" x="161.6" y="-7.28193" font-family="Times New Roman,serif" font-size="14.00">u</text>
</g>
<!-- 1&#45;&gt;1 -->
<g id="edge4" class="edge"><title>1&#45;&gt;1</title>
<path fill="none" stroke="black" d="M236.917,-57.4727C235.969,-67.5692 238.53,-76.4819 244.6,-76.4819 248.489,-76.4819 250.937,-72.8241 251.946,-67.5406"/>
<polygon fill="black" stroke="black" points="255.446,-67.5842 252.283,-57.4727 248.45,-67.3499 255.446,-67.5842"/>
<text text-anchor="middle" x="244.6" y="-80.2819" font-family="Times New Roman,serif" font-size="14.00">h</text>
</g>
<!-- 2&#45;&gt;1 -->
<g id="edge2" class="edge"><title>2&#45;&gt;1</title>
<path fill="none" stroke="black" d="M173.863,-119.134C186.586,-104.054 207.552,-79.2056 223.179,-60.6847"/>
<polygon fill="black" stroke="black" points="225.948,-62.8303 229.722,-52.9303 220.598,-58.3162 225.948,-62.8303"/>
<text text-anchor="middle" x="201.1" y="-93.2819" font-family="Times New Roman,serif" font-size="14.00">h</text>
</g>
<!-- 2&#45;&gt;2 -->
<g id="edge3" class="edge"><title>2&#45;&gt;2</title>
<path fill="none" stroke="black" d="M154.866,-149.519C153.492,-159.34 155.737,-168.482 161.6,-168.482 165.265,-168.482 167.516,-164.911 168.353,-159.835"/>
<polygon fill="black" stroke="black" points="171.852,-159.513 168.334,-149.519 164.852,-159.526 171.852,-159.513"/>
<text text-anchor="middle" x="161.6" y="-172.282" font-family="Times New Roman,serif" font-size="14.00">u</text>
</g>
<!-- 3&#45;&gt;0 -->
<g id="edge6" class="edge"><title>3&#45;&gt;0</title>
<path fill="none" stroke="black" d="M145.036,-38.222C137.117,-35.4307 127.342,-33.3657 118.6,-35.4819 114.86,-36.3872 111.072,-37.7652 107.438,-39.3641"/>
<polygon fill="black" stroke="black" points="105.686,-36.3273 98.3168,-43.9396 108.825,-42.5843 105.686,-36.3273"/>
<text text-anchor="middle" x="122.1" y="-39.2819" font-family="Times New Roman,serif" font-size="14.00">h</text>
</g>
<!-- 3&#45;&gt;3 -->
<g id="edge7" class="edge"><title>3&#45;&gt;3</title>
<path fill="none" stroke="black" d="M154.866,-62.5192C153.492,-72.3398 155.737,-81.4819 161.6,-81.4819 165.265,-81.4819 167.516,-77.9108 168.353,-72.8348"/>
<polygon fill="black" stroke="black" points="171.852,-72.5126 168.334,-62.5192 164.852,-72.5258 171.852,-72.5126"/>
<text text-anchor="middle" x="161.6" y="-85.2819" font-family="Times New Roman,serif" font-size="14.00">u</text>
</g>
</g>
</svg>
