<?xml version="1.0" encoding="UTF-8" standalone="no"?>
<!DOCTYPE svg PUBLIC "-//W3C//DTD SVG 1.1//EN"
 "http://www.w3.org/Graphics/SVG/1.1/DTD/svg11.dtd">
<!-- Generated by graphviz version 2.38.0 (20140413.2041)
 -->
<!-- Title: dfa Pages: 1 -->
<svg width="293pt" height="191pt"
 viewBox="0.00 0.00 292.60 191.06" xmlns="http://www.w3.org/2000/svg" xmlns:xlink="http://www.w3.org/1999/xlink">
<g id="graph0" class="graph" transform="scale(1 1) rotate(0) translate(4 187.063)">
<title>dfa</title>
<polygon fill="white" stroke="none" points="-4,4 -4,-187.063 288.6,-187.063 288.6,4 -4,4"/>
<!-- __start -->
<!-- 0 -->
<g id="node2" class="node"><title>0</title>
<ellipse fill="none" stroke="black" cx="91.6" cy="-53.0627" rx="27" ry="18"/>
<text text-anchor="middle" x="91.6" y="-49.3627" font-family="Times New Roman,serif" font-size="14.00">0</text>
</g>
<!-- __start&#45;&gt;0 -->
<g id="edge1" class="edge"><title>__start&#45;&gt;0</title>
<path fill="none" stroke="black" d="M3.78604,-53.0627C8.86985,-53.0627 32.7092,-53.0627 54.1222,-53.0627"/>
<polygon fill="black" stroke="black" points="54.3463,-56.5628 64.3463,-53.0627 54.3463,-49.5628 54.3463,-56.5628"/>
<text text-anchor="middle" x="34.1" y="-56.8627" font-family="Times New Roman,serif" font-size="14.00">start</text>
</g>
<!-- 2 -->
<g id="node4" class="node"><title>2</title>
<ellipse fill="none" stroke="black" cx="179.6" cy="-132.063" rx="18" ry="18"/>
<text text-anchor="middle" x="179.6" y="-128.363" font-family="Times New Roman,serif" font-size="14.00">2</text>
</g>
<!-- 0&#45;&gt;2 -->
<g id="edge9" class="edge"><title>0&#45;&gt;2</title>
<path fill="none" stroke="black" d="M108.374,-67.5525C122.413,-80.4494 143.031,-99.3892 158.298,-113.413"/>
<polygon fill="black" stroke="black" points="155.999,-116.053 165.731,-120.241 160.734,-110.898 155.999,-116.053"/>
<text text-anchor="middle" x="140.1" y="-102.863" font-family="Times New Roman,serif" font-size="14.00">u</text>
</g>
<!-- 3 -->
<g id="node5" class="node"><title>3</title>
<ellipse fill="none" stroke="black" cx="179.6" cy="-45.0627" rx="18" ry="18"/>
<text text-anchor="middle" x="179.6" y="-41.3627" font-family="Times New Roman,serif" font-size="14.00">3</text>
</g>
<!-- 0&#45;&gt;3 -->
<g id="edge8" class="edge"><title>0&#45;&gt;3</title>
<path fill="none" stroke="black" d="M118.578,-51.9528C126.611,-51.4973 135.481,-50.88 143.6,-50.0627 146.165,-49.8045 148.83,-49.4964 151.494,-49.1618"/>
<polygon fill="black" stroke="black" points="152.111,-52.6102 161.545,-47.789 151.163,-45.6746 152.111,-52.6102"/>
<text text-anchor="middle" x="140.1" y="-53.8627" font-family="Times New Roman,serif" font-size="14.00">h</text>
</g>
<!-- 1 -->
<g id="node3" class="node"><title>1</title>
<ellipse fill="none" stroke="black" cx="262.6" cy="-36.0627" rx="18" ry="18"/>
<ellipse fill="none" stroke="black" cx="262.6" cy="-36.0627" rx="22" ry="22"/>
<text text-anchor="middle" x="262.6" y="-32.3627" font-family="Times New Roman,serif" font-size="14.00">1</text>
</g>
<!-- 1&#45;&gt;0 -->
<g id="edge5" class="edge"><title>1&#45;&gt;0</title>
<path fill="none" stroke="black" d="M244.275,-23.456C224.349,-10.5585 190.643,6.35378 161.6,-3.06268 144.169,-8.71439 127.452,-20.6027 114.839,-31.3692"/>
<polygon fill="black" stroke="black" points="112.309,-28.9364 107.177,-38.2056 116.969,-34.1596 112.309,-28.9364"/>
<text text-anchor="middle" x="179.6" y="-6.86268" font-family="Times New Roman,serif" font-size="14.00">u</text>
</g>
<!-- 1&#45;&gt;1 -->
<g id="edge4" class="edge"><title>1&#45;&gt;1</title>
<path fill="none" stroke="black" d="M254.917,-57.0534C253.969,-67.1499 256.53,-76.0627 262.6,-76.0627 266.489,-76.0627 268.937,-72.4049 269.946,-67.1213"/>
<polygon fill="black" stroke="black" points="273.446,-67.165 270.283,-57.0534 266.45,-66.9307 273.446,-67.165"/>
<text text-anchor="middle" x="262.6" y="-79.8627" font-family="Times New Roman,serif" font-size="14.00">h</text>
</g>
<!-- 2&#45;&gt;1 -->
<g id="edge2" class="edge"><title>2&#45;&gt;1</title>
<path fill="none" stroke="black" d="M191.863,-118.714C204.586,-103.635 225.552,-78.7864 241.179,-60.2655"/>
<polygon fill="black" stroke="black" points="243.948,-62.4111 247.722,-52.5111 238.598,-57.897 243.948,-62.4111"/>
<text text-anchor="middle" x="219.1" y="-92.8627" font-family="Times New Roman,serif" font-size="14.00">h</text>
</g>
<!-- 2&#45;&gt;2 -->
<g id="edge3" class="edge"><title>2&#45;&gt;2</title>
<path fill="none" stroke="black" d="M172.866,-149.1C171.492,-158.921 173.737,-168.063 179.6,-168.063 183.265,-168.063 185.516,-164.492 186.353,-159.416"/>
<polygon fill="black" stroke="black" points="189.852,-159.093 186.334,-149.1 182.852,-159.107 189.852,-159.093"/>
<text text-anchor="middle" x="179.6" y="-171.863" font-family="Times New Roman,serif" font-size="14.00">u</text>
</g>
<!-- 3&#45;&gt;0 -->
<g id="edge6" class="edge"><title>3&#45;&gt;0</title>
<path fill="none" stroke="black" d="M162.71,-37.9903C154.88,-35.3475 145.278,-33.3562 136.6,-35.0627 132.105,-35.9465 127.492,-37.2931 123.022,-38.8603"/>
<polygon fill="black" stroke="black" points="121.611,-35.6536 113.568,-42.5495 124.156,-42.1747 121.611,-35.6536"/>
<text text-anchor="middle" x="140.1" y="-38.8627" font-family="Times New Roman,serif" font-size="14.00">h</text>
</g>
<!-- 3&#45;&gt;3 -->
<g id="edge7" class="edge"><title>3&#45;&gt;3</title>
<path fill="none" stroke="black" d="M172.866,-62.1C171.492,-71.9206 173.737,-81.0627 179.6,-81.0627 183.265,-81.0627 185.516,-77.4916 186.353,-72.4156"/>
<polygon fill="black" stroke="black" points="189.852,-72.0934 186.334,-62.1 182.852,-72.1066 189.852,-72.0934"/>
<text text-anchor="middle" x="179.6" y="-84.8627" font-family="Times New Roman,serif" font-size="14.00">u</text>
</g>
</g>
</svg>
