<?xml version="1.0" encoding="UTF-8" standalone="no"?>
<!DOCTYPE svg PUBLIC "-//W3C//DTD SVG 1.1//EN"
 "http://www.w3.org/Graphics/SVG/1.1/DTD/svg11.dtd">
<!-- Generated by graphviz version 2.38.0 (20140413.2041)
 -->
<!-- Title: dfa Pages: 1 -->
<svg width="631pt" height="347pt"
 viewBox="0.00 0.00 630.97 346.90" xmlns="http://www.w3.org/2000/svg" xmlns:xlink="http://www.w3.org/1999/xlink">
<g id="graph0" class="graph" transform="scale(1 1) rotate(0) translate(4 342.895)">
<title>dfa</title>
<polygon fill="white" stroke="none" points="-4,4 -4,-342.895 626.97,-342.895 626.97,4 -4,4"/>
<!-- __start -->
<!-- (0,0) -->
<g id="node2" class="node"><title>(0,0)</title>
<ellipse fill="none" stroke="black" cx="92.5475" cy="-149.948" rx="27.8951" ry="27.8951"/>
<text text-anchor="middle" x="92.5475" y="-146.248" font-family="Times New Roman,serif" font-size="14.00">(0,0)</text>
</g>
<!-- __start&#45;&gt;(0,0) -->
<g id="edge1" class="edge"><title>__start&#45;&gt;(0,0)</title>
<path fill="none" stroke="black" d="M3.79668,-149.948C8.92583,-149.948 32.9428,-149.948 54.5557,-149.948"/>
<polygon fill="black" stroke="black" points="54.5589,-153.448 64.5589,-149.948 54.5588,-146.448 54.5589,-153.448"/>
<text text-anchor="middle" x="34.1" y="-153.748" font-family="Times New Roman,serif" font-size="14.00">start</text>
</g>
<!-- (2,3) -->
<g id="node8" class="node"><title>(2,3)</title>
<ellipse fill="none" stroke="black" cx="191.443" cy="-204.948" rx="27.8951" ry="27.8951"/>
<text text-anchor="middle" x="191.443" y="-201.248" font-family="Times New Roman,serif" font-size="14.00">(2,3)</text>
</g>
<!-- (0,0)&#45;&gt;(2,3) -->
<g id="edge22" class="edge"><title>(0,0)&#45;&gt;(2,3)</title>
<path fill="none" stroke="black" d="M117.499,-163.543C129.702,-170.47 144.719,-178.994 157.949,-186.503"/>
<polygon fill="black" stroke="black" points="156.342,-189.616 166.766,-191.508 159.798,-183.528 156.342,-189.616"/>
<text text-anchor="middle" x="141.995" y="-182.748" font-family="Times New Roman,serif" font-size="14.00">h</text>
</g>
<!-- (3,2) -->
<g id="node9" class="node"><title>(3,2)</title>
<ellipse fill="none" stroke="black" cx="191.443" cy="-71.9475" rx="27.8951" ry="27.8951"/>
<text text-anchor="middle" x="191.443" y="-68.2475" font-family="Times New Roman,serif" font-size="14.00">(3,2)</text>
</g>
<!-- (0,0)&#45;&gt;(3,2) -->
<g id="edge23" class="edge"><title>(0,0)&#45;&gt;(3,2)</title>
<path fill="none" stroke="black" d="M115.052,-132.637C128.6,-121.731 146.27,-107.506 161.098,-95.57"/>
<polygon fill="black" stroke="black" points="163.404,-98.2069 168.999,-89.2099 159.014,-92.7541 163.404,-98.2069"/>
<text text-anchor="middle" x="141.995" y="-117.748" font-family="Times New Roman,serif" font-size="14.00">u</text>
</g>
<!-- (1,1) -->
<g id="node3" class="node"><title>(1,1)</title>
<ellipse fill="none" stroke="black" cx="591.023" cy="-239.948" rx="27.9017" ry="27.9017"/>
<ellipse fill="none" stroke="black" cx="591.023" cy="-239.948" rx="31.8951" ry="31.8951"/>
<text text-anchor="middle" x="591.023" y="-236.248" font-family="Times New Roman,serif" font-size="14.00">(1,1)</text>
</g>
<!-- (1,1)&#45;&gt;(1,1) -->
<g id="edge4" class="edge"><title>(1,1)&#45;&gt;(1,1)</title>
<path fill="none" stroke="black" d="M581.275,-270.675C581.172,-281.308 584.421,-289.895 591.023,-289.895 595.355,-289.895 598.244,-286.197 599.688,-280.65"/>
<polygon fill="black" stroke="black" points="603.171,-280.995 600.77,-270.675 596.212,-280.24 603.171,-280.995"/>
<text text-anchor="middle" x="591.023" y="-293.695" font-family="Times New Roman,serif" font-size="14.00">h</text>
</g>
<!-- (1,0) -->
<g id="node5" class="node"><title>(1,0)</title>
<ellipse fill="none" stroke="black" cx="389.233" cy="-216.948" rx="27.8951" ry="27.8951"/>
<text text-anchor="middle" x="389.233" y="-213.248" font-family="Times New Roman,serif" font-size="14.00">(1,0)</text>
</g>
<!-- (1,1)&#45;&gt;(1,0) -->
<g id="edge5" class="edge"><title>(1,1)&#45;&gt;(1,0)</title>
<path fill="none" stroke="black" d="M559.569,-233.36C546.27,-230.697 530.458,-227.817 516.075,-225.948 486.426,-222.094 452.617,-219.791 427.514,-218.481"/>
<polygon fill="black" stroke="black" points="427.486,-214.975 417.326,-217.978 427.142,-221.967 427.486,-214.975"/>
<text text-anchor="middle" x="488.128" y="-229.748" font-family="Times New Roman,serif" font-size="14.00">u</text>
</g>
<!-- (1,2) -->
<g id="node4" class="node"><title>(1,2)</title>
<ellipse fill="none" stroke="black" cx="488.128" cy="-277.948" rx="27.8951" ry="27.8951"/>
<text text-anchor="middle" x="488.128" y="-274.248" font-family="Times New Roman,serif" font-size="14.00">(1,2)</text>
</g>
<!-- (1,2)&#45;&gt;(1,1) -->
<g id="edge2" class="edge"><title>(1,2)&#45;&gt;(1,1)</title>
<path fill="none" stroke="black" d="M514.588,-268.359C525.735,-264.16 539.06,-259.141 551.388,-254.498"/>
<polygon fill="black" stroke="black" points="552.876,-257.678 561,-250.878 550.409,-251.127 552.876,-257.678"/>
<text text-anchor="middle" x="537.575" y="-263.748" font-family="Times New Roman,serif" font-size="14.00">h</text>
</g>
<!-- (1,2)&#45;&gt;(1,2) -->
<g id="edge3" class="edge"><title>(1,2)&#45;&gt;(1,2)</title>
<path fill="none" stroke="black" d="M479.163,-304.849C478.764,-315.25 481.753,-323.895 488.128,-323.895 492.212,-323.895 494.906,-320.347 496.21,-315.062"/>
<polygon fill="black" stroke="black" points="499.718,-315.113 497.093,-304.849 492.744,-314.51 499.718,-315.113"/>
<text text-anchor="middle" x="488.128" y="-327.695" font-family="Times New Roman,serif" font-size="14.00">u</text>
</g>
<!-- (1,0)&#45;&gt;(1,2) -->
<g id="edge7" class="edge"><title>(1,0)&#45;&gt;(1,2)</title>
<path fill="none" stroke="black" d="M413.195,-231.404C425.774,-239.322 441.557,-249.258 455.306,-257.914"/>
<polygon fill="black" stroke="black" points="453.667,-261.018 463.994,-263.384 457.396,-255.094 453.667,-261.018"/>
<text text-anchor="middle" x="438.68" y="-252.748" font-family="Times New Roman,serif" font-size="14.00">u</text>
</g>
<!-- (1,3) -->
<g id="node6" class="node"><title>(1,3)</title>
<ellipse fill="none" stroke="black" cx="290.338" cy="-178.948" rx="27.8951" ry="27.8951"/>
<text text-anchor="middle" x="290.338" y="-175.248" font-family="Times New Roman,serif" font-size="14.00">(1,3)</text>
</g>
<!-- (1,0)&#45;&gt;(1,3) -->
<g id="edge6" class="edge"><title>(1,0)&#45;&gt;(1,3)</title>
<path fill="none" stroke="black" d="M369.504,-196.768C362.055,-190.121 352.955,-183.521 343.285,-179.948 338.663,-178.24 333.649,-177.215 328.619,-176.66"/>
<polygon fill="black" stroke="black" points="328.569,-173.152 318.396,-176.111 328.194,-180.142 328.569,-173.152"/>
<text text-anchor="middle" x="339.785" y="-183.748" font-family="Times New Roman,serif" font-size="14.00">h</text>
</g>
<!-- (1,3)&#45;&gt;(1,0) -->
<g id="edge8" class="edge"><title>(1,3)&#45;&gt;(1,0)</title>
<path fill="none" stroke="black" d="M316.543,-188.832C327.781,-193.24 341.206,-198.505 353.384,-203.281"/>
<polygon fill="black" stroke="black" points="352.23,-206.587 362.817,-206.98 354.785,-200.071 352.23,-206.587"/>
<text text-anchor="middle" x="339.785" y="-202.748" font-family="Times New Roman,serif" font-size="14.00">h</text>
</g>
<!-- (1,3)&#45;&gt;(1,3) -->
<g id="edge9" class="edge"><title>(1,3)&#45;&gt;(1,3)</title>
<path fill="none" stroke="black" d="M281.373,-205.849C280.974,-216.25 283.963,-224.895 290.338,-224.895 294.422,-224.895 297.116,-221.347 298.42,-216.062"/>
<polygon fill="black" stroke="black" points="301.928,-216.113 299.302,-205.849 294.954,-215.51 301.928,-216.113"/>
<text text-anchor="middle" x="290.338" y="-228.695" font-family="Times New Roman,serif" font-size="14.00">u</text>
</g>
<!-- (2,0) -->
<g id="node7" class="node"><title>(2,0)</title>
<ellipse fill="none" stroke="black" cx="290.338" cy="-285.948" rx="27.8951" ry="27.8951"/>
<text text-anchor="middle" x="290.338" y="-282.248" font-family="Times New Roman,serif" font-size="14.00">(2,0)</text>
</g>
<!-- (2,0)&#45;&gt;(1,2) -->
<g id="edge11" class="edge"><title>(2,0)&#45;&gt;(1,2)</title>
<path fill="none" stroke="black" d="M318.561,-284.835C352.753,-283.438 411.573,-281.035 449.904,-279.468"/>
<polygon fill="black" stroke="black" points="450.286,-282.956 460.135,-279.05 450.001,-275.962 450.286,-282.956"/>
<text text-anchor="middle" x="389.233" y="-286.748" font-family="Times New Roman,serif" font-size="14.00">u</text>
</g>
<!-- (2,0)&#45;&gt;(2,3) -->
<g id="edge10" class="edge"><title>(2,0)&#45;&gt;(2,3)</title>
<path fill="none" stroke="black" d="M270.816,-265.884C262.972,-257.797 253.542,-248.594 244.39,-240.948 237.996,-235.605 230.824,-230.265 223.899,-225.395"/>
<polygon fill="black" stroke="black" points="225.56,-222.29 215.336,-219.514 221.597,-228.06 225.56,-222.29"/>
<text text-anchor="middle" x="240.89" y="-244.748" font-family="Times New Roman,serif" font-size="14.00">h</text>
</g>
<!-- (2,3)&#45;&gt;(1,3) -->
<g id="edge13" class="edge"><title>(2,3)&#45;&gt;(1,3)</title>
<path fill="none" stroke="black" d="M218.664,-197.912C229.328,-195.05 241.825,-191.697 253.322,-188.612"/>
<polygon fill="black" stroke="black" points="254.344,-191.961 263.095,-185.989 252.53,-185.2 254.344,-191.961"/>
<text text-anchor="middle" x="240.89" y="-195.748" font-family="Times New Roman,serif" font-size="14.00">u</text>
</g>
<!-- (2,3)&#45;&gt;(2,0) -->
<g id="edge12" class="edge"><title>(2,3)&#45;&gt;(2,0)</title>
<path fill="none" stroke="black" d="M208.98,-226.747C216.928,-236.379 226.98,-247.424 237.39,-255.948 243.152,-260.665 249.747,-265.087 256.261,-269.011"/>
<polygon fill="black" stroke="black" points="254.593,-272.09 265.008,-274.035 258.079,-266.019 254.593,-272.09"/>
<text text-anchor="middle" x="240.89" y="-263.748" font-family="Times New Roman,serif" font-size="14.00">h</text>
</g>
<!-- (3,2)&#45;&gt;(3,2) -->
<g id="edge15" class="edge"><title>(3,2)&#45;&gt;(3,2)</title>
<path fill="none" stroke="black" d="M182.478,-98.8489C182.079,-109.25 185.068,-117.895 191.443,-117.895 195.527,-117.895 198.221,-114.347 199.525,-109.062"/>
<polygon fill="black" stroke="black" points="203.033,-109.113 200.407,-98.8489 196.059,-108.51 203.033,-109.113"/>
<text text-anchor="middle" x="191.443" y="-121.695" font-family="Times New Roman,serif" font-size="14.00">u</text>
</g>
<!-- (3,1) -->
<g id="node10" class="node"><title>(3,1)</title>
<ellipse fill="none" stroke="black" cx="290.338" cy="-71.9475" rx="27.8951" ry="27.8951"/>
<text text-anchor="middle" x="290.338" y="-68.2475" font-family="Times New Roman,serif" font-size="14.00">(3,1)</text>
</g>
<!-- (3,2)&#45;&gt;(3,1) -->
<g id="edge14" class="edge"><title>(3,2)&#45;&gt;(3,1)</title>
<path fill="none" stroke="black" d="M219.433,-71.9475C229.533,-71.9475 241.191,-71.9475 252.057,-71.9475"/>
<polygon fill="black" stroke="black" points="252.156,-75.4476 262.156,-71.9475 252.156,-68.4476 252.156,-75.4476"/>
<text text-anchor="middle" x="240.89" y="-75.7475" font-family="Times New Roman,serif" font-size="14.00">h</text>
</g>
<!-- (3,1)&#45;&gt;(3,1) -->
<g id="edge16" class="edge"><title>(3,1)&#45;&gt;(3,1)</title>
<path fill="none" stroke="black" d="M281.373,-98.8489C280.974,-109.25 283.963,-117.895 290.338,-117.895 294.422,-117.895 297.116,-114.347 298.42,-109.062"/>
<polygon fill="black" stroke="black" points="301.928,-109.113 299.302,-98.8489 294.954,-108.51 301.928,-109.113"/>
<text text-anchor="middle" x="290.338" y="-121.695" font-family="Times New Roman,serif" font-size="14.00">h</text>
</g>
<!-- (3,0) -->
<g id="node11" class="node"><title>(3,0)</title>
<ellipse fill="none" stroke="black" cx="389.233" cy="-27.9475" rx="27.8951" ry="27.8951"/>
<text text-anchor="middle" x="389.233" y="-24.2475" font-family="Times New Roman,serif" font-size="14.00">(3,0)</text>
</g>
<!-- (3,1)&#45;&gt;(3,0) -->
<g id="edge17" class="edge"><title>(3,1)&#45;&gt;(3,0)</title>
<path fill="none" stroke="black" d="M316.039,-60.7306C327.656,-55.4554 341.693,-49.0812 354.289,-43.3614"/>
<polygon fill="black" stroke="black" points="355.918,-46.4655 363.576,-39.1439 353.024,-40.0918 355.918,-46.4655"/>
<text text-anchor="middle" x="339.785" y="-55.7475" font-family="Times New Roman,serif" font-size="14.00">u</text>
</g>
<!-- (3,0)&#45;&gt;(3,2) -->
<g id="edge19" class="edge"><title>(3,0)&#45;&gt;(3,2)</title>
<path fill="none" stroke="black" d="M361.955,-20.6614C335.977,-14.7451 295.435,-9.01013 262.39,-19.9475 246.633,-25.1629 231.538,-35.4553 219.429,-45.5168"/>
<polygon fill="black" stroke="black" points="216.793,-43.1719 211.553,-52.3802 221.391,-48.4495 216.793,-43.1719"/>
<text text-anchor="middle" x="290.338" y="-23.7475" font-family="Times New Roman,serif" font-size="14.00">u</text>
</g>
<!-- (3,3) -->
<g id="node12" class="node"><title>(3,3)</title>
<ellipse fill="none" stroke="black" cx="488.128" cy="-27.9475" rx="27.8951" ry="27.8951"/>
<text text-anchor="middle" x="488.128" y="-24.2475" font-family="Times New Roman,serif" font-size="14.00">(3,3)</text>
</g>
<!-- (3,0)&#45;&gt;(3,3) -->
<g id="edge18" class="edge"><title>(3,0)&#45;&gt;(3,3)</title>
<path fill="none" stroke="black" d="M417.223,-27.9475C427.323,-27.9475 438.981,-27.9475 449.847,-27.9475"/>
<polygon fill="black" stroke="black" points="449.946,-31.4476 459.946,-27.9475 449.946,-24.4476 449.946,-31.4476"/>
<text text-anchor="middle" x="438.68" y="-31.7475" font-family="Times New Roman,serif" font-size="14.00">h</text>
</g>
<!-- (3,3)&#45;&gt;(3,0) -->
<g id="edge20" class="edge"><title>(3,3)&#45;&gt;(3,0)</title>
<path fill="none" stroke="black" d="M464.029,-13.5943C455.177,-9.67478 444.874,-6.98279 435.18,-8.94752 431.475,-9.69849 427.696,-10.765 423.981,-12.0142"/>
<polygon fill="black" stroke="black" points="422.498,-8.83333 414.393,-15.6564 424.984,-15.3771 422.498,-8.83333"/>
<text text-anchor="middle" x="438.68" y="-12.7475" font-family="Times New Roman,serif" font-size="14.00">h</text>
</g>
<!-- (3,3)&#45;&gt;(3,3) -->
<g id="edge21" class="edge"><title>(3,3)&#45;&gt;(3,3)</title>
<path fill="none" stroke="black" d="M479.163,-54.8489C478.764,-65.25 481.753,-73.895 488.128,-73.895 492.212,-73.895 494.906,-70.3471 496.21,-65.0624"/>
<polygon fill="black" stroke="black" points="499.718,-65.1131 497.093,-54.8489 492.744,-64.5104 499.718,-65.1131"/>
<text text-anchor="middle" x="488.128" y="-77.695" font-family="Times New Roman,serif" font-size="14.00">u</text>
</g>
</g>
</svg>
