<?xml version="1.0" encoding="UTF-8" standalone="no"?>
<!DOCTYPE svg PUBLIC "-//W3C//DTD SVG 1.1//EN"
 "http://www.w3.org/Graphics/SVG/1.1/DTD/svg11.dtd">
<!-- Generated by graphviz version 2.38.0 (20140413.2041)
 -->
<!-- Title: dfa Pages: 1 -->
<svg width="354pt" height="142pt"
 viewBox="0.00 0.00 353.60 142.00" xmlns="http://www.w3.org/2000/svg" xmlns:xlink="http://www.w3.org/1999/xlink">
<g id="graph0" class="graph" transform="scale(1 1) rotate(0) translate(4 138)">
<title>dfa</title>
<polygon fill="white" stroke="none" points="-4,4 -4,-138 349.6,-138 349.6,4 -4,4"/>
<!-- __start -->
<!-- 0 -->
<g id="node2" class="node"><title>0</title>
<ellipse fill="none" stroke="black" cx="82.6" cy="-18" rx="18" ry="18"/>
<text text-anchor="middle" x="82.6" y="-14.3" font-family="Times New Roman,serif" font-size="14.00">0</text>
</g>
<!-- __start&#45;&gt;0 -->
<g id="edge1" class="edge"><title>__start&#45;&gt;0</title>
<path fill="none" stroke="black" d="M3.68496,-18C8.69573,-18 34.008,-18 54.4423,-18"/>
<polygon fill="black" stroke="black" points="54.5501,-21.5001 64.5501,-18 54.5501,-14.5001 54.5501,-21.5001"/>
<text text-anchor="middle" x="34.1" y="-21.8" font-family="Times New Roman,serif" font-size="14.00">start</text>
</g>
<!-- 1 -->
<g id="node3" class="node"><title>1</title>
<ellipse fill="none" stroke="black" cx="165.6" cy="-69" rx="18" ry="18"/>
<ellipse fill="none" stroke="black" cx="165.6" cy="-69" rx="22" ry="22"/>
<text text-anchor="middle" x="165.6" y="-65.3" font-family="Times New Roman,serif" font-size="14.00">1</text>
</g>
<!-- 0&#45;&gt;1 -->
<g id="edge3" class="edge"><title>0&#45;&gt;1</title>
<path fill="none" stroke="black" d="M98.4566,-27.3542C109.441,-34.2701 124.7,-43.8777 137.794,-52.1223"/>
<polygon fill="black" stroke="black" points="136.107,-55.1962 146.435,-57.5625 139.837,-49.2725 136.107,-55.1962"/>
<text text-anchor="middle" x="122.1" y="-46.8" font-family="Times New Roman,serif" font-size="14.00">u</text>
</g>
<!-- 3 -->
<g id="node4" class="node"><title>3</title>
<ellipse fill="none" stroke="black" cx="327.6" cy="-57" rx="18" ry="18"/>
<text text-anchor="middle" x="327.6" y="-53.3" font-family="Times New Roman,serif" font-size="14.00">3</text>
</g>
<!-- 0&#45;&gt;3 -->
<g id="edge2" class="edge"><title>0&#45;&gt;3</title>
<path fill="none" stroke="black" d="M100.678,-18.1072C136.684,-18.7349 222.735,-22.3601 291.6,-42 295.009,-42.9723 298.526,-44.1954 301.955,-45.5216"/>
<polygon fill="black" stroke="black" points="300.653,-48.7707 311.228,-49.4096 303.36,-42.3151 300.653,-48.7707"/>
<text text-anchor="middle" x="209.1" y="-29.8" font-family="Times New Roman,serif" font-size="14.00">n</text>
</g>
<!-- 1&#45;&gt;3 -->
<g id="edge5" class="edge"><title>1&#45;&gt;3</title>
<path fill="none" stroke="black" d="M180.998,-84.9107C187.904,-91.8149 196.62,-99.5499 205.6,-105 229.027,-119.218 241.069,-123.958 266.6,-114 284.169,-107.148 299.494,-92.3389 310.258,-79.5332"/>
<polygon fill="black" stroke="black" points="313.156,-81.513 316.651,-71.5111 307.682,-77.1505 313.156,-81.513"/>
<text text-anchor="middle" x="248.6" y="-122.8" font-family="Times New Roman,serif" font-size="14.00">u</text>
</g>
<!-- 2 -->
<g id="node5" class="node"><title>2</title>
<ellipse fill="none" stroke="black" cx="248.6" cy="-87" rx="18" ry="18"/>
<text text-anchor="middle" x="248.6" y="-83.3" font-family="Times New Roman,serif" font-size="14.00">2</text>
</g>
<!-- 1&#45;&gt;2 -->
<g id="edge4" class="edge"><title>1&#45;&gt;2</title>
<path fill="none" stroke="black" d="M185.619,-78.3215C191.842,-80.9559 198.884,-83.5091 205.6,-85 210.214,-86.0244 215.181,-86.6585 220.028,-87.0342"/>
<polygon fill="black" stroke="black" points="220.112,-90.5415 230.259,-87.4954 220.427,-83.5486 220.112,-90.5415"/>
<text text-anchor="middle" x="209.1" y="-89.8" font-family="Times New Roman,serif" font-size="14.00">n</text>
</g>
<!-- 3&#45;&gt;1 -->
<g id="edge9" class="edge"><title>3&#45;&gt;1</title>
<path fill="none" stroke="black" d="M310.21,-51.9362C291.032,-46.7066 258.365,-39.9652 230.6,-45 218.621,-47.1722 205.964,-51.4579 195.097,-55.8143"/>
<polygon fill="black" stroke="black" points="193.549,-52.6688 185.691,-59.7762 196.266,-59.1199 193.549,-52.6688"/>
<text text-anchor="middle" x="248.6" y="-48.8" font-family="Times New Roman,serif" font-size="14.00">u</text>
</g>
<!-- 3&#45;&gt;3 -->
<g id="edge8" class="edge"><title>3&#45;&gt;3</title>
<path fill="none" stroke="black" d="M320.866,-74.0373C319.492,-83.8579 321.737,-93 327.6,-93 331.265,-93 333.516,-89.4289 334.353,-84.3529"/>
<polygon fill="black" stroke="black" points="337.852,-84.0307 334.334,-74.0373 330.852,-84.0439 337.852,-84.0307"/>
<text text-anchor="middle" x="327.6" y="-96.8" font-family="Times New Roman,serif" font-size="14.00">n</text>
</g>
<!-- 2&#45;&gt;1 -->
<g id="edge7" class="edge"><title>2&#45;&gt;1</title>
<path fill="none" stroke="black" d="M233.763,-76.33C227.63,-72.2506 220.112,-68.0807 212.6,-66 207.837,-64.6808 202.696,-64.1726 197.636,-64.1609"/>
<polygon fill="black" stroke="black" points="197.296,-60.6744 187.51,-64.7333 197.691,-67.6632 197.296,-60.6744"/>
<text text-anchor="middle" x="209.1" y="-69.8" font-family="Times New Roman,serif" font-size="14.00">u</text>
</g>
<!-- 2&#45;&gt;3 -->
<g id="edge6" class="edge"><title>2&#45;&gt;3</title>
<path fill="none" stroke="black" d="M265.554,-80.784C275.879,-76.7615 289.543,-71.4379 301.326,-66.8472"/>
<polygon fill="black" stroke="black" points="302.619,-70.0996 310.666,-63.2081 300.078,-63.5772 302.619,-70.0996"/>
<text text-anchor="middle" x="288.1" y="-75.8" font-family="Times New Roman,serif" font-size="14.00">n</text>
</g>
</g>
</svg>
