<?xml version="1.0" encoding="UTF-8" standalone="no"?>
<!DOCTYPE svg PUBLIC "-//W3C//DTD SVG 1.1//EN"
 "http://www.w3.org/Graphics/SVG/1.1/DTD/svg11.dtd">
<!-- Generated by graphviz version 2.38.0 (20140413.2041)
 -->
<!-- Title: dfa Pages: 1 -->
<svg width="372pt" height="142pt"
 viewBox="0.00 0.00 371.60 142.00" xmlns="http://www.w3.org/2000/svg" xmlns:xlink="http://www.w3.org/1999/xlink">
<g id="graph0" class="graph" transform="scale(1 1) rotate(0) translate(4 138)">
<title>dfa</title>
<polygon fill="white" stroke="none" points="-4,4 -4,-138 367.6,-138 367.6,4 -4,4"/>
<!-- __start -->
<!-- 0 -->
<g id="node2" class="node"><title>0</title>
<ellipse fill="none" stroke="black" cx="91.6" cy="-18" rx="27" ry="18"/>
<text text-anchor="middle" x="91.6" y="-14.3" font-family="Times New Roman,serif" font-size="14.00">0</text>
</g>
<!-- __start&#45;&gt;0 -->
<g id="edge1" class="edge"><title>__start&#45;&gt;0</title>
<path fill="none" stroke="black" d="M3.78604,-18C8.86985,-18 32.7092,-18 54.1222,-18"/>
<polygon fill="black" stroke="black" points="54.3463,-21.5001 64.3463,-18 54.3463,-14.5001 54.3463,-21.5001"/>
<text text-anchor="middle" x="34.1" y="-21.8" font-family="Times New Roman,serif" font-size="14.00">start</text>
</g>
<!-- 1 -->
<g id="node3" class="node"><title>1</title>
<ellipse fill="none" stroke="black" cx="183.6" cy="-69" rx="18" ry="18"/>
<ellipse fill="none" stroke="black" cx="183.6" cy="-69" rx="22" ry="22"/>
<text text-anchor="middle" x="183.6" y="-65.3" font-family="Times New Roman,serif" font-size="14.00">1</text>
</g>
<!-- 0&#45;&gt;1 -->
<g id="edge3" class="edge"><title>0&#45;&gt;1</title>
<path fill="none" stroke="black" d="M113.022,-29.5727C125.495,-36.6407 141.602,-45.768 155.177,-53.4605"/>
<polygon fill="black" stroke="black" points="153.669,-56.6288 164.095,-58.5139 157.12,-50.5386 153.669,-56.6288"/>
<text text-anchor="middle" x="140.1" y="-49.8" font-family="Times New Roman,serif" font-size="14.00">u</text>
</g>
<!-- 3 -->
<g id="node4" class="node"><title>3</title>
<ellipse fill="none" stroke="black" cx="345.6" cy="-57" rx="18" ry="18"/>
<text text-anchor="middle" x="345.6" y="-53.3" font-family="Times New Roman,serif" font-size="14.00">3</text>
</g>
<!-- 0&#45;&gt;3 -->
<g id="edge2" class="edge"><title>0&#45;&gt;3</title>
<path fill="none" stroke="black" d="M118.861,-18.0946C160.221,-18.8644 242.714,-22.9246 309.6,-42 313.009,-42.9723 316.526,-44.1954 319.955,-45.5216"/>
<polygon fill="black" stroke="black" points="318.653,-48.7707 329.228,-49.4096 321.36,-42.3151 318.653,-48.7707"/>
<text text-anchor="middle" x="227.1" y="-28.8" font-family="Times New Roman,serif" font-size="14.00">n</text>
</g>
<!-- 1&#45;&gt;3 -->
<g id="edge5" class="edge"><title>1&#45;&gt;3</title>
<path fill="none" stroke="black" d="M198.998,-84.9107C205.904,-91.8149 214.62,-99.5499 223.6,-105 247.027,-119.218 259.069,-123.958 284.6,-114 302.169,-107.148 317.494,-92.3389 328.258,-79.5332"/>
<polygon fill="black" stroke="black" points="331.156,-81.513 334.651,-71.5111 325.682,-77.1505 331.156,-81.513"/>
<text text-anchor="middle" x="266.6" y="-122.8" font-family="Times New Roman,serif" font-size="14.00">u</text>
</g>
<!-- 2 -->
<g id="node5" class="node"><title>2</title>
<ellipse fill="none" stroke="black" cx="266.6" cy="-87" rx="18" ry="18"/>
<text text-anchor="middle" x="266.6" y="-83.3" font-family="Times New Roman,serif" font-size="14.00">2</text>
</g>
<!-- 1&#45;&gt;2 -->
<g id="edge4" class="edge"><title>1&#45;&gt;2</title>
<path fill="none" stroke="black" d="M203.619,-78.3215C209.842,-80.9559 216.884,-83.5091 223.6,-85 228.214,-86.0244 233.181,-86.6585 238.028,-87.0342"/>
<polygon fill="black" stroke="black" points="238.112,-90.5415 248.259,-87.4954 238.427,-83.5486 238.112,-90.5415"/>
<text text-anchor="middle" x="227.1" y="-89.8" font-family="Times New Roman,serif" font-size="14.00">n</text>
</g>
<!-- 3&#45;&gt;1 -->
<g id="edge9" class="edge"><title>3&#45;&gt;1</title>
<path fill="none" stroke="black" d="M328.21,-51.9362C309.032,-46.7066 276.365,-39.9652 248.6,-45 236.621,-47.1722 223.964,-51.4579 213.097,-55.8143"/>
<polygon fill="black" stroke="black" points="211.549,-52.6688 203.691,-59.7762 214.266,-59.1199 211.549,-52.6688"/>
<text text-anchor="middle" x="266.6" y="-48.8" font-family="Times New Roman,serif" font-size="14.00">u</text>
</g>
<!-- 3&#45;&gt;3 -->
<g id="edge8" class="edge"><title>3&#45;&gt;3</title>
<path fill="none" stroke="black" d="M338.866,-74.0373C337.492,-83.8579 339.737,-93 345.6,-93 349.265,-93 351.516,-89.4289 352.353,-84.3529"/>
<polygon fill="black" stroke="black" points="355.852,-84.0307 352.334,-74.0373 348.852,-84.0439 355.852,-84.0307"/>
<text text-anchor="middle" x="345.6" y="-96.8" font-family="Times New Roman,serif" font-size="14.00">n</text>
</g>
<!-- 2&#45;&gt;1 -->
<g id="edge7" class="edge"><title>2&#45;&gt;1</title>
<path fill="none" stroke="black" d="M251.763,-76.33C245.63,-72.2506 238.112,-68.0807 230.6,-66 225.837,-64.6808 220.696,-64.1726 215.636,-64.1609"/>
<polygon fill="black" stroke="black" points="215.296,-60.6744 205.51,-64.7333 215.691,-67.6632 215.296,-60.6744"/>
<text text-anchor="middle" x="227.1" y="-69.8" font-family="Times New Roman,serif" font-size="14.00">u</text>
</g>
<!-- 2&#45;&gt;3 -->
<g id="edge6" class="edge"><title>2&#45;&gt;3</title>
<path fill="none" stroke="black" d="M283.554,-80.784C293.879,-76.7615 307.543,-71.4379 319.326,-66.8472"/>
<polygon fill="black" stroke="black" points="320.619,-70.0996 328.666,-63.2081 318.078,-63.5772 320.619,-70.0996"/>
<text text-anchor="middle" x="306.1" y="-75.8" font-family="Times New Roman,serif" font-size="14.00">n</text>
</g>
</g>
</svg>
