<?xml version="1.0" encoding="UTF-8" standalone="no"?>
<!DOCTYPE svg PUBLIC "-//W3C//DTD SVG 1.1//EN"
 "http://www.w3.org/Graphics/SVG/1.1/DTD/svg11.dtd">
<!-- Generated by graphviz version 2.38.0 (20140413.2041)
 -->
<!-- Title: dfa Pages: 1 -->
<svg width="372pt" height="108pt"
 viewBox="0.00 0.00 371.60 107.62" xmlns="http://www.w3.org/2000/svg" xmlns:xlink="http://www.w3.org/1999/xlink">
<g id="graph0" class="graph" transform="scale(1 1) rotate(0) translate(4 103.616)">
<title>dfa</title>
<polygon fill="white" stroke="none" points="-4,4 -4,-103.616 367.6,-103.616 367.6,4 -4,4"/>
<!-- __start -->
<!-- 0 -->
<g id="node2" class="node"><title>0</title>
<ellipse fill="none" stroke="black" cx="91.6" cy="-48.6157" rx="27" ry="18"/>
<text text-anchor="middle" x="91.6" y="-44.9157" font-family="Times New Roman,serif" font-size="14.00">0</text>
</g>
<!-- __start&#45;&gt;0 -->
<g id="edge1" class="edge"><title>__start&#45;&gt;0</title>
<path fill="none" stroke="black" d="M3.78604,-48.6157C8.86985,-48.6157 32.7092,-48.6157 54.1222,-48.6157"/>
<polygon fill="black" stroke="black" points="54.3463,-52.1158 64.3463,-48.6157 54.3463,-45.1158 54.3463,-52.1158"/>
<text text-anchor="middle" x="34.1" y="-52.4157" font-family="Times New Roman,serif" font-size="14.00">start</text>
</g>
<!-- 0&#45;&gt;0 -->
<g id="edge6" class="edge"><title>0&#45;&gt;0</title>
<path fill="none" stroke="black" d="M83.0307,-66.0256C81.4311,-75.7036 84.2875,-84.6157 91.6,-84.6157 96.1703,-84.6157 99,-81.1344 100.089,-76.1606"/>
<polygon fill="black" stroke="black" points="103.59,-76.053 100.169,-66.0256 96.5901,-75.9975 103.59,-76.053"/>
<text text-anchor="middle" x="91.6" y="-88.4157" font-family="Times New Roman,serif" font-size="14.00">n</text>
</g>
<!-- 1 -->
<g id="node3" class="node"><title>1</title>
<ellipse fill="none" stroke="black" cx="183.6" cy="-48.6157" rx="18" ry="18"/>
<ellipse fill="none" stroke="black" cx="183.6" cy="-48.6157" rx="22" ry="22"/>
<text text-anchor="middle" x="183.6" y="-44.9157" font-family="Times New Roman,serif" font-size="14.00">1</text>
</g>
<!-- 0&#45;&gt;1 -->
<g id="edge7" class="edge"><title>0&#45;&gt;1</title>
<path fill="none" stroke="black" d="M118.632,-48.6157C128.833,-48.6157 140.626,-48.6157 151.287,-48.6157"/>
<polygon fill="black" stroke="black" points="151.469,-52.1158 161.469,-48.6157 151.469,-45.1158 151.469,-52.1158"/>
<text text-anchor="middle" x="140.1" y="-52.4157" font-family="Times New Roman,serif" font-size="14.00">u</text>
</g>
<!-- 2 -->
<g id="node4" class="node"><title>2</title>
<ellipse fill="none" stroke="black" cx="345.6" cy="-45.6157" rx="18" ry="18"/>
<text text-anchor="middle" x="345.6" y="-41.9157" font-family="Times New Roman,serif" font-size="14.00">2</text>
</g>
<!-- 1&#45;&gt;2 -->
<g id="edge9" class="edge"><title>1&#45;&gt;2</title>
<path fill="none" stroke="black" d="M203.829,-57.6251C210.064,-60.3763 217.059,-63.2869 223.6,-65.6157 249.308,-74.7686 257.637,-76.8245 284.6,-72.6157 297.216,-70.6463 310.254,-65.249 320.94,-59.7928"/>
<polygon fill="black" stroke="black" points="322.898,-62.7122 330.013,-54.8621 319.556,-56.5617 322.898,-62.7122"/>
<text text-anchor="middle" x="266.6" y="-78.4157" font-family="Times New Roman,serif" font-size="14.00">u</text>
</g>
<!-- 3 -->
<g id="node5" class="node"><title>3</title>
<ellipse fill="none" stroke="black" cx="266.6" cy="-45.6157" rx="18" ry="18"/>
<text text-anchor="middle" x="266.6" y="-41.9157" font-family="Times New Roman,serif" font-size="14.00">3</text>
</g>
<!-- 1&#45;&gt;3 -->
<g id="edge8" class="edge"><title>1&#45;&gt;3</title>
<path fill="none" stroke="black" d="M205.882,-47.8274C215.866,-47.4577 227.878,-47.0128 238.503,-46.6192"/>
<polygon fill="black" stroke="black" points="238.676,-50.1153 248.539,-46.2475 238.417,-43.1201 238.676,-50.1153"/>
<text text-anchor="middle" x="227.1" y="-50.4157" font-family="Times New Roman,serif" font-size="14.00">n</text>
</g>
<!-- 2&#45;&gt;1 -->
<g id="edge3" class="edge"><title>2&#45;&gt;1</title>
<path fill="none" stroke="black" d="M332.065,-33.3296C320.729,-23.1433 303.033,-9.42613 284.6,-3.61566 269.34,1.19457 263.855,1.21055 248.6,-3.61566 233.594,-8.36315 219.06,-18.0325 207.646,-27.1953"/>
<polygon fill="black" stroke="black" points="205.317,-24.5809 199.923,-33.7002 209.826,-29.9347 205.317,-24.5809"/>
<text text-anchor="middle" x="266.6" y="-7.41566" font-family="Times New Roman,serif" font-size="14.00">u</text>
</g>
<!-- 2&#45;&gt;2 -->
<g id="edge2" class="edge"><title>2&#45;&gt;2</title>
<path fill="none" stroke="black" d="M338.866,-62.653C337.492,-72.4736 339.737,-81.6157 345.6,-81.6157 349.265,-81.6157 351.516,-78.0445 352.353,-72.9686"/>
<polygon fill="black" stroke="black" points="355.852,-72.6464 352.334,-62.653 348.852,-72.6595 355.852,-72.6464"/>
<text text-anchor="middle" x="345.6" y="-85.4157" font-family="Times New Roman,serif" font-size="14.00">n</text>
</g>
<!-- 3&#45;&gt;1 -->
<g id="edge5" class="edge"><title>3&#45;&gt;1</title>
<path fill="none" stroke="black" d="M251.095,-36.1214C243.125,-32.0109 232.977,-28.556 223.6,-30.6157 219.885,-31.4315 216.103,-32.6367 212.427,-34.0437"/>
<polygon fill="black" stroke="black" points="210.843,-30.9157 203.066,-38.1107 213.633,-37.336 210.843,-30.9157"/>
<text text-anchor="middle" x="227.1" y="-34.4157" font-family="Times New Roman,serif" font-size="14.00">u</text>
</g>
<!-- 3&#45;&gt;2 -->
<g id="edge4" class="edge"><title>3&#45;&gt;2</title>
<path fill="none" stroke="black" d="M284.689,-45.6157C294.259,-45.6157 306.417,-45.6157 317.277,-45.6157"/>
<polygon fill="black" stroke="black" points="317.559,-49.1158 327.559,-45.6157 317.559,-42.1158 317.559,-49.1158"/>
<text text-anchor="middle" x="306.1" y="-49.4157" font-family="Times New Roman,serif" font-size="14.00">n</text>
</g>
</g>
</svg>
