<?xml version="1.0" encoding="UTF-8" standalone="no"?>
<!DOCTYPE svg PUBLIC "-//W3C//DTD SVG 1.1//EN"
 "http://www.w3.org/Graphics/SVG/1.1/DTD/svg11.dtd">
<!-- Generated by graphviz version 2.38.0 (20140413.2041)
 -->
<!-- Title: dfa Pages: 1 -->
<svg width="354pt" height="108pt"
 viewBox="0.00 0.00 353.60 107.62" xmlns="http://www.w3.org/2000/svg" xmlns:xlink="http://www.w3.org/1999/xlink">
<g id="graph0" class="graph" transform="scale(1 1) rotate(0) translate(4 103.616)">
<title>dfa</title>
<polygon fill="white" stroke="none" points="-4,4 -4,-103.616 349.6,-103.616 349.6,4 -4,4"/>
<!-- __start -->
<!-- 0 -->
<g id="node2" class="node"><title>0</title>
<ellipse fill="none" stroke="black" cx="82.6" cy="-48.6157" rx="18" ry="18"/>
<text text-anchor="middle" x="82.6" y="-44.9157" font-family="Times New Roman,serif" font-size="14.00">0</text>
</g>
<!-- __start&#45;&gt;0 -->
<g id="edge1" class="edge"><title>__start&#45;&gt;0</title>
<path fill="none" stroke="black" d="M3.68496,-48.6157C8.69573,-48.6157 34.008,-48.6157 54.4423,-48.6157"/>
<polygon fill="black" stroke="black" points="54.5501,-52.1158 64.5501,-48.6157 54.5501,-45.1158 54.5501,-52.1158"/>
<text text-anchor="middle" x="34.1" y="-52.4157" font-family="Times New Roman,serif" font-size="14.00">start</text>
</g>
<!-- 0&#45;&gt;0 -->
<g id="edge6" class="edge"><title>0&#45;&gt;0</title>
<path fill="none" stroke="black" d="M75.8664,-65.653C74.4922,-75.4736 76.7367,-84.6157 82.6,-84.6157 86.2646,-84.6157 88.5155,-81.0445 89.3529,-75.9686"/>
<polygon fill="black" stroke="black" points="92.8524,-75.6464 89.3336,-65.653 85.8524,-75.6595 92.8524,-75.6464"/>
<text text-anchor="middle" x="82.6" y="-88.4157" font-family="Times New Roman,serif" font-size="14.00">n</text>
</g>
<!-- 1 -->
<g id="node3" class="node"><title>1</title>
<ellipse fill="none" stroke="black" cx="165.6" cy="-48.6157" rx="18" ry="18"/>
<ellipse fill="none" stroke="black" cx="165.6" cy="-48.6157" rx="22" ry="22"/>
<text text-anchor="middle" x="165.6" y="-44.9157" font-family="Times New Roman,serif" font-size="14.00">1</text>
</g>
<!-- 0&#45;&gt;1 -->
<g id="edge7" class="edge"><title>0&#45;&gt;1</title>
<path fill="none" stroke="black" d="M100.778,-48.6157C110.21,-48.6157 122.201,-48.6157 133.237,-48.6157"/>
<polygon fill="black" stroke="black" points="133.411,-52.1158 143.411,-48.6157 133.411,-45.1158 133.411,-52.1158"/>
<text text-anchor="middle" x="122.1" y="-52.4157" font-family="Times New Roman,serif" font-size="14.00">u</text>
</g>
<!-- 2 -->
<g id="node4" class="node"><title>2</title>
<ellipse fill="none" stroke="black" cx="327.6" cy="-45.6157" rx="18" ry="18"/>
<text text-anchor="middle" x="327.6" y="-41.9157" font-family="Times New Roman,serif" font-size="14.00">2</text>
</g>
<!-- 1&#45;&gt;2 -->
<g id="edge9" class="edge"><title>1&#45;&gt;2</title>
<path fill="none" stroke="black" d="M185.829,-57.6251C192.064,-60.3763 199.059,-63.2869 205.6,-65.6157 231.308,-74.7686 239.637,-76.8245 266.6,-72.6157 279.216,-70.6463 292.254,-65.249 302.94,-59.7928"/>
<polygon fill="black" stroke="black" points="304.898,-62.7122 312.013,-54.8621 301.556,-56.5617 304.898,-62.7122"/>
<text text-anchor="middle" x="248.6" y="-78.4157" font-family="Times New Roman,serif" font-size="14.00">u</text>
</g>
<!-- 3 -->
<g id="node5" class="node"><title>3</title>
<ellipse fill="none" stroke="black" cx="248.6" cy="-45.6157" rx="18" ry="18"/>
<text text-anchor="middle" x="248.6" y="-41.9157" font-family="Times New Roman,serif" font-size="14.00">3</text>
</g>
<!-- 1&#45;&gt;3 -->
<g id="edge8" class="edge"><title>1&#45;&gt;3</title>
<path fill="none" stroke="black" d="M187.882,-47.8274C197.866,-47.4577 209.878,-47.0128 220.503,-46.6192"/>
<polygon fill="black" stroke="black" points="220.676,-50.1153 230.539,-46.2475 220.417,-43.1201 220.676,-50.1153"/>
<text text-anchor="middle" x="209.1" y="-50.4157" font-family="Times New Roman,serif" font-size="14.00">n</text>
</g>
<!-- 2&#45;&gt;1 -->
<g id="edge3" class="edge"><title>2&#45;&gt;1</title>
<path fill="none" stroke="black" d="M314.065,-33.3296C302.729,-23.1433 285.033,-9.42613 266.6,-3.61566 251.34,1.19457 245.855,1.21055 230.6,-3.61566 215.594,-8.36315 201.06,-18.0325 189.646,-27.1953"/>
<polygon fill="black" stroke="black" points="187.317,-24.5809 181.923,-33.7002 191.826,-29.9347 187.317,-24.5809"/>
<text text-anchor="middle" x="248.6" y="-7.41566" font-family="Times New Roman,serif" font-size="14.00">u</text>
</g>
<!-- 2&#45;&gt;2 -->
<g id="edge2" class="edge"><title>2&#45;&gt;2</title>
<path fill="none" stroke="black" d="M320.866,-62.653C319.492,-72.4736 321.737,-81.6157 327.6,-81.6157 331.265,-81.6157 333.516,-78.0445 334.353,-72.9686"/>
<polygon fill="black" stroke="black" points="337.852,-72.6464 334.334,-62.653 330.852,-72.6595 337.852,-72.6464"/>
<text text-anchor="middle" x="327.6" y="-85.4157" font-family="Times New Roman,serif" font-size="14.00">n</text>
</g>
<!-- 3&#45;&gt;1 -->
<g id="edge5" class="edge"><title>3&#45;&gt;1</title>
<path fill="none" stroke="black" d="M233.095,-36.1214C225.125,-32.0109 214.977,-28.556 205.6,-30.6157 201.885,-31.4315 198.103,-32.6367 194.427,-34.0437"/>
<polygon fill="black" stroke="black" points="192.843,-30.9157 185.066,-38.1107 195.633,-37.336 192.843,-30.9157"/>
<text text-anchor="middle" x="209.1" y="-34.4157" font-family="Times New Roman,serif" font-size="14.00">u</text>
</g>
<!-- 3&#45;&gt;2 -->
<g id="edge4" class="edge"><title>3&#45;&gt;2</title>
<path fill="none" stroke="black" d="M266.689,-45.6157C276.259,-45.6157 288.417,-45.6157 299.277,-45.6157"/>
<polygon fill="black" stroke="black" points="299.559,-49.1158 309.559,-45.6157 299.559,-42.1158 299.559,-49.1158"/>
<text text-anchor="middle" x="288.1" y="-49.4157" font-family="Times New Roman,serif" font-size="14.00">n</text>
</g>
</g>
</svg>
