<?xml version="1.0" encoding="UTF-8" standalone="no"?>
<!DOCTYPE svg PUBLIC "-//W3C//DTD SVG 1.1//EN"
 "http://www.w3.org/Graphics/SVG/1.1/DTD/svg11.dtd">
<!-- Generated by graphviz version 2.38.0 (20140413.2041)
 -->
<!-- Title: dfa Pages: 1 -->
<svg width="479pt" height="174pt"
 viewBox="0.00 0.00 478.60 174.00" xmlns="http://www.w3.org/2000/svg" xmlns:xlink="http://www.w3.org/1999/xlink">
<g id="graph0" class="graph" transform="scale(1 1) rotate(0) translate(4 170)">
<title>dfa</title>
<polygon fill="white" stroke="none" points="-4,4 -4,-170 474.6,-170 474.6,4 -4,4"/>
<!-- __start -->
<!-- 0 -->
<g id="node2" class="node"><title>0</title>
<ellipse fill="none" stroke="black" cx="91.6" cy="-89" rx="27" ry="18"/>
<text text-anchor="middle" x="91.6" y="-85.3" font-family="Times New Roman,serif" font-size="14.00">0</text>
</g>
<!-- __start&#45;&gt;0 -->
<g id="edge1" class="edge"><title>__start&#45;&gt;0</title>
<path fill="none" stroke="black" d="M3.78604,-89C8.86985,-89 32.7092,-89 54.1222,-89"/>
<polygon fill="black" stroke="black" points="54.3463,-92.5001 64.3463,-89 54.3463,-85.5001 54.3463,-92.5001"/>
<text text-anchor="middle" x="34.1" y="-92.8" font-family="Times New Roman,serif" font-size="14.00">start</text>
</g>
<!-- 0&#45;&gt;0 -->
<g id="edge4" class="edge"><title>0&#45;&gt;0</title>
<path fill="none" stroke="black" d="M83.0307,-106.41C81.4311,-116.088 84.2875,-125 91.6,-125 96.1703,-125 99,-121.519 100.089,-116.545"/>
<polygon fill="black" stroke="black" points="103.59,-116.437 100.169,-106.41 96.5901,-116.382 103.59,-116.437"/>
<text text-anchor="middle" x="91.6" y="-128.8" font-family="Times New Roman,serif" font-size="14.00">d</text>
</g>
<!-- 3 -->
<g id="node3" class="node"><title>3</title>
<ellipse fill="none" stroke="black" cx="184.6" cy="-144" rx="18" ry="18"/>
<ellipse fill="none" stroke="black" cx="184.6" cy="-144" rx="22" ry="22"/>
<text text-anchor="middle" x="184.6" y="-140.3" font-family="Times New Roman,serif" font-size="14.00">3</text>
</g>
<!-- 0&#45;&gt;3 -->
<g id="edge5" class="edge"><title>0&#45;&gt;3</title>
<path fill="none" stroke="black" d="M102.784,-105.485C110.594,-116.608 122.425,-130.565 136.6,-138 141.394,-140.515 146.83,-142.133 152.26,-143.149"/>
<polygon fill="black" stroke="black" points="152.167,-146.665 162.526,-144.44 153.041,-139.72 152.167,-146.665"/>
<text text-anchor="middle" x="140.6" y="-143.8" font-family="Times New Roman,serif" font-size="14.00">p</text>
</g>
<!-- 3&#45;&gt;0 -->
<g id="edge8" class="edge"><title>3&#45;&gt;0</title>
<path fill="none" stroke="black" d="M165.848,-132.373C159.223,-128.099 151.608,-123.264 144.6,-119 137.338,-114.581 129.425,-109.933 122.013,-105.649"/>
<polygon fill="black" stroke="black" points="123.394,-102.407 112.979,-100.464 119.91,-108.478 123.394,-102.407"/>
<text text-anchor="middle" x="140.6" y="-122.8" font-family="Times New Roman,serif" font-size="14.00">d</text>
</g>
<!-- 4 -->
<g id="node4" class="node"><title>4</title>
<ellipse fill="none" stroke="black" cx="272.6" cy="-93" rx="18" ry="18"/>
<ellipse fill="none" stroke="black" cx="272.6" cy="-93" rx="22" ry="22"/>
<text text-anchor="middle" x="272.6" y="-89.3" font-family="Times New Roman,serif" font-size="14.00">4</text>
</g>
<!-- 3&#45;&gt;4 -->
<g id="edge9" class="edge"><title>3&#45;&gt;4</title>
<path fill="none" stroke="black" d="M203.838,-133.184C215.696,-126.152 231.366,-116.86 244.649,-108.983"/>
<polygon fill="black" stroke="black" points="246.572,-111.911 253.388,-103.8 243.001,-105.891 246.572,-111.911"/>
<text text-anchor="middle" x="228.6" y="-123.8" font-family="Times New Roman,serif" font-size="14.00">p</text>
</g>
<!-- 4&#45;&gt;0 -->
<g id="edge10" class="edge"><title>4&#45;&gt;0</title>
<path fill="none" stroke="black" d="M250.573,-92.5301C220.676,-91.862 165.459,-90.6281 128.875,-89.8106"/>
<polygon fill="black" stroke="black" points="128.704,-86.306 118.628,-89.5816 128.547,-93.3043 128.704,-86.306"/>
<text text-anchor="middle" x="184.6" y="-94.8" font-family="Times New Roman,serif" font-size="14.00">d</text>
</g>
<!-- 1 -->
<g id="node5" class="node"><title>1</title>
<ellipse fill="none" stroke="black" cx="360.6" cy="-60" rx="18" ry="18"/>
<ellipse fill="none" stroke="black" cx="360.6" cy="-60" rx="22" ry="22"/>
<text text-anchor="middle" x="360.6" y="-56.3" font-family="Times New Roman,serif" font-size="14.00">1</text>
</g>
<!-- 4&#45;&gt;1 -->
<g id="edge11" class="edge"><title>4&#45;&gt;1</title>
<path fill="none" stroke="black" d="M293.546,-85.3462C304.401,-81.1812 318.037,-75.9485 330.098,-71.3207"/>
<polygon fill="black" stroke="black" points="331.68,-74.4626 339.762,-67.6123 329.172,-67.9272 331.68,-74.4626"/>
<text text-anchor="middle" x="316.6" y="-80.8" font-family="Times New Roman,serif" font-size="14.00">p</text>
</g>
<!-- 1&#45;&gt;0 -->
<g id="edge2" class="edge"><title>1&#45;&gt;0</title>
<path fill="none" stroke="black" d="M338.243,-59.4427C316.229,-59.0907 280.938,-59.1459 250.6,-62 207.91,-66.016 159.371,-74.9788 127.489,-81.4787"/>
<polygon fill="black" stroke="black" points="126.431,-78.1235 117.348,-83.5779 127.85,-84.9782 126.431,-78.1235"/>
<text text-anchor="middle" x="228.6" y="-67.8" font-family="Times New Roman,serif" font-size="14.00">d</text>
</g>
<!-- 2 -->
<g id="node6" class="node"><title>2</title>
<ellipse fill="none" stroke="black" cx="448.6" cy="-33" rx="18" ry="18"/>
<ellipse fill="none" stroke="black" cx="448.6" cy="-33" rx="22" ry="22"/>
<text text-anchor="middle" x="448.6" y="-29.3" font-family="Times New Roman,serif" font-size="14.00">2</text>
</g>
<!-- 1&#45;&gt;2 -->
<g id="edge3" class="edge"><title>1&#45;&gt;2</title>
<path fill="none" stroke="black" d="M382.385,-55.8837C390.627,-54.0577 400.139,-51.7066 408.6,-49 411.806,-47.9743 415.12,-46.8006 418.398,-45.5652"/>
<polygon fill="black" stroke="black" points="419.982,-48.7021 427.986,-41.7602 417.4,-42.1958 419.982,-48.7021"/>
<text text-anchor="middle" x="404.6" y="-54.8" font-family="Times New Roman,serif" font-size="14.00">p</text>
</g>
<!-- 2&#45;&gt;0 -->
<g id="edge6" class="edge"><title>2&#45;&gt;0</title>
<path fill="none" stroke="black" d="M429.579,-21.6433C412.686,-12.0975 386.388,-0 361.6,-0 183.6,-0 183.6,-0 183.6,-0 147.386,-0 120.246,-36.47 105.403,-62.7184"/>
<polygon fill="black" stroke="black" points="102.151,-61.3751 100.497,-71.8399 108.316,-64.6911 102.151,-61.3751"/>
<text text-anchor="middle" x="272.6" y="-3.8" font-family="Times New Roman,serif" font-size="14.00">d</text>
</g>
<!-- 2&#45;&gt;1 -->
<g id="edge7" class="edge"><title>2&#45;&gt;1</title>
<path fill="none" stroke="black" d="M427.02,-28.3002C418.631,-27.2462 408.96,-27.1565 400.6,-30 395.141,-31.8567 389.849,-34.82 385.016,-38.1772"/>
<polygon fill="black" stroke="black" points="382.632,-35.5972 376.875,-44.4917 386.922,-41.1284 382.632,-35.5972"/>
<text text-anchor="middle" x="404.6" y="-33.8" font-family="Times New Roman,serif" font-size="14.00">p</text>
</g>
</g>
</svg>
