<?xml version="1.0" encoding="UTF-8" standalone="no"?>
<!DOCTYPE svg PUBLIC "-//W3C//DTD SVG 1.1//EN"
 "http://www.w3.org/Graphics/SVG/1.1/DTD/svg11.dtd">
<!-- Generated by graphviz version 2.38.0 (20140413.2041)
 -->
<!-- Title: dfa Pages: 1 -->
<svg width="277pt" height="133pt"
 viewBox="0.00 0.00 276.60 132.51" xmlns="http://www.w3.org/2000/svg" xmlns:xlink="http://www.w3.org/1999/xlink">
<g id="graph0" class="graph" transform="scale(1 1) rotate(0) translate(4 128.507)">
<title>dfa</title>
<polygon fill="white" stroke="none" points="-4,4 -4,-128.507 272.6,-128.507 272.6,4 -4,4"/>
<!-- __start -->
<!-- 0 -->
<g id="node2" class="node"><title>0</title>
<ellipse fill="none" stroke="black" cx="82.6" cy="-45.5072" rx="18" ry="18"/>
<text text-anchor="middle" x="82.6" y="-41.8072" font-family="Times New Roman,serif" font-size="14.00">0</text>
</g>
<!-- __start&#45;&gt;0 -->
<g id="edge1" class="edge"><title>__start&#45;&gt;0</title>
<path fill="none" stroke="black" d="M3.68496,-45.5072C8.69573,-45.5072 34.008,-45.5072 54.4423,-45.5072"/>
<polygon fill="black" stroke="black" points="54.5501,-49.0073 64.5501,-45.5072 54.5501,-42.0073 54.5501,-49.0073"/>
<text text-anchor="middle" x="34.1" y="-49.3072" font-family="Times New Roman,serif" font-size="14.00">start</text>
</g>
<!-- 1 -->
<g id="node3" class="node"><title>1</title>
<ellipse fill="none" stroke="black" cx="246.6" cy="-45.5072" rx="18" ry="18"/>
<ellipse fill="none" stroke="black" cx="246.6" cy="-45.5072" rx="22" ry="22"/>
<text text-anchor="middle" x="246.6" y="-41.8072" font-family="Times New Roman,serif" font-size="14.00">1</text>
</g>
<!-- 0&#45;&gt;1 -->
<g id="edge7" class="edge"><title>0&#45;&gt;1</title>
<path fill="none" stroke="black" d="M93.2255,-60.1475C103.817,-74.7847 122.329,-96.3901 144.6,-105.507 159.407,-111.569 165.698,-111.333 180.6,-105.507 198.604,-98.4679 214.618,-83.845 226.246,-70.798"/>
<polygon fill="black" stroke="black" points="229.096,-72.8491 232.898,-62.96 223.759,-68.3197 229.096,-72.8491"/>
<text text-anchor="middle" x="162.6" y="-113.307" font-family="Times New Roman,serif" font-size="14.00">p</text>
</g>
<!-- 2 -->
<g id="node4" class="node"><title>2</title>
<ellipse fill="none" stroke="black" cx="162.6" cy="-45.5072" rx="18" ry="18"/>
<text text-anchor="middle" x="162.6" y="-41.8072" font-family="Times New Roman,serif" font-size="14.00">2</text>
</g>
<!-- 0&#45;&gt;2 -->
<g id="edge6" class="edge"><title>0&#45;&gt;2</title>
<path fill="none" stroke="black" d="M100.911,-45.5072C110.706,-45.5072 123.178,-45.5072 134.265,-45.5072"/>
<polygon fill="black" stroke="black" points="134.338,-49.0073 144.338,-45.5072 134.338,-42.0073 134.338,-49.0073"/>
<text text-anchor="middle" x="122.6" y="-49.3072" font-family="Times New Roman,serif" font-size="14.00">d</text>
</g>
<!-- 1&#45;&gt;0 -->
<g id="edge2" class="edge"><title>1&#45;&gt;0</title>
<path fill="none" stroke="black" d="M229.558,-31.3589C217.15,-21.411 199.028,-8.94284 180.6,-3.50722 165.254,1.01944 159.878,1.24389 144.6,-3.50722 129.728,-8.13183 115.274,-17.7826 104.171,-26.668"/>
<polygon fill="black" stroke="black" points="101.783,-24.1028 96.3824,-33.2176 106.289,-29.4603 101.783,-24.1028"/>
<text text-anchor="middle" x="162.6" y="-7.30722" font-family="Times New Roman,serif" font-size="14.00">d</text>
</g>
<!-- 1&#45;&gt;1 -->
<g id="edge3" class="edge"><title>1&#45;&gt;1</title>
<path fill="none" stroke="black" d="M238.594,-66.088C237.486,-76.3519 240.155,-85.5072 246.6,-85.5072 250.729,-85.5072 253.308,-81.7499 254.337,-76.3508"/>
<polygon fill="black" stroke="black" points="257.843,-76.1763 254.606,-66.088 250.845,-75.9929 257.843,-76.1763"/>
<text text-anchor="middle" x="246.6" y="-89.3072" font-family="Times New Roman,serif" font-size="14.00">p</text>
</g>
<!-- 2&#45;&gt;1 -->
<g id="edge5" class="edge"><title>2&#45;&gt;1</title>
<path fill="none" stroke="black" d="M180.99,-45.5072C190.708,-45.5072 203.111,-45.5072 214.447,-45.5072"/>
<polygon fill="black" stroke="black" points="214.45,-49.0073 224.45,-45.5072 214.45,-42.0073 214.45,-49.0073"/>
<text text-anchor="middle" x="202.6" y="-49.3072" font-family="Times New Roman,serif" font-size="14.00">p</text>
</g>
<!-- 2&#45;&gt;2 -->
<g id="edge4" class="edge"><title>2&#45;&gt;2</title>
<path fill="none" stroke="black" d="M155.569,-62.1713C154.006,-72.1322 156.35,-81.5072 162.6,-81.5072 166.604,-81.5072 169.005,-77.6597 169.802,-72.2755"/>
<polygon fill="black" stroke="black" points="173.3,-72.1106 169.631,-62.1713 166.301,-72.2291 173.3,-72.1106"/>
<text text-anchor="middle" x="162.6" y="-85.3072" font-family="Times New Roman,serif" font-size="14.00">d</text>
</g>
</g>
</svg>
