<?xml version="1.0" encoding="UTF-8" standalone="no"?>
<!DOCTYPE svg PUBLIC "-//W3C//DTD SVG 1.1//EN"
 "http://www.w3.org/Graphics/SVG/1.1/DTD/svg11.dtd">
<!-- Generated by graphviz version 2.38.0 (20140413.2041)
 -->
<!-- Title: dfa Pages: 1 -->
<svg width="295pt" height="132pt"
 viewBox="0.00 0.00 294.60 132.33" xmlns="http://www.w3.org/2000/svg" xmlns:xlink="http://www.w3.org/1999/xlink">
<g id="graph0" class="graph" transform="scale(1 1) rotate(0) translate(4 128.331)">
<title>dfa</title>
<polygon fill="white" stroke="none" points="-4,4 -4,-128.331 290.6,-128.331 290.6,4 -4,4"/>
<!-- __start -->
<!-- 0 -->
<g id="node2" class="node"><title>0</title>
<ellipse fill="none" stroke="black" cx="91.6" cy="-45.3311" rx="27" ry="18"/>
<text text-anchor="middle" x="91.6" y="-41.6311" font-family="Times New Roman,serif" font-size="14.00">0</text>
</g>
<!-- __start&#45;&gt;0 -->
<g id="edge1" class="edge"><title>__start&#45;&gt;0</title>
<path fill="none" stroke="black" d="M3.78604,-45.3311C8.86985,-45.3311 32.7092,-45.3311 54.1222,-45.3311"/>
<polygon fill="black" stroke="black" points="54.3463,-48.8312 64.3463,-45.3311 54.3463,-41.8312 54.3463,-48.8312"/>
<text text-anchor="middle" x="34.1" y="-49.1311" font-family="Times New Roman,serif" font-size="14.00">start</text>
</g>
<!-- 1 -->
<g id="node3" class="node"><title>1</title>
<ellipse fill="none" stroke="black" cx="264.6" cy="-45.3311" rx="18" ry="18"/>
<ellipse fill="none" stroke="black" cx="264.6" cy="-45.3311" rx="22" ry="22"/>
<text text-anchor="middle" x="264.6" y="-41.6311" font-family="Times New Roman,serif" font-size="14.00">1</text>
</g>
<!-- 0&#45;&gt;1 -->
<g id="edge7" class="edge"><title>0&#45;&gt;1</title>
<path fill="none" stroke="black" d="M105.093,-61.1199C117.776,-75.7581 138.881,-96.5569 162.6,-105.331 177.606,-110.882 183.698,-111.157 198.6,-105.331 216.604,-98.2918 232.618,-83.6688 244.246,-70.6219"/>
<polygon fill="black" stroke="black" points="247.096,-72.673 250.898,-62.7838 241.759,-68.1435 247.096,-72.673"/>
<text text-anchor="middle" x="180.6" y="-113.131" font-family="Times New Roman,serif" font-size="14.00">p</text>
</g>
<!-- 2 -->
<g id="node4" class="node"><title>2</title>
<ellipse fill="none" stroke="black" cx="180.6" cy="-45.3311" rx="18" ry="18"/>
<text text-anchor="middle" x="180.6" y="-41.6311" font-family="Times New Roman,serif" font-size="14.00">2</text>
</g>
<!-- 0&#45;&gt;2 -->
<g id="edge6" class="edge"><title>0&#45;&gt;2</title>
<path fill="none" stroke="black" d="M118.703,-45.3311C129.364,-45.3311 141.694,-45.3311 152.459,-45.3311"/>
<polygon fill="black" stroke="black" points="152.583,-48.8312 162.583,-45.3311 152.583,-41.8312 152.583,-48.8312"/>
<text text-anchor="middle" x="140.6" y="-49.1311" font-family="Times New Roman,serif" font-size="14.00">d</text>
</g>
<!-- 1&#45;&gt;0 -->
<g id="edge2" class="edge"><title>1&#45;&gt;0</title>
<path fill="none" stroke="black" d="M247.558,-31.1828C235.15,-21.2348 217.028,-8.76668 198.6,-3.33107 183.254,1.1956 178.019,0.939872 162.6,-3.33107 146.509,-7.78803 130.403,-17.0379 117.704,-25.7253"/>
<polygon fill="black" stroke="black" points="115.603,-22.9246 109.498,-31.5839 119.671,-28.6215 115.603,-22.9246"/>
<text text-anchor="middle" x="180.6" y="-7.13107" font-family="Times New Roman,serif" font-size="14.00">d</text>
</g>
<!-- 1&#45;&gt;1 -->
<g id="edge3" class="edge"><title>1&#45;&gt;1</title>
<path fill="none" stroke="black" d="M256.594,-65.9119C255.486,-76.1758 258.155,-85.3311 264.6,-85.3311 268.729,-85.3311 271.308,-81.5737 272.337,-76.1746"/>
<polygon fill="black" stroke="black" points="275.843,-76.0001 272.606,-65.9119 268.845,-75.8167 275.843,-76.0001"/>
<text text-anchor="middle" x="264.6" y="-89.1311" font-family="Times New Roman,serif" font-size="14.00">p</text>
</g>
<!-- 2&#45;&gt;1 -->
<g id="edge5" class="edge"><title>2&#45;&gt;1</title>
<path fill="none" stroke="black" d="M198.99,-45.3311C208.708,-45.3311 221.111,-45.3311 232.447,-45.3311"/>
<polygon fill="black" stroke="black" points="232.45,-48.8312 242.45,-45.3311 232.45,-41.8312 232.45,-48.8312"/>
<text text-anchor="middle" x="220.6" y="-49.1311" font-family="Times New Roman,serif" font-size="14.00">p</text>
</g>
<!-- 2&#45;&gt;2 -->
<g id="edge4" class="edge"><title>2&#45;&gt;2</title>
<path fill="none" stroke="black" d="M173.569,-61.9951C172.006,-71.9561 174.35,-81.3311 180.6,-81.3311 184.604,-81.3311 187.005,-77.4836 187.802,-72.0993"/>
<polygon fill="black" stroke="black" points="191.3,-71.9344 187.631,-61.9951 184.301,-72.053 191.3,-71.9344"/>
<text text-anchor="middle" x="180.6" y="-85.1311" font-family="Times New Roman,serif" font-size="14.00">d</text>
</g>
</g>
</svg>
