<?xml version="1.0" encoding="UTF-8" standalone="no"?>
<!DOCTYPE svg PUBLIC "-//W3C//DTD SVG 1.1//EN"
 "http://www.w3.org/Graphics/SVG/1.1/DTD/svg11.dtd">
<!-- Generated by graphviz version 2.38.0 (20140413.2041)
 -->
<!-- Title: enfa Pages: 1 -->
<svg width="287pt" height="46pt"
 viewBox="0.00 0.00 286.60 46.31" xmlns="http://www.w3.org/2000/svg" xmlns:xlink="http://www.w3.org/1999/xlink">
<g id="graph0" class="graph" transform="scale(1 1) rotate(0) translate(4 42.3057)">
<title>enfa</title>
<polygon fill="white" stroke="none" points="-4,4 -4,-42.3057 282.6,-42.3057 282.6,4 -4,4"/>
<!-- __start -->
<!-- 0 -->
<g id="node2" class="node"><title>0</title>
<ellipse fill="none" stroke="black" cx="91.6" cy="-20.3057" rx="27" ry="18"/>
<text text-anchor="middle" x="91.6" y="-16.6057" font-family="Times New Roman,serif" font-size="14.00">0</text>
</g>
<!-- __start&#45;&gt;0 -->
<g id="edge1" class="edge"><title>__start&#45;&gt;0</title>
<path fill="none" stroke="black" d="M3.78604,-20.3057C8.86985,-20.3057 32.7092,-20.3057 54.1222,-20.3057"/>
<polygon fill="black" stroke="black" points="54.3463,-23.8058 64.3463,-20.3057 54.3463,-16.8058 54.3463,-23.8058"/>
<text text-anchor="middle" x="34.1" y="-24.1057" font-family="Times New Roman,serif" font-size="14.00">start</text>
</g>
<!-- 1 -->
<g id="node3" class="node"><title>1</title>
<ellipse fill="none" stroke="black" cx="180.6" cy="-20.3057" rx="18" ry="18"/>
<text text-anchor="middle" x="180.6" y="-16.6057" font-family="Times New Roman,serif" font-size="14.00">1</text>
</g>
<!-- 0&#45;&gt;1 -->
<g id="edge4" class="edge"><title>0&#45;&gt;1</title>
<path fill="none" stroke="black" d="M118.703,-20.3057C129.364,-20.3057 141.694,-20.3057 152.459,-20.3057"/>
<polygon fill="black" stroke="black" points="152.583,-23.8058 162.583,-20.3057 152.583,-16.8058 152.583,-23.8058"/>
<text text-anchor="middle" x="140.6" y="-24.1057" font-family="Times New Roman,serif" font-size="14.00">q</text>
</g>
<!-- 1&#45;&gt;0 -->
<g id="edge3" class="edge"><title>1&#45;&gt;0</title>
<path fill="none" stroke="black" d="M164.883,-10.7633C158.85,-7.38869 151.64,-4.00974 144.6,-2.30565 136.853,-0.430228 128.632,-1.68943 121.069,-4.23916"/>
<polygon fill="black" stroke="black" points="119.488,-1.1058 111.6,-8.1793 122.178,-7.56853 119.488,-1.1058"/>
<text text-anchor="middle" x="140.6" y="-6.10565" font-family="Times New Roman,serif" font-size="14.00">i</text>
</g>
<!-- 2 -->
<g id="node4" class="node"><title>2</title>
<ellipse fill="none" stroke="black" cx="260.6" cy="-20.3057" rx="18" ry="18"/>
<text text-anchor="middle" x="260.6" y="-16.6057" font-family="Times New Roman,serif" font-size="14.00">2</text>
</g>
<!-- 1&#45;&gt;2 -->
<g id="edge2" class="edge"><title>1&#45;&gt;2</title>
<path fill="none" stroke="black" d="M198.911,-20.3057C208.706,-20.3057 221.178,-20.3057 232.265,-20.3057"/>
<polygon fill="black" stroke="black" points="232.338,-23.8058 242.338,-20.3057 232.338,-16.8058 232.338,-23.8058"/>
<text text-anchor="middle" x="220.6" y="-24.1057" font-family="Times New Roman,serif" font-size="14.00">i</text>
</g>
<!-- 2&#45;&gt;1 -->
<g id="edge5" class="edge"><title>2&#45;&gt;1</title>
<path fill="none" stroke="black" d="M246.077,-9.13054C237.812,-3.63475 226.884,1.30565 216.6,-1.30565 212.642,-2.31069 208.647,-3.86331 204.844,-5.65736"/>
<polygon fill="black" stroke="black" points="203.075,-2.6341 195.911,-10.4399 206.379,-8.80522 203.075,-2.6341"/>
<text text-anchor="middle" x="220.6" y="-5.10565" font-family="Times New Roman,serif" font-size="14.00">q</text>
</g>
</g>
</svg>
