<?xml version="1.0" encoding="UTF-8" standalone="no"?>
<!DOCTYPE svg PUBLIC "-//W3C//DTD SVG 1.1//EN"
 "http://www.w3.org/Graphics/SVG/1.1/DTD/svg11.dtd">
<!-- Generated by graphviz version 2.38.0 (20140413.2041)
 -->
<!-- Title: enfa Pages: 1 -->
<svg width="277pt" height="52pt"
 viewBox="0.00 0.00 276.60 52.00" xmlns="http://www.w3.org/2000/svg" xmlns:xlink="http://www.w3.org/1999/xlink">
<g id="graph0" class="graph" transform="scale(1 1) rotate(0) translate(4 48)">
<title>enfa</title>
<polygon fill="white" stroke="none" points="-4,4 -4,-48 272.6,-48 272.6,4 -4,4"/>
<!-- __start -->
<!-- 0 -->
<g id="node2" class="node"><title>0</title>
<ellipse fill="none" stroke="black" cx="86.6" cy="-22" rx="18" ry="18"/>
<ellipse fill="none" stroke="black" cx="86.6" cy="-22" rx="22" ry="22"/>
<text text-anchor="middle" x="86.6" y="-18.3" font-family="Times New Roman,serif" font-size="14.00">0</text>
</g>
<!-- __start&#45;&gt;0 -->
<g id="edge1" class="edge"><title>__start&#45;&gt;0</title>
<path fill="none" stroke="black" d="M3.72988,-22C8.77597,-22 33.4162,-22 54.3593,-22"/>
<polygon fill="black" stroke="black" points="54.5455,-25.5001 64.5454,-22 54.5454,-18.5001 54.5455,-25.5001"/>
<text text-anchor="middle" x="34.1" y="-25.8" font-family="Times New Roman,serif" font-size="14.00">start</text>
</g>
<!-- 1 -->
<g id="node3" class="node"><title>1</title>
<ellipse fill="none" stroke="black" cx="170.6" cy="-22" rx="18" ry="18"/>
<text text-anchor="middle" x="170.6" y="-18.3" font-family="Times New Roman,serif" font-size="14.00">1</text>
</g>
<!-- 0&#45;&gt;1 -->
<g id="edge4" class="edge"><title>0&#45;&gt;1</title>
<path fill="none" stroke="black" d="M108.717,-22C118.896,-22 131.232,-22 142.131,-22"/>
<polygon fill="black" stroke="black" points="142.418,-25.5001 152.418,-22 142.418,-18.5001 142.418,-25.5001"/>
<text text-anchor="middle" x="130.6" y="-25.8" font-family="Times New Roman,serif" font-size="14.00">q</text>
</g>
<!-- 1&#45;&gt;0 -->
<g id="edge3" class="edge"><title>1&#45;&gt;0</title>
<path fill="none" stroke="black" d="M154.883,-12.4577C148.85,-9.08304 141.64,-5.70409 134.6,-4 128.024,-2.40805 121.125,-3.42621 114.702,-5.62107"/>
<polygon fill="black" stroke="black" points="112.861,-2.60686 105.112,-9.83271 115.676,-9.01596 112.861,-2.60686"/>
<text text-anchor="middle" x="130.6" y="-7.8" font-family="Times New Roman,serif" font-size="14.00">i</text>
</g>
<!-- 2 -->
<g id="node4" class="node"><title>2</title>
<ellipse fill="none" stroke="black" cx="250.6" cy="-22" rx="18" ry="18"/>
<text text-anchor="middle" x="250.6" y="-18.3" font-family="Times New Roman,serif" font-size="14.00">2</text>
</g>
<!-- 1&#45;&gt;2 -->
<g id="edge2" class="edge"><title>1&#45;&gt;2</title>
<path fill="none" stroke="black" d="M188.911,-22C198.706,-22 211.178,-22 222.265,-22"/>
<polygon fill="black" stroke="black" points="222.338,-25.5001 232.338,-22 222.338,-18.5001 222.338,-25.5001"/>
<text text-anchor="middle" x="210.6" y="-25.8" font-family="Times New Roman,serif" font-size="14.00">i</text>
</g>
<!-- 2&#45;&gt;1 -->
<g id="edge5" class="edge"><title>2&#45;&gt;1</title>
<path fill="none" stroke="black" d="M236.077,-10.8249C227.812,-5.32909 216.884,-0.388695 206.6,-3 202.642,-4.00504 198.647,-5.55766 194.844,-7.35171"/>
<polygon fill="black" stroke="black" points="193.075,-4.32845 185.911,-12.1343 196.379,-10.4996 193.075,-4.32845"/>
<text text-anchor="middle" x="210.6" y="-6.8" font-family="Times New Roman,serif" font-size="14.00">q</text>
</g>
</g>
</svg>
