<?xml version="1.0" encoding="UTF-8" standalone="no"?>
<!DOCTYPE svg PUBLIC "-//W3C//DTD SVG 1.1//EN"
 "http://www.w3.org/Graphics/SVG/1.1/DTD/svg11.dtd">
<!-- Generated by graphviz version 2.38.0 (20140413.2041)
 -->
<!-- Title: dfa Pages: 1 -->
<svg width="277pt" height="143pt"
 viewBox="0.00 0.00 276.60 143.00" xmlns="http://www.w3.org/2000/svg" xmlns:xlink="http://www.w3.org/1999/xlink">
<g id="graph0" class="graph" transform="scale(1 1) rotate(0) translate(4 139)">
<title>dfa</title>
<polygon fill="white" stroke="none" points="-4,4 -4,-139 272.6,-139 272.6,4 -4,4"/>
<!-- __start -->
<!-- 0 -->
<g id="node2" class="node"><title>0</title>
<ellipse fill="none" stroke="black" cx="86.6" cy="-42" rx="18" ry="18"/>
<ellipse fill="none" stroke="black" cx="86.6" cy="-42" rx="22" ry="22"/>
<text text-anchor="middle" x="86.6" y="-38.3" font-family="Times New Roman,serif" font-size="14.00">0</text>
</g>
<!-- __start&#45;&gt;0 -->
<g id="edge1" class="edge"><title>__start&#45;&gt;0</title>
<path fill="none" stroke="black" d="M3.72988,-42C8.77597,-42 33.4162,-42 54.3593,-42"/>
<polygon fill="black" stroke="black" points="54.5455,-45.5001 64.5454,-42 54.5454,-38.5001 54.5455,-45.5001"/>
<text text-anchor="middle" x="34.1" y="-45.8" font-family="Times New Roman,serif" font-size="14.00">start</text>
</g>
<!-- 1 -->
<g id="node3" class="node"><title>1</title>
<ellipse fill="none" stroke="black" cx="250.6" cy="-51" rx="18" ry="18"/>
<text text-anchor="middle" x="250.6" y="-47.3" font-family="Times New Roman,serif" font-size="14.00">1</text>
</g>
<!-- 0&#45;&gt;1 -->
<g id="edge2" class="edge"><title>0&#45;&gt;1</title>
<path fill="none" stroke="black" d="M108.583,-46.2239C114.398,-47.2694 120.727,-48.2917 126.6,-49 165.492,-53.6899 175.462,-55.6743 214.6,-54 217.159,-53.8905 219.821,-53.7362 222.482,-53.5547"/>
<polygon fill="black" stroke="black" points="222.837,-57.0377 232.529,-52.7575 222.283,-50.0596 222.837,-57.0377"/>
<text text-anchor="middle" x="170.6" y="-57.8" font-family="Times New Roman,serif" font-size="14.00">i</text>
</g>
<!-- 2 -->
<g id="node4" class="node"><title>2</title>
<ellipse fill="none" stroke="black" cx="170.6" cy="-18" rx="18" ry="18"/>
<text text-anchor="middle" x="170.6" y="-14.3" font-family="Times New Roman,serif" font-size="14.00">2</text>
</g>
<!-- 0&#45;&gt;2 -->
<g id="edge3" class="edge"><title>0&#45;&gt;2</title>
<path fill="none" stroke="black" d="M107.87,-36.0674C118.545,-32.9429 131.765,-29.0736 143.229,-25.7183"/>
<polygon fill="black" stroke="black" points="144.526,-28.9857 153.14,-22.8175 142.56,-22.2675 144.526,-28.9857"/>
<text text-anchor="middle" x="130.6" y="-33.8" font-family="Times New Roman,serif" font-size="14.00">q</text>
</g>
<!-- 1&#45;&gt;1 -->
<g id="edge4" class="edge"><title>1&#45;&gt;1</title>
<path fill="none" stroke="black" d="M247.005,-68.7817C246.394,-78.3149 247.592,-87 250.6,-87 252.433,-87 253.594,-83.7749 254.083,-79.0981"/>
<polygon fill="black" stroke="black" points="257.586,-78.8193 254.195,-68.7817 250.587,-78.743 257.586,-78.8193"/>
<text text-anchor="middle" x="250.6" y="-90.8" font-family="Times New Roman,serif" font-size="14.00">i</text>
</g>
<!-- 1&#45;&gt;1 -->
<g id="edge5" class="edge"><title>1&#45;&gt;1</title>
<path fill="none" stroke="black" d="M244.748,-68.1418C241.306,-85.585 243.256,-105 250.6,-105 256.509,-105 258.927,-92.4283 257.852,-78.4287"/>
<polygon fill="black" stroke="black" points="261.269,-77.5785 256.452,-68.1418 254.332,-78.5224 261.269,-77.5785"/>
<text text-anchor="middle" x="250.6" y="-108.8" font-family="Times New Roman,serif" font-size="14.00">q</text>
</g>
<!-- 2&#45;&gt;0 -->
<g id="edge6" class="edge"><title>2&#45;&gt;0</title>
<path fill="none" stroke="black" d="M153.771,-10.5531C145.513,-7.69346 135.337,-5.79948 126.6,-9 120.479,-11.2423 114.658,-14.9173 109.469,-19.0174"/>
<polygon fill="black" stroke="black" points="107.097,-16.4423 101.883,-25.6657 111.711,-21.7066 107.097,-16.4423"/>
<text text-anchor="middle" x="130.6" y="-12.8" font-family="Times New Roman,serif" font-size="14.00">i</text>
</g>
<!-- 2&#45;&gt;1 -->
<g id="edge7" class="edge"><title>2&#45;&gt;1</title>
<path fill="none" stroke="black" d="M187.384,-24.678C198.063,-29.1957 212.391,-35.2579 224.606,-40.4257"/>
<polygon fill="black" stroke="black" points="223.266,-43.6588 233.839,-44.3319 225.993,-37.212 223.266,-43.6588"/>
<text text-anchor="middle" x="210.6" y="-38.8" font-family="Times New Roman,serif" font-size="14.00">q</text>
</g>
</g>
</svg>
