<?xml version="1.0" encoding="UTF-8" standalone="no"?>
<!DOCTYPE svg PUBLIC "-//W3C//DTD SVG 1.1//EN"
 "http://www.w3.org/Graphics/SVG/1.1/DTD/svg11.dtd">
<!-- Generated by graphviz version 2.38.0 (20140413.2041)
 -->
<!-- Title: dfa Pages: 1 -->
<svg width="287pt" height="143pt"
 viewBox="0.00 0.00 286.60 143.00" xmlns="http://www.w3.org/2000/svg" xmlns:xlink="http://www.w3.org/1999/xlink">
<g id="graph0" class="graph" transform="scale(1 1) rotate(0) translate(4 139)">
<title>dfa</title>
<polygon fill="white" stroke="none" points="-4,4 -4,-139 282.6,-139 282.6,4 -4,4"/>
<!-- __start -->
<!-- 0 -->
<g id="node2" class="node"><title>0</title>
<ellipse fill="none" stroke="black" cx="91.6" cy="-42" rx="27" ry="18"/>
<text text-anchor="middle" x="91.6" y="-38.3" font-family="Times New Roman,serif" font-size="14.00">0</text>
</g>
<!-- __start&#45;&gt;0 -->
<g id="edge1" class="edge"><title>__start&#45;&gt;0</title>
<path fill="none" stroke="black" d="M3.78604,-42C8.86985,-42 32.7092,-42 54.1222,-42"/>
<polygon fill="black" stroke="black" points="54.3463,-45.5001 64.3463,-42 54.3463,-38.5001 54.3463,-45.5001"/>
<text text-anchor="middle" x="34.1" y="-45.8" font-family="Times New Roman,serif" font-size="14.00">start</text>
</g>
<!-- 1 -->
<g id="node3" class="node"><title>1</title>
<ellipse fill="none" stroke="black" cx="260.6" cy="-51" rx="18" ry="18"/>
<text text-anchor="middle" x="260.6" y="-47.3" font-family="Times New Roman,serif" font-size="14.00">1</text>
</g>
<!-- 0&#45;&gt;1 -->
<g id="edge2" class="edge"><title>0&#45;&gt;1</title>
<path fill="none" stroke="black" d="M117.857,-46.31C144.389,-50.3646 187.356,-55.5933 224.6,-54 227.159,-53.8905 229.821,-53.7362 232.482,-53.5547"/>
<polygon fill="black" stroke="black" points="232.837,-57.0377 242.529,-52.7575 232.283,-50.0596 232.837,-57.0377"/>
<text text-anchor="middle" x="180.6" y="-57.8" font-family="Times New Roman,serif" font-size="14.00">i</text>
</g>
<!-- 2 -->
<g id="node4" class="node"><title>2</title>
<ellipse fill="none" stroke="black" cx="180.6" cy="-18" rx="18" ry="18"/>
<text text-anchor="middle" x="180.6" y="-14.3" font-family="Times New Roman,serif" font-size="14.00">2</text>
</g>
<!-- 0&#45;&gt;2 -->
<g id="edge3" class="edge"><title>0&#45;&gt;2</title>
<path fill="none" stroke="black" d="M116.834,-35.3147C128.075,-32.2139 141.466,-28.5198 152.986,-25.3417"/>
<polygon fill="black" stroke="black" points="154.216,-28.6333 162.925,-22.5999 152.355,-21.8853 154.216,-28.6333"/>
<text text-anchor="middle" x="140.6" y="-32.8" font-family="Times New Roman,serif" font-size="14.00">q</text>
</g>
<!-- 1&#45;&gt;1 -->
<g id="edge4" class="edge"><title>1&#45;&gt;1</title>
<path fill="none" stroke="black" d="M257.005,-68.7817C256.394,-78.3149 257.592,-87 260.6,-87 262.433,-87 263.594,-83.7749 264.083,-79.0981"/>
<polygon fill="black" stroke="black" points="267.586,-78.8193 264.195,-68.7817 260.587,-78.743 267.586,-78.8193"/>
<text text-anchor="middle" x="260.6" y="-90.8" font-family="Times New Roman,serif" font-size="14.00">i</text>
</g>
<!-- 1&#45;&gt;1 -->
<g id="edge5" class="edge"><title>1&#45;&gt;1</title>
<path fill="none" stroke="black" d="M254.748,-68.1418C251.306,-85.585 253.256,-105 260.6,-105 266.509,-105 268.927,-92.4283 267.852,-78.4287"/>
<polygon fill="black" stroke="black" points="271.269,-77.5785 266.452,-68.1418 264.332,-78.5224 271.269,-77.5785"/>
<text text-anchor="middle" x="260.6" y="-108.8" font-family="Times New Roman,serif" font-size="14.00">q</text>
</g>
<!-- 2&#45;&gt;0 -->
<g id="edge6" class="edge"><title>2&#45;&gt;0</title>
<path fill="none" stroke="black" d="M164.267,-10.3169C155.964,-7.18005 145.594,-4.9298 136.6,-8 128.763,-10.6752 121.238,-15.3751 114.695,-20.4424"/>
<polygon fill="black" stroke="black" points="112.381,-17.8155 106.984,-26.9329 116.889,-23.171 112.381,-17.8155"/>
<text text-anchor="middle" x="140.6" y="-11.8" font-family="Times New Roman,serif" font-size="14.00">i</text>
</g>
<!-- 2&#45;&gt;1 -->
<g id="edge7" class="edge"><title>2&#45;&gt;1</title>
<path fill="none" stroke="black" d="M197.384,-24.678C208.063,-29.1957 222.391,-35.2579 234.606,-40.4257"/>
<polygon fill="black" stroke="black" points="233.266,-43.6588 243.839,-44.3319 235.993,-37.212 233.266,-43.6588"/>
<text text-anchor="middle" x="220.6" y="-38.8" font-family="Times New Roman,serif" font-size="14.00">q</text>
</g>
</g>
</svg>
