<?xml version="1.0" encoding="UTF-8" standalone="no"?>
<!DOCTYPE svg PUBLIC "-//W3C//DTD SVG 1.1//EN"
 "http://www.w3.org/Graphics/SVG/1.1/DTD/svg11.dtd">
<!-- Generated by graphviz version 2.38.0 (20140413.2041)
 -->
<!-- Title: dfa Pages: 1 -->
<svg width="411pt" height="161pt"
 viewBox="0.00 0.00 410.79 160.51" xmlns="http://www.w3.org/2000/svg" xmlns:xlink="http://www.w3.org/1999/xlink">
<g id="graph0" class="graph" transform="scale(1 1) rotate(0) translate(4 156.508)">
<title>dfa</title>
<polygon fill="white" stroke="none" points="-4,4 -4,-156.508 406.787,-156.508 406.787,4 -4,4"/>
<!-- __start -->
<!-- {0} -->
<g id="node2" class="node"><title>{0}</title>
<ellipse fill="none" stroke="black" cx="91.6" cy="-103.01" rx="27" ry="18"/>
<text text-anchor="middle" x="91.6" y="-99.3099" font-family="Times New Roman,serif" font-size="14.00">{0}</text>
</g>
<!-- __start&#45;&gt;{0} -->
<g id="edge1" class="edge"><title>__start&#45;&gt;{0}</title>
<path fill="none" stroke="black" d="M3.78604,-103.01C8.86985,-103.01 32.7092,-103.01 54.1222,-103.01"/>
<polygon fill="black" stroke="black" points="54.3463,-106.51 64.3463,-103.01 54.3463,-99.51 54.3463,-106.51"/>
<text text-anchor="middle" x="34.1" y="-106.81" font-family="Times New Roman,serif" font-size="14.00">start</text>
</g>
<!-- {} -->
<g id="node4" class="node"><title>{}</title>
<ellipse fill="none" stroke="black" cx="383.289" cy="-67.0099" rx="19.4965" ry="19.4965"/>
<text text-anchor="middle" x="383.289" y="-63.3099" font-family="Times New Roman,serif" font-size="14.00">{}</text>
</g>
<!-- {0}&#45;&gt;{} -->
<g id="edge2" class="edge"><title>{0}&#45;&gt;{}</title>
<path fill="none" stroke="black" d="M117.024,-109.31C160.094,-119.24 251.797,-135.063 323.79,-111.01 337.866,-106.307 351.273,-96.7387 361.692,-87.7224"/>
<polygon fill="black" stroke="black" points="364.342,-90.0425 369.364,-80.7134 359.62,-84.8748 364.342,-90.0425"/>
<text text-anchor="middle" x="232.696" y="-127.81" font-family="Times New Roman,serif" font-size="14.00">i</text>
</g>
<!-- {1} -->
<g id="node5" class="node"><title>{1}</title>
<ellipse fill="none" stroke="black" cx="186.648" cy="-54.0099" rx="24.0958" ry="24.0958"/>
<text text-anchor="middle" x="186.648" y="-50.3099" font-family="Times New Roman,serif" font-size="14.00">{1}</text>
</g>
<!-- {0}&#45;&gt;{1} -->
<g id="edge3" class="edge"><title>{0}&#45;&gt;{1}</title>
<path fill="none" stroke="black" d="M113.25,-92.1352C125.779,-85.5376 141.978,-77.0071 155.875,-69.6885"/>
<polygon fill="black" stroke="black" points="157.838,-72.6106 165.055,-64.8542 154.576,-66.4169 157.838,-72.6106"/>
<text text-anchor="middle" x="140.6" y="-82.8099" font-family="Times New Roman,serif" font-size="14.00">q</text>
</g>
<!-- {0,2} -->
<g id="node3" class="node"><title>{0,2}</title>
<ellipse fill="none" stroke="black" cx="289.243" cy="-67.0099" rx="30.5892" ry="30.5892"/>
<ellipse fill="none" stroke="black" cx="289.243" cy="-67.0099" rx="34.5946" ry="34.5946"/>
<text text-anchor="middle" x="289.243" y="-63.3099" font-family="Times New Roman,serif" font-size="14.00">{0,2}</text>
</g>
<!-- {0,2}&#45;&gt;{} -->
<g id="edge8" class="edge"><title>{0,2}&#45;&gt;{}</title>
<path fill="none" stroke="black" d="M323.995,-67.0099C333.762,-67.0099 344.324,-67.0099 353.74,-67.0099"/>
<polygon fill="black" stroke="black" points="353.781,-70.51 363.781,-67.0099 353.781,-63.51 353.781,-70.51"/>
<text text-anchor="middle" x="343.79" y="-70.8099" font-family="Times New Roman,serif" font-size="14.00">i</text>
</g>
<!-- {0,2}&#45;&gt;{1} -->
<g id="edge9" class="edge"><title>{0,2}&#45;&gt;{1}</title>
<path fill="none" stroke="black" d="M259.167,-49.4046C252.058,-45.94 244.301,-42.8194 236.696,-41.0099 230.766,-39.5991 224.459,-39.9005 218.412,-41.0916"/>
<polygon fill="black" stroke="black" points="217.307,-37.7654 208.592,-43.7908 219.162,-44.5151 217.307,-37.7654"/>
<text text-anchor="middle" x="232.696" y="-44.8099" font-family="Times New Roman,serif" font-size="14.00">q</text>
</g>
<!-- {}&#45;&gt;{} -->
<g id="edge4" class="edge"><title>{}&#45;&gt;{}</title>
<path fill="none" stroke="black" d="M379.831,-86.3035C379.353,-95.9255 380.505,-104.508 383.289,-104.508 384.985,-104.508 386.075,-101.321 386.56,-96.6539"/>
<polygon fill="black" stroke="black" points="390.066,-96.3648 386.746,-86.3035 383.067,-96.239 390.066,-96.3648"/>
<text text-anchor="middle" x="383.289" y="-108.308" font-family="Times New Roman,serif" font-size="14.00">i</text>
</g>
<!-- {}&#45;&gt;{} -->
<g id="edge5" class="edge"><title>{}&#45;&gt;{}</title>
<path fill="none" stroke="black" d="M377.527,-85.7741C374.54,-103.394 376.46,-122.508 383.289,-122.508 388.836,-122.508 391.144,-109.89 390.213,-95.7072"/>
<polygon fill="black" stroke="black" points="393.689,-95.2993 389.05,-85.7741 386.736,-96.1132 393.689,-95.2993"/>
<text text-anchor="middle" x="383.289" y="-126.308" font-family="Times New Roman,serif" font-size="14.00">q</text>
</g>
<!-- {1}&#45;&gt;{0,2} -->
<g id="edge6" class="edge"><title>{1}&#45;&gt;{0,2}</title>
<path fill="none" stroke="black" d="M210.726,-56.9923C220.776,-58.291 232.9,-59.8579 244.544,-61.3626"/>
<polygon fill="black" stroke="black" points="244.223,-64.8501 254.589,-62.6607 245.12,-57.9078 244.223,-64.8501"/>
<text text-anchor="middle" x="232.696" y="-64.8099" font-family="Times New Roman,serif" font-size="14.00">i</text>
</g>
<!-- {1}&#45;&gt;{} -->
<g id="edge7" class="edge"><title>{1}&#45;&gt;{}</title>
<path fill="none" stroke="black" d="M204.844,-37.8399C217.537,-27.0713 235.819,-13.8627 254.696,-8.00987 284.027,1.08454 295.444,3.80239 323.79,-8.00987 340.829,-15.1101 355.45,-29.8546 365.814,-42.8268"/>
<polygon fill="black" stroke="black" points="363.169,-45.1318 371.992,-50.9973 368.752,-40.9099 363.169,-45.1318"/>
<text text-anchor="middle" x="289.243" y="-11.8099" font-family="Times New Roman,serif" font-size="14.00">q</text>
</g>
</g>
</svg>
