<?xml version="1.0" encoding="UTF-8" standalone="no"?>
<!DOCTYPE svg PUBLIC "-//W3C//DTD SVG 1.1//EN"
 "http://www.w3.org/Graphics/SVG/1.1/DTD/svg11.dtd">
<!-- Generated by graphviz version 2.38.0 (20140413.2041)
 -->
<!-- Title: dfa Pages: 1 -->
<svg width="413pt" height="161pt"
 viewBox="0.00 0.00 412.88 160.51" xmlns="http://www.w3.org/2000/svg" xmlns:xlink="http://www.w3.org/1999/xlink">
<g id="graph0" class="graph" transform="scale(1 1) rotate(0) translate(4 156.508)">
<title>dfa</title>
<polygon fill="white" stroke="none" points="-4,4 -4,-156.508 408.883,-156.508 408.883,4 -4,4"/>
<!-- __start -->
<!-- {0} -->
<g id="node2" class="node"><title>{0}</title>
<ellipse fill="none" stroke="black" cx="92.6479" cy="-103.01" rx="24.089" ry="24.089"/>
<ellipse fill="none" stroke="black" cx="92.6479" cy="-103.01" rx="28.0958" ry="28.0958"/>
<text text-anchor="middle" x="92.6479" y="-99.3099" font-family="Times New Roman,serif" font-size="14.00">{0}</text>
</g>
<!-- __start&#45;&gt;{0} -->
<g id="edge1" class="edge"><title>__start&#45;&gt;{0}</title>
<path fill="none" stroke="black" d="M3.7978,-103.01C8.87675,-103.01 32.4546,-103.01 53.9055,-103.01"/>
<polygon fill="black" stroke="black" points="54.1747,-106.51 64.1746,-103.01 54.1746,-99.51 54.1747,-106.51"/>
<text text-anchor="middle" x="34.1" y="-106.81" font-family="Times New Roman,serif" font-size="14.00">start</text>
</g>
<!-- {} -->
<g id="node4" class="node"><title>{}</title>
<ellipse fill="none" stroke="black" cx="385.384" cy="-67.0099" rx="19.4965" ry="19.4965"/>
<text text-anchor="middle" x="385.384" y="-63.3099" font-family="Times New Roman,serif" font-size="14.00">{}</text>
</g>
<!-- {0}&#45;&gt;{} -->
<g id="edge2" class="edge"><title>{0}&#45;&gt;{}</title>
<path fill="none" stroke="black" d="M119.925,-109.73C163.882,-119.71 254.524,-134.852 325.886,-111.01 339.962,-106.307 353.369,-96.7387 363.788,-87.7224"/>
<polygon fill="black" stroke="black" points="366.438,-90.0425 371.459,-80.7134 361.716,-84.8748 366.438,-90.0425"/>
<text text-anchor="middle" x="234.791" y="-127.81" font-family="Times New Roman,serif" font-size="14.00">i</text>
</g>
<!-- {1} -->
<g id="node5" class="node"><title>{1}</title>
<ellipse fill="none" stroke="black" cx="188.744" cy="-54.0099" rx="24.0958" ry="24.0958"/>
<text text-anchor="middle" x="188.744" y="-50.3099" font-family="Times New Roman,serif" font-size="14.00">{1}</text>
</g>
<!-- {0}&#45;&gt;{1} -->
<g id="edge3" class="edge"><title>{0}&#45;&gt;{1}</title>
<path fill="none" stroke="black" d="M117.88,-90.3911C130.149,-84.0022 145.149,-76.1908 158.101,-69.4463"/>
<polygon fill="black" stroke="black" points="159.848,-72.4824 167.101,-64.7593 156.615,-66.2738 159.848,-72.4824"/>
<text text-anchor="middle" x="142.696" y="-82.8099" font-family="Times New Roman,serif" font-size="14.00">q</text>
</g>
<!-- {0,2} -->
<g id="node3" class="node"><title>{0,2}</title>
<ellipse fill="none" stroke="black" cx="291.339" cy="-67.0099" rx="30.5892" ry="30.5892"/>
<ellipse fill="none" stroke="black" cx="291.339" cy="-67.0099" rx="34.5946" ry="34.5946"/>
<text text-anchor="middle" x="291.339" y="-63.3099" font-family="Times New Roman,serif" font-size="14.00">{0,2}</text>
</g>
<!-- {0,2}&#45;&gt;{} -->
<g id="edge8" class="edge"><title>{0,2}&#45;&gt;{}</title>
<path fill="none" stroke="black" d="M326.09,-67.0099C335.857,-67.0099 346.42,-67.0099 355.836,-67.0099"/>
<polygon fill="black" stroke="black" points="355.877,-70.51 365.877,-67.0099 355.877,-63.51 355.877,-70.51"/>
<text text-anchor="middle" x="345.886" y="-70.8099" font-family="Times New Roman,serif" font-size="14.00">i</text>
</g>
<!-- {0,2}&#45;&gt;{1} -->
<g id="edge9" class="edge"><title>{0,2}&#45;&gt;{1}</title>
<path fill="none" stroke="black" d="M261.263,-49.4046C254.154,-45.94 246.397,-42.8194 238.791,-41.0099 232.862,-39.5991 226.555,-39.9005 220.508,-41.0916"/>
<polygon fill="black" stroke="black" points="219.403,-37.7654 210.688,-43.7908 221.258,-44.5151 219.403,-37.7654"/>
<text text-anchor="middle" x="234.791" y="-44.8099" font-family="Times New Roman,serif" font-size="14.00">q</text>
</g>
<!-- {}&#45;&gt;{} -->
<g id="edge4" class="edge"><title>{}&#45;&gt;{}</title>
<path fill="none" stroke="black" d="M381.927,-86.3035C381.449,-95.9255 382.601,-104.508 385.384,-104.508 387.08,-104.508 388.171,-101.321 388.656,-96.6539"/>
<polygon fill="black" stroke="black" points="392.161,-96.3648 388.842,-86.3035 385.162,-96.239 392.161,-96.3648"/>
<text text-anchor="middle" x="385.384" y="-108.308" font-family="Times New Roman,serif" font-size="14.00">i</text>
</g>
<!-- {}&#45;&gt;{} -->
<g id="edge5" class="edge"><title>{}&#45;&gt;{}</title>
<path fill="none" stroke="black" d="M379.623,-85.7741C376.636,-103.394 378.556,-122.508 385.384,-122.508 390.932,-122.508 393.24,-109.89 392.308,-95.7072"/>
<polygon fill="black" stroke="black" points="395.785,-95.2993 391.146,-85.7741 388.832,-96.1132 395.785,-95.2993"/>
<text text-anchor="middle" x="385.384" y="-126.308" font-family="Times New Roman,serif" font-size="14.00">q</text>
</g>
<!-- {1}&#45;&gt;{0,2} -->
<g id="edge6" class="edge"><title>{1}&#45;&gt;{0,2}</title>
<path fill="none" stroke="black" d="M212.822,-56.9923C222.872,-58.291 234.996,-59.8579 246.64,-61.3626"/>
<polygon fill="black" stroke="black" points="246.319,-64.8501 256.685,-62.6607 247.216,-57.9078 246.319,-64.8501"/>
<text text-anchor="middle" x="234.791" y="-64.8099" font-family="Times New Roman,serif" font-size="14.00">i</text>
</g>
<!-- {1}&#45;&gt;{} -->
<g id="edge7" class="edge"><title>{1}&#45;&gt;{}</title>
<path fill="none" stroke="black" d="M206.94,-37.8399C219.633,-27.0713 237.915,-13.8627 256.791,-8.00987 286.123,1.08454 297.54,3.80239 325.886,-8.00987 342.925,-15.1101 357.546,-29.8546 367.91,-42.8268"/>
<polygon fill="black" stroke="black" points="365.265,-45.1318 374.088,-50.9973 370.848,-40.9099 365.265,-45.1318"/>
<text text-anchor="middle" x="291.339" y="-11.8099" font-family="Times New Roman,serif" font-size="14.00">q</text>
</g>
</g>
</svg>
