<?xml version="1.0" encoding="UTF-8" standalone="no"?>
<!DOCTYPE svg PUBLIC "-//W3C//DTD SVG 1.1//EN"
 "http://www.w3.org/Graphics/SVG/1.1/DTD/svg11.dtd">
<!-- Generated by graphviz version 2.38.0 (20140413.2041)
 -->
<!-- Title: enfa Pages: 1 -->
<svg width="441pt" height="183pt"
 viewBox="0.00 0.00 440.60 183.00" xmlns="http://www.w3.org/2000/svg" xmlns:xlink="http://www.w3.org/1999/xlink">
<g id="graph0" class="graph" transform="scale(1 1) rotate(0) translate(4 179)">
<title>enfa</title>
<polygon fill="white" stroke="none" points="-4,4 -4,-179 436.6,-179 436.6,4 -4,4"/>
<!-- __start -->
<!-- 0 -->
<g id="node2" class="node"><title>0</title>
<ellipse fill="none" stroke="black" cx="82.6" cy="-77" rx="18" ry="18"/>
<text text-anchor="middle" x="82.6" y="-73.3" font-family="Times New Roman,serif" font-size="14.00">0</text>
</g>
<!-- __start&#45;&gt;0 -->
<g id="edge1" class="edge"><title>__start&#45;&gt;0</title>
<path fill="none" stroke="black" d="M3.68496,-77C8.69573,-77 34.008,-77 54.4423,-77"/>
<polygon fill="black" stroke="black" points="54.5501,-80.5001 64.5501,-77 54.5501,-73.5001 54.5501,-80.5001"/>
<text text-anchor="middle" x="34.1" y="-80.8" font-family="Times New Roman,serif" font-size="14.00">start</text>
</g>
<!-- 1 -->
<g id="node3" class="node"><title>1</title>
<ellipse fill="none" stroke="black" cx="165.6" cy="-120" rx="18" ry="18"/>
<ellipse fill="none" stroke="black" cx="165.6" cy="-120" rx="22" ry="22"/>
<text text-anchor="middle" x="165.6" y="-116.3" font-family="Times New Roman,serif" font-size="14.00">1</text>
</g>
<!-- 0&#45;&gt;1 -->
<g id="edge11" class="edge"><title>0&#45;&gt;1</title>
<path fill="none" stroke="black" d="M94.6129,-90.4222C100.941,-97.2785 109.439,-105.172 118.6,-110 123.27,-112.461 128.512,-114.317 133.74,-115.716"/>
<polygon fill="black" stroke="black" points="133.105,-119.16 143.622,-117.884 134.604,-112.323 133.105,-119.16"/>
<text text-anchor="middle" x="122.1" y="-116.8" font-family="Times New Roman,serif" font-size="14.00">j</text>
</g>
<!-- 2 -->
<g id="node4" class="node"><title>2</title>
<ellipse fill="none" stroke="black" cx="331.6" cy="-22" rx="18" ry="18"/>
<ellipse fill="none" stroke="black" cx="331.6" cy="-22" rx="22" ry="22"/>
<text text-anchor="middle" x="331.6" y="-18.3" font-family="Times New Roman,serif" font-size="14.00">2</text>
</g>
<!-- 0&#45;&gt;2 -->
<g id="edge2" class="edge"><title>0&#45;&gt;2</title>
<path fill="none" stroke="black" d="M100.33,-73.014C127.583,-66.547 183.278,-53.4403 230.6,-43 253.801,-37.8814 280.096,-32.3708 299.898,-28.2794"/>
<polygon fill="black" stroke="black" points="300.801,-31.6669 309.889,-26.2214 299.389,-24.8108 300.801,-31.6669"/>
<text text-anchor="middle" x="209.1" y="-51.8" font-family="Times New Roman,serif" font-size="14.00">k</text>
</g>
<!-- 1&#45;&gt;0 -->
<g id="edge4" class="edge"><title>1&#45;&gt;0</title>
<path fill="none" stroke="black" d="M147.109,-107.915C140.511,-103.592 132.848,-98.8424 125.6,-95 120.431,-92.2596 114.754,-89.6043 109.292,-87.2124"/>
<polygon fill="black" stroke="black" points="110.42,-83.8899 99.8458,-83.2302 107.701,-90.3401 110.42,-83.8899"/>
<text text-anchor="middle" x="122.1" y="-98.8" font-family="Times New Roman,serif" font-size="14.00">ε</text>
</g>
<!-- 1&#45;&gt;1 -->
<g id="edge5" class="edge"><title>1&#45;&gt;1</title>
<path fill="none" stroke="black" d="M157.917,-140.991C156.969,-151.087 159.53,-160 165.6,-160 169.489,-160 171.937,-156.342 172.946,-151.059"/>
<polygon fill="black" stroke="black" points="176.446,-151.102 173.283,-140.991 169.45,-150.868 176.446,-151.102"/>
<text text-anchor="middle" x="165.6" y="-163.8" font-family="Times New Roman,serif" font-size="14.00">ε</text>
</g>
<!-- 3 -->
<g id="node5" class="node"><title>3</title>
<ellipse fill="none" stroke="black" cx="414.6" cy="-80" rx="18" ry="18"/>
<text text-anchor="middle" x="414.6" y="-76.3" font-family="Times New Roman,serif" font-size="14.00">3</text>
</g>
<!-- 1&#45;&gt;3 -->
<g id="edge3" class="edge"><title>1&#45;&gt;3</title>
<path fill="none" stroke="black" d="M187.658,-117.364C222.304,-112.988 293.486,-103.826 353.6,-95 364.733,-93.3654 367.648,-93.5826 378.6,-91 381.506,-90.3147 384.521,-89.5116 387.508,-88.6568"/>
<polygon fill="black" stroke="black" points="388.815,-91.9172 397.356,-85.6473 386.769,-85.2229 388.815,-91.9172"/>
<text text-anchor="middle" x="288.1" y="-107.8" font-family="Times New Roman,serif" font-size="14.00">j</text>
</g>
<!-- 4 -->
<g id="node6" class="node"><title>4</title>
<ellipse fill="none" stroke="black" cx="248.6" cy="-70" rx="18" ry="18"/>
<text text-anchor="middle" x="248.6" y="-66.3" font-family="Times New Roman,serif" font-size="14.00">4</text>
</g>
<!-- 1&#45;&gt;4 -->
<g id="edge8" class="edge"><title>1&#45;&gt;4</title>
<path fill="none" stroke="black" d="M184.383,-108.425C191.012,-104.157 198.621,-99.3121 205.6,-95 211.474,-91.3703 217.858,-87.5221 223.833,-83.9611"/>
<polygon fill="black" stroke="black" points="225.937,-86.7831 232.756,-78.6742 222.368,-80.7609 225.937,-86.7831"/>
<text text-anchor="middle" x="209.1" y="-98.8" font-family="Times New Roman,serif" font-size="14.00">k</text>
</g>
<!-- 2&#45;&gt;3 -->
<g id="edge9" class="edge"><title>2&#45;&gt;3</title>
<path fill="none" stroke="black" d="M350.869,-32.7666C359.457,-38.016 369.733,-44.5729 378.6,-51 383.312,-54.4155 388.214,-58.27 392.805,-62.0269"/>
<polygon fill="black" stroke="black" points="390.71,-64.8372 400.626,-68.5683 395.201,-59.4678 390.71,-64.8372"/>
<text text-anchor="middle" x="375.1" y="-54.8" font-family="Times New Roman,serif" font-size="14.00">ε</text>
</g>
<!-- 3&#45;&gt;4 -->
<g id="edge10" class="edge"><title>3&#45;&gt;4</title>
<path fill="none" stroke="black" d="M396.59,-78.9628C368.25,-77.2348 311.123,-73.7514 277.034,-71.6728"/>
<polygon fill="black" stroke="black" points="277.035,-68.1665 266.841,-71.0513 276.609,-75.1535 277.035,-68.1665"/>
<text text-anchor="middle" x="331.6" y="-79.8" font-family="Times New Roman,serif" font-size="14.00">ε</text>
</g>
<!-- 4&#45;&gt;0 -->
<g id="edge7" class="edge"><title>4&#45;&gt;0</title>
<path fill="none" stroke="black" d="M230.3,-70.6044C209.659,-71.3397 174.107,-72.6507 143.6,-74 132.851,-74.4754 121.021,-75.0549 110.728,-75.5773"/>
<polygon fill="black" stroke="black" points="110.474,-72.0856 100.667,-76.0943 110.833,-79.0764 110.474,-72.0856"/>
<text text-anchor="middle" x="165.6" y="-77.8" font-family="Times New Roman,serif" font-size="14.00">j</text>
</g>
<!-- 4&#45;&gt;2 -->
<g id="edge6" class="edge"><title>4&#45;&gt;2</title>
<path fill="none" stroke="black" d="M264.457,-61.1961C275.367,-54.7309 290.494,-45.7666 303.529,-38.0423"/>
<polygon fill="black" stroke="black" points="305.322,-41.048 312.141,-32.9389 301.753,-35.0259 305.322,-41.048"/>
<text text-anchor="middle" x="288.1" y="-51.8" font-family="Times New Roman,serif" font-size="14.00">k</text>
</g>
</g>
</svg>
