<?xml version="1.0" encoding="UTF-8" standalone="no"?>
<!DOCTYPE svg PUBLIC "-//W3C//DTD SVG 1.1//EN"
 "http://www.w3.org/Graphics/SVG/1.1/DTD/svg11.dtd">
<!-- Generated by graphviz version 2.38.0 (20140413.2041)
 -->
<!-- Title: enfa Pages: 1 -->
<svg width="459pt" height="183pt"
 viewBox="0.00 0.00 458.60 183.00" xmlns="http://www.w3.org/2000/svg" xmlns:xlink="http://www.w3.org/1999/xlink">
<g id="graph0" class="graph" transform="scale(1 1) rotate(0) translate(4 179)">
<title>enfa</title>
<polygon fill="white" stroke="none" points="-4,4 -4,-179 454.6,-179 454.6,4 -4,4"/>
<!-- __start -->
<!-- 0 -->
<g id="node2" class="node"><title>0</title>
<ellipse fill="none" stroke="black" cx="91.6" cy="-77" rx="27" ry="18"/>
<text text-anchor="middle" x="91.6" y="-73.3" font-family="Times New Roman,serif" font-size="14.00">0</text>
</g>
<!-- __start&#45;&gt;0 -->
<g id="edge1" class="edge"><title>__start&#45;&gt;0</title>
<path fill="none" stroke="black" d="M3.78604,-77C8.86985,-77 32.7092,-77 54.1222,-77"/>
<polygon fill="black" stroke="black" points="54.3463,-80.5001 64.3463,-77 54.3463,-73.5001 54.3463,-80.5001"/>
<text text-anchor="middle" x="34.1" y="-80.8" font-family="Times New Roman,serif" font-size="14.00">start</text>
</g>
<!-- 1 -->
<g id="node3" class="node"><title>1</title>
<ellipse fill="none" stroke="black" cx="183.6" cy="-120" rx="18" ry="18"/>
<ellipse fill="none" stroke="black" cx="183.6" cy="-120" rx="22" ry="22"/>
<text text-anchor="middle" x="183.6" y="-116.3" font-family="Times New Roman,serif" font-size="14.00">1</text>
</g>
<!-- 0&#45;&gt;1 -->
<g id="edge11" class="edge"><title>0&#45;&gt;1</title>
<path fill="none" stroke="black" d="M108.24,-91.3458C116.204,-97.9382 126.353,-105.315 136.6,-110 141.19,-112.098 146.242,-113.766 151.266,-115.089"/>
<polygon fill="black" stroke="black" points="150.86,-118.584 161.383,-117.348 152.385,-111.753 150.86,-118.584"/>
<text text-anchor="middle" x="140.1" y="-115.8" font-family="Times New Roman,serif" font-size="14.00">j</text>
</g>
<!-- 2 -->
<g id="node4" class="node"><title>2</title>
<ellipse fill="none" stroke="black" cx="349.6" cy="-22" rx="18" ry="18"/>
<ellipse fill="none" stroke="black" cx="349.6" cy="-22" rx="22" ry="22"/>
<text text-anchor="middle" x="349.6" y="-18.3" font-family="Times New Roman,serif" font-size="14.00">2</text>
</g>
<!-- 0&#45;&gt;2 -->
<g id="edge2" class="edge"><title>0&#45;&gt;2</title>
<path fill="none" stroke="black" d="M117.444,-71.5243C148.216,-64.7562 202.249,-52.9177 248.6,-43 271.833,-38.0288 298.127,-32.5114 317.92,-28.3799"/>
<polygon fill="black" stroke="black" points="318.831,-31.7653 327.906,-26.2979 317.402,-24.9126 318.831,-31.7653"/>
<text text-anchor="middle" x="227.1" y="-51.8" font-family="Times New Roman,serif" font-size="14.00">k</text>
</g>
<!-- 1&#45;&gt;0 -->
<g id="edge4" class="edge"><title>1&#45;&gt;0</title>
<path fill="none" stroke="black" d="M165.241,-107.655C158.658,-103.303 150.97,-98.6026 143.6,-95 138.088,-92.3056 132.067,-89.8139 126.156,-87.597"/>
<polygon fill="black" stroke="black" points="127.016,-84.1884 116.422,-84.1383 124.673,-90.7844 127.016,-84.1884"/>
<text text-anchor="middle" x="140.1" y="-98.8" font-family="Times New Roman,serif" font-size="14.00">ε</text>
</g>
<!-- 1&#45;&gt;1 -->
<g id="edge5" class="edge"><title>1&#45;&gt;1</title>
<path fill="none" stroke="black" d="M175.917,-140.991C174.969,-151.087 177.53,-160 183.6,-160 187.489,-160 189.937,-156.342 190.946,-151.059"/>
<polygon fill="black" stroke="black" points="194.446,-151.102 191.283,-140.991 187.45,-150.868 194.446,-151.102"/>
<text text-anchor="middle" x="183.6" y="-163.8" font-family="Times New Roman,serif" font-size="14.00">ε</text>
</g>
<!-- 3 -->
<g id="node5" class="node"><title>3</title>
<ellipse fill="none" stroke="black" cx="432.6" cy="-80" rx="18" ry="18"/>
<text text-anchor="middle" x="432.6" y="-76.3" font-family="Times New Roman,serif" font-size="14.00">3</text>
</g>
<!-- 1&#45;&gt;3 -->
<g id="edge3" class="edge"><title>1&#45;&gt;3</title>
<path fill="none" stroke="black" d="M205.658,-117.364C240.304,-112.988 311.486,-103.826 371.6,-95 382.733,-93.3654 385.648,-93.5826 396.6,-91 399.506,-90.3147 402.521,-89.5116 405.508,-88.6568"/>
<polygon fill="black" stroke="black" points="406.815,-91.9172 415.356,-85.6473 404.769,-85.2229 406.815,-91.9172"/>
<text text-anchor="middle" x="306.1" y="-107.8" font-family="Times New Roman,serif" font-size="14.00">j</text>
</g>
<!-- 4 -->
<g id="node6" class="node"><title>4</title>
<ellipse fill="none" stroke="black" cx="266.6" cy="-70" rx="18" ry="18"/>
<text text-anchor="middle" x="266.6" y="-66.3" font-family="Times New Roman,serif" font-size="14.00">4</text>
</g>
<!-- 1&#45;&gt;4 -->
<g id="edge8" class="edge"><title>1&#45;&gt;4</title>
<path fill="none" stroke="black" d="M202.383,-108.425C209.012,-104.157 216.621,-99.3121 223.6,-95 229.474,-91.3703 235.858,-87.5221 241.833,-83.9611"/>
<polygon fill="black" stroke="black" points="243.937,-86.7831 250.756,-78.6742 240.368,-80.7609 243.937,-86.7831"/>
<text text-anchor="middle" x="227.1" y="-98.8" font-family="Times New Roman,serif" font-size="14.00">k</text>
</g>
<!-- 2&#45;&gt;3 -->
<g id="edge9" class="edge"><title>2&#45;&gt;3</title>
<path fill="none" stroke="black" d="M368.869,-32.7666C377.457,-38.016 387.733,-44.5729 396.6,-51 401.312,-54.4155 406.214,-58.27 410.805,-62.0269"/>
<polygon fill="black" stroke="black" points="408.71,-64.8372 418.626,-68.5683 413.201,-59.4678 408.71,-64.8372"/>
<text text-anchor="middle" x="393.1" y="-54.8" font-family="Times New Roman,serif" font-size="14.00">ε</text>
</g>
<!-- 3&#45;&gt;4 -->
<g id="edge10" class="edge"><title>3&#45;&gt;4</title>
<path fill="none" stroke="black" d="M414.59,-78.9628C386.25,-77.2348 329.123,-73.7514 295.034,-71.6728"/>
<polygon fill="black" stroke="black" points="295.035,-68.1665 284.841,-71.0513 294.609,-75.1535 295.035,-68.1665"/>
<text text-anchor="middle" x="349.6" y="-79.8" font-family="Times New Roman,serif" font-size="14.00">ε</text>
</g>
<!-- 4&#45;&gt;0 -->
<g id="edge7" class="edge"><title>4&#45;&gt;0</title>
<path fill="none" stroke="black" d="M248.301,-70.6388C227.662,-71.4072 192.111,-72.75 161.6,-74 150.997,-74.4344 139.479,-74.927 128.946,-75.3856"/>
<polygon fill="black" stroke="black" points="128.648,-71.8952 118.811,-75.8295 128.954,-78.8885 128.648,-71.8952"/>
<text text-anchor="middle" x="183.6" y="-77.8" font-family="Times New Roman,serif" font-size="14.00">j</text>
</g>
<!-- 4&#45;&gt;2 -->
<g id="edge6" class="edge"><title>4&#45;&gt;2</title>
<path fill="none" stroke="black" d="M282.457,-61.1961C293.367,-54.7309 308.494,-45.7666 321.529,-38.0423"/>
<polygon fill="black" stroke="black" points="323.322,-41.048 330.141,-32.9389 319.753,-35.0259 323.322,-41.048"/>
<text text-anchor="middle" x="306.1" y="-51.8" font-family="Times New Roman,serif" font-size="14.00">k</text>
</g>
</g>
</svg>
