<?xml version="1.0" encoding="UTF-8" standalone="no"?>
<!DOCTYPE svg PUBLIC "-//W3C//DTD SVG 1.1//EN"
 "http://www.w3.org/Graphics/SVG/1.1/DTD/svg11.dtd">
<!-- Generated by graphviz version 2.38.0 (20140413.2041)
 -->
<!-- Title: dfa Pages: 1 -->
<svg width="298pt" height="142pt"
 viewBox="0.00 0.00 297.60 142.46" xmlns="http://www.w3.org/2000/svg" xmlns:xlink="http://www.w3.org/1999/xlink">
<g id="graph0" class="graph" transform="scale(1 1) rotate(0) translate(4 138.463)">
<title>dfa</title>
<polygon fill="white" stroke="none" points="-4,4 -4,-138.463 293.6,-138.463 293.6,4 -4,4"/>
<!-- __start -->
<!-- 0 -->
<g id="node2" class="node"><title>0</title>
<ellipse fill="none" stroke="black" cx="91.6" cy="-50.4627" rx="27" ry="18"/>
<text text-anchor="middle" x="91.6" y="-46.7627" font-family="Times New Roman,serif" font-size="14.00">0</text>
</g>
<!-- __start&#45;&gt;0 -->
<g id="edge1" class="edge"><title>__start&#45;&gt;0</title>
<path fill="none" stroke="black" d="M3.78604,-50.4627C8.86985,-50.4627 32.7092,-50.4627 54.1222,-50.4627"/>
<polygon fill="black" stroke="black" points="54.3463,-53.9628 64.3463,-50.4627 54.3463,-46.9628 54.3463,-53.9628"/>
<text text-anchor="middle" x="34.1" y="-54.2627" font-family="Times New Roman,serif" font-size="14.00">start</text>
</g>
<!-- 1 -->
<g id="node3" class="node"><title>1</title>
<ellipse fill="none" stroke="black" cx="267.6" cy="-50.4627" rx="18" ry="18"/>
<ellipse fill="none" stroke="black" cx="267.6" cy="-50.4627" rx="22" ry="22"/>
<text text-anchor="middle" x="267.6" y="-46.7627" font-family="Times New Roman,serif" font-size="14.00">1</text>
</g>
<!-- 0&#45;&gt;1 -->
<g id="edge2" class="edge"><title>0&#45;&gt;1</title>
<path fill="none" stroke="black" d="M103.498,-66.6665C115.068,-82.2695 134.932,-104.872 158.6,-114.463 176.724,-121.807 184.533,-121.946 202.6,-114.463 221.289,-106.722 237.366,-90.5819 248.732,-76.4479"/>
<polygon fill="black" stroke="black" points="251.565,-78.5047 254.863,-68.4365 246.006,-74.2502 251.565,-78.5047"/>
<text text-anchor="middle" x="180.6" y="-123.263" font-family="Times New Roman,serif" font-size="14.00">k</text>
</g>
<!-- 2 -->
<g id="node4" class="node"><title>2</title>
<ellipse fill="none" stroke="black" cx="180.6" cy="-50.4627" rx="18" ry="18"/>
<ellipse fill="none" stroke="black" cx="180.6" cy="-50.4627" rx="22" ry="22"/>
<text text-anchor="middle" x="180.6" y="-46.7627" font-family="Times New Roman,serif" font-size="14.00">2</text>
</g>
<!-- 0&#45;&gt;2 -->
<g id="edge3" class="edge"><title>0&#45;&gt;2</title>
<path fill="none" stroke="black" d="M118.703,-50.4627C128.039,-50.4627 138.655,-50.4627 148.38,-50.4627"/>
<polygon fill="black" stroke="black" points="148.479,-53.9628 158.479,-50.4627 148.479,-46.9628 148.479,-53.9628"/>
<text text-anchor="middle" x="138.6" y="-54.2627" font-family="Times New Roman,serif" font-size="14.00">j</text>
</g>
<!-- 1&#45;&gt;0 -->
<g id="edge5" class="edge"><title>1&#45;&gt;0</title>
<path fill="none" stroke="black" d="M251.338,-35.2216C239.261,-24.3032 221.355,-10.5036 202.6,-4.46273 183.986,1.53264 177.257,1.39744 158.6,-4.46273 142.685,-9.46167 127.254,-19.809 115.32,-29.4259"/>
<polygon fill="black" stroke="black" points="113.041,-26.7695 107.653,-35.8924 117.554,-32.1203 113.041,-26.7695"/>
<text text-anchor="middle" x="180.6" y="-8.26273" font-family="Times New Roman,serif" font-size="14.00">j</text>
</g>
<!-- 1&#45;&gt;1 -->
<g id="edge4" class="edge"><title>1&#45;&gt;1</title>
<path fill="none" stroke="black" d="M259.917,-71.4535C258.969,-81.55 261.53,-90.4627 267.6,-90.4627 271.489,-90.4627 273.937,-86.8049 274.946,-81.5214"/>
<polygon fill="black" stroke="black" points="278.446,-81.5651 275.283,-71.4535 271.45,-81.3307 278.446,-81.5651"/>
<text text-anchor="middle" x="267.6" y="-94.2627" font-family="Times New Roman,serif" font-size="14.00">k</text>
</g>
<!-- 2&#45;&gt;1 -->
<g id="edge6" class="edge"><title>2&#45;&gt;1</title>
<path fill="none" stroke="black" d="M202.611,-50.4627C212.521,-50.4627 224.547,-50.4627 235.485,-50.4627"/>
<polygon fill="black" stroke="black" points="235.536,-53.9628 245.536,-50.4627 235.536,-46.9628 235.536,-53.9628"/>
<text text-anchor="middle" x="224.1" y="-54.2627" font-family="Times New Roman,serif" font-size="14.00">k</text>
</g>
<!-- 2&#45;&gt;2 -->
<g id="edge7" class="edge"><title>2&#45;&gt;2</title>
<path fill="none" stroke="black" d="M172.917,-71.4535C171.969,-81.55 174.53,-90.4627 180.6,-90.4627 184.489,-90.4627 186.937,-86.8049 187.946,-81.5214"/>
<polygon fill="black" stroke="black" points="191.446,-81.5651 188.283,-71.4535 184.45,-81.3307 191.446,-81.5651"/>
<text text-anchor="middle" x="180.6" y="-94.2627" font-family="Times New Roman,serif" font-size="14.00">j</text>
</g>
</g>
</svg>
