<?xml version="1.0" encoding="UTF-8" standalone="no"?>
<!DOCTYPE svg PUBLIC "-//W3C//DTD SVG 1.1//EN"
 "http://www.w3.org/Graphics/SVG/1.1/DTD/svg11.dtd">
<!-- Generated by graphviz version 2.38.0 (20140413.2041)
 -->
<!-- Title: dfa Pages: 1 -->
<svg width="280pt" height="143pt"
 viewBox="0.00 0.00 279.60 142.76" xmlns="http://www.w3.org/2000/svg" xmlns:xlink="http://www.w3.org/1999/xlink">
<g id="graph0" class="graph" transform="scale(1 1) rotate(0) translate(4 138.755)">
<title>dfa</title>
<polygon fill="white" stroke="none" points="-4,4 -4,-138.755 275.6,-138.755 275.6,4 -4,4"/>
<!-- __start -->
<!-- 0 -->
<g id="node2" class="node"><title>0</title>
<ellipse fill="none" stroke="black" cx="82.6" cy="-50.755" rx="18" ry="18"/>
<text text-anchor="middle" x="82.6" y="-47.055" font-family="Times New Roman,serif" font-size="14.00">0</text>
</g>
<!-- __start&#45;&gt;0 -->
<g id="edge1" class="edge"><title>__start&#45;&gt;0</title>
<path fill="none" stroke="black" d="M3.68496,-50.755C8.69573,-50.755 34.008,-50.755 54.4423,-50.755"/>
<polygon fill="black" stroke="black" points="54.5501,-54.2551 64.5501,-50.755 54.5501,-47.2551 54.5501,-54.2551"/>
<text text-anchor="middle" x="34.1" y="-54.555" font-family="Times New Roman,serif" font-size="14.00">start</text>
</g>
<!-- 1 -->
<g id="node3" class="node"><title>1</title>
<ellipse fill="none" stroke="black" cx="249.6" cy="-50.755" rx="18" ry="18"/>
<ellipse fill="none" stroke="black" cx="249.6" cy="-50.755" rx="22" ry="22"/>
<text text-anchor="middle" x="249.6" y="-47.055" font-family="Times New Roman,serif" font-size="14.00">1</text>
</g>
<!-- 0&#45;&gt;1 -->
<g id="edge2" class="edge"><title>0&#45;&gt;1</title>
<path fill="none" stroke="black" d="M92.1157,-66.3152C101.623,-81.8825 118.607,-104.891 140.6,-114.755 158.443,-122.757 166.533,-122.239 184.6,-114.755 203.289,-107.014 219.366,-90.8741 230.732,-76.7402"/>
<polygon fill="black" stroke="black" points="233.565,-78.797 236.863,-68.7288 228.006,-74.5425 233.565,-78.797"/>
<text text-anchor="middle" x="162.6" y="-123.555" font-family="Times New Roman,serif" font-size="14.00">k</text>
</g>
<!-- 2 -->
<g id="node4" class="node"><title>2</title>
<ellipse fill="none" stroke="black" cx="162.6" cy="-50.755" rx="18" ry="18"/>
<ellipse fill="none" stroke="black" cx="162.6" cy="-50.755" rx="22" ry="22"/>
<text text-anchor="middle" x="162.6" y="-47.055" font-family="Times New Roman,serif" font-size="14.00">2</text>
</g>
<!-- 0&#45;&gt;2 -->
<g id="edge3" class="edge"><title>0&#45;&gt;2</title>
<path fill="none" stroke="black" d="M100.911,-50.755C109.571,-50.755 120.325,-50.755 130.363,-50.755"/>
<polygon fill="black" stroke="black" points="130.447,-54.2551 140.447,-50.755 130.447,-47.2551 130.447,-54.2551"/>
<text text-anchor="middle" x="120.6" y="-54.555" font-family="Times New Roman,serif" font-size="14.00">j</text>
</g>
<!-- 1&#45;&gt;0 -->
<g id="edge5" class="edge"><title>1&#45;&gt;0</title>
<path fill="none" stroke="black" d="M233.338,-35.5139C221.261,-24.5955 203.355,-10.7959 184.6,-4.75502 165.986,1.24035 159.039,1.75733 140.6,-4.75502 126.077,-9.88439 112.536,-20.4577 102.3,-30.1752"/>
<polygon fill="black" stroke="black" points="99.741,-27.7843 95.1545,-37.335 104.696,-32.729 99.741,-27.7843"/>
<text text-anchor="middle" x="162.6" y="-8.55502" font-family="Times New Roman,serif" font-size="14.00">j</text>
</g>
<!-- 1&#45;&gt;1 -->
<g id="edge4" class="edge"><title>1&#45;&gt;1</title>
<path fill="none" stroke="black" d="M241.917,-71.7458C240.969,-81.8423 243.53,-90.755 249.6,-90.755 253.489,-90.755 255.937,-87.0972 256.946,-81.8137"/>
<polygon fill="black" stroke="black" points="260.446,-81.8573 257.283,-71.7458 253.45,-81.623 260.446,-81.8573"/>
<text text-anchor="middle" x="249.6" y="-94.555" font-family="Times New Roman,serif" font-size="14.00">k</text>
</g>
<!-- 2&#45;&gt;1 -->
<g id="edge6" class="edge"><title>2&#45;&gt;1</title>
<path fill="none" stroke="black" d="M184.611,-50.755C194.521,-50.755 206.547,-50.755 217.485,-50.755"/>
<polygon fill="black" stroke="black" points="217.536,-54.2551 227.536,-50.755 217.536,-47.2551 217.536,-54.2551"/>
<text text-anchor="middle" x="206.1" y="-54.555" font-family="Times New Roman,serif" font-size="14.00">k</text>
</g>
<!-- 2&#45;&gt;2 -->
<g id="edge7" class="edge"><title>2&#45;&gt;2</title>
<path fill="none" stroke="black" d="M154.917,-71.7458C153.969,-81.8423 156.53,-90.755 162.6,-90.755 166.489,-90.755 168.937,-87.0972 169.946,-81.8137"/>
<polygon fill="black" stroke="black" points="173.446,-81.8573 170.283,-71.7458 166.45,-81.623 173.446,-81.8573"/>
<text text-anchor="middle" x="162.6" y="-94.555" font-family="Times New Roman,serif" font-size="14.00">j</text>
</g>
</g>
</svg>
