<?xml version="1.0" encoding="UTF-8" standalone="no"?>
<!DOCTYPE svg PUBLIC "-//W3C//DTD SVG 1.1//EN"
 "http://www.w3.org/Graphics/SVG/1.1/DTD/svg11.dtd">
<!-- Generated by graphviz version 2.38.0 (20140413.2041)
 -->
<!-- Title: dfa Pages: 1 -->
<svg width="496pt" height="234pt"
 viewBox="0.00 0.00 495.58 233.64" xmlns="http://www.w3.org/2000/svg" xmlns:xlink="http://www.w3.org/1999/xlink">
<g id="graph0" class="graph" transform="scale(1 1) rotate(0) translate(4 229.638)">
<title>dfa</title>
<polygon fill="white" stroke="none" points="-4,4 -4,-229.638 491.576,-229.638 491.576,4 -4,4"/>
<!-- __start -->
<!-- {0} -->
<g id="node2" class="node"><title>{0}</title>
<ellipse fill="none" stroke="black" cx="88.6479" cy="-142.941" rx="24.0958" ry="24.0958"/>
<text text-anchor="middle" x="88.6479" y="-139.241" font-family="Times New Roman,serif" font-size="14.00">{0}</text>
</g>
<!-- __start&#45;&gt;{0} -->
<g id="edge1" class="edge"><title>__start&#45;&gt;{0}</title>
<path fill="none" stroke="black" d="M3.75288,-142.941C8.82222,-142.941 33.1893,-142.941 54.3658,-142.941"/>
<polygon fill="black" stroke="black" points="54.4068,-146.441 64.4067,-142.941 54.4067,-139.441 54.4068,-146.441"/>
<text text-anchor="middle" x="34.1" y="-146.741" font-family="Times New Roman,serif" font-size="14.00">start</text>
</g>
<!-- {2,3,4} -->
<g id="node3" class="node"><title>{2,3,4}</title>
<ellipse fill="none" stroke="black" cx="445.879" cy="-150.941" rx="37.8753" ry="37.8753"/>
<ellipse fill="none" stroke="black" cx="445.879" cy="-150.941" rx="41.8942" ry="41.8942"/>
<text text-anchor="middle" x="445.879" y="-147.241" font-family="Times New Roman,serif" font-size="14.00">{2,3,4}</text>
</g>
<!-- {0}&#45;&gt;{2,3,4} -->
<g id="edge2" class="edge"><title>{0}&#45;&gt;{2,3,4}</title>
<path fill="none" stroke="black" d="M106.544,-159.069C118.421,-169.241 135.251,-181.456 152.696,-186.941 176.399,-194.395 314.555,-191.77 361.182,-182.941 373.482,-180.613 386.319,-176.586 398.14,-172.159"/>
<polygon fill="black" stroke="black" points="399.763,-175.282 407.797,-168.375 397.209,-168.765 399.763,-175.282"/>
<text text-anchor="middle" x="243.29" y="-195.741" font-family="Times New Roman,serif" font-size="14.00">k</text>
</g>
<!-- {0,1} -->
<g id="node4" class="node"><title>{0,1}</title>
<ellipse fill="none" stroke="black" cx="187.243" cy="-142.941" rx="30.5892" ry="30.5892"/>
<ellipse fill="none" stroke="black" cx="187.243" cy="-142.941" rx="34.5946" ry="34.5946"/>
<text text-anchor="middle" x="187.243" y="-139.241" font-family="Times New Roman,serif" font-size="14.00">{0,1}</text>
</g>
<!-- {0}&#45;&gt;{0,1} -->
<g id="edge3" class="edge"><title>{0}&#45;&gt;{0,1}</title>
<path fill="none" stroke="black" d="M113.031,-142.941C121.816,-142.941 132.116,-142.941 142.17,-142.941"/>
<polygon fill="black" stroke="black" points="142.484,-146.441 152.484,-142.941 142.484,-139.441 142.484,-146.441"/>
<text text-anchor="middle" x="132.696" y="-146.741" font-family="Times New Roman,serif" font-size="14.00">j</text>
</g>
<!-- {2,3,4}&#45;&gt;{0} -->
<g id="edge5" class="edge"><title>{2,3,4}&#45;&gt;{0}</title>
<path fill="none" stroke="black" d="M432.714,-111.097C420.413,-78.4956 397.889,-34.5309 361.182,-13.9413 271.527,36.3485 159.095,-67.1085 112.006,-117.5"/>
<polygon fill="black" stroke="black" points="109.211,-115.369 105.023,-125.101 114.366,-120.105 109.211,-115.369"/>
<text text-anchor="middle" x="243.29" y="-21.7413" font-family="Times New Roman,serif" font-size="14.00">j</text>
</g>
<!-- {2,3,4}&#45;&gt;{2,3,4} -->
<g id="edge4" class="edge"><title>{2,3,4}&#45;&gt;{2,3,4}</title>
<path fill="none" stroke="black" d="M434.325,-191.117C434.883,-202.182 438.735,-210.638 445.879,-210.638 450.568,-210.638 453.838,-206.996 455.69,-201.366"/>
<polygon fill="black" stroke="black" points="459.207,-201.563 457.433,-191.117 452.306,-200.389 459.207,-201.563"/>
<text text-anchor="middle" x="445.879" y="-214.438" font-family="Times New Roman,serif" font-size="14.00">k</text>
</g>
<!-- {0,1}&#45;&gt;{2,3,4} -->
<g id="edge6" class="edge"><title>{0,1}&#45;&gt;{2,3,4}</title>
<path fill="none" stroke="black" d="M220.729,-152.33C234.232,-155.773 250.144,-159.242 264.79,-160.941 308.247,-165.982 357.907,-162.543 394.058,-158.378"/>
<polygon fill="black" stroke="black" points="394.843,-161.808 404.35,-157.13 394.001,-154.859 394.843,-161.808"/>
<text text-anchor="middle" x="312.986" y="-167.741" font-family="Times New Roman,serif" font-size="14.00">k</text>
</g>
<!-- {0,1,3,4} -->
<g id="node5" class="node"><title>{0,1,3,4}</title>
<ellipse fill="none" stroke="black" cx="312.986" cy="-70.9413" rx="44.3766" ry="44.3766"/>
<ellipse fill="none" stroke="black" cx="312.986" cy="-70.9413" rx="48.393" ry="48.393"/>
<text text-anchor="middle" x="312.986" y="-67.2413" font-family="Times New Roman,serif" font-size="14.00">{0,1,3,4}</text>
</g>
<!-- {0,1}&#45;&gt;{0,1,3,4} -->
<g id="edge7" class="edge"><title>{0,1}&#45;&gt;{0,1,3,4}</title>
<path fill="none" stroke="black" d="M217.568,-125.878C230.832,-118.161 246.884,-108.821 261.962,-100.048"/>
<polygon fill="black" stroke="black" points="263.815,-103.019 270.698,-94.9647 260.295,-96.9687 263.815,-103.019"/>
<text text-anchor="middle" x="243.29" y="-115.741" font-family="Times New Roman,serif" font-size="14.00">j</text>
</g>
<!-- {0,1,3,4}&#45;&gt;{2,3,4} -->
<g id="edge8" class="edge"><title>{0,1,3,4}&#45;&gt;{2,3,4}</title>
<path fill="none" stroke="black" d="M354.684,-95.8153C369.489,-104.864 386.276,-115.124 401.32,-124.318"/>
<polygon fill="black" stroke="black" points="399.59,-127.363 409.947,-129.591 403.24,-121.39 399.59,-127.363"/>
<text text-anchor="middle" x="382.682" y="-117.741" font-family="Times New Roman,serif" font-size="14.00">k</text>
</g>
<!-- {0,1,3,4}&#45;&gt;{0,1,3,4} -->
<g id="edge9" class="edge"><title>{0,1,3,4}&#45;&gt;{0,1,3,4}</title>
<path fill="none" stroke="black" d="M300.461,-117.643C301.44,-128.841 305.615,-137.137 312.986,-137.137 317.939,-137.137 321.449,-133.392 323.515,-127.538"/>
<polygon fill="black" stroke="black" points="326.965,-128.138 325.511,-117.643 320.103,-126.754 326.965,-128.138"/>
<text text-anchor="middle" x="312.986" y="-140.937" font-family="Times New Roman,serif" font-size="14.00">j</text>
</g>
</g>
</svg>
