<?xml version="1.0" encoding="UTF-8" standalone="no"?>
<!DOCTYPE svg PUBLIC "-//W3C//DTD SVG 1.1//EN"
 "http://www.w3.org/Graphics/SVG/1.1/DTD/svg11.dtd">
<!-- Generated by graphviz version 2.38.0 (20140413.2041)
 -->
<!-- Title: dfa Pages: 1 -->
<svg width="501pt" height="234pt"
 viewBox="0.00 0.00 501.48 233.87" xmlns="http://www.w3.org/2000/svg" xmlns:xlink="http://www.w3.org/1999/xlink">
<g id="graph0" class="graph" transform="scale(1 1) rotate(0) translate(4 229.87)">
<title>dfa</title>
<polygon fill="white" stroke="none" points="-4,4 -4,-229.87 497.48,-229.87 497.48,4 -4,4"/>
<!-- __start -->
<!-- {0} -->
<g id="node2" class="node"><title>{0}</title>
<ellipse fill="none" stroke="black" cx="91.6" cy="-143.173" rx="27" ry="18"/>
<text text-anchor="middle" x="91.6" y="-139.473" font-family="Times New Roman,serif" font-size="14.00">{0}</text>
</g>
<!-- __start&#45;&gt;{0} -->
<g id="edge1" class="edge"><title>__start&#45;&gt;{0}</title>
<path fill="none" stroke="black" d="M3.78604,-143.173C8.86985,-143.173 32.7092,-143.173 54.1222,-143.173"/>
<polygon fill="black" stroke="black" points="54.3463,-146.673 64.3463,-143.173 54.3463,-139.673 54.3463,-146.673"/>
<text text-anchor="middle" x="34.1" y="-146.973" font-family="Times New Roman,serif" font-size="14.00">start</text>
</g>
<!-- {2,3,4} -->
<g id="node3" class="node"><title>{2,3,4}</title>
<ellipse fill="none" stroke="black" cx="451.783" cy="-151.173" rx="37.8753" ry="37.8753"/>
<ellipse fill="none" stroke="black" cx="451.783" cy="-151.173" rx="41.8942" ry="41.8942"/>
<text text-anchor="middle" x="451.783" y="-147.473" font-family="Times New Roman,serif" font-size="14.00">{2,3,4}</text>
</g>
<!-- {0}&#45;&gt;{2,3,4} -->
<g id="edge2" class="edge"><title>{0}&#45;&gt;{2,3,4}</title>
<path fill="none" stroke="black" d="M108.285,-157.552C120.853,-168.039 139.489,-181.387 158.6,-187.173 182.865,-194.52 321.593,-191.787 367.087,-183.173 379.386,-180.844 392.223,-176.818 404.044,-172.391"/>
<polygon fill="black" stroke="black" points="405.667,-175.514 413.701,-168.607 403.113,-168.997 405.667,-175.514"/>
<text text-anchor="middle" x="249.195" y="-195.973" font-family="Times New Roman,serif" font-size="14.00">k</text>
</g>
<!-- {0,1} -->
<g id="node4" class="node"><title>{0,1}</title>
<ellipse fill="none" stroke="black" cx="193.147" cy="-143.173" rx="30.5892" ry="30.5892"/>
<ellipse fill="none" stroke="black" cx="193.147" cy="-143.173" rx="34.5946" ry="34.5946"/>
<text text-anchor="middle" x="193.147" y="-139.473" font-family="Times New Roman,serif" font-size="14.00">{0,1}</text>
</g>
<!-- {0}&#45;&gt;{0,1} -->
<g id="edge3" class="edge"><title>{0}&#45;&gt;{0,1}</title>
<path fill="none" stroke="black" d="M118.755,-143.173C127.733,-143.173 138.046,-143.173 148.05,-143.173"/>
<polygon fill="black" stroke="black" points="148.293,-146.673 158.293,-143.173 148.293,-139.673 148.293,-146.673"/>
<text text-anchor="middle" x="138.6" y="-146.973" font-family="Times New Roman,serif" font-size="14.00">j</text>
</g>
<!-- {2,3,4}&#45;&gt;{0} -->
<g id="edge5" class="edge"><title>{2,3,4}&#45;&gt;{0}</title>
<path fill="none" stroke="black" d="M438.618,-111.329C426.317,-78.7275 403.793,-34.7628 367.087,-14.1732 275.11,37.419 159.04,-70.6766 112.875,-120.171"/>
<polygon fill="black" stroke="black" points="110.261,-117.843 106.08,-127.578 115.419,-122.575 110.261,-117.843"/>
<text text-anchor="middle" x="249.195" y="-20.9732" font-family="Times New Roman,serif" font-size="14.00">j</text>
</g>
<!-- {2,3,4}&#45;&gt;{2,3,4} -->
<g id="edge4" class="edge"><title>{2,3,4}&#45;&gt;{2,3,4}</title>
<path fill="none" stroke="black" d="M440.229,-191.349C440.788,-202.414 444.639,-210.87 451.783,-210.87 456.472,-210.87 459.742,-207.228 461.594,-201.598"/>
<polygon fill="black" stroke="black" points="465.111,-201.795 463.337,-191.349 458.21,-200.621 465.111,-201.795"/>
<text text-anchor="middle" x="451.783" y="-214.67" font-family="Times New Roman,serif" font-size="14.00">k</text>
</g>
<!-- {0,1}&#45;&gt;{2,3,4} -->
<g id="edge6" class="edge"><title>{0,1}&#45;&gt;{2,3,4}</title>
<path fill="none" stroke="black" d="M226.633,-152.562C240.136,-156.005 256.049,-159.474 270.695,-161.173 314.151,-166.214 363.812,-162.774 399.962,-158.609"/>
<polygon fill="black" stroke="black" points="400.747,-162.04 410.254,-157.362 399.905,-155.091 400.747,-162.04"/>
<text text-anchor="middle" x="318.891" y="-167.973" font-family="Times New Roman,serif" font-size="14.00">k</text>
</g>
<!-- {0,1,3,4} -->
<g id="node5" class="node"><title>{0,1,3,4}</title>
<ellipse fill="none" stroke="black" cx="318.891" cy="-71.1732" rx="44.3766" ry="44.3766"/>
<ellipse fill="none" stroke="black" cx="318.891" cy="-71.1732" rx="48.393" ry="48.393"/>
<text text-anchor="middle" x="318.891" y="-67.4732" font-family="Times New Roman,serif" font-size="14.00">{0,1,3,4}</text>
</g>
<!-- {0,1}&#45;&gt;{0,1,3,4} -->
<g id="edge7" class="edge"><title>{0,1}&#45;&gt;{0,1,3,4}</title>
<path fill="none" stroke="black" d="M223.473,-126.11C236.736,-118.393 252.789,-109.053 267.866,-100.28"/>
<polygon fill="black" stroke="black" points="269.719,-103.251 276.603,-95.1966 266.199,-97.2006 269.719,-103.251"/>
<text text-anchor="middle" x="249.195" y="-115.973" font-family="Times New Roman,serif" font-size="14.00">j</text>
</g>
<!-- {0,1,3,4}&#45;&gt;{2,3,4} -->
<g id="edge8" class="edge"><title>{0,1,3,4}&#45;&gt;{2,3,4}</title>
<path fill="none" stroke="black" d="M360.588,-96.0471C375.394,-105.096 392.181,-115.356 407.224,-124.55"/>
<polygon fill="black" stroke="black" points="405.494,-127.595 415.852,-129.823 409.144,-121.622 405.494,-127.595"/>
<text text-anchor="middle" x="388.587" y="-117.973" font-family="Times New Roman,serif" font-size="14.00">k</text>
</g>
<!-- {0,1,3,4}&#45;&gt;{0,1,3,4} -->
<g id="edge9" class="edge"><title>{0,1,3,4}&#45;&gt;{0,1,3,4}</title>
<path fill="none" stroke="black" d="M306.366,-117.875C307.345,-129.073 311.52,-137.369 318.891,-137.369 323.843,-137.369 327.353,-133.624 329.42,-127.77"/>
<polygon fill="black" stroke="black" points="332.869,-128.37 331.416,-117.875 326.007,-126.986 332.869,-128.37"/>
<text text-anchor="middle" x="318.891" y="-141.169" font-family="Times New Roman,serif" font-size="14.00">j</text>
</g>
</g>
</svg>
