<?xml version="1.0" encoding="UTF-8" standalone="no"?>
<!DOCTYPE svg PUBLIC "-//W3C//DTD SVG 1.1//EN"
 "http://www.w3.org/Graphics/SVG/1.1/DTD/svg11.dtd">
<!-- Generated by graphviz version 2.38.0 (20140413.2041)
 -->
<!-- Title: dfa Pages: 1 -->
<svg width="293pt" height="85pt"
 viewBox="0.00 0.00 292.60 85.00" xmlns="http://www.w3.org/2000/svg" xmlns:xlink="http://www.w3.org/1999/xlink">
<g id="graph0" class="graph" transform="scale(1 1) rotate(0) translate(4 81)">
<title>dfa</title>
<polygon fill="white" stroke="none" points="-4,4 -4,-81 288.6,-81 288.6,4 -4,4"/>
<!-- __start -->
<!-- 0 -->
<g id="node2" class="node"><title>0</title>
<ellipse fill="none" stroke="black" cx="91.6" cy="-22" rx="27" ry="18"/>
<text text-anchor="middle" x="91.6" y="-18.3" font-family="Times New Roman,serif" font-size="14.00">0</text>
</g>
<!-- __start&#45;&gt;0 -->
<g id="edge1" class="edge"><title>__start&#45;&gt;0</title>
<path fill="none" stroke="black" d="M3.78604,-22C8.86985,-22 32.7092,-22 54.1222,-22"/>
<polygon fill="black" stroke="black" points="54.3463,-25.5001 64.3463,-22 54.3463,-18.5001 54.3463,-25.5001"/>
<text text-anchor="middle" x="34.1" y="-25.8" font-family="Times New Roman,serif" font-size="14.00">start</text>
</g>
<!-- 2 -->
<g id="node4" class="node"><title>2</title>
<ellipse fill="none" stroke="black" cx="179.6" cy="-22" rx="18" ry="18"/>
<text text-anchor="middle" x="179.6" y="-18.3" font-family="Times New Roman,serif" font-size="14.00">2</text>
</g>
<!-- 0&#45;&gt;2 -->
<g id="edge4" class="edge"><title>0&#45;&gt;2</title>
<path fill="none" stroke="black" d="M118.87,-22C129.135,-22 140.908,-22 151.272,-22"/>
<polygon fill="black" stroke="black" points="151.442,-25.5001 161.442,-22 151.442,-18.5001 151.442,-25.5001"/>
<text text-anchor="middle" x="140.1" y="-25.8" font-family="Times New Roman,serif" font-size="14.00">x</text>
</g>
<!-- 1 -->
<g id="node3" class="node"><title>1</title>
<ellipse fill="none" stroke="black" cx="262.6" cy="-22" rx="18" ry="18"/>
<ellipse fill="none" stroke="black" cx="262.6" cy="-22" rx="22" ry="22"/>
<text text-anchor="middle" x="262.6" y="-18.3" font-family="Times New Roman,serif" font-size="14.00">1</text>
</g>
<!-- 1&#45;&gt;1 -->
<g id="edge2" class="edge"><title>1&#45;&gt;1</title>
<path fill="none" stroke="black" d="M254.917,-42.9908C253.969,-53.0872 256.53,-62 262.6,-62 266.489,-62 268.937,-58.3422 269.946,-53.0587"/>
<polygon fill="black" stroke="black" points="273.446,-53.1023 270.283,-42.9908 266.45,-52.868 273.446,-53.1023"/>
<text text-anchor="middle" x="262.6" y="-65.8" font-family="Times New Roman,serif" font-size="14.00">x</text>
</g>
<!-- 2&#45;&gt;1 -->
<g id="edge3" class="edge"><title>2&#45;&gt;1</title>
<path fill="none" stroke="black" d="M197.778,-22C207.21,-22 219.201,-22 230.237,-22"/>
<polygon fill="black" stroke="black" points="230.411,-25.5001 240.411,-22 230.411,-18.5001 230.411,-25.5001"/>
<text text-anchor="middle" x="219.1" y="-25.8" font-family="Times New Roman,serif" font-size="14.00">x</text>
</g>
</g>
</svg>
