<?xml version="1.0" encoding="UTF-8" standalone="no"?>
<!DOCTYPE svg PUBLIC "-//W3C//DTD SVG 1.1//EN"
 "http://www.w3.org/Graphics/SVG/1.1/DTD/svg11.dtd">
<!-- Generated by graphviz version 2.38.0 (20140413.2041)
 -->
<!-- Title: dfa Pages: 1 -->
<svg width="275pt" height="52pt"
 viewBox="0.00 0.00 274.60 52.00" xmlns="http://www.w3.org/2000/svg" xmlns:xlink="http://www.w3.org/1999/xlink">
<g id="graph0" class="graph" transform="scale(1 1) rotate(0) translate(4 48)">
<title>dfa</title>
<polygon fill="white" stroke="none" points="-4,4 -4,-48 270.6,-48 270.6,4 -4,4"/>
<!-- __start -->
<!-- 0 -->
<g id="node2" class="node"><title>0</title>
<ellipse fill="none" stroke="black" cx="82.6" cy="-22" rx="18" ry="18"/>
<text text-anchor="middle" x="82.6" y="-18.3" font-family="Times New Roman,serif" font-size="14.00">0</text>
</g>
<!-- __start&#45;&gt;0 -->
<g id="edge1" class="edge"><title>__start&#45;&gt;0</title>
<path fill="none" stroke="black" d="M3.68496,-22C8.69573,-22 34.008,-22 54.4423,-22"/>
<polygon fill="black" stroke="black" points="54.5501,-25.5001 64.5501,-22 54.5501,-18.5001 54.5501,-25.5001"/>
<text text-anchor="middle" x="34.1" y="-25.8" font-family="Times New Roman,serif" font-size="14.00">start</text>
</g>
<!-- 1 -->
<g id="node3" class="node"><title>1</title>
<ellipse fill="none" stroke="black" cx="165.6" cy="-22" rx="18" ry="18"/>
<ellipse fill="none" stroke="black" cx="165.6" cy="-22" rx="22" ry="22"/>
<text text-anchor="middle" x="165.6" y="-18.3" font-family="Times New Roman,serif" font-size="14.00">1</text>
</g>
<!-- 0&#45;&gt;1 -->
<g id="edge4" class="edge"><title>0&#45;&gt;1</title>
<path fill="none" stroke="black" d="M100.778,-22C110.21,-22 122.201,-22 133.237,-22"/>
<polygon fill="black" stroke="black" points="133.411,-25.5001 143.411,-22 133.411,-18.5001 133.411,-25.5001"/>
<text text-anchor="middle" x="122.1" y="-25.8" font-family="Times New Roman,serif" font-size="14.00">x</text>
</g>
<!-- 2 -->
<g id="node4" class="node"><title>2</title>
<ellipse fill="none" stroke="black" cx="248.6" cy="-22" rx="18" ry="18"/>
<text text-anchor="middle" x="248.6" y="-18.3" font-family="Times New Roman,serif" font-size="14.00">2</text>
</g>
<!-- 1&#45;&gt;2 -->
<g id="edge3" class="edge"><title>1&#45;&gt;2</title>
<path fill="none" stroke="black" d="M187.882,-22C197.866,-22 209.878,-22 220.503,-22"/>
<polygon fill="black" stroke="black" points="220.54,-25.5001 230.539,-22 220.539,-18.5001 220.54,-25.5001"/>
<text text-anchor="middle" x="209.1" y="-25.8" font-family="Times New Roman,serif" font-size="14.00">x</text>
</g>
<!-- 2&#45;&gt;1 -->
<g id="edge2" class="edge"><title>2&#45;&gt;1</title>
<path fill="none" stroke="black" d="M232.883,-12.4577C226.85,-9.08304 219.64,-5.70409 212.6,-4 206.255,-2.46403 199.616,-3.43319 193.419,-5.55343"/>
<polygon fill="black" stroke="black" points="191.889,-2.40258 184.15,-9.63813 194.712,-8.80816 191.889,-2.40258"/>
<text text-anchor="middle" x="209.1" y="-7.8" font-family="Times New Roman,serif" font-size="14.00">x</text>
</g>
</g>
</svg>
