<?xml version="1.0" encoding="UTF-8" standalone="no"?>
<!DOCTYPE svg PUBLIC "-//W3C//DTD SVG 1.1//EN"
 "http://www.w3.org/Graphics/SVG/1.1/DTD/svg11.dtd">
<!-- Generated by graphviz version 2.38.0 (20140413.2041)
 -->
<!-- Title: dfa Pages: 1 -->
<svg width="293pt" height="52pt"
 viewBox="0.00 0.00 292.60 52.00" xmlns="http://www.w3.org/2000/svg" xmlns:xlink="http://www.w3.org/1999/xlink">
<g id="graph0" class="graph" transform="scale(1 1) rotate(0) translate(4 48)">
<title>dfa</title>
<polygon fill="white" stroke="none" points="-4,4 -4,-48 288.6,-48 288.6,4 -4,4"/>
<!-- __start -->
<!-- 0 -->
<g id="node2" class="node"><title>0</title>
<ellipse fill="none" stroke="black" cx="91.6" cy="-22" rx="27" ry="18"/>
<text text-anchor="middle" x="91.6" y="-18.3" font-family="Times New Roman,serif" font-size="14.00">0</text>
</g>
<!-- __start&#45;&gt;0 -->
<g id="edge1" class="edge"><title>__start&#45;&gt;0</title>
<path fill="none" stroke="black" d="M3.78604,-22C8.86985,-22 32.7092,-22 54.1222,-22"/>
<polygon fill="black" stroke="black" points="54.3463,-25.5001 64.3463,-22 54.3463,-18.5001 54.3463,-25.5001"/>
<text text-anchor="middle" x="34.1" y="-25.8" font-family="Times New Roman,serif" font-size="14.00">start</text>
</g>
<!-- 1 -->
<g id="node3" class="node"><title>1</title>
<ellipse fill="none" stroke="black" cx="183.6" cy="-22" rx="18" ry="18"/>
<ellipse fill="none" stroke="black" cx="183.6" cy="-22" rx="22" ry="22"/>
<text text-anchor="middle" x="183.6" y="-18.3" font-family="Times New Roman,serif" font-size="14.00">1</text>
</g>
<!-- 0&#45;&gt;1 -->
<g id="edge4" class="edge"><title>0&#45;&gt;1</title>
<path fill="none" stroke="black" d="M118.632,-22C128.833,-22 140.626,-22 151.287,-22"/>
<polygon fill="black" stroke="black" points="151.469,-25.5001 161.469,-22 151.469,-18.5001 151.469,-25.5001"/>
<text text-anchor="middle" x="140.1" y="-25.8" font-family="Times New Roman,serif" font-size="14.00">x</text>
</g>
<!-- 2 -->
<g id="node4" class="node"><title>2</title>
<ellipse fill="none" stroke="black" cx="266.6" cy="-22" rx="18" ry="18"/>
<text text-anchor="middle" x="266.6" y="-18.3" font-family="Times New Roman,serif" font-size="14.00">2</text>
</g>
<!-- 1&#45;&gt;2 -->
<g id="edge3" class="edge"><title>1&#45;&gt;2</title>
<path fill="none" stroke="black" d="M205.882,-22C215.866,-22 227.878,-22 238.503,-22"/>
<polygon fill="black" stroke="black" points="238.54,-25.5001 248.539,-22 238.539,-18.5001 238.54,-25.5001"/>
<text text-anchor="middle" x="227.1" y="-25.8" font-family="Times New Roman,serif" font-size="14.00">x</text>
</g>
<!-- 2&#45;&gt;1 -->
<g id="edge2" class="edge"><title>2&#45;&gt;1</title>
<path fill="none" stroke="black" d="M250.883,-12.4577C244.85,-9.08304 237.64,-5.70409 230.6,-4 224.255,-2.46403 217.616,-3.43319 211.419,-5.55343"/>
<polygon fill="black" stroke="black" points="209.889,-2.40258 202.15,-9.63813 212.712,-8.80816 209.889,-2.40258"/>
<text text-anchor="middle" x="227.1" y="-7.8" font-family="Times New Roman,serif" font-size="14.00">x</text>
</g>
</g>
</svg>
