<?xml version="1.0" encoding="UTF-8" standalone="no"?>
<!DOCTYPE svg PUBLIC "-//W3C//DTD SVG 1.1//EN"
 "http://www.w3.org/Graphics/SVG/1.1/DTD/svg11.dtd">
<!-- Generated by graphviz version 2.38.0 (20140413.2041)
 -->
<!-- Title: dfa Pages: 1 -->
<svg width="449pt" height="72pt"
 viewBox="0.00 0.00 449.18 71.90" xmlns="http://www.w3.org/2000/svg" xmlns:xlink="http://www.w3.org/1999/xlink">
<g id="graph0" class="graph" transform="scale(1 1) rotate(0) translate(4 67.895)">
<title>dfa</title>
<polygon fill="white" stroke="none" points="-4,4 -4,-67.895 445.18,-67.895 445.18,4 -4,4"/>
<!-- __start -->
<!-- (0,0) -->
<g id="node2" class="node"><title>(0,0)</title>
<ellipse fill="none" stroke="black" cx="92.5475" cy="-31.9475" rx="27.8951" ry="27.8951"/>
<text text-anchor="middle" x="92.5475" y="-28.2475" font-family="Times New Roman,serif" font-size="14.00">(0,0)</text>
</g>
<!-- __start&#45;&gt;(0,0) -->
<g id="edge1" class="edge"><title>__start&#45;&gt;(0,0)</title>
<path fill="none" stroke="black" d="M3.79668,-31.9475C8.92583,-31.9475 32.9428,-31.9475 54.5557,-31.9475"/>
<polygon fill="black" stroke="black" points="54.5589,-35.4476 64.5589,-31.9475 54.5588,-28.4476 54.5589,-35.4476"/>
<text text-anchor="middle" x="34.1" y="-35.7475" font-family="Times New Roman,serif" font-size="14.00">start</text>
</g>
<!-- (1,2) -->
<g id="node3" class="node"><title>(1,2)</title>
<ellipse fill="none" stroke="black" cx="195.443" cy="-31.9475" rx="27.9017" ry="27.9017"/>
<ellipse fill="none" stroke="black" cx="195.443" cy="-31.9475" rx="31.8951" ry="31.8951"/>
<text text-anchor="middle" x="195.443" y="-28.2475" font-family="Times New Roman,serif" font-size="14.00">(1,2)</text>
</g>
<!-- (0,0)&#45;&gt;(1,2) -->
<g id="edge5" class="edge"><title>(0,0)&#45;&gt;(1,2)</title>
<path fill="none" stroke="black" d="M120.586,-31.9475C130.583,-31.9475 142.156,-31.9475 153.132,-31.9475"/>
<polygon fill="black" stroke="black" points="153.401,-35.4476 163.401,-31.9475 153.401,-28.4476 153.401,-35.4476"/>
<text text-anchor="middle" x="141.995" y="-35.7475" font-family="Times New Roman,serif" font-size="14.00">x</text>
</g>
<!-- (2,1) -->
<g id="node4" class="node"><title>(2,1)</title>
<ellipse fill="none" stroke="black" cx="302.338" cy="-31.9475" rx="27.9017" ry="27.9017"/>
<ellipse fill="none" stroke="black" cx="302.338" cy="-31.9475" rx="31.8951" ry="31.8951"/>
<text text-anchor="middle" x="302.338" y="-28.2475" font-family="Times New Roman,serif" font-size="14.00">(2,1)</text>
</g>
<!-- (1,2)&#45;&gt;(2,1) -->
<g id="edge4" class="edge"><title>(1,2)&#45;&gt;(2,1)</title>
<path fill="none" stroke="black" d="M227.631,-31.9475C237.79,-31.9475 249.231,-31.9475 260.015,-31.9475"/>
<polygon fill="black" stroke="black" points="260.089,-35.4476 270.089,-31.9475 260.089,-28.4476 260.089,-35.4476"/>
<text text-anchor="middle" x="248.89" y="-35.7475" font-family="Times New Roman,serif" font-size="14.00">x</text>
</g>
<!-- (1,1) -->
<g id="node5" class="node"><title>(1,1)</title>
<ellipse fill="none" stroke="black" cx="409.233" cy="-31.9475" rx="27.9017" ry="27.9017"/>
<ellipse fill="none" stroke="black" cx="409.233" cy="-31.9475" rx="31.8951" ry="31.8951"/>
<text text-anchor="middle" x="409.233" y="-28.2475" font-family="Times New Roman,serif" font-size="14.00">(1,1)</text>
</g>
<!-- (2,1)&#45;&gt;(1,1) -->
<g id="edge2" class="edge"><title>(2,1)&#45;&gt;(1,1)</title>
<path fill="none" stroke="black" d="M334.526,-31.9475C344.685,-31.9475 356.126,-31.9475 366.91,-31.9475"/>
<polygon fill="black" stroke="black" points="366.984,-35.4476 376.984,-31.9475 366.984,-28.4476 366.984,-35.4476"/>
<text text-anchor="middle" x="355.785" y="-35.7475" font-family="Times New Roman,serif" font-size="14.00">x</text>
</g>
<!-- (1,1)&#45;&gt;(2,1) -->
<g id="edge3" class="edge"><title>(1,1)&#45;&gt;(2,1)</title>
<path fill="none" stroke="black" d="M380.025,-18.9653C373.361,-16.4733 366.184,-14.2396 359.285,-12.9475 352.999,-11.7703 346.457,-12.2933 340.156,-13.7582"/>
<polygon fill="black" stroke="black" points="339.05,-10.4366 330.524,-16.7266 341.111,-17.1261 339.05,-10.4366"/>
<text text-anchor="middle" x="355.785" y="-16.7475" font-family="Times New Roman,serif" font-size="14.00">x</text>
</g>
</g>
</svg>
