<?xml version="1.0" encoding="UTF-8" standalone="no"?>
<!DOCTYPE svg PUBLIC "-//W3C//DTD SVG 1.1//EN"
 "http://www.w3.org/Graphics/SVG/1.1/DTD/svg11.dtd">
<!-- Generated by graphviz version 2.38.0 (20140413.2041)
 -->
<!-- Title: dfa Pages: 1 -->
<svg width="197pt" height="118pt"
 viewBox="0.00 0.00 196.60 118.00" xmlns="http://www.w3.org/2000/svg" xmlns:xlink="http://www.w3.org/1999/xlink">
<g id="graph0" class="graph" transform="scale(1 1) rotate(0) translate(4 114)">
<title>dfa</title>
<polygon fill="white" stroke="none" points="-4,4 -4,-114 192.6,-114 192.6,4 -4,4"/>
<!-- __start -->
<!-- 0 -->
<g id="node2" class="node"><title>0</title>
<ellipse fill="none" stroke="black" cx="82.6" cy="-22" rx="18" ry="18"/>
<text text-anchor="middle" x="82.6" y="-18.3" font-family="Times New Roman,serif" font-size="14.00">0</text>
</g>
<!-- __start&#45;&gt;0 -->
<g id="edge1" class="edge"><title>__start&#45;&gt;0</title>
<path fill="none" stroke="black" d="M3.68496,-22C8.69573,-22 34.008,-22 54.4423,-22"/>
<polygon fill="black" stroke="black" points="54.5501,-25.5001 64.5501,-22 54.5501,-18.5001 54.5501,-25.5001"/>
<text text-anchor="middle" x="34.1" y="-25.8" font-family="Times New Roman,serif" font-size="14.00">start</text>
</g>
<!-- 0&#45;&gt;0 -->
<g id="edge4" class="edge"><title>0&#45;&gt;0</title>
<path fill="none" stroke="black" d="M75.5688,-38.6641C74.0063,-48.625 76.35,-58 82.6,-58 86.6039,-58 89.0047,-54.1525 89.8023,-48.7682"/>
<polygon fill="black" stroke="black" points="93.3001,-48.6033 89.6313,-38.6641 86.3011,-48.7219 93.3001,-48.6033"/>
<text text-anchor="middle" x="82.6" y="-61.8" font-family="Times New Roman,serif" font-size="14.00">a</text>
</g>
<!-- 1 -->
<g id="node3" class="node"><title>1</title>
<ellipse fill="none" stroke="black" cx="166.6" cy="-22" rx="18" ry="18"/>
<ellipse fill="none" stroke="black" cx="166.6" cy="-22" rx="22" ry="22"/>
<text text-anchor="middle" x="166.6" y="-18.3" font-family="Times New Roman,serif" font-size="14.00">1</text>
</g>
<!-- 0&#45;&gt;1 -->
<g id="edge5" class="edge"><title>0&#45;&gt;1</title>
<path fill="none" stroke="black" d="M100.99,-22C110.708,-22 123.111,-22 134.447,-22"/>
<polygon fill="black" stroke="black" points="134.45,-25.5001 144.45,-22 134.45,-18.5001 134.45,-25.5001"/>
<text text-anchor="middle" x="122.6" y="-25.8" font-family="Times New Roman,serif" font-size="14.00">b</text>
</g>
<!-- 1&#45;&gt;1 -->
<g id="edge2" class="edge"><title>1&#45;&gt;1</title>
<path fill="none" stroke="black" d="M162.539,-43.8066C162.153,-53.5625 163.506,-62 166.6,-62 168.534,-62 169.787,-58.7041 170.361,-53.8504"/>
<polygon fill="black" stroke="black" points="173.861,-53.9064 170.661,-43.8066 166.864,-53.698 173.861,-53.9064"/>
<text text-anchor="middle" x="166.6" y="-65.8" font-family="Times New Roman,serif" font-size="14.00">a</text>
</g>
<!-- 1&#45;&gt;1 -->
<g id="edge3" class="edge"><title>1&#45;&gt;1</title>
<path fill="none" stroke="black" d="M159.66,-43.1143C156.595,-61.0956 158.909,-80 166.6,-80 172.849,-80 175.548,-67.5201 174.697,-53.1954"/>
<polygon fill="black" stroke="black" points="178.157,-52.6501 173.54,-43.1143 171.203,-53.4481 178.157,-52.6501"/>
<text text-anchor="middle" x="166.6" y="-83.8" font-family="Times New Roman,serif" font-size="14.00">b</text>
</g>
</g>
</svg>
