<?xml version="1.0" encoding="UTF-8" standalone="no"?>
<!DOCTYPE svg PUBLIC "-//W3C//DTD SVG 1.1//EN"
 "http://www.w3.org/Graphics/SVG/1.1/DTD/svg11.dtd">
<!-- Generated by graphviz version 2.38.0 (20140413.2041)
 -->
<!-- Title: dfa Pages: 1 -->
<svg width="197pt" height="88pt"
 viewBox="0.00 0.00 196.60 87.61" xmlns="http://www.w3.org/2000/svg" xmlns:xlink="http://www.w3.org/1999/xlink">
<g id="graph0" class="graph" transform="scale(1 1) rotate(0) translate(4 83.6143)">
<title>dfa</title>
<polygon fill="white" stroke="none" points="-4,4 -4,-83.6143 192.6,-83.6143 192.6,4 -4,4"/>
<!-- __start -->
<!-- 0 -->
<g id="node2" class="node"><title>0</title>
<ellipse fill="none" stroke="black" cx="82.6" cy="-24.6143" rx="18" ry="18"/>
<text text-anchor="middle" x="82.6" y="-20.9143" font-family="Times New Roman,serif" font-size="14.00">0</text>
</g>
<!-- __start&#45;&gt;0 -->
<g id="edge1" class="edge"><title>__start&#45;&gt;0</title>
<path fill="none" stroke="black" d="M3.68496,-24.6143C8.69573,-24.6143 34.008,-24.6143 54.4423,-24.6143"/>
<polygon fill="black" stroke="black" points="54.5501,-28.1144 64.5501,-24.6143 54.5501,-21.1144 54.5501,-28.1144"/>
<text text-anchor="middle" x="34.1" y="-28.4143" font-family="Times New Roman,serif" font-size="14.00">start</text>
</g>
<!-- 1 -->
<g id="node3" class="node"><title>1</title>
<ellipse fill="none" stroke="black" cx="166.6" cy="-24.6143" rx="18" ry="18"/>
<ellipse fill="none" stroke="black" cx="166.6" cy="-24.6143" rx="22" ry="22"/>
<text text-anchor="middle" x="166.6" y="-20.9143" font-family="Times New Roman,serif" font-size="14.00">1</text>
</g>
<!-- 0&#45;&gt;1 -->
<g id="edge2" class="edge"><title>0&#45;&gt;1</title>
<path fill="none" stroke="black" d="M98.7836,-33.2745C104.761,-36.2182 111.811,-39.136 118.6,-40.6143 124.751,-41.9536 131.217,-41.2266 137.319,-39.5032"/>
<polygon fill="black" stroke="black" points="138.973,-42.6219 147.122,-35.8512 136.53,-36.0623 138.973,-42.6219"/>
<text text-anchor="middle" x="122.6" y="-44.4143" font-family="Times New Roman,serif" font-size="14.00">a</text>
</g>
<!-- 0&#45;&gt;1 -->
<g id="edge3" class="edge"><title>0&#45;&gt;1</title>
<path fill="none" stroke="black" d="M100.671,-22.8567C106.366,-22.349 112.751,-21.8645 118.6,-21.6143 123.644,-21.3985 128.99,-21.4614 134.197,-21.681"/>
<polygon fill="black" stroke="black" points="134.359,-25.1973 144.553,-22.313 134.785,-18.2103 134.359,-25.1973"/>
<text text-anchor="middle" x="122.6" y="-25.4143" font-family="Times New Roman,serif" font-size="14.00">b</text>
</g>
<!-- 1&#45;&gt;0 -->
<g id="edge4" class="edge"><title>1&#45;&gt;0</title>
<path fill="none" stroke="black" d="M149.607,-10.0003C140.756,-3.68105 129.392,1.61429 118.6,-1.61429 114.09,-2.96366 109.622,-5.10182 105.463,-7.54344"/>
<polygon fill="black" stroke="black" points="103.357,-4.74045 96.9585,-13.1848 107.227,-10.5739 103.357,-4.74045"/>
<text text-anchor="middle" x="122.6" y="-5.41429" font-family="Times New Roman,serif" font-size="14.00">a</text>
</g>
<!-- 1&#45;&gt;1 -->
<g id="edge5" class="edge"><title>1&#45;&gt;1</title>
<path fill="none" stroke="black" d="M158.594,-45.1951C157.486,-55.459 160.155,-64.6143 166.6,-64.6143 170.729,-64.6143 173.308,-60.857 174.337,-55.4579"/>
<polygon fill="black" stroke="black" points="177.843,-55.2834 174.606,-45.1951 170.845,-55.1 177.843,-55.2834"/>
<text text-anchor="middle" x="166.6" y="-68.4143" font-family="Times New Roman,serif" font-size="14.00">b</text>
</g>
</g>
</svg>
