<?xml version="1.0" encoding="UTF-8" standalone="no"?>
<!DOCTYPE svg PUBLIC "-//W3C//DTD SVG 1.1//EN"
 "http://www.w3.org/Graphics/SVG/1.1/DTD/svg11.dtd">
<!-- Generated by graphviz version 2.38.0 (20140413.2041)
 -->
<!-- Title: dfa Pages: 1 -->
<svg width="215pt" height="87pt"
 viewBox="0.00 0.00 214.60 87.22" xmlns="http://www.w3.org/2000/svg" xmlns:xlink="http://www.w3.org/1999/xlink">
<g id="graph0" class="graph" transform="scale(1 1) rotate(0) translate(4 83.2192)">
<title>dfa</title>
<polygon fill="white" stroke="none" points="-4,4 -4,-83.2192 210.6,-83.2192 210.6,4 -4,4"/>
<!-- __start -->
<!-- 0 -->
<g id="node2" class="node"><title>0</title>
<ellipse fill="none" stroke="black" cx="91.6" cy="-24.2192" rx="27" ry="18"/>
<text text-anchor="middle" x="91.6" y="-20.5192" font-family="Times New Roman,serif" font-size="14.00">0</text>
</g>
<!-- __start&#45;&gt;0 -->
<g id="edge1" class="edge"><title>__start&#45;&gt;0</title>
<path fill="none" stroke="black" d="M3.78604,-24.2192C8.86985,-24.2192 32.7092,-24.2192 54.1222,-24.2192"/>
<polygon fill="black" stroke="black" points="54.3463,-27.7193 64.3463,-24.2192 54.3463,-20.7193 54.3463,-27.7193"/>
<text text-anchor="middle" x="34.1" y="-28.0192" font-family="Times New Roman,serif" font-size="14.00">start</text>
</g>
<!-- 1 -->
<g id="node3" class="node"><title>1</title>
<ellipse fill="none" stroke="black" cx="184.6" cy="-24.2192" rx="18" ry="18"/>
<ellipse fill="none" stroke="black" cx="184.6" cy="-24.2192" rx="22" ry="22"/>
<text text-anchor="middle" x="184.6" y="-20.5192" font-family="Times New Roman,serif" font-size="14.00">1</text>
</g>
<!-- 0&#45;&gt;1 -->
<g id="edge2" class="edge"><title>0&#45;&gt;1</title>
<path fill="none" stroke="black" d="M113.097,-35.449C122.568,-39.357 134.036,-42.302 144.6,-40.2192 148.08,-39.533 151.641,-38.5332 155.126,-37.363"/>
<polygon fill="black" stroke="black" points="156.531,-40.5731 164.622,-33.7331 154.031,-34.0345 156.531,-40.5731"/>
<text text-anchor="middle" x="140.6" y="-44.0192" font-family="Times New Roman,serif" font-size="14.00">a</text>
</g>
<!-- 0&#45;&gt;1 -->
<g id="edge3" class="edge"><title>0&#45;&gt;1</title>
<path fill="none" stroke="black" d="M118.511,-21.7437C126.839,-21.2108 136.106,-20.8929 144.6,-21.2192 147.153,-21.3172 149.798,-21.4512 152.453,-21.6086"/>
<polygon fill="black" stroke="black" points="152.351,-25.1097 162.567,-22.3039 152.831,-18.1262 152.351,-25.1097"/>
<text text-anchor="middle" x="140.6" y="-25.0192" font-family="Times New Roman,serif" font-size="14.00">b</text>
</g>
<!-- 1&#45;&gt;0 -->
<g id="edge4" class="edge"><title>1&#45;&gt;0</title>
<path fill="none" stroke="black" d="M166.251,-11.3114C159.793,-7.25094 152.183,-3.2887 144.6,-1.21916 135.743,1.19788 126.459,-1.1766 118.227,-5.18024"/>
<polygon fill="black" stroke="black" points="116.381,-2.20415 109.458,-10.2242 119.871,-8.27197 116.381,-2.20415"/>
<text text-anchor="middle" x="140.6" y="-5.01916" font-family="Times New Roman,serif" font-size="14.00">a</text>
</g>
<!-- 1&#45;&gt;1 -->
<g id="edge5" class="edge"><title>1&#45;&gt;1</title>
<path fill="none" stroke="black" d="M176.594,-44.8C175.486,-55.0639 178.155,-64.2192 184.6,-64.2192 188.729,-64.2192 191.308,-60.4618 192.337,-55.0627"/>
<polygon fill="black" stroke="black" points="195.843,-54.8882 192.606,-44.8 188.845,-54.7048 195.843,-54.8882"/>
<text text-anchor="middle" x="184.6" y="-68.0192" font-family="Times New Roman,serif" font-size="14.00">b</text>
</g>
</g>
</svg>
