<?xml version="1.0" encoding="UTF-8" standalone="no"?>
<!DOCTYPE svg PUBLIC "-//W3C//DTD SVG 1.1//EN"
 "http://www.w3.org/Graphics/SVG/1.1/DTD/svg11.dtd">
<!-- Generated by graphviz version 2.38.0 (20140413.2041)
 -->
<!-- Title: dfa Pages: 1 -->
<svg width="435pt" height="141pt"
 viewBox="0.00 0.00 435.18 140.90" xmlns="http://www.w3.org/2000/svg" xmlns:xlink="http://www.w3.org/1999/xlink">
<g id="graph0" class="graph" transform="scale(1 1) rotate(0) translate(4 136.895)">
<title>dfa</title>
<polygon fill="white" stroke="none" points="-4,4 -4,-136.895 431.18,-136.895 431.18,4 -4,4"/>
<!-- __start -->
<!-- (0,0) -->
<g id="node2" class="node"><title>(0,0)</title>
<ellipse fill="none" stroke="black" cx="92.5475" cy="-61.9475" rx="27.8951" ry="27.8951"/>
<text text-anchor="middle" x="92.5475" y="-58.2475" font-family="Times New Roman,serif" font-size="14.00">(0,0)</text>
</g>
<!-- __start&#45;&gt;(0,0) -->
<g id="edge1" class="edge"><title>__start&#45;&gt;(0,0)</title>
<path fill="none" stroke="black" d="M3.79668,-61.9475C8.92583,-61.9475 32.9428,-61.9475 54.5557,-61.9475"/>
<polygon fill="black" stroke="black" points="54.5589,-65.4476 64.5589,-61.9475 54.5588,-58.4476 54.5589,-65.4476"/>
<text text-anchor="middle" x="34.1" y="-65.7475" font-family="Times New Roman,serif" font-size="14.00">start</text>
</g>
<!-- (1,1) -->
<g id="node3" class="node"><title>(1,1)</title>
<ellipse fill="none" stroke="black" cx="295.338" cy="-67.9475" rx="27.9017" ry="27.9017"/>
<ellipse fill="none" stroke="black" cx="295.338" cy="-67.9475" rx="31.8951" ry="31.8951"/>
<text text-anchor="middle" x="295.338" y="-64.2475" font-family="Times New Roman,serif" font-size="14.00">(1,1)</text>
</g>
<!-- (0,0)&#45;&gt;(1,1) -->
<g id="edge7" class="edge"><title>(0,0)&#45;&gt;(1,1)</title>
<path fill="none" stroke="black" d="M120.62,-64.6917C126.507,-65.1948 132.705,-65.6532 138.495,-65.9475 177.341,-67.9224 221.7,-68.31 253.132,-68.2703"/>
<polygon fill="black" stroke="black" points="253.279,-71.77 263.269,-68.2421 253.259,-64.77 253.279,-71.77"/>
<text text-anchor="middle" x="191.443" y="-72.7475" font-family="Times New Roman,serif" font-size="14.00">b</text>
</g>
<!-- (0,1) -->
<g id="node5" class="node"><title>(0,1)</title>
<ellipse fill="none" stroke="black" cx="191.443" cy="-27.9475" rx="27.8951" ry="27.8951"/>
<text text-anchor="middle" x="191.443" y="-24.2475" font-family="Times New Roman,serif" font-size="14.00">(0,1)</text>
</g>
<!-- (0,0)&#45;&gt;(0,1) -->
<g id="edge6" class="edge"><title>(0,0)&#45;&gt;(0,1)</title>
<path fill="none" stroke="black" d="M119.259,-52.9254C130.297,-49.0523 143.371,-44.4646 155.284,-40.2845"/>
<polygon fill="black" stroke="black" points="156.67,-43.5075 164.947,-36.8938 154.352,-36.9023 156.67,-43.5075"/>
<text text-anchor="middle" x="141.995" y="-50.7475" font-family="Times New Roman,serif" font-size="14.00">a</text>
</g>
<!-- (1,1)&#45;&gt;(1,1) -->
<g id="edge5" class="edge"><title>(1,1)&#45;&gt;(1,1)</title>
<path fill="none" stroke="black" d="M285.59,-98.6755C285.487,-109.308 288.736,-117.895 295.338,-117.895 299.67,-117.895 302.558,-114.197 304.003,-108.65"/>
<polygon fill="black" stroke="black" points="307.486,-108.995 305.085,-98.6755 300.527,-108.24 307.486,-108.995"/>
<text text-anchor="middle" x="295.338" y="-121.695" font-family="Times New Roman,serif" font-size="14.00">b</text>
</g>
<!-- (1,0) -->
<g id="node4" class="node"><title>(1,0)</title>
<ellipse fill="none" stroke="black" cx="399.233" cy="-67.9475" rx="27.8951" ry="27.8951"/>
<text text-anchor="middle" x="399.233" y="-64.2475" font-family="Times New Roman,serif" font-size="14.00">(1,0)</text>
</g>
<!-- (1,1)&#45;&gt;(1,0) -->
<g id="edge4" class="edge"><title>(1,1)&#45;&gt;(1,0)</title>
<path fill="none" stroke="black" d="M324.753,-81.1235C333.785,-83.9055 343.874,-85.5727 353.285,-83.9475 356.55,-83.3837 359.892,-82.6055 363.207,-81.6936"/>
<polygon fill="black" stroke="black" points="364.471,-84.9655 372.969,-78.6377 362.38,-78.2852 364.471,-84.9655"/>
<text text-anchor="middle" x="349.285" y="-88.7475" font-family="Times New Roman,serif" font-size="14.00">a</text>
</g>
<!-- (1,0)&#45;&gt;(1,1) -->
<g id="edge2" class="edge"><title>(1,0)&#45;&gt;(1,1)</title>
<path fill="none" stroke="black" d="M371.09,-67.9475C360.81,-67.9475 348.863,-67.9475 337.576,-67.9475"/>
<polygon fill="black" stroke="black" points="337.463,-64.4476 327.463,-67.9475 337.463,-71.4476 337.463,-64.4476"/>
<text text-anchor="middle" x="349.285" y="-71.7475" font-family="Times New Roman,serif" font-size="14.00">a</text>
</g>
<!-- (1,0)&#45;&gt;(1,1) -->
<g id="edge3" class="edge"><title>(1,0)&#45;&gt;(1,1)</title>
<path fill="none" stroke="black" d="M374.073,-55.6564C367.497,-52.8927 360.26,-50.3611 353.285,-48.9475 346.783,-47.6297 339.993,-48.142 333.461,-49.6557"/>
<polygon fill="black" stroke="black" points="332.006,-46.4419 323.486,-52.7398 334.074,-53.1296 332.006,-46.4419"/>
<text text-anchor="middle" x="349.285" y="-52.7475" font-family="Times New Roman,serif" font-size="14.00">b</text>
</g>
<!-- (0,1)&#45;&gt;(0,0) -->
<g id="edge8" class="edge"><title>(0,1)&#45;&gt;(0,0)</title>
<path fill="none" stroke="black" d="M163.966,-22.42C155.615,-21.7238 146.488,-22.0808 138.495,-24.9475 131.975,-27.2859 125.725,-31.0238 120.067,-35.2445"/>
<polygon fill="black" stroke="black" points="117.75,-32.6179 112.239,-41.6667 122.19,-38.0296 117.75,-32.6179"/>
<text text-anchor="middle" x="141.995" y="-28.7475" font-family="Times New Roman,serif" font-size="14.00">a</text>
</g>
<!-- (0,1)&#45;&gt;(1,1) -->
<g id="edge9" class="edge"><title>(0,1)&#45;&gt;(1,1)</title>
<path fill="none" stroke="black" d="M217.63,-37.8352C229.089,-42.3335 242.907,-47.758 255.64,-52.7565"/>
<polygon fill="black" stroke="black" points="254.521,-56.0772 265.109,-56.4734 257.079,-49.5612 254.521,-56.0772"/>
<text text-anchor="middle" x="241.39" y="-51.7475" font-family="Times New Roman,serif" font-size="14.00">b</text>
</g>
</g>
</svg>
