<?xml version="1.0" encoding="UTF-8" standalone="no"?>
<!DOCTYPE svg PUBLIC "-//W3C//DTD SVG 1.1//EN"
 "http://www.w3.org/Graphics/SVG/1.1/DTD/svg11.dtd">
<!-- Generated by graphviz version 2.38.0 (20140413.2041)
 -->
<!-- Title: enfa Pages: 1 -->
<svg width="383pt" height="198pt"
 viewBox="0.00 0.00 382.60 198.00" xmlns="http://www.w3.org/2000/svg" xmlns:xlink="http://www.w3.org/1999/xlink">
<g id="graph0" class="graph" transform="scale(1 1) rotate(0) translate(4 194)">
<title>enfa</title>
<polygon fill="white" stroke="none" points="-4,4 -4,-194 378.6,-194 378.6,4 -4,4"/>
<!-- __start -->
<!-- 0 -->
<g id="node2" class="node"><title>0</title>
<ellipse fill="none" stroke="black" cx="91.6" cy="-64" rx="27" ry="18"/>
<text text-anchor="middle" x="91.6" y="-60.3" font-family="Times New Roman,serif" font-size="14.00">0</text>
</g>
<!-- __start&#45;&gt;0 -->
<g id="edge1" class="edge"><title>__start&#45;&gt;0</title>
<path fill="none" stroke="black" d="M3.78604,-64C8.86985,-64 32.7092,-64 54.1222,-64"/>
<polygon fill="black" stroke="black" points="54.3463,-67.5001 64.3463,-64 54.3463,-60.5001 54.3463,-67.5001"/>
<text text-anchor="middle" x="34.1" y="-67.8" font-family="Times New Roman,serif" font-size="14.00">start</text>
</g>
<!-- 2 -->
<g id="node4" class="node"><title>2</title>
<ellipse fill="none" stroke="black" cx="184.6" cy="-135" rx="18" ry="18"/>
<ellipse fill="none" stroke="black" cx="184.6" cy="-135" rx="22" ry="22"/>
<text text-anchor="middle" x="184.6" y="-131.3" font-family="Times New Roman,serif" font-size="14.00">2</text>
</g>
<!-- 0&#45;&gt;2 -->
<g id="edge8" class="edge"><title>0&#45;&gt;2</title>
<path fill="none" stroke="black" d="M104.309,-80.0977C112.476,-90.4834 124.114,-103.733 136.6,-113 141.918,-116.946 148.056,-120.44 154.105,-123.416"/>
<polygon fill="black" stroke="black" points="152.857,-126.693 163.408,-127.656 155.761,-120.324 152.857,-126.693"/>
<text text-anchor="middle" x="140.6" y="-120.8" font-family="Times New Roman,serif" font-size="14.00">p</text>
</g>
<!-- 4 -->
<g id="node6" class="node"><title>4</title>
<ellipse fill="none" stroke="black" cx="268.6" cy="-97" rx="18" ry="18"/>
<text text-anchor="middle" x="268.6" y="-93.3" font-family="Times New Roman,serif" font-size="14.00">4</text>
</g>
<!-- 0&#45;&gt;4 -->
<g id="edge6" class="edge"><title>0&#45;&gt;4</title>
<path fill="none" stroke="black" d="M118.318,-67.317C146.53,-71.1663 193.063,-78.1353 232.6,-87 235.491,-87.6481 238.496,-88.3941 241.477,-89.1805"/>
<polygon fill="black" stroke="black" points="240.746,-92.6101 251.319,-91.9258 242.627,-85.8675 240.746,-92.6101"/>
<text text-anchor="middle" x="184.6" y="-84.8" font-family="Times New Roman,serif" font-size="14.00">i</text>
</g>
<!-- 1 -->
<g id="node3" class="node"><title>1</title>
<ellipse fill="none" stroke="black" cx="352.6" cy="-135" rx="18" ry="18"/>
<ellipse fill="none" stroke="black" cx="352.6" cy="-135" rx="22" ry="22"/>
<text text-anchor="middle" x="352.6" y="-131.3" font-family="Times New Roman,serif" font-size="14.00">1</text>
</g>
<!-- 1&#45;&gt;2 -->
<g id="edge10" class="edge"><title>1&#45;&gt;2</title>
<path fill="none" stroke="black" d="M330.485,-135C301.703,-135 249.941,-135 216.71,-135"/>
<polygon fill="black" stroke="black" points="216.624,-131.5 206.624,-135 216.624,-138.5 216.624,-131.5"/>
<text text-anchor="middle" x="268.6" y="-138.8" font-family="Times New Roman,serif" font-size="14.00">p</text>
</g>
<!-- 1&#45;&gt;4 -->
<g id="edge5" class="edge"><title>1&#45;&gt;4</title>
<path fill="none" stroke="black" d="M338.346,-117.61C331.554,-110.112 322.609,-102.128 312.6,-98 307.636,-95.9528 302.068,-94.9767 296.627,-94.6316"/>
<polygon fill="black" stroke="black" points="296.514,-91.1317 286.513,-94.6298 296.512,-98.1317 296.514,-91.1317"/>
<text text-anchor="middle" x="308.6" y="-101.8" font-family="Times New Roman,serif" font-size="14.00">i</text>
</g>
<!-- 2&#45;&gt;0 -->
<g id="edge3" class="edge"><title>2&#45;&gt;0</title>
<path fill="none" stroke="black" d="M168.617,-119.568C161.592,-112.659 152.946,-104.599 144.6,-98 137.223,-92.1669 128.84,-86.3632 120.991,-81.2456"/>
<polygon fill="black" stroke="black" points="122.752,-78.2178 112.438,-75.7942 118.99,-84.1207 122.752,-78.2178"/>
<text text-anchor="middle" x="140.6" y="-101.8" font-family="Times New Roman,serif" font-size="14.00">p</text>
</g>
<!-- 2&#45;&gt;2 -->
<g id="edge4" class="edge"><title>2&#45;&gt;2</title>
<path fill="none" stroke="black" d="M176.594,-155.581C175.486,-165.845 178.155,-175 184.6,-175 188.729,-175 191.308,-171.243 192.337,-165.844"/>
<polygon fill="black" stroke="black" points="195.843,-165.669 192.606,-155.581 188.845,-165.486 195.843,-165.669"/>
<text text-anchor="middle" x="184.6" y="-178.8" font-family="Times New Roman,serif" font-size="14.00">p</text>
</g>
<!-- 2&#45;&gt;4 -->
<g id="edge9" class="edge"><title>2&#45;&gt;4</title>
<path fill="none" stroke="black" d="M205.033,-125.995C216.319,-120.765 230.652,-114.122 242.752,-108.515"/>
<polygon fill="black" stroke="black" points="244.275,-111.667 251.876,-104.287 241.331,-105.316 244.275,-111.667"/>
<text text-anchor="middle" x="228.6" y="-119.8" font-family="Times New Roman,serif" font-size="14.00">i</text>
</g>
<!-- 3 -->
<g id="node5" class="node"><title>3</title>
<ellipse fill="none" stroke="black" cx="352.6" cy="-18" rx="18" ry="18"/>
<text text-anchor="middle" x="352.6" y="-14.3" font-family="Times New Roman,serif" font-size="14.00">3</text>
</g>
<!-- 3&#45;&gt;0 -->
<g id="edge2" class="edge"><title>3&#45;&gt;0</title>
<path fill="none" stroke="black" d="M334.663,-21.0081C292.893,-28.4268 184.257,-47.7211 127.81,-57.7464"/>
<polygon fill="black" stroke="black" points="127.139,-54.3107 117.906,-59.5056 128.364,-61.2029 127.139,-54.3107"/>
<text text-anchor="middle" x="228.6" y="-43.8" font-family="Times New Roman,serif" font-size="14.00">i</text>
</g>
<!-- 3&#45;&gt;0 -->
<g id="edge7" class="edge"><title>3&#45;&gt;0</title>
<path fill="none" stroke="black" d="M334.612,-16.686C310.118,-15.1479 263.543,-13.5597 224.6,-20 196.034,-24.7241 190.073,-30.86 162.6,-40 150.532,-44.015 137.329,-48.5139 125.674,-52.522"/>
<polygon fill="black" stroke="black" points="124.21,-49.3244 115.897,-55.8933 126.492,-55.942 124.21,-49.3244"/>
<text text-anchor="middle" x="228.6" y="-23.8" font-family="Times New Roman,serif" font-size="14.00">p</text>
</g>
<!-- 4&#45;&gt;1 -->
<g id="edge13" class="edge"><title>4&#45;&gt;1</title>
<path fill="none" stroke="black" d="M285.41,-104.327C296.091,-109.276 310.496,-115.952 323.14,-121.811"/>
<polygon fill="black" stroke="black" points="321.83,-125.062 332.375,-126.091 324.773,-118.71 321.83,-125.062"/>
<text text-anchor="middle" x="308.6" y="-119.8" font-family="Times New Roman,serif" font-size="14.00">i</text>
</g>
<!-- 4&#45;&gt;2 -->
<g id="edge12" class="edge"><title>4&#45;&gt;2</title>
<path fill="none" stroke="black" d="M251.075,-92.3624C242.817,-90.898 232.853,-90.46 224.6,-94 216.855,-97.322 209.922,-103.021 204.126,-109.131"/>
<polygon fill="black" stroke="black" points="201.277,-107.077 197.416,-116.943 206.587,-111.637 201.277,-107.077"/>
<text text-anchor="middle" x="228.6" y="-97.8" font-family="Times New Roman,serif" font-size="14.00">i</text>
</g>
<!-- 4&#45;&gt;3 -->
<g id="edge11" class="edge"><title>4&#45;&gt;3</title>
<path fill="none" stroke="black" d="M282.054,-85.0016C295.179,-72.3572 316.051,-52.2488 331.509,-37.3564"/>
<polygon fill="black" stroke="black" points="334.256,-39.57 339.029,-30.1113 329.399,-34.5289 334.256,-39.57"/>
<text text-anchor="middle" x="308.6" y="-65.8" font-family="Times New Roman,serif" font-size="14.00">p</text>
</g>
</g>
</svg>
