<?xml version="1.0" encoding="UTF-8" standalone="no"?>
<!DOCTYPE svg PUBLIC "-//W3C//DTD SVG 1.1//EN"
 "http://www.w3.org/Graphics/SVG/1.1/DTD/svg11.dtd">
<!-- Generated by graphviz version 2.38.0 (20140413.2041)
 -->
<!-- Title: enfa Pages: 1 -->
<svg width="365pt" height="198pt"
 viewBox="0.00 0.00 364.60 198.00" xmlns="http://www.w3.org/2000/svg" xmlns:xlink="http://www.w3.org/1999/xlink">
<g id="graph0" class="graph" transform="scale(1 1) rotate(0) translate(4 194)">
<title>enfa</title>
<polygon fill="white" stroke="none" points="-4,4 -4,-194 360.6,-194 360.6,4 -4,4"/>
<!-- __start -->
<!-- 0 -->
<g id="node2" class="node"><title>0</title>
<ellipse fill="none" stroke="black" cx="82.6" cy="-64" rx="18" ry="18"/>
<text text-anchor="middle" x="82.6" y="-60.3" font-family="Times New Roman,serif" font-size="14.00">0</text>
</g>
<!-- __start&#45;&gt;0 -->
<g id="edge1" class="edge"><title>__start&#45;&gt;0</title>
<path fill="none" stroke="black" d="M3.68496,-64C8.69573,-64 34.008,-64 54.4423,-64"/>
<polygon fill="black" stroke="black" points="54.5501,-67.5001 64.5501,-64 54.5501,-60.5001 54.5501,-67.5001"/>
<text text-anchor="middle" x="34.1" y="-67.8" font-family="Times New Roman,serif" font-size="14.00">start</text>
</g>
<!-- 2 -->
<g id="node4" class="node"><title>2</title>
<ellipse fill="none" stroke="black" cx="166.6" cy="-135" rx="18" ry="18"/>
<ellipse fill="none" stroke="black" cx="166.6" cy="-135" rx="22" ry="22"/>
<text text-anchor="middle" x="166.6" y="-131.3" font-family="Times New Roman,serif" font-size="14.00">2</text>
</g>
<!-- 0&#45;&gt;2 -->
<g id="edge8" class="edge"><title>0&#45;&gt;2</title>
<path fill="none" stroke="black" d="M91.9859,-79.7519C98.2074,-90.2527 107.512,-103.77 118.6,-113 123.78,-117.312 129.947,-120.983 136.081,-124.018"/>
<polygon fill="black" stroke="black" points="134.99,-127.365 145.546,-128.267 137.857,-120.979 134.99,-127.365"/>
<text text-anchor="middle" x="122.6" y="-120.8" font-family="Times New Roman,serif" font-size="14.00">p</text>
</g>
<!-- 4 -->
<g id="node6" class="node"><title>4</title>
<ellipse fill="none" stroke="black" cx="250.6" cy="-97" rx="18" ry="18"/>
<text text-anchor="middle" x="250.6" y="-93.3" font-family="Times New Roman,serif" font-size="14.00">4</text>
</g>
<!-- 0&#45;&gt;4 -->
<g id="edge6" class="edge"><title>0&#45;&gt;4</title>
<path fill="none" stroke="black" d="M100.672,-66.4146C125.785,-70.098 174.094,-77.6843 214.6,-87 217.487,-87.6639 220.49,-88.42 223.47,-89.2122"/>
<polygon fill="black" stroke="black" points="222.737,-92.6415 233.31,-91.9634 224.622,-85.9 222.737,-92.6415"/>
<text text-anchor="middle" x="166.6" y="-84.8" font-family="Times New Roman,serif" font-size="14.00">i</text>
</g>
<!-- 1 -->
<g id="node3" class="node"><title>1</title>
<ellipse fill="none" stroke="black" cx="334.6" cy="-135" rx="18" ry="18"/>
<ellipse fill="none" stroke="black" cx="334.6" cy="-135" rx="22" ry="22"/>
<text text-anchor="middle" x="334.6" y="-131.3" font-family="Times New Roman,serif" font-size="14.00">1</text>
</g>
<!-- 1&#45;&gt;2 -->
<g id="edge10" class="edge"><title>1&#45;&gt;2</title>
<path fill="none" stroke="black" d="M312.485,-135C283.703,-135 231.941,-135 198.71,-135"/>
<polygon fill="black" stroke="black" points="198.624,-131.5 188.624,-135 198.624,-138.5 198.624,-131.5"/>
<text text-anchor="middle" x="250.6" y="-138.8" font-family="Times New Roman,serif" font-size="14.00">p</text>
</g>
<!-- 1&#45;&gt;4 -->
<g id="edge5" class="edge"><title>1&#45;&gt;4</title>
<path fill="none" stroke="black" d="M320.346,-117.61C313.554,-110.112 304.609,-102.128 294.6,-98 289.636,-95.9528 284.068,-94.9767 278.627,-94.6316"/>
<polygon fill="black" stroke="black" points="278.514,-91.1317 268.513,-94.6298 278.512,-98.1317 278.514,-91.1317"/>
<text text-anchor="middle" x="290.6" y="-101.8" font-family="Times New Roman,serif" font-size="14.00">i</text>
</g>
<!-- 2&#45;&gt;0 -->
<g id="edge3" class="edge"><title>2&#45;&gt;0</title>
<path fill="none" stroke="black" d="M150.335,-119.909C143.254,-113.067 134.641,-104.968 126.6,-98 119.925,-92.2152 112.438,-86.1559 105.605,-80.7816"/>
<polygon fill="black" stroke="black" points="107.454,-77.7857 97.4104,-74.4126 103.158,-83.3127 107.454,-77.7857"/>
<text text-anchor="middle" x="122.6" y="-101.8" font-family="Times New Roman,serif" font-size="14.00">p</text>
</g>
<!-- 2&#45;&gt;2 -->
<g id="edge4" class="edge"><title>2&#45;&gt;2</title>
<path fill="none" stroke="black" d="M158.594,-155.581C157.486,-165.845 160.155,-175 166.6,-175 170.729,-175 173.308,-171.243 174.337,-165.844"/>
<polygon fill="black" stroke="black" points="177.843,-165.669 174.606,-155.581 170.845,-165.486 177.843,-165.669"/>
<text text-anchor="middle" x="166.6" y="-178.8" font-family="Times New Roman,serif" font-size="14.00">p</text>
</g>
<!-- 2&#45;&gt;4 -->
<g id="edge9" class="edge"><title>2&#45;&gt;4</title>
<path fill="none" stroke="black" d="M187.033,-125.995C198.319,-120.765 212.652,-114.122 224.752,-108.515"/>
<polygon fill="black" stroke="black" points="226.275,-111.667 233.876,-104.287 223.331,-105.316 226.275,-111.667"/>
<text text-anchor="middle" x="210.6" y="-119.8" font-family="Times New Roman,serif" font-size="14.00">i</text>
</g>
<!-- 3 -->
<g id="node5" class="node"><title>3</title>
<ellipse fill="none" stroke="black" cx="334.6" cy="-18" rx="18" ry="18"/>
<text text-anchor="middle" x="334.6" y="-14.3" font-family="Times New Roman,serif" font-size="14.00">3</text>
</g>
<!-- 3&#45;&gt;0 -->
<g id="edge2" class="edge"><title>3&#45;&gt;0</title>
<path fill="none" stroke="black" d="M316.552,-21.1367C273.858,-28.9925 162.077,-49.5603 110.449,-59.0598"/>
<polygon fill="black" stroke="black" points="109.593,-55.6585 100.391,-60.9104 110.86,-62.5429 109.593,-55.6585"/>
<text text-anchor="middle" x="210.6" y="-44.8" font-family="Times New Roman,serif" font-size="14.00">i</text>
</g>
<!-- 3&#45;&gt;0 -->
<g id="edge7" class="edge"><title>3&#45;&gt;0</title>
<path fill="none" stroke="black" d="M316.612,-16.686C292.118,-15.1479 245.543,-13.5597 206.6,-20 178.034,-24.7241 171.863,-30.2504 144.6,-40 132.786,-44.2249 119.834,-49.2621 108.915,-53.6284"/>
<polygon fill="black" stroke="black" points="107.514,-50.4193 99.5504,-57.407 110.134,-56.9108 107.514,-50.4193"/>
<text text-anchor="middle" x="210.6" y="-23.8" font-family="Times New Roman,serif" font-size="14.00">p</text>
</g>
<!-- 4&#45;&gt;1 -->
<g id="edge13" class="edge"><title>4&#45;&gt;1</title>
<path fill="none" stroke="black" d="M267.41,-104.327C278.091,-109.276 292.496,-115.952 305.14,-121.811"/>
<polygon fill="black" stroke="black" points="303.83,-125.062 314.375,-126.091 306.773,-118.71 303.83,-125.062"/>
<text text-anchor="middle" x="290.6" y="-119.8" font-family="Times New Roman,serif" font-size="14.00">i</text>
</g>
<!-- 4&#45;&gt;2 -->
<g id="edge12" class="edge"><title>4&#45;&gt;2</title>
<path fill="none" stroke="black" d="M233.075,-92.3624C224.817,-90.898 214.853,-90.46 206.6,-94 198.855,-97.322 191.922,-103.021 186.126,-109.131"/>
<polygon fill="black" stroke="black" points="183.277,-107.077 179.416,-116.943 188.587,-111.637 183.277,-107.077"/>
<text text-anchor="middle" x="210.6" y="-97.8" font-family="Times New Roman,serif" font-size="14.00">i</text>
</g>
<!-- 4&#45;&gt;3 -->
<g id="edge11" class="edge"><title>4&#45;&gt;3</title>
<path fill="none" stroke="black" d="M264.054,-85.0016C277.179,-72.3572 298.051,-52.2488 313.509,-37.3564"/>
<polygon fill="black" stroke="black" points="316.256,-39.57 321.029,-30.1113 311.399,-34.5289 316.256,-39.57"/>
<text text-anchor="middle" x="290.6" y="-65.8" font-family="Times New Roman,serif" font-size="14.00">p</text>
</g>
</g>
</svg>
