<?xml version="1.0" encoding="UTF-8" standalone="no"?>
<!DOCTYPE svg PUBLIC "-//W3C//DTD SVG 1.1//EN"
 "http://www.w3.org/Graphics/SVG/1.1/DTD/svg11.dtd">
<!-- Generated by graphviz version 2.38.0 (20140413.2041)
 -->
<!-- Title: dfa Pages: 1 -->
<svg width="357pt" height="182pt"
 viewBox="0.00 0.00 356.60 182.00" xmlns="http://www.w3.org/2000/svg" xmlns:xlink="http://www.w3.org/1999/xlink">
<g id="graph0" class="graph" transform="scale(1 1) rotate(0) translate(4 178)">
<title>dfa</title>
<polygon fill="white" stroke="none" points="-4,4 -4,-178 352.6,-178 352.6,4 -4,4"/>
<!-- __start -->
<!-- 0 -->
<g id="node2" class="node"><title>0</title>
<ellipse fill="none" stroke="black" cx="82.6" cy="-41" rx="18" ry="18"/>
<text text-anchor="middle" x="82.6" y="-37.3" font-family="Times New Roman,serif" font-size="14.00">0</text>
</g>
<!-- __start&#45;&gt;0 -->
<g id="edge1" class="edge"><title>__start&#45;&gt;0</title>
<path fill="none" stroke="black" d="M3.68496,-41C8.69573,-41 34.008,-41 54.4423,-41"/>
<polygon fill="black" stroke="black" points="54.5501,-44.5001 64.5501,-41 54.5501,-37.5001 54.5501,-44.5001"/>
<text text-anchor="middle" x="34.1" y="-44.8" font-family="Times New Roman,serif" font-size="14.00">start</text>
</g>
<!-- 1 -->
<g id="node3" class="node"><title>1</title>
<ellipse fill="none" stroke="black" cx="166.6" cy="-119" rx="18" ry="18"/>
<ellipse fill="none" stroke="black" cx="166.6" cy="-119" rx="22" ry="22"/>
<text text-anchor="middle" x="166.6" y="-115.3" font-family="Times New Roman,serif" font-size="14.00">1</text>
</g>
<!-- 0&#45;&gt;1 -->
<g id="edge3" class="edge"><title>0&#45;&gt;1</title>
<path fill="none" stroke="black" d="M95.2939,-53.963C101.961,-61.1985 110.565,-70.2823 118.6,-78 125.826,-84.9406 133.969,-92.2203 141.421,-98.6872"/>
<polygon fill="black" stroke="black" points="139.294,-101.474 149.162,-105.331 143.853,-96.1619 139.294,-101.474"/>
<text text-anchor="middle" x="122.6" y="-87.8" font-family="Times New Roman,serif" font-size="14.00">p</text>
</g>
<!-- 2 -->
<g id="node4" class="node"><title>2</title>
<ellipse fill="none" stroke="black" cx="250.6" cy="-80" rx="18" ry="18"/>
<text text-anchor="middle" x="250.6" y="-76.3" font-family="Times New Roman,serif" font-size="14.00">2</text>
</g>
<!-- 0&#45;&gt;2 -->
<g id="edge2" class="edge"><title>0&#45;&gt;2</title>
<path fill="none" stroke="black" d="M100.43,-44.9542C129.264,-51.7283 188.33,-65.6053 222.858,-73.7172"/>
<polygon fill="black" stroke="black" points="222.19,-77.1554 232.725,-76.0354 223.791,-70.341 222.19,-77.1554"/>
<text text-anchor="middle" x="166.6" y="-68.8" font-family="Times New Roman,serif" font-size="14.00">i</text>
</g>
<!-- 1&#45;&gt;1 -->
<g id="edge7" class="edge"><title>1&#45;&gt;1</title>
<path fill="none" stroke="black" d="M158.594,-139.581C157.486,-149.845 160.155,-159 166.6,-159 170.729,-159 173.308,-155.243 174.337,-149.844"/>
<polygon fill="black" stroke="black" points="177.843,-149.669 174.606,-139.581 170.845,-149.486 177.843,-149.669"/>
<text text-anchor="middle" x="166.6" y="-162.8" font-family="Times New Roman,serif" font-size="14.00">p</text>
</g>
<!-- 1&#45;&gt;2 -->
<g id="edge6" class="edge"><title>1&#45;&gt;2</title>
<path fill="none" stroke="black" d="M188.979,-119.072C197.304,-118.395 206.717,-116.726 214.6,-113 220.744,-110.096 226.519,-105.704 231.538,-101.063"/>
<polygon fill="black" stroke="black" points="234.224,-103.324 238.748,-93.7439 229.237,-98.412 234.224,-103.324"/>
<text text-anchor="middle" x="210.6" y="-118.8" font-family="Times New Roman,serif" font-size="14.00">i</text>
</g>
<!-- 2&#45;&gt;1 -->
<g id="edge4" class="edge"><title>2&#45;&gt;1</title>
<path fill="none" stroke="black" d="M233.508,-86.3018C225.361,-89.6015 215.365,-93.8179 206.6,-98 202.774,-99.8255 198.787,-101.839 194.887,-103.874"/>
<polygon fill="black" stroke="black" points="193.232,-100.789 186.057,-108.585 196.528,-106.965 193.232,-100.789"/>
<text text-anchor="middle" x="210.6" y="-101.8" font-family="Times New Roman,serif" font-size="14.00">i</text>
</g>
<!-- 3 -->
<g id="node5" class="node"><title>3</title>
<ellipse fill="none" stroke="black" cx="330.6" cy="-18" rx="18" ry="18"/>
<text text-anchor="middle" x="330.6" y="-14.3" font-family="Times New Roman,serif" font-size="14.00">3</text>
</g>
<!-- 2&#45;&gt;3 -->
<g id="edge5" class="edge"><title>2&#45;&gt;3</title>
<path fill="none" stroke="black" d="M265.187,-69.2004C276.97,-59.8341 294.236,-46.1101 307.926,-35.2279"/>
<polygon fill="black" stroke="black" points="310.257,-37.8462 315.907,-28.8838 305.901,-32.3664 310.257,-37.8462"/>
<text text-anchor="middle" x="290.6" y="-53.8" font-family="Times New Roman,serif" font-size="14.00">p</text>
</g>
<!-- 3&#45;&gt;0 -->
<g id="edge8" class="edge"><title>3&#45;&gt;0</title>
<path fill="none" stroke="black" d="M312.647,-19.585C270.742,-23.503 161.985,-33.6713 110.883,-38.4492"/>
<polygon fill="black" stroke="black" points="110.529,-34.9669 100.898,-39.3827 111.181,-41.9365 110.529,-34.9669"/>
<text text-anchor="middle" x="210.6" y="-32.8" font-family="Times New Roman,serif" font-size="14.00">i</text>
</g>
<!-- 3&#45;&gt;0 -->
<g id="edge9" class="edge"><title>3&#45;&gt;0</title>
<path fill="none" stroke="black" d="M312.831,-14.6555C289.102,-10.4035 244.404,-4.16294 206.6,-9 172.512,-13.3617 134.374,-24.2608 109.731,-32.1282"/>
<polygon fill="black" stroke="black" points="108.47,-28.8582 100.048,-35.2864 110.64,-35.5132 108.47,-28.8582"/>
<text text-anchor="middle" x="210.6" y="-12.8" font-family="Times New Roman,serif" font-size="14.00">p</text>
</g>
</g>
</svg>
