<?xml version="1.0" encoding="UTF-8" standalone="no"?>
<!DOCTYPE svg PUBLIC "-//W3C//DTD SVG 1.1//EN"
 "http://www.w3.org/Graphics/SVG/1.1/DTD/svg11.dtd">
<!-- Generated by graphviz version 2.38.0 (20140413.2041)
 -->
<!-- Title: dfa Pages: 1 -->
<svg width="375pt" height="182pt"
 viewBox="0.00 0.00 374.60 182.00" xmlns="http://www.w3.org/2000/svg" xmlns:xlink="http://www.w3.org/1999/xlink">
<g id="graph0" class="graph" transform="scale(1 1) rotate(0) translate(4 178)">
<title>dfa</title>
<polygon fill="white" stroke="none" points="-4,4 -4,-178 370.6,-178 370.6,4 -4,4"/>
<!-- __start -->
<!-- 0 -->
<g id="node2" class="node"><title>0</title>
<ellipse fill="none" stroke="black" cx="91.6" cy="-41" rx="27" ry="18"/>
<text text-anchor="middle" x="91.6" y="-37.3" font-family="Times New Roman,serif" font-size="14.00">0</text>
</g>
<!-- __start&#45;&gt;0 -->
<g id="edge1" class="edge"><title>__start&#45;&gt;0</title>
<path fill="none" stroke="black" d="M3.78604,-41C8.86985,-41 32.7092,-41 54.1222,-41"/>
<polygon fill="black" stroke="black" points="54.3463,-44.5001 64.3463,-41 54.3463,-37.5001 54.3463,-44.5001"/>
<text text-anchor="middle" x="34.1" y="-44.8" font-family="Times New Roman,serif" font-size="14.00">start</text>
</g>
<!-- 1 -->
<g id="node3" class="node"><title>1</title>
<ellipse fill="none" stroke="black" cx="184.6" cy="-119" rx="18" ry="18"/>
<ellipse fill="none" stroke="black" cx="184.6" cy="-119" rx="22" ry="22"/>
<text text-anchor="middle" x="184.6" y="-115.3" font-family="Times New Roman,serif" font-size="14.00">1</text>
</g>
<!-- 0&#45;&gt;1 -->
<g id="edge3" class="edge"><title>0&#45;&gt;1</title>
<path fill="none" stroke="black" d="M108.869,-54.9448C122.974,-67.0349 143.578,-84.6958 159.582,-98.4127"/>
<polygon fill="black" stroke="black" points="157.602,-101.325 167.472,-105.176 162.157,-96.0105 157.602,-101.325"/>
<text text-anchor="middle" x="140.6" y="-87.8" font-family="Times New Roman,serif" font-size="14.00">p</text>
</g>
<!-- 2 -->
<g id="node4" class="node"><title>2</title>
<ellipse fill="none" stroke="black" cx="268.6" cy="-80" rx="18" ry="18"/>
<text text-anchor="middle" x="268.6" y="-76.3" font-family="Times New Roman,serif" font-size="14.00">2</text>
</g>
<!-- 0&#45;&gt;2 -->
<g id="edge2" class="edge"><title>0&#45;&gt;2</title>
<path fill="none" stroke="black" d="M117.673,-46.5877C150.421,-53.8858 207.511,-66.6087 240.997,-74.0713"/>
<polygon fill="black" stroke="black" points="240.457,-77.5367 250.979,-76.2958 241.979,-70.7043 240.457,-77.5367"/>
<text text-anchor="middle" x="184.6" y="-69.8" font-family="Times New Roman,serif" font-size="14.00">i</text>
</g>
<!-- 1&#45;&gt;1 -->
<g id="edge7" class="edge"><title>1&#45;&gt;1</title>
<path fill="none" stroke="black" d="M176.594,-139.581C175.486,-149.845 178.155,-159 184.6,-159 188.729,-159 191.308,-155.243 192.337,-149.844"/>
<polygon fill="black" stroke="black" points="195.843,-149.669 192.606,-139.581 188.845,-149.486 195.843,-149.669"/>
<text text-anchor="middle" x="184.6" y="-162.8" font-family="Times New Roman,serif" font-size="14.00">p</text>
</g>
<!-- 1&#45;&gt;2 -->
<g id="edge6" class="edge"><title>1&#45;&gt;2</title>
<path fill="none" stroke="black" d="M206.979,-119.072C215.304,-118.395 224.717,-116.726 232.6,-113 238.744,-110.096 244.519,-105.704 249.538,-101.063"/>
<polygon fill="black" stroke="black" points="252.224,-103.324 256.748,-93.7439 247.237,-98.412 252.224,-103.324"/>
<text text-anchor="middle" x="228.6" y="-118.8" font-family="Times New Roman,serif" font-size="14.00">i</text>
</g>
<!-- 2&#45;&gt;1 -->
<g id="edge4" class="edge"><title>2&#45;&gt;1</title>
<path fill="none" stroke="black" d="M251.508,-86.3018C243.361,-89.6015 233.365,-93.8179 224.6,-98 220.774,-99.8255 216.787,-101.839 212.887,-103.874"/>
<polygon fill="black" stroke="black" points="211.232,-100.789 204.057,-108.585 214.528,-106.965 211.232,-100.789"/>
<text text-anchor="middle" x="228.6" y="-101.8" font-family="Times New Roman,serif" font-size="14.00">i</text>
</g>
<!-- 3 -->
<g id="node5" class="node"><title>3</title>
<ellipse fill="none" stroke="black" cx="348.6" cy="-18" rx="18" ry="18"/>
<text text-anchor="middle" x="348.6" y="-14.3" font-family="Times New Roman,serif" font-size="14.00">3</text>
</g>
<!-- 2&#45;&gt;3 -->
<g id="edge5" class="edge"><title>2&#45;&gt;3</title>
<path fill="none" stroke="black" d="M283.187,-69.2004C294.97,-59.8341 312.236,-46.1101 325.926,-35.2279"/>
<polygon fill="black" stroke="black" points="328.257,-37.8462 333.907,-28.8838 323.901,-32.3664 328.257,-37.8462"/>
<text text-anchor="middle" x="308.6" y="-53.8" font-family="Times New Roman,serif" font-size="14.00">p</text>
</g>
<!-- 3&#45;&gt;0 -->
<g id="edge8" class="edge"><title>3&#45;&gt;0</title>
<path fill="none" stroke="black" d="M330.442,-19.5475C289.295,-23.2589 184.294,-32.7296 128.581,-37.7546"/>
<polygon fill="black" stroke="black" points="128.099,-34.2838 118.454,-38.6681 128.728,-41.2555 128.099,-34.2838"/>
<text text-anchor="middle" x="228.6" y="-31.8" font-family="Times New Roman,serif" font-size="14.00">i</text>
</g>
<!-- 3&#45;&gt;0 -->
<g id="edge9" class="edge"><title>3&#45;&gt;0</title>
<path fill="none" stroke="black" d="M330.479,-16.2401C308.033,-14.0293 267.419,-10.3604 232.6,-9 194.88,-7.52624 152.807,-18.989 124.724,-28.6017"/>
<polygon fill="black" stroke="black" points="123.301,-25.3927 115.044,-32.0321 125.639,-31.9905 123.301,-25.3927"/>
<text text-anchor="middle" x="228.6" y="-12.8" font-family="Times New Roman,serif" font-size="14.00">p</text>
</g>
</g>
</svg>
