<?xml version="1.0" encoding="UTF-8" standalone="no"?>
<!DOCTYPE svg PUBLIC "-//W3C//DTD SVG 1.1//EN"
 "http://www.w3.org/Graphics/SVG/1.1/DTD/svg11.dtd">
<!-- Generated by graphviz version 2.38.0 (20140413.2041)
 -->
<!-- Title: dfa Pages: 1 -->
<svg width="535pt" height="284pt"
 viewBox="0.00 0.00 535.08 283.55" xmlns="http://www.w3.org/2000/svg" xmlns:xlink="http://www.w3.org/1999/xlink">
<g id="graph0" class="graph" transform="scale(1 1) rotate(0) translate(4 279.547)">
<title>dfa</title>
<polygon fill="white" stroke="none" points="-4,4 -4,-279.547 531.076,-279.547 531.076,4 -4,4"/>
<!-- __start -->
<!-- {0} -->
<g id="node2" class="node"><title>{0}</title>
<ellipse fill="none" stroke="black" cx="88.6479" cy="-72" rx="24.0958" ry="24.0958"/>
<text text-anchor="middle" x="88.6479" y="-68.3" font-family="Times New Roman,serif" font-size="14.00">{0}</text>
</g>
<!-- __start&#45;&gt;{0} -->
<g id="edge1" class="edge"><title>__start&#45;&gt;{0}</title>
<path fill="none" stroke="black" d="M3.75288,-72C8.82222,-72 33.1893,-72 54.3658,-72"/>
<polygon fill="black" stroke="black" points="54.4068,-75.5001 64.4067,-72 54.4067,-68.5001 54.4068,-75.5001"/>
<text text-anchor="middle" x="34.1" y="-75.8" font-family="Times New Roman,serif" font-size="14.00">start</text>
</g>
<!-- {2} -->
<g id="node4" class="node"><title>{2}</title>
<ellipse fill="none" stroke="black" cx="184.744" cy="-150" rx="24.089" ry="24.089"/>
<ellipse fill="none" stroke="black" cx="184.744" cy="-150" rx="28.0958" ry="28.0958"/>
<text text-anchor="middle" x="184.744" y="-146.3" font-family="Times New Roman,serif" font-size="14.00">{2}</text>
</g>
<!-- {0}&#45;&gt;{2} -->
<g id="edge3" class="edge"><title>{0}&#45;&gt;{2}</title>
<path fill="none" stroke="black" d="M107.058,-87.6125C114.298,-94.0143 122.832,-101.446 130.696,-108 138.184,-114.241 146.391,-120.849 154.065,-126.931"/>
<polygon fill="black" stroke="black" points="152.103,-129.84 162.123,-133.281 156.435,-124.342 152.103,-129.84"/>
<text text-anchor="middle" x="134.696" y="-117.8" font-family="Times New Roman,serif" font-size="14.00">p</text>
</g>
<!-- {4} -->
<g id="node6" class="node"><title>{4}</title>
<ellipse fill="none" stroke="black" cx="389.934" cy="-140" rx="24.0958" ry="24.0958"/>
<text text-anchor="middle" x="389.934" y="-136.3" font-family="Times New Roman,serif" font-size="14.00">{4}</text>
</g>
<!-- {0}&#45;&gt;{4} -->
<g id="edge2" class="edge"><title>{0}&#45;&gt;{4}</title>
<path fill="none" stroke="black" d="M112.635,-77.2229C165.428,-89.2177 295.47,-118.764 356.421,-132.613"/>
<polygon fill="black" stroke="black" points="355.751,-136.05 366.278,-134.852 357.302,-129.224 355.751,-136.05"/>
<text text-anchor="middle" x="234.791" y="-109.8" font-family="Times New Roman,serif" font-size="14.00">i</text>
</g>
<!-- {1,2} -->
<g id="node3" class="node"><title>{1,2}</title>
<ellipse fill="none" stroke="black" cx="492.529" cy="-178" rx="30.5892" ry="30.5892"/>
<ellipse fill="none" stroke="black" cx="492.529" cy="-178" rx="34.5946" ry="34.5946"/>
<text text-anchor="middle" x="492.529" y="-174.3" font-family="Times New Roman,serif" font-size="14.00">{1,2}</text>
</g>
<!-- {0,2} -->
<g id="node5" class="node"><title>{0,2}</title>
<ellipse fill="none" stroke="black" cx="291.339" cy="-208" rx="30.5892" ry="30.5892"/>
<ellipse fill="none" stroke="black" cx="291.339" cy="-208" rx="34.5946" ry="34.5946"/>
<text text-anchor="middle" x="291.339" y="-204.3" font-family="Times New Roman,serif" font-size="14.00">{0,2}</text>
</g>
<!-- {1,2}&#45;&gt;{0,2} -->
<g id="edge7" class="edge"><title>{1,2}&#45;&gt;{0,2}</title>
<path fill="none" stroke="black" d="M458.08,-183.038C424.431,-188.106 372.395,-195.943 335.619,-201.482"/>
<polygon fill="black" stroke="black" points="335.046,-198.028 325.679,-202.979 336.088,-204.95 335.046,-198.028"/>
<text text-anchor="middle" x="389.934" y="-200.8" font-family="Times New Roman,serif" font-size="14.00">p</text>
</g>
<!-- {1,2}&#45;&gt;{4} -->
<g id="edge6" class="edge"><title>{1,2}&#45;&gt;{4}</title>
<path fill="none" stroke="black" d="M467.658,-153.565C459.57,-146.875 450.022,-140.506 439.982,-137 434.976,-135.252 429.509,-134.529 424.101,-134.438"/>
<polygon fill="black" stroke="black" points="423.726,-130.952 413.908,-134.935 424.067,-137.943 423.726,-130.952"/>
<text text-anchor="middle" x="435.982" y="-140.8" font-family="Times New Roman,serif" font-size="14.00">i</text>
</g>
<!-- {2}&#45;&gt;{0,2} -->
<g id="edge9" class="edge"><title>{2}&#45;&gt;{0,2}</title>
<path fill="none" stroke="black" d="M209.74,-163.306C222.208,-170.22 237.746,-178.836 251.844,-186.654"/>
<polygon fill="black" stroke="black" points="250.41,-189.861 260.853,-191.65 253.805,-183.739 250.41,-189.861"/>
<text text-anchor="middle" x="234.791" y="-182.8" font-family="Times New Roman,serif" font-size="14.00">p</text>
</g>
<!-- {2}&#45;&gt;{4} -->
<g id="edge8" class="edge"><title>{2}&#45;&gt;{4}</title>
<path fill="none" stroke="black" d="M213.147,-148.651C250.138,-146.831 315.983,-143.59 355.737,-141.634"/>
<polygon fill="black" stroke="black" points="355.915,-145.129 365.731,-141.142 355.571,-138.138 355.915,-145.129"/>
<text text-anchor="middle" x="291.339" y="-150.8" font-family="Times New Roman,serif" font-size="14.00">i</text>
</g>
<!-- {0,2}&#45;&gt;{0,2} -->
<g id="edge13" class="edge"><title>{0,2}&#45;&gt;{0,2}</title>
<path fill="none" stroke="black" d="M281.214,-241.098C281.267,-251.926 284.641,-260.547 291.339,-260.547 295.734,-260.547 298.698,-256.834 300.231,-251.221"/>
<polygon fill="black" stroke="black" points="303.73,-251.448 301.463,-241.098 296.781,-250.602 303.73,-251.448"/>
<text text-anchor="middle" x="291.339" y="-264.347" font-family="Times New Roman,serif" font-size="14.00">p</text>
</g>
<!-- {0,2}&#45;&gt;{4} -->
<g id="edge12" class="edge"><title>{0,2}&#45;&gt;{4}</title>
<path fill="none" stroke="black" d="M320.019,-188.514C332.974,-179.394 348.365,-168.559 361.312,-159.445"/>
<polygon fill="black" stroke="black" points="363.663,-162.07 369.825,-153.452 359.634,-156.346 363.663,-162.07"/>
<text text-anchor="middle" x="345.886" y="-173.8" font-family="Times New Roman,serif" font-size="14.00">i</text>
</g>
<!-- {4}&#45;&gt;{1,2} -->
<g id="edge4" class="edge"><title>{4}&#45;&gt;{1,2}</title>
<path fill="none" stroke="black" d="M412.635,-148.542C418.872,-150.974 425.689,-153.611 431.982,-156 437.865,-158.233 444.085,-160.564 450.2,-162.839"/>
<polygon fill="black" stroke="black" points="449.066,-166.151 459.659,-166.344 451.499,-159.587 449.066,-166.151"/>
<text text-anchor="middle" x="435.982" y="-163.8" font-family="Times New Roman,serif" font-size="14.00">i</text>
</g>
<!-- {3} -->
<g id="node7" class="node"><title>{3}</title>
<ellipse fill="none" stroke="black" cx="492.529" cy="-51" rx="24.0958" ry="24.0958"/>
<text text-anchor="middle" x="492.529" y="-47.3" font-family="Times New Roman,serif" font-size="14.00">{3}</text>
</g>
<!-- {4}&#45;&gt;{3} -->
<g id="edge5" class="edge"><title>{4}&#45;&gt;{3}</title>
<path fill="none" stroke="black" d="M408.456,-124.497C424.37,-110.418 448.037,-89.4791 466.043,-73.5482"/>
<polygon fill="black" stroke="black" points="468.7,-75.8712 473.87,-66.6236 464.061,-70.6285 468.7,-75.8712"/>
<text text-anchor="middle" x="435.982" y="-107.8" font-family="Times New Roman,serif" font-size="14.00">p</text>
</g>
<!-- {3}&#45;&gt;{0} -->
<g id="edge10" class="edge"><title>{3}&#45;&gt;{0}</title>
<path fill="none" stroke="black" d="M468.355,-51C447.966,-51 417.48,-51 390.934,-51 183.744,-51 183.744,-51 183.744,-51 162.658,-51 139.538,-56.0853 121.493,-61.251"/>
<polygon fill="black" stroke="black" points="120.337,-57.9439 111.772,-64.1804 122.357,-64.6462 120.337,-57.9439"/>
<text text-anchor="middle" x="291.339" y="-54.8" font-family="Times New Roman,serif" font-size="14.00">i</text>
</g>
<!-- {3}&#45;&gt;{0} -->
<g id="edge11" class="edge"><title>{3}&#45;&gt;{0}</title>
<path fill="none" stroke="black" d="M473.631,-35.4212C454.512,-20.423 422.655,-0 390.934,-0 183.744,-0 183.744,-0 183.744,-0 153.236,-0 126.495,-24.1662 109.396,-44.4974"/>
<polygon fill="black" stroke="black" points="106.642,-42.3369 103.11,-52.3257 112.1,-46.7197 106.642,-42.3369"/>
<text text-anchor="middle" x="291.339" y="-3.8" font-family="Times New Roman,serif" font-size="14.00">p</text>
</g>
</g>
</svg>
