<?xml version="1.0" encoding="UTF-8" standalone="no"?>
<!DOCTYPE svg PUBLIC "-//W3C//DTD SVG 1.1//EN"
 "http://www.w3.org/Graphics/SVG/1.1/DTD/svg11.dtd">
<!-- Generated by graphviz version 2.38.0 (20140413.2041)
 -->
<!-- Title: dfa Pages: 1 -->
<svg width="541pt" height="284pt"
 viewBox="0.00 0.00 540.98 283.55" xmlns="http://www.w3.org/2000/svg" xmlns:xlink="http://www.w3.org/1999/xlink">
<g id="graph0" class="graph" transform="scale(1 1) rotate(0) translate(4 279.547)">
<title>dfa</title>
<polygon fill="white" stroke="none" points="-4,4 -4,-279.547 536.981,-279.547 536.981,4 -4,4"/>
<!-- __start -->
<!-- {0} -->
<g id="node2" class="node"><title>{0}</title>
<ellipse fill="none" stroke="black" cx="91.6" cy="-72" rx="27" ry="18"/>
<text text-anchor="middle" x="91.6" y="-68.3" font-family="Times New Roman,serif" font-size="14.00">{0}</text>
</g>
<!-- __start&#45;&gt;{0} -->
<g id="edge1" class="edge"><title>__start&#45;&gt;{0}</title>
<path fill="none" stroke="black" d="M3.78604,-72C8.86985,-72 32.7092,-72 54.1222,-72"/>
<polygon fill="black" stroke="black" points="54.3463,-75.5001 64.3463,-72 54.3463,-68.5001 54.3463,-75.5001"/>
<text text-anchor="middle" x="34.1" y="-75.8" font-family="Times New Roman,serif" font-size="14.00">start</text>
</g>
<!-- {2} -->
<g id="node4" class="node"><title>{2}</title>
<ellipse fill="none" stroke="black" cx="190.648" cy="-150" rx="24.089" ry="24.089"/>
<ellipse fill="none" stroke="black" cx="190.648" cy="-150" rx="28.0958" ry="28.0958"/>
<text text-anchor="middle" x="190.648" y="-146.3" font-family="Times New Roman,serif" font-size="14.00">{2}</text>
</g>
<!-- {0}&#45;&gt;{2} -->
<g id="edge3" class="edge"><title>{0}&#45;&gt;{2}</title>
<path fill="none" stroke="black" d="M109.264,-85.7391C117.47,-92.4784 127.527,-100.698 136.6,-108 144.194,-114.112 152.439,-120.675 160.114,-126.754"/>
<polygon fill="black" stroke="black" points="158.147,-129.66 168.162,-133.116 162.488,-124.169 158.147,-129.66"/>
<text text-anchor="middle" x="140.6" y="-117.8" font-family="Times New Roman,serif" font-size="14.00">p</text>
</g>
<!-- {4} -->
<g id="node6" class="node"><title>{4}</title>
<ellipse fill="none" stroke="black" cx="395.838" cy="-140" rx="24.0958" ry="24.0958"/>
<text text-anchor="middle" x="395.838" y="-136.3" font-family="Times New Roman,serif" font-size="14.00">{4}</text>
</g>
<!-- {0}&#45;&gt;{4} -->
<g id="edge2" class="edge"><title>{0}&#45;&gt;{4}</title>
<path fill="none" stroke="black" d="M117.333,-77.5647C171.709,-89.7985 301.634,-119.03 362.431,-132.709"/>
<polygon fill="black" stroke="black" points="361.736,-136.14 372.26,-134.92 363.272,-129.31 361.736,-136.14"/>
<text text-anchor="middle" x="240.696" y="-109.8" font-family="Times New Roman,serif" font-size="14.00">i</text>
</g>
<!-- {1,2} -->
<g id="node3" class="node"><title>{1,2}</title>
<ellipse fill="none" stroke="black" cx="498.433" cy="-178" rx="30.5892" ry="30.5892"/>
<ellipse fill="none" stroke="black" cx="498.433" cy="-178" rx="34.5946" ry="34.5946"/>
<text text-anchor="middle" x="498.433" y="-174.3" font-family="Times New Roman,serif" font-size="14.00">{1,2}</text>
</g>
<!-- {0,2} -->
<g id="node5" class="node"><title>{0,2}</title>
<ellipse fill="none" stroke="black" cx="297.243" cy="-208" rx="30.5892" ry="30.5892"/>
<ellipse fill="none" stroke="black" cx="297.243" cy="-208" rx="34.5946" ry="34.5946"/>
<text text-anchor="middle" x="297.243" y="-204.3" font-family="Times New Roman,serif" font-size="14.00">{0,2}</text>
</g>
<!-- {1,2}&#45;&gt;{0,2} -->
<g id="edge7" class="edge"><title>{1,2}&#45;&gt;{0,2}</title>
<path fill="none" stroke="black" d="M463.985,-183.038C430.335,-188.106 378.299,-195.943 341.523,-201.482"/>
<polygon fill="black" stroke="black" points="340.95,-198.028 331.583,-202.979 341.993,-204.95 340.95,-198.028"/>
<text text-anchor="middle" x="395.838" y="-200.8" font-family="Times New Roman,serif" font-size="14.00">p</text>
</g>
<!-- {1,2}&#45;&gt;{4} -->
<g id="edge6" class="edge"><title>{1,2}&#45;&gt;{4}</title>
<path fill="none" stroke="black" d="M473.563,-153.565C465.474,-146.875 455.926,-140.506 445.886,-137 440.88,-135.252 435.413,-134.529 430.005,-134.438"/>
<polygon fill="black" stroke="black" points="429.63,-130.952 419.813,-134.935 429.971,-137.943 429.63,-130.952"/>
<text text-anchor="middle" x="441.886" y="-140.8" font-family="Times New Roman,serif" font-size="14.00">i</text>
</g>
<!-- {2}&#45;&gt;{0,2} -->
<g id="edge9" class="edge"><title>{2}&#45;&gt;{0,2}</title>
<path fill="none" stroke="black" d="M215.644,-163.306C228.112,-170.22 243.651,-178.836 257.748,-186.654"/>
<polygon fill="black" stroke="black" points="256.314,-189.861 266.757,-191.65 259.709,-183.739 256.314,-189.861"/>
<text text-anchor="middle" x="240.696" y="-182.8" font-family="Times New Roman,serif" font-size="14.00">p</text>
</g>
<!-- {2}&#45;&gt;{4} -->
<g id="edge8" class="edge"><title>{2}&#45;&gt;{4}</title>
<path fill="none" stroke="black" d="M219.051,-148.651C256.042,-146.831 321.887,-143.59 361.641,-141.634"/>
<polygon fill="black" stroke="black" points="361.819,-145.129 371.635,-141.142 361.475,-138.138 361.819,-145.129"/>
<text text-anchor="middle" x="297.243" y="-150.8" font-family="Times New Roman,serif" font-size="14.00">i</text>
</g>
<!-- {0,2}&#45;&gt;{0,2} -->
<g id="edge13" class="edge"><title>{0,2}&#45;&gt;{0,2}</title>
<path fill="none" stroke="black" d="M287.119,-241.098C287.171,-251.926 290.546,-260.547 297.243,-260.547 301.638,-260.547 304.602,-256.834 306.136,-251.221"/>
<polygon fill="black" stroke="black" points="309.634,-251.448 307.367,-241.098 302.685,-250.602 309.634,-251.448"/>
<text text-anchor="middle" x="297.243" y="-264.347" font-family="Times New Roman,serif" font-size="14.00">p</text>
</g>
<!-- {0,2}&#45;&gt;{4} -->
<g id="edge12" class="edge"><title>{0,2}&#45;&gt;{4}</title>
<path fill="none" stroke="black" d="M325.923,-188.514C338.878,-179.394 354.269,-168.559 367.217,-159.445"/>
<polygon fill="black" stroke="black" points="369.567,-162.07 375.73,-153.452 365.538,-156.346 369.567,-162.07"/>
<text text-anchor="middle" x="351.79" y="-173.8" font-family="Times New Roman,serif" font-size="14.00">i</text>
</g>
<!-- {4}&#45;&gt;{1,2} -->
<g id="edge4" class="edge"><title>{4}&#45;&gt;{1,2}</title>
<path fill="none" stroke="black" d="M418.539,-148.542C424.777,-150.974 431.593,-153.611 437.886,-156 443.769,-158.233 449.989,-160.564 456.105,-162.839"/>
<polygon fill="black" stroke="black" points="454.971,-166.151 465.564,-166.344 457.403,-159.587 454.971,-166.151"/>
<text text-anchor="middle" x="441.886" y="-163.8" font-family="Times New Roman,serif" font-size="14.00">i</text>
</g>
<!-- {3} -->
<g id="node7" class="node"><title>{3}</title>
<ellipse fill="none" stroke="black" cx="498.433" cy="-51" rx="24.0958" ry="24.0958"/>
<text text-anchor="middle" x="498.433" y="-47.3" font-family="Times New Roman,serif" font-size="14.00">{3}</text>
</g>
<!-- {4}&#45;&gt;{3} -->
<g id="edge5" class="edge"><title>{4}&#45;&gt;{3}</title>
<path fill="none" stroke="black" d="M414.361,-124.497C430.274,-110.418 453.941,-89.4791 471.948,-73.5482"/>
<polygon fill="black" stroke="black" points="474.604,-75.8712 479.774,-66.6236 469.966,-70.6285 474.604,-75.8712"/>
<text text-anchor="middle" x="441.886" y="-107.8" font-family="Times New Roman,serif" font-size="14.00">p</text>
</g>
<!-- {3}&#45;&gt;{0} -->
<g id="edge10" class="edge"><title>{3}&#45;&gt;{0}</title>
<path fill="none" stroke="black" d="M474.26,-51C453.87,-51 423.384,-51 396.838,-51 189.648,-51 189.648,-51 189.648,-51 168.121,-51 144.504,-55.9968 125.958,-61.1156"/>
<polygon fill="black" stroke="black" points="124.85,-57.7926 116.221,-63.9409 126.801,-64.5153 124.85,-57.7926"/>
<text text-anchor="middle" x="297.243" y="-54.8" font-family="Times New Roman,serif" font-size="14.00">i</text>
</g>
<!-- {3}&#45;&gt;{0} -->
<g id="edge11" class="edge"><title>{3}&#45;&gt;{0}</title>
<path fill="none" stroke="black" d="M479.535,-35.4212C460.417,-20.423 428.559,-0 396.838,-0 189.648,-0 189.648,-0 189.648,-0 156.866,-0 127.947,-26.8248 110.388,-47.7276"/>
<polygon fill="black" stroke="black" points="107.548,-45.6742 104.013,-55.6621 113.005,-50.0583 107.548,-45.6742"/>
<text text-anchor="middle" x="297.243" y="-3.8" font-family="Times New Roman,serif" font-size="14.00">p</text>
</g>
</g>
</svg>
