<?xml version="1.0" encoding="UTF-8" standalone="no"?>
<!DOCTYPE svg PUBLIC "-//W3C//DTD SVG 1.1//EN"
 "http://www.w3.org/Graphics/SVG/1.1/DTD/svg11.dtd">
<!-- Generated by graphviz version 2.38.0 (20140413.2041)
 -->
<!-- Title: dfa Pages: 1 -->
<svg width="372pt" height="171pt"
 viewBox="0.00 0.00 371.60 171.00" xmlns="http://www.w3.org/2000/svg" xmlns:xlink="http://www.w3.org/1999/xlink">
<g id="graph0" class="graph" transform="scale(1 1) rotate(0) translate(4 167)">
<title>dfa</title>
<polygon fill="white" stroke="none" points="-4,4 -4,-167 367.6,-167 367.6,4 -4,4"/>
<!-- __start -->
<!-- 0 -->
<g id="node2" class="node"><title>0</title>
<ellipse fill="none" stroke="black" cx="91.6" cy="-31" rx="27" ry="18"/>
<text text-anchor="middle" x="91.6" y="-27.3" font-family="Times New Roman,serif" font-size="14.00">0</text>
</g>
<!-- __start&#45;&gt;0 -->
<g id="edge1" class="edge"><title>__start&#45;&gt;0</title>
<path fill="none" stroke="black" d="M3.78604,-31C8.86985,-31 32.7092,-31 54.1222,-31"/>
<polygon fill="black" stroke="black" points="54.3463,-34.5001 64.3463,-31 54.3463,-27.5001 54.3463,-34.5001"/>
<text text-anchor="middle" x="34.1" y="-34.8" font-family="Times New Roman,serif" font-size="14.00">start</text>
</g>
<!-- 1 -->
<g id="node3" class="node"><title>1</title>
<ellipse fill="none" stroke="black" cx="183.6" cy="-95" rx="18" ry="18"/>
<ellipse fill="none" stroke="black" cx="183.6" cy="-95" rx="22" ry="22"/>
<text text-anchor="middle" x="183.6" y="-91.3" font-family="Times New Roman,serif" font-size="14.00">1</text>
</g>
<!-- 0&#45;&gt;1 -->
<g id="edge4" class="edge"><title>0&#45;&gt;1</title>
<path fill="none" stroke="black" d="M110.813,-43.9514C124.123,-53.4166 142.35,-66.3777 157.106,-76.8711"/>
<polygon fill="black" stroke="black" points="155.152,-79.7764 165.33,-82.7193 159.209,-74.0717 155.152,-79.7764"/>
<text text-anchor="middle" x="140.1" y="-69.8" font-family="Times New Roman,serif" font-size="14.00">e</text>
</g>
<!-- 4 -->
<g id="node6" class="node"><title>4</title>
<ellipse fill="none" stroke="black" cx="345.6" cy="-18" rx="18" ry="18"/>
<text text-anchor="middle" x="345.6" y="-14.3" font-family="Times New Roman,serif" font-size="14.00">4</text>
</g>
<!-- 0&#45;&gt;4 -->
<g id="edge5" class="edge"><title>0&#45;&gt;4</title>
<path fill="none" stroke="black" d="M118.619,-29.6577C166.553,-27.185 268.364,-21.9328 317.265,-19.4101"/>
<polygon fill="black" stroke="black" points="317.6,-22.8976 327.406,-18.887 317.239,-15.9069 317.6,-22.8976"/>
<text text-anchor="middle" x="227.1" y="-27.8" font-family="Times New Roman,serif" font-size="14.00">a</text>
</g>
<!-- 2 -->
<g id="node4" class="node"><title>2</title>
<ellipse fill="none" stroke="black" cx="266.6" cy="-95" rx="18" ry="18"/>
<text text-anchor="middle" x="266.6" y="-91.3" font-family="Times New Roman,serif" font-size="14.00">2</text>
</g>
<!-- 1&#45;&gt;2 -->
<g id="edge2" class="edge"><title>1&#45;&gt;2</title>
<path fill="none" stroke="black" d="M205.882,-95C215.866,-95 227.878,-95 238.503,-95"/>
<polygon fill="black" stroke="black" points="238.54,-98.5001 248.539,-95 238.539,-91.5001 238.54,-98.5001"/>
<text text-anchor="middle" x="227.1" y="-98.8" font-family="Times New Roman,serif" font-size="14.00">e</text>
</g>
<!-- 3 -->
<g id="node5" class="node"><title>3</title>
<ellipse fill="none" stroke="black" cx="345.6" cy="-145" rx="18" ry="18"/>
<text text-anchor="middle" x="345.6" y="-141.3" font-family="Times New Roman,serif" font-size="14.00">3</text>
</g>
<!-- 1&#45;&gt;3 -->
<g id="edge3" class="edge"><title>1&#45;&gt;3</title>
<path fill="none" stroke="black" d="M202.443,-106.819C224.762,-120.825 264.669,-143.352 302.6,-152 307.564,-153.132 312.897,-153.148 318.041,-152.567"/>
<polygon fill="black" stroke="black" points="318.957,-155.957 328.157,-150.701 317.688,-149.073 318.957,-155.957"/>
<text text-anchor="middle" x="266.6" y="-149.8" font-family="Times New Roman,serif" font-size="14.00">a</text>
</g>
<!-- 2&#45;&gt;3 -->
<g id="edge8" class="edge"><title>2&#45;&gt;3</title>
<path fill="none" stroke="black" d="M278.738,-108.775C285.103,-115.912 293.596,-124.302 302.6,-130 307.425,-133.054 312.956,-135.593 318.385,-137.66"/>
<polygon fill="black" stroke="black" points="317.28,-140.981 327.874,-140.882 319.531,-134.353 317.28,-140.981"/>
<text text-anchor="middle" x="306.1" y="-136.8" font-family="Times New Roman,serif" font-size="14.00">e</text>
</g>
<!-- 2&#45;&gt;4 -->
<g id="edge9" class="edge"><title>2&#45;&gt;4</title>
<path fill="none" stroke="black" d="M279.971,-82.6286C292.095,-70.5047 310.764,-51.8356 324.926,-37.6742"/>
<polygon fill="black" stroke="black" points="327.663,-39.8867 332.259,-30.3407 322.713,-34.9369 327.663,-39.8867"/>
<text text-anchor="middle" x="306.1" y="-61.8" font-family="Times New Roman,serif" font-size="14.00">a</text>
</g>
<!-- 3&#45;&gt;2 -->
<g id="edge10" class="edge"><title>3&#45;&gt;2</title>
<path fill="none" stroke="black" d="M333.345,-131.707C326.947,-124.799 318.458,-116.646 309.6,-111 304.747,-107.907 299.205,-105.268 293.773,-103.079"/>
<polygon fill="black" stroke="black" points="294.881,-99.7575 284.287,-99.6214 292.484,-106.334 294.881,-99.7575"/>
<text text-anchor="middle" x="306.1" y="-114.8" font-family="Times New Roman,serif" font-size="14.00">e</text>
</g>
<!-- 3&#45;&gt;2 -->
<g id="edge11" class="edge"><title>3&#45;&gt;2</title>
<path fill="none" stroke="black" d="M336.946,-128.878C329.353,-113.667 317.708,-92.5357 309.6,-88 304.6,-85.2029 298.778,-84.7409 293.091,-85.4566"/>
<polygon fill="black" stroke="black" points="292.145,-82.0831 283.203,-87.7665 293.738,-88.8996 292.145,-82.0831"/>
<text text-anchor="middle" x="306.1" y="-91.8" font-family="Times New Roman,serif" font-size="14.00">a</text>
</g>
<!-- 4&#45;&gt;4 -->
<g id="edge6" class="edge"><title>4&#45;&gt;4</title>
<path fill="none" stroke="black" d="M342.184,-35.7817C341.604,-45.3149 342.743,-54 345.6,-54 347.341,-54 348.444,-50.7749 348.909,-46.0981"/>
<polygon fill="black" stroke="black" points="352.412,-45.8174 349.016,-35.7817 345.412,-45.745 352.412,-45.8174"/>
<text text-anchor="middle" x="345.6" y="-57.8" font-family="Times New Roman,serif" font-size="14.00">e</text>
</g>
<!-- 4&#45;&gt;4 -->
<g id="edge7" class="edge"><title>4&#45;&gt;4</title>
<path fill="none" stroke="black" d="M340.041,-35.1418C336.77,-52.585 338.623,-72 345.6,-72 351.214,-72 353.51,-59.4283 352.489,-45.4287"/>
<polygon fill="black" stroke="black" points="355.913,-44.6105 351.159,-35.1418 348.97,-45.508 355.913,-44.6105"/>
<text text-anchor="middle" x="345.6" y="-75.8" font-family="Times New Roman,serif" font-size="14.00">a</text>
</g>
</g>
</svg>
