<?xml version="1.0" encoding="UTF-8" standalone="no"?>
<!DOCTYPE svg PUBLIC "-//W3C//DTD SVG 1.1//EN"
 "http://www.w3.org/Graphics/SVG/1.1/DTD/svg11.dtd">
<!-- Generated by graphviz version 2.38.0 (20140413.2041)
 -->
<!-- Title: dfa Pages: 1 -->
<svg width="293pt" height="121pt"
 viewBox="0.00 0.00 292.60 121.00" xmlns="http://www.w3.org/2000/svg" xmlns:xlink="http://www.w3.org/1999/xlink">
<g id="graph0" class="graph" transform="scale(1 1) rotate(0) translate(4 117)">
<title>dfa</title>
<polygon fill="white" stroke="none" points="-4,4 -4,-117 288.6,-117 288.6,4 -4,4"/>
<!-- __start -->
<!-- 0 -->
<g id="node2" class="node"><title>0</title>
<ellipse fill="none" stroke="black" cx="91.6" cy="-18" rx="27" ry="18"/>
<text text-anchor="middle" x="91.6" y="-14.3" font-family="Times New Roman,serif" font-size="14.00">0</text>
</g>
<!-- __start&#45;&gt;0 -->
<g id="edge1" class="edge"><title>__start&#45;&gt;0</title>
<path fill="none" stroke="black" d="M3.78604,-18C8.86985,-18 32.7092,-18 54.1222,-18"/>
<polygon fill="black" stroke="black" points="54.3463,-21.5001 64.3463,-18 54.3463,-14.5001 54.3463,-21.5001"/>
<text text-anchor="middle" x="34.1" y="-21.8" font-family="Times New Roman,serif" font-size="14.00">start</text>
</g>
<!-- 1 -->
<g id="node3" class="node"><title>1</title>
<ellipse fill="none" stroke="black" cx="183.6" cy="-51" rx="18" ry="18"/>
<ellipse fill="none" stroke="black" cx="183.6" cy="-51" rx="22" ry="22"/>
<text text-anchor="middle" x="183.6" y="-47.3" font-family="Times New Roman,serif" font-size="14.00">1</text>
</g>
<!-- 0&#45;&gt;1 -->
<g id="edge4" class="edge"><title>0&#45;&gt;1</title>
<path fill="none" stroke="black" d="M115.777,-26.4983C127.089,-30.646 140.828,-35.6836 152.9,-40.1099"/>
<polygon fill="black" stroke="black" points="151.964,-43.4947 162.558,-43.6513 154.374,-36.9226 151.964,-43.4947"/>
<text text-anchor="middle" x="140.1" y="-39.8" font-family="Times New Roman,serif" font-size="14.00">e</text>
</g>
<!-- 2 -->
<g id="node4" class="node"><title>2</title>
<ellipse fill="none" stroke="black" cx="266.6" cy="-29" rx="18" ry="18"/>
<text text-anchor="middle" x="266.6" y="-25.3" font-family="Times New Roman,serif" font-size="14.00">2</text>
</g>
<!-- 0&#45;&gt;2 -->
<g id="edge5" class="edge"><title>0&#45;&gt;2</title>
<path fill="none" stroke="black" d="M116.568,-11.0407C139.553,-5.35482 175.156,0.862995 205.6,-5 217.746,-7.33908 230.558,-12.1148 241.211,-16.7945"/>
<polygon fill="black" stroke="black" points="239.759,-19.9791 250.305,-20.9926 242.693,-13.6236 239.759,-19.9791"/>
<text text-anchor="middle" x="183.6" y="-8.8" font-family="Times New Roman,serif" font-size="14.00">a</text>
</g>
<!-- 1&#45;&gt;2 -->
<g id="edge2" class="edge"><title>1&#45;&gt;2</title>
<path fill="none" stroke="black" d="M205.939,-49.5566C213.797,-48.6767 222.703,-47.2642 230.6,-45 234.044,-44.0125 237.581,-42.7366 241.021,-41.3366"/>
<polygon fill="black" stroke="black" points="242.593,-44.4678 250.3,-37.1981 239.741,-38.0748 242.593,-44.4678"/>
<text text-anchor="middle" x="227.1" y="-49.8" font-family="Times New Roman,serif" font-size="14.00">e</text>
</g>
<!-- 1&#45;&gt;2 -->
<g id="edge3" class="edge"><title>1&#45;&gt;2</title>
<path fill="none" stroke="black" d="M201.031,-37.5129C207.632,-32.9188 215.573,-28.3518 223.6,-26 228.432,-24.5843 233.704,-24.1475 238.829,-24.2654"/>
<polygon fill="black" stroke="black" points="238.69,-27.7665 248.957,-25.1504 239.3,-20.793 238.69,-27.7665"/>
<text text-anchor="middle" x="227.1" y="-29.8" font-family="Times New Roman,serif" font-size="14.00">a</text>
</g>
<!-- 2&#45;&gt;2 -->
<g id="edge6" class="edge"><title>2&#45;&gt;2</title>
<path fill="none" stroke="black" d="M263.184,-46.7817C262.604,-56.3149 263.743,-65 266.6,-65 268.341,-65 269.444,-61.7749 269.909,-57.0981"/>
<polygon fill="black" stroke="black" points="273.412,-56.8174 270.016,-46.7817 266.412,-56.745 273.412,-56.8174"/>
<text text-anchor="middle" x="266.6" y="-68.8" font-family="Times New Roman,serif" font-size="14.00">e</text>
</g>
<!-- 2&#45;&gt;2 -->
<g id="edge7" class="edge"><title>2&#45;&gt;2</title>
<path fill="none" stroke="black" d="M261.041,-46.1418C257.77,-63.585 259.623,-83 266.6,-83 272.214,-83 274.51,-70.4283 273.489,-56.4287"/>
<polygon fill="black" stroke="black" points="276.913,-55.6105 272.159,-46.1418 269.97,-56.508 276.913,-55.6105"/>
<text text-anchor="middle" x="266.6" y="-86.8" font-family="Times New Roman,serif" font-size="14.00">a</text>
</g>
</g>
</svg>
