<?xml version="1.0" encoding="UTF-8" standalone="no"?>
<!DOCTYPE svg PUBLIC "-//W3C//DTD SVG 1.1//EN"
 "http://www.w3.org/Graphics/SVG/1.1/DTD/svg11.dtd">
<!-- Generated by graphviz version 2.38.0 (20140413.2041)
 -->
<!-- Title: dfa Pages: 1 -->
<svg width="356pt" height="84pt"
 viewBox="0.00 0.00 355.60 84.00" xmlns="http://www.w3.org/2000/svg" xmlns:xlink="http://www.w3.org/1999/xlink">
<g id="graph0" class="graph" transform="scale(1 1) rotate(0) translate(4 80)">
<title>dfa</title>
<polygon fill="white" stroke="none" points="-4,4 -4,-80 351.6,-80 351.6,4 -4,4"/>
<!-- __start -->
<!-- 0 -->
<g id="node2" class="node"><title>0</title>
<ellipse fill="none" stroke="black" cx="82.6" cy="-37" rx="18" ry="18"/>
<text text-anchor="middle" x="82.6" y="-33.3" font-family="Times New Roman,serif" font-size="14.00">0</text>
</g>
<!-- __start&#45;&gt;0 -->
<g id="edge1" class="edge"><title>__start&#45;&gt;0</title>
<path fill="none" stroke="black" d="M3.68496,-37C8.69573,-37 34.008,-37 54.4423,-37"/>
<polygon fill="black" stroke="black" points="54.5501,-40.5001 64.5501,-37 54.5501,-33.5001 54.5501,-40.5001"/>
<text text-anchor="middle" x="34.1" y="-40.8" font-family="Times New Roman,serif" font-size="14.00">start</text>
</g>
<!-- 1 -->
<g id="node3" class="node"><title>1</title>
<ellipse fill="none" stroke="black" cx="245.6" cy="-45" rx="18" ry="18"/>
<ellipse fill="none" stroke="black" cx="245.6" cy="-45" rx="22" ry="22"/>
<text text-anchor="middle" x="245.6" y="-41.3" font-family="Times New Roman,serif" font-size="14.00">1</text>
</g>
<!-- 0&#45;&gt;1 -->
<g id="edge2" class="edge"><title>0&#45;&gt;1</title>
<path fill="none" stroke="black" d="M99.0067,-44.8577C105.012,-47.7029 112.022,-50.7629 118.6,-53 129.828,-56.8181 132.817,-57.658 144.6,-59 171.551,-62.0694 178.958,-62.1007 205.6,-57 208.633,-56.4193 211.764,-55.6884 214.872,-54.8753"/>
<polygon fill="black" stroke="black" points="215.93,-58.2128 224.57,-52.0811 213.992,-51.4864 215.93,-58.2128"/>
<text text-anchor="middle" x="162.6" y="-64.8" font-family="Times New Roman,serif" font-size="14.00">c</text>
</g>
<!-- 2 -->
<g id="node4" class="node"><title>2</title>
<ellipse fill="none" stroke="black" cx="162.6" cy="-32" rx="18" ry="18"/>
<text text-anchor="middle" x="162.6" y="-28.3" font-family="Times New Roman,serif" font-size="14.00">2</text>
</g>
<!-- 0&#45;&gt;2 -->
<g id="edge3" class="edge"><title>0&#45;&gt;2</title>
<path fill="none" stroke="black" d="M100.911,-35.8903C110.774,-35.2581 123.352,-34.4518 134.496,-33.7374"/>
<polygon fill="black" stroke="black" points="134.85,-37.222 144.606,-33.0894 134.403,-30.2363 134.85,-37.222"/>
<text text-anchor="middle" x="122.6" y="-37.8" font-family="Times New Roman,serif" font-size="14.00">p</text>
</g>
<!-- 3 -->
<g id="node5" class="node"><title>3</title>
<ellipse fill="none" stroke="black" cx="329.6" cy="-18" rx="18" ry="18"/>
<text text-anchor="middle" x="329.6" y="-14.3" font-family="Times New Roman,serif" font-size="14.00">3</text>
</g>
<!-- 1&#45;&gt;3 -->
<g id="edge6" class="edge"><title>1&#45;&gt;3</title>
<path fill="none" stroke="black" d="M267.441,-41.055C275.692,-39.2527 285.194,-36.8729 293.6,-34 296.99,-32.8413 300.496,-31.4659 303.92,-30.0155"/>
<polygon fill="black" stroke="black" points="305.505,-33.1404 313.19,-25.8469 302.634,-26.7563 305.505,-33.1404"/>
<text text-anchor="middle" x="289.6" y="-39.8" font-family="Times New Roman,serif" font-size="14.00">c</text>
</g>
<!-- 1&#45;&gt;3 -->
<g id="edge7" class="edge"><title>1&#45;&gt;3</title>
<path fill="none" stroke="black" d="M261.875,-29.4917C268.56,-23.7743 276.866,-17.9707 285.6,-15 290.694,-13.2673 296.32,-12.7446 301.775,-12.889"/>
<polygon fill="black" stroke="black" points="301.588,-16.3868 311.874,-13.8457 302.248,-9.41803 301.588,-16.3868"/>
<text text-anchor="middle" x="289.6" y="-18.8" font-family="Times New Roman,serif" font-size="14.00">p</text>
</g>
<!-- 2&#45;&gt;0 -->
<g id="edge5" class="edge"><title>2&#45;&gt;0</title>
<path fill="none" stroke="black" d="M147.891,-21.599C139.56,-16.5392 128.628,-12.1102 118.6,-15 114.135,-16.2869 109.689,-18.3302 105.539,-20.665"/>
<polygon fill="black" stroke="black" points="103.602,-17.7488 97.0324,-26.0611 107.352,-23.6598 103.602,-17.7488"/>
<text text-anchor="middle" x="122.6" y="-18.8" font-family="Times New Roman,serif" font-size="14.00">p</text>
</g>
<!-- 2&#45;&gt;1 -->
<g id="edge4" class="edge"><title>2&#45;&gt;1</title>
<path fill="none" stroke="black" d="M180.778,-34.757C190.378,-36.2977 202.63,-38.264 213.827,-40.0611"/>
<polygon fill="black" stroke="black" points="213.279,-43.5179 223.708,-41.6469 214.389,-36.6064 213.279,-43.5179"/>
<text text-anchor="middle" x="202.1" y="-41.8" font-family="Times New Roman,serif" font-size="14.00">c</text>
</g>
<!-- 3&#45;&gt;0 -->
<g id="edge8" class="edge"><title>3&#45;&gt;0</title>
<path fill="none" stroke="black" d="M312.014,-12.952C306.241,-11.4046 299.685,-9.87952 293.6,-9 261.803,-4.40442 179.669,-1.65857 144.6,-5 132.886,-6.11614 129.328,-5.16385 118.6,-10 113.655,-12.2295 108.772,-15.2863 104.294,-18.5437"/>
<polygon fill="black" stroke="black" points="101.943,-15.9404 96.2722,-24.8897 106.286,-21.4302 101.943,-15.9404"/>
<text text-anchor="middle" x="202.1" y="-6.8" font-family="Times New Roman,serif" font-size="14.00">c</text>
</g>
<!-- 3&#45;&gt;3 -->
<g id="edge9" class="edge"><title>3&#45;&gt;3</title>
<path fill="none" stroke="black" d="M322.569,-34.6641C321.006,-44.625 323.35,-54 329.6,-54 333.604,-54 336.005,-50.1525 336.802,-44.7682"/>
<polygon fill="black" stroke="black" points="340.3,-44.6033 336.631,-34.6641 333.301,-44.7219 340.3,-44.6033"/>
<text text-anchor="middle" x="329.6" y="-57.8" font-family="Times New Roman,serif" font-size="14.00">p</text>
</g>
</g>
</svg>
