<?xml version="1.0" encoding="UTF-8" standalone="no"?>
<!DOCTYPE svg PUBLIC "-//W3C//DTD SVG 1.1//EN"
 "http://www.w3.org/Graphics/SVG/1.1/DTD/svg11.dtd">
<!-- Generated by graphviz version 2.38.0 (20140413.2041)
 -->
<!-- Title: dfa Pages: 1 -->
<svg width="373pt" height="150pt"
 viewBox="0.00 0.00 372.60 150.00" xmlns="http://www.w3.org/2000/svg" xmlns:xlink="http://www.w3.org/1999/xlink">
<g id="graph0" class="graph" transform="scale(1 1) rotate(0) translate(4 146)">
<title>dfa</title>
<polygon fill="white" stroke="none" points="-4,4 -4,-146 368.6,-146 368.6,4 -4,4"/>
<!-- __start -->
<!-- 0 -->
<g id="node2" class="node"><title>0</title>
<ellipse fill="none" stroke="black" cx="91.6" cy="-18" rx="27" ry="18"/>
<text text-anchor="middle" x="91.6" y="-14.3" font-family="Times New Roman,serif" font-size="14.00">0</text>
</g>
<!-- __start&#45;&gt;0 -->
<g id="edge1" class="edge"><title>__start&#45;&gt;0</title>
<path fill="none" stroke="black" d="M3.78604,-18C8.86985,-18 32.7092,-18 54.1222,-18"/>
<polygon fill="black" stroke="black" points="54.3463,-21.5001 64.3463,-18 54.3463,-14.5001 54.3463,-21.5001"/>
<text text-anchor="middle" x="34.1" y="-21.8" font-family="Times New Roman,serif" font-size="14.00">start</text>
</g>
<!-- 0&#45;&gt;0 -->
<g id="edge3" class="edge"><title>0&#45;&gt;0</title>
<path fill="none" stroke="black" d="M83.0307,-35.4099C81.4311,-45.0879 84.2875,-54 91.6,-54 96.1703,-54 99,-50.5187 100.089,-45.5449"/>
<polygon fill="black" stroke="black" points="103.59,-45.4374 100.169,-35.4099 96.5901,-45.3818 103.59,-45.4374"/>
<text text-anchor="middle" x="91.6" y="-57.8" font-family="Times New Roman,serif" font-size="14.00">p</text>
</g>
<!-- 5 -->
<g id="node3" class="node"><title>5</title>
<ellipse fill="none" stroke="black" cx="183.6" cy="-58" rx="18" ry="18"/>
<ellipse fill="none" stroke="black" cx="183.6" cy="-58" rx="22" ry="22"/>
<text text-anchor="middle" x="183.6" y="-54.3" font-family="Times New Roman,serif" font-size="14.00">5</text>
</g>
<!-- 0&#45;&gt;5 -->
<g id="edge2" class="edge"><title>0&#45;&gt;5</title>
<path fill="none" stroke="black" d="M114.386,-27.6829C126.243,-32.9524 141.06,-39.5377 153.852,-45.2233"/>
<polygon fill="black" stroke="black" points="152.598,-48.496 163.158,-49.3591 155.441,-42.0993 152.598,-48.496"/>
<text text-anchor="middle" x="140.1" y="-43.8" font-family="Times New Roman,serif" font-size="14.00">c</text>
</g>
<!-- 2 -->
<g id="node4" class="node"><title>2</title>
<ellipse fill="none" stroke="black" cx="267.6" cy="-91" rx="18" ry="18"/>
<text text-anchor="middle" x="267.6" y="-87.3" font-family="Times New Roman,serif" font-size="14.00">2</text>
</g>
<!-- 5&#45;&gt;2 -->
<g id="edge8" class="edge"><title>5&#45;&gt;2</title>
<path fill="none" stroke="black" d="M199.495,-73.4859C206.239,-79.4632 214.693,-85.6569 223.6,-89 228.419,-90.8086 233.758,-91.7888 238.987,-92.2555"/>
<polygon fill="black" stroke="black" points="239.259,-95.766 249.367,-92.5928 239.486,-88.7697 239.259,-95.766"/>
<text text-anchor="middle" x="227.6" y="-94.8" font-family="Times New Roman,serif" font-size="14.00">c</text>
</g>
<!-- 5&#45;&gt;2 -->
<g id="edge9" class="edge"><title>5&#45;&gt;2</title>
<path fill="none" stroke="black" d="M205.613,-61.9919C213.887,-63.9152 223.361,-66.5633 231.6,-70 235.647,-71.688 239.782,-73.7869 243.726,-75.9993"/>
<polygon fill="black" stroke="black" points="242.076,-79.0905 252.453,-81.228 245.674,-73.0858 242.076,-79.0905"/>
<text text-anchor="middle" x="227.6" y="-73.8" font-family="Times New Roman,serif" font-size="14.00">p</text>
</g>
<!-- 2&#45;&gt;2 -->
<g id="edge5" class="edge"><title>2&#45;&gt;2</title>
<path fill="none" stroke="black" d="M260.866,-108.037C259.492,-117.858 261.737,-127 267.6,-127 271.265,-127 273.516,-123.429 274.353,-118.353"/>
<polygon fill="black" stroke="black" points="277.852,-118.031 274.334,-108.037 270.852,-118.044 277.852,-118.031"/>
<text text-anchor="middle" x="267.6" y="-130.8" font-family="Times New Roman,serif" font-size="14.00">p</text>
</g>
<!-- 3 -->
<g id="node5" class="node"><title>3</title>
<ellipse fill="none" stroke="black" cx="346.6" cy="-40" rx="18" ry="18"/>
<text text-anchor="middle" x="346.6" y="-36.3" font-family="Times New Roman,serif" font-size="14.00">3</text>
</g>
<!-- 2&#45;&gt;3 -->
<g id="edge4" class="edge"><title>2&#45;&gt;3</title>
<path fill="none" stroke="black" d="M283.083,-81.4073C294.268,-73.9989 309.956,-63.6081 322.819,-55.0889"/>
<polygon fill="black" stroke="black" points="324.777,-57.9897 331.182,-49.5497 320.912,-52.1537 324.777,-57.9897"/>
<text text-anchor="middle" x="307.1" y="-70.8" font-family="Times New Roman,serif" font-size="14.00">c</text>
</g>
<!-- 3&#45;&gt;0 -->
<g id="edge7" class="edge"><title>3&#45;&gt;0</title>
<path fill="none" stroke="black" d="M328.364,-38.3262C301.95,-35.7776 249.862,-30.8175 205.6,-27 179.871,-24.781 150.83,-22.4722 128.631,-20.7487"/>
<polygon fill="black" stroke="black" points="128.879,-17.2575 118.64,-19.9765 128.34,-24.2367 128.879,-17.2575"/>
<text text-anchor="middle" x="227.6" y="-32.8" font-family="Times New Roman,serif" font-size="14.00">p</text>
</g>
<!-- 3&#45;&gt;5 -->
<g id="edge6" class="edge"><title>3&#45;&gt;5</title>
<path fill="none" stroke="black" d="M328.582,-41.3672C309.373,-42.9635 277.203,-45.7967 249.6,-49 238.566,-50.2804 226.509,-51.891 215.808,-53.3945"/>
<polygon fill="black" stroke="black" points="215.051,-49.967 205.647,-54.8462 216.041,-56.8966 215.051,-49.967"/>
<text text-anchor="middle" x="267.6" y="-52.8" font-family="Times New Roman,serif" font-size="14.00">c</text>
</g>
</g>
</svg>
