<?xml version="1.0" encoding="UTF-8" standalone="no"?>
<!DOCTYPE svg PUBLIC "-//W3C//DTD SVG 1.1//EN"
 "http://www.w3.org/Graphics/SVG/1.1/DTD/svg11.dtd">
<!-- Generated by graphviz version 2.38.0 (20140413.2041)
 -->
<!-- Title: dfa Pages: 1 -->
<svg width="355pt" height="150pt"
 viewBox="0.00 0.00 354.60 150.00" xmlns="http://www.w3.org/2000/svg" xmlns:xlink="http://www.w3.org/1999/xlink">
<g id="graph0" class="graph" transform="scale(1 1) rotate(0) translate(4 146)">
<title>dfa</title>
<polygon fill="white" stroke="none" points="-4,4 -4,-146 350.6,-146 350.6,4 -4,4"/>
<!-- __start -->
<!-- 0 -->
<g id="node2" class="node"><title>0</title>
<ellipse fill="none" stroke="black" cx="82.6" cy="-18" rx="18" ry="18"/>
<text text-anchor="middle" x="82.6" y="-14.3" font-family="Times New Roman,serif" font-size="14.00">0</text>
</g>
<!-- __start&#45;&gt;0 -->
<g id="edge1" class="edge"><title>__start&#45;&gt;0</title>
<path fill="none" stroke="black" d="M3.68496,-18C8.69573,-18 34.008,-18 54.4423,-18"/>
<polygon fill="black" stroke="black" points="54.5501,-21.5001 64.5501,-18 54.5501,-14.5001 54.5501,-21.5001"/>
<text text-anchor="middle" x="34.1" y="-21.8" font-family="Times New Roman,serif" font-size="14.00">start</text>
</g>
<!-- 0&#45;&gt;0 -->
<g id="edge3" class="edge"><title>0&#45;&gt;0</title>
<path fill="none" stroke="black" d="M75.8664,-35.0373C74.4922,-44.8579 76.7367,-54 82.6,-54 86.2646,-54 88.5155,-50.4289 89.3529,-45.3529"/>
<polygon fill="black" stroke="black" points="92.8524,-45.0307 89.3336,-35.0373 85.8524,-45.0439 92.8524,-45.0307"/>
<text text-anchor="middle" x="82.6" y="-57.8" font-family="Times New Roman,serif" font-size="14.00">p</text>
</g>
<!-- 5 -->
<g id="node3" class="node"><title>5</title>
<ellipse fill="none" stroke="black" cx="165.6" cy="-58" rx="18" ry="18"/>
<ellipse fill="none" stroke="black" cx="165.6" cy="-58" rx="22" ry="22"/>
<text text-anchor="middle" x="165.6" y="-54.3" font-family="Times New Roman,serif" font-size="14.00">5</text>
</g>
<!-- 0&#45;&gt;5 -->
<g id="edge2" class="edge"><title>0&#45;&gt;5</title>
<path fill="none" stroke="black" d="M99.2176,-25.7124C109.768,-30.9226 123.997,-37.9492 136.487,-44.1169"/>
<polygon fill="black" stroke="black" points="135.093,-47.3321 145.609,-48.6218 138.193,-41.0557 135.093,-47.3321"/>
<text text-anchor="middle" x="122.1" y="-41.8" font-family="Times New Roman,serif" font-size="14.00">c</text>
</g>
<!-- 2 -->
<g id="node4" class="node"><title>2</title>
<ellipse fill="none" stroke="black" cx="249.6" cy="-91" rx="18" ry="18"/>
<text text-anchor="middle" x="249.6" y="-87.3" font-family="Times New Roman,serif" font-size="14.00">2</text>
</g>
<!-- 5&#45;&gt;2 -->
<g id="edge8" class="edge"><title>5&#45;&gt;2</title>
<path fill="none" stroke="black" d="M181.495,-73.4859C188.239,-79.4632 196.693,-85.6569 205.6,-89 210.419,-90.8086 215.758,-91.7888 220.987,-92.2555"/>
<polygon fill="black" stroke="black" points="221.259,-95.766 231.367,-92.5928 221.486,-88.7697 221.259,-95.766"/>
<text text-anchor="middle" x="209.6" y="-94.8" font-family="Times New Roman,serif" font-size="14.00">c</text>
</g>
<!-- 5&#45;&gt;2 -->
<g id="edge9" class="edge"><title>5&#45;&gt;2</title>
<path fill="none" stroke="black" d="M187.613,-61.9919C195.887,-63.9152 205.361,-66.5633 213.6,-70 217.647,-71.688 221.782,-73.7869 225.726,-75.9993"/>
<polygon fill="black" stroke="black" points="224.076,-79.0905 234.453,-81.228 227.674,-73.0858 224.076,-79.0905"/>
<text text-anchor="middle" x="209.6" y="-73.8" font-family="Times New Roman,serif" font-size="14.00">p</text>
</g>
<!-- 2&#45;&gt;2 -->
<g id="edge5" class="edge"><title>2&#45;&gt;2</title>
<path fill="none" stroke="black" d="M242.866,-108.037C241.492,-117.858 243.737,-127 249.6,-127 253.265,-127 255.516,-123.429 256.353,-118.353"/>
<polygon fill="black" stroke="black" points="259.852,-118.031 256.334,-108.037 252.852,-118.044 259.852,-118.031"/>
<text text-anchor="middle" x="249.6" y="-130.8" font-family="Times New Roman,serif" font-size="14.00">p</text>
</g>
<!-- 3 -->
<g id="node5" class="node"><title>3</title>
<ellipse fill="none" stroke="black" cx="328.6" cy="-40" rx="18" ry="18"/>
<text text-anchor="middle" x="328.6" y="-36.3" font-family="Times New Roman,serif" font-size="14.00">3</text>
</g>
<!-- 2&#45;&gt;3 -->
<g id="edge4" class="edge"><title>2&#45;&gt;3</title>
<path fill="none" stroke="black" d="M265.083,-81.4073C276.268,-73.9989 291.956,-63.6081 304.819,-55.0889"/>
<polygon fill="black" stroke="black" points="306.777,-57.9897 313.182,-49.5497 302.912,-52.1537 306.777,-57.9897"/>
<text text-anchor="middle" x="289.1" y="-70.8" font-family="Times New Roman,serif" font-size="14.00">c</text>
</g>
<!-- 3&#45;&gt;0 -->
<g id="edge7" class="edge"><title>3&#45;&gt;0</title>
<path fill="none" stroke="black" d="M310.361,-38.3642C283.942,-35.8652 231.849,-30.969 187.6,-27 161.623,-24.6699 131.985,-22.1154 111.013,-20.3251"/>
<polygon fill="black" stroke="black" points="111.162,-16.8252 100.901,-19.4638 110.567,-23.7999 111.162,-16.8252"/>
<text text-anchor="middle" x="209.6" y="-32.8" font-family="Times New Roman,serif" font-size="14.00">p</text>
</g>
<!-- 3&#45;&gt;5 -->
<g id="edge6" class="edge"><title>3&#45;&gt;5</title>
<path fill="none" stroke="black" d="M310.582,-41.3672C291.373,-42.9635 259.203,-45.7967 231.6,-49 220.566,-50.2804 208.509,-51.891 197.808,-53.3945"/>
<polygon fill="black" stroke="black" points="197.051,-49.967 187.647,-54.8462 198.041,-56.8966 197.051,-49.967"/>
<text text-anchor="middle" x="249.6" y="-52.8" font-family="Times New Roman,serif" font-size="14.00">c</text>
</g>
</g>
</svg>
