<?xml version="1.0" encoding="UTF-8" standalone="no"?>
<!DOCTYPE svg PUBLIC "-//W3C//DTD SVG 1.1//EN"
 "http://www.w3.org/Graphics/SVG/1.1/DTD/svg11.dtd">
<!-- Generated by graphviz version 2.38.0 (20140413.2041)
 -->
<!-- Title: dfa Pages: 1 -->
<svg width="374pt" height="84pt"
 viewBox="0.00 0.00 373.60 84.00" xmlns="http://www.w3.org/2000/svg" xmlns:xlink="http://www.w3.org/1999/xlink">
<g id="graph0" class="graph" transform="scale(1 1) rotate(0) translate(4 80)">
<title>dfa</title>
<polygon fill="white" stroke="none" points="-4,4 -4,-80 369.6,-80 369.6,4 -4,4"/>
<!-- __start -->
<!-- 0 -->
<g id="node2" class="node"><title>0</title>
<ellipse fill="none" stroke="black" cx="91.6" cy="-37" rx="27" ry="18"/>
<text text-anchor="middle" x="91.6" y="-33.3" font-family="Times New Roman,serif" font-size="14.00">0</text>
</g>
<!-- __start&#45;&gt;0 -->
<g id="edge1" class="edge"><title>__start&#45;&gt;0</title>
<path fill="none" stroke="black" d="M3.78604,-37C8.86985,-37 32.7092,-37 54.1222,-37"/>
<polygon fill="black" stroke="black" points="54.3463,-40.5001 64.3463,-37 54.3463,-33.5001 54.3463,-40.5001"/>
<text text-anchor="middle" x="34.1" y="-40.8" font-family="Times New Roman,serif" font-size="14.00">start</text>
</g>
<!-- 1 -->
<g id="node3" class="node"><title>1</title>
<ellipse fill="none" stroke="black" cx="263.6" cy="-45" rx="18" ry="18"/>
<ellipse fill="none" stroke="black" cx="263.6" cy="-45" rx="22" ry="22"/>
<text text-anchor="middle" x="263.6" y="-41.3" font-family="Times New Roman,serif" font-size="14.00">1</text>
</g>
<!-- 0&#45;&gt;1 -->
<g id="edge2" class="edge"><title>0&#45;&gt;1</title>
<path fill="none" stroke="black" d="M115.261,-45.8387C122.065,-48.3297 129.585,-50.9237 136.6,-53 173.716,-63.9863 185.583,-64.2785 223.6,-57 226.633,-56.4193 229.764,-55.6884 232.872,-54.8753"/>
<polygon fill="black" stroke="black" points="233.93,-58.2128 242.57,-52.0811 231.992,-51.4864 233.93,-58.2128"/>
<text text-anchor="middle" x="180.6" y="-64.8" font-family="Times New Roman,serif" font-size="14.00">c</text>
</g>
<!-- 2 -->
<g id="node4" class="node"><title>2</title>
<ellipse fill="none" stroke="black" cx="180.6" cy="-32" rx="18" ry="18"/>
<text text-anchor="middle" x="180.6" y="-28.3" font-family="Times New Roman,serif" font-size="14.00">2</text>
</g>
<!-- 0&#45;&gt;2 -->
<g id="edge3" class="edge"><title>0&#45;&gt;2</title>
<path fill="none" stroke="black" d="M118.703,-35.4998C129.364,-34.8871 141.694,-34.1785 152.459,-33.5598"/>
<polygon fill="black" stroke="black" points="152.801,-37.0461 162.583,-32.978 152.399,-30.0576 152.801,-37.0461"/>
<text text-anchor="middle" x="140.6" y="-37.8" font-family="Times New Roman,serif" font-size="14.00">p</text>
</g>
<!-- 3 -->
<g id="node5" class="node"><title>3</title>
<ellipse fill="none" stroke="black" cx="347.6" cy="-18" rx="18" ry="18"/>
<text text-anchor="middle" x="347.6" y="-14.3" font-family="Times New Roman,serif" font-size="14.00">3</text>
</g>
<!-- 1&#45;&gt;3 -->
<g id="edge6" class="edge"><title>1&#45;&gt;3</title>
<path fill="none" stroke="black" d="M285.441,-41.055C293.692,-39.2527 303.194,-36.8729 311.6,-34 314.99,-32.8413 318.496,-31.4659 321.92,-30.0155"/>
<polygon fill="black" stroke="black" points="323.505,-33.1404 331.19,-25.8469 320.634,-26.7563 323.505,-33.1404"/>
<text text-anchor="middle" x="307.6" y="-39.8" font-family="Times New Roman,serif" font-size="14.00">c</text>
</g>
<!-- 1&#45;&gt;3 -->
<g id="edge7" class="edge"><title>1&#45;&gt;3</title>
<path fill="none" stroke="black" d="M279.875,-29.4917C286.56,-23.7743 294.866,-17.9707 303.6,-15 308.694,-13.2673 314.32,-12.7446 319.775,-12.889"/>
<polygon fill="black" stroke="black" points="319.588,-16.3868 329.874,-13.8457 320.248,-9.41803 319.588,-16.3868"/>
<text text-anchor="middle" x="307.6" y="-18.8" font-family="Times New Roman,serif" font-size="14.00">p</text>
</g>
<!-- 2&#45;&gt;0 -->
<g id="edge5" class="edge"><title>2&#45;&gt;0</title>
<path fill="none" stroke="black" d="M165.6,-21.7294C157.35,-16.8892 146.6,-12.6392 136.6,-15 131.434,-16.2196 126.182,-18.1439 121.191,-20.3588"/>
<polygon fill="black" stroke="black" points="119.441,-17.319 112.007,-24.8674 122.526,-23.6027 119.441,-17.319"/>
<text text-anchor="middle" x="140.6" y="-18.8" font-family="Times New Roman,serif" font-size="14.00">p</text>
</g>
<!-- 2&#45;&gt;1 -->
<g id="edge4" class="edge"><title>2&#45;&gt;1</title>
<path fill="none" stroke="black" d="M198.778,-34.757C208.378,-36.2977 220.63,-38.264 231.827,-40.0611"/>
<polygon fill="black" stroke="black" points="231.279,-43.5179 241.708,-41.6469 232.389,-36.6064 231.279,-43.5179"/>
<text text-anchor="middle" x="220.1" y="-41.8" font-family="Times New Roman,serif" font-size="14.00">c</text>
</g>
<!-- 3&#45;&gt;0 -->
<g id="edge8" class="edge"><title>3&#45;&gt;0</title>
<path fill="none" stroke="black" d="M330.014,-12.952C324.241,-11.4046 317.685,-9.87952 311.6,-9 279.803,-4.40442 197.669,-1.65857 162.6,-5 150.886,-6.11614 147.57,-5.74271 136.6,-10 130.819,-12.2434 124.949,-15.2464 119.46,-18.4344"/>
<polygon fill="black" stroke="black" points="117.33,-15.6364 110.666,-23.873 121.012,-21.5899 117.33,-15.6364"/>
<text text-anchor="middle" x="220.1" y="-6.8" font-family="Times New Roman,serif" font-size="14.00">c</text>
</g>
<!-- 3&#45;&gt;3 -->
<g id="edge9" class="edge"><title>3&#45;&gt;3</title>
<path fill="none" stroke="black" d="M340.569,-34.6641C339.006,-44.625 341.35,-54 347.6,-54 351.604,-54 354.005,-50.1525 354.802,-44.7682"/>
<polygon fill="black" stroke="black" points="358.3,-44.6033 354.631,-34.6641 351.301,-44.7219 358.3,-44.6033"/>
<text text-anchor="middle" x="347.6" y="-57.8" font-family="Times New Roman,serif" font-size="14.00">p</text>
</g>
</g>
</svg>
