<?xml version="1.0" encoding="UTF-8" standalone="no"?>
<!DOCTYPE svg PUBLIC "-//W3C//DTD SVG 1.1//EN"
 "http://www.w3.org/Graphics/SVG/1.1/DTD/svg11.dtd">
<!-- Generated by graphviz version 2.38.0 (20140413.2041)
 -->
<!-- Title: dfa Pages: 1 -->
<svg width="302pt" height="92pt"
 viewBox="0.00 0.00 301.60 92.00" xmlns="http://www.w3.org/2000/svg" xmlns:xlink="http://www.w3.org/1999/xlink">
<g id="graph0" class="graph" transform="scale(1 1) rotate(0) translate(4 88)">
<title>dfa</title>
<polygon fill="white" stroke="none" points="-4,4 -4,-88 297.6,-88 297.6,4 -4,4"/>
<!-- __start -->
<!-- 0 -->
<g id="node2" class="node"><title>0</title>
<ellipse fill="none" stroke="black" cx="91.6" cy="-33" rx="27" ry="18"/>
<text text-anchor="middle" x="91.6" y="-29.3" font-family="Times New Roman,serif" font-size="14.00">0</text>
</g>
<!-- __start&#45;&gt;0 -->
<g id="edge1" class="edge"><title>__start&#45;&gt;0</title>
<path fill="none" stroke="black" d="M3.78604,-33C8.86985,-33 32.7092,-33 54.1222,-33"/>
<polygon fill="black" stroke="black" points="54.3463,-36.5001 64.3463,-33 54.3463,-29.5001 54.3463,-36.5001"/>
<text text-anchor="middle" x="34.1" y="-36.8" font-family="Times New Roman,serif" font-size="14.00">start</text>
</g>
<!-- 0&#45;&gt;0 -->
<g id="edge2" class="edge"><title>0&#45;&gt;0</title>
<path fill="none" stroke="black" d="M83.0307,-50.4099C81.4311,-60.0879 84.2875,-69 91.6,-69 96.1703,-69 99,-65.5187 100.089,-60.5449"/>
<polygon fill="black" stroke="black" points="103.59,-60.4374 100.169,-50.4099 96.5901,-60.3818 103.59,-60.4374"/>
<text text-anchor="middle" x="91.6" y="-72.8" font-family="Times New Roman,serif" font-size="14.00">x</text>
</g>
<!-- 1 -->
<g id="node3" class="node"><title>1</title>
<ellipse fill="none" stroke="black" cx="184.6" cy="-55" rx="18" ry="18"/>
<ellipse fill="none" stroke="black" cx="184.6" cy="-55" rx="22" ry="22"/>
<text text-anchor="middle" x="184.6" y="-51.3" font-family="Times New Roman,serif" font-size="14.00">1</text>
</g>
<!-- 0&#45;&gt;1 -->
<g id="edge3" class="edge"><title>0&#45;&gt;1</title>
<path fill="none" stroke="black" d="M115.141,-42.2834C121.942,-44.7869 129.491,-47.2762 136.6,-49 141.666,-50.2284 147.105,-51.2163 152.42,-52.0075"/>
<polygon fill="black" stroke="black" points="151.994,-55.4814 162.361,-53.2981 152.895,-48.5397 151.994,-55.4814"/>
<text text-anchor="middle" x="140.6" y="-53.8" font-family="Times New Roman,serif" font-size="14.00">d</text>
</g>
<!-- 1&#45;&gt;0 -->
<g id="edge5" class="edge"><title>1&#45;&gt;0</title>
<path fill="none" stroke="black" d="M167.169,-41.5129C160.568,-36.9188 152.627,-32.3518 144.6,-30 139.285,-28.4426 133.536,-27.8022 127.866,-27.7292"/>
<polygon fill="black" stroke="black" points="127.705,-24.2327 117.855,-28.1348 127.988,-31.227 127.705,-24.2327"/>
<text text-anchor="middle" x="140.6" y="-33.8" font-family="Times New Roman,serif" font-size="14.00">d</text>
</g>
<!-- 2 -->
<g id="node4" class="node"><title>2</title>
<ellipse fill="none" stroke="black" cx="271.6" cy="-22" rx="18" ry="18"/>
<ellipse fill="none" stroke="black" cx="271.6" cy="-22" rx="22" ry="22"/>
<text text-anchor="middle" x="271.6" y="-18.3" font-family="Times New Roman,serif" font-size="14.00">2</text>
</g>
<!-- 1&#45;&gt;2 -->
<g id="edge4" class="edge"><title>1&#45;&gt;2</title>
<path fill="none" stroke="black" d="M205.314,-47.3462C215.966,-43.2109 229.328,-38.0231 241.185,-33.4199"/>
<polygon fill="black" stroke="black" points="242.643,-36.6086 250.698,-29.7266 240.109,-30.0831 242.643,-36.6086"/>
<text text-anchor="middle" x="228.1" y="-42.8" font-family="Times New Roman,serif" font-size="14.00">x</text>
</g>
<!-- 2&#45;&gt;0 -->
<g id="edge7" class="edge"><title>2&#45;&gt;0</title>
<path fill="none" stroke="black" d="M250.218,-16.0959C228.446,-10.5934 192.964,-3.93929 162.6,-9 149.631,-11.1616 135.843,-15.4306 123.965,-19.7766"/>
<polygon fill="black" stroke="black" points="122.584,-16.5574 114.496,-23.4008 125.086,-23.095 122.584,-16.5574"/>
<text text-anchor="middle" x="184.6" y="-12.8" font-family="Times New Roman,serif" font-size="14.00">d</text>
</g>
<!-- 2&#45;&gt;2 -->
<g id="edge6" class="edge"><title>2&#45;&gt;2</title>
<path fill="none" stroke="black" d="M263.917,-42.9908C262.969,-53.0872 265.53,-62 271.6,-62 275.489,-62 277.937,-58.3422 278.946,-53.0587"/>
<polygon fill="black" stroke="black" points="282.446,-53.1023 279.283,-42.9908 275.45,-52.868 282.446,-53.1023"/>
<text text-anchor="middle" x="271.6" y="-65.8" font-family="Times New Roman,serif" font-size="14.00">x</text>
</g>
</g>
</svg>
