<?xml version="1.0" encoding="UTF-8" standalone="no"?>
<!DOCTYPE svg PUBLIC "-//W3C//DTD SVG 1.1//EN"
 "http://www.w3.org/Graphics/SVG/1.1/DTD/svg11.dtd">
<!-- Generated by graphviz version 2.38.0 (20140413.2041)
 -->
<!-- Title: dfa Pages: 1 -->
<svg width="277pt" height="114pt"
 viewBox="0.00 0.00 276.60 114.00" xmlns="http://www.w3.org/2000/svg" xmlns:xlink="http://www.w3.org/1999/xlink">
<g id="graph0" class="graph" transform="scale(1 1) rotate(0) translate(4 110)">
<title>dfa</title>
<polygon fill="white" stroke="none" points="-4,4 -4,-110 272.6,-110 272.6,4 -4,4"/>
<!-- __start -->
<!-- 0 -->
<g id="node2" class="node"><title>0</title>
<ellipse fill="none" stroke="black" cx="82.6" cy="-18" rx="18" ry="18"/>
<text text-anchor="middle" x="82.6" y="-14.3" font-family="Times New Roman,serif" font-size="14.00">0</text>
</g>
<!-- __start&#45;&gt;0 -->
<g id="edge1" class="edge"><title>__start&#45;&gt;0</title>
<path fill="none" stroke="black" d="M3.68496,-18C8.69573,-18 34.008,-18 54.4423,-18"/>
<polygon fill="black" stroke="black" points="54.5501,-21.5001 64.5501,-18 54.5501,-14.5001 54.5501,-21.5001"/>
<text text-anchor="middle" x="34.1" y="-21.8" font-family="Times New Roman,serif" font-size="14.00">start</text>
</g>
<!-- 1 -->
<g id="node3" class="node"><title>1</title>
<ellipse fill="none" stroke="black" cx="166.6" cy="-51" rx="18" ry="18"/>
<ellipse fill="none" stroke="black" cx="166.6" cy="-51" rx="22" ry="22"/>
<text text-anchor="middle" x="166.6" y="-47.3" font-family="Times New Roman,serif" font-size="14.00">1</text>
</g>
<!-- 0&#45;&gt;1 -->
<g id="edge5" class="edge"><title>0&#45;&gt;1</title>
<path fill="none" stroke="black" d="M99.8006,-24.5197C110.26,-28.729 124.169,-34.3264 136.503,-39.2904"/>
<polygon fill="black" stroke="black" points="135.379,-42.6105 145.962,-43.097 137.992,-36.1166 135.379,-42.6105"/>
<text text-anchor="middle" x="122.6" y="-37.8" font-family="Times New Roman,serif" font-size="14.00">d</text>
</g>
<!-- 2 -->
<g id="node4" class="node"><title>2</title>
<ellipse fill="none" stroke="black" cx="250.6" cy="-29" rx="18" ry="18"/>
<text text-anchor="middle" x="250.6" y="-25.3" font-family="Times New Roman,serif" font-size="14.00">2</text>
</g>
<!-- 0&#45;&gt;2 -->
<g id="edge4" class="edge"><title>0&#45;&gt;2</title>
<path fill="none" stroke="black" d="M100.07,-12.8182C120.831,-7.00528 157.56,0.886672 188.6,-5 200.927,-7.33781 213.95,-12.1133 224.784,-16.7933"/>
<polygon fill="black" stroke="black" points="223.482,-20.0459 234.034,-20.9916 226.375,-13.6717 223.482,-20.0459"/>
<text text-anchor="middle" x="166.6" y="-8.8" font-family="Times New Roman,serif" font-size="14.00">x</text>
</g>
<!-- 1&#45;&gt;1 -->
<g id="edge6" class="edge"><title>1&#45;&gt;1</title>
<path fill="none" stroke="black" d="M158.594,-71.5808C157.486,-81.8447 160.155,-91 166.6,-91 170.729,-91 173.308,-87.2427 174.337,-81.8436"/>
<polygon fill="black" stroke="black" points="177.843,-81.6691 174.606,-71.5808 170.845,-81.4857 177.843,-81.6691"/>
<text text-anchor="middle" x="166.6" y="-94.8" font-family="Times New Roman,serif" font-size="14.00">x</text>
</g>
<!-- 1&#45;&gt;2 -->
<g id="edge7" class="edge"><title>1&#45;&gt;2</title>
<path fill="none" stroke="black" d="M188.931,-49.6481C197.074,-48.777 206.373,-47.3467 214.6,-45 218.045,-44.0172 221.583,-42.7441 225.023,-41.3454"/>
<polygon fill="black" stroke="black" points="226.595,-44.4768 234.303,-37.2078 223.744,-38.0836 226.595,-44.4768"/>
<text text-anchor="middle" x="210.6" y="-49.8" font-family="Times New Roman,serif" font-size="14.00">d</text>
</g>
<!-- 2&#45;&gt;1 -->
<g id="edge3" class="edge"><title>2&#45;&gt;1</title>
<path fill="none" stroke="black" d="M232.599,-27.5827C224.588,-27.3719 214.974,-27.7849 206.6,-30 202.616,-31.0539 198.59,-32.587 194.716,-34.3523"/>
<polygon fill="black" stroke="black" points="192.804,-31.3994 185.504,-39.0785 195.999,-37.6275 192.804,-31.3994"/>
<text text-anchor="middle" x="210.6" y="-33.8" font-family="Times New Roman,serif" font-size="14.00">d</text>
</g>
<!-- 2&#45;&gt;2 -->
<g id="edge2" class="edge"><title>2&#45;&gt;2</title>
<path fill="none" stroke="black" d="M243.569,-45.6641C242.006,-55.625 244.35,-65 250.6,-65 254.604,-65 257.005,-61.1525 257.802,-55.7682"/>
<polygon fill="black" stroke="black" points="261.3,-55.6033 257.631,-45.6641 254.301,-55.7219 261.3,-55.6033"/>
<text text-anchor="middle" x="250.6" y="-68.8" font-family="Times New Roman,serif" font-size="14.00">x</text>
</g>
</g>
</svg>
