<?xml version="1.0" encoding="UTF-8" standalone="no"?>
<!DOCTYPE svg PUBLIC "-//W3C//DTD SVG 1.1//EN"
 "http://www.w3.org/Graphics/SVG/1.1/DTD/svg11.dtd">
<!-- Generated by graphviz version 2.38.0 (20140413.2041)
 -->
<!-- Title: dfa Pages: 1 -->
<svg width="295pt" height="114pt"
 viewBox="0.00 0.00 294.60 114.00" xmlns="http://www.w3.org/2000/svg" xmlns:xlink="http://www.w3.org/1999/xlink">
<g id="graph0" class="graph" transform="scale(1 1) rotate(0) translate(4 110)">
<title>dfa</title>
<polygon fill="white" stroke="none" points="-4,4 -4,-110 290.6,-110 290.6,4 -4,4"/>
<!-- __start -->
<!-- 0 -->
<g id="node2" class="node"><title>0</title>
<ellipse fill="none" stroke="black" cx="91.6" cy="-18" rx="27" ry="18"/>
<text text-anchor="middle" x="91.6" y="-14.3" font-family="Times New Roman,serif" font-size="14.00">0</text>
</g>
<!-- __start&#45;&gt;0 -->
<g id="edge1" class="edge"><title>__start&#45;&gt;0</title>
<path fill="none" stroke="black" d="M3.78604,-18C8.86985,-18 32.7092,-18 54.1222,-18"/>
<polygon fill="black" stroke="black" points="54.3463,-21.5001 64.3463,-18 54.3463,-14.5001 54.3463,-21.5001"/>
<text text-anchor="middle" x="34.1" y="-21.8" font-family="Times New Roman,serif" font-size="14.00">start</text>
</g>
<!-- 1 -->
<g id="node3" class="node"><title>1</title>
<ellipse fill="none" stroke="black" cx="184.6" cy="-51" rx="18" ry="18"/>
<ellipse fill="none" stroke="black" cx="184.6" cy="-51" rx="22" ry="22"/>
<text text-anchor="middle" x="184.6" y="-47.3" font-family="Times New Roman,serif" font-size="14.00">1</text>
</g>
<!-- 0&#45;&gt;1 -->
<g id="edge5" class="edge"><title>0&#45;&gt;1</title>
<path fill="none" stroke="black" d="M115.563,-26.3273C127.279,-30.5759 141.662,-35.7918 154.181,-40.3317"/>
<polygon fill="black" stroke="black" points="153.141,-43.6774 163.735,-43.7962 155.527,-37.0967 153.141,-43.6774"/>
<text text-anchor="middle" x="140.6" y="-39.8" font-family="Times New Roman,serif" font-size="14.00">d</text>
</g>
<!-- 2 -->
<g id="node4" class="node"><title>2</title>
<ellipse fill="none" stroke="black" cx="268.6" cy="-29" rx="18" ry="18"/>
<text text-anchor="middle" x="268.6" y="-25.3" font-family="Times New Roman,serif" font-size="14.00">2</text>
</g>
<!-- 0&#45;&gt;2 -->
<g id="edge4" class="edge"><title>0&#45;&gt;2</title>
<path fill="none" stroke="black" d="M116.775,-11.0568C139.958,-5.38252 175.873,0.827186 206.6,-5 218.927,-7.33781 231.95,-12.1133 242.784,-16.7933"/>
<polygon fill="black" stroke="black" points="241.482,-20.0459 252.034,-20.9916 244.375,-13.6717 241.482,-20.0459"/>
<text text-anchor="middle" x="184.6" y="-8.8" font-family="Times New Roman,serif" font-size="14.00">x</text>
</g>
<!-- 1&#45;&gt;1 -->
<g id="edge6" class="edge"><title>1&#45;&gt;1</title>
<path fill="none" stroke="black" d="M176.594,-71.5808C175.486,-81.8447 178.155,-91 184.6,-91 188.729,-91 191.308,-87.2427 192.337,-81.8436"/>
<polygon fill="black" stroke="black" points="195.843,-81.6691 192.606,-71.5808 188.845,-81.4857 195.843,-81.6691"/>
<text text-anchor="middle" x="184.6" y="-94.8" font-family="Times New Roman,serif" font-size="14.00">x</text>
</g>
<!-- 1&#45;&gt;2 -->
<g id="edge7" class="edge"><title>1&#45;&gt;2</title>
<path fill="none" stroke="black" d="M206.931,-49.6481C215.074,-48.777 224.373,-47.3467 232.6,-45 236.045,-44.0172 239.583,-42.7441 243.023,-41.3454"/>
<polygon fill="black" stroke="black" points="244.595,-44.4768 252.303,-37.2078 241.744,-38.0836 244.595,-44.4768"/>
<text text-anchor="middle" x="228.6" y="-49.8" font-family="Times New Roman,serif" font-size="14.00">d</text>
</g>
<!-- 2&#45;&gt;1 -->
<g id="edge3" class="edge"><title>2&#45;&gt;1</title>
<path fill="none" stroke="black" d="M250.599,-27.5827C242.588,-27.3719 232.974,-27.7849 224.6,-30 220.616,-31.0539 216.59,-32.587 212.716,-34.3523"/>
<polygon fill="black" stroke="black" points="210.804,-31.3994 203.504,-39.0785 213.999,-37.6275 210.804,-31.3994"/>
<text text-anchor="middle" x="228.6" y="-33.8" font-family="Times New Roman,serif" font-size="14.00">d</text>
</g>
<!-- 2&#45;&gt;2 -->
<g id="edge2" class="edge"><title>2&#45;&gt;2</title>
<path fill="none" stroke="black" d="M261.569,-45.6641C260.006,-55.625 262.35,-65 268.6,-65 272.604,-65 275.005,-61.1525 275.802,-55.7682"/>
<polygon fill="black" stroke="black" points="279.3,-55.6033 275.631,-45.6641 272.301,-55.7219 279.3,-55.6033"/>
<text text-anchor="middle" x="268.6" y="-68.8" font-family="Times New Roman,serif" font-size="14.00">x</text>
</g>
</g>
</svg>
