<?xml version="1.0" encoding="UTF-8" standalone="no"?>
<!DOCTYPE svg PUBLIC "-//W3C//DTD SVG 1.1//EN"
 "http://www.w3.org/Graphics/SVG/1.1/DTD/svg11.dtd">
<!-- Generated by graphviz version 2.38.0 (20140413.2041)
 -->
<!-- Title: dfa Pages: 1 -->
<svg width="284pt" height="92pt"
 viewBox="0.00 0.00 283.60 92.00" xmlns="http://www.w3.org/2000/svg" xmlns:xlink="http://www.w3.org/1999/xlink">
<g id="graph0" class="graph" transform="scale(1 1) rotate(0) translate(4 88)">
<title>dfa</title>
<polygon fill="white" stroke="none" points="-4,4 -4,-88 279.6,-88 279.6,4 -4,4"/>
<!-- __start -->
<!-- 0 -->
<g id="node2" class="node"><title>0</title>
<ellipse fill="none" stroke="black" cx="82.6" cy="-33" rx="18" ry="18"/>
<text text-anchor="middle" x="82.6" y="-29.3" font-family="Times New Roman,serif" font-size="14.00">0</text>
</g>
<!-- __start&#45;&gt;0 -->
<g id="edge1" class="edge"><title>__start&#45;&gt;0</title>
<path fill="none" stroke="black" d="M3.68496,-33C8.69573,-33 34.008,-33 54.4423,-33"/>
<polygon fill="black" stroke="black" points="54.5501,-36.5001 64.5501,-33 54.5501,-29.5001 54.5501,-36.5001"/>
<text text-anchor="middle" x="34.1" y="-36.8" font-family="Times New Roman,serif" font-size="14.00">start</text>
</g>
<!-- 0&#45;&gt;0 -->
<g id="edge2" class="edge"><title>0&#45;&gt;0</title>
<path fill="none" stroke="black" d="M75.5688,-49.6641C74.0063,-59.625 76.35,-69 82.6,-69 86.6039,-69 89.0047,-65.1525 89.8023,-59.7682"/>
<polygon fill="black" stroke="black" points="93.3001,-59.6033 89.6313,-49.6641 86.3011,-59.7219 93.3001,-59.6033"/>
<text text-anchor="middle" x="82.6" y="-72.8" font-family="Times New Roman,serif" font-size="14.00">x</text>
</g>
<!-- 1 -->
<g id="node3" class="node"><title>1</title>
<ellipse fill="none" stroke="black" cx="166.6" cy="-55" rx="18" ry="18"/>
<ellipse fill="none" stroke="black" cx="166.6" cy="-55" rx="22" ry="22"/>
<text text-anchor="middle" x="166.6" y="-51.3" font-family="Times New Roman,serif" font-size="14.00">1</text>
</g>
<!-- 0&#45;&gt;1 -->
<g id="edge3" class="edge"><title>0&#45;&gt;1</title>
<path fill="none" stroke="black" d="M98.8973,-41.2078C104.889,-44.0959 111.918,-47.0939 118.6,-49 123.613,-50.43 129.025,-51.5198 134.33,-52.35"/>
<polygon fill="black" stroke="black" points="133.9,-55.8235 144.269,-53.6481 134.806,-48.8824 133.9,-55.8235"/>
<text text-anchor="middle" x="122.6" y="-53.8" font-family="Times New Roman,serif" font-size="14.00">d</text>
</g>
<!-- 1&#45;&gt;0 -->
<g id="edge5" class="edge"><title>1&#45;&gt;0</title>
<path fill="none" stroke="black" d="M149.169,-41.5129C142.568,-36.9188 134.627,-32.3518 126.6,-30 121.436,-28.487 115.781,-28.0606 110.317,-28.2298"/>
<polygon fill="black" stroke="black" points="109.863,-24.7567 100.227,-29.1601 110.506,-31.7271 109.863,-24.7567"/>
<text text-anchor="middle" x="122.6" y="-33.8" font-family="Times New Roman,serif" font-size="14.00">d</text>
</g>
<!-- 2 -->
<g id="node4" class="node"><title>2</title>
<ellipse fill="none" stroke="black" cx="253.6" cy="-22" rx="18" ry="18"/>
<ellipse fill="none" stroke="black" cx="253.6" cy="-22" rx="22" ry="22"/>
<text text-anchor="middle" x="253.6" y="-18.3" font-family="Times New Roman,serif" font-size="14.00">2</text>
</g>
<!-- 1&#45;&gt;2 -->
<g id="edge4" class="edge"><title>1&#45;&gt;2</title>
<path fill="none" stroke="black" d="M187.314,-47.3462C197.966,-43.2109 211.328,-38.0231 223.185,-33.4199"/>
<polygon fill="black" stroke="black" points="224.643,-36.6086 232.698,-29.7266 222.109,-30.0831 224.643,-36.6086"/>
<text text-anchor="middle" x="210.1" y="-42.8" font-family="Times New Roman,serif" font-size="14.00">x</text>
</g>
<!-- 2&#45;&gt;0 -->
<g id="edge7" class="edge"><title>2&#45;&gt;0</title>
<path fill="none" stroke="black" d="M232.171,-15.8287C210.359,-10.103 174.844,-3.26433 144.6,-9 132.273,-11.3378 119.25,-16.1133 108.416,-20.7933"/>
<polygon fill="black" stroke="black" points="106.825,-17.6717 99.1656,-24.9916 109.718,-24.0459 106.825,-17.6717"/>
<text text-anchor="middle" x="166.6" y="-12.8" font-family="Times New Roman,serif" font-size="14.00">d</text>
</g>
<!-- 2&#45;&gt;2 -->
<g id="edge6" class="edge"><title>2&#45;&gt;2</title>
<path fill="none" stroke="black" d="M245.917,-42.9908C244.969,-53.0872 247.53,-62 253.6,-62 257.489,-62 259.937,-58.3422 260.946,-53.0587"/>
<polygon fill="black" stroke="black" points="264.446,-53.1023 261.283,-42.9908 257.45,-52.868 264.446,-53.1023"/>
<text text-anchor="middle" x="253.6" y="-65.8" font-family="Times New Roman,serif" font-size="14.00">x</text>
</g>
</g>
</svg>
