<?xml version="1.0" encoding="UTF-8" standalone="no"?>
<!DOCTYPE svg PUBLIC "-//W3C//DTD SVG 1.1//EN"
 "http://www.w3.org/Graphics/SVG/1.1/DTD/svg11.dtd">
<!-- Generated by graphviz version 2.38.0 (20140413.2041)
 -->
<!-- Title: dfa Pages: 1 -->
<svg width="277pt" height="120pt"
 viewBox="0.00 0.00 276.60 120.00" xmlns="http://www.w3.org/2000/svg" xmlns:xlink="http://www.w3.org/1999/xlink">
<g id="graph0" class="graph" transform="scale(1 1) rotate(0) translate(4 116)">
<title>dfa</title>
<polygon fill="white" stroke="none" points="-4,4 -4,-116 272.6,-116 272.6,4 -4,4"/>
<!-- __start -->
<!-- 0 -->
<g id="node2" class="node"><title>0</title>
<ellipse fill="none" stroke="black" cx="82.6" cy="-18" rx="18" ry="18"/>
<text text-anchor="middle" x="82.6" y="-14.3" font-family="Times New Roman,serif" font-size="14.00">0</text>
</g>
<!-- __start&#45;&gt;0 -->
<g id="edge1" class="edge"><title>__start&#45;&gt;0</title>
<path fill="none" stroke="black" d="M3.68496,-18C8.69573,-18 34.008,-18 54.4423,-18"/>
<polygon fill="black" stroke="black" points="54.5501,-21.5001 64.5501,-18 54.5501,-14.5001 54.5501,-21.5001"/>
<text text-anchor="middle" x="34.1" y="-21.8" font-family="Times New Roman,serif" font-size="14.00">start</text>
</g>
<!-- 1 -->
<g id="node3" class="node"><title>1</title>
<ellipse fill="none" stroke="black" cx="166.6" cy="-57" rx="18" ry="18"/>
<ellipse fill="none" stroke="black" cx="166.6" cy="-57" rx="22" ry="22"/>
<text text-anchor="middle" x="166.6" y="-53.3" font-family="Times New Roman,serif" font-size="14.00">1</text>
</g>
<!-- 0&#45;&gt;1 -->
<g id="edge7" class="edge"><title>0&#45;&gt;1</title>
<path fill="none" stroke="black" d="M99.4104,-25.5196C110.091,-30.5995 124.496,-37.4504 137.14,-43.464"/>
<polygon fill="black" stroke="black" points="135.841,-46.7218 146.375,-47.8562 138.847,-40.4004 135.841,-46.7218"/>
<text text-anchor="middle" x="122.6" y="-40.8" font-family="Times New Roman,serif" font-size="14.00">q</text>
</g>
<!-- 2 -->
<g id="node4" class="node"><title>2</title>
<ellipse fill="none" stroke="black" cx="250.6" cy="-46" rx="18" ry="18"/>
<text text-anchor="middle" x="250.6" y="-42.3" font-family="Times New Roman,serif" font-size="14.00">2</text>
</g>
<!-- 0&#45;&gt;2 -->
<g id="edge6" class="edge"><title>0&#45;&gt;2</title>
<path fill="none" stroke="black" d="M100.254,-13.7523C121.205,-9.11854 158.13,-3.3179 188.6,-11 202.474,-14.4979 216.428,-22.1275 227.482,-29.3732"/>
<polygon fill="black" stroke="black" points="225.803,-32.4668 236.02,-35.2702 229.781,-26.7071 225.803,-32.4668"/>
<text text-anchor="middle" x="166.6" y="-14.8" font-family="Times New Roman,serif" font-size="14.00">s</text>
</g>
<!-- 1&#45;&gt;1 -->
<g id="edge5" class="edge"><title>1&#45;&gt;1</title>
<path fill="none" stroke="black" d="M158.594,-77.5808C157.486,-87.8447 160.155,-97 166.6,-97 170.729,-97 173.308,-93.2427 174.337,-87.8436"/>
<polygon fill="black" stroke="black" points="177.843,-87.6691 174.606,-77.5808 170.845,-87.4857 177.843,-87.6691"/>
<text text-anchor="middle" x="166.6" y="-100.8" font-family="Times New Roman,serif" font-size="14.00">q</text>
</g>
<!-- 1&#45;&gt;2 -->
<g id="edge4" class="edge"><title>1&#45;&gt;2</title>
<path fill="none" stroke="black" d="M186.431,-67.1994C195.053,-70.5917 205.381,-72.8571 214.6,-70 219.364,-68.5237 224.055,-66.1502 228.379,-63.4572"/>
<polygon fill="black" stroke="black" points="230.464,-66.2703 236.646,-57.6658 226.447,-60.5372 230.464,-66.2703"/>
<text text-anchor="middle" x="210.6" y="-74.8" font-family="Times New Roman,serif" font-size="14.00">s</text>
</g>
<!-- 2&#45;&gt;1 -->
<g id="edge2" class="edge"><title>2&#45;&gt;1</title>
<path fill="none" stroke="black" d="M232.684,-48.2692C222.926,-49.5782 210.348,-51.2655 198.855,-52.8072"/>
<polygon fill="black" stroke="black" points="198.163,-49.3687 188.717,-54.1672 199.094,-56.3065 198.163,-49.3687"/>
<text text-anchor="middle" x="210.6" y="-54.8" font-family="Times New Roman,serif" font-size="14.00">s</text>
</g>
<!-- 2&#45;&gt;1 -->
<g id="edge3" class="edge"><title>2&#45;&gt;1</title>
<path fill="none" stroke="black" d="M235.365,-36.3005C227.036,-31.8173 216.286,-28.0673 206.6,-31 201.791,-32.4561 197.032,-34.7226 192.58,-37.3236"/>
<polygon fill="black" stroke="black" points="190.397,-34.57 183.954,-42.9804 194.235,-40.4237 190.397,-34.57"/>
<text text-anchor="middle" x="210.6" y="-34.8" font-family="Times New Roman,serif" font-size="14.00">q</text>
</g>
</g>
</svg>
