<?xml version="1.0" encoding="UTF-8" standalone="no"?>
<!DOCTYPE svg PUBLIC "-//W3C//DTD SVG 1.1//EN"
 "http://www.w3.org/Graphics/SVG/1.1/DTD/svg11.dtd">
<!-- Generated by graphviz version 2.38.0 (20140413.2041)
 -->
<!-- Title: dfa Pages: 1 -->
<svg width="275pt" height="152pt"
 viewBox="0.00 0.00 274.60 152.00" xmlns="http://www.w3.org/2000/svg" xmlns:xlink="http://www.w3.org/1999/xlink">
<g id="graph0" class="graph" transform="scale(1 1) rotate(0) translate(4 148)">
<title>dfa</title>
<polygon fill="white" stroke="none" points="-4,4 -4,-148 270.6,-148 270.6,4 -4,4"/>
<!-- __start -->
<!-- 0 -->
<g id="node2" class="node"><title>0</title>
<ellipse fill="none" stroke="black" cx="82.6" cy="-93" rx="18" ry="18"/>
<text text-anchor="middle" x="82.6" y="-89.3" font-family="Times New Roman,serif" font-size="14.00">0</text>
</g>
<!-- __start&#45;&gt;0 -->
<g id="edge1" class="edge"><title>__start&#45;&gt;0</title>
<path fill="none" stroke="black" d="M3.68496,-93C8.69573,-93 34.008,-93 54.4423,-93"/>
<polygon fill="black" stroke="black" points="54.5501,-96.5001 64.5501,-93 54.5501,-89.5001 54.5501,-96.5001"/>
<text text-anchor="middle" x="34.1" y="-96.8" font-family="Times New Roman,serif" font-size="14.00">start</text>
</g>
<!-- 1 -->
<g id="node3" class="node"><title>1</title>
<ellipse fill="none" stroke="black" cx="165.6" cy="-117" rx="18" ry="18"/>
<ellipse fill="none" stroke="black" cx="165.6" cy="-117" rx="22" ry="22"/>
<text text-anchor="middle" x="165.6" y="-113.3" font-family="Times New Roman,serif" font-size="14.00">1</text>
</g>
<!-- 0&#45;&gt;1 -->
<g id="edge5" class="edge"><title>0&#45;&gt;1</title>
<path fill="none" stroke="black" d="M93.4784,-107.343C99.6878,-115.041 108.438,-123.791 118.6,-128 124.005,-130.239 129.965,-130.379 135.752,-129.416"/>
<polygon fill="black" stroke="black" points="137.078,-132.684 145.824,-126.705 135.258,-125.925 137.078,-132.684"/>
<text text-anchor="middle" x="122.1" y="-132.8" font-family="Times New Roman,serif" font-size="14.00">h</text>
</g>
<!-- 2 -->
<g id="node4" class="node"><title>2</title>
<ellipse fill="none" stroke="black" cx="165.6" cy="-22" rx="18" ry="18"/>
<ellipse fill="none" stroke="black" cx="165.6" cy="-22" rx="22" ry="22"/>
<text text-anchor="middle" x="165.6" y="-18.3" font-family="Times New Roman,serif" font-size="14.00">2</text>
</g>
<!-- 0&#45;&gt;2 -->
<g id="edge4" class="edge"><title>0&#45;&gt;2</title>
<path fill="none" stroke="black" d="M96.6141,-81.5926C108.538,-71.1411 126.479,-55.4144 140.938,-42.7409"/>
<polygon fill="black" stroke="black" points="143.339,-45.2907 148.552,-36.0671 138.725,-40.0267 143.339,-45.2907"/>
<text text-anchor="middle" x="122.1" y="-64.8" font-family="Times New Roman,serif" font-size="14.00">e</text>
</g>
<!-- 1&#45;&gt;0 -->
<g id="edge6" class="edge"><title>1&#45;&gt;0</title>
<path fill="none" stroke="black" d="M144.206,-110.957C133.734,-107.854 120.858,-104.04 109.672,-100.725"/>
<polygon fill="black" stroke="black" points="110.574,-97.3419 99.9916,-97.8568 108.585,-104.054 110.574,-97.3419"/>
<text text-anchor="middle" x="122.1" y="-108.8" font-family="Times New Roman,serif" font-size="14.00">e</text>
</g>
<!-- 1&#45;&gt;0 -->
<g id="edge7" class="edge"><title>1&#45;&gt;0</title>
<path fill="none" stroke="black" d="M150.317,-100.666C143.559,-94.1603 134.928,-87.4168 125.6,-84 120.261,-82.0442 114.376,-82.0519 108.745,-83.027"/>
<polygon fill="black" stroke="black" points="107.814,-79.6528 99.0537,-85.6117 109.618,-86.4164 107.814,-79.6528"/>
<text text-anchor="middle" x="122.1" y="-87.8" font-family="Times New Roman,serif" font-size="14.00">h</text>
</g>
<!-- 2&#45;&gt;2 -->
<g id="edge3" class="edge"><title>2&#45;&gt;2</title>
<path fill="none" stroke="black" d="M157.917,-42.9908C156.969,-53.0872 159.53,-62 165.6,-62 169.489,-62 171.937,-58.3422 172.946,-53.0587"/>
<polygon fill="black" stroke="black" points="176.446,-53.1023 173.283,-42.9908 169.45,-52.868 176.446,-53.1023"/>
<text text-anchor="middle" x="165.6" y="-65.8" font-family="Times New Roman,serif" font-size="14.00">h</text>
</g>
<!-- 3 -->
<g id="node5" class="node"><title>3</title>
<ellipse fill="none" stroke="black" cx="248.6" cy="-22" rx="18" ry="18"/>
<text text-anchor="middle" x="248.6" y="-18.3" font-family="Times New Roman,serif" font-size="14.00">3</text>
</g>
<!-- 2&#45;&gt;3 -->
<g id="edge2" class="edge"><title>2&#45;&gt;3</title>
<path fill="none" stroke="black" d="M187.882,-22C197.866,-22 209.878,-22 220.503,-22"/>
<polygon fill="black" stroke="black" points="220.54,-25.5001 230.539,-22 220.539,-18.5001 220.54,-25.5001"/>
<text text-anchor="middle" x="209.1" y="-25.8" font-family="Times New Roman,serif" font-size="14.00">e</text>
</g>
<!-- 3&#45;&gt;2 -->
<g id="edge8" class="edge"><title>3&#45;&gt;2</title>
<path fill="none" stroke="black" d="M233.289,-12.1343C227.198,-8.50652 219.837,-4.83778 212.6,-3 206.115,-1.35323 199.344,-2.44123 193.054,-4.7602"/>
<polygon fill="black" stroke="black" points="191.215,-1.75835 183.675,-9.20141 194.211,-8.0849 191.215,-1.75835"/>
<text text-anchor="middle" x="209.1" y="-6.8" font-family="Times New Roman,serif" font-size="14.00">e</text>
</g>
<!-- 3&#45;&gt;3 -->
<g id="edge9" class="edge"><title>3&#45;&gt;3</title>
<path fill="none" stroke="black" d="M241.866,-39.0373C240.492,-48.8579 242.737,-58 248.6,-58 252.265,-58 254.516,-54.4289 255.353,-49.3529"/>
<polygon fill="black" stroke="black" points="258.852,-49.0307 255.334,-39.0373 251.852,-49.0439 258.852,-49.0307"/>
<text text-anchor="middle" x="248.6" y="-61.8" font-family="Times New Roman,serif" font-size="14.00">h</text>
</g>
</g>
</svg>
