<?xml version="1.0" encoding="UTF-8" standalone="no"?>
<!DOCTYPE svg PUBLIC "-//W3C//DTD SVG 1.1//EN"
 "http://www.w3.org/Graphics/SVG/1.1/DTD/svg11.dtd">
<!-- Generated by graphviz version 2.38.0 (20140413.2041)
 -->
<!-- Title: dfa Pages: 1 -->
<svg width="353pt" height="104pt"
 viewBox="0.00 0.00 352.60 104.00" xmlns="http://www.w3.org/2000/svg" xmlns:xlink="http://www.w3.org/1999/xlink">
<g id="graph0" class="graph" transform="scale(1 1) rotate(0) translate(4 100)">
<title>dfa</title>
<polygon fill="white" stroke="none" points="-4,4 -4,-100 348.6,-100 348.6,4 -4,4"/>
<!-- __start -->
<!-- 0 -->
<g id="node2" class="node"><title>0</title>
<ellipse fill="none" stroke="black" cx="82.6" cy="-18" rx="18" ry="18"/>
<text text-anchor="middle" x="82.6" y="-14.3" font-family="Times New Roman,serif" font-size="14.00">0</text>
</g>
<!-- __start&#45;&gt;0 -->
<g id="edge1" class="edge"><title>__start&#45;&gt;0</title>
<path fill="none" stroke="black" d="M3.68496,-18C8.69573,-18 34.008,-18 54.4423,-18"/>
<polygon fill="black" stroke="black" points="54.5501,-21.5001 64.5501,-18 54.5501,-14.5001 54.5501,-21.5001"/>
<text text-anchor="middle" x="34.1" y="-21.8" font-family="Times New Roman,serif" font-size="14.00">start</text>
</g>
<!-- 0&#45;&gt;0 -->
<g id="edge2" class="edge"><title>0&#45;&gt;0</title>
<path fill="none" stroke="black" d="M75.8664,-35.0373C74.4922,-44.8579 76.7367,-54 82.6,-54 86.2646,-54 88.5155,-50.4289 89.3529,-45.3529"/>
<polygon fill="black" stroke="black" points="92.8524,-45.0307 89.3336,-35.0373 85.8524,-45.0439 92.8524,-45.0307"/>
<text text-anchor="middle" x="82.6" y="-57.8" font-family="Times New Roman,serif" font-size="14.00">b</text>
</g>
<!-- 1 -->
<g id="node3" class="node"><title>1</title>
<ellipse fill="none" stroke="black" cx="162.6" cy="-56" rx="18" ry="18"/>
<ellipse fill="none" stroke="black" cx="162.6" cy="-56" rx="22" ry="22"/>
<text text-anchor="middle" x="162.6" y="-52.3" font-family="Times New Roman,serif" font-size="14.00">1</text>
</g>
<!-- 0&#45;&gt;1 -->
<g id="edge3" class="edge"><title>0&#45;&gt;1</title>
<path fill="none" stroke="black" d="M99.0103,-25.5076C108.722,-30.2391 121.561,-36.4936 133.081,-42.1061"/>
<polygon fill="black" stroke="black" points="131.828,-45.3887 142.35,-46.622 134.893,-39.0958 131.828,-45.3887"/>
<text text-anchor="middle" x="120.6" y="-40.8" font-family="Times New Roman,serif" font-size="14.00">j</text>
</g>
<!-- 1&#45;&gt;0 -->
<g id="edge5" class="edge"><title>1&#45;&gt;0</title>
<path fill="none" stroke="black" d="M149.354,-37.9561C142.564,-29.5936 133.324,-20.5219 122.6,-16 118.842,-14.4154 114.697,-13.686 110.553,-13.4973"/>
<polygon fill="black" stroke="black" points="110.308,-10.0048 100.481,-13.9632 110.632,-16.9973 110.308,-10.0048"/>
<text text-anchor="middle" x="120.6" y="-19.8" font-family="Times New Roman,serif" font-size="14.00">j</text>
</g>
<!-- 2 -->
<g id="node4" class="node"><title>2</title>
<ellipse fill="none" stroke="black" cx="246.6" cy="-78" rx="18" ry="18"/>
<text text-anchor="middle" x="246.6" y="-74.3" font-family="Times New Roman,serif" font-size="14.00">2</text>
</g>
<!-- 1&#45;&gt;2 -->
<g id="edge4" class="edge"><title>1&#45;&gt;2</title>
<path fill="none" stroke="black" d="M181.595,-67.2591C187.99,-70.7013 195.394,-74.0817 202.6,-76 207.574,-77.3241 212.984,-78.0805 218.236,-78.4788"/>
<polygon fill="black" stroke="black" points="218.48,-81.99 228.602,-78.8606 218.737,-74.9948 218.48,-81.99"/>
<text text-anchor="middle" x="206.6" y="-80.8" font-family="Times New Roman,serif" font-size="14.00">b</text>
</g>
<!-- 2&#45;&gt;1 -->
<g id="edge7" class="edge"><title>2&#45;&gt;1</title>
<path fill="none" stroke="black" d="M231.741,-67.4079C225.605,-63.3416 218.089,-59.1605 210.6,-57 205.535,-55.5388 200.033,-54.7513 194.638,-54.3906"/>
<polygon fill="black" stroke="black" points="194.615,-50.8892 184.538,-54.1579 194.454,-57.8874 194.615,-50.8892"/>
<text text-anchor="middle" x="206.6" y="-60.8" font-family="Times New Roman,serif" font-size="14.00">j</text>
</g>
<!-- 3 -->
<g id="node5" class="node"><title>3</title>
<ellipse fill="none" stroke="black" cx="326.6" cy="-27" rx="18" ry="18"/>
<text text-anchor="middle" x="326.6" y="-23.3" font-family="Times New Roman,serif" font-size="14.00">3</text>
</g>
<!-- 2&#45;&gt;3 -->
<g id="edge6" class="edge"><title>2&#45;&gt;3</title>
<path fill="none" stroke="black" d="M262.271,-68.4073C273.602,-60.9989 289.494,-50.6081 302.523,-42.0889"/>
<polygon fill="black" stroke="black" points="304.54,-44.9516 310.995,-36.5497 300.709,-39.0928 304.54,-44.9516"/>
<text text-anchor="middle" x="286.6" y="-57.8" font-family="Times New Roman,serif" font-size="14.00">b</text>
</g>
<!-- 3&#45;&gt;0 -->
<g id="edge8" class="edge"><title>3&#45;&gt;0</title>
<path fill="none" stroke="black" d="M308.52,-25.0818C273.64,-21.2725 191.682,-12.8734 122.6,-10 118.521,-9.83035 114.249,-10.1648 110.089,-10.7798"/>
<polygon fill="black" stroke="black" points="109.278,-7.37242 100.155,-12.7591 110.646,-14.2375 109.278,-7.37242"/>
<text text-anchor="middle" x="206.6" y="-18.8" font-family="Times New Roman,serif" font-size="14.00">b</text>
</g>
<!-- 3&#45;&gt;1 -->
<g id="edge9" class="edge"><title>3&#45;&gt;1</title>
<path fill="none" stroke="black" d="M308.275,-27.5327C288.75,-28.3809 256.14,-30.546 228.6,-36 216.806,-38.3356 204.111,-41.9775 193.097,-45.517"/>
<polygon fill="black" stroke="black" points="191.914,-42.2219 183.529,-48.6983 194.122,-48.8644 191.914,-42.2219"/>
<text text-anchor="middle" x="246.6" y="-39.8" font-family="Times New Roman,serif" font-size="14.00">j</text>
</g>
</g>
</svg>
