<?xml version="1.0" encoding="UTF-8" standalone="no"?>
<!DOCTYPE svg PUBLIC "-//W3C//DTD SVG 1.1//EN"
 "http://www.w3.org/Graphics/SVG/1.1/DTD/svg11.dtd">
<!-- Generated by graphviz version 2.38.0 (20140413.2041)
 -->
<!-- Title: dfa Pages: 1 -->
<svg width="291pt" height="98pt"
 viewBox="0.00 0.00 290.60 98.21" xmlns="http://www.w3.org/2000/svg" xmlns:xlink="http://www.w3.org/1999/xlink">
<g id="graph0" class="graph" transform="scale(1 1) rotate(0) translate(4 94.2122)">
<title>dfa</title>
<polygon fill="white" stroke="none" points="-4,4 -4,-94.2122 286.6,-94.2122 286.6,4 -4,4"/>
<!-- __start -->
<!-- 0 -->
<g id="node2" class="node"><title>0</title>
<ellipse fill="none" stroke="black" cx="91.6" cy="-21.2122" rx="27" ry="18"/>
<text text-anchor="middle" x="91.6" y="-17.5122" font-family="Times New Roman,serif" font-size="14.00">0</text>
</g>
<!-- __start&#45;&gt;0 -->
<g id="edge1" class="edge"><title>__start&#45;&gt;0</title>
<path fill="none" stroke="black" d="M3.78604,-21.2122C8.86985,-21.2122 32.7092,-21.2122 54.1222,-21.2122"/>
<polygon fill="black" stroke="black" points="54.3463,-24.7123 64.3463,-21.2122 54.3463,-17.7123 54.3463,-24.7123"/>
<text text-anchor="middle" x="34.1" y="-25.0122" font-family="Times New Roman,serif" font-size="14.00">start</text>
</g>
<!-- 1 -->
<g id="node3" class="node"><title>1</title>
<ellipse fill="none" stroke="black" cx="184.6" cy="-68.2122" rx="18" ry="18"/>
<ellipse fill="none" stroke="black" cx="184.6" cy="-68.2122" rx="22" ry="22"/>
<text text-anchor="middle" x="184.6" y="-64.5122" font-family="Times New Roman,serif" font-size="14.00">1</text>
</g>
<!-- 0&#45;&gt;1 -->
<g id="edge3" class="edge"><title>0&#45;&gt;1</title>
<path fill="none" stroke="black" d="M108.809,-35.556C116.746,-41.9878 126.707,-49.2304 136.6,-54.2122 141.733,-56.797 147.427,-58.992 153.028,-60.8232"/>
<polygon fill="black" stroke="black" points="152.29,-64.2544 162.872,-63.7317 154.273,-57.5414 152.29,-64.2544"/>
<text text-anchor="middle" x="140.6" y="-61.0122" font-family="Times New Roman,serif" font-size="14.00">j</text>
</g>
<!-- 2 -->
<g id="node4" class="node"><title>2</title>
<ellipse fill="none" stroke="black" cx="264.6" cy="-21.2122" rx="18" ry="18"/>
<text text-anchor="middle" x="264.6" y="-17.5122" font-family="Times New Roman,serif" font-size="14.00">2</text>
</g>
<!-- 0&#45;&gt;2 -->
<g id="edge2" class="edge"><title>0&#45;&gt;2</title>
<path fill="none" stroke="black" d="M118.944,-21.2122C150.76,-21.2122 204.013,-21.2122 236.266,-21.2122"/>
<polygon fill="black" stroke="black" points="236.338,-24.7123 246.338,-21.2122 236.338,-17.7123 236.338,-24.7123"/>
<text text-anchor="middle" x="184.6" y="-25.0122" font-family="Times New Roman,serif" font-size="14.00">b</text>
</g>
<!-- 1&#45;&gt;0 -->
<g id="edge6" class="edge"><title>1&#45;&gt;0</title>
<path fill="none" stroke="black" d="M168.446,-52.673C161.658,-46.4698 153.242,-39.7402 144.6,-35.2122 139.348,-32.4603 133.506,-30.2127 127.69,-28.3883"/>
<polygon fill="black" stroke="black" points="128.606,-25.0103 118.034,-25.7034 126.731,-31.7545 128.606,-25.0103"/>
<text text-anchor="middle" x="140.6" y="-39.0122" font-family="Times New Roman,serif" font-size="14.00">b</text>
</g>
<!-- 1&#45;&gt;2 -->
<g id="edge7" class="edge"><title>1&#45;&gt;2</title>
<path fill="none" stroke="black" d="M206.52,-63.4139C213.809,-61.2299 221.848,-58.2175 228.6,-54.2122 234.351,-50.8011 239.928,-46.2959 244.877,-41.7146"/>
<polygon fill="black" stroke="black" points="247.424,-44.119 252.073,-34.599 242.502,-39.1415 247.424,-44.119"/>
<text text-anchor="middle" x="226.6" y="-59.0122" font-family="Times New Roman,serif" font-size="14.00">j</text>
</g>
<!-- 2&#45;&gt;0 -->
<g id="edge4" class="edge"><title>2&#45;&gt;0</title>
<path fill="none" stroke="black" d="M247.49,-14.2929C236.263,-9.85907 220.809,-4.51803 206.6,-2.21221 187.297,0.920239 181.984,0.371737 162.6,-2.21221 150.339,-3.8466 137.182,-7.02402 125.621,-10.3197"/>
<polygon fill="black" stroke="black" points="124.516,-6.99683 115.934,-13.2106 126.518,-13.7045 124.516,-6.99683"/>
<text text-anchor="middle" x="184.6" y="-6.01221" font-family="Times New Roman,serif" font-size="14.00">b</text>
</g>
<!-- 2&#45;&gt;1 -->
<g id="edge5" class="edge"><title>2&#45;&gt;1</title>
<path fill="none" stroke="black" d="M247.66,-27.6762C240.443,-30.8272 231.909,-34.8714 224.6,-39.2122 219.794,-42.0665 214.863,-45.3856 210.195,-48.7379"/>
<polygon fill="black" stroke="black" points="208.093,-45.9387 202.157,-54.7144 212.27,-51.5559 208.093,-45.9387"/>
<text text-anchor="middle" x="226.6" y="-43.0122" font-family="Times New Roman,serif" font-size="14.00">j</text>
</g>
</g>
</svg>
