<?xml version="1.0" encoding="UTF-8" standalone="no"?>
<!DOCTYPE svg PUBLIC "-//W3C//DTD SVG 1.1//EN"
 "http://www.w3.org/Graphics/SVG/1.1/DTD/svg11.dtd">
<!-- Generated by graphviz version 2.38.0 (20140413.2041)
 -->
<!-- Title: dfa Pages: 1 -->
<svg width="371pt" height="104pt"
 viewBox="0.00 0.00 370.60 104.00" xmlns="http://www.w3.org/2000/svg" xmlns:xlink="http://www.w3.org/1999/xlink">
<g id="graph0" class="graph" transform="scale(1 1) rotate(0) translate(4 100)">
<title>dfa</title>
<polygon fill="white" stroke="none" points="-4,4 -4,-100 366.6,-100 366.6,4 -4,4"/>
<!-- __start -->
<!-- 0 -->
<g id="node2" class="node"><title>0</title>
<ellipse fill="none" stroke="black" cx="91.6" cy="-18" rx="27" ry="18"/>
<text text-anchor="middle" x="91.6" y="-14.3" font-family="Times New Roman,serif" font-size="14.00">0</text>
</g>
<!-- __start&#45;&gt;0 -->
<g id="edge1" class="edge"><title>__start&#45;&gt;0</title>
<path fill="none" stroke="black" d="M3.78604,-18C8.86985,-18 32.7092,-18 54.1222,-18"/>
<polygon fill="black" stroke="black" points="54.3463,-21.5001 64.3463,-18 54.3463,-14.5001 54.3463,-21.5001"/>
<text text-anchor="middle" x="34.1" y="-21.8" font-family="Times New Roman,serif" font-size="14.00">start</text>
</g>
<!-- 0&#45;&gt;0 -->
<g id="edge2" class="edge"><title>0&#45;&gt;0</title>
<path fill="none" stroke="black" d="M83.3877,-35.4099C81.8548,-45.0879 84.5922,-54 91.6,-54 95.9799,-54 98.6916,-50.5187 99.7353,-45.5449"/>
<polygon fill="black" stroke="black" points="103.236,-45.4362 99.8123,-35.4099 96.2363,-45.383 103.236,-45.4362"/>
<text text-anchor="middle" x="91.6" y="-57.8" font-family="Times New Roman,serif" font-size="14.00">b</text>
</g>
<!-- 1 -->
<g id="node3" class="node"><title>1</title>
<ellipse fill="none" stroke="black" cx="180.6" cy="-56" rx="18" ry="18"/>
<ellipse fill="none" stroke="black" cx="180.6" cy="-56" rx="22" ry="22"/>
<text text-anchor="middle" x="180.6" y="-52.3" font-family="Times New Roman,serif" font-size="14.00">1</text>
</g>
<!-- 0&#45;&gt;1 -->
<g id="edge3" class="edge"><title>0&#45;&gt;1</title>
<path fill="none" stroke="black" d="M114.554,-27.589C125.487,-32.3642 138.849,-38.2005 150.612,-43.3384"/>
<polygon fill="black" stroke="black" points="149.463,-46.656 160.028,-47.4513 152.265,-40.2412 149.463,-46.656"/>
<text text-anchor="middle" x="138.6" y="-41.8" font-family="Times New Roman,serif" font-size="14.00">j</text>
</g>
<!-- 1&#45;&gt;0 -->
<g id="edge5" class="edge"><title>1&#45;&gt;0</title>
<path fill="none" stroke="black" d="M166.35,-38.5987C159.56,-31.0984 150.614,-23.1157 140.6,-19 136.89,-17.4751 132.878,-16.4882 128.81,-15.8909"/>
<polygon fill="black" stroke="black" points="128.955,-12.3919 118.719,-15.1242 128.425,-19.3718 128.955,-12.3919"/>
<text text-anchor="middle" x="138.6" y="-22.8" font-family="Times New Roman,serif" font-size="14.00">j</text>
</g>
<!-- 2 -->
<g id="node4" class="node"><title>2</title>
<ellipse fill="none" stroke="black" cx="264.6" cy="-78" rx="18" ry="18"/>
<text text-anchor="middle" x="264.6" y="-74.3" font-family="Times New Roman,serif" font-size="14.00">2</text>
</g>
<!-- 1&#45;&gt;2 -->
<g id="edge4" class="edge"><title>1&#45;&gt;2</title>
<path fill="none" stroke="black" d="M199.595,-67.2591C205.99,-70.7013 213.394,-74.0817 220.6,-76 225.574,-77.3241 230.984,-78.0805 236.236,-78.4788"/>
<polygon fill="black" stroke="black" points="236.48,-81.99 246.602,-78.8606 236.737,-74.9948 236.48,-81.99"/>
<text text-anchor="middle" x="224.6" y="-80.8" font-family="Times New Roman,serif" font-size="14.00">b</text>
</g>
<!-- 2&#45;&gt;1 -->
<g id="edge7" class="edge"><title>2&#45;&gt;1</title>
<path fill="none" stroke="black" d="M249.741,-67.4079C243.605,-63.3416 236.089,-59.1605 228.6,-57 223.535,-55.5388 218.033,-54.7513 212.638,-54.3906"/>
<polygon fill="black" stroke="black" points="212.615,-50.8892 202.538,-54.1579 212.454,-57.8874 212.615,-50.8892"/>
<text text-anchor="middle" x="224.6" y="-60.8" font-family="Times New Roman,serif" font-size="14.00">j</text>
</g>
<!-- 3 -->
<g id="node5" class="node"><title>3</title>
<ellipse fill="none" stroke="black" cx="344.6" cy="-27" rx="18" ry="18"/>
<text text-anchor="middle" x="344.6" y="-23.3" font-family="Times New Roman,serif" font-size="14.00">3</text>
</g>
<!-- 2&#45;&gt;3 -->
<g id="edge6" class="edge"><title>2&#45;&gt;3</title>
<path fill="none" stroke="black" d="M280.271,-68.4073C291.602,-60.9989 307.494,-50.6081 320.523,-42.0889"/>
<polygon fill="black" stroke="black" points="322.54,-44.9516 328.995,-36.5497 318.709,-39.0928 322.54,-44.9516"/>
<text text-anchor="middle" x="304.6" y="-57.8" font-family="Times New Roman,serif" font-size="14.00">b</text>
</g>
<!-- 3&#45;&gt;0 -->
<g id="edge8" class="edge"><title>3&#45;&gt;0</title>
<path fill="none" stroke="black" d="M326.511,-25.4021C291.615,-22.2317 209.627,-15.2574 140.6,-13 136.57,-12.8682 132.359,-12.9627 128.177,-13.203"/>
<polygon fill="black" stroke="black" points="127.637,-9.73574 117.963,-14.0549 128.219,-16.7115 127.637,-9.73574"/>
<text text-anchor="middle" x="224.6" y="-20.8" font-family="Times New Roman,serif" font-size="14.00">b</text>
</g>
<!-- 3&#45;&gt;1 -->
<g id="edge9" class="edge"><title>3&#45;&gt;1</title>
<path fill="none" stroke="black" d="M326.275,-27.5327C306.75,-28.3809 274.14,-30.546 246.6,-36 234.806,-38.3356 222.111,-41.9775 211.097,-45.517"/>
<polygon fill="black" stroke="black" points="209.914,-42.2219 201.529,-48.6983 212.122,-48.8644 209.914,-42.2219"/>
<text text-anchor="middle" x="264.6" y="-39.8" font-family="Times New Roman,serif" font-size="14.00">j</text>
</g>
</g>
</svg>
