<?xml version="1.0" encoding="UTF-8" standalone="no"?>
<!DOCTYPE svg PUBLIC "-//W3C//DTD SVG 1.1//EN"
 "http://www.w3.org/Graphics/SVG/1.1/DTD/svg11.dtd">
<!-- Generated by graphviz version 2.38.0 (20140413.2041)
 -->
<!-- Title: dfa Pages: 1 -->
<svg width="273pt" height="98pt"
 viewBox="0.00 0.00 272.60 98.30" xmlns="http://www.w3.org/2000/svg" xmlns:xlink="http://www.w3.org/1999/xlink">
<g id="graph0" class="graph" transform="scale(1 1) rotate(0) translate(4 94.3015)">
<title>dfa</title>
<polygon fill="white" stroke="none" points="-4,4 -4,-94.3015 268.6,-94.3015 268.6,4 -4,4"/>
<!-- __start -->
<!-- 0 -->
<g id="node2" class="node"><title>0</title>
<ellipse fill="none" stroke="black" cx="82.6" cy="-21.3015" rx="18" ry="18"/>
<text text-anchor="middle" x="82.6" y="-17.6015" font-family="Times New Roman,serif" font-size="14.00">0</text>
</g>
<!-- __start&#45;&gt;0 -->
<g id="edge1" class="edge"><title>__start&#45;&gt;0</title>
<path fill="none" stroke="black" d="M3.68496,-21.3015C8.69573,-21.3015 34.008,-21.3015 54.4423,-21.3015"/>
<polygon fill="black" stroke="black" points="54.5501,-24.8016 64.5501,-21.3015 54.5501,-17.8016 54.5501,-24.8016"/>
<text text-anchor="middle" x="34.1" y="-25.1015" font-family="Times New Roman,serif" font-size="14.00">start</text>
</g>
<!-- 1 -->
<g id="node3" class="node"><title>1</title>
<ellipse fill="none" stroke="black" cx="166.6" cy="-68.3015" rx="18" ry="18"/>
<ellipse fill="none" stroke="black" cx="166.6" cy="-68.3015" rx="22" ry="22"/>
<text text-anchor="middle" x="166.6" y="-64.6015" font-family="Times New Roman,serif" font-size="14.00">1</text>
</g>
<!-- 0&#45;&gt;1 -->
<g id="edge3" class="edge"><title>0&#45;&gt;1</title>
<path fill="none" stroke="black" d="M95.0733,-34.7796C101.409,-41.4815 109.772,-49.2147 118.6,-54.3015 123.579,-57.1708 129.201,-59.5003 134.779,-61.3752"/>
<polygon fill="black" stroke="black" points="134.044,-64.8074 144.626,-64.2774 136.023,-58.0929 134.044,-64.8074"/>
<text text-anchor="middle" x="122.6" y="-61.1015" font-family="Times New Roman,serif" font-size="14.00">j</text>
</g>
<!-- 2 -->
<g id="node4" class="node"><title>2</title>
<ellipse fill="none" stroke="black" cx="246.6" cy="-21.3015" rx="18" ry="18"/>
<text text-anchor="middle" x="246.6" y="-17.6015" font-family="Times New Roman,serif" font-size="14.00">2</text>
</g>
<!-- 0&#45;&gt;2 -->
<g id="edge2" class="edge"><title>0&#45;&gt;2</title>
<path fill="none" stroke="black" d="M100.631,-21.3015C128.632,-21.3015 184.637,-21.3015 218.248,-21.3015"/>
<polygon fill="black" stroke="black" points="218.31,-24.8016 228.31,-21.3015 218.31,-17.8016 218.31,-24.8016"/>
<text text-anchor="middle" x="166.6" y="-25.1015" font-family="Times New Roman,serif" font-size="14.00">b</text>
</g>
<!-- 1&#45;&gt;0 -->
<g id="edge6" class="edge"><title>1&#45;&gt;0</title>
<path fill="none" stroke="black" d="M150.329,-52.979C143.521,-46.8125 135.122,-40.0517 126.6,-35.3015 121.543,-32.4825 115.83,-30.1258 110.26,-28.199"/>
<polygon fill="black" stroke="black" points="111.148,-24.8099 100.56,-25.1881 109.073,-31.4953 111.148,-24.8099"/>
<text text-anchor="middle" x="122.6" y="-39.1015" font-family="Times New Roman,serif" font-size="14.00">b</text>
</g>
<!-- 1&#45;&gt;2 -->
<g id="edge7" class="edge"><title>1&#45;&gt;2</title>
<path fill="none" stroke="black" d="M188.52,-63.5032C195.809,-61.3192 203.848,-58.3068 210.6,-54.3015 216.351,-50.8904 221.928,-46.3852 226.877,-41.8039"/>
<polygon fill="black" stroke="black" points="229.424,-44.2083 234.073,-34.6884 224.502,-39.2308 229.424,-44.2083"/>
<text text-anchor="middle" x="208.6" y="-59.1015" font-family="Times New Roman,serif" font-size="14.00">j</text>
</g>
<!-- 2&#45;&gt;0 -->
<g id="edge4" class="edge"><title>2&#45;&gt;0</title>
<path fill="none" stroke="black" d="M229.49,-14.3822C218.263,-9.94838 202.809,-4.60734 188.6,-2.30153 169.297,0.830924 163.933,0.63968 144.6,-2.30153 132.717,-4.1094 119.963,-7.79132 109.206,-11.4367"/>
<polygon fill="black" stroke="black" points="107.844,-8.20643 99.5972,-14.8583 110.192,-14.8008 107.844,-8.20643"/>
<text text-anchor="middle" x="166.6" y="-6.10153" font-family="Times New Roman,serif" font-size="14.00">b</text>
</g>
<!-- 2&#45;&gt;1 -->
<g id="edge5" class="edge"><title>2&#45;&gt;1</title>
<path fill="none" stroke="black" d="M229.66,-27.7655C222.443,-30.9165 213.909,-34.9607 206.6,-39.3015 201.794,-42.1558 196.863,-45.4749 192.195,-48.8272"/>
<polygon fill="black" stroke="black" points="190.093,-46.028 184.157,-54.8037 194.27,-51.6452 190.093,-46.028"/>
<text text-anchor="middle" x="208.6" y="-43.1015" font-family="Times New Roman,serif" font-size="14.00">j</text>
</g>
</g>
</svg>
