<?xml version="1.0" encoding="UTF-8" standalone="no"?>
<!DOCTYPE svg PUBLIC "-//W3C//DTD SVG 1.1//EN"
 "http://www.w3.org/Graphics/SVG/1.1/DTD/svg11.dtd">
<!-- Generated by graphviz version 2.38.0 (20140413.2041)
 -->
<!-- Title: enfa Pages: 1 -->
<svg width="372pt" height="127pt"
 viewBox="0.00 0.00 371.60 127.00" xmlns="http://www.w3.org/2000/svg" xmlns:xlink="http://www.w3.org/1999/xlink">
<g id="graph0" class="graph" transform="scale(1 1) rotate(0) translate(4 123)">
<title>enfa</title>
<polygon fill="white" stroke="none" points="-4,4 -4,-123 367.6,-123 367.6,4 -4,4"/>
<!-- __start -->
<!-- 0 -->
<g id="node2" class="node"><title>0</title>
<ellipse fill="none" stroke="black" cx="91.6" cy="-42" rx="27" ry="18"/>
<text text-anchor="middle" x="91.6" y="-38.3" font-family="Times New Roman,serif" font-size="14.00">0</text>
</g>
<!-- __start&#45;&gt;0 -->
<g id="edge1" class="edge"><title>__start&#45;&gt;0</title>
<path fill="none" stroke="black" d="M3.78604,-42C8.86985,-42 32.7092,-42 54.1222,-42"/>
<polygon fill="black" stroke="black" points="54.3463,-45.5001 64.3463,-42 54.3463,-38.5001 54.3463,-45.5001"/>
<text text-anchor="middle" x="34.1" y="-45.8" font-family="Times New Roman,serif" font-size="14.00">start</text>
</g>
<!-- 1 -->
<g id="node3" class="node"><title>1</title>
<ellipse fill="none" stroke="black" cx="183.6" cy="-76" rx="18" ry="18"/>
<ellipse fill="none" stroke="black" cx="183.6" cy="-76" rx="22" ry="22"/>
<text text-anchor="middle" x="183.6" y="-72.3" font-family="Times New Roman,serif" font-size="14.00">1</text>
</g>
<!-- 0&#45;&gt;1 -->
<g id="edge4" class="edge"><title>0&#45;&gt;1</title>
<path fill="none" stroke="black" d="M115.777,-50.7558C127.17,-55.0599 141.026,-60.2942 153.16,-64.8783"/>
<polygon fill="black" stroke="black" points="152.264,-68.2813 162.856,-68.5412 154.738,-61.733 152.264,-68.2813"/>
<text text-anchor="middle" x="140.1" y="-64.8" font-family="Times New Roman,serif" font-size="14.00">c</text>
</g>
<!-- 3 -->
<g id="node5" class="node"><title>3</title>
<ellipse fill="none" stroke="black" cx="183.6" cy="-18" rx="18" ry="18"/>
<text text-anchor="middle" x="183.6" y="-14.3" font-family="Times New Roman,serif" font-size="14.00">3</text>
</g>
<!-- 0&#45;&gt;3 -->
<g id="edge3" class="edge"><title>0&#45;&gt;3</title>
<path fill="none" stroke="black" d="M116.743,-34.6187C123.176,-32.7197 130.136,-30.7266 136.6,-29 142.8,-27.3439 149.502,-25.6738 155.822,-24.1525"/>
<polygon fill="black" stroke="black" points="157.012,-27.4676 165.939,-21.7616 155.402,-20.6552 157.012,-27.4676"/>
<text text-anchor="middle" x="140.1" y="-32.8" font-family="Times New Roman,serif" font-size="14.00">c</text>
</g>
<!-- 4 -->
<g id="node6" class="node"><title>4</title>
<ellipse fill="none" stroke="black" cx="266.6" cy="-101" rx="18" ry="18"/>
<text text-anchor="middle" x="266.6" y="-97.3" font-family="Times New Roman,serif" font-size="14.00">4</text>
</g>
<!-- 1&#45;&gt;4 -->
<g id="edge5" class="edge"><title>1&#45;&gt;4</title>
<path fill="none" stroke="black" d="M205.04,-82.3086C215.517,-85.5424 228.391,-89.5158 239.571,-92.9664"/>
<polygon fill="black" stroke="black" points="238.658,-96.3473 249.245,-95.9522 240.722,-89.6586 238.658,-96.3473"/>
<text text-anchor="middle" x="227.1" y="-92.8" font-family="Times New Roman,serif" font-size="14.00">c</text>
</g>
<!-- 2 -->
<g id="node4" class="node"><title>2</title>
<ellipse fill="none" stroke="black" cx="345.6" cy="-71" rx="18" ry="18"/>
<text text-anchor="middle" x="345.6" y="-67.3" font-family="Times New Roman,serif" font-size="14.00">2</text>
</g>
<!-- 2&#45;&gt;1 -->
<g id="edge2" class="edge"><title>2&#45;&gt;1</title>
<path fill="none" stroke="black" d="M327.923,-66.744C315.957,-63.9169 299.4,-60.4655 284.6,-59 268.678,-57.4234 264.465,-56.9288 248.6,-59 237.283,-60.4774 225.119,-63.3654 214.467,-66.3478"/>
<polygon fill="black" stroke="black" points="213.4,-63.0133 204.794,-69.1932 215.375,-69.7288 213.4,-63.0133"/>
<text text-anchor="middle" x="266.6" y="-62.8" font-family="Times New Roman,serif" font-size="14.00">c</text>
</g>
<!-- 4&#45;&gt;2 -->
<g id="edge6" class="edge"><title>4&#45;&gt;2</title>
<path fill="none" stroke="black" d="M283.554,-94.784C293.879,-90.7615 307.543,-85.4379 319.326,-80.8472"/>
<polygon fill="black" stroke="black" points="320.619,-84.0996 328.666,-77.2081 318.078,-77.5772 320.619,-84.0996"/>
<text text-anchor="middle" x="306.1" y="-89.8" font-family="Times New Roman,serif" font-size="14.00">c</text>
</g>
</g>
</svg>
