<?xml version="1.0" encoding="UTF-8" standalone="no"?>
<!DOCTYPE svg PUBLIC "-//W3C//DTD SVG 1.1//EN"
 "http://www.w3.org/Graphics/SVG/1.1/DTD/svg11.dtd">
<!-- Generated by graphviz version 2.38.0 (20140413.2041)
 -->
<!-- Title: enfa Pages: 1 -->
<svg width="383pt" height="146pt"
 viewBox="0.00 0.00 382.60 146.00" xmlns="http://www.w3.org/2000/svg" xmlns:xlink="http://www.w3.org/1999/xlink">
<g id="graph0" class="graph" transform="scale(1 1) rotate(0) translate(4 142)">
<title>enfa</title>
<polygon fill="white" stroke="none" points="-4,4 -4,-142 378.6,-142 378.6,4 -4,4"/>
<!-- __start -->
<!-- 0 -->
<g id="node2" class="node"><title>0</title>
<ellipse fill="none" stroke="black" cx="82.6" cy="-40" rx="18" ry="18"/>
<text text-anchor="middle" x="82.6" y="-36.3" font-family="Times New Roman,serif" font-size="14.00">0</text>
</g>
<!-- __start&#45;&gt;0 -->
<g id="edge1" class="edge"><title>__start&#45;&gt;0</title>
<path fill="none" stroke="black" d="M3.68496,-40C8.69573,-40 34.008,-40 54.4423,-40"/>
<polygon fill="black" stroke="black" points="54.5501,-43.5001 64.5501,-40 54.5501,-36.5001 54.5501,-43.5001"/>
<text text-anchor="middle" x="34.1" y="-43.8" font-family="Times New Roman,serif" font-size="14.00">start</text>
</g>
<!-- 1 -->
<g id="node3" class="node"><title>1</title>
<ellipse fill="none" stroke="black" cx="165.6" cy="-69" rx="18" ry="18"/>
<ellipse fill="none" stroke="black" cx="165.6" cy="-69" rx="22" ry="22"/>
<text text-anchor="middle" x="165.6" y="-65.3" font-family="Times New Roman,serif" font-size="14.00">1</text>
</g>
<!-- 0&#45;&gt;1 -->
<g id="edge4" class="edge"><title>0&#45;&gt;1</title>
<path fill="none" stroke="black" d="M99.9916,-45.8686C110.032,-49.4632 123.179,-54.1704 134.992,-58.3996"/>
<polygon fill="black" stroke="black" points="133.908,-61.7291 144.503,-61.8047 136.268,-55.1387 133.908,-61.7291"/>
<text text-anchor="middle" x="122.1" y="-57.8" font-family="Times New Roman,serif" font-size="14.00">c</text>
</g>
<!-- 3 -->
<g id="node5" class="node"><title>3</title>
<ellipse fill="none" stroke="black" cx="223.6" cy="-18" rx="18" ry="18"/>
<text text-anchor="middle" x="223.6" y="-14.3" font-family="Times New Roman,serif" font-size="14.00">3</text>
</g>
<!-- 0&#45;&gt;3 -->
<g id="edge3" class="edge"><title>0&#45;&gt;3</title>
<path fill="none" stroke="black" d="M100.3,-36.4683C106.083,-35.2964 112.615,-34.0293 118.6,-33 144.627,-28.5238 174.475,-24.3134 195.499,-21.4996"/>
<polygon fill="black" stroke="black" points="196.168,-24.9418 205.623,-20.1614 195.25,-18.0022 196.168,-24.9418"/>
<text text-anchor="middle" x="122.1" y="-36.8" font-family="Times New Roman,serif" font-size="14.00">c</text>
</g>
<!-- 4 -->
<g id="node6" class="node"><title>4</title>
<ellipse fill="none" stroke="black" cx="277.6" cy="-120" rx="18" ry="18"/>
<text text-anchor="middle" x="277.6" y="-116.3" font-family="Times New Roman,serif" font-size="14.00">4</text>
</g>
<!-- 1&#45;&gt;4 -->
<g id="edge5" class="edge"><title>1&#45;&gt;4</title>
<path fill="none" stroke="black" d="M185.761,-77.8835C204.063,-86.3693 231.745,-99.2035 251.739,-108.473"/>
<polygon fill="black" stroke="black" points="250.317,-111.672 260.862,-112.703 253.261,-105.321 250.317,-111.672"/>
<text text-anchor="middle" x="223.6" y="-106.8" font-family="Times New Roman,serif" font-size="14.00">c</text>
</g>
<!-- 2 -->
<g id="node4" class="node"><title>2</title>
<ellipse fill="none" stroke="black" cx="356.6" cy="-69" rx="18" ry="18"/>
<text text-anchor="middle" x="356.6" y="-65.3" font-family="Times New Roman,serif" font-size="14.00">2</text>
</g>
<!-- 2&#45;&gt;1 -->
<g id="edge2" class="edge"><title>2&#45;&gt;1</title>
<path fill="none" stroke="black" d="M338.52,-69C306.783,-69 238.291,-69 197.995,-69"/>
<polygon fill="black" stroke="black" points="197.913,-65.5001 187.913,-69 197.913,-72.5001 197.913,-65.5001"/>
<text text-anchor="middle" x="277.6" y="-72.8" font-family="Times New Roman,serif" font-size="14.00">c</text>
</g>
<!-- 3&#45;&gt;2 -->
<g id="edge7" class="edge"><title>3&#45;&gt;2</title>
<path fill="none" stroke="black" d="M241.721,-19.6389C256.409,-21.4489 277.938,-25.0755 295.6,-32 308.774,-37.1649 322.287,-45.2121 333.146,-52.4844"/>
<polygon fill="black" stroke="black" points="331.365,-55.5086 341.578,-58.3305 335.354,-49.7562 331.365,-55.5086"/>
<text text-anchor="middle" x="277.6" y="-35.8" font-family="Times New Roman,serif" font-size="14.00">c</text>
</g>
<!-- 4&#45;&gt;2 -->
<g id="edge6" class="edge"><title>4&#45;&gt;2</title>
<path fill="none" stroke="black" d="M293.083,-110.407C304.268,-102.999 319.956,-92.6081 332.819,-84.0889"/>
<polygon fill="black" stroke="black" points="334.777,-86.9897 341.182,-78.5497 330.912,-81.1537 334.777,-86.9897"/>
<text text-anchor="middle" x="317.1" y="-99.8" font-family="Times New Roman,serif" font-size="14.00">c</text>
</g>
</g>
</svg>
