<?xml version="1.0" encoding="UTF-8" standalone="no"?>
<!DOCTYPE svg PUBLIC "-//W3C//DTD SVG 1.1//EN"
 "http://www.w3.org/Graphics/SVG/1.1/DTD/svg11.dtd">
<!-- Generated by graphviz version 2.38.0 (20140413.2041)
 -->
<!-- Title: dfa Pages: 1 -->
<svg width="293pt" height="81pt"
 viewBox="0.00 0.00 292.60 81.00" xmlns="http://www.w3.org/2000/svg" xmlns:xlink="http://www.w3.org/1999/xlink">
<g id="graph0" class="graph" transform="scale(1 1) rotate(0) translate(4 77)">
<title>dfa</title>
<polygon fill="white" stroke="none" points="-4,4 -4,-77 288.6,-77 288.6,4 -4,4"/>
<!-- __start -->
<!-- 0 -->
<g id="node2" class="node"><title>0</title>
<ellipse fill="none" stroke="black" cx="91.6" cy="-18" rx="27" ry="18"/>
<text text-anchor="middle" x="91.6" y="-14.3" font-family="Times New Roman,serif" font-size="14.00">0</text>
</g>
<!-- __start&#45;&gt;0 -->
<g id="edge1" class="edge"><title>__start&#45;&gt;0</title>
<path fill="none" stroke="black" d="M3.78604,-18C8.86985,-18 32.7092,-18 54.1222,-18"/>
<polygon fill="black" stroke="black" points="54.3463,-21.5001 64.3463,-18 54.3463,-14.5001 54.3463,-21.5001"/>
<text text-anchor="middle" x="34.1" y="-21.8" font-family="Times New Roman,serif" font-size="14.00">start</text>
</g>
<!-- 1 -->
<g id="node3" class="node"><title>1</title>
<ellipse fill="none" stroke="black" cx="183.6" cy="-51" rx="18" ry="18"/>
<ellipse fill="none" stroke="black" cx="183.6" cy="-51" rx="22" ry="22"/>
<text text-anchor="middle" x="183.6" y="-47.3" font-family="Times New Roman,serif" font-size="14.00">1</text>
</g>
<!-- 0&#45;&gt;1 -->
<g id="edge2" class="edge"><title>0&#45;&gt;1</title>
<path fill="none" stroke="black" d="M115.777,-26.4983C127.089,-30.646 140.828,-35.6836 152.9,-40.1099"/>
<polygon fill="black" stroke="black" points="151.964,-43.4947 162.558,-43.6513 154.374,-36.9226 151.964,-43.4947"/>
<text text-anchor="middle" x="140.1" y="-39.8" font-family="Times New Roman,serif" font-size="14.00">c</text>
</g>
<!-- 2 -->
<g id="node4" class="node"><title>2</title>
<ellipse fill="none" stroke="black" cx="266.6" cy="-18" rx="18" ry="18"/>
<text text-anchor="middle" x="266.6" y="-14.3" font-family="Times New Roman,serif" font-size="14.00">2</text>
</g>
<!-- 1&#45;&gt;2 -->
<g id="edge3" class="edge"><title>1&#45;&gt;2</title>
<path fill="none" stroke="black" d="M204.208,-43.0116C214.999,-38.6151 228.516,-33.1083 240.117,-28.3819"/>
<polygon fill="black" stroke="black" points="241.762,-31.491 249.703,-24.4767 239.121,-25.0084 241.762,-31.491"/>
<text text-anchor="middle" x="227.1" y="-37.8" font-family="Times New Roman,serif" font-size="14.00">c</text>
</g>
<!-- 2&#45;&gt;0 -->
<g id="edge4" class="edge"><title>2&#45;&gt;0</title>
<path fill="none" stroke="black" d="M248.945,-13.3901C236.99,-10.3279 220.437,-6.58889 205.6,-5 186.156,-2.91768 181.071,-3.18178 161.6,-5 150.379,-6.04785 138.263,-8.03438 127.363,-10.1449"/>
<polygon fill="black" stroke="black" points="126.455,-6.75774 117.353,-12.1798 127.85,-13.6174 126.455,-6.75774"/>
<text text-anchor="middle" x="183.6" y="-8.8" font-family="Times New Roman,serif" font-size="14.00">c</text>
</g>
</g>
</svg>
