<?xml version="1.0" encoding="UTF-8" standalone="no"?>
<!DOCTYPE svg PUBLIC "-//W3C//DTD SVG 1.1//EN"
 "http://www.w3.org/Graphics/SVG/1.1/DTD/svg11.dtd">
<!-- Generated by graphviz version 2.38.0 (20140413.2041)
 -->
<!-- Title: dfa Pages: 1 -->
<svg width="561pt" height="123pt"
 viewBox="0.00 0.00 561.07 123.09" xmlns="http://www.w3.org/2000/svg" xmlns:xlink="http://www.w3.org/1999/xlink">
<g id="graph0" class="graph" transform="scale(1 1) rotate(0) translate(4 119.095)">
<title>dfa</title>
<polygon fill="white" stroke="none" points="-4,4 -4,-119.095 557.074,-119.095 557.074,4 -4,4"/>
<!-- __start -->
<!-- {0} -->
<g id="node2" class="node"><title>{0}</title>
<ellipse fill="none" stroke="black" cx="88.6479" cy="-80.5473" rx="24.0958" ry="24.0958"/>
<text text-anchor="middle" x="88.6479" y="-76.8473" font-family="Times New Roman,serif" font-size="14.00">{0}</text>
</g>
<!-- __start&#45;&gt;{0} -->
<g id="edge1" class="edge"><title>__start&#45;&gt;{0}</title>
<path fill="none" stroke="black" d="M3.75288,-80.5473C8.82222,-80.5473 33.1893,-80.5473 54.3658,-80.5473"/>
<polygon fill="black" stroke="black" points="54.4068,-84.0474 64.4067,-80.5473 54.4067,-77.0474 54.4068,-84.0474"/>
<text text-anchor="middle" x="34.1" y="-84.3473" font-family="Times New Roman,serif" font-size="14.00">start</text>
</g>
<!-- {1,3} -->
<g id="node3" class="node"><title>{1,3}</title>
<ellipse fill="none" stroke="black" cx="190.243" cy="-80.5473" rx="30.5892" ry="30.5892"/>
<ellipse fill="none" stroke="black" cx="190.243" cy="-80.5473" rx="34.5946" ry="34.5946"/>
<text text-anchor="middle" x="190.243" y="-76.8473" font-family="Times New Roman,serif" font-size="14.00">{1,3}</text>
</g>
<!-- {0}&#45;&gt;{1,3} -->
<g id="edge2" class="edge"><title>{0}&#45;&gt;{1,3}</title>
<path fill="none" stroke="black" d="M112.747,-80.5473C122.426,-80.5473 134.016,-80.5473 145.211,-80.5473"/>
<polygon fill="black" stroke="black" points="145.316,-84.0474 155.316,-80.5473 145.316,-77.0474 145.316,-84.0474"/>
<text text-anchor="middle" x="134.196" y="-84.3473" font-family="Times New Roman,serif" font-size="14.00">c</text>
</g>
<!-- {2,4} -->
<g id="node6" class="node"><title>{2,4}</title>
<ellipse fill="none" stroke="black" cx="298.338" cy="-80.5473" rx="30.5947" ry="30.5947"/>
<text text-anchor="middle" x="298.338" y="-76.8473" font-family="Times New Roman,serif" font-size="14.00">{2,4}</text>
</g>
<!-- {1,3}&#45;&gt;{2,4} -->
<g id="edge3" class="edge"><title>{1,3}&#45;&gt;{2,4}</title>
<path fill="none" stroke="black" d="M224.812,-80.5473C235.209,-80.5473 246.766,-80.5473 257.542,-80.5473"/>
<polygon fill="black" stroke="black" points="257.573,-84.0474 267.573,-80.5473 257.573,-77.0474 257.573,-84.0474"/>
<text text-anchor="middle" x="246.29" y="-84.3473" font-family="Times New Roman,serif" font-size="14.00">c</text>
</g>
<!-- {1,2} -->
<g id="node4" class="node"><title>{1,2}</title>
<ellipse fill="none" stroke="black" cx="406.432" cy="-34.5473" rx="30.5892" ry="30.5892"/>
<ellipse fill="none" stroke="black" cx="406.432" cy="-34.5473" rx="34.5946" ry="34.5946"/>
<text text-anchor="middle" x="406.432" y="-30.8473" font-family="Times New Roman,serif" font-size="14.00">{1,2}</text>
</g>
<!-- {1,4} -->
<g id="node5" class="node"><title>{1,4}</title>
<ellipse fill="none" stroke="black" cx="518.527" cy="-80.5473" rx="30.5892" ry="30.5892"/>
<ellipse fill="none" stroke="black" cx="518.527" cy="-80.5473" rx="34.5946" ry="34.5946"/>
<text text-anchor="middle" x="518.527" y="-76.8473" font-family="Times New Roman,serif" font-size="14.00">{1,4}</text>
</g>
<!-- {1,2}&#45;&gt;{1,4} -->
<g id="edge5" class="edge"><title>{1,2}&#45;&gt;{1,4}</title>
<path fill="none" stroke="black" d="M438.686,-47.606C450.541,-52.5589 464.218,-58.2735 476.817,-63.538"/>
<polygon fill="black" stroke="black" points="475.618,-66.8301 486.194,-67.4559 478.317,-60.3712 475.618,-66.8301"/>
<text text-anchor="middle" x="462.479" y="-63.3473" font-family="Times New Roman,serif" font-size="14.00">c</text>
</g>
<!-- {1,4}&#45;&gt;{2,4} -->
<g id="edge6" class="edge"><title>{1,4}&#45;&gt;{2,4}</title>
<path fill="none" stroke="black" d="M483.713,-80.5473C444.706,-80.5473 380.639,-80.5473 339.229,-80.5473"/>
<polygon fill="black" stroke="black" points="339.218,-77.0474 329.218,-80.5473 339.218,-84.0474 339.218,-77.0474"/>
<text text-anchor="middle" x="406.432" y="-84.3473" font-family="Times New Roman,serif" font-size="14.00">c</text>
</g>
<!-- {2,4}&#45;&gt;{1,2} -->
<g id="edge4" class="edge"><title>{2,4}&#45;&gt;{1,2}</title>
<path fill="none" stroke="black" d="M326.66,-68.7011C338.304,-63.6525 352.13,-57.6578 364.924,-52.1106"/>
<polygon fill="black" stroke="black" points="366.671,-55.1681 374.453,-47.979 363.886,-48.7458 366.671,-55.1681"/>
<text text-anchor="middle" x="350.385" y="-63.3473" font-family="Times New Roman,serif" font-size="14.00">c</text>
</g>
</g>
</svg>
