<?xml version="1.0" encoding="UTF-8" standalone="no"?>
<!DOCTYPE svg PUBLIC "-//W3C//DTD SVG 1.1//EN"
 "http://www.w3.org/Graphics/SVG/1.1/DTD/svg11.dtd">
<!-- Generated by graphviz version 2.38.0 (20140413.2041)
 -->
<!-- Title: dfa Pages: 1 -->
<svg width="520pt" height="104pt"
 viewBox="0.00 0.00 519.98 103.60" xmlns="http://www.w3.org/2000/svg" xmlns:xlink="http://www.w3.org/1999/xlink">
<g id="graph0" class="graph" transform="scale(1 1) rotate(0) translate(4 99.5952)">
<title>dfa</title>
<polygon fill="white" stroke="none" points="-4,4 -4,-99.5952 515.982,-99.5952 515.982,4 -4,4"/>
<!-- __start -->
<!-- {0} -->
<g id="node2" class="node"><title>{0}</title>
<ellipse fill="none" stroke="black" cx="91.6" cy="-61.0479" rx="27" ry="18"/>
<text text-anchor="middle" x="91.6" y="-57.3479" font-family="Times New Roman,serif" font-size="14.00">{0}</text>
</g>
<!-- __start&#45;&gt;{0} -->
<g id="edge1" class="edge"><title>__start&#45;&gt;{0}</title>
<path fill="none" stroke="black" d="M3.78604,-61.0479C8.86985,-61.0479 32.7092,-61.0479 54.1222,-61.0479"/>
<polygon fill="black" stroke="black" points="54.3463,-64.548 64.3463,-61.0479 54.3463,-57.548 54.3463,-64.548"/>
<text text-anchor="middle" x="34.1" y="-64.8479" font-family="Times New Roman,serif" font-size="14.00">start</text>
</g>
<!-- {1,3} -->
<g id="node3" class="node"><title>{1,3}</title>
<ellipse fill="none" stroke="black" cx="196.147" cy="-61.0479" rx="30.5892" ry="30.5892"/>
<ellipse fill="none" stroke="black" cx="196.147" cy="-61.0479" rx="34.5946" ry="34.5946"/>
<text text-anchor="middle" x="196.147" y="-57.3479" font-family="Times New Roman,serif" font-size="14.00">{1,3}</text>
</g>
<!-- {0}&#45;&gt;{1,3} -->
<g id="edge2" class="edge"><title>{0}&#45;&gt;{1,3}</title>
<path fill="none" stroke="black" d="M118.742,-61.0479C128.546,-61.0479 139.977,-61.0479 150.966,-61.0479"/>
<polygon fill="black" stroke="black" points="151.298,-64.548 161.297,-61.0479 151.297,-57.548 151.298,-64.548"/>
<text text-anchor="middle" x="140.1" y="-64.8479" font-family="Times New Roman,serif" font-size="14.00">c</text>
</g>
<!-- {4} -->
<g id="node5" class="node"><title>{4}</title>
<ellipse fill="none" stroke="black" cx="297.742" cy="-61.0479" rx="24.0958" ry="24.0958"/>
<text text-anchor="middle" x="297.742" y="-57.3479" font-family="Times New Roman,serif" font-size="14.00">{4}</text>
</g>
<!-- {1,3}&#45;&gt;{4} -->
<g id="edge3" class="edge"><title>{1,3}&#45;&gt;{4}</title>
<path fill="none" stroke="black" d="M230.866,-61.0479C241.362,-61.0479 252.926,-61.0479 263.397,-61.0479"/>
<polygon fill="black" stroke="black" points="263.423,-64.548 273.423,-61.0479 263.423,-57.548 263.423,-64.548"/>
<text text-anchor="middle" x="252.195" y="-64.8479" font-family="Times New Roman,serif" font-size="14.00">c</text>
</g>
<!-- {1} -->
<g id="node4" class="node"><title>{1}</title>
<ellipse fill="none" stroke="black" cx="483.934" cy="-61.0479" rx="24.089" ry="24.089"/>
<ellipse fill="none" stroke="black" cx="483.934" cy="-61.0479" rx="28.0958" ry="28.0958"/>
<text text-anchor="middle" x="483.934" y="-57.3479" font-family="Times New Roman,serif" font-size="14.00">{1}</text>
</g>
<!-- {1}&#45;&gt;{4} -->
<g id="edge6" class="edge"><title>{1}&#45;&gt;{4}</title>
<path fill="none" stroke="black" d="M455.758,-61.5474C426.964,-62.0042 380.172,-62.5397 339.79,-62.0479 337.385,-62.0186 334.9,-61.9796 332.399,-61.9341"/>
<polygon fill="black" stroke="black" points="332.256,-58.4303 322.184,-61.7175 332.108,-65.4288 332.256,-58.4303"/>
<text text-anchor="middle" x="388.838" y="-65.8479" font-family="Times New Roman,serif" font-size="14.00">c</text>
</g>
<!-- {2} -->
<g id="node6" class="node"><title>{2}</title>
<ellipse fill="none" stroke="black" cx="388.838" cy="-24.0479" rx="24.0958" ry="24.0958"/>
<text text-anchor="middle" x="388.838" y="-20.3479" font-family="Times New Roman,serif" font-size="14.00">{2}</text>
</g>
<!-- {4}&#45;&gt;{2} -->
<g id="edge4" class="edge"><title>{4}&#45;&gt;{2}</title>
<path fill="none" stroke="black" d="M320.31,-52.0912C331.363,-47.501 345.016,-41.8313 357.146,-36.7938"/>
<polygon fill="black" stroke="black" points="358.576,-39.9897 366.469,-32.9221 355.892,-33.525 358.576,-39.9897"/>
<text text-anchor="middle" x="343.29" y="-46.8479" font-family="Times New Roman,serif" font-size="14.00">c</text>
</g>
<!-- {2}&#45;&gt;{1} -->
<g id="edge5" class="edge"><title>{2}&#45;&gt;{1}</title>
<path fill="none" stroke="black" d="M411.43,-32.6294C422.28,-36.9417 435.699,-42.2748 447.97,-47.152"/>
<polygon fill="black" stroke="black" points="446.909,-50.4965 457.495,-50.9375 449.495,-43.9915 446.909,-50.4965"/>
<text text-anchor="middle" x="434.386" y="-45.8479" font-family="Times New Roman,serif" font-size="14.00">c</text>
</g>
</g>
</svg>
