<?xml version="1.0" encoding="UTF-8" standalone="no"?>
<!DOCTYPE svg PUBLIC "-//W3C//DTD SVG 1.1//EN"
 "http://www.w3.org/Graphics/SVG/1.1/DTD/svg11.dtd">
<!-- Generated by graphviz version 2.38.0 (20140413.2041)
 -->
<!-- Title: enfa Pages: 1 -->
<svg width="443pt" height="101pt"
 viewBox="0.00 0.00 442.60 101.00" xmlns="http://www.w3.org/2000/svg" xmlns:xlink="http://www.w3.org/1999/xlink">
<g id="graph0" class="graph" transform="scale(1 1) rotate(0) translate(4 97)">
<title>enfa</title>
<polygon fill="white" stroke="none" points="-4,4 -4,-97 438.6,-97 438.6,4 -4,4"/>
<!-- __start -->
<!-- 0 -->
<g id="node2" class="node"><title>0</title>
<ellipse fill="none" stroke="black" cx="86.6" cy="-51" rx="18" ry="18"/>
<ellipse fill="none" stroke="black" cx="86.6" cy="-51" rx="22" ry="22"/>
<text text-anchor="middle" x="86.6" y="-47.3" font-family="Times New Roman,serif" font-size="14.00">0</text>
</g>
<!-- __start&#45;&gt;0 -->
<g id="edge1" class="edge"><title>__start&#45;&gt;0</title>
<path fill="none" stroke="black" d="M3.72988,-51C8.77597,-51 33.4162,-51 54.3593,-51"/>
<polygon fill="black" stroke="black" points="54.5455,-54.5001 64.5454,-51 54.5454,-47.5001 54.5455,-54.5001"/>
<text text-anchor="middle" x="34.1" y="-54.8" font-family="Times New Roman,serif" font-size="14.00">start</text>
</g>
<!-- 1 -->
<g id="node3" class="node"><title>1</title>
<ellipse fill="none" stroke="black" cx="253.6" cy="-68" rx="18" ry="18"/>
<ellipse fill="none" stroke="black" cx="253.6" cy="-68" rx="22" ry="22"/>
<text text-anchor="middle" x="253.6" y="-64.3" font-family="Times New Roman,serif" font-size="14.00">1</text>
</g>
<!-- 0&#45;&gt;1 -->
<g id="edge10" class="edge"><title>0&#45;&gt;1</title>
<path fill="none" stroke="black" d="M108.497,-53.1531C137.058,-56.0957 188.504,-61.3961 221.573,-64.8033"/>
<polygon fill="black" stroke="black" points="221.306,-68.2942 231.612,-65.8376 222.024,-61.3311 221.306,-68.2942"/>
<text text-anchor="middle" x="169.6" y="-64.8" font-family="Times New Roman,serif" font-size="14.00">q</text>
</g>
<!-- 2 -->
<g id="node4" class="node"><title>2</title>
<ellipse fill="none" stroke="black" cx="169.6" cy="-18" rx="18" ry="18"/>
<text text-anchor="middle" x="169.6" y="-14.3" font-family="Times New Roman,serif" font-size="14.00">2</text>
</g>
<!-- 0&#45;&gt;2 -->
<g id="edge3" class="edge"><title>0&#45;&gt;2</title>
<path fill="none" stroke="black" d="M107.208,-43.0116C117.999,-38.6151 131.516,-33.1083 143.117,-28.3819"/>
<polygon fill="black" stroke="black" points="144.762,-31.491 152.703,-24.4767 142.121,-25.0084 144.762,-31.491"/>
<text text-anchor="middle" x="130.1" y="-37.8" font-family="Times New Roman,serif" font-size="14.00">s</text>
</g>
<!-- 3 -->
<g id="node5" class="node"><title>3</title>
<ellipse fill="none" stroke="black" cx="336.6" cy="-42" rx="18" ry="18"/>
<text text-anchor="middle" x="336.6" y="-38.3" font-family="Times New Roman,serif" font-size="14.00">3</text>
</g>
<!-- 1&#45;&gt;3 -->
<g id="edge5" class="edge"><title>1&#45;&gt;3</title>
<path fill="none" stroke="black" d="M275.464,-64.4501C283.432,-62.839 292.536,-60.6851 300.6,-58 303.999,-56.8681 307.51,-55.5084 310.937,-54.0659"/>
<polygon fill="black" stroke="black" points="312.52,-57.1918 320.208,-49.902 309.652,-50.8062 312.52,-57.1918"/>
<text text-anchor="middle" x="297.1" y="-62.8" font-family="Times New Roman,serif" font-size="14.00">ε</text>
</g>
<!-- 1&#45;&gt;3 -->
<g id="edge11" class="edge"><title>1&#45;&gt;3</title>
<path fill="none" stroke="black" d="M269.959,-53.0008C276.656,-47.4727 284.949,-41.8639 293.6,-39 298.38,-37.4176 303.628,-36.9039 308.746,-36.9983"/>
<polygon fill="black" stroke="black" points="308.608,-40.4997 318.878,-37.8986 309.227,-33.5271 308.608,-40.4997"/>
<text text-anchor="middle" x="297.1" y="-42.8" font-family="Times New Roman,serif" font-size="14.00">s</text>
</g>
<!-- 2&#45;&gt;1 -->
<g id="edge4" class="edge"><title>2&#45;&gt;1</title>
<path fill="none" stroke="black" d="M185.819,-26.6338C194.088,-31.3785 204.462,-37.4184 213.6,-43 217.757,-45.539 222.129,-48.2758 226.383,-50.9748"/>
<polygon fill="black" stroke="black" points="224.531,-53.9447 234.841,-56.3861 228.304,-48.0483 224.531,-53.9447"/>
<text text-anchor="middle" x="209.6" y="-46.8" font-family="Times New Roman,serif" font-size="14.00">q</text>
</g>
<!-- 2&#45;&gt;3 -->
<g id="edge2" class="edge"><title>2&#45;&gt;3</title>
<path fill="none" stroke="black" d="M187.857,-17.1721C208.797,-16.5076 245.088,-16.4506 275.6,-22 287.225,-24.1143 299.678,-27.985 310.21,-31.7619"/>
<polygon fill="black" stroke="black" points="309.036,-35.0597 319.628,-35.2939 311.494,-28.5054 309.036,-35.0597"/>
<text text-anchor="middle" x="253.6" y="-25.8" font-family="Times New Roman,serif" font-size="14.00">s</text>
</g>
<!-- 4 -->
<g id="node6" class="node"><title>4</title>
<ellipse fill="none" stroke="black" cx="416.6" cy="-42" rx="18" ry="18"/>
<text text-anchor="middle" x="416.6" y="-38.3" font-family="Times New Roman,serif" font-size="14.00">4</text>
</g>
<!-- 3&#45;&gt;4 -->
<g id="edge8" class="edge"><title>3&#45;&gt;4</title>
<path fill="none" stroke="black" d="M352.784,-50.6602C358.761,-53.6039 365.811,-56.5217 372.6,-58 379.036,-59.4012 385.8,-58.228 392.009,-55.9973"/>
<polygon fill="black" stroke="black" points="393.52,-59.1555 401.183,-51.8393 390.63,-52.7798 393.52,-59.1555"/>
<text text-anchor="middle" x="376.6" y="-61.8" font-family="Times New Roman,serif" font-size="14.00">q</text>
</g>
<!-- 3&#45;&gt;4 -->
<g id="edge9" class="edge"><title>3&#45;&gt;4</title>
<path fill="none" stroke="black" d="M354.746,-39.9183C362.617,-39.1904 372.077,-38.6354 380.6,-39 383.159,-39.1095 385.821,-39.2638 388.482,-39.4453"/>
<polygon fill="black" stroke="black" points="388.283,-42.9404 398.529,-40.2425 388.837,-35.9623 388.283,-42.9404"/>
<text text-anchor="middle" x="376.6" y="-42.8" font-family="Times New Roman,serif" font-size="14.00">ε</text>
</g>
<!-- 4&#45;&gt;3 -->
<g id="edge7" class="edge"><title>4&#45;&gt;3</title>
<path fill="none" stroke="black" d="M407.195,-26.2026C399.261,-13.6098 386.53,0.998045 372.6,-5 365.342,-8.12534 358.885,-13.5782 353.556,-19.3525"/>
<polygon fill="black" stroke="black" points="350.706,-17.3055 347.017,-27.2373 356.095,-21.7739 350.706,-17.3055"/>
<text text-anchor="middle" x="376.6" y="-8.8" font-family="Times New Roman,serif" font-size="14.00">ε</text>
</g>
<!-- 4&#45;&gt;4 -->
<g id="edge6" class="edge"><title>4&#45;&gt;4</title>
<path fill="none" stroke="black" d="M409.569,-58.6641C408.006,-68.625 410.35,-78 416.6,-78 420.604,-78 423.005,-74.1525 423.802,-68.7682"/>
<polygon fill="black" stroke="black" points="427.3,-68.6033 423.631,-58.6641 420.301,-68.7219 427.3,-68.6033"/>
<text text-anchor="middle" x="416.6" y="-81.8" font-family="Times New Roman,serif" font-size="14.00">s</text>
</g>
</g>
</svg>
