<?xml version="1.0" encoding="UTF-8" standalone="no"?>
<!DOCTYPE svg PUBLIC "-//W3C//DTD SVG 1.1//EN"
 "http://www.w3.org/Graphics/SVG/1.1/DTD/svg11.dtd">
<!-- Generated by graphviz version 2.38.0 (20140413.2041)
 -->
<!-- Title: enfa Pages: 1 -->
<svg width="453pt" height="101pt"
 viewBox="0.00 0.00 452.60 101.00" xmlns="http://www.w3.org/2000/svg" xmlns:xlink="http://www.w3.org/1999/xlink">
<g id="graph0" class="graph" transform="scale(1 1) rotate(0) translate(4 97)">
<title>enfa</title>
<polygon fill="white" stroke="none" points="-4,4 -4,-97 448.6,-97 448.6,4 -4,4"/>
<!-- __start -->
<!-- 0 -->
<g id="node2" class="node"><title>0</title>
<ellipse fill="none" stroke="black" cx="91.6" cy="-51" rx="27" ry="18"/>
<text text-anchor="middle" x="91.6" y="-47.3" font-family="Times New Roman,serif" font-size="14.00">0</text>
</g>
<!-- __start&#45;&gt;0 -->
<g id="edge1" class="edge"><title>__start&#45;&gt;0</title>
<path fill="none" stroke="black" d="M3.78604,-51C8.86985,-51 32.7092,-51 54.1222,-51"/>
<polygon fill="black" stroke="black" points="54.3463,-54.5001 64.3463,-51 54.3463,-47.5001 54.3463,-54.5001"/>
<text text-anchor="middle" x="34.1" y="-54.8" font-family="Times New Roman,serif" font-size="14.00">start</text>
</g>
<!-- 1 -->
<g id="node3" class="node"><title>1</title>
<ellipse fill="none" stroke="black" cx="263.6" cy="-68" rx="18" ry="18"/>
<ellipse fill="none" stroke="black" cx="263.6" cy="-68" rx="22" ry="22"/>
<text text-anchor="middle" x="263.6" y="-64.3" font-family="Times New Roman,serif" font-size="14.00">1</text>
</g>
<!-- 0&#45;&gt;1 -->
<g id="edge10" class="edge"><title>0&#45;&gt;1</title>
<path fill="none" stroke="black" d="M118.419,-53.5819C148.712,-56.6112 198.913,-61.6313 231.369,-64.8769"/>
<polygon fill="black" stroke="black" points="231.343,-68.3917 241.641,-65.9041 232.039,-61.4264 231.343,-68.3917"/>
<text text-anchor="middle" x="179.6" y="-64.8" font-family="Times New Roman,serif" font-size="14.00">q</text>
</g>
<!-- 2 -->
<g id="node4" class="node"><title>2</title>
<ellipse fill="none" stroke="black" cx="179.6" cy="-18" rx="18" ry="18"/>
<text text-anchor="middle" x="179.6" y="-14.3" font-family="Times New Roman,serif" font-size="14.00">2</text>
</g>
<!-- 0&#45;&gt;2 -->
<g id="edge3" class="edge"><title>0&#45;&gt;2</title>
<path fill="none" stroke="black" d="M115.646,-42.1566C127.23,-37.7118 141.296,-32.3145 153.191,-27.75"/>
<polygon fill="black" stroke="black" points="154.488,-31.0011 162.571,-24.1508 151.98,-24.4657 154.488,-31.0011"/>
<text text-anchor="middle" x="140.1" y="-36.8" font-family="Times New Roman,serif" font-size="14.00">s</text>
</g>
<!-- 3 -->
<g id="node5" class="node"><title>3</title>
<ellipse fill="none" stroke="black" cx="346.6" cy="-42" rx="18" ry="18"/>
<text text-anchor="middle" x="346.6" y="-38.3" font-family="Times New Roman,serif" font-size="14.00">3</text>
</g>
<!-- 1&#45;&gt;3 -->
<g id="edge5" class="edge"><title>1&#45;&gt;3</title>
<path fill="none" stroke="black" d="M285.464,-64.4501C293.432,-62.839 302.536,-60.6851 310.6,-58 313.999,-56.8681 317.51,-55.5084 320.937,-54.0659"/>
<polygon fill="black" stroke="black" points="322.52,-57.1918 330.208,-49.902 319.652,-50.8062 322.52,-57.1918"/>
<text text-anchor="middle" x="307.1" y="-62.8" font-family="Times New Roman,serif" font-size="14.00">ε</text>
</g>
<!-- 1&#45;&gt;3 -->
<g id="edge11" class="edge"><title>1&#45;&gt;3</title>
<path fill="none" stroke="black" d="M279.959,-53.0008C286.656,-47.4727 294.949,-41.8639 303.6,-39 308.38,-37.4176 313.628,-36.9039 318.746,-36.9983"/>
<polygon fill="black" stroke="black" points="318.608,-40.4997 328.878,-37.8986 319.227,-33.5271 318.608,-40.4997"/>
<text text-anchor="middle" x="307.1" y="-42.8" font-family="Times New Roman,serif" font-size="14.00">s</text>
</g>
<!-- 2&#45;&gt;1 -->
<g id="edge4" class="edge"><title>2&#45;&gt;1</title>
<path fill="none" stroke="black" d="M195.819,-26.6338C204.088,-31.3785 214.462,-37.4184 223.6,-43 227.757,-45.539 232.129,-48.2758 236.383,-50.9748"/>
<polygon fill="black" stroke="black" points="234.531,-53.9447 244.841,-56.3861 238.304,-48.0483 234.531,-53.9447"/>
<text text-anchor="middle" x="219.6" y="-46.8" font-family="Times New Roman,serif" font-size="14.00">q</text>
</g>
<!-- 2&#45;&gt;3 -->
<g id="edge2" class="edge"><title>2&#45;&gt;3</title>
<path fill="none" stroke="black" d="M197.857,-17.1721C218.797,-16.5076 255.088,-16.4506 285.6,-22 297.225,-24.1143 309.678,-27.985 320.21,-31.7619"/>
<polygon fill="black" stroke="black" points="319.036,-35.0597 329.628,-35.2939 321.494,-28.5054 319.036,-35.0597"/>
<text text-anchor="middle" x="263.6" y="-25.8" font-family="Times New Roman,serif" font-size="14.00">s</text>
</g>
<!-- 4 -->
<g id="node6" class="node"><title>4</title>
<ellipse fill="none" stroke="black" cx="426.6" cy="-42" rx="18" ry="18"/>
<text text-anchor="middle" x="426.6" y="-38.3" font-family="Times New Roman,serif" font-size="14.00">4</text>
</g>
<!-- 3&#45;&gt;4 -->
<g id="edge8" class="edge"><title>3&#45;&gt;4</title>
<path fill="none" stroke="black" d="M362.784,-50.6602C368.761,-53.6039 375.811,-56.5217 382.6,-58 389.036,-59.4012 395.8,-58.228 402.009,-55.9973"/>
<polygon fill="black" stroke="black" points="403.52,-59.1555 411.183,-51.8393 400.63,-52.7798 403.52,-59.1555"/>
<text text-anchor="middle" x="386.6" y="-61.8" font-family="Times New Roman,serif" font-size="14.00">q</text>
</g>
<!-- 3&#45;&gt;4 -->
<g id="edge9" class="edge"><title>3&#45;&gt;4</title>
<path fill="none" stroke="black" d="M364.746,-39.9183C372.617,-39.1904 382.077,-38.6354 390.6,-39 393.159,-39.1095 395.821,-39.2638 398.482,-39.4453"/>
<polygon fill="black" stroke="black" points="398.283,-42.9404 408.529,-40.2425 398.837,-35.9623 398.283,-42.9404"/>
<text text-anchor="middle" x="386.6" y="-42.8" font-family="Times New Roman,serif" font-size="14.00">ε</text>
</g>
<!-- 4&#45;&gt;3 -->
<g id="edge7" class="edge"><title>4&#45;&gt;3</title>
<path fill="none" stroke="black" d="M417.195,-26.2026C409.261,-13.6098 396.53,0.998045 382.6,-5 375.342,-8.12534 368.885,-13.5782 363.556,-19.3525"/>
<polygon fill="black" stroke="black" points="360.706,-17.3055 357.017,-27.2373 366.095,-21.7739 360.706,-17.3055"/>
<text text-anchor="middle" x="386.6" y="-8.8" font-family="Times New Roman,serif" font-size="14.00">ε</text>
</g>
<!-- 4&#45;&gt;4 -->
<g id="edge6" class="edge"><title>4&#45;&gt;4</title>
<path fill="none" stroke="black" d="M419.569,-58.6641C418.006,-68.625 420.35,-78 426.6,-78 430.604,-78 433.005,-74.1525 433.802,-68.7682"/>
<polygon fill="black" stroke="black" points="437.3,-68.6033 433.631,-58.6641 430.301,-68.7219 437.3,-68.6033"/>
<text text-anchor="middle" x="426.6" y="-81.8" font-family="Times New Roman,serif" font-size="14.00">s</text>
</g>
</g>
</svg>
