<?xml version="1.0" encoding="UTF-8" standalone="no"?>
<!DOCTYPE svg PUBLIC "-//W3C//DTD SVG 1.1//EN"
 "http://www.w3.org/Graphics/SVG/1.1/DTD/svg11.dtd">
<!-- Generated by graphviz version 2.38.0 (20140413.2041)
 -->
<!-- Title: dfa Pages: 1 -->
<svg width="374pt" height="134pt"
 viewBox="0.00 0.00 373.60 134.00" xmlns="http://www.w3.org/2000/svg" xmlns:xlink="http://www.w3.org/1999/xlink">
<g id="graph0" class="graph" transform="scale(1 1) rotate(0) translate(4 130)">
<title>dfa</title>
<polygon fill="white" stroke="none" points="-4,4 -4,-130 369.6,-130 369.6,4 -4,4"/>
<!-- __start -->
<!-- 0 -->
<g id="node2" class="node"><title>0</title>
<ellipse fill="none" stroke="black" cx="91.6" cy="-51" rx="27" ry="18"/>
<text text-anchor="middle" x="91.6" y="-47.3" font-family="Times New Roman,serif" font-size="14.00">0</text>
</g>
<!-- __start&#45;&gt;0 -->
<g id="edge1" class="edge"><title>__start&#45;&gt;0</title>
<path fill="none" stroke="black" d="M3.78604,-51C8.86985,-51 32.7092,-51 54.1222,-51"/>
<polygon fill="black" stroke="black" points="54.3463,-54.5001 64.3463,-51 54.3463,-47.5001 54.3463,-54.5001"/>
<text text-anchor="middle" x="34.1" y="-54.8" font-family="Times New Roman,serif" font-size="14.00">start</text>
</g>
<!-- 1 -->
<g id="node3" class="node"><title>1</title>
<ellipse fill="none" stroke="black" cx="263.6" cy="-68" rx="18" ry="18"/>
<ellipse fill="none" stroke="black" cx="263.6" cy="-68" rx="22" ry="22"/>
<text text-anchor="middle" x="263.6" y="-64.3" font-family="Times New Roman,serif" font-size="14.00">1</text>
</g>
<!-- 0&#45;&gt;1 -->
<g id="edge3" class="edge"><title>0&#45;&gt;1</title>
<path fill="none" stroke="black" d="M118.419,-53.5819C148.712,-56.6112 198.913,-61.6313 231.369,-64.8769"/>
<polygon fill="black" stroke="black" points="231.343,-68.3917 241.641,-65.9041 232.039,-61.4264 231.343,-68.3917"/>
<text text-anchor="middle" x="179.6" y="-64.8" font-family="Times New Roman,serif" font-size="14.00">q</text>
</g>
<!-- 2 -->
<g id="node4" class="node"><title>2</title>
<ellipse fill="none" stroke="black" cx="179.6" cy="-18" rx="18" ry="18"/>
<text text-anchor="middle" x="179.6" y="-14.3" font-family="Times New Roman,serif" font-size="14.00">2</text>
</g>
<!-- 0&#45;&gt;2 -->
<g id="edge2" class="edge"><title>0&#45;&gt;2</title>
<path fill="none" stroke="black" d="M115.646,-42.1566C127.23,-37.7118 141.296,-32.3145 153.191,-27.75"/>
<polygon fill="black" stroke="black" points="154.488,-31.0011 162.571,-24.1508 151.98,-24.4657 154.488,-31.0011"/>
<text text-anchor="middle" x="140.1" y="-36.8" font-family="Times New Roman,serif" font-size="14.00">s</text>
</g>
<!-- 3 -->
<g id="node5" class="node"><title>3</title>
<ellipse fill="none" stroke="black" cx="347.6" cy="-42" rx="18" ry="18"/>
<text text-anchor="middle" x="347.6" y="-38.3" font-family="Times New Roman,serif" font-size="14.00">3</text>
</g>
<!-- 1&#45;&gt;3 -->
<g id="edge8" class="edge"><title>1&#45;&gt;3</title>
<path fill="none" stroke="black" d="M285.451,-64.5818C293.703,-62.9665 303.204,-60.775 311.6,-58 315.002,-56.8757 318.514,-55.5203 321.942,-54.08"/>
<polygon fill="black" stroke="black" points="323.524,-57.2062 331.213,-49.9175 320.657,-50.8202 323.524,-57.2062"/>
<text text-anchor="middle" x="307.6" y="-63.8" font-family="Times New Roman,serif" font-size="14.00">s</text>
</g>
<!-- 1&#45;&gt;3 -->
<g id="edge9" class="edge"><title>1&#45;&gt;3</title>
<path fill="none" stroke="black" d="M279.959,-53.0008C286.656,-47.4727 294.949,-41.8639 303.6,-39 308.708,-37.3089 314.34,-36.8044 319.797,-36.9535"/>
<polygon fill="black" stroke="black" points="319.609,-40.4513 329.894,-37.9053 320.266,-33.4821 319.609,-40.4513"/>
<text text-anchor="middle" x="307.6" y="-42.8" font-family="Times New Roman,serif" font-size="14.00">q</text>
</g>
<!-- 2&#45;&gt;1 -->
<g id="edge5" class="edge"><title>2&#45;&gt;1</title>
<path fill="none" stroke="black" d="M195.819,-26.6338C204.088,-31.3785 214.462,-37.4184 223.6,-43 227.757,-45.539 232.129,-48.2758 236.383,-50.9748"/>
<polygon fill="black" stroke="black" points="234.531,-53.9447 244.841,-56.3861 238.304,-48.0483 234.531,-53.9447"/>
<text text-anchor="middle" x="219.6" y="-46.8" font-family="Times New Roman,serif" font-size="14.00">q</text>
</g>
<!-- 2&#45;&gt;3 -->
<g id="edge4" class="edge"><title>2&#45;&gt;3</title>
<path fill="none" stroke="black" d="M197.853,-17.1976C218.788,-16.5581 255.075,-16.5257 285.6,-22 297.488,-24.1319 310.242,-28.0427 320.999,-31.8444"/>
<polygon fill="black" stroke="black" points="320.013,-35.2114 330.606,-35.3942 322.439,-28.6453 320.013,-35.2114"/>
<text text-anchor="middle" x="263.6" y="-25.8" font-family="Times New Roman,serif" font-size="14.00">s</text>
</g>
<!-- 3&#45;&gt;3 -->
<g id="edge6" class="edge"><title>3&#45;&gt;3</title>
<path fill="none" stroke="black" d="M344.005,-59.7817C343.394,-69.3149 344.592,-78 347.6,-78 349.433,-78 350.594,-74.7749 351.083,-70.0981"/>
<polygon fill="black" stroke="black" points="354.586,-69.8193 351.195,-59.7817 347.587,-69.743 354.586,-69.8193"/>
<text text-anchor="middle" x="347.6" y="-81.8" font-family="Times New Roman,serif" font-size="14.00">s</text>
</g>
<!-- 3&#45;&gt;3 -->
<g id="edge7" class="edge"><title>3&#45;&gt;3</title>
<path fill="none" stroke="black" d="M341.748,-59.1418C338.306,-76.585 340.256,-96 347.6,-96 353.509,-96 355.927,-83.4283 354.852,-69.4287"/>
<polygon fill="black" stroke="black" points="358.269,-68.5785 353.452,-59.1418 351.332,-69.5224 358.269,-68.5785"/>
<text text-anchor="middle" x="347.6" y="-99.8" font-family="Times New Roman,serif" font-size="14.00">q</text>
</g>
</g>
</svg>
