<?xml version="1.0" encoding="UTF-8" standalone="no"?>
<!DOCTYPE svg PUBLIC "-//W3C//DTD SVG 1.1//EN"
 "http://www.w3.org/Graphics/SVG/1.1/DTD/svg11.dtd">
<!-- Generated by graphviz version 2.38.0 (20140413.2041)
 -->
<!-- Title: dfa Pages: 1 -->
<svg width="364pt" height="134pt"
 viewBox="0.00 0.00 363.60 134.00" xmlns="http://www.w3.org/2000/svg" xmlns:xlink="http://www.w3.org/1999/xlink">
<g id="graph0" class="graph" transform="scale(1 1) rotate(0) translate(4 130)">
<title>dfa</title>
<polygon fill="white" stroke="none" points="-4,4 -4,-130 359.6,-130 359.6,4 -4,4"/>
<!-- __start -->
<!-- 0 -->
<g id="node2" class="node"><title>0</title>
<ellipse fill="none" stroke="black" cx="86.6" cy="-51" rx="18" ry="18"/>
<ellipse fill="none" stroke="black" cx="86.6" cy="-51" rx="22" ry="22"/>
<text text-anchor="middle" x="86.6" y="-47.3" font-family="Times New Roman,serif" font-size="14.00">0</text>
</g>
<!-- __start&#45;&gt;0 -->
<g id="edge1" class="edge"><title>__start&#45;&gt;0</title>
<path fill="none" stroke="black" d="M3.72988,-51C8.77597,-51 33.4162,-51 54.3593,-51"/>
<polygon fill="black" stroke="black" points="54.5455,-54.5001 64.5454,-51 54.5454,-47.5001 54.5455,-54.5001"/>
<text text-anchor="middle" x="34.1" y="-54.8" font-family="Times New Roman,serif" font-size="14.00">start</text>
</g>
<!-- 1 -->
<g id="node3" class="node"><title>1</title>
<ellipse fill="none" stroke="black" cx="253.6" cy="-68" rx="18" ry="18"/>
<ellipse fill="none" stroke="black" cx="253.6" cy="-68" rx="22" ry="22"/>
<text text-anchor="middle" x="253.6" y="-64.3" font-family="Times New Roman,serif" font-size="14.00">1</text>
</g>
<!-- 0&#45;&gt;1 -->
<g id="edge3" class="edge"><title>0&#45;&gt;1</title>
<path fill="none" stroke="black" d="M108.497,-53.1531C137.058,-56.0957 188.504,-61.3961 221.573,-64.8033"/>
<polygon fill="black" stroke="black" points="221.306,-68.2942 231.612,-65.8376 222.024,-61.3311 221.306,-68.2942"/>
<text text-anchor="middle" x="169.6" y="-64.8" font-family="Times New Roman,serif" font-size="14.00">q</text>
</g>
<!-- 2 -->
<g id="node4" class="node"><title>2</title>
<ellipse fill="none" stroke="black" cx="169.6" cy="-18" rx="18" ry="18"/>
<text text-anchor="middle" x="169.6" y="-14.3" font-family="Times New Roman,serif" font-size="14.00">2</text>
</g>
<!-- 0&#45;&gt;2 -->
<g id="edge2" class="edge"><title>0&#45;&gt;2</title>
<path fill="none" stroke="black" d="M107.208,-43.0116C117.999,-38.6151 131.516,-33.1083 143.117,-28.3819"/>
<polygon fill="black" stroke="black" points="144.762,-31.491 152.703,-24.4767 142.121,-25.0084 144.762,-31.491"/>
<text text-anchor="middle" x="130.1" y="-37.8" font-family="Times New Roman,serif" font-size="14.00">s</text>
</g>
<!-- 3 -->
<g id="node5" class="node"><title>3</title>
<ellipse fill="none" stroke="black" cx="337.6" cy="-42" rx="18" ry="18"/>
<text text-anchor="middle" x="337.6" y="-38.3" font-family="Times New Roman,serif" font-size="14.00">3</text>
</g>
<!-- 1&#45;&gt;3 -->
<g id="edge8" class="edge"><title>1&#45;&gt;3</title>
<path fill="none" stroke="black" d="M275.451,-64.5818C283.703,-62.9665 293.204,-60.775 301.6,-58 305.002,-56.8757 308.514,-55.5203 311.942,-54.08"/>
<polygon fill="black" stroke="black" points="313.524,-57.2062 321.213,-49.9175 310.657,-50.8202 313.524,-57.2062"/>
<text text-anchor="middle" x="297.6" y="-63.8" font-family="Times New Roman,serif" font-size="14.00">s</text>
</g>
<!-- 1&#45;&gt;3 -->
<g id="edge9" class="edge"><title>1&#45;&gt;3</title>
<path fill="none" stroke="black" d="M269.959,-53.0008C276.656,-47.4727 284.949,-41.8639 293.6,-39 298.708,-37.3089 304.34,-36.8044 309.797,-36.9535"/>
<polygon fill="black" stroke="black" points="309.609,-40.4513 319.894,-37.9053 310.266,-33.4821 309.609,-40.4513"/>
<text text-anchor="middle" x="297.6" y="-42.8" font-family="Times New Roman,serif" font-size="14.00">q</text>
</g>
<!-- 2&#45;&gt;1 -->
<g id="edge5" class="edge"><title>2&#45;&gt;1</title>
<path fill="none" stroke="black" d="M185.819,-26.6338C194.088,-31.3785 204.462,-37.4184 213.6,-43 217.757,-45.539 222.129,-48.2758 226.383,-50.9748"/>
<polygon fill="black" stroke="black" points="224.531,-53.9447 234.841,-56.3861 228.304,-48.0483 224.531,-53.9447"/>
<text text-anchor="middle" x="209.6" y="-46.8" font-family="Times New Roman,serif" font-size="14.00">q</text>
</g>
<!-- 2&#45;&gt;3 -->
<g id="edge4" class="edge"><title>2&#45;&gt;3</title>
<path fill="none" stroke="black" d="M187.853,-17.1976C208.788,-16.5581 245.075,-16.5257 275.6,-22 287.488,-24.1319 300.242,-28.0427 310.999,-31.8444"/>
<polygon fill="black" stroke="black" points="310.013,-35.2114 320.606,-35.3942 312.439,-28.6453 310.013,-35.2114"/>
<text text-anchor="middle" x="253.6" y="-25.8" font-family="Times New Roman,serif" font-size="14.00">s</text>
</g>
<!-- 3&#45;&gt;3 -->
<g id="edge6" class="edge"><title>3&#45;&gt;3</title>
<path fill="none" stroke="black" d="M334.005,-59.7817C333.394,-69.3149 334.592,-78 337.6,-78 339.433,-78 340.594,-74.7749 341.083,-70.0981"/>
<polygon fill="black" stroke="black" points="344.586,-69.8193 341.195,-59.7817 337.587,-69.743 344.586,-69.8193"/>
<text text-anchor="middle" x="337.6" y="-81.8" font-family="Times New Roman,serif" font-size="14.00">s</text>
</g>
<!-- 3&#45;&gt;3 -->
<g id="edge7" class="edge"><title>3&#45;&gt;3</title>
<path fill="none" stroke="black" d="M331.748,-59.1418C328.306,-76.585 330.256,-96 337.6,-96 343.509,-96 345.927,-83.4283 344.852,-69.4287"/>
<polygon fill="black" stroke="black" points="348.269,-68.5785 343.452,-59.1418 341.332,-69.5224 348.269,-68.5785"/>
<text text-anchor="middle" x="337.6" y="-99.8" font-family="Times New Roman,serif" font-size="14.00">q</text>
</g>
</g>
</svg>
