<?xml version="1.0" encoding="UTF-8" standalone="no"?>
<!DOCTYPE svg PUBLIC "-//W3C//DTD SVG 1.1//EN"
 "http://www.w3.org/Graphics/SVG/1.1/DTD/svg11.dtd">
<!-- Generated by graphviz version 2.38.0 (20140413.2041)
 -->
<!-- Title: dfa Pages: 1 -->
<svg width="452pt" height="151pt"
 viewBox="0.00 0.00 452.28 150.60" xmlns="http://www.w3.org/2000/svg" xmlns:xlink="http://www.w3.org/1999/xlink">
<g id="graph0" class="graph" transform="scale(1 1) rotate(0) translate(4 146.595)">
<title>dfa</title>
<polygon fill="white" stroke="none" points="-4,4 -4,-146.595 448.279,-146.595 448.279,4 -4,4"/>
<!-- __start -->
<!-- {0} -->
<g id="node2" class="node"><title>{0}</title>
<ellipse fill="none" stroke="black" cx="92.6479" cy="-61.0479" rx="24.089" ry="24.089"/>
<ellipse fill="none" stroke="black" cx="92.6479" cy="-61.0479" rx="28.0958" ry="28.0958"/>
<text text-anchor="middle" x="92.6479" y="-57.3479" font-family="Times New Roman,serif" font-size="14.00">{0}</text>
</g>
<!-- __start&#45;&gt;{0} -->
<g id="edge1" class="edge"><title>__start&#45;&gt;{0}</title>
<path fill="none" stroke="black" d="M3.7978,-61.0479C8.87675,-61.0479 32.4546,-61.0479 53.9055,-61.0479"/>
<polygon fill="black" stroke="black" points="54.1747,-64.548 64.1746,-61.0479 54.1746,-57.548 54.1747,-64.548"/>
<text text-anchor="middle" x="34.1" y="-64.8479" font-family="Times New Roman,serif" font-size="14.00">start</text>
</g>
<!-- {1,3,4} -->
<g id="node3" class="node"><title>{1,3,4}</title>
<ellipse fill="none" stroke="black" cx="297.488" cy="-84.0479" rx="37.8753" ry="37.8753"/>
<ellipse fill="none" stroke="black" cx="297.488" cy="-84.0479" rx="41.8942" ry="41.8942"/>
<text text-anchor="middle" x="297.488" y="-80.3479" font-family="Times New Roman,serif" font-size="14.00">{1,3,4}</text>
</g>
<!-- {0}&#45;&gt;{1,3,4} -->
<g id="edge3" class="edge"><title>{0}&#45;&gt;{1,3,4}</title>
<path fill="none" stroke="black" d="M120.583,-64.1021C152.406,-67.7105 206.034,-73.7913 245.73,-78.2924"/>
<polygon fill="black" stroke="black" points="245.425,-81.7802 255.756,-79.4292 246.214,-74.8248 245.425,-81.7802"/>
<text text-anchor="middle" x="187.744" y="-78.8479" font-family="Times New Roman,serif" font-size="14.00">q</text>
</g>
<!-- {2} -->
<g id="node4" class="node"><title>{2}</title>
<ellipse fill="none" stroke="black" cx="187.744" cy="-24.0479" rx="24.0958" ry="24.0958"/>
<text text-anchor="middle" x="187.744" y="-20.3479" font-family="Times New Roman,serif" font-size="14.00">{2}</text>
</g>
<!-- {0}&#45;&gt;{2} -->
<g id="edge2" class="edge"><title>{0}&#45;&gt;{2}</title>
<path fill="none" stroke="black" d="M119.087,-50.9375C130.359,-46.4576 143.726,-41.1449 155.589,-36.4298"/>
<polygon fill="black" stroke="black" points="157.122,-39.587 165.122,-32.6411 154.537,-33.082 157.122,-39.587"/>
<text text-anchor="middle" x="142.196" y="-46.8479" font-family="Times New Roman,serif" font-size="14.00">s</text>
</g>
<!-- {3,4} -->
<g id="node5" class="node"><title>{3,4}</title>
<ellipse fill="none" stroke="black" cx="413.732" cy="-46.0479" rx="30.5947" ry="30.5947"/>
<text text-anchor="middle" x="413.732" y="-42.3479" font-family="Times New Roman,serif" font-size="14.00">{3,4}</text>
</g>
<!-- {1,3,4}&#45;&gt;{3,4} -->
<g id="edge8" class="edge"><title>{1,3,4}&#45;&gt;{3,4}</title>
<path fill="none" stroke="black" d="M337.296,-71.2905C346.446,-68.2707 356.162,-65.0541 365.185,-62.0479 368.325,-61.0017 371.58,-59.9136 374.848,-58.819"/>
<polygon fill="black" stroke="black" points="376.216,-62.0517 384.582,-55.5515 373.988,-55.4156 376.216,-62.0517"/>
<text text-anchor="middle" x="361.185" y="-68.8479" font-family="Times New Roman,serif" font-size="14.00">s</text>
</g>
<!-- {1,3,4}&#45;&gt;{3,4} -->
<g id="edge9" class="edge"><title>{1,3,4}&#45;&gt;{3,4}</title>
<path fill="none" stroke="black" d="M329.501,-57.213C337.946,-51.4135 347.462,-46.1073 357.185,-43.0479 362.237,-41.458 367.674,-40.6871 373.099,-40.4571"/>
<polygon fill="black" stroke="black" points="373.362,-43.9612 383.412,-40.6085 373.465,-36.962 373.362,-43.9612"/>
<text text-anchor="middle" x="361.185" y="-46.8479" font-family="Times New Roman,serif" font-size="14.00">q</text>
</g>
<!-- {2}&#45;&gt;{1,3,4} -->
<g id="edge5" class="edge"><title>{2}&#45;&gt;{1,3,4}</title>
<path fill="none" stroke="black" d="M209.01,-35.3334C221.024,-42.024 236.752,-50.7823 251.553,-59.025"/>
<polygon fill="black" stroke="black" points="250.169,-62.26 260.608,-64.0674 253.575,-56.1443 250.169,-62.26"/>
<text text-anchor="middle" x="233.791" y="-54.8479" font-family="Times New Roman,serif" font-size="14.00">q</text>
</g>
<!-- {2}&#45;&gt;{3,4} -->
<g id="edge4" class="edge"><title>{2}&#45;&gt;{3,4}</title>
<path fill="none" stroke="black" d="M211.649,-20.0243C241.335,-15.5166 294.582,-9.84468 339.185,-18.0479 351.677,-20.3454 364.796,-24.667 376.439,-29.2395"/>
<polygon fill="black" stroke="black" points="375.245,-32.5331 385.825,-33.1005 377.908,-26.0594 375.245,-32.5331"/>
<text text-anchor="middle" x="297.488" y="-21.8479" font-family="Times New Roman,serif" font-size="14.00">s</text>
</g>
<!-- {3,4}&#45;&gt;{3,4} -->
<g id="edge6" class="edge"><title>{3,4}&#45;&gt;{3,4}</title>
<path fill="none" stroke="black" d="M408.857,-76.3899C408.857,-86.5039 410.482,-94.5952 413.732,-94.5952 415.763,-94.5952 417.16,-91.4345 417.922,-86.5948"/>
<polygon fill="black" stroke="black" points="421.429,-86.6021 418.607,-76.3899 414.445,-86.1328 421.429,-86.6021"/>
<text text-anchor="middle" x="413.732" y="-98.3952" font-family="Times New Roman,serif" font-size="14.00">s</text>
</g>
<!-- {3,4}&#45;&gt;{3,4} -->
<g id="edge7" class="edge"><title>{3,4}&#45;&gt;{3,4}</title>
<path fill="none" stroke="black" d="M404.753,-75.4692C402.411,-94.3878 405.404,-112.595 413.732,-112.595 420.564,-112.595 423.805,-100.343 423.457,-85.4971"/>
<polygon fill="black" stroke="black" points="426.943,-85.182 422.711,-75.4692 419.962,-85.7013 426.943,-85.182"/>
<text text-anchor="middle" x="413.732" y="-116.395" font-family="Times New Roman,serif" font-size="14.00">q</text>
</g>
</g>
</svg>
