<?xml version="1.0" encoding="UTF-8" standalone="no"?>
<!DOCTYPE svg PUBLIC "-//W3C//DTD SVG 1.1//EN"
 "http://www.w3.org/Graphics/SVG/1.1/DTD/svg11.dtd">
<!-- Generated by graphviz version 2.38.0 (20140413.2041)
 -->
<!-- Title: dfa Pages: 1 -->
<svg width="450pt" height="151pt"
 viewBox="0.00 0.00 450.18 150.60" xmlns="http://www.w3.org/2000/svg" xmlns:xlink="http://www.w3.org/1999/xlink">
<g id="graph0" class="graph" transform="scale(1 1) rotate(0) translate(4 146.595)">
<title>dfa</title>
<polygon fill="white" stroke="none" points="-4,4 -4,-146.595 446.184,-146.595 446.184,4 -4,4"/>
<!-- __start -->
<!-- {0} -->
<g id="node2" class="node"><title>{0}</title>
<ellipse fill="none" stroke="black" cx="91.6" cy="-61.0479" rx="27" ry="18"/>
<text text-anchor="middle" x="91.6" y="-57.3479" font-family="Times New Roman,serif" font-size="14.00">{0}</text>
</g>
<!-- __start&#45;&gt;{0} -->
<g id="edge1" class="edge"><title>__start&#45;&gt;{0}</title>
<path fill="none" stroke="black" d="M3.78604,-61.0479C8.86985,-61.0479 32.7092,-61.0479 54.1222,-61.0479"/>
<polygon fill="black" stroke="black" points="54.3463,-64.548 64.3463,-61.0479 54.3463,-57.548 54.3463,-64.548"/>
<text text-anchor="middle" x="34.1" y="-64.8479" font-family="Times New Roman,serif" font-size="14.00">start</text>
</g>
<!-- {1,3,4} -->
<g id="node3" class="node"><title>{1,3,4}</title>
<ellipse fill="none" stroke="black" cx="295.392" cy="-84.0479" rx="37.8753" ry="37.8753"/>
<ellipse fill="none" stroke="black" cx="295.392" cy="-84.0479" rx="41.8942" ry="41.8942"/>
<text text-anchor="middle" x="295.392" y="-80.3479" font-family="Times New Roman,serif" font-size="14.00">{1,3,4}</text>
</g>
<!-- {0}&#45;&gt;{1,3,4} -->
<g id="edge3" class="edge"><title>{0}&#45;&gt;{1,3,4}</title>
<path fill="none" stroke="black" d="M118.568,-64.0076C150.099,-67.6015 203.997,-73.7447 243.827,-78.2845"/>
<polygon fill="black" stroke="black" points="243.553,-81.7758 253.885,-79.4309 244.345,-74.8208 243.553,-81.7758"/>
<text text-anchor="middle" x="185.648" y="-78.8479" font-family="Times New Roman,serif" font-size="14.00">q</text>
</g>
<!-- {2} -->
<g id="node4" class="node"><title>{2}</title>
<ellipse fill="none" stroke="black" cx="185.648" cy="-24.0479" rx="24.0958" ry="24.0958"/>
<text text-anchor="middle" x="185.648" y="-20.3479" font-family="Times New Roman,serif" font-size="14.00">{2}</text>
</g>
<!-- {0}&#45;&gt;{2} -->
<g id="edge2" class="edge"><title>{0}&#45;&gt;{2}</title>
<path fill="none" stroke="black" d="M115.353,-51.9018C126.864,-47.2751 141.009,-41.5891 153.512,-36.5634"/>
<polygon fill="black" stroke="black" points="155.132,-39.6845 163.105,-32.7074 152.521,-33.1896 155.132,-39.6845"/>
<text text-anchor="middle" x="140.1" y="-46.8479" font-family="Times New Roman,serif" font-size="14.00">s</text>
</g>
<!-- {3,4} -->
<g id="node5" class="node"><title>{3,4}</title>
<ellipse fill="none" stroke="black" cx="411.636" cy="-46.0479" rx="30.5947" ry="30.5947"/>
<text text-anchor="middle" x="411.636" y="-42.3479" font-family="Times New Roman,serif" font-size="14.00">{3,4}</text>
</g>
<!-- {1,3,4}&#45;&gt;{3,4} -->
<g id="edge8" class="edge"><title>{1,3,4}&#45;&gt;{3,4}</title>
<path fill="none" stroke="black" d="M335.2,-71.2905C344.35,-68.2707 354.066,-65.0541 363.089,-62.0479 366.229,-61.0017 369.484,-59.9136 372.752,-58.819"/>
<polygon fill="black" stroke="black" points="374.12,-62.0517 382.487,-55.5515 371.893,-55.4156 374.12,-62.0517"/>
<text text-anchor="middle" x="359.089" y="-68.8479" font-family="Times New Roman,serif" font-size="14.00">s</text>
</g>
<!-- {1,3,4}&#45;&gt;{3,4} -->
<g id="edge9" class="edge"><title>{1,3,4}&#45;&gt;{3,4}</title>
<path fill="none" stroke="black" d="M327.405,-57.213C335.85,-51.4135 345.366,-46.1073 355.089,-43.0479 360.141,-41.458 365.578,-40.6871 371.003,-40.4571"/>
<polygon fill="black" stroke="black" points="371.266,-43.9612 381.317,-40.6085 371.369,-36.962 371.266,-43.9612"/>
<text text-anchor="middle" x="359.089" y="-46.8479" font-family="Times New Roman,serif" font-size="14.00">q</text>
</g>
<!-- {2}&#45;&gt;{1,3,4} -->
<g id="edge5" class="edge"><title>{2}&#45;&gt;{1,3,4}</title>
<path fill="none" stroke="black" d="M206.914,-35.3334C218.928,-42.024 234.656,-50.7823 249.458,-59.025"/>
<polygon fill="black" stroke="black" points="248.073,-62.26 258.513,-64.0674 251.479,-56.1443 248.073,-62.26"/>
<text text-anchor="middle" x="231.696" y="-54.8479" font-family="Times New Roman,serif" font-size="14.00">q</text>
</g>
<!-- {2}&#45;&gt;{3,4} -->
<g id="edge4" class="edge"><title>{2}&#45;&gt;{3,4}</title>
<path fill="none" stroke="black" d="M209.553,-20.0243C239.24,-15.5166 292.486,-9.84468 337.089,-18.0479 349.582,-20.3454 362.7,-24.667 374.343,-29.2395"/>
<polygon fill="black" stroke="black" points="373.15,-32.5331 383.729,-33.1005 375.812,-26.0594 373.15,-32.5331"/>
<text text-anchor="middle" x="295.392" y="-21.8479" font-family="Times New Roman,serif" font-size="14.00">s</text>
</g>
<!-- {3,4}&#45;&gt;{3,4} -->
<g id="edge6" class="edge"><title>{3,4}&#45;&gt;{3,4}</title>
<path fill="none" stroke="black" d="M406.761,-76.3899C406.761,-86.5039 408.386,-94.5952 411.636,-94.5952 413.668,-94.5952 415.064,-91.4345 415.826,-86.5948"/>
<polygon fill="black" stroke="black" points="419.333,-86.6021 416.511,-76.3899 412.349,-86.1328 419.333,-86.6021"/>
<text text-anchor="middle" x="411.636" y="-98.3952" font-family="Times New Roman,serif" font-size="14.00">s</text>
</g>
<!-- {3,4}&#45;&gt;{3,4} -->
<g id="edge7" class="edge"><title>{3,4}&#45;&gt;{3,4}</title>
<path fill="none" stroke="black" d="M402.658,-75.4692C400.315,-94.3878 403.308,-112.595 411.636,-112.595 418.468,-112.595 421.71,-100.343 421.361,-85.4971"/>
<polygon fill="black" stroke="black" points="424.847,-85.182 420.615,-75.4692 417.867,-85.7013 424.847,-85.182"/>
<text text-anchor="middle" x="411.636" y="-116.395" font-family="Times New Roman,serif" font-size="14.00">q</text>
</g>
</g>
</svg>
