<?xml version="1.0" encoding="UTF-8" standalone="no"?>
<!DOCTYPE svg PUBLIC "-//W3C//DTD SVG 1.1//EN"
 "http://www.w3.org/Graphics/SVG/1.1/DTD/svg11.dtd">
<!-- Generated by graphviz version 2.38.0 (20140413.2041)
 -->
<!-- Title: enfa Pages: 1 -->
<svg width="278pt" height="81pt"
 viewBox="0.00 0.00 277.60 81.00" xmlns="http://www.w3.org/2000/svg" xmlns:xlink="http://www.w3.org/1999/xlink">
<g id="graph0" class="graph" transform="scale(1 1) rotate(0) translate(4 77)">
<title>enfa</title>
<polygon fill="white" stroke="none" points="-4,4 -4,-77 273.6,-77 273.6,4 -4,4"/>
<!-- __start -->
<!-- 0 -->
<g id="node2" class="node"><title>0</title>
<ellipse fill="none" stroke="black" cx="86.6" cy="-22" rx="18" ry="18"/>
<ellipse fill="none" stroke="black" cx="86.6" cy="-22" rx="22" ry="22"/>
<text text-anchor="middle" x="86.6" y="-18.3" font-family="Times New Roman,serif" font-size="14.00">0</text>
</g>
<!-- __start&#45;&gt;0 -->
<g id="edge1" class="edge"><title>__start&#45;&gt;0</title>
<path fill="none" stroke="black" d="M3.72988,-22C8.77597,-22 33.4162,-22 54.3593,-22"/>
<polygon fill="black" stroke="black" points="54.5455,-25.5001 64.5454,-22 54.5454,-18.5001 54.5455,-25.5001"/>
<text text-anchor="middle" x="34.1" y="-25.8" font-family="Times New Roman,serif" font-size="14.00">start</text>
</g>
<!-- 1 -->
<g id="node3" class="node"><title>1</title>
<ellipse fill="none" stroke="black" cx="172.6" cy="-50" rx="18" ry="18"/>
<text text-anchor="middle" x="172.6" y="-46.3" font-family="Times New Roman,serif" font-size="14.00">1</text>
</g>
<!-- 0&#45;&gt;1 -->
<g id="edge3" class="edge"><title>0&#45;&gt;1</title>
<path fill="none" stroke="black" d="M107.254,-30.6394C113.388,-33.1794 120.219,-35.8503 126.6,-38 132.49,-39.9845 138.901,-41.8592 144.988,-43.5112"/>
<polygon fill="black" stroke="black" points="144.219,-46.9276 154.778,-46.061 145.983,-40.1535 144.219,-46.9276"/>
<text text-anchor="middle" x="131.6" y="-44.8" font-family="Times New Roman,serif" font-size="14.00">w</text>
</g>
<!-- 2 -->
<g id="node4" class="node"><title>2</title>
<ellipse fill="none" stroke="black" cx="251.6" cy="-22" rx="18" ry="18"/>
<text text-anchor="middle" x="251.6" y="-18.3" font-family="Times New Roman,serif" font-size="14.00">2</text>
</g>
<!-- 0&#45;&gt;2 -->
<g id="edge7" class="edge"><title>0&#45;&gt;2</title>
<path fill="none" stroke="black" d="M107.955,-16.6073C121.146,-13.3962 138.761,-9.63715 154.6,-8 170.515,-6.35498 174.705,-6.17016 190.6,-8 201.837,-9.29364 214.029,-11.9075 224.469,-14.53"/>
<polygon fill="black" stroke="black" points="223.663,-17.9371 234.225,-17.107 225.451,-11.1692 223.663,-17.9371"/>
<text text-anchor="middle" x="172.6" y="-11.8" font-family="Times New Roman,serif" font-size="14.00">ε</text>
</g>
<!-- 1&#45;&gt;0 -->
<g id="edge2" class="edge"><title>1&#45;&gt;0</title>
<path fill="none" stroke="black" d="M159.499,-37.5445C153.245,-31.9808 145.141,-26.0092 136.6,-23 131.083,-21.0561 124.995,-20.0842 119.041,-19.7024"/>
<polygon fill="black" stroke="black" points="118.664,-16.1974 108.62,-19.57 118.575,-23.1969 118.664,-16.1974"/>
<text text-anchor="middle" x="131.6" y="-26.8" font-family="Times New Roman,serif" font-size="14.00">e</text>
</g>
<!-- 1&#45;&gt;2 -->
<g id="edge5" class="edge"><title>1&#45;&gt;2</title>
<path fill="none" stroke="black" d="M190.14,-45.8913C197.95,-43.795 207.347,-41.0456 215.6,-38 218.961,-36.7596 222.45,-35.3367 225.865,-33.8624"/>
<polygon fill="black" stroke="black" points="227.456,-36.9844 235.13,-29.6793 224.576,-30.6045 227.456,-36.9844"/>
<text text-anchor="middle" x="212.1" y="-43.8" font-family="Times New Roman,serif" font-size="14.00">ε</text>
</g>
<!-- 2&#45;&gt;1 -->
<g id="edge4" class="edge"><title>2&#45;&gt;1</title>
<path fill="none" stroke="black" d="M233.403,-20.019C225.624,-19.7217 216.438,-20.2237 208.6,-23 203.398,-24.8426 198.358,-27.7802 193.797,-31.0524"/>
<polygon fill="black" stroke="black" points="191.307,-28.5641 185.705,-37.5572 195.692,-34.02 191.307,-28.5641"/>
<text text-anchor="middle" x="212.1" y="-26.8" font-family="Times New Roman,serif" font-size="14.00">e</text>
</g>
<!-- 2&#45;&gt;2 -->
<g id="edge6" class="edge"><title>2&#45;&gt;2</title>
<path fill="none" stroke="black" d="M244.866,-39.0373C243.492,-48.8579 245.737,-58 251.6,-58 255.265,-58 257.516,-54.4289 258.353,-49.3529"/>
<polygon fill="black" stroke="black" points="261.852,-49.0307 258.334,-39.0373 254.852,-49.0439 261.852,-49.0307"/>
<text text-anchor="middle" x="251.6" y="-61.8" font-family="Times New Roman,serif" font-size="14.00">w</text>
</g>
</g>
</svg>
