<?xml version="1.0" encoding="UTF-8" standalone="no"?>
<!DOCTYPE svg PUBLIC "-//W3C//DTD SVG 1.1//EN"
 "http://www.w3.org/Graphics/SVG/1.1/DTD/svg11.dtd">
<!-- Generated by graphviz version 2.38.0 (20140413.2041)
 -->
<!-- Title: enfa Pages: 1 -->
<svg width="288pt" height="77pt"
 viewBox="0.00 0.00 287.60 77.00" xmlns="http://www.w3.org/2000/svg" xmlns:xlink="http://www.w3.org/1999/xlink">
<g id="graph0" class="graph" transform="scale(1 1) rotate(0) translate(4 73)">
<title>enfa</title>
<polygon fill="white" stroke="none" points="-4,4 -4,-73 283.6,-73 283.6,4 -4,4"/>
<!-- __start -->
<!-- 0 -->
<g id="node2" class="node"><title>0</title>
<ellipse fill="none" stroke="black" cx="91.6" cy="-18" rx="27" ry="18"/>
<text text-anchor="middle" x="91.6" y="-14.3" font-family="Times New Roman,serif" font-size="14.00">0</text>
</g>
<!-- __start&#45;&gt;0 -->
<g id="edge1" class="edge"><title>__start&#45;&gt;0</title>
<path fill="none" stroke="black" d="M3.78604,-18C8.86985,-18 32.7092,-18 54.1222,-18"/>
<polygon fill="black" stroke="black" points="54.3463,-21.5001 64.3463,-18 54.3463,-14.5001 54.3463,-21.5001"/>
<text text-anchor="middle" x="34.1" y="-21.8" font-family="Times New Roman,serif" font-size="14.00">start</text>
</g>
<!-- 1 -->
<g id="node3" class="node"><title>1</title>
<ellipse fill="none" stroke="black" cx="182.6" cy="-46" rx="18" ry="18"/>
<text text-anchor="middle" x="182.6" y="-42.3" font-family="Times New Roman,serif" font-size="14.00">1</text>
</g>
<!-- 0&#45;&gt;1 -->
<g id="edge3" class="edge"><title>0&#45;&gt;1</title>
<path fill="none" stroke="black" d="M115.306,-26.6896C122.112,-29.1764 129.622,-31.8054 136.6,-34 142.529,-35.8647 148.956,-37.6916 155.046,-39.3352"/>
<polygon fill="black" stroke="black" points="154.269,-42.7499 164.83,-41.9027 156.046,-35.9791 154.269,-42.7499"/>
<text text-anchor="middle" x="141.6" y="-39.8" font-family="Times New Roman,serif" font-size="14.00">w</text>
</g>
<!-- 2 -->
<g id="node4" class="node"><title>2</title>
<ellipse fill="none" stroke="black" cx="261.6" cy="-18" rx="18" ry="18"/>
<text text-anchor="middle" x="261.6" y="-14.3" font-family="Times New Roman,serif" font-size="14.00">2</text>
</g>
<!-- 0&#45;&gt;2 -->
<g id="edge7" class="edge"><title>0&#45;&gt;2</title>
<path fill="none" stroke="black" d="M117.025,-11.4181C138.898,-6.33855 171.862,-0.691698 200.6,-4 211.837,-5.29364 224.029,-7.90748 234.469,-10.53"/>
<polygon fill="black" stroke="black" points="233.663,-13.9371 244.225,-13.107 235.451,-7.16917 233.663,-13.9371"/>
<text text-anchor="middle" x="182.6" y="-7.8" font-family="Times New Roman,serif" font-size="14.00">ε</text>
</g>
<!-- 1&#45;&gt;0 -->
<g id="edge2" class="edge"><title>1&#45;&gt;0</title>
<path fill="none" stroke="black" d="M169.502,-33.5375C163.248,-27.9721 155.144,-22.0011 146.6,-19 140.933,-17.0093 134.72,-15.9523 128.59,-15.4863"/>
<polygon fill="black" stroke="black" points="128.558,-11.9841 118.463,-15.1997 128.36,-18.9813 128.558,-11.9841"/>
<text text-anchor="middle" x="141.6" y="-22.8" font-family="Times New Roman,serif" font-size="14.00">e</text>
</g>
<!-- 1&#45;&gt;2 -->
<g id="edge5" class="edge"><title>1&#45;&gt;2</title>
<path fill="none" stroke="black" d="M200.14,-41.8913C207.95,-39.795 217.347,-37.0456 225.6,-34 228.961,-32.7596 232.45,-31.3367 235.865,-29.8624"/>
<polygon fill="black" stroke="black" points="237.456,-32.9844 245.13,-25.6793 234.576,-26.6045 237.456,-32.9844"/>
<text text-anchor="middle" x="222.1" y="-39.8" font-family="Times New Roman,serif" font-size="14.00">ε</text>
</g>
<!-- 2&#45;&gt;1 -->
<g id="edge4" class="edge"><title>2&#45;&gt;1</title>
<path fill="none" stroke="black" d="M243.403,-16.019C235.624,-15.7217 226.438,-16.2237 218.6,-19 213.398,-20.8426 208.358,-23.7802 203.797,-27.0524"/>
<polygon fill="black" stroke="black" points="201.307,-24.5641 195.705,-33.5572 205.692,-30.02 201.307,-24.5641"/>
<text text-anchor="middle" x="222.1" y="-22.8" font-family="Times New Roman,serif" font-size="14.00">e</text>
</g>
<!-- 2&#45;&gt;2 -->
<g id="edge6" class="edge"><title>2&#45;&gt;2</title>
<path fill="none" stroke="black" d="M254.866,-35.0373C253.492,-44.8579 255.737,-54 261.6,-54 265.265,-54 267.516,-50.4289 268.353,-45.3529"/>
<polygon fill="black" stroke="black" points="271.852,-45.0307 268.334,-35.0373 264.852,-45.0439 271.852,-45.0307"/>
<text text-anchor="middle" x="261.6" y="-57.8" font-family="Times New Roman,serif" font-size="14.00">w</text>
</g>
</g>
</svg>
