<?xml version="1.0" encoding="UTF-8" standalone="no"?>
<!DOCTYPE svg PUBLIC "-//W3C//DTD SVG 1.1//EN"
 "http://www.w3.org/Graphics/SVG/1.1/DTD/svg11.dtd">
<!-- Generated by graphviz version 2.38.0 (20140413.2041)
 -->
<!-- Title: dfa Pages: 1 -->
<svg width="289pt" height="178pt"
 viewBox="0.00 0.00 288.60 178.00" xmlns="http://www.w3.org/2000/svg" xmlns:xlink="http://www.w3.org/1999/xlink">
<g id="graph0" class="graph" transform="scale(1 1) rotate(0) translate(4 174)">
<title>dfa</title>
<polygon fill="white" stroke="none" points="-4,4 -4,-174 284.6,-174 284.6,4 -4,4"/>
<!-- __start -->
<!-- 0 -->
<g id="node2" class="node"><title>0</title>
<ellipse fill="none" stroke="black" cx="86.6" cy="-64" rx="18" ry="18"/>
<ellipse fill="none" stroke="black" cx="86.6" cy="-64" rx="22" ry="22"/>
<text text-anchor="middle" x="86.6" y="-60.3" font-family="Times New Roman,serif" font-size="14.00">0</text>
</g>
<!-- __start&#45;&gt;0 -->
<g id="edge1" class="edge"><title>__start&#45;&gt;0</title>
<path fill="none" stroke="black" d="M3.72988,-64C8.77597,-64 33.4162,-64 54.3593,-64"/>
<polygon fill="black" stroke="black" points="54.5455,-67.5001 64.5454,-64 54.5454,-60.5001 54.5455,-67.5001"/>
<text text-anchor="middle" x="34.1" y="-67.8" font-family="Times New Roman,serif" font-size="14.00">start</text>
</g>
<!-- 2 -->
<g id="node4" class="node"><title>2</title>
<ellipse fill="none" stroke="black" cx="172.6" cy="-64" rx="18" ry="18"/>
<text text-anchor="middle" x="172.6" y="-60.3" font-family="Times New Roman,serif" font-size="14.00">2</text>
</g>
<!-- 0&#45;&gt;2 -->
<g id="edge2" class="edge"><title>0&#45;&gt;2</title>
<path fill="none" stroke="black" d="M108.797,-64C119.478,-64 132.56,-64 144.015,-64"/>
<polygon fill="black" stroke="black" points="144.367,-67.5001 154.367,-64 144.367,-60.5001 144.367,-67.5001"/>
<text text-anchor="middle" x="131.6" y="-67.8" font-family="Times New Roman,serif" font-size="14.00">e</text>
</g>
<!-- 0&#45;&gt;2 -->
<g id="edge3" class="edge"><title>0&#45;&gt;2</title>
<path fill="none" stroke="black" d="M104.953,-51.5807C114.177,-46.4471 125.811,-42.2604 136.6,-45 140.558,-46.005 144.553,-47.5577 148.356,-49.3517"/>
<polygon fill="black" stroke="black" points="146.821,-52.4996 157.289,-54.1343 150.125,-46.3284 146.821,-52.4996"/>
<text text-anchor="middle" x="131.6" y="-48.8" font-family="Times New Roman,serif" font-size="14.00">w</text>
</g>
<!-- 1 -->
<g id="node3" class="node"><title>1</title>
<ellipse fill="none" stroke="black" cx="258.6" cy="-115" rx="18" ry="18"/>
<ellipse fill="none" stroke="black" cx="258.6" cy="-115" rx="22" ry="22"/>
<text text-anchor="middle" x="258.6" y="-111.3" font-family="Times New Roman,serif" font-size="14.00">1</text>
</g>
<!-- 1&#45;&gt;1 -->
<g id="edge6" class="edge"><title>1&#45;&gt;1</title>
<path fill="none" stroke="black" d="M250.594,-135.581C249.486,-145.845 252.155,-155 258.6,-155 262.729,-155 265.308,-151.243 266.337,-145.844"/>
<polygon fill="black" stroke="black" points="269.843,-145.669 266.606,-135.581 262.845,-145.486 269.843,-145.669"/>
<text text-anchor="middle" x="258.6" y="-158.8" font-family="Times New Roman,serif" font-size="14.00">e</text>
</g>
<!-- 1&#45;&gt;2 -->
<g id="edge7" class="edge"><title>1&#45;&gt;2</title>
<path fill="none" stroke="black" d="M242.776,-99.1795C235.917,-92.5584 227.358,-85.2081 218.6,-80 212.894,-76.6068 206.356,-73.7711 200.064,-71.476"/>
<polygon fill="black" stroke="black" points="201.128,-68.1414 190.534,-68.3121 198.922,-74.7848 201.128,-68.1414"/>
<text text-anchor="middle" x="213.6" y="-83.8" font-family="Times New Roman,serif" font-size="14.00">w</text>
</g>
<!-- 2&#45;&gt;1 -->
<g id="edge4" class="edge"><title>2&#45;&gt;1</title>
<path fill="none" stroke="black" d="M184.677,-77.874C191.023,-85.0399 199.519,-93.4258 208.6,-99 214.206,-102.441 220.632,-105.225 226.945,-107.445"/>
<polygon fill="black" stroke="black" points="226.049,-110.833 236.638,-110.485 228.144,-104.153 226.049,-110.833"/>
<text text-anchor="middle" x="213.6" y="-107.8" font-family="Times New Roman,serif" font-size="14.00">e</text>
</g>
<!-- 3 -->
<g id="node5" class="node"><title>3</title>
<ellipse fill="none" stroke="black" cx="258.6" cy="-18" rx="18" ry="18"/>
<text text-anchor="middle" x="258.6" y="-14.3" font-family="Times New Roman,serif" font-size="14.00">3</text>
</g>
<!-- 2&#45;&gt;3 -->
<g id="edge5" class="edge"><title>2&#45;&gt;3</title>
<path fill="none" stroke="black" d="M188.618,-55.7761C201.082,-48.9501 219.046,-39.113 233.517,-31.1883"/>
<polygon fill="black" stroke="black" points="235.339,-34.1808 242.429,-26.3078 231.977,-28.0411 235.339,-34.1808"/>
<text text-anchor="middle" x="213.6" y="-47.8" font-family="Times New Roman,serif" font-size="14.00">w</text>
</g>
<!-- 3&#45;&gt;2 -->
<g id="edge8" class="edge"><title>3&#45;&gt;2</title>
<path fill="none" stroke="black" d="M240.378,-15.7626C230.555,-15.2668 218.305,-16.0168 208.6,-21 200.23,-25.2979 193.149,-32.583 187.593,-39.9473"/>
<polygon fill="black" stroke="black" points="184.533,-38.2223 181.785,-48.4547 190.314,-42.169 184.533,-38.2223"/>
<text text-anchor="middle" x="213.6" y="-24.8" font-family="Times New Roman,serif" font-size="14.00">e</text>
</g>
<!-- 3&#45;&gt;3 -->
<g id="edge9" class="edge"><title>3&#45;&gt;3</title>
<path fill="none" stroke="black" d="M250.932,-34.2903C249.083,-44.3892 251.639,-54 258.6,-54 263.059,-54 265.711,-50.0557 266.555,-44.5656"/>
<polygon fill="black" stroke="black" points="270.046,-44.1887 266.268,-34.2903 263.048,-44.384 270.046,-44.1887"/>
<text text-anchor="middle" x="258.6" y="-57.8" font-family="Times New Roman,serif" font-size="14.00">w</text>
</g>
</g>
</svg>
