<?xml version="1.0" encoding="UTF-8" standalone="no"?>
<!DOCTYPE svg PUBLIC "-//W3C//DTD SVG 1.1//EN"
 "http://www.w3.org/Graphics/SVG/1.1/DTD/svg11.dtd">
<!-- Generated by graphviz version 2.38.0 (20140413.2041)
 -->
<!-- Title: dfa Pages: 1 -->
<svg width="299pt" height="178pt"
 viewBox="0.00 0.00 298.60 178.00" xmlns="http://www.w3.org/2000/svg" xmlns:xlink="http://www.w3.org/1999/xlink">
<g id="graph0" class="graph" transform="scale(1 1) rotate(0) translate(4 174)">
<title>dfa</title>
<polygon fill="white" stroke="none" points="-4,4 -4,-174 294.6,-174 294.6,4 -4,4"/>
<!-- __start -->
<!-- 0 -->
<g id="node2" class="node"><title>0</title>
<ellipse fill="none" stroke="black" cx="91.6" cy="-64" rx="27" ry="18"/>
<text text-anchor="middle" x="91.6" y="-60.3" font-family="Times New Roman,serif" font-size="14.00">0</text>
</g>
<!-- __start&#45;&gt;0 -->
<g id="edge1" class="edge"><title>__start&#45;&gt;0</title>
<path fill="none" stroke="black" d="M3.78604,-64C8.86985,-64 32.7092,-64 54.1222,-64"/>
<polygon fill="black" stroke="black" points="54.3463,-67.5001 64.3463,-64 54.3463,-60.5001 54.3463,-67.5001"/>
<text text-anchor="middle" x="34.1" y="-67.8" font-family="Times New Roman,serif" font-size="14.00">start</text>
</g>
<!-- 2 -->
<g id="node4" class="node"><title>2</title>
<ellipse fill="none" stroke="black" cx="182.6" cy="-64" rx="18" ry="18"/>
<text text-anchor="middle" x="182.6" y="-60.3" font-family="Times New Roman,serif" font-size="14.00">2</text>
</g>
<!-- 0&#45;&gt;2 -->
<g id="edge2" class="edge"><title>0&#45;&gt;2</title>
<path fill="none" stroke="black" d="M118.822,-64C130.012,-64 143.07,-64 154.369,-64"/>
<polygon fill="black" stroke="black" points="154.545,-67.5001 164.545,-64 154.545,-60.5001 154.545,-67.5001"/>
<text text-anchor="middle" x="141.6" y="-67.8" font-family="Times New Roman,serif" font-size="14.00">e</text>
</g>
<!-- 0&#45;&gt;2 -->
<g id="edge3" class="edge"><title>0&#45;&gt;2</title>
<path fill="none" stroke="black" d="M111.338,-51.6357C121.613,-46.3299 134.655,-41.967 146.6,-45 150.558,-46.005 154.553,-47.5577 158.356,-49.3517"/>
<polygon fill="black" stroke="black" points="156.821,-52.4996 167.289,-54.1343 160.125,-46.3284 156.821,-52.4996"/>
<text text-anchor="middle" x="141.6" y="-48.8" font-family="Times New Roman,serif" font-size="14.00">w</text>
</g>
<!-- 1 -->
<g id="node3" class="node"><title>1</title>
<ellipse fill="none" stroke="black" cx="268.6" cy="-115" rx="18" ry="18"/>
<ellipse fill="none" stroke="black" cx="268.6" cy="-115" rx="22" ry="22"/>
<text text-anchor="middle" x="268.6" y="-111.3" font-family="Times New Roman,serif" font-size="14.00">1</text>
</g>
<!-- 1&#45;&gt;1 -->
<g id="edge6" class="edge"><title>1&#45;&gt;1</title>
<path fill="none" stroke="black" d="M260.594,-135.581C259.486,-145.845 262.155,-155 268.6,-155 272.729,-155 275.308,-151.243 276.337,-145.844"/>
<polygon fill="black" stroke="black" points="279.843,-145.669 276.606,-135.581 272.845,-145.486 279.843,-145.669"/>
<text text-anchor="middle" x="268.6" y="-158.8" font-family="Times New Roman,serif" font-size="14.00">e</text>
</g>
<!-- 1&#45;&gt;2 -->
<g id="edge7" class="edge"><title>1&#45;&gt;2</title>
<path fill="none" stroke="black" d="M252.776,-99.1795C245.917,-92.5584 237.358,-85.2081 228.6,-80 222.894,-76.6068 216.356,-73.7711 210.064,-71.476"/>
<polygon fill="black" stroke="black" points="211.128,-68.1414 200.534,-68.3121 208.922,-74.7848 211.128,-68.1414"/>
<text text-anchor="middle" x="223.6" y="-83.8" font-family="Times New Roman,serif" font-size="14.00">w</text>
</g>
<!-- 2&#45;&gt;1 -->
<g id="edge4" class="edge"><title>2&#45;&gt;1</title>
<path fill="none" stroke="black" d="M194.677,-77.874C201.023,-85.0399 209.519,-93.4258 218.6,-99 224.206,-102.441 230.632,-105.225 236.945,-107.445"/>
<polygon fill="black" stroke="black" points="236.049,-110.833 246.638,-110.485 238.144,-104.153 236.049,-110.833"/>
<text text-anchor="middle" x="223.6" y="-107.8" font-family="Times New Roman,serif" font-size="14.00">e</text>
</g>
<!-- 3 -->
<g id="node5" class="node"><title>3</title>
<ellipse fill="none" stroke="black" cx="268.6" cy="-18" rx="18" ry="18"/>
<text text-anchor="middle" x="268.6" y="-14.3" font-family="Times New Roman,serif" font-size="14.00">3</text>
</g>
<!-- 2&#45;&gt;3 -->
<g id="edge5" class="edge"><title>2&#45;&gt;3</title>
<path fill="none" stroke="black" d="M198.618,-55.7761C211.082,-48.9501 229.046,-39.113 243.517,-31.1883"/>
<polygon fill="black" stroke="black" points="245.339,-34.1808 252.429,-26.3078 241.977,-28.0411 245.339,-34.1808"/>
<text text-anchor="middle" x="223.6" y="-47.8" font-family="Times New Roman,serif" font-size="14.00">w</text>
</g>
<!-- 3&#45;&gt;2 -->
<g id="edge8" class="edge"><title>3&#45;&gt;2</title>
<path fill="none" stroke="black" d="M250.378,-15.7626C240.555,-15.2668 228.305,-16.0168 218.6,-21 210.23,-25.2979 203.149,-32.583 197.593,-39.9473"/>
<polygon fill="black" stroke="black" points="194.533,-38.2223 191.785,-48.4547 200.314,-42.169 194.533,-38.2223"/>
<text text-anchor="middle" x="223.6" y="-24.8" font-family="Times New Roman,serif" font-size="14.00">e</text>
</g>
<!-- 3&#45;&gt;3 -->
<g id="edge9" class="edge"><title>3&#45;&gt;3</title>
<path fill="none" stroke="black" d="M260.932,-34.2903C259.083,-44.3892 261.639,-54 268.6,-54 273.059,-54 275.711,-50.0557 276.555,-44.5656"/>
<polygon fill="black" stroke="black" points="280.046,-44.1887 276.268,-34.2903 273.048,-44.384 280.046,-44.1887"/>
<text text-anchor="middle" x="268.6" y="-57.8" font-family="Times New Roman,serif" font-size="14.00">w</text>
</g>
</g>
</svg>
