<?xml version="1.0" encoding="UTF-8" standalone="no"?>
<!DOCTYPE svg PUBLIC "-//W3C//DTD SVG 1.1//EN"
 "http://www.w3.org/Graphics/SVG/1.1/DTD/svg11.dtd">
<!-- Generated by graphviz version 2.38.0 (20140413.2041)
 -->
<!-- Title: dfa Pages: 1 -->
<svg width="370pt" height="224pt"
 viewBox="0.00 0.00 370.18 223.74" xmlns="http://www.w3.org/2000/svg" xmlns:xlink="http://www.w3.org/1999/xlink">
<g id="graph0" class="graph" transform="scale(1 1) rotate(0) translate(4 219.745)">
<title>dfa</title>
<polygon fill="white" stroke="none" points="-4,4 -4,-219.745 366.182,-219.745 366.182,4 -4,4"/>
<!-- __start -->
<!-- {0,2} -->
<g id="node2" class="node"><title>{0,2}</title>
<ellipse fill="none" stroke="black" cx="95.1473" cy="-82.0479" rx="30.5947" ry="18"/>
<text text-anchor="middle" x="95.1473" y="-78.3479" font-family="Times New Roman,serif" font-size="14.00">{0,2}</text>
</g>
<!-- __start&#45;&gt;{0,2} -->
<g id="edge1" class="edge"><title>__start&#45;&gt;{0,2}</title>
<path fill="none" stroke="black" d="M3.82587,-82.0479C8.96991,-82.0479 32.5708,-82.0479 54.3561,-82.0479"/>
<polygon fill="black" stroke="black" points="54.4895,-85.548 64.4894,-82.0479 54.4894,-78.548 54.4895,-85.548"/>
<text text-anchor="middle" x="34.1" y="-85.8479" font-family="Times New Roman,serif" font-size="14.00">start</text>
</g>
<!-- {1,2} -->
<g id="node4" class="node"><title>{1,2}</title>
<ellipse fill="none" stroke="black" cx="202.242" cy="-82.0479" rx="30.5947" ry="30.5947"/>
<text text-anchor="middle" x="202.242" y="-78.3479" font-family="Times New Roman,serif" font-size="14.00">{1,2}</text>
</g>
<!-- {0,2}&#45;&gt;{1,2} -->
<g id="edge2" class="edge"><title>{0,2}&#45;&gt;{1,2}</title>
<path fill="none" stroke="black" d="M125.702,-82.0479C136.783,-82.0479 149.565,-82.0479 161.425,-82.0479"/>
<polygon fill="black" stroke="black" points="161.545,-85.548 171.545,-82.0479 161.545,-78.548 161.545,-85.548"/>
<text text-anchor="middle" x="148.695" y="-85.8479" font-family="Times New Roman,serif" font-size="14.00">e</text>
</g>
<!-- {0,2}&#45;&gt;{1,2} -->
<g id="edge3" class="edge"><title>{0,2}&#45;&gt;{1,2}</title>
<path fill="none" stroke="black" d="M119.313,-70.7484C126.899,-67.6077 135.489,-64.6266 143.695,-63.0479 150.94,-61.6539 158.534,-62.4492 165.742,-64.3391"/>
<polygon fill="black" stroke="black" points="164.669,-67.6709 175.263,-67.4919 166.87,-61.0257 164.669,-67.6709"/>
<text text-anchor="middle" x="148.695" y="-66.8479" font-family="Times New Roman,serif" font-size="14.00">w</text>
</g>
<!-- {0,1,2} -->
<g id="node3" class="node"><title>{0,1,2}</title>
<ellipse fill="none" stroke="black" cx="320.486" cy="-141.048" rx="37.8753" ry="37.8753"/>
<ellipse fill="none" stroke="black" cx="320.486" cy="-141.048" rx="41.8942" ry="41.8942"/>
<text text-anchor="middle" x="320.486" y="-137.348" font-family="Times New Roman,serif" font-size="14.00">{0,1,2}</text>
</g>
<!-- {0,1,2}&#45;&gt;{0,1,2} -->
<g id="edge6" class="edge"><title>{0,1,2}&#45;&gt;{0,1,2}</title>
<path fill="none" stroke="black" d="M308.559,-181.224C309.135,-192.289 313.111,-200.745 320.486,-200.745 325.326,-200.745 328.701,-197.103 330.613,-191.472"/>
<polygon fill="black" stroke="black" points="334.131,-191.679 332.413,-181.224 327.236,-190.468 334.131,-191.679"/>
<text text-anchor="middle" x="320.486" y="-204.545" font-family="Times New Roman,serif" font-size="14.00">e</text>
</g>
<!-- {0,1,2}&#45;&gt;{1,2} -->
<g id="edge7" class="edge"><title>{0,1,2}&#45;&gt;{1,2}</title>
<path fill="none" stroke="black" d="M287.486,-115.244C279.135,-109.34 269.91,-103.501 260.789,-99.0479 254.953,-96.1986 248.546,-93.7288 242.193,-91.6228"/>
<polygon fill="black" stroke="black" points="242.93,-88.1881 232.343,-88.6103 240.883,-94.8821 242.93,-88.1881"/>
<text text-anchor="middle" x="255.789" y="-102.848" font-family="Times New Roman,serif" font-size="14.00">w</text>
</g>
<!-- {1,2}&#45;&gt;{0,1,2} -->
<g id="edge4" class="edge"><title>{1,2}&#45;&gt;{0,1,2}</title>
<path fill="none" stroke="black" d="M225.924,-101.594C233.484,-107.445 242.181,-113.506 250.789,-118.048 256.917,-121.282 263.59,-124.189 270.288,-126.76"/>
<polygon fill="black" stroke="black" points="269.466,-130.185 280.06,-130.286 271.842,-123.6 269.466,-130.185"/>
<text text-anchor="middle" x="255.789" y="-126.848" font-family="Times New Roman,serif" font-size="14.00">e</text>
</g>
<!-- {2} -->
<g id="node5" class="node"><title>{2}</title>
<ellipse fill="none" stroke="black" cx="320.486" cy="-24.0479" rx="24.0958" ry="24.0958"/>
<text text-anchor="middle" x="320.486" y="-20.3479" font-family="Times New Roman,serif" font-size="14.00">{2}</text>
</g>
<!-- {1,2}&#45;&gt;{2} -->
<g id="edge5" class="edge"><title>{1,2}&#45;&gt;{2}</title>
<path fill="none" stroke="black" d="M229.911,-68.7415C247.72,-59.8557 271.166,-48.1569 289.604,-38.9573"/>
<polygon fill="black" stroke="black" points="291.348,-41.999 298.733,-34.4025 288.222,-35.7353 291.348,-41.999"/>
<text text-anchor="middle" x="255.789" y="-62.8479" font-family="Times New Roman,serif" font-size="14.00">w</text>
</g>
<!-- {2}&#45;&gt;{1,2} -->
<g id="edge8" class="edge"><title>{2}&#45;&gt;{1,2}</title>
<path fill="none" stroke="black" d="M296.136,-24.7178C282.311,-25.9243 264.815,-28.9072 250.789,-36.0479 243.304,-39.8583 236.216,-45.2451 229.908,-50.9969"/>
<polygon fill="black" stroke="black" points="227.059,-48.8883 222.365,-58.3865 231.958,-53.8887 227.059,-48.8883"/>
<text text-anchor="middle" x="255.789" y="-39.8479" font-family="Times New Roman,serif" font-size="14.00">e</text>
</g>
<!-- {2}&#45;&gt;{2} -->
<g id="edge9" class="edge"><title>{2}&#45;&gt;{2}</title>
<path fill="none" stroke="black" d="M308.908,-45.2502C307.126,-56.2134 310.986,-66.0957 320.486,-66.0957 326.869,-66.0957 330.705,-61.6347 331.995,-55.382"/>
<polygon fill="black" stroke="black" points="335.496,-55.2736 332.064,-45.2502 328.496,-55.2262 335.496,-55.2736"/>
<text text-anchor="middle" x="320.486" y="-69.8957" font-family="Times New Roman,serif" font-size="14.00">w</text>
</g>
</g>
</svg>
