<?xml version="1.0" encoding="UTF-8" standalone="no"?>
<!DOCTYPE svg PUBLIC "-//W3C//DTD SVG 1.1//EN"
 "http://www.w3.org/Graphics/SVG/1.1/DTD/svg11.dtd">
<!-- Generated by graphviz version 2.38.0 (20140413.2041)
 -->
<!-- Title: dfa Pages: 1 -->
<svg width="378pt" height="224pt"
 viewBox="0.00 0.00 378.18 223.74" xmlns="http://www.w3.org/2000/svg" xmlns:xlink="http://www.w3.org/1999/xlink">
<g id="graph0" class="graph" transform="scale(1 1) rotate(0) translate(4 219.745)">
<title>dfa</title>
<polygon fill="white" stroke="none" points="-4,4 -4,-219.745 374.182,-219.745 374.182,4 -4,4"/>
<!-- __start -->
<!-- {0,2} -->
<g id="node2" class="node"><title>{0,2}</title>
<ellipse fill="none" stroke="black" cx="99.1473" cy="-82.0479" rx="30.5892" ry="30.5892"/>
<ellipse fill="none" stroke="black" cx="99.1473" cy="-82.0479" rx="34.5946" ry="34.5946"/>
<text text-anchor="middle" x="99.1473" y="-78.3479" font-family="Times New Roman,serif" font-size="14.00">{0,2}</text>
</g>
<!-- __start&#45;&gt;{0,2} -->
<g id="edge1" class="edge"><title>__start&#45;&gt;{0,2}</title>
<path fill="none" stroke="black" d="M3.87079,-82.0479C9.06922,-82.0479 32.3261,-82.0479 54.4377,-82.0479"/>
<polygon fill="black" stroke="black" points="54.4476,-85.548 64.4476,-82.0479 54.4475,-78.548 54.4476,-85.548"/>
<text text-anchor="middle" x="34.1" y="-85.8479" font-family="Times New Roman,serif" font-size="14.00">start</text>
</g>
<!-- {1,2} -->
<g id="node4" class="node"><title>{1,2}</title>
<ellipse fill="none" stroke="black" cx="210.242" cy="-82.0479" rx="30.5947" ry="30.5947"/>
<text text-anchor="middle" x="210.242" y="-78.3479" font-family="Times New Roman,serif" font-size="14.00">{1,2}</text>
</g>
<!-- {0,2}&#45;&gt;{1,2} -->
<g id="edge2" class="edge"><title>{0,2}&#45;&gt;{1,2}</title>
<path fill="none" stroke="black" d="M133.769,-82.0479C145.1,-82.0479 157.851,-82.0479 169.602,-82.0479"/>
<polygon fill="black" stroke="black" points="169.61,-85.548 179.61,-82.0479 169.61,-78.548 169.61,-85.548"/>
<text text-anchor="middle" x="156.695" y="-85.8479" font-family="Times New Roman,serif" font-size="14.00">e</text>
</g>
<!-- {0,2}&#45;&gt;{1,2} -->
<g id="edge3" class="edge"><title>{0,2}&#45;&gt;{1,2}</title>
<path fill="none" stroke="black" d="M130.179,-66.5737C140.097,-63.1396 151.262,-61.0406 161.695,-63.0479 165.358,-63.7528 169.098,-64.7372 172.792,-65.8905"/>
<polygon fill="black" stroke="black" points="171.779,-69.2444 182.374,-69.2621 174.102,-62.6413 171.779,-69.2444"/>
<text text-anchor="middle" x="156.695" y="-66.8479" font-family="Times New Roman,serif" font-size="14.00">w</text>
</g>
<!-- {0,1,2} -->
<g id="node3" class="node"><title>{0,1,2}</title>
<ellipse fill="none" stroke="black" cx="328.486" cy="-141.048" rx="37.8753" ry="37.8753"/>
<ellipse fill="none" stroke="black" cx="328.486" cy="-141.048" rx="41.8942" ry="41.8942"/>
<text text-anchor="middle" x="328.486" y="-137.348" font-family="Times New Roman,serif" font-size="14.00">{0,1,2}</text>
</g>
<!-- {0,1,2}&#45;&gt;{0,1,2} -->
<g id="edge6" class="edge"><title>{0,1,2}&#45;&gt;{0,1,2}</title>
<path fill="none" stroke="black" d="M316.559,-181.224C317.135,-192.289 321.111,-200.745 328.486,-200.745 333.326,-200.745 336.701,-197.103 338.613,-191.472"/>
<polygon fill="black" stroke="black" points="342.131,-191.679 340.413,-181.224 335.236,-190.468 342.131,-191.679"/>
<text text-anchor="middle" x="328.486" y="-204.545" font-family="Times New Roman,serif" font-size="14.00">e</text>
</g>
<!-- {0,1,2}&#45;&gt;{1,2} -->
<g id="edge7" class="edge"><title>{0,1,2}&#45;&gt;{1,2}</title>
<path fill="none" stroke="black" d="M295.486,-115.244C287.135,-109.34 277.91,-103.501 268.789,-99.0479 262.953,-96.1986 256.546,-93.7288 250.193,-91.6228"/>
<polygon fill="black" stroke="black" points="250.93,-88.1881 240.343,-88.6103 248.883,-94.8821 250.93,-88.1881"/>
<text text-anchor="middle" x="263.789" y="-102.848" font-family="Times New Roman,serif" font-size="14.00">w</text>
</g>
<!-- {1,2}&#45;&gt;{0,1,2} -->
<g id="edge4" class="edge"><title>{1,2}&#45;&gt;{0,1,2}</title>
<path fill="none" stroke="black" d="M233.924,-101.594C241.484,-107.445 250.181,-113.506 258.789,-118.048 264.917,-121.282 271.59,-124.189 278.288,-126.76"/>
<polygon fill="black" stroke="black" points="277.466,-130.185 288.06,-130.286 279.842,-123.6 277.466,-130.185"/>
<text text-anchor="middle" x="263.789" y="-126.848" font-family="Times New Roman,serif" font-size="14.00">e</text>
</g>
<!-- {2} -->
<g id="node5" class="node"><title>{2}</title>
<ellipse fill="none" stroke="black" cx="328.486" cy="-24.0479" rx="24.0958" ry="24.0958"/>
<text text-anchor="middle" x="328.486" y="-20.3479" font-family="Times New Roman,serif" font-size="14.00">{2}</text>
</g>
<!-- {1,2}&#45;&gt;{2} -->
<g id="edge5" class="edge"><title>{1,2}&#45;&gt;{2}</title>
<path fill="none" stroke="black" d="M237.911,-68.7415C255.72,-59.8557 279.166,-48.1569 297.604,-38.9573"/>
<polygon fill="black" stroke="black" points="299.348,-41.999 306.733,-34.4025 296.222,-35.7353 299.348,-41.999"/>
<text text-anchor="middle" x="263.789" y="-62.8479" font-family="Times New Roman,serif" font-size="14.00">w</text>
</g>
<!-- {2}&#45;&gt;{1,2} -->
<g id="edge8" class="edge"><title>{2}&#45;&gt;{1,2}</title>
<path fill="none" stroke="black" d="M304.136,-24.7178C290.311,-25.9243 272.815,-28.9072 258.789,-36.0479 251.304,-39.8583 244.216,-45.2451 237.908,-50.9969"/>
<polygon fill="black" stroke="black" points="235.059,-48.8883 230.365,-58.3865 239.958,-53.8887 235.059,-48.8883"/>
<text text-anchor="middle" x="263.789" y="-39.8479" font-family="Times New Roman,serif" font-size="14.00">e</text>
</g>
<!-- {2}&#45;&gt;{2} -->
<g id="edge9" class="edge"><title>{2}&#45;&gt;{2}</title>
<path fill="none" stroke="black" d="M316.908,-45.2502C315.126,-56.2134 318.986,-66.0957 328.486,-66.0957 334.869,-66.0957 338.705,-61.6347 339.995,-55.382"/>
<polygon fill="black" stroke="black" points="343.496,-55.2736 340.064,-45.2502 336.496,-55.2262 343.496,-55.2736"/>
<text text-anchor="middle" x="328.486" y="-69.8957" font-family="Times New Roman,serif" font-size="14.00">w</text>
</g>
</g>
</svg>
