<?xml version="1.0" encoding="UTF-8" standalone="no"?>
<!DOCTYPE svg PUBLIC "-//W3C//DTD SVG 1.1//EN"
 "http://www.w3.org/Graphics/SVG/1.1/DTD/svg11.dtd">
<!-- Generated by graphviz version 2.38.0 (20140413.2041)
 -->
<!-- Title: dfa Pages: 1 -->
<svg width="354pt" height="153pt"
 viewBox="0.00 0.00 353.60 153.00" xmlns="http://www.w3.org/2000/svg" xmlns:xlink="http://www.w3.org/1999/xlink">
<g id="graph0" class="graph" transform="scale(1 1) rotate(0) translate(4 149)">
<title>dfa</title>
<polygon fill="white" stroke="none" points="-4,4 -4,-149 349.6,-149 349.6,4 -4,4"/>
<!-- __start -->
<!-- 0 -->
<g id="node2" class="node"><title>0</title>
<ellipse fill="none" stroke="black" cx="82.6" cy="-18" rx="18" ry="18"/>
<text text-anchor="middle" x="82.6" y="-14.3" font-family="Times New Roman,serif" font-size="14.00">0</text>
</g>
<!-- __start&#45;&gt;0 -->
<g id="edge1" class="edge"><title>__start&#45;&gt;0</title>
<path fill="none" stroke="black" d="M3.68496,-18C8.69573,-18 34.008,-18 54.4423,-18"/>
<polygon fill="black" stroke="black" points="54.5501,-21.5001 64.5501,-18 54.5501,-14.5001 54.5501,-21.5001"/>
<text text-anchor="middle" x="34.1" y="-21.8" font-family="Times New Roman,serif" font-size="14.00">start</text>
</g>
<!-- 2 -->
<g id="node4" class="node"><title>2</title>
<ellipse fill="none" stroke="black" cx="161.6" cy="-45" rx="18" ry="18"/>
<text text-anchor="middle" x="161.6" y="-41.3" font-family="Times New Roman,serif" font-size="14.00">2</text>
</g>
<!-- 0&#45;&gt;2 -->
<g id="edge2" class="edge"><title>0&#45;&gt;2</title>
<path fill="none" stroke="black" d="M99.9297,-23.726C110.036,-27.2699 123.235,-31.898 134.74,-35.9322"/>
<polygon fill="black" stroke="black" points="133.699,-39.2761 144.294,-39.2822 136.015,-32.6704 133.699,-39.2761"/>
<text text-anchor="middle" x="122.1" y="-35.8" font-family="Times New Roman,serif" font-size="14.00">x</text>
</g>
<!-- 3 -->
<g id="node5" class="node"><title>3</title>
<ellipse fill="none" stroke="black" cx="327.6" cy="-61" rx="18" ry="18"/>
<text text-anchor="middle" x="327.6" y="-57.3" font-family="Times New Roman,serif" font-size="14.00">3</text>
</g>
<!-- 0&#45;&gt;3 -->
<g id="edge3" class="edge"><title>0&#45;&gt;3</title>
<path fill="none" stroke="black" d="M100.698,-16.5453C119.978,-15.2414 152.213,-14.0766 179.6,-18 223.203,-24.2465 271.929,-40.4143 300.89,-51.0477"/>
<polygon fill="black" stroke="black" points="300.027,-54.4617 310.619,-54.6863 302.479,-47.9052 300.027,-54.4617"/>
<text text-anchor="middle" x="201.1" y="-25.8" font-family="Times New Roman,serif" font-size="14.00">y</text>
</g>
<!-- 1 -->
<g id="node3" class="node"><title>1</title>
<ellipse fill="none" stroke="black" cx="244.6" cy="-100" rx="18" ry="18"/>
<ellipse fill="none" stroke="black" cx="244.6" cy="-100" rx="22" ry="22"/>
<text text-anchor="middle" x="244.6" y="-96.3" font-family="Times New Roman,serif" font-size="14.00">1</text>
</g>
<!-- 1&#45;&gt;3 -->
<g id="edge6" class="edge"><title>1&#45;&gt;3</title>
<path fill="none" stroke="black" d="M266.989,-99.9621C275.021,-99.2524 284.032,-97.5892 291.6,-94 297.74,-91.0878 303.514,-86.6927 308.532,-82.0516"/>
<polygon fill="black" stroke="black" points="311.217,-84.3134 315.743,-74.7337 306.231,-79.4003 311.217,-84.3134"/>
<text text-anchor="middle" x="288.1" y="-99.8" font-family="Times New Roman,serif" font-size="14.00">x</text>
</g>
<!-- 1&#45;&gt;3 -->
<g id="edge7" class="edge"><title>1&#45;&gt;3</title>
<path fill="none" stroke="black" d="M262.925,-87.5846C269.504,-83.2253 277.199,-78.5378 284.6,-75 289.502,-72.6569 294.899,-70.5403 300.144,-68.7039"/>
<polygon fill="black" stroke="black" points="301.451,-71.9593 309.873,-65.5316 299.28,-65.3042 301.451,-71.9593"/>
<text text-anchor="middle" x="288.1" y="-78.8" font-family="Times New Roman,serif" font-size="14.00">y</text>
</g>
<!-- 2&#45;&gt;1 -->
<g id="edge5" class="edge"><title>2&#45;&gt;1</title>
<path fill="none" stroke="black" d="M177.081,-54.8329C188.28,-62.4368 204.081,-73.1658 217.472,-82.2591"/>
<polygon fill="black" stroke="black" points="215.613,-85.2272 225.852,-87.9491 219.545,-79.436 215.613,-85.2272"/>
<text text-anchor="middle" x="201.1" y="-75.8" font-family="Times New Roman,serif" font-size="14.00">y</text>
</g>
<!-- 2&#45;&gt;3 -->
<g id="edge4" class="edge"><title>2&#45;&gt;3</title>
<path fill="none" stroke="black" d="M179.912,-46.3394C200.565,-47.9739 236.129,-50.9048 266.6,-54 277.364,-55.0934 289.196,-56.4423 299.488,-57.6633"/>
<polygon fill="black" stroke="black" points="299.199,-61.1537 309.546,-58.8732 300.035,-54.2038 299.199,-61.1537"/>
<text text-anchor="middle" x="244.6" y="-57.8" font-family="Times New Roman,serif" font-size="14.00">x</text>
</g>
<!-- 3&#45;&gt;3 -->
<g id="edge8" class="edge"><title>3&#45;&gt;3</title>
<path fill="none" stroke="black" d="M324.184,-78.7817C323.604,-88.3149 324.743,-97 327.6,-97 329.341,-97 330.444,-93.7749 330.909,-89.0981"/>
<polygon fill="black" stroke="black" points="334.412,-88.8174 331.016,-78.7817 327.412,-88.745 334.412,-88.8174"/>
<text text-anchor="middle" x="327.6" y="-100.8" font-family="Times New Roman,serif" font-size="14.00">x</text>
</g>
<!-- 3&#45;&gt;3 -->
<g id="edge9" class="edge"><title>3&#45;&gt;3</title>
<path fill="none" stroke="black" d="M322.041,-78.1418C318.77,-95.585 320.623,-115 327.6,-115 333.214,-115 335.51,-102.428 334.489,-88.4287"/>
<polygon fill="black" stroke="black" points="337.913,-87.6105 333.159,-78.1418 330.97,-88.508 337.913,-87.6105"/>
<text text-anchor="middle" x="327.6" y="-118.8" font-family="Times New Roman,serif" font-size="14.00">y</text>
</g>
</g>
</svg>
