<?xml version="1.0" encoding="UTF-8" standalone="no"?>
<!DOCTYPE svg PUBLIC "-//W3C//DTD SVG 1.1//EN"
 "http://www.w3.org/Graphics/SVG/1.1/DTD/svg11.dtd">
<!-- Generated by graphviz version 2.38.0 (20140413.2041)
 -->
<!-- Title: dfa Pages: 1 -->
<svg width="406pt" height="157pt"
 viewBox="0.00 0.00 405.88 156.55" xmlns="http://www.w3.org/2000/svg" xmlns:xlink="http://www.w3.org/1999/xlink">
<g id="graph0" class="graph" transform="scale(1 1) rotate(0) translate(4 152.546)">
<title>dfa</title>
<polygon fill="white" stroke="none" points="-4,4 -4,-152.546 401.883,-152.546 401.883,4 -4,4"/>
<!-- __start -->
<!-- {0} -->
<g id="node2" class="node"><title>{0}</title>
<ellipse fill="none" stroke="black" cx="88.6479" cy="-24.0479" rx="24.0958" ry="24.0958"/>
<text text-anchor="middle" x="88.6479" y="-20.3479" font-family="Times New Roman,serif" font-size="14.00">{0}</text>
</g>
<!-- __start&#45;&gt;{0} -->
<g id="edge1" class="edge"><title>__start&#45;&gt;{0}</title>
<path fill="none" stroke="black" d="M3.75288,-24.0479C8.82222,-24.0479 33.1893,-24.0479 54.3658,-24.0479"/>
<polygon fill="black" stroke="black" points="54.4068,-27.548 64.4067,-24.0479 54.4067,-20.548 54.4068,-27.548"/>
<text text-anchor="middle" x="34.1" y="-27.8479" font-family="Times New Roman,serif" font-size="14.00">start</text>
</g>
<!-- {2,3} -->
<g id="node4" class="node"><title>{2,3}</title>
<ellipse fill="none" stroke="black" cx="186.243" cy="-60.0479" rx="30.5947" ry="30.5947"/>
<text text-anchor="middle" x="186.243" y="-56.3479" font-family="Times New Roman,serif" font-size="14.00">{2,3}</text>
</g>
<!-- {0}&#45;&gt;{2,3} -->
<g id="edge2" class="edge"><title>{0}&#45;&gt;{2,3}</title>
<path fill="none" stroke="black" d="M111.34,-32.2168C122.12,-36.2764 135.455,-41.2983 147.818,-45.954"/>
<polygon fill="black" stroke="black" points="146.865,-49.3349 157.457,-49.5838 149.332,-42.784 146.865,-49.3349"/>
<text text-anchor="middle" x="134.196" y="-45.8479" font-family="Times New Roman,serif" font-size="14.00">x</text>
</g>
<!-- {} -->
<g id="node5" class="node"><title>{}</title>
<ellipse fill="none" stroke="black" cx="378.384" cy="-63.0479" rx="19.4965" ry="19.4965"/>
<text text-anchor="middle" x="378.384" y="-59.3479" font-family="Times New Roman,serif" font-size="14.00">{}</text>
</g>
<!-- {0}&#45;&gt;{} -->
<g id="edge3" class="edge"><title>{0}&#45;&gt;{}</title>
<path fill="none" stroke="black" d="M112.863,-22.2977C125.517,-21.4306 141.458,-20.4786 155.696,-20.0479 182.836,-19.2268 189.869,-16.5061 216.79,-20.0479 264.611,-26.3392 318.431,-42.7397 350.04,-53.3706"/>
<polygon fill="black" stroke="black" points="349.273,-56.8072 359.868,-56.7317 351.539,-50.1839 349.273,-56.8072"/>
<text text-anchor="middle" x="238.29" y="-27.8479" font-family="Times New Roman,serif" font-size="14.00">y</text>
</g>
<!-- {1} -->
<g id="node3" class="node"><title>{1}</title>
<ellipse fill="none" stroke="black" cx="287.838" cy="-108.048" rx="24.089" ry="24.089"/>
<ellipse fill="none" stroke="black" cx="287.838" cy="-108.048" rx="28.0958" ry="28.0958"/>
<text text-anchor="middle" x="287.838" y="-104.348" font-family="Times New Roman,serif" font-size="14.00">{1}</text>
</g>
<!-- {1}&#45;&gt;{} -->
<g id="edge6" class="edge"><title>{1}&#45;&gt;{}</title>
<path fill="none" stroke="black" d="M315.703,-104.557C324.087,-102.769 333.158,-100.08 340.886,-96.0479 346.751,-92.9882 352.407,-88.76 357.445,-84.3502"/>
<polygon fill="black" stroke="black" points="359.924,-86.8232 364.792,-77.413 355.118,-81.7334 359.924,-86.8232"/>
<text text-anchor="middle" x="337.386" y="-103.848" font-family="Times New Roman,serif" font-size="14.00">x</text>
</g>
<!-- {1}&#45;&gt;{} -->
<g id="edge7" class="edge"><title>{1}&#45;&gt;{}</title>
<path fill="none" stroke="black" d="M310.505,-91.2486C317.677,-86.2119 325.878,-80.9861 333.886,-77.0479 338.745,-74.6584 344.104,-72.5479 349.353,-70.7376"/>
<polygon fill="black" stroke="black" points="350.673,-73.9908 359.147,-67.6315 348.557,-67.3183 350.673,-73.9908"/>
<text text-anchor="middle" x="337.386" y="-80.8479" font-family="Times New Roman,serif" font-size="14.00">y</text>
</g>
<!-- {2,3}&#45;&gt;{1} -->
<g id="edge5" class="edge"><title>{2,3}&#45;&gt;{1}</title>
<path fill="none" stroke="black" d="M214.195,-73.0374C226.131,-78.7898 240.302,-85.6197 252.945,-91.713"/>
<polygon fill="black" stroke="black" points="251.725,-95.0103 262.253,-96.1991 254.764,-88.7045 251.725,-95.0103"/>
<text text-anchor="middle" x="238.29" y="-89.8479" font-family="Times New Roman,serif" font-size="14.00">y</text>
</g>
<!-- {2,3}&#45;&gt;{} -->
<g id="edge4" class="edge"><title>{2,3}&#45;&gt;{}</title>
<path fill="none" stroke="black" d="M216.897,-57.6513C242.983,-55.8951 281.977,-54.1242 315.886,-56.0479 326.635,-56.6577 338.391,-57.8624 348.719,-59.103"/>
<polygon fill="black" stroke="black" points="348.502,-62.6034 358.862,-60.3854 349.38,-55.6587 348.502,-62.6034"/>
<text text-anchor="middle" x="287.838" y="-60.8479" font-family="Times New Roman,serif" font-size="14.00">x</text>
</g>
<!-- {}&#45;&gt;{} -->
<g id="edge8" class="edge"><title>{}&#45;&gt;{}</title>
<path fill="none" stroke="black" d="M374.745,-82.3415C374.242,-91.9635 375.455,-100.546 378.384,-100.546 380.17,-100.546 381.317,-97.3591 381.828,-92.6919"/>
<polygon fill="black" stroke="black" points="385.334,-92.4059 382.024,-82.3415 378.335,-92.2735 385.334,-92.4059"/>
<text text-anchor="middle" x="378.384" y="-104.346" font-family="Times New Roman,serif" font-size="14.00">x</text>
</g>
<!-- {}&#45;&gt;{} -->
<g id="edge9" class="edge"><title>{}&#45;&gt;{}</title>
<path fill="none" stroke="black" d="M372.32,-81.8121C369.175,-99.4325 371.197,-118.546 378.384,-118.546 384.224,-118.546 386.654,-105.928 385.673,-91.7452"/>
<polygon fill="black" stroke="black" points="389.146,-91.3089 384.449,-81.8121 382.198,-92.1651 389.146,-91.3089"/>
<text text-anchor="middle" x="378.384" y="-122.346" font-family="Times New Roman,serif" font-size="14.00">y</text>
</g>
</g>
</svg>
