<?xml version="1.0" encoding="UTF-8" standalone="no"?>
<!DOCTYPE svg PUBLIC "-//W3C//DTD SVG 1.1//EN"
 "http://www.w3.org/Graphics/SVG/1.1/DTD/svg11.dtd">
<!-- Generated by graphviz version 2.38.0 (20140413.2041)
 -->
<!-- Title: enfa Pages: 1 -->
<svg width="354pt" height="52pt"
 viewBox="0.00 0.00 353.60 52.00" xmlns="http://www.w3.org/2000/svg" xmlns:xlink="http://www.w3.org/1999/xlink">
<g id="graph0" class="graph" transform="scale(1 1) rotate(0) translate(4 48)">
<title>enfa</title>
<polygon fill="white" stroke="none" points="-4,4 -4,-48 349.6,-48 349.6,4 -4,4"/>
<!-- __start -->
<!-- 0 -->
<g id="node2" class="node"><title>0</title>
<ellipse fill="none" stroke="black" cx="82.6" cy="-22" rx="18" ry="18"/>
<text text-anchor="middle" x="82.6" y="-18.3" font-family="Times New Roman,serif" font-size="14.00">0</text>
</g>
<!-- __start&#45;&gt;0 -->
<g id="edge1" class="edge"><title>__start&#45;&gt;0</title>
<path fill="none" stroke="black" d="M3.68496,-22C8.69573,-22 34.008,-22 54.4423,-22"/>
<polygon fill="black" stroke="black" points="54.5501,-25.5001 64.5501,-22 54.5501,-18.5001 54.5501,-25.5001"/>
<text text-anchor="middle" x="34.1" y="-25.8" font-family="Times New Roman,serif" font-size="14.00">start</text>
</g>
<!-- 2 -->
<g id="node4" class="node"><title>2</title>
<ellipse fill="none" stroke="black" cx="161.6" cy="-22" rx="18" ry="18"/>
<text text-anchor="middle" x="161.6" y="-18.3" font-family="Times New Roman,serif" font-size="14.00">2</text>
</g>
<!-- 0&#45;&gt;2 -->
<g id="edge2" class="edge"><title>0&#45;&gt;2</title>
<path fill="none" stroke="black" d="M100.689,-22C110.259,-22 122.417,-22 133.277,-22"/>
<polygon fill="black" stroke="black" points="133.559,-25.5001 143.559,-22 133.559,-18.5001 133.559,-25.5001"/>
<text text-anchor="middle" x="122.1" y="-25.8" font-family="Times New Roman,serif" font-size="14.00">x</text>
</g>
<!-- 1 -->
<g id="node3" class="node"><title>1</title>
<ellipse fill="none" stroke="black" cx="323.6" cy="-22" rx="18" ry="18"/>
<ellipse fill="none" stroke="black" cx="323.6" cy="-22" rx="22" ry="22"/>
<text text-anchor="middle" x="323.6" y="-18.3" font-family="Times New Roman,serif" font-size="14.00">1</text>
</g>
<!-- 3 -->
<g id="node5" class="node"><title>3</title>
<ellipse fill="none" stroke="black" cx="240.6" cy="-22" rx="18" ry="18"/>
<text text-anchor="middle" x="240.6" y="-18.3" font-family="Times New Roman,serif" font-size="14.00">3</text>
</g>
<!-- 2&#45;&gt;3 -->
<g id="edge4" class="edge"><title>2&#45;&gt;3</title>
<path fill="none" stroke="black" d="M179.689,-22C189.259,-22 201.417,-22 212.277,-22"/>
<polygon fill="black" stroke="black" points="212.559,-25.5001 222.559,-22 212.559,-18.5001 212.559,-25.5001"/>
<text text-anchor="middle" x="201.1" y="-25.8" font-family="Times New Roman,serif" font-size="14.00">ε</text>
</g>
<!-- 3&#45;&gt;1 -->
<g id="edge3" class="edge"><title>3&#45;&gt;1</title>
<path fill="none" stroke="black" d="M258.778,-22C268.21,-22 280.201,-22 291.237,-22"/>
<polygon fill="black" stroke="black" points="291.411,-25.5001 301.411,-22 291.411,-18.5001 291.411,-25.5001"/>
<text text-anchor="middle" x="280.1" y="-25.8" font-family="Times New Roman,serif" font-size="14.00">y</text>
</g>
</g>
</svg>
