<?xml version="1.0" encoding="UTF-8" standalone="no"?>
<!DOCTYPE svg PUBLIC "-//W3C//DTD SVG 1.1//EN"
 "http://www.w3.org/Graphics/SVG/1.1/DTD/svg11.dtd">
<!-- Generated by graphviz version 2.38.0 (20140413.2041)
 -->
<!-- Title: dfa Pages: 1 -->
<svg width="530pt" height="170pt"
 viewBox="0.00 0.00 529.60 170.43" xmlns="http://www.w3.org/2000/svg" xmlns:xlink="http://www.w3.org/1999/xlink">
<g id="graph0" class="graph" transform="scale(1 1) rotate(0) translate(4 166.434)">
<title>dfa</title>
<polygon fill="white" stroke="none" points="-4,4 -4,-166.434 525.6,-166.434 525.6,4 -4,4"/>
<!-- __start -->
<!-- 0 -->
<g id="node2" class="node"><title>0</title>
<ellipse fill="none" stroke="black" cx="91.6" cy="-34.4337" rx="27" ry="18"/>
<text text-anchor="middle" x="91.6" y="-30.7337" font-family="Times New Roman,serif" font-size="14.00">0</text>
</g>
<!-- __start&#45;&gt;0 -->
<g id="edge1" class="edge"><title>__start&#45;&gt;0</title>
<path fill="none" stroke="black" d="M3.78604,-34.4337C8.86985,-34.4337 32.7092,-34.4337 54.1222,-34.4337"/>
<polygon fill="black" stroke="black" points="54.3463,-37.9338 64.3463,-34.4337 54.3463,-30.9338 54.3463,-37.9338"/>
<text text-anchor="middle" x="34.1" y="-38.2337" font-family="Times New Roman,serif" font-size="14.00">start</text>
</g>
<!-- 1 -->
<g id="node3" class="node"><title>1</title>
<ellipse fill="none" stroke="black" cx="262.6" cy="-33.4337" rx="18" ry="18"/>
<ellipse fill="none" stroke="black" cx="262.6" cy="-33.4337" rx="22" ry="22"/>
<text text-anchor="middle" x="262.6" y="-29.7337" font-family="Times New Roman,serif" font-size="14.00">1</text>
</g>
<!-- 0&#45;&gt;1 -->
<g id="edge12" class="edge"><title>0&#45;&gt;1</title>
<path fill="none" stroke="black" d="M118.151,-37.8323C124.189,-38.498 130.613,-39.0947 136.6,-39.4337 174.761,-41.595 184.489,-42.3482 222.6,-39.4337 225.17,-39.2372 227.827,-38.9688 230.49,-38.654"/>
<polygon fill="black" stroke="black" points="231.187,-42.0912 240.618,-37.263 230.235,-35.1563 231.187,-42.0912"/>
<text text-anchor="middle" x="179.6" y="-44.2337" font-family="Times New Roman,serif" font-size="14.00">u</text>
</g>
<!-- 2 -->
<g id="node4" class="node"><title>2</title>
<ellipse fill="none" stroke="black" cx="179.6" cy="-111.434" rx="18" ry="18"/>
<text text-anchor="middle" x="179.6" y="-107.734" font-family="Times New Roman,serif" font-size="14.00">2</text>
</g>
<!-- 0&#45;&gt;2 -->
<g id="edge13" class="edge"><title>0&#45;&gt;2</title>
<path fill="none" stroke="black" d="M108.431,-48.9352C116.782,-56.5564 127.215,-66.0346 136.6,-74.4337 143.47,-80.582 151.017,-87.255 157.795,-93.2193"/>
<polygon fill="black" stroke="black" points="155.489,-95.8522 165.312,-99.8215 160.108,-90.5927 155.489,-95.8522"/>
<text text-anchor="middle" x="140.1" y="-84.2337" font-family="Times New Roman,serif" font-size="14.00">k</text>
</g>
<!-- 3 -->
<g id="node5" class="node"><title>3</title>
<ellipse fill="none" stroke="black" cx="345.6" cy="-34.4337" rx="18" ry="18"/>
<text text-anchor="middle" x="345.6" y="-30.7337" font-family="Times New Roman,serif" font-size="14.00">3</text>
</g>
<!-- 0&#45;&gt;3 -->
<g id="edge11" class="edge"><title>0&#45;&gt;3</title>
<path fill="none" stroke="black" d="M115.588,-26.0587C151.547,-13.9864 223.334,5.98168 284.6,-2.43375 296.031,-4.00391 299.193,-4.44997 309.6,-9.43375 314.159,-11.6169 318.753,-14.3933 323.047,-17.2967"/>
<polygon fill="black" stroke="black" points="321.173,-20.261 331.327,-23.285 325.275,-14.5888 321.173,-20.261"/>
<text text-anchor="middle" x="219.1" y="-6.23375" font-family="Times New Roman,serif" font-size="14.00">y</text>
</g>
<!-- 1&#45;&gt;0 -->
<g id="edge6" class="edge"><title>1&#45;&gt;0</title>
<path fill="none" stroke="black" d="M240.943,-29.3735C228.452,-27.1267 212.176,-24.5656 197.6,-23.4337 181.648,-22.195 177.55,-22.1703 161.6,-23.4337 150.512,-24.3121 138.514,-25.9724 127.682,-27.7419"/>
<polygon fill="black" stroke="black" points="126.985,-24.3102 117.72,-29.45 128.168,-31.2096 126.985,-24.3102"/>
<text text-anchor="middle" x="179.6" y="-27.2337" font-family="Times New Roman,serif" font-size="14.00">u</text>
</g>
<!-- 1&#45;&gt;1 -->
<g id="edge5" class="edge"><title>1&#45;&gt;1</title>
<path fill="none" stroke="black" d="M254.917,-54.4245C253.969,-64.521 256.53,-73.4337 262.6,-73.4337 266.489,-73.4337 268.937,-69.7759 269.946,-64.4924"/>
<polygon fill="black" stroke="black" points="273.446,-64.5361 270.283,-54.4245 266.45,-64.3017 273.446,-64.5361"/>
<text text-anchor="middle" x="262.6" y="-77.2337" font-family="Times New Roman,serif" font-size="14.00">y</text>
</g>
<!-- 1&#45;&gt;3 -->
<g id="edge7" class="edge"><title>1&#45;&gt;3</title>
<path fill="none" stroke="black" d="M284.882,-33.6965C294.866,-33.8197 306.878,-33.968 317.503,-34.0992"/>
<polygon fill="black" stroke="black" points="317.497,-37.5993 327.539,-34.2231 317.583,-30.5998 317.497,-37.5993"/>
<text text-anchor="middle" x="306.1" y="-37.2337" font-family="Times New Roman,serif" font-size="14.00">k</text>
</g>
<!-- 2&#45;&gt;1 -->
<g id="edge3" class="edge"><title>2&#45;&gt;1</title>
<path fill="none" stroke="black" d="M193.583,-99.6077C201.941,-91.9377 212.999,-81.686 222.6,-72.4337 228.099,-67.1349 233.956,-61.3526 239.416,-55.9024"/>
<polygon fill="black" stroke="black" points="241.961,-58.3061 246.542,-48.7526 237.004,-53.3645 241.961,-58.3061"/>
<text text-anchor="middle" x="219.1" y="-82.2337" font-family="Times New Roman,serif" font-size="14.00">u</text>
</g>
<!-- 2&#45;&gt;2 -->
<g id="edge4" class="edge"><title>2&#45;&gt;2</title>
<path fill="none" stroke="black" d="M172.866,-128.471C171.492,-138.292 173.737,-147.434 179.6,-147.434 183.265,-147.434 185.516,-143.863 186.353,-138.787"/>
<polygon fill="black" stroke="black" points="189.852,-138.464 186.334,-128.471 182.852,-138.478 189.852,-138.464"/>
<text text-anchor="middle" x="179.6" y="-151.234" font-family="Times New Roman,serif" font-size="14.00">k</text>
</g>
<!-- 2&#45;&gt;3 -->
<g id="edge2" class="edge"><title>2&#45;&gt;3</title>
<path fill="none" stroke="black" d="M197.828,-112.501C219.335,-113.1 256.688,-111.675 284.6,-97.4337 302.649,-88.2244 318.259,-71.3659 329.029,-57.4044"/>
<polygon fill="black" stroke="black" points="331.974,-59.3071 335.088,-49.18 326.339,-55.1551 331.974,-59.3071"/>
<text text-anchor="middle" x="262.6" y="-113.234" font-family="Times New Roman,serif" font-size="14.00">y</text>
</g>
<!-- 3&#45;&gt;1 -->
<g id="edge14" class="edge"><title>3&#45;&gt;1</title>
<path fill="none" stroke="black" d="M330.693,-24.2663C324.549,-20.3802 317.04,-16.4097 309.6,-14.4337 303.133,-12.7164 296.37,-13.7765 290.081,-16.0909"/>
<polygon fill="black" stroke="black" points="288.234,-13.093 280.699,-20.5414 291.234,-19.4174 288.234,-13.093"/>
<text text-anchor="middle" x="306.1" y="-18.2337" font-family="Times New Roman,serif" font-size="14.00">y</text>
</g>
<!-- 3&#45;&gt;1 -->
<g id="edge15" class="edge"><title>3&#45;&gt;1</title>
<path fill="none" stroke="black" d="M329.416,-43.0939C323.439,-46.0377 316.389,-48.9555 309.6,-50.4337 303.524,-51.7566 297.172,-50.9412 291.194,-49.0998"/>
<polygon fill="black" stroke="black" points="292.188,-45.7264 281.605,-45.2287 289.567,-52.2175 292.188,-45.7264"/>
<text text-anchor="middle" x="306.1" y="-54.2337" font-family="Times New Roman,serif" font-size="14.00">u</text>
</g>
<!-- 4 -->
<g id="node6" class="node"><title>4</title>
<ellipse fill="none" stroke="black" cx="424.6" cy="-62.4337" rx="18" ry="18"/>
<text text-anchor="middle" x="424.6" y="-58.7337" font-family="Times New Roman,serif" font-size="14.00">4</text>
</g>
<!-- 3&#45;&gt;4 -->
<g id="edge16" class="edge"><title>3&#45;&gt;4</title>
<path fill="none" stroke="black" d="M363.43,-30.0259C371.304,-28.7613 380.671,-28.4272 388.6,-31.4337 394.532,-33.683 400.104,-37.4483 404.983,-41.5943"/>
<polygon fill="black" stroke="black" points="402.825,-44.3718 412.481,-48.7307 407.651,-39.3012 402.825,-44.3718"/>
<text text-anchor="middle" x="385.1" y="-35.2337" font-family="Times New Roman,serif" font-size="14.00">k</text>
</g>
<!-- 4&#45;&gt;3 -->
<g id="edge8" class="edge"><title>4&#45;&gt;3</title>
<path fill="none" stroke="black" d="M407.06,-58.3251C399.25,-56.2288 389.853,-53.4794 381.6,-50.4337 378.239,-49.1933 374.75,-47.7705 371.335,-46.2961"/>
<polygon fill="black" stroke="black" points="372.624,-43.0383 362.07,-42.1131 369.744,-49.4181 372.624,-43.0383"/>
<text text-anchor="middle" x="385.1" y="-56.2337" font-family="Times New Roman,serif" font-size="14.00">y</text>
</g>
<!-- 5 -->
<g id="node7" class="node"><title>5</title>
<ellipse fill="none" stroke="black" cx="503.6" cy="-34.4337" rx="18" ry="18"/>
<text text-anchor="middle" x="503.6" y="-30.7337" font-family="Times New Roman,serif" font-size="14.00">5</text>
</g>
<!-- 4&#45;&gt;5 -->
<g id="edge9" class="edge"><title>4&#45;&gt;5</title>
<path fill="none" stroke="black" d="M437.705,-49.9909C443.961,-44.4302 452.064,-38.4575 460.6,-35.4337 465.131,-33.8287 470.113,-32.9838 475.013,-32.614"/>
<polygon fill="black" stroke="black" points="475.458,-36.1076 485.403,-32.4528 475.35,-29.1084 475.458,-36.1076"/>
<text text-anchor="middle" x="464.1" y="-39.2337" font-family="Times New Roman,serif" font-size="14.00">u</text>
</g>
<!-- 4&#45;&gt;5 -->
<g id="edge10" class="edge"><title>4&#45;&gt;5</title>
<path fill="none" stroke="black" d="M442.14,-58.3251C449.95,-56.2288 459.347,-53.4794 467.6,-50.4337 470.961,-49.1933 474.45,-47.7705 477.865,-46.2961"/>
<polygon fill="black" stroke="black" points="479.456,-49.4181 487.13,-42.1131 476.576,-43.0383 479.456,-49.4181"/>
<text text-anchor="middle" x="464.1" y="-56.2337" font-family="Times New Roman,serif" font-size="14.00">k</text>
</g>
<!-- 5&#45;&gt;3 -->
<g id="edge17" class="edge"><title>5&#45;&gt;3</title>
<path fill="none" stroke="black" d="M486.225,-29.5407C474.263,-26.2305 457.583,-22.1586 442.6,-20.4337 415.576,-17.3228 408.119,-19.3769 381.6,-25.4337 378.884,-26.0541 376.057,-26.73 373.239,-27.4236"/>
<polygon fill="black" stroke="black" points="372.123,-24.0957 363.29,-29.9452 373.843,-30.8812 372.123,-24.0957"/>
<text text-anchor="middle" x="424.6" y="-24.2337" font-family="Times New Roman,serif" font-size="14.00">y</text>
</g>
<!-- 5&#45;&gt;5 -->
<g id="edge18" class="edge"><title>5&#45;&gt;5</title>
<path fill="none" stroke="black" d="M500.184,-52.2155C499.604,-61.7487 500.743,-70.4337 503.6,-70.4337 505.341,-70.4337 506.444,-67.2087 506.909,-62.5318"/>
<polygon fill="black" stroke="black" points="510.412,-62.2512 507.016,-52.2155 503.412,-62.1787 510.412,-62.2512"/>
<text text-anchor="middle" x="503.6" y="-74.2337" font-family="Times New Roman,serif" font-size="14.00">u</text>
</g>
<!-- 5&#45;&gt;5 -->
<g id="edge19" class="edge"><title>5&#45;&gt;5</title>
<path fill="none" stroke="black" d="M498.041,-51.5755C494.77,-69.0187 496.623,-88.4337 503.6,-88.4337 509.214,-88.4337 511.51,-75.8621 510.489,-61.8624"/>
<polygon fill="black" stroke="black" points="513.913,-61.0442 509.159,-51.5755 506.97,-61.9417 513.913,-61.0442"/>
<text text-anchor="middle" x="503.6" y="-92.2337" font-family="Times New Roman,serif" font-size="14.00">k</text>
</g>
</g>
</svg>
