<?xml version="1.0" encoding="UTF-8" standalone="no"?>
<!DOCTYPE svg PUBLIC "-//W3C//DTD SVG 1.1//EN"
 "http://www.w3.org/Graphics/SVG/1.1/DTD/svg11.dtd">
<!-- Generated by graphviz version 2.38.0 (20140413.2041)
 -->
<!-- Title: enfa Pages: 1 -->
<svg width="287pt" height="118pt"
 viewBox="0.00 0.00 286.60 118.00" xmlns="http://www.w3.org/2000/svg" xmlns:xlink="http://www.w3.org/1999/xlink">
<g id="graph0" class="graph" transform="scale(1 1) rotate(0) translate(4 114)">
<title>enfa</title>
<polygon fill="white" stroke="none" points="-4,4 -4,-114 282.6,-114 282.6,4 -4,4"/>
<!-- __start -->
<!-- 0 -->
<g id="node2" class="node"><title>0</title>
<ellipse fill="none" stroke="black" cx="82.6" cy="-22" rx="18" ry="18"/>
<text text-anchor="middle" x="82.6" y="-18.3" font-family="Times New Roman,serif" font-size="14.00">0</text>
</g>
<!-- __start&#45;&gt;0 -->
<g id="edge1" class="edge"><title>__start&#45;&gt;0</title>
<path fill="none" stroke="black" d="M3.68496,-22C8.69573,-22 34.008,-22 54.4423,-22"/>
<polygon fill="black" stroke="black" points="54.5501,-25.5001 64.5501,-22 54.5501,-18.5001 54.5501,-25.5001"/>
<text text-anchor="middle" x="34.1" y="-25.8" font-family="Times New Roman,serif" font-size="14.00">start</text>
</g>
<!-- 0&#45;&gt;0 -->
<g id="edge5" class="edge"><title>0&#45;&gt;0</title>
<path fill="none" stroke="black" d="M75.5688,-38.6641C74.0063,-48.625 76.35,-58 82.6,-58 86.6039,-58 89.0047,-54.1525 89.8023,-48.7682"/>
<polygon fill="black" stroke="black" points="93.3001,-48.6033 89.6313,-38.6641 86.3011,-48.7219 93.3001,-48.6033"/>
<text text-anchor="middle" x="82.6" y="-61.8" font-family="Times New Roman,serif" font-size="14.00">a</text>
</g>
<!-- 2 -->
<g id="node4" class="node"><title>2</title>
<ellipse fill="none" stroke="black" cx="169.6" cy="-55" rx="18" ry="18"/>
<ellipse fill="none" stroke="black" cx="169.6" cy="-55" rx="22" ry="22"/>
<text text-anchor="middle" x="169.6" y="-51.3" font-family="Times New Roman,serif" font-size="14.00">2</text>
</g>
<!-- 0&#45;&gt;2 -->
<g id="edge4" class="edge"><title>0&#45;&gt;2</title>
<path fill="none" stroke="black" d="M99.5878,-28.207C110.701,-32.5217 125.842,-38.3997 139.11,-43.5509"/>
<polygon fill="black" stroke="black" points="138.205,-46.954 148.794,-47.3105 140.738,-40.4285 138.205,-46.954"/>
<text text-anchor="middle" x="124.1" y="-42.8" font-family="Times New Roman,serif" font-size="14.00">m</text>
</g>
<!-- 1 -->
<g id="node3" class="node"><title>1</title>
<ellipse fill="none" stroke="black" cx="256.6" cy="-22" rx="18" ry="18"/>
<ellipse fill="none" stroke="black" cx="256.6" cy="-22" rx="22" ry="22"/>
<text text-anchor="middle" x="256.6" y="-18.3" font-family="Times New Roman,serif" font-size="14.00">1</text>
</g>
<!-- 1&#45;&gt;0 -->
<g id="edge2" class="edge"><title>1&#45;&gt;0</title>
<path fill="none" stroke="black" d="M235.008,-16.7239C222.54,-13.8037 206.265,-10.4744 191.6,-9 172.143,-7.04382 167.057,-7.04382 147.6,-9 135.163,-10.2504 121.568,-12.8349 110.119,-15.3726"/>
<polygon fill="black" stroke="black" points="109.253,-11.9804 100.303,-17.6502 110.835,-18.7992 109.253,-11.9804"/>
<text text-anchor="middle" x="169.6" y="-12.8" font-family="Times New Roman,serif" font-size="14.00">a</text>
</g>
<!-- 1&#45;&gt;1 -->
<g id="edge6" class="edge"><title>1&#45;&gt;1</title>
<path fill="none" stroke="black" d="M248.917,-42.9908C247.969,-53.0872 250.53,-62 256.6,-62 260.489,-62 262.937,-58.3422 263.946,-53.0587"/>
<polygon fill="black" stroke="black" points="267.446,-53.1023 264.283,-42.9908 260.45,-52.868 267.446,-53.1023"/>
<text text-anchor="middle" x="256.6" y="-65.8" font-family="Times New Roman,serif" font-size="14.00">m</text>
</g>
<!-- 2&#45;&gt;1 -->
<g id="edge7" class="edge"><title>2&#45;&gt;1</title>
<path fill="none" stroke="black" d="M190.314,-47.3462C200.966,-43.2109 214.328,-38.0231 226.185,-33.4199"/>
<polygon fill="black" stroke="black" points="227.643,-36.6086 235.698,-29.7266 225.109,-30.0831 227.643,-36.6086"/>
<text text-anchor="middle" x="213.1" y="-42.8" font-family="Times New Roman,serif" font-size="14.00">ε</text>
</g>
<!-- 2&#45;&gt;2 -->
<g id="edge3" class="edge"><title>2&#45;&gt;2</title>
<path fill="none" stroke="black" d="M161.917,-75.9908C160.969,-86.0872 163.53,-95 169.6,-95 173.489,-95 175.937,-91.3422 176.946,-86.0587"/>
<polygon fill="black" stroke="black" points="180.446,-86.1023 177.283,-75.9908 173.45,-85.868 180.446,-86.1023"/>
<text text-anchor="middle" x="169.6" y="-98.8" font-family="Times New Roman,serif" font-size="14.00">a</text>
</g>
</g>
</svg>
