<?xml version="1.0" encoding="UTF-8" standalone="no"?>
<!DOCTYPE svg PUBLIC "-//W3C//DTD SVG 1.1//EN"
 "http://www.w3.org/Graphics/SVG/1.1/DTD/svg11.dtd">
<!-- Generated by graphviz version 2.38.0 (20140413.2041)
 -->
<!-- Title: enfa Pages: 1 -->
<svg width="305pt" height="118pt"
 viewBox="0.00 0.00 304.60 118.00" xmlns="http://www.w3.org/2000/svg" xmlns:xlink="http://www.w3.org/1999/xlink">
<g id="graph0" class="graph" transform="scale(1 1) rotate(0) translate(4 114)">
<title>enfa</title>
<polygon fill="white" stroke="none" points="-4,4 -4,-114 300.6,-114 300.6,4 -4,4"/>
<!-- __start -->
<!-- 0 -->
<g id="node2" class="node"><title>0</title>
<ellipse fill="none" stroke="black" cx="91.6" cy="-22" rx="27" ry="18"/>
<text text-anchor="middle" x="91.6" y="-18.3" font-family="Times New Roman,serif" font-size="14.00">0</text>
</g>
<!-- __start&#45;&gt;0 -->
<g id="edge1" class="edge"><title>__start&#45;&gt;0</title>
<path fill="none" stroke="black" d="M3.78604,-22C8.86985,-22 32.7092,-22 54.1222,-22"/>
<polygon fill="black" stroke="black" points="54.3463,-25.5001 64.3463,-22 54.3463,-18.5001 54.3463,-25.5001"/>
<text text-anchor="middle" x="34.1" y="-25.8" font-family="Times New Roman,serif" font-size="14.00">start</text>
</g>
<!-- 0&#45;&gt;0 -->
<g id="edge5" class="edge"><title>0&#45;&gt;0</title>
<path fill="none" stroke="black" d="M82.74,-39.0373C80.9318,-48.8579 83.8852,-58 91.6,-58 96.4218,-58 99.3836,-54.4289 100.485,-49.3529"/>
<polygon fill="black" stroke="black" points="103.985,-49.0286 100.46,-39.0373 96.9848,-49.0459 103.985,-49.0286"/>
<text text-anchor="middle" x="91.6" y="-61.8" font-family="Times New Roman,serif" font-size="14.00">a</text>
</g>
<!-- 2 -->
<g id="node4" class="node"><title>2</title>
<ellipse fill="none" stroke="black" cx="187.6" cy="-55" rx="18" ry="18"/>
<ellipse fill="none" stroke="black" cx="187.6" cy="-55" rx="22" ry="22"/>
<text text-anchor="middle" x="187.6" y="-51.3" font-family="Times New Roman,serif" font-size="14.00">2</text>
</g>
<!-- 0&#45;&gt;2 -->
<g id="edge4" class="edge"><title>0&#45;&gt;2</title>
<path fill="none" stroke="black" d="M115.836,-30.1573C128.227,-34.5072 143.608,-39.9069 156.862,-44.5599"/>
<polygon fill="black" stroke="black" points="155.903,-47.9327 166.498,-47.9428 158.222,-41.3279 155.903,-47.9327"/>
<text text-anchor="middle" x="142.1" y="-43.8" font-family="Times New Roman,serif" font-size="14.00">m</text>
</g>
<!-- 1 -->
<g id="node3" class="node"><title>1</title>
<ellipse fill="none" stroke="black" cx="274.6" cy="-22" rx="18" ry="18"/>
<ellipse fill="none" stroke="black" cx="274.6" cy="-22" rx="22" ry="22"/>
<text text-anchor="middle" x="274.6" y="-18.3" font-family="Times New Roman,serif" font-size="14.00">1</text>
</g>
<!-- 1&#45;&gt;0 -->
<g id="edge2" class="edge"><title>1&#45;&gt;0</title>
<path fill="none" stroke="black" d="M253.008,-16.7239C240.54,-13.8037 224.265,-10.4744 209.6,-9 190.143,-7.04382 185.08,-7.27905 165.6,-9 153.104,-10.104 139.543,-12.2514 127.538,-14.4877"/>
<polygon fill="black" stroke="black" points="126.602,-11.1042 117.456,-16.4519 127.941,-17.9751 126.602,-11.1042"/>
<text text-anchor="middle" x="187.6" y="-12.8" font-family="Times New Roman,serif" font-size="14.00">a</text>
</g>
<!-- 1&#45;&gt;1 -->
<g id="edge6" class="edge"><title>1&#45;&gt;1</title>
<path fill="none" stroke="black" d="M266.917,-42.9908C265.969,-53.0872 268.53,-62 274.6,-62 278.489,-62 280.937,-58.3422 281.946,-53.0587"/>
<polygon fill="black" stroke="black" points="285.446,-53.1023 282.283,-42.9908 278.45,-52.868 285.446,-53.1023"/>
<text text-anchor="middle" x="274.6" y="-65.8" font-family="Times New Roman,serif" font-size="14.00">m</text>
</g>
<!-- 2&#45;&gt;1 -->
<g id="edge7" class="edge"><title>2&#45;&gt;1</title>
<path fill="none" stroke="black" d="M208.314,-47.3462C218.966,-43.2109 232.328,-38.0231 244.185,-33.4199"/>
<polygon fill="black" stroke="black" points="245.643,-36.6086 253.698,-29.7266 243.109,-30.0831 245.643,-36.6086"/>
<text text-anchor="middle" x="231.1" y="-42.8" font-family="Times New Roman,serif" font-size="14.00">ε</text>
</g>
<!-- 2&#45;&gt;2 -->
<g id="edge3" class="edge"><title>2&#45;&gt;2</title>
<path fill="none" stroke="black" d="M179.917,-75.9908C178.969,-86.0872 181.53,-95 187.6,-95 191.489,-95 193.937,-91.3422 194.946,-86.0587"/>
<polygon fill="black" stroke="black" points="198.446,-86.1023 195.283,-75.9908 191.45,-85.868 198.446,-86.1023"/>
<text text-anchor="middle" x="187.6" y="-98.8" font-family="Times New Roman,serif" font-size="14.00">a</text>
</g>
</g>
</svg>
