<?xml version="1.0" encoding="UTF-8" standalone="no"?>
<!DOCTYPE svg PUBLIC "-//W3C//DTD SVG 1.1//EN"
 "http://www.w3.org/Graphics/SVG/1.1/DTD/svg11.dtd">
<!-- Generated by graphviz version 2.38.0 (20140413.2041)
 -->
<!-- Title: dfa Pages: 1 -->
<svg width="291pt" height="183pt"
 viewBox="0.00 0.00 290.60 183.00" xmlns="http://www.w3.org/2000/svg" xmlns:xlink="http://www.w3.org/1999/xlink">
<g id="graph0" class="graph" transform="scale(1 1) rotate(0) translate(4 179)">
<title>dfa</title>
<polygon fill="white" stroke="none" points="-4,4 -4,-179 286.6,-179 286.6,4 -4,4"/>
<!-- __start -->
<!-- 0 -->
<g id="node2" class="node"><title>0</title>
<ellipse fill="none" stroke="black" cx="82.6" cy="-37" rx="18" ry="18"/>
<text text-anchor="middle" x="82.6" y="-33.3" font-family="Times New Roman,serif" font-size="14.00">0</text>
</g>
<!-- __start&#45;&gt;0 -->
<g id="edge1" class="edge"><title>__start&#45;&gt;0</title>
<path fill="none" stroke="black" d="M3.68496,-37C8.69573,-37 34.008,-37 54.4423,-37"/>
<polygon fill="black" stroke="black" points="54.5501,-40.5001 64.5501,-37 54.5501,-33.5001 54.5501,-40.5001"/>
<text text-anchor="middle" x="34.1" y="-40.8" font-family="Times New Roman,serif" font-size="14.00">start</text>
</g>
<!-- 0&#45;&gt;0 -->
<g id="edge2" class="edge"><title>0&#45;&gt;0</title>
<path fill="none" stroke="black" d="M75.5688,-53.6641C74.0063,-63.625 76.35,-73 82.6,-73 86.6039,-73 89.0047,-69.1525 89.8023,-63.7682"/>
<polygon fill="black" stroke="black" points="93.3001,-63.6033 89.6313,-53.6641 86.3011,-63.7219 93.3001,-63.6033"/>
<text text-anchor="middle" x="82.6" y="-76.8" font-family="Times New Roman,serif" font-size="14.00">a</text>
</g>
<!-- 1 -->
<g id="node3" class="node"><title>1</title>
<ellipse fill="none" stroke="black" cx="169.6" cy="-78" rx="18" ry="18"/>
<ellipse fill="none" stroke="black" cx="169.6" cy="-78" rx="22" ry="22"/>
<text text-anchor="middle" x="169.6" y="-74.3" font-family="Times New Roman,serif" font-size="14.00">1</text>
</g>
<!-- 0&#45;&gt;1 -->
<g id="edge3" class="edge"><title>0&#45;&gt;1</title>
<path fill="none" stroke="black" d="M99.1903,-44.52C110.717,-50.0799 126.729,-57.8036 140.471,-64.4317"/>
<polygon fill="black" stroke="black" points="139.01,-67.613 149.538,-68.8052 142.051,-61.3082 139.01,-67.613"/>
<text text-anchor="middle" x="124.1" y="-61.8" font-family="Times New Roman,serif" font-size="14.00">m</text>
</g>
<!-- 2 -->
<g id="node4" class="node"><title>2</title>
<ellipse fill="none" stroke="black" cx="260.6" cy="-120" rx="18" ry="18"/>
<ellipse fill="none" stroke="black" cx="260.6" cy="-120" rx="22" ry="22"/>
<text text-anchor="middle" x="260.6" y="-116.3" font-family="Times New Roman,serif" font-size="14.00">2</text>
</g>
<!-- 1&#45;&gt;2 -->
<g id="edge4" class="edge"><title>1&#45;&gt;2</title>
<path fill="none" stroke="black" d="M188.416,-90.0335C194.919,-94.1356 202.436,-98.5519 209.6,-102 215.967,-105.065 223,-107.907 229.731,-110.385"/>
<polygon fill="black" stroke="black" points="228.667,-113.722 239.262,-113.74 230.991,-107.119 228.667,-113.722"/>
<text text-anchor="middle" x="215.1" y="-109.8" font-family="Times New Roman,serif" font-size="14.00">a</text>
</g>
<!-- 3 -->
<g id="node5" class="node"><title>3</title>
<ellipse fill="none" stroke="black" cx="260.6" cy="-22" rx="18" ry="18"/>
<ellipse fill="none" stroke="black" cx="260.6" cy="-22" rx="22" ry="22"/>
<text text-anchor="middle" x="260.6" y="-18.3" font-family="Times New Roman,serif" font-size="14.00">3</text>
</g>
<!-- 1&#45;&gt;3 -->
<g id="edge5" class="edge"><title>1&#45;&gt;3</title>
<path fill="none" stroke="black" d="M188.61,-66.6676C201.398,-58.6217 218.773,-47.6889 233.133,-38.6535"/>
<polygon fill="black" stroke="black" points="235.016,-41.6036 241.616,-33.3156 231.288,-35.6789 235.016,-41.6036"/>
<text text-anchor="middle" x="215.1" y="-56.8" font-family="Times New Roman,serif" font-size="14.00">m</text>
</g>
<!-- 2&#45;&gt;1 -->
<g id="edge7" class="edge"><title>2&#45;&gt;1</title>
<path fill="none" stroke="black" d="M246.198,-102.95C239.374,-95.5266 230.444,-87.5071 220.6,-83 214.909,-80.3942 208.48,-78.8563 202.174,-77.9924"/>
<polygon fill="black" stroke="black" points="202.093,-74.4726 191.83,-77.1053 201.495,-81.447 202.093,-74.4726"/>
<text text-anchor="middle" x="215.1" y="-86.8" font-family="Times New Roman,serif" font-size="14.00">m</text>
</g>
<!-- 2&#45;&gt;2 -->
<g id="edge6" class="edge"><title>2&#45;&gt;2</title>
<path fill="none" stroke="black" d="M252.594,-140.581C251.486,-150.845 254.155,-160 260.6,-160 264.729,-160 267.308,-156.243 268.337,-150.844"/>
<polygon fill="black" stroke="black" points="271.843,-150.669 268.606,-140.581 264.845,-150.486 271.843,-150.669"/>
<text text-anchor="middle" x="260.6" y="-163.8" font-family="Times New Roman,serif" font-size="14.00">a</text>
</g>
<!-- 3&#45;&gt;0 -->
<g id="edge8" class="edge"><title>3&#45;&gt;0</title>
<path fill="none" stroke="black" d="M238.542,-23.7947C206.643,-26.5133 146.071,-31.6757 110.852,-34.6774"/>
<polygon fill="black" stroke="black" points="110.463,-31.1978 100.796,-35.5344 111.057,-38.1725 110.463,-31.1978"/>
<text text-anchor="middle" x="169.6" y="-34.8" font-family="Times New Roman,serif" font-size="14.00">a</text>
</g>
<!-- 3&#45;&gt;3 -->
<g id="edge9" class="edge"><title>3&#45;&gt;3</title>
<path fill="none" stroke="black" d="M252.594,-42.5808C251.486,-52.8447 254.155,-62 260.6,-62 264.729,-62 267.308,-58.2427 268.337,-52.8436"/>
<polygon fill="black" stroke="black" points="271.843,-52.6691 268.606,-42.5808 264.845,-52.4857 271.843,-52.6691"/>
<text text-anchor="middle" x="260.6" y="-65.8" font-family="Times New Roman,serif" font-size="14.00">m</text>
</g>
</g>
</svg>
