<?xml version="1.0" encoding="UTF-8" standalone="no"?>
<!DOCTYPE svg PUBLIC "-//W3C//DTD SVG 1.1//EN"
 "http://www.w3.org/Graphics/SVG/1.1/DTD/svg11.dtd">
<!-- Generated by graphviz version 2.38.0 (20140413.2041)
 -->
<!-- Title: dfa Pages: 1 -->
<svg width="309pt" height="183pt"
 viewBox="0.00 0.00 308.60 183.00" xmlns="http://www.w3.org/2000/svg" xmlns:xlink="http://www.w3.org/1999/xlink">
<g id="graph0" class="graph" transform="scale(1 1) rotate(0) translate(4 179)">
<title>dfa</title>
<polygon fill="white" stroke="none" points="-4,4 -4,-179 304.6,-179 304.6,4 -4,4"/>
<!-- __start -->
<!-- 0 -->
<g id="node2" class="node"><title>0</title>
<ellipse fill="none" stroke="black" cx="91.6" cy="-37" rx="27" ry="18"/>
<text text-anchor="middle" x="91.6" y="-33.3" font-family="Times New Roman,serif" font-size="14.00">0</text>
</g>
<!-- __start&#45;&gt;0 -->
<g id="edge1" class="edge"><title>__start&#45;&gt;0</title>
<path fill="none" stroke="black" d="M3.78604,-37C8.86985,-37 32.7092,-37 54.1222,-37"/>
<polygon fill="black" stroke="black" points="54.3463,-40.5001 64.3463,-37 54.3463,-33.5001 54.3463,-40.5001"/>
<text text-anchor="middle" x="34.1" y="-40.8" font-family="Times New Roman,serif" font-size="14.00">start</text>
</g>
<!-- 0&#45;&gt;0 -->
<g id="edge2" class="edge"><title>0&#45;&gt;0</title>
<path fill="none" stroke="black" d="M82.74,-54.0373C80.9318,-63.8579 83.8852,-73 91.6,-73 96.4218,-73 99.3836,-69.4289 100.485,-64.3529"/>
<polygon fill="black" stroke="black" points="103.985,-64.0286 100.46,-54.0373 96.9848,-64.0459 103.985,-64.0286"/>
<text text-anchor="middle" x="91.6" y="-76.8" font-family="Times New Roman,serif" font-size="14.00">a</text>
</g>
<!-- 1 -->
<g id="node3" class="node"><title>1</title>
<ellipse fill="none" stroke="black" cx="187.6" cy="-78" rx="18" ry="18"/>
<ellipse fill="none" stroke="black" cx="187.6" cy="-78" rx="22" ry="22"/>
<text text-anchor="middle" x="187.6" y="-74.3" font-family="Times New Roman,serif" font-size="14.00">1</text>
</g>
<!-- 0&#45;&gt;1 -->
<g id="edge3" class="edge"><title>0&#45;&gt;1</title>
<path fill="none" stroke="black" d="M114.877,-46.7164C127.633,-52.2805 143.787,-59.3263 157.533,-65.3219"/>
<polygon fill="black" stroke="black" points="156.469,-68.676 167.034,-69.4659 159.267,-62.2597 156.469,-68.676"/>
<text text-anchor="middle" x="142.1" y="-62.8" font-family="Times New Roman,serif" font-size="14.00">m</text>
</g>
<!-- 2 -->
<g id="node4" class="node"><title>2</title>
<ellipse fill="none" stroke="black" cx="278.6" cy="-120" rx="18" ry="18"/>
<ellipse fill="none" stroke="black" cx="278.6" cy="-120" rx="22" ry="22"/>
<text text-anchor="middle" x="278.6" y="-116.3" font-family="Times New Roman,serif" font-size="14.00">2</text>
</g>
<!-- 1&#45;&gt;2 -->
<g id="edge4" class="edge"><title>1&#45;&gt;2</title>
<path fill="none" stroke="black" d="M206.416,-90.0335C212.919,-94.1356 220.436,-98.5519 227.6,-102 233.967,-105.065 241,-107.907 247.731,-110.385"/>
<polygon fill="black" stroke="black" points="246.667,-113.722 257.262,-113.74 248.991,-107.119 246.667,-113.722"/>
<text text-anchor="middle" x="233.1" y="-109.8" font-family="Times New Roman,serif" font-size="14.00">a</text>
</g>
<!-- 3 -->
<g id="node5" class="node"><title>3</title>
<ellipse fill="none" stroke="black" cx="278.6" cy="-22" rx="18" ry="18"/>
<ellipse fill="none" stroke="black" cx="278.6" cy="-22" rx="22" ry="22"/>
<text text-anchor="middle" x="278.6" y="-18.3" font-family="Times New Roman,serif" font-size="14.00">3</text>
</g>
<!-- 1&#45;&gt;3 -->
<g id="edge5" class="edge"><title>1&#45;&gt;3</title>
<path fill="none" stroke="black" d="M206.61,-66.6676C219.398,-58.6217 236.773,-47.6889 251.133,-38.6535"/>
<polygon fill="black" stroke="black" points="253.016,-41.6036 259.616,-33.3156 249.288,-35.6789 253.016,-41.6036"/>
<text text-anchor="middle" x="233.1" y="-56.8" font-family="Times New Roman,serif" font-size="14.00">m</text>
</g>
<!-- 2&#45;&gt;1 -->
<g id="edge7" class="edge"><title>2&#45;&gt;1</title>
<path fill="none" stroke="black" d="M264.198,-102.95C257.374,-95.5266 248.444,-87.5071 238.6,-83 232.909,-80.3942 226.48,-78.8563 220.174,-77.9924"/>
<polygon fill="black" stroke="black" points="220.093,-74.4726 209.83,-77.1053 219.495,-81.447 220.093,-74.4726"/>
<text text-anchor="middle" x="233.1" y="-86.8" font-family="Times New Roman,serif" font-size="14.00">m</text>
</g>
<!-- 2&#45;&gt;2 -->
<g id="edge6" class="edge"><title>2&#45;&gt;2</title>
<path fill="none" stroke="black" d="M270.594,-140.581C269.486,-150.845 272.155,-160 278.6,-160 282.729,-160 285.308,-156.243 286.337,-150.844"/>
<polygon fill="black" stroke="black" points="289.843,-150.669 286.606,-140.581 282.845,-150.486 289.843,-150.669"/>
<text text-anchor="middle" x="278.6" y="-163.8" font-family="Times New Roman,serif" font-size="14.00">a</text>
</g>
<!-- 3&#45;&gt;0 -->
<g id="edge8" class="edge"><title>3&#45;&gt;0</title>
<path fill="none" stroke="black" d="M256.494,-23.7113C225.413,-26.2314 166.909,-30.975 128.862,-34.0598"/>
<polygon fill="black" stroke="black" points="128.398,-30.5859 118.714,-34.8827 128.964,-37.563 128.398,-30.5859"/>
<text text-anchor="middle" x="187.6" y="-33.8" font-family="Times New Roman,serif" font-size="14.00">a</text>
</g>
<!-- 3&#45;&gt;3 -->
<g id="edge9" class="edge"><title>3&#45;&gt;3</title>
<path fill="none" stroke="black" d="M270.594,-42.5808C269.486,-52.8447 272.155,-62 278.6,-62 282.729,-62 285.308,-58.2427 286.337,-52.8436"/>
<polygon fill="black" stroke="black" points="289.843,-52.6691 286.606,-42.5808 282.845,-52.4857 289.843,-52.6691"/>
<text text-anchor="middle" x="278.6" y="-65.8" font-family="Times New Roman,serif" font-size="14.00">m</text>
</g>
</g>
</svg>
