<?xml version="1.0" encoding="UTF-8" standalone="no"?>
<!DOCTYPE svg PUBLIC "-//W3C//DTD SVG 1.1//EN"
 "http://www.w3.org/Graphics/SVG/1.1/DTD/svg11.dtd">
<!-- Generated by graphviz version 2.38.0 (20140413.2041)
 -->
<!-- Title: dfa Pages: 1 -->
<svg width="373pt" height="232pt"
 viewBox="0.00 0.00 373.09 231.74" xmlns="http://www.w3.org/2000/svg" xmlns:xlink="http://www.w3.org/1999/xlink">
<g id="graph0" class="graph" transform="scale(1 1) rotate(0) translate(4 227.745)">
<title>dfa</title>
<polygon fill="white" stroke="none" points="-4,4 -4,-227.745 369.088,-227.745 369.088,4 -4,4"/>
<!-- __start -->
<!-- {0} -->
<g id="node2" class="node"><title>{0}</title>
<ellipse fill="none" stroke="black" cx="91.6" cy="-54.0479" rx="27" ry="18"/>
<text text-anchor="middle" x="91.6" y="-50.3479" font-family="Times New Roman,serif" font-size="14.00">{0}</text>
</g>
<!-- __start&#45;&gt;{0} -->
<g id="edge1" class="edge"><title>__start&#45;&gt;{0}</title>
<path fill="none" stroke="black" d="M3.78604,-54.0479C8.86985,-54.0479 32.7092,-54.0479 54.1222,-54.0479"/>
<polygon fill="black" stroke="black" points="54.3463,-57.548 64.3463,-54.0479 54.3463,-50.548 54.3463,-57.548"/>
<text text-anchor="middle" x="34.1" y="-57.8479" font-family="Times New Roman,serif" font-size="14.00">start</text>
</g>
<!-- {0}&#45;&gt;{0} -->
<g id="edge2" class="edge"><title>{0}&#45;&gt;{0}</title>
<path fill="none" stroke="black" d="M82.74,-71.0852C80.9318,-80.9058 83.8852,-90.0479 91.6,-90.0479 96.4218,-90.0479 99.3836,-86.4767 100.485,-81.4008"/>
<polygon fill="black" stroke="black" points="103.985,-81.0765 100.46,-71.0852 96.9848,-81.0938 103.985,-81.0765"/>
<text text-anchor="middle" x="91.6" y="-93.8479" font-family="Times New Roman,serif" font-size="14.00">a</text>
</g>
<!-- {1,2} -->
<g id="node3" class="node"><title>{1,2}</title>
<ellipse fill="none" stroke="black" cx="200.147" cy="-98.0479" rx="30.5892" ry="30.5892"/>
<ellipse fill="none" stroke="black" cx="200.147" cy="-98.0479" rx="34.5946" ry="34.5946"/>
<text text-anchor="middle" x="200.147" y="-94.3479" font-family="Times New Roman,serif" font-size="14.00">{1,2}</text>
</g>
<!-- {0}&#45;&gt;{1,2} -->
<g id="edge3" class="edge"><title>{0}&#45;&gt;{1,2}</title>
<path fill="none" stroke="black" d="M114.936,-63.2717C127.55,-68.4809 143.706,-75.1527 158.487,-81.2568"/>
<polygon fill="black" stroke="black" points="157.372,-84.583 167.951,-85.165 160.044,-78.113 157.372,-84.583"/>
<text text-anchor="middle" x="142.1" y="-79.8479" font-family="Times New Roman,serif" font-size="14.00">m</text>
</g>
<!-- {0,1,2} -->
<g id="node4" class="node"><title>{0,1,2}</title>
<ellipse fill="none" stroke="black" cx="323.391" cy="-149.048" rx="37.8753" ry="37.8753"/>
<ellipse fill="none" stroke="black" cx="323.391" cy="-149.048" rx="41.8942" ry="41.8942"/>
<text text-anchor="middle" x="323.391" y="-145.348" font-family="Times New Roman,serif" font-size="14.00">{0,1,2}</text>
</g>
<!-- {1,2}&#45;&gt;{0,1,2} -->
<g id="edge4" class="edge"><title>{1,2}&#45;&gt;{0,1,2}</title>
<path fill="none" stroke="black" d="M230.407,-115.114C237.574,-118.965 245.31,-122.854 252.695,-126.048 259.368,-128.934 266.529,-131.676 273.63,-134.195"/>
<polygon fill="black" stroke="black" points="272.627,-137.552 283.222,-137.485 274.898,-130.93 272.627,-137.552"/>
<text text-anchor="middle" x="258.195" y="-134.848" font-family="Times New Roman,serif" font-size="14.00">a</text>
</g>
<!-- {1} -->
<g id="node5" class="node"><title>{1}</title>
<ellipse fill="none" stroke="black" cx="323.391" cy="-28.0479" rx="24.089" ry="24.089"/>
<ellipse fill="none" stroke="black" cx="323.391" cy="-28.0479" rx="28.0958" ry="28.0958"/>
<text text-anchor="middle" x="323.391" y="-24.3479" font-family="Times New Roman,serif" font-size="14.00">{1}</text>
</g>
<!-- {1,2}&#45;&gt;{1} -->
<g id="edge5" class="edge"><title>{1,2}&#45;&gt;{1}</title>
<path fill="none" stroke="black" d="M230.497,-81.1028C248.445,-70.7407 271.429,-57.471 289.92,-46.7949"/>
<polygon fill="black" stroke="black" points="291.685,-49.8174 298.596,-41.7863 288.185,-43.7552 291.685,-49.8174"/>
<text text-anchor="middle" x="258.195" y="-71.8479" font-family="Times New Roman,serif" font-size="14.00">m</text>
</g>
<!-- {0,1,2}&#45;&gt;{1,2} -->
<g id="edge7" class="edge"><title>{0,1,2}&#45;&gt;{1,2}</title>
<path fill="none" stroke="black" d="M291.117,-122.523C282.678,-116.564 273.229,-110.878 263.695,-107.048 257.749,-104.659 251.26,-102.892 244.786,-101.587"/>
<polygon fill="black" stroke="black" points="245.146,-98.0987 234.705,-99.8942 243.987,-105.002 245.146,-98.0987"/>
<text text-anchor="middle" x="258.195" y="-110.848" font-family="Times New Roman,serif" font-size="14.00">m</text>
</g>
<!-- {0,1,2}&#45;&gt;{0,1,2} -->
<g id="edge6" class="edge"><title>{0,1,2}&#45;&gt;{0,1,2}</title>
<path fill="none" stroke="black" d="M311.464,-189.224C312.041,-200.289 316.016,-208.745 323.391,-208.745 328.231,-208.745 331.607,-205.103 333.519,-199.472"/>
<polygon fill="black" stroke="black" points="337.036,-199.679 335.318,-189.224 330.141,-198.468 337.036,-199.679"/>
<text text-anchor="middle" x="323.391" y="-212.545" font-family="Times New Roman,serif" font-size="14.00">a</text>
</g>
<!-- {1}&#45;&gt;{0} -->
<g id="edge8" class="edge"><title>{1}&#45;&gt;{0}</title>
<path fill="none" stroke="black" d="M295.086,-28.866C263.714,-30.0598 210.747,-32.8536 165.6,-39.0479 153.009,-40.7754 139.333,-43.3856 127.258,-45.9467"/>
<polygon fill="black" stroke="black" points="126.149,-42.6065 117.127,-48.1614 127.644,-49.4451 126.149,-42.6065"/>
<text text-anchor="middle" x="200.147" y="-42.8479" font-family="Times New Roman,serif" font-size="14.00">a</text>
</g>
<!-- {1}&#45;&gt;{1} -->
<g id="edge9" class="edge"><title>{1}&#45;&gt;{1}</title>
<path fill="none" stroke="black" d="M311.535,-53.6187C310.564,-64.6504 314.516,-74.0957 323.391,-74.0957 329.354,-74.0957 333.095,-69.832 334.613,-63.688"/>
<polygon fill="black" stroke="black" points="338.112,-63.819 335.248,-53.6187 331.126,-63.3787 338.112,-63.819"/>
<text text-anchor="middle" x="323.391" y="-77.8957" font-family="Times New Roman,serif" font-size="14.00">m</text>
</g>
</g>
</svg>
