<?xml version="1.0" encoding="UTF-8" standalone="no"?>
<!DOCTYPE svg PUBLIC "-//W3C//DTD SVG 1.1//EN"
 "http://www.w3.org/Graphics/SVG/1.1/DTD/svg11.dtd">
<!-- Generated by graphviz version 2.38.0 (20140413.2041)
 -->
<!-- Title: dfa Pages: 1 -->
<svg width="367pt" height="232pt"
 viewBox="0.00 0.00 367.18 231.74" xmlns="http://www.w3.org/2000/svg" xmlns:xlink="http://www.w3.org/1999/xlink">
<g id="graph0" class="graph" transform="scale(1 1) rotate(0) translate(4 227.745)">
<title>dfa</title>
<polygon fill="white" stroke="none" points="-4,4 -4,-227.745 363.184,-227.745 363.184,4 -4,4"/>
<!-- __start -->
<!-- {0} -->
<g id="node2" class="node"><title>{0}</title>
<ellipse fill="none" stroke="black" cx="88.6479" cy="-54.0479" rx="24.0958" ry="24.0958"/>
<text text-anchor="middle" x="88.6479" y="-50.3479" font-family="Times New Roman,serif" font-size="14.00">{0}</text>
</g>
<!-- __start&#45;&gt;{0} -->
<g id="edge1" class="edge"><title>__start&#45;&gt;{0}</title>
<path fill="none" stroke="black" d="M3.75288,-54.0479C8.82222,-54.0479 33.1893,-54.0479 54.3658,-54.0479"/>
<polygon fill="black" stroke="black" points="54.4068,-57.548 64.4067,-54.0479 54.4067,-50.548 54.4068,-57.548"/>
<text text-anchor="middle" x="34.1" y="-57.8479" font-family="Times New Roman,serif" font-size="14.00">start</text>
</g>
<!-- {0}&#45;&gt;{0} -->
<g id="edge2" class="edge"><title>{0}&#45;&gt;{0}</title>
<path fill="none" stroke="black" d="M80.1576,-76.9709C79.349,-87.2263 82.1791,-96.0957 88.6479,-96.0957 92.7919,-96.0957 95.4426,-92.4557 96.6001,-87.1432"/>
<polygon fill="black" stroke="black" points="100.105,-87.1419 97.1381,-76.9709 93.1147,-86.7721 100.105,-87.1419"/>
<text text-anchor="middle" x="88.6479" y="-99.8957" font-family="Times New Roman,serif" font-size="14.00">a</text>
</g>
<!-- {1,2} -->
<g id="node3" class="node"><title>{1,2}</title>
<ellipse fill="none" stroke="black" cx="194.243" cy="-98.0479" rx="30.5892" ry="30.5892"/>
<ellipse fill="none" stroke="black" cx="194.243" cy="-98.0479" rx="34.5946" ry="34.5946"/>
<text text-anchor="middle" x="194.243" y="-94.3479" font-family="Times New Roman,serif" font-size="14.00">{1,2}</text>
</g>
<!-- {0}&#45;&gt;{1,2} -->
<g id="edge3" class="edge"><title>{0}&#45;&gt;{1,2}</title>
<path fill="none" stroke="black" d="M111.113,-63.1647C123.055,-68.2368 138.318,-74.7195 152.438,-80.7169"/>
<polygon fill="black" stroke="black" points="151.404,-84.0802 161.977,-84.7681 154.141,-77.6373 151.404,-84.0802"/>
<text text-anchor="middle" x="136.196" y="-79.8479" font-family="Times New Roman,serif" font-size="14.00">m</text>
</g>
<!-- {0,1,2} -->
<g id="node4" class="node"><title>{0,1,2}</title>
<ellipse fill="none" stroke="black" cx="317.487" cy="-149.048" rx="37.8753" ry="37.8753"/>
<ellipse fill="none" stroke="black" cx="317.487" cy="-149.048" rx="41.8942" ry="41.8942"/>
<text text-anchor="middle" x="317.487" y="-145.348" font-family="Times New Roman,serif" font-size="14.00">{0,1,2}</text>
</g>
<!-- {1,2}&#45;&gt;{0,1,2} -->
<g id="edge4" class="edge"><title>{1,2}&#45;&gt;{0,1,2}</title>
<path fill="none" stroke="black" d="M224.503,-115.114C231.67,-118.965 239.406,-122.854 246.79,-126.048 253.464,-128.934 260.625,-131.676 267.725,-134.195"/>
<polygon fill="black" stroke="black" points="266.723,-137.552 277.318,-137.485 268.994,-130.93 266.723,-137.552"/>
<text text-anchor="middle" x="252.29" y="-134.848" font-family="Times New Roman,serif" font-size="14.00">a</text>
</g>
<!-- {1} -->
<g id="node5" class="node"><title>{1}</title>
<ellipse fill="none" stroke="black" cx="317.487" cy="-28.0479" rx="24.089" ry="24.089"/>
<ellipse fill="none" stroke="black" cx="317.487" cy="-28.0479" rx="28.0958" ry="28.0958"/>
<text text-anchor="middle" x="317.487" y="-24.3479" font-family="Times New Roman,serif" font-size="14.00">{1}</text>
</g>
<!-- {1,2}&#45;&gt;{1} -->
<g id="edge5" class="edge"><title>{1,2}&#45;&gt;{1}</title>
<path fill="none" stroke="black" d="M224.593,-81.1028C242.541,-70.7407 265.524,-57.471 284.016,-46.7949"/>
<polygon fill="black" stroke="black" points="285.781,-49.8174 292.691,-41.7863 282.281,-43.7552 285.781,-49.8174"/>
<text text-anchor="middle" x="252.29" y="-71.8479" font-family="Times New Roman,serif" font-size="14.00">m</text>
</g>
<!-- {0,1,2}&#45;&gt;{1,2} -->
<g id="edge7" class="edge"><title>{0,1,2}&#45;&gt;{1,2}</title>
<path fill="none" stroke="black" d="M285.213,-122.523C276.773,-116.564 267.325,-110.878 257.79,-107.048 251.845,-104.659 245.356,-102.892 238.882,-101.587"/>
<polygon fill="black" stroke="black" points="239.242,-98.0987 228.801,-99.8942 238.083,-105.002 239.242,-98.0987"/>
<text text-anchor="middle" x="252.29" y="-110.848" font-family="Times New Roman,serif" font-size="14.00">m</text>
</g>
<!-- {0,1,2}&#45;&gt;{0,1,2} -->
<g id="edge6" class="edge"><title>{0,1,2}&#45;&gt;{0,1,2}</title>
<path fill="none" stroke="black" d="M305.56,-189.224C306.136,-200.289 310.112,-208.745 317.487,-208.745 322.327,-208.745 325.703,-205.103 327.614,-199.472"/>
<polygon fill="black" stroke="black" points="331.132,-199.679 329.414,-189.224 324.237,-198.468 331.132,-199.679"/>
<text text-anchor="middle" x="317.487" y="-212.545" font-family="Times New Roman,serif" font-size="14.00">a</text>
</g>
<!-- {1}&#45;&gt;{0} -->
<g id="edge8" class="edge"><title>{1}&#45;&gt;{0}</title>
<path fill="none" stroke="black" d="M289.173,-28.7981C257.792,-29.9297 204.817,-32.6664 159.696,-39.0479 147.314,-40.799 133.853,-43.4885 122.07,-46.1091"/>
<polygon fill="black" stroke="black" points="121.181,-42.722 112.217,-48.369 122.746,-49.5448 121.181,-42.722"/>
<text text-anchor="middle" x="194.243" y="-42.8479" font-family="Times New Roman,serif" font-size="14.00">a</text>
</g>
<!-- {1}&#45;&gt;{1} -->
<g id="edge9" class="edge"><title>{1}&#45;&gt;{1}</title>
<path fill="none" stroke="black" d="M305.631,-53.6187C304.66,-64.6504 308.612,-74.0957 317.487,-74.0957 323.45,-74.0957 327.19,-69.832 328.709,-63.688"/>
<polygon fill="black" stroke="black" points="332.207,-63.819 329.343,-53.6187 325.221,-63.3787 332.207,-63.819"/>
<text text-anchor="middle" x="317.487" y="-77.8957" font-family="Times New Roman,serif" font-size="14.00">m</text>
</g>
</g>
</svg>
