<?xml version="1.0" encoding="UTF-8" standalone="no"?>
<!DOCTYPE svg PUBLIC "-//W3C//DTD SVG 1.1//EN"
 "http://www.w3.org/Graphics/SVG/1.1/DTD/svg11.dtd">
<!-- Generated by graphviz version 2.38.0 (20140413.2041)
 -->
<!-- Title: dfa Pages: 1 -->
<svg width="196pt" height="179pt"
 viewBox="0.00 0.00 195.60 178.82" xmlns="http://www.w3.org/2000/svg" xmlns:xlink="http://www.w3.org/1999/xlink">
<g id="graph0" class="graph" transform="scale(1 1) rotate(0) translate(4 174.816)">
<title>dfa</title>
<polygon fill="white" stroke="none" points="-4,4 -4,-174.816 191.6,-174.816 191.6,4 -4,4"/>
<!-- __start -->
<!-- 0 -->
<g id="node2" class="node"><title>0</title>
<ellipse fill="none" stroke="black" cx="82.6" cy="-80.8156" rx="18" ry="18"/>
<text text-anchor="middle" x="82.6" y="-77.1156" font-family="Times New Roman,serif" font-size="14.00">0</text>
</g>
<!-- __start&#45;&gt;0 -->
<g id="edge1" class="edge"><title>__start&#45;&gt;0</title>
<path fill="none" stroke="black" d="M3.68496,-80.8156C8.69573,-80.8156 34.008,-80.8156 54.4423,-80.8156"/>
<polygon fill="black" stroke="black" points="54.5501,-84.3157 64.5501,-80.8156 54.5501,-77.3157 54.5501,-84.3157"/>
<text text-anchor="middle" x="34.1" y="-84.6156" font-family="Times New Roman,serif" font-size="14.00">start</text>
</g>
<!-- 1 -->
<g id="node3" class="node"><title>1</title>
<ellipse fill="none" stroke="black" cx="165.6" cy="-137.816" rx="18" ry="18"/>
<ellipse fill="none" stroke="black" cx="165.6" cy="-137.816" rx="22" ry="22"/>
<text text-anchor="middle" x="165.6" y="-134.116" font-family="Times New Roman,serif" font-size="14.00">1</text>
</g>
<!-- 0&#45;&gt;1 -->
<g id="edge4" class="edge"><title>0&#45;&gt;1</title>
<path fill="none" stroke="black" d="M86.571,-98.5325C90.544,-115.995 99.4503,-141.76 118.6,-153.816 124.561,-157.569 131.515,-157.184 138.183,-154.958"/>
<polygon fill="black" stroke="black" points="139.965,-157.992 147.599,-150.646 137.05,-151.627 139.965,-157.992"/>
<text text-anchor="middle" x="122.1" y="-159.616" font-family="Times New Roman,serif" font-size="14.00">e</text>
</g>
<!-- 2 -->
<g id="node4" class="node"><title>2</title>
<ellipse fill="none" stroke="black" cx="165.6" cy="-23.8156" rx="18" ry="18"/>
<text text-anchor="middle" x="165.6" y="-20.1156" font-family="Times New Roman,serif" font-size="14.00">2</text>
</g>
<!-- 0&#45;&gt;2 -->
<g id="edge5" class="edge"><title>0&#45;&gt;2</title>
<path fill="none" stroke="black" d="M97.7091,-70.8869C109.946,-62.2759 127.876,-49.6587 142.093,-39.6541"/>
<polygon fill="black" stroke="black" points="144.217,-42.439 150.381,-33.8217 140.188,-36.7143 144.217,-42.439"/>
<text text-anchor="middle" x="122.1" y="-58.6156" font-family="Times New Roman,serif" font-size="14.00">x</text>
</g>
<!-- 1&#45;&gt;0 -->
<g id="edge6" class="edge"><title>1&#45;&gt;0</title>
<path fill="none" stroke="black" d="M144.537,-129.998C136.16,-126.293 126.549,-121.44 118.6,-115.816 112.756,-111.681 107.008,-106.53 101.914,-101.463"/>
<polygon fill="black" stroke="black" points="104.427,-99.0268 94.9819,-94.2268 99.3722,-103.869 104.427,-99.0268"/>
<text text-anchor="middle" x="122.1" y="-123.616" font-family="Times New Roman,serif" font-size="14.00">e</text>
</g>
<!-- 1&#45;&gt;0 -->
<g id="edge7" class="edge"><title>1&#45;&gt;0</title>
<path fill="none" stroke="black" d="M151.233,-120.517C144.291,-112.451 135.251,-103.238 125.6,-96.8156 120.809,-93.6274 115.293,-90.9483 109.867,-88.7495"/>
<polygon fill="black" stroke="black" points="110.968,-85.4257 100.374,-85.3042 108.58,-92.0057 110.968,-85.4257"/>
<text text-anchor="middle" x="122.1" y="-100.616" font-family="Times New Roman,serif" font-size="14.00">x</text>
</g>
<!-- 2&#45;&gt;0 -->
<g id="edge2" class="edge"><title>2&#45;&gt;0</title>
<path fill="none" stroke="black" d="M147.83,-20.4789C138.63,-19.5211 127.35,-19.841 118.6,-24.8156 107.191,-31.3019 98.9874,-43.1841 93.4034,-54.3398"/>
<polygon fill="black" stroke="black" points="90.0579,-53.2461 89.1559,-63.8024 96.4441,-56.1126 90.0579,-53.2461"/>
<text text-anchor="middle" x="122.1" y="-28.6156" font-family="Times New Roman,serif" font-size="14.00">e</text>
</g>
<!-- 2&#45;&gt;0 -->
<g id="edge3" class="edge"><title>2&#45;&gt;0</title>
<path fill="none" stroke="black" d="M151.984,-11.3293C142.44,-3.44906 129.212,4.05418 118.6,-2.81555 101.519,-13.8731 92.6946,-35.4567 88.1828,-53.1213"/>
<polygon fill="black" stroke="black" points="84.7492,-52.4386 85.9947,-62.96 91.5822,-53.9583 84.7492,-52.4386"/>
<text text-anchor="middle" x="122.1" y="-6.61555" font-family="Times New Roman,serif" font-size="14.00">x</text>
</g>
</g>
</svg>
