<?xml version="1.0" encoding="UTF-8" standalone="no"?>
<!DOCTYPE svg PUBLIC "-//W3C//DTD SVG 1.1//EN"
 "http://www.w3.org/Graphics/SVG/1.1/DTD/svg11.dtd">
<!-- Generated by graphviz version 2.38.0 (20140413.2041)
 -->
<!-- Title: dfa Pages: 1 -->
<svg width="372pt" height="110pt"
 viewBox="0.00 0.00 371.60 110.00" xmlns="http://www.w3.org/2000/svg" xmlns:xlink="http://www.w3.org/1999/xlink">
<g id="graph0" class="graph" transform="scale(1 1) rotate(0) translate(4 106)">
<title>dfa</title>
<polygon fill="white" stroke="none" points="-4,4 -4,-106 367.6,-106 367.6,4 -4,4"/>
<!-- __start -->
<!-- 0 -->
<g id="node2" class="node"><title>0</title>
<ellipse fill="none" stroke="black" cx="91.6" cy="-31" rx="27" ry="18"/>
<text text-anchor="middle" x="91.6" y="-27.3" font-family="Times New Roman,serif" font-size="14.00">0</text>
</g>
<!-- __start&#45;&gt;0 -->
<g id="edge1" class="edge"><title>__start&#45;&gt;0</title>
<path fill="none" stroke="black" d="M3.78604,-31C8.86985,-31 32.7092,-31 54.1222,-31"/>
<polygon fill="black" stroke="black" points="54.3463,-34.5001 64.3463,-31 54.3463,-27.5001 54.3463,-34.5001"/>
<text text-anchor="middle" x="34.1" y="-34.8" font-family="Times New Roman,serif" font-size="14.00">start</text>
</g>
<!-- 2 -->
<g id="node4" class="node"><title>2</title>
<ellipse fill="none" stroke="black" cx="179.6" cy="-56" rx="18" ry="18"/>
<text text-anchor="middle" x="179.6" y="-52.3" font-family="Times New Roman,serif" font-size="14.00">2</text>
</g>
<!-- 0&#45;&gt;2 -->
<g id="edge2" class="edge"><title>0&#45;&gt;2</title>
<path fill="none" stroke="black" d="M115.24,-39.9083C122.044,-42.4012 129.569,-44.9788 136.6,-47 141.451,-48.3946 146.673,-49.6809 151.731,-50.8187"/>
<polygon fill="black" stroke="black" points="151.202,-54.2842 161.71,-52.9327 152.652,-47.4362 151.202,-54.2842"/>
<text text-anchor="middle" x="140.1" y="-51.8" font-family="Times New Roman,serif" font-size="14.00">e</text>
</g>
<!-- 3 -->
<g id="node5" class="node"><title>3</title>
<ellipse fill="none" stroke="black" cx="345.6" cy="-18" rx="18" ry="18"/>
<text text-anchor="middle" x="345.6" y="-14.3" font-family="Times New Roman,serif" font-size="14.00">3</text>
</g>
<!-- 0&#45;&gt;3 -->
<g id="edge3" class="edge"><title>0&#45;&gt;3</title>
<path fill="none" stroke="black" d="M117.619,-25.1893C123.793,-23.9474 130.411,-22.7771 136.6,-22 201.903,-13.801 218.787,-16.4516 284.6,-17 295.347,-17.0896 307.176,-17.2693 317.47,-17.4521"/>
<polygon fill="black" stroke="black" points="317.468,-20.9525 327.532,-17.6399 317.599,-13.9538 317.468,-20.9525"/>
<text text-anchor="middle" x="219.1" y="-19.8" font-family="Times New Roman,serif" font-size="14.00">x</text>
</g>
<!-- 1 -->
<g id="node3" class="node"><title>1</title>
<ellipse fill="none" stroke="black" cx="262.6" cy="-48" rx="18" ry="18"/>
<ellipse fill="none" stroke="black" cx="262.6" cy="-48" rx="22" ry="22"/>
<text text-anchor="middle" x="262.6" y="-44.3" font-family="Times New Roman,serif" font-size="14.00">1</text>
</g>
<!-- 1&#45;&gt;2 -->
<g id="edge4" class="edge"><title>1&#45;&gt;2</title>
<path fill="none" stroke="black" d="M240.904,-43.2422C232.956,-42.0704 223.823,-41.5222 215.6,-43 212.346,-43.5847 209,-44.4524 205.727,-45.4672"/>
<polygon fill="black" stroke="black" points="204.547,-42.1721 196.294,-48.8164 206.889,-48.7686 204.547,-42.1721"/>
<text text-anchor="middle" x="219.1" y="-46.8" font-family="Times New Roman,serif" font-size="14.00">e</text>
</g>
<!-- 1&#45;&gt;3 -->
<g id="edge5" class="edge"><title>1&#45;&gt;3</title>
<path fill="none" stroke="black" d="M283.622,-40.5843C294.275,-36.6387 307.493,-31.7432 318.897,-27.5197"/>
<polygon fill="black" stroke="black" points="320.179,-30.7772 328.341,-24.0219 317.748,-24.213 320.179,-30.7772"/>
<text text-anchor="middle" x="306.1" y="-36.8" font-family="Times New Roman,serif" font-size="14.00">x</text>
</g>
<!-- 2&#45;&gt;0 -->
<g id="edge6" class="edge"><title>2&#45;&gt;0</title>
<path fill="none" stroke="black" d="M166.607,-43.0123C160.378,-37.2258 152.265,-31.0394 143.6,-28 138.602,-26.2467 133.16,-25.4747 127.754,-25.3216"/>
<polygon fill="black" stroke="black" points="127.393,-21.8323 117.528,-25.6944 127.649,-28.8276 127.393,-21.8323"/>
<text text-anchor="middle" x="140.1" y="-31.8" font-family="Times New Roman,serif" font-size="14.00">e</text>
</g>
<!-- 2&#45;&gt;1 -->
<g id="edge7" class="edge"><title>2&#45;&gt;1</title>
<path fill="none" stroke="black" d="M197.681,-57.1718C203.378,-57.5103 209.76,-57.8333 215.6,-58 218.71,-58.0888 219.513,-58.3894 222.6,-58 225.461,-57.6391 228.412,-57.1348 231.351,-56.5428"/>
<polygon fill="black" stroke="black" points="232.191,-59.941 241.142,-54.2727 230.609,-53.1219 232.191,-59.941"/>
<text text-anchor="middle" x="219.1" y="-61.8" font-family="Times New Roman,serif" font-size="14.00">x</text>
</g>
<!-- 3&#45;&gt;3 -->
<g id="edge8" class="edge"><title>3&#45;&gt;3</title>
<path fill="none" stroke="black" d="M342.184,-35.7817C341.604,-45.3149 342.743,-54 345.6,-54 347.341,-54 348.444,-50.7749 348.909,-46.0981"/>
<polygon fill="black" stroke="black" points="352.412,-45.8174 349.016,-35.7817 345.412,-45.745 352.412,-45.8174"/>
<text text-anchor="middle" x="345.6" y="-57.8" font-family="Times New Roman,serif" font-size="14.00">e</text>
</g>
<!-- 3&#45;&gt;3 -->
<g id="edge9" class="edge"><title>3&#45;&gt;3</title>
<path fill="none" stroke="black" d="M340.041,-35.1418C336.77,-52.585 338.623,-72 345.6,-72 351.214,-72 353.51,-59.4283 352.489,-45.4287"/>
<polygon fill="black" stroke="black" points="355.913,-44.6105 351.159,-35.1418 348.97,-45.508 355.913,-44.6105"/>
<text text-anchor="middle" x="345.6" y="-75.8" font-family="Times New Roman,serif" font-size="14.00">x</text>
</g>
</g>
</svg>
