<?xml version="1.0" encoding="UTF-8" standalone="no"?>
<!DOCTYPE svg PUBLIC "-//W3C//DTD SVG 1.1//EN"
 "http://www.w3.org/Graphics/SVG/1.1/DTD/svg11.dtd">
<!-- Generated by graphviz version 2.38.0 (20140413.2041)
 -->
<!-- Title: dfa Pages: 1 -->
<svg width="214pt" height="178pt"
 viewBox="0.00 0.00 213.60 178.48" xmlns="http://www.w3.org/2000/svg" xmlns:xlink="http://www.w3.org/1999/xlink">
<g id="graph0" class="graph" transform="scale(1 1) rotate(0) translate(4 174.48)">
<title>dfa</title>
<polygon fill="white" stroke="none" points="-4,4 -4,-174.48 209.6,-174.48 209.6,4 -4,4"/>
<!-- __start -->
<!-- 0 -->
<g id="node2" class="node"><title>0</title>
<ellipse fill="none" stroke="black" cx="91.6" cy="-80.4804" rx="27" ry="18"/>
<text text-anchor="middle" x="91.6" y="-76.7804" font-family="Times New Roman,serif" font-size="14.00">0</text>
</g>
<!-- __start&#45;&gt;0 -->
<g id="edge1" class="edge"><title>__start&#45;&gt;0</title>
<path fill="none" stroke="black" d="M3.78604,-80.4804C8.86985,-80.4804 32.7092,-80.4804 54.1222,-80.4804"/>
<polygon fill="black" stroke="black" points="54.3463,-83.9805 64.3463,-80.4804 54.3463,-76.9805 54.3463,-83.9805"/>
<text text-anchor="middle" x="34.1" y="-84.2804" font-family="Times New Roman,serif" font-size="14.00">start</text>
</g>
<!-- 1 -->
<g id="node3" class="node"><title>1</title>
<ellipse fill="none" stroke="black" cx="183.6" cy="-137.48" rx="18" ry="18"/>
<ellipse fill="none" stroke="black" cx="183.6" cy="-137.48" rx="22" ry="22"/>
<text text-anchor="middle" x="183.6" y="-133.78" font-family="Times New Roman,serif" font-size="14.00">1</text>
</g>
<!-- 0&#45;&gt;1 -->
<g id="edge4" class="edge"><title>0&#45;&gt;1</title>
<path fill="none" stroke="black" d="M97.7108,-98.3371C103.801,-115.911 115.856,-141.763 136.6,-153.48 142.635,-156.889 149.521,-156.475 156.095,-154.336"/>
<polygon fill="black" stroke="black" points="157.651,-157.474 165.367,-150.213 154.807,-151.078 157.651,-157.474"/>
<text text-anchor="middle" x="140.1" y="-159.28" font-family="Times New Roman,serif" font-size="14.00">e</text>
</g>
<!-- 2 -->
<g id="node4" class="node"><title>2</title>
<ellipse fill="none" stroke="black" cx="183.6" cy="-23.4804" rx="18" ry="18"/>
<text text-anchor="middle" x="183.6" y="-19.7804" font-family="Times New Roman,serif" font-size="14.00">2</text>
</g>
<!-- 0&#45;&gt;2 -->
<g id="edge5" class="edge"><title>0&#45;&gt;2</title>
<path fill="none" stroke="black" d="M111.687,-68.3922C125.617,-59.5697 144.573,-47.5645 159.381,-38.1857"/>
<polygon fill="black" stroke="black" points="161.408,-41.0449 167.984,-32.7375 157.663,-35.1312 161.408,-41.0449"/>
<text text-anchor="middle" x="140.1" y="-55.2804" font-family="Times New Roman,serif" font-size="14.00">x</text>
</g>
<!-- 1&#45;&gt;0 -->
<g id="edge6" class="edge"><title>1&#45;&gt;0</title>
<path fill="none" stroke="black" d="M162.836,-129.215C154.509,-125.433 144.855,-120.645 136.6,-115.48 129.887,-111.281 123.01,-106.228 116.747,-101.284"/>
<polygon fill="black" stroke="black" points="118.625,-98.3005 108.661,-94.7016 114.206,-103.729 118.625,-98.3005"/>
<text text-anchor="middle" x="140.1" y="-122.28" font-family="Times New Roman,serif" font-size="14.00">e</text>
</g>
<!-- 1&#45;&gt;0 -->
<g id="edge7" class="edge"><title>1&#45;&gt;0</title>
<path fill="none" stroke="black" d="M169.746,-120.339C162.8,-112.113 153.606,-102.714 143.6,-96.4804 138.554,-93.3367 132.84,-90.7645 127.108,-88.6745"/>
<polygon fill="black" stroke="black" points="128.151,-85.3334 117.56,-85.5969 126.004,-91.9959 128.151,-85.3334"/>
<text text-anchor="middle" x="140.1" y="-100.28" font-family="Times New Roman,serif" font-size="14.00">x</text>
</g>
<!-- 2&#45;&gt;0 -->
<g id="edge2" class="edge"><title>2&#45;&gt;0</title>
<path fill="none" stroke="black" d="M165.59,-20.4732C156.53,-19.681 145.461,-20.0539 136.6,-24.4804 123.683,-30.933 113.394,-43.152 106.024,-54.5336"/>
<polygon fill="black" stroke="black" points="102.877,-52.9776 100.745,-63.3558 108.883,-56.5722 102.877,-52.9776"/>
<text text-anchor="middle" x="140.1" y="-28.2804" font-family="Times New Roman,serif" font-size="14.00">e</text>
</g>
<!-- 2&#45;&gt;0 -->
<g id="edge3" class="edge"><title>2&#45;&gt;0</title>
<path fill="none" stroke="black" d="M170.158,-11.278C160.706,-3.54639 147.516,3.89508 136.6,-2.48039 117.996,-13.346 106.64,-35.3033 100.137,-53.1605"/>
<polygon fill="black" stroke="black" points="96.7579,-52.2304 96.9293,-62.8239 103.401,-54.4357 96.7579,-52.2304"/>
<text text-anchor="middle" x="140.1" y="-6.28039" font-family="Times New Roman,serif" font-size="14.00">x</text>
</g>
</g>
</svg>
