<?xml version="1.0" encoding="UTF-8" standalone="no"?>
<!DOCTYPE svg PUBLIC "-//W3C//DTD SVG 1.1//EN"
 "http://www.w3.org/Graphics/SVG/1.1/DTD/svg11.dtd">
<!-- Generated by graphviz version 2.38.0 (20140413.2041)
 -->
<!-- Title: dfa Pages: 1 -->
<svg width="354pt" height="110pt"
 viewBox="0.00 0.00 353.60 110.00" xmlns="http://www.w3.org/2000/svg" xmlns:xlink="http://www.w3.org/1999/xlink">
<g id="graph0" class="graph" transform="scale(1 1) rotate(0) translate(4 106)">
<title>dfa</title>
<polygon fill="white" stroke="none" points="-4,4 -4,-106 349.6,-106 349.6,4 -4,4"/>
<!-- __start -->
<!-- 0 -->
<g id="node2" class="node"><title>0</title>
<ellipse fill="none" stroke="black" cx="82.6" cy="-31" rx="18" ry="18"/>
<text text-anchor="middle" x="82.6" y="-27.3" font-family="Times New Roman,serif" font-size="14.00">0</text>
</g>
<!-- __start&#45;&gt;0 -->
<g id="edge1" class="edge"><title>__start&#45;&gt;0</title>
<path fill="none" stroke="black" d="M3.68496,-31C8.69573,-31 34.008,-31 54.4423,-31"/>
<polygon fill="black" stroke="black" points="54.5501,-34.5001 64.5501,-31 54.5501,-27.5001 54.5501,-34.5001"/>
<text text-anchor="middle" x="34.1" y="-34.8" font-family="Times New Roman,serif" font-size="14.00">start</text>
</g>
<!-- 2 -->
<g id="node4" class="node"><title>2</title>
<ellipse fill="none" stroke="black" cx="161.6" cy="-56" rx="18" ry="18"/>
<text text-anchor="middle" x="161.6" y="-52.3" font-family="Times New Roman,serif" font-size="14.00">2</text>
</g>
<!-- 0&#45;&gt;2 -->
<g id="edge2" class="edge"><title>0&#45;&gt;2</title>
<path fill="none" stroke="black" d="M98.9883,-38.9124C104.991,-41.7643 112.004,-44.8147 118.6,-47 123.391,-48.5875 128.585,-49.9647 133.634,-51.1318"/>
<polygon fill="black" stroke="black" points="133.111,-54.5983 143.617,-53.2326 134.552,-47.7483 133.111,-54.5983"/>
<text text-anchor="middle" x="122.1" y="-52.8" font-family="Times New Roman,serif" font-size="14.00">e</text>
</g>
<!-- 3 -->
<g id="node5" class="node"><title>3</title>
<ellipse fill="none" stroke="black" cx="327.6" cy="-18" rx="18" ry="18"/>
<text text-anchor="middle" x="327.6" y="-14.3" font-family="Times New Roman,serif" font-size="14.00">3</text>
</g>
<!-- 0&#45;&gt;3 -->
<g id="edge3" class="edge"><title>0&#45;&gt;3</title>
<path fill="none" stroke="black" d="M100.192,-25.996C105.966,-24.4521 112.52,-22.918 118.6,-22 183.678,-12.1735 200.787,-16.4516 266.6,-17 277.347,-17.0896 289.176,-17.2693 299.47,-17.4521"/>
<polygon fill="black" stroke="black" points="299.468,-20.9525 309.532,-17.6399 299.599,-13.9538 299.468,-20.9525"/>
<text text-anchor="middle" x="201.1" y="-18.8" font-family="Times New Roman,serif" font-size="14.00">x</text>
</g>
<!-- 1 -->
<g id="node3" class="node"><title>1</title>
<ellipse fill="none" stroke="black" cx="244.6" cy="-48" rx="18" ry="18"/>
<ellipse fill="none" stroke="black" cx="244.6" cy="-48" rx="22" ry="22"/>
<text text-anchor="middle" x="244.6" y="-44.3" font-family="Times New Roman,serif" font-size="14.00">1</text>
</g>
<!-- 1&#45;&gt;2 -->
<g id="edge4" class="edge"><title>1&#45;&gt;2</title>
<path fill="none" stroke="black" d="M222.904,-43.2422C214.956,-42.0704 205.823,-41.5222 197.6,-43 194.346,-43.5847 191,-44.4524 187.727,-45.4672"/>
<polygon fill="black" stroke="black" points="186.547,-42.1721 178.294,-48.8164 188.889,-48.7686 186.547,-42.1721"/>
<text text-anchor="middle" x="201.1" y="-46.8" font-family="Times New Roman,serif" font-size="14.00">e</text>
</g>
<!-- 1&#45;&gt;3 -->
<g id="edge5" class="edge"><title>1&#45;&gt;3</title>
<path fill="none" stroke="black" d="M265.622,-40.5843C276.275,-36.6387 289.493,-31.7432 300.897,-27.5197"/>
<polygon fill="black" stroke="black" points="302.179,-30.7772 310.341,-24.0219 299.748,-24.213 302.179,-30.7772"/>
<text text-anchor="middle" x="288.1" y="-36.8" font-family="Times New Roman,serif" font-size="14.00">x</text>
</g>
<!-- 2&#45;&gt;0 -->
<g id="edge6" class="edge"><title>2&#45;&gt;0</title>
<path fill="none" stroke="black" d="M148.607,-43.0123C142.378,-37.2258 134.265,-31.0394 125.6,-28 120.849,-26.3334 115.614,-25.7807 110.5,-25.8632"/>
<polygon fill="black" stroke="black" points="110.013,-22.3928 100.365,-26.7713 110.638,-29.3648 110.013,-22.3928"/>
<text text-anchor="middle" x="122.1" y="-31.8" font-family="Times New Roman,serif" font-size="14.00">e</text>
</g>
<!-- 2&#45;&gt;1 -->
<g id="edge7" class="edge"><title>2&#45;&gt;1</title>
<path fill="none" stroke="black" d="M179.681,-57.1718C185.378,-57.5103 191.76,-57.8333 197.6,-58 200.71,-58.0888 201.513,-58.3894 204.6,-58 207.461,-57.6391 210.412,-57.1348 213.351,-56.5428"/>
<polygon fill="black" stroke="black" points="214.191,-59.941 223.142,-54.2727 212.609,-53.1219 214.191,-59.941"/>
<text text-anchor="middle" x="201.1" y="-61.8" font-family="Times New Roman,serif" font-size="14.00">x</text>
</g>
<!-- 3&#45;&gt;3 -->
<g id="edge8" class="edge"><title>3&#45;&gt;3</title>
<path fill="none" stroke="black" d="M324.184,-35.7817C323.604,-45.3149 324.743,-54 327.6,-54 329.341,-54 330.444,-50.7749 330.909,-46.0981"/>
<polygon fill="black" stroke="black" points="334.412,-45.8174 331.016,-35.7817 327.412,-45.745 334.412,-45.8174"/>
<text text-anchor="middle" x="327.6" y="-57.8" font-family="Times New Roman,serif" font-size="14.00">e</text>
</g>
<!-- 3&#45;&gt;3 -->
<g id="edge9" class="edge"><title>3&#45;&gt;3</title>
<path fill="none" stroke="black" d="M322.041,-35.1418C318.77,-52.585 320.623,-72 327.6,-72 333.214,-72 335.51,-59.4283 334.489,-45.4287"/>
<polygon fill="black" stroke="black" points="337.913,-44.6105 333.159,-35.1418 330.97,-45.508 337.913,-44.6105"/>
<text text-anchor="middle" x="327.6" y="-75.8" font-family="Times New Roman,serif" font-size="14.00">x</text>
</g>
</g>
</svg>
