<?xml version="1.0" encoding="UTF-8" standalone="no"?>
<!DOCTYPE svg PUBLIC "-//W3C//DTD SVG 1.1//EN"
 "http://www.w3.org/Graphics/SVG/1.1/DTD/svg11.dtd">
<!-- Generated by graphviz version 2.38.0 (20140413.2041)
 -->
<!-- Title: enfa Pages: 1 -->
<svg width="271pt" height="115pt"
 viewBox="0.00 0.00 270.60 115.00" xmlns="http://www.w3.org/2000/svg" xmlns:xlink="http://www.w3.org/1999/xlink">
<g id="graph0" class="graph" transform="scale(1 1) rotate(0) translate(4 111)">
<title>enfa</title>
<polygon fill="white" stroke="none" points="-4,4 -4,-111 266.6,-111 266.6,4 -4,4"/>
<!-- __start -->
<!-- 0 -->
<g id="node2" class="node"><title>0</title>
<ellipse fill="none" stroke="black" cx="82.6" cy="-18" rx="18" ry="18"/>
<text text-anchor="middle" x="82.6" y="-14.3" font-family="Times New Roman,serif" font-size="14.00">0</text>
</g>
<!-- __start&#45;&gt;0 -->
<g id="edge1" class="edge"><title>__start&#45;&gt;0</title>
<path fill="none" stroke="black" d="M3.68496,-18C8.69573,-18 34.008,-18 54.4423,-18"/>
<polygon fill="black" stroke="black" points="54.5501,-21.5001 64.5501,-18 54.5501,-14.5001 54.5501,-21.5001"/>
<text text-anchor="middle" x="34.1" y="-21.8" font-family="Times New Roman,serif" font-size="14.00">start</text>
</g>
<!-- 0&#45;&gt;0 -->
<g id="edge4" class="edge"><title>0&#45;&gt;0</title>
<path fill="none" stroke="black" d="M75.8664,-35.0373C74.4922,-44.8579 76.7367,-54 82.6,-54 86.2646,-54 88.5155,-50.4289 89.3529,-45.3529"/>
<polygon fill="black" stroke="black" points="92.8524,-45.0307 89.3336,-35.0373 85.8524,-45.0439 92.8524,-45.0307"/>
<text text-anchor="middle" x="82.6" y="-57.8" font-family="Times New Roman,serif" font-size="14.00">f</text>
</g>
<!-- 2 -->
<g id="node4" class="node"><title>2</title>
<ellipse fill="none" stroke="black" cx="159.6" cy="-56" rx="18" ry="18"/>
<text text-anchor="middle" x="159.6" y="-52.3" font-family="Times New Roman,serif" font-size="14.00">2</text>
</g>
<!-- 0&#45;&gt;2 -->
<g id="edge5" class="edge"><title>0&#45;&gt;2</title>
<path fill="none" stroke="black" d="M99.14,-25.8736C109.263,-31.0027 122.683,-37.802 134.211,-43.6431"/>
<polygon fill="black" stroke="black" points="132.834,-46.8689 143.336,-48.2665 135.998,-40.6246 132.834,-46.8689"/>
<text text-anchor="middle" x="121.1" y="-41.8" font-family="Times New Roman,serif" font-size="14.00">f</text>
</g>
<!-- 0&#45;&gt;2 -->
<g id="edge6" class="edge"><title>0&#45;&gt;2</title>
<path fill="none" stroke="black" d="M100.206,-13.8133C107.66,-12.763 116.382,-12.7246 123.6,-16 131.399,-19.5389 138.143,-25.7694 143.573,-32.2747"/>
<polygon fill="black" stroke="black" points="140.927,-34.5802 149.727,-40.4798 146.527,-30.3799 140.927,-34.5802"/>
<text text-anchor="middle" x="121.1" y="-19.8" font-family="Times New Roman,serif" font-size="14.00">i</text>
</g>
<!-- 1 -->
<g id="node3" class="node"><title>1</title>
<ellipse fill="none" stroke="black" cx="240.6" cy="-37" rx="18" ry="18"/>
<ellipse fill="none" stroke="black" cx="240.6" cy="-37" rx="22" ry="22"/>
<text text-anchor="middle" x="240.6" y="-33.3" font-family="Times New Roman,serif" font-size="14.00">1</text>
</g>
<!-- 1&#45;&gt;0 -->
<g id="edge8" class="edge"><title>1&#45;&gt;0</title>
<path fill="none" stroke="black" d="M219.899,-28.4971C213.763,-25.9626 206.942,-23.2605 200.6,-21 190.535,-17.4127 188.103,-15.9622 177.6,-14 153.944,-9.58052 147.649,-10.8895 123.6,-10 121.379,-9.91786 120.808,-9.75085 118.6,-10 115.85,-10.3103 113,-10.7537 110.169,-11.2747"/>
<polygon fill="black" stroke="black" points="109.252,-7.89144 100.203,-13.4021 110.714,-14.7372 109.252,-7.89144"/>
<text text-anchor="middle" x="159.6" y="-17.8" font-family="Times New Roman,serif" font-size="14.00">f</text>
</g>
<!-- 1&#45;&gt;1 -->
<g id="edge9" class="edge"><title>1&#45;&gt;1</title>
<path fill="none" stroke="black" d="M232.917,-57.9908C231.969,-68.0872 234.53,-77 240.6,-77 244.489,-77 246.937,-73.3422 247.946,-68.0587"/>
<polygon fill="black" stroke="black" points="251.446,-68.1023 248.283,-57.9908 244.45,-67.868 251.446,-68.1023"/>
<text text-anchor="middle" x="240.6" y="-80.8" font-family="Times New Roman,serif" font-size="14.00">f</text>
</g>
<!-- 1&#45;&gt;2 -->
<g id="edge7" class="edge"><title>1&#45;&gt;2</title>
<path fill="none" stroke="black" d="M218.934,-41.9703C209.217,-44.3073 197.514,-47.1218 187.15,-49.6146"/>
<polygon fill="black" stroke="black" points="186.258,-46.2292 177.354,-51.9706 187.895,-53.0351 186.258,-46.2292"/>
<text text-anchor="middle" x="198.1" y="-50.8" font-family="Times New Roman,serif" font-size="14.00">f</text>
</g>
<!-- 1&#45;&gt;2 -->
<g id="edge10" class="edge"><title>1&#45;&gt;2</title>
<path fill="none" stroke="black" d="M220.466,-27.961C212.634,-25.4626 203.559,-24.1311 195.6,-27 190.032,-29.0069 184.723,-32.327 179.998,-36.0186"/>
<polygon fill="black" stroke="black" points="177.406,-33.6361 172.196,-42.8612 182.022,-38.899 177.406,-33.6361"/>
<text text-anchor="middle" x="198.1" y="-30.8" font-family="Times New Roman,serif" font-size="14.00">i</text>
</g>
<!-- 2&#45;&gt;1 -->
<g id="edge3" class="edge"><title>2&#45;&gt;1</title>
<path fill="none" stroke="black" d="M174.26,-66.7946C181.972,-71.5467 191.799,-75.3701 200.6,-72 207.107,-69.5082 213.212,-65.3743 218.572,-60.8041"/>
<polygon fill="black" stroke="black" points="220.981,-63.344 225.854,-53.9363 216.177,-58.2518 220.981,-63.344"/>
<text text-anchor="middle" x="198.1" y="-76.8" font-family="Times New Roman,serif" font-size="14.00">i</text>
</g>
<!-- 2&#45;&gt;2 -->
<g id="edge2" class="edge"><title>2&#45;&gt;2</title>
<path fill="none" stroke="black" d="M152.866,-73.0373C151.492,-82.8579 153.737,-92 159.6,-92 163.265,-92 165.516,-88.4289 166.353,-83.3529"/>
<polygon fill="black" stroke="black" points="169.852,-83.0307 166.334,-73.0373 162.852,-83.0439 169.852,-83.0307"/>
<text text-anchor="middle" x="159.6" y="-95.8" font-family="Times New Roman,serif" font-size="14.00">f</text>
</g>
</g>
</svg>
