<?xml version="1.0" encoding="UTF-8" standalone="no"?>
<!DOCTYPE svg PUBLIC "-//W3C//DTD SVG 1.1//EN"
 "http://www.w3.org/Graphics/SVG/1.1/DTD/svg11.dtd">
<!-- Generated by graphviz version 2.38.0 (20140413.2041)
 -->
<!-- Title: enfa Pages: 1 -->
<svg width="289pt" height="115pt"
 viewBox="0.00 0.00 288.60 115.00" xmlns="http://www.w3.org/2000/svg" xmlns:xlink="http://www.w3.org/1999/xlink">
<g id="graph0" class="graph" transform="scale(1 1) rotate(0) translate(4 111)">
<title>enfa</title>
<polygon fill="white" stroke="none" points="-4,4 -4,-111 284.6,-111 284.6,4 -4,4"/>
<!-- __start -->
<!-- 0 -->
<g id="node2" class="node"><title>0</title>
<ellipse fill="none" stroke="black" cx="91.6" cy="-18" rx="27" ry="18"/>
<text text-anchor="middle" x="91.6" y="-14.3" font-family="Times New Roman,serif" font-size="14.00">0</text>
</g>
<!-- __start&#45;&gt;0 -->
<g id="edge1" class="edge"><title>__start&#45;&gt;0</title>
<path fill="none" stroke="black" d="M3.78604,-18C8.86985,-18 32.7092,-18 54.1222,-18"/>
<polygon fill="black" stroke="black" points="54.3463,-21.5001 64.3463,-18 54.3463,-14.5001 54.3463,-21.5001"/>
<text text-anchor="middle" x="34.1" y="-21.8" font-family="Times New Roman,serif" font-size="14.00">start</text>
</g>
<!-- 0&#45;&gt;0 -->
<g id="edge4" class="edge"><title>0&#45;&gt;0</title>
<path fill="none" stroke="black" d="M83.3877,-35.4099C81.8548,-45.0879 84.5922,-54 91.6,-54 95.9799,-54 98.6916,-50.5187 99.7353,-45.5449"/>
<polygon fill="black" stroke="black" points="103.236,-45.4362 99.8123,-35.4099 96.2363,-45.383 103.236,-45.4362"/>
<text text-anchor="middle" x="91.6" y="-57.8" font-family="Times New Roman,serif" font-size="14.00">f</text>
</g>
<!-- 2 -->
<g id="node4" class="node"><title>2</title>
<ellipse fill="none" stroke="black" cx="177.6" cy="-56" rx="18" ry="18"/>
<text text-anchor="middle" x="177.6" y="-52.3" font-family="Times New Roman,serif" font-size="14.00">2</text>
</g>
<!-- 0&#45;&gt;2 -->
<g id="edge5" class="edge"><title>0&#45;&gt;2</title>
<path fill="none" stroke="black" d="M114.67,-27.9841C125.987,-33.1035 139.817,-39.3599 151.534,-44.6607"/>
<polygon fill="black" stroke="black" points="150.225,-47.9099 160.779,-48.8427 153.11,-41.5321 150.225,-47.9099"/>
<text text-anchor="middle" x="139.1" y="-42.8" font-family="Times New Roman,serif" font-size="14.00">f</text>
</g>
<!-- 0&#45;&gt;2 -->
<g id="edge6" class="edge"><title>0&#45;&gt;2</title>
<path fill="none" stroke="black" d="M118.351,-14.8037C126.101,-14.8106 134.442,-15.831 141.6,-19 148.826,-22.1992 155.273,-27.6744 160.603,-33.4464"/>
<polygon fill="black" stroke="black" points="158.063,-35.8657 167.149,-41.3154 163.445,-31.3892 158.063,-35.8657"/>
<text text-anchor="middle" x="139.1" y="-22.8" font-family="Times New Roman,serif" font-size="14.00">i</text>
</g>
<!-- 1 -->
<g id="node3" class="node"><title>1</title>
<ellipse fill="none" stroke="black" cx="258.6" cy="-37" rx="18" ry="18"/>
<ellipse fill="none" stroke="black" cx="258.6" cy="-37" rx="22" ry="22"/>
<text text-anchor="middle" x="258.6" y="-33.3" font-family="Times New Roman,serif" font-size="14.00">1</text>
</g>
<!-- 1&#45;&gt;0 -->
<g id="edge8" class="edge"><title>1&#45;&gt;0</title>
<path fill="none" stroke="black" d="M237.899,-28.4971C231.763,-25.9626 224.942,-23.2605 218.6,-21 208.535,-17.4127 206.154,-15.6705 195.6,-14 169.696,-9.89997 162.784,-11.517 136.6,-13 133.887,-13.1536 131.085,-13.3602 128.269,-13.6021"/>
<polygon fill="black" stroke="black" points="127.759,-10.1353 118.151,-14.6015 128.447,-17.1014 127.759,-10.1353"/>
<text text-anchor="middle" x="177.6" y="-17.8" font-family="Times New Roman,serif" font-size="14.00">f</text>
</g>
<!-- 1&#45;&gt;1 -->
<g id="edge9" class="edge"><title>1&#45;&gt;1</title>
<path fill="none" stroke="black" d="M250.917,-57.9908C249.969,-68.0872 252.53,-77 258.6,-77 262.489,-77 264.937,-73.3422 265.946,-68.0587"/>
<polygon fill="black" stroke="black" points="269.446,-68.1023 266.283,-57.9908 262.45,-67.868 269.446,-68.1023"/>
<text text-anchor="middle" x="258.6" y="-80.8" font-family="Times New Roman,serif" font-size="14.00">f</text>
</g>
<!-- 1&#45;&gt;2 -->
<g id="edge7" class="edge"><title>1&#45;&gt;2</title>
<path fill="none" stroke="black" d="M236.934,-41.9703C227.217,-44.3073 215.514,-47.1218 205.15,-49.6146"/>
<polygon fill="black" stroke="black" points="204.258,-46.2292 195.354,-51.9706 205.895,-53.0351 204.258,-46.2292"/>
<text text-anchor="middle" x="216.1" y="-50.8" font-family="Times New Roman,serif" font-size="14.00">f</text>
</g>
<!-- 1&#45;&gt;2 -->
<g id="edge10" class="edge"><title>1&#45;&gt;2</title>
<path fill="none" stroke="black" d="M238.466,-27.961C230.634,-25.4626 221.559,-24.1311 213.6,-27 208.032,-29.0069 202.723,-32.327 197.998,-36.0186"/>
<polygon fill="black" stroke="black" points="195.406,-33.6361 190.196,-42.8612 200.022,-38.899 195.406,-33.6361"/>
<text text-anchor="middle" x="216.1" y="-30.8" font-family="Times New Roman,serif" font-size="14.00">i</text>
</g>
<!-- 2&#45;&gt;1 -->
<g id="edge3" class="edge"><title>2&#45;&gt;1</title>
<path fill="none" stroke="black" d="M192.26,-66.7946C199.972,-71.5467 209.799,-75.3701 218.6,-72 225.107,-69.5082 231.212,-65.3743 236.572,-60.8041"/>
<polygon fill="black" stroke="black" points="238.981,-63.344 243.854,-53.9363 234.177,-58.2518 238.981,-63.344"/>
<text text-anchor="middle" x="216.1" y="-76.8" font-family="Times New Roman,serif" font-size="14.00">i</text>
</g>
<!-- 2&#45;&gt;2 -->
<g id="edge2" class="edge"><title>2&#45;&gt;2</title>
<path fill="none" stroke="black" d="M170.866,-73.0373C169.492,-82.8579 171.737,-92 177.6,-92 181.265,-92 183.516,-88.4289 184.353,-83.3529"/>
<polygon fill="black" stroke="black" points="187.852,-83.0307 184.334,-73.0373 180.852,-83.0439 187.852,-83.0307"/>
<text text-anchor="middle" x="177.6" y="-95.8" font-family="Times New Roman,serif" font-size="14.00">f</text>
</g>
</g>
</svg>
