<?xml version="1.0" encoding="UTF-8" standalone="no"?>
<!DOCTYPE svg PUBLIC "-//W3C//DTD SVG 1.1//EN"
 "http://www.w3.org/Graphics/SVG/1.1/DTD/svg11.dtd">
<!-- Generated by graphviz version 2.38.0 (20140413.2041)
 -->
<!-- Title: dfa Pages: 1 -->
<svg width="387pt" height="171pt"
 viewBox="0.00 0.00 386.60 171.00" xmlns="http://www.w3.org/2000/svg" xmlns:xlink="http://www.w3.org/1999/xlink">
<g id="graph0" class="graph" transform="scale(1 1) rotate(0) translate(4 167)">
<title>dfa</title>
<polygon fill="white" stroke="none" points="-4,4 -4,-167 382.6,-167 382.6,4 -4,4"/>
<!-- __start -->
<!-- 0 -->
<g id="node2" class="node"><title>0</title>
<ellipse fill="none" stroke="black" cx="82.6" cy="-68" rx="18" ry="18"/>
<text text-anchor="middle" x="82.6" y="-64.3" font-family="Times New Roman,serif" font-size="14.00">0</text>
</g>
<!-- __start&#45;&gt;0 -->
<g id="edge1" class="edge"><title>__start&#45;&gt;0</title>
<path fill="none" stroke="black" d="M3.68496,-68C8.69573,-68 34.008,-68 54.4423,-68"/>
<polygon fill="black" stroke="black" points="54.5501,-71.5001 64.5501,-68 54.5501,-64.5001 54.5501,-71.5001"/>
<text text-anchor="middle" x="34.1" y="-71.8" font-family="Times New Roman,serif" font-size="14.00">start</text>
</g>
<!-- 3 -->
<g id="node5" class="node"><title>3</title>
<ellipse fill="none" stroke="black" cx="213.6" cy="-97" rx="18" ry="18"/>
<text text-anchor="middle" x="213.6" y="-93.3" font-family="Times New Roman,serif" font-size="14.00">3</text>
</g>
<!-- 0&#45;&gt;3 -->
<g id="edge2" class="edge"><title>0&#45;&gt;3</title>
<path fill="none" stroke="black" d="M100.464,-71.7912C122.193,-76.6761 160.219,-85.2244 185.896,-90.9968"/>
<polygon fill="black" stroke="black" points="185.207,-94.4292 195.731,-93.2078 186.743,-87.5996 185.207,-94.4292"/>
<text text-anchor="middle" x="121.1" y="-79.8" font-family="Times New Roman,serif" font-size="14.00">f</text>
</g>
<!-- 4 -->
<g id="node6" class="node"><title>4</title>
<ellipse fill="none" stroke="black" cx="159.6" cy="-18" rx="18" ry="18"/>
<text text-anchor="middle" x="159.6" y="-14.3" font-family="Times New Roman,serif" font-size="14.00">4</text>
</g>
<!-- 0&#45;&gt;4 -->
<g id="edge3" class="edge"><title>0&#45;&gt;4</title>
<path fill="none" stroke="black" d="M98.0608,-58.3595C108.748,-51.2349 123.51,-41.3931 135.782,-33.2119"/>
<polygon fill="black" stroke="black" points="137.805,-36.0701 144.184,-27.6109 133.922,-30.2458 137.805,-36.0701"/>
<text text-anchor="middle" x="121.1" y="-47.8" font-family="Times New Roman,serif" font-size="14.00">i</text>
</g>
<!-- 1 -->
<g id="node3" class="node"><title>1</title>
<ellipse fill="none" stroke="black" cx="271.6" cy="-39" rx="18" ry="18"/>
<ellipse fill="none" stroke="black" cx="271.6" cy="-39" rx="22" ry="22"/>
<text text-anchor="middle" x="271.6" y="-35.3" font-family="Times New Roman,serif" font-size="14.00">1</text>
</g>
<!-- 2 -->
<g id="node4" class="node"><title>2</title>
<ellipse fill="none" stroke="black" cx="356.6" cy="-75" rx="18" ry="18"/>
<ellipse fill="none" stroke="black" cx="356.6" cy="-75" rx="22" ry="22"/>
<text text-anchor="middle" x="356.6" y="-71.3" font-family="Times New Roman,serif" font-size="14.00">2</text>
</g>
<!-- 1&#45;&gt;2 -->
<g id="edge8" class="edge"><title>1&#45;&gt;2</title>
<path fill="none" stroke="black" d="M292.27,-47.5315C302.606,-52.0148 315.469,-57.5938 326.897,-62.5503"/>
<polygon fill="black" stroke="black" points="325.504,-65.7615 336.071,-66.5297 328.29,-59.3395 325.504,-65.7615"/>
<text text-anchor="middle" x="314.1" y="-61.8" font-family="Times New Roman,serif" font-size="14.00">f</text>
</g>
<!-- 1&#45;&gt;4 -->
<g id="edge9" class="edge"><title>1&#45;&gt;4</title>
<path fill="none" stroke="black" d="M256.23,-23.152C249.455,-16.8422 240.836,-10.3042 231.6,-7 217.094,-1.81037 200.057,-4.18925 186.309,-8.04137"/>
<polygon fill="black" stroke="black" points="184.989,-4.78912 176.534,-11.1733 187.125,-11.4554 184.989,-4.78912"/>
<text text-anchor="middle" x="213.6" y="-10.8" font-family="Times New Roman,serif" font-size="14.00">i</text>
</g>
<!-- 2&#45;&gt;2 -->
<g id="edge10" class="edge"><title>2&#45;&gt;2</title>
<path fill="none" stroke="black" d="M352.724,-96.8066C352.355,-106.563 353.647,-115 356.6,-115 358.446,-115 359.643,-111.704 360.19,-106.85"/>
<polygon fill="black" stroke="black" points="363.69,-106.902 360.476,-96.8066 356.693,-106.703 363.69,-106.902"/>
<text text-anchor="middle" x="356.6" y="-118.8" font-family="Times New Roman,serif" font-size="14.00">f</text>
</g>
<!-- 2&#45;&gt;2 -->
<g id="edge11" class="edge"><title>2&#45;&gt;2</title>
<path fill="none" stroke="black" d="M349.975,-96.1143C347.05,-114.096 349.258,-133 356.6,-133 362.565,-133 365.141,-120.52 364.329,-106.195"/>
<polygon fill="black" stroke="black" points="367.793,-105.674 363.225,-96.1143 360.834,-106.436 367.793,-105.674"/>
<text text-anchor="middle" x="356.6" y="-136.8" font-family="Times New Roman,serif" font-size="14.00">i</text>
</g>
<!-- 3&#45;&gt;2 -->
<g id="edge5" class="edge"><title>3&#45;&gt;2</title>
<path fill="none" stroke="black" d="M231.608,-94.3463C254.57,-90.7635 295.9,-84.315 324.494,-79.8534"/>
<polygon fill="black" stroke="black" points="325.055,-83.3084 334.396,-78.3085 323.975,-76.3921 325.055,-83.3084"/>
<text text-anchor="middle" x="271.6" y="-94.8" font-family="Times New Roman,serif" font-size="14.00">i</text>
</g>
<!-- 3&#45;&gt;3 -->
<g id="edge4" class="edge"><title>3&#45;&gt;3</title>
<path fill="none" stroke="black" d="M204.367,-112.541C201.769,-122.909 204.846,-133 213.6,-133 219.345,-133 222.645,-128.654 223.5,-122.736"/>
<polygon fill="black" stroke="black" points="226.979,-122.291 222.833,-112.541 219.994,-122.749 226.979,-122.291"/>
<text text-anchor="middle" x="213.6" y="-136.8" font-family="Times New Roman,serif" font-size="14.00">f</text>
</g>
<!-- 4&#45;&gt;1 -->
<g id="edge7" class="edge"><title>4&#45;&gt;1</title>
<path fill="none" stroke="black" d="M177.296,-22.0062C183.078,-23.3432 189.611,-24.7974 195.6,-26 209.913,-28.8741 225.839,-31.6884 239.32,-33.9594"/>
<polygon fill="black" stroke="black" points="239.093,-37.4694 249.531,-35.655 240.239,-30.564 239.093,-37.4694"/>
<text text-anchor="middle" x="213.6" y="-35.8" font-family="Times New Roman,serif" font-size="14.00">i</text>
</g>
<!-- 4&#45;&gt;4 -->
<g id="edge6" class="edge"><title>4&#45;&gt;4</title>
<path fill="none" stroke="black" d="M152.866,-35.0373C151.492,-44.8579 153.737,-54 159.6,-54 163.265,-54 165.516,-50.4289 166.353,-45.3529"/>
<polygon fill="black" stroke="black" points="169.852,-45.0307 166.334,-35.0373 162.852,-45.0439 169.852,-45.0307"/>
<text text-anchor="middle" x="159.6" y="-57.8" font-family="Times New Roman,serif" font-size="14.00">f</text>
</g>
</g>
</svg>
