<?xml version="1.0" encoding="UTF-8" standalone="no"?>
<!DOCTYPE svg PUBLIC "-//W3C//DTD SVG 1.1//EN"
 "http://www.w3.org/Graphics/SVG/1.1/DTD/svg11.dtd">
<!-- Generated by graphviz version 2.38.0 (20140413.2041)
 -->
<!-- Title: dfa Pages: 1 -->
<svg width="405pt" height="171pt"
 viewBox="0.00 0.00 404.60 171.00" xmlns="http://www.w3.org/2000/svg" xmlns:xlink="http://www.w3.org/1999/xlink">
<g id="graph0" class="graph" transform="scale(1 1) rotate(0) translate(4 167)">
<title>dfa</title>
<polygon fill="white" stroke="none" points="-4,4 -4,-167 400.6,-167 400.6,4 -4,4"/>
<!-- __start -->
<!-- 0 -->
<g id="node2" class="node"><title>0</title>
<ellipse fill="none" stroke="black" cx="91.6" cy="-68" rx="27" ry="18"/>
<text text-anchor="middle" x="91.6" y="-64.3" font-family="Times New Roman,serif" font-size="14.00">0</text>
</g>
<!-- __start&#45;&gt;0 -->
<g id="edge1" class="edge"><title>__start&#45;&gt;0</title>
<path fill="none" stroke="black" d="M3.78604,-68C8.86985,-68 32.7092,-68 54.1222,-68"/>
<polygon fill="black" stroke="black" points="54.3463,-71.5001 64.3463,-68 54.3463,-64.5001 54.3463,-71.5001"/>
<text text-anchor="middle" x="34.1" y="-71.8" font-family="Times New Roman,serif" font-size="14.00">start</text>
</g>
<!-- 3 -->
<g id="node5" class="node"><title>3</title>
<ellipse fill="none" stroke="black" cx="231.6" cy="-97" rx="18" ry="18"/>
<text text-anchor="middle" x="231.6" y="-93.3" font-family="Times New Roman,serif" font-size="14.00">3</text>
</g>
<!-- 0&#45;&gt;3 -->
<g id="edge2" class="edge"><title>0&#45;&gt;3</title>
<path fill="none" stroke="black" d="M117.591,-73.2517C141.921,-78.3646 178.782,-86.1107 203.733,-91.354"/>
<polygon fill="black" stroke="black" points="203.119,-94.8015 213.626,-93.4329 204.559,-87.9511 203.119,-94.8015"/>
<text text-anchor="middle" x="139.1" y="-81.8" font-family="Times New Roman,serif" font-size="14.00">f</text>
</g>
<!-- 4 -->
<g id="node6" class="node"><title>4</title>
<ellipse fill="none" stroke="black" cx="177.6" cy="-18" rx="18" ry="18"/>
<text text-anchor="middle" x="177.6" y="-14.3" font-family="Times New Roman,serif" font-size="14.00">4</text>
</g>
<!-- 0&#45;&gt;4 -->
<g id="edge3" class="edge"><title>0&#45;&gt;4</title>
<path fill="none" stroke="black" d="M112.507,-56.1507C124.687,-48.9004 140.333,-39.5873 153.118,-31.9777"/>
<polygon fill="black" stroke="black" points="155.027,-34.914 161.83,-26.7916 151.447,-28.899 155.027,-34.914"/>
<text text-anchor="middle" x="139.1" y="-44.8" font-family="Times New Roman,serif" font-size="14.00">i</text>
</g>
<!-- 1 -->
<g id="node3" class="node"><title>1</title>
<ellipse fill="none" stroke="black" cx="289.6" cy="-39" rx="18" ry="18"/>
<ellipse fill="none" stroke="black" cx="289.6" cy="-39" rx="22" ry="22"/>
<text text-anchor="middle" x="289.6" y="-35.3" font-family="Times New Roman,serif" font-size="14.00">1</text>
</g>
<!-- 2 -->
<g id="node4" class="node"><title>2</title>
<ellipse fill="none" stroke="black" cx="374.6" cy="-75" rx="18" ry="18"/>
<ellipse fill="none" stroke="black" cx="374.6" cy="-75" rx="22" ry="22"/>
<text text-anchor="middle" x="374.6" y="-71.3" font-family="Times New Roman,serif" font-size="14.00">2</text>
</g>
<!-- 1&#45;&gt;2 -->
<g id="edge8" class="edge"><title>1&#45;&gt;2</title>
<path fill="none" stroke="black" d="M310.27,-47.5315C320.606,-52.0148 333.469,-57.5938 344.897,-62.5503"/>
<polygon fill="black" stroke="black" points="343.504,-65.7615 354.071,-66.5297 346.29,-59.3395 343.504,-65.7615"/>
<text text-anchor="middle" x="332.1" y="-61.8" font-family="Times New Roman,serif" font-size="14.00">f</text>
</g>
<!-- 1&#45;&gt;4 -->
<g id="edge9" class="edge"><title>1&#45;&gt;4</title>
<path fill="none" stroke="black" d="M274.23,-23.152C267.455,-16.8422 258.836,-10.3042 249.6,-7 235.094,-1.81037 218.057,-4.18925 204.309,-8.04137"/>
<polygon fill="black" stroke="black" points="202.989,-4.78912 194.534,-11.1733 205.125,-11.4554 202.989,-4.78912"/>
<text text-anchor="middle" x="231.6" y="-10.8" font-family="Times New Roman,serif" font-size="14.00">i</text>
</g>
<!-- 2&#45;&gt;2 -->
<g id="edge10" class="edge"><title>2&#45;&gt;2</title>
<path fill="none" stroke="black" d="M370.724,-96.8066C370.355,-106.563 371.647,-115 374.6,-115 376.446,-115 377.643,-111.704 378.19,-106.85"/>
<polygon fill="black" stroke="black" points="381.69,-106.902 378.476,-96.8066 374.693,-106.703 381.69,-106.902"/>
<text text-anchor="middle" x="374.6" y="-118.8" font-family="Times New Roman,serif" font-size="14.00">f</text>
</g>
<!-- 2&#45;&gt;2 -->
<g id="edge11" class="edge"><title>2&#45;&gt;2</title>
<path fill="none" stroke="black" d="M367.975,-96.1143C365.05,-114.096 367.258,-133 374.6,-133 380.565,-133 383.141,-120.52 382.329,-106.195"/>
<polygon fill="black" stroke="black" points="385.793,-105.674 381.225,-96.1143 378.834,-106.436 385.793,-105.674"/>
<text text-anchor="middle" x="374.6" y="-136.8" font-family="Times New Roman,serif" font-size="14.00">i</text>
</g>
<!-- 3&#45;&gt;2 -->
<g id="edge5" class="edge"><title>3&#45;&gt;2</title>
<path fill="none" stroke="black" d="M249.608,-94.3463C272.57,-90.7635 313.9,-84.315 342.494,-79.8534"/>
<polygon fill="black" stroke="black" points="343.055,-83.3084 352.396,-78.3085 341.975,-76.3921 343.055,-83.3084"/>
<text text-anchor="middle" x="289.6" y="-94.8" font-family="Times New Roman,serif" font-size="14.00">i</text>
</g>
<!-- 3&#45;&gt;3 -->
<g id="edge4" class="edge"><title>3&#45;&gt;3</title>
<path fill="none" stroke="black" d="M222.367,-112.541C219.769,-122.909 222.846,-133 231.6,-133 237.345,-133 240.645,-128.654 241.5,-122.736"/>
<polygon fill="black" stroke="black" points="244.979,-122.291 240.833,-112.541 237.994,-122.749 244.979,-122.291"/>
<text text-anchor="middle" x="231.6" y="-136.8" font-family="Times New Roman,serif" font-size="14.00">f</text>
</g>
<!-- 4&#45;&gt;1 -->
<g id="edge7" class="edge"><title>4&#45;&gt;1</title>
<path fill="none" stroke="black" d="M195.296,-22.0062C201.078,-23.3432 207.611,-24.7974 213.6,-26 227.913,-28.8741 243.839,-31.6884 257.32,-33.9594"/>
<polygon fill="black" stroke="black" points="257.093,-37.4694 267.531,-35.655 258.239,-30.564 257.093,-37.4694"/>
<text text-anchor="middle" x="231.6" y="-35.8" font-family="Times New Roman,serif" font-size="14.00">i</text>
</g>
<!-- 4&#45;&gt;4 -->
<g id="edge6" class="edge"><title>4&#45;&gt;4</title>
<path fill="none" stroke="black" d="M170.866,-35.0373C169.492,-44.8579 171.737,-54 177.6,-54 181.265,-54 183.516,-50.4289 184.353,-45.3529"/>
<polygon fill="black" stroke="black" points="187.852,-45.0307 184.334,-35.0373 180.852,-45.0439 187.852,-45.0307"/>
<text text-anchor="middle" x="177.6" y="-57.8" font-family="Times New Roman,serif" font-size="14.00">f</text>
</g>
</g>
</svg>
