<?xml version="1.0" encoding="UTF-8" standalone="no"?>
<!DOCTYPE svg PUBLIC "-//W3C//DTD SVG 1.1//EN"
 "http://www.w3.org/Graphics/SVG/1.1/DTD/svg11.dtd">
<!-- Generated by graphviz version 2.38.0 (20140413.2041)
 -->
<!-- Title: dfa Pages: 1 -->
<svg width="456pt" height="206pt"
 viewBox="0.00 0.00 456.28 205.60" xmlns="http://www.w3.org/2000/svg" xmlns:xlink="http://www.w3.org/1999/xlink">
<g id="graph0" class="graph" transform="scale(1 1) rotate(0) translate(4 201.595)">
<title>dfa</title>
<polygon fill="white" stroke="none" points="-4,4 -4,-201.595 452.278,-201.595 452.278,4 -4,4"/>
<!-- __start -->
<!-- {0} -->
<g id="node2" class="node"><title>{0}</title>
<ellipse fill="none" stroke="black" cx="88.6479" cy="-85.0479" rx="24.0958" ry="24.0958"/>
<text text-anchor="middle" x="88.6479" y="-81.3479" font-family="Times New Roman,serif" font-size="14.00">{0}</text>
</g>
<!-- __start&#45;&gt;{0} -->
<g id="edge1" class="edge"><title>__start&#45;&gt;{0}</title>
<path fill="none" stroke="black" d="M3.75288,-85.0479C8.82222,-85.0479 33.1893,-85.0479 54.3658,-85.0479"/>
<polygon fill="black" stroke="black" points="54.4068,-88.548 64.4067,-85.0479 54.4067,-81.548 54.4068,-88.548"/>
<text text-anchor="middle" x="34.1" y="-88.8479" font-family="Times New Roman,serif" font-size="14.00">start</text>
</g>
<!-- {0,2} -->
<g id="node6" class="node"><title>{0,2}</title>
<ellipse fill="none" stroke="black" cx="184.243" cy="-130.048" rx="30.5947" ry="30.5947"/>
<text text-anchor="middle" x="184.243" y="-126.348" font-family="Times New Roman,serif" font-size="14.00">{0,2}</text>
</g>
<!-- {0}&#45;&gt;{0,2} -->
<g id="edge2" class="edge"><title>{0}&#45;&gt;{0,2}</title>
<path fill="none" stroke="black" d="M110.886,-95.2591C121.631,-100.425 134.969,-106.838 147.255,-112.745"/>
<polygon fill="black" stroke="black" points="145.856,-115.956 156.385,-117.135 148.889,-109.647 145.856,-115.956"/>
<text text-anchor="middle" x="133.196" y="-110.848" font-family="Times New Roman,serif" font-size="14.00">f</text>
</g>
<!-- {2} -->
<g id="node7" class="node"><title>{2}</title>
<ellipse fill="none" stroke="black" cx="184.243" cy="-24.0479" rx="24.0958" ry="24.0958"/>
<text text-anchor="middle" x="184.243" y="-20.3479" font-family="Times New Roman,serif" font-size="14.00">{2}</text>
</g>
<!-- {0}&#45;&gt;{2} -->
<g id="edge3" class="edge"><title>{0}&#45;&gt;{2}</title>
<path fill="none" stroke="black" d="M109.497,-72.1113C122.739,-63.4807 140.349,-52.0039 155.039,-42.4296"/>
<polygon fill="black" stroke="black" points="157.277,-45.149 163.743,-36.7566 153.455,-39.2845 157.277,-45.149"/>
<text text-anchor="middle" x="133.196" y="-62.8479" font-family="Times New Roman,serif" font-size="14.00">i</text>
</g>
<!-- {1} -->
<g id="node3" class="node"><title>{1}</title>
<ellipse fill="none" stroke="black" cx="289.338" cy="-49.0479" rx="24.089" ry="24.089"/>
<ellipse fill="none" stroke="black" cx="289.338" cy="-49.0479" rx="28.0958" ry="28.0958"/>
<text text-anchor="middle" x="289.338" y="-45.3479" font-family="Times New Roman,serif" font-size="14.00">{1}</text>
</g>
<!-- {0,1,2} -->
<g id="node4" class="node"><title>{0,1,2}</title>
<ellipse fill="none" stroke="black" cx="406.582" cy="-92.0479" rx="37.8753" ry="37.8753"/>
<ellipse fill="none" stroke="black" cx="406.582" cy="-92.0479" rx="41.8942" ry="41.8942"/>
<text text-anchor="middle" x="406.582" y="-88.3479" font-family="Times New Roman,serif" font-size="14.00">{0,1,2}</text>
</g>
<!-- {1}&#45;&gt;{0,1,2} -->
<g id="edge8" class="edge"><title>{1}&#45;&gt;{0,1,2}</title>
<path fill="none" stroke="black" d="M315.914,-58.591C328.198,-63.1745 343.332,-68.8211 357.644,-74.1615"/>
<polygon fill="black" stroke="black" points="356.784,-77.5763 367.377,-77.7929 359.232,-71.0179 356.784,-77.5763"/>
<text text-anchor="middle" x="344.385" y="-73.8479" font-family="Times New Roman,serif" font-size="14.00">f</text>
</g>
<!-- {1}&#45;&gt;{2} -->
<g id="edge9" class="edge"><title>{1}&#45;&gt;{2}</title>
<path fill="none" stroke="black" d="M266.542,-31.7777C257.808,-25.8964 247.325,-20.0519 236.79,-17.0479 230.578,-15.2763 223.812,-15.0413 217.288,-15.6225"/>
<polygon fill="black" stroke="black" points="216.724,-12.1679 207.349,-17.104 217.756,-19.0914 216.724,-12.1679"/>
<text text-anchor="middle" x="234.79" y="-20.8479" font-family="Times New Roman,serif" font-size="14.00">i</text>
</g>
<!-- {0,1,2}&#45;&gt;{0,1,2} -->
<g id="edge10" class="edge"><title>{0,1,2}&#45;&gt;{0,1,2}</title>
<path fill="none" stroke="black" d="M395.027,-132.224C395.586,-143.289 399.437,-151.745 406.582,-151.745 411.27,-151.745 414.54,-148.103 416.393,-142.472"/>
<polygon fill="black" stroke="black" points="419.909,-142.669 418.136,-132.224 413.008,-141.496 419.909,-142.669"/>
<text text-anchor="middle" x="406.582" y="-155.545" font-family="Times New Roman,serif" font-size="14.00">f</text>
</g>
<!-- {1,2} -->
<g id="node5" class="node"><title>{1,2}</title>
<ellipse fill="none" stroke="black" cx="289.338" cy="-130.048" rx="30.5892" ry="30.5892"/>
<ellipse fill="none" stroke="black" cx="289.338" cy="-130.048" rx="34.5946" ry="34.5946"/>
<text text-anchor="middle" x="289.338" y="-126.348" font-family="Times New Roman,serif" font-size="14.00">{1,2}</text>
</g>
<!-- {0,1,2}&#45;&gt;{1,2} -->
<g id="edge11" class="edge"><title>{0,1,2}&#45;&gt;{1,2}</title>
<path fill="none" stroke="black" d="M364.872,-89.0365C357.098,-89.4774 349.131,-90.6536 341.885,-93.0479 335.776,-95.0665 329.771,-98.0899 324.141,-101.555"/>
<polygon fill="black" stroke="black" points="321.979,-98.791 315.642,-107.281 325.89,-104.596 321.979,-98.791"/>
<text text-anchor="middle" x="344.385" y="-96.8479" font-family="Times New Roman,serif" font-size="14.00">i</text>
</g>
<!-- {1,2}&#45;&gt;{0,1,2} -->
<g id="edge12" class="edge"><title>{1,2}&#45;&gt;{0,1,2}</title>
<path fill="none" stroke="black" d="M322.439,-119.463C333.158,-115.928 345.353,-111.907 357.037,-108.055"/>
<polygon fill="black" stroke="black" points="358.287,-111.328 366.688,-104.872 356.095,-104.68 358.287,-111.328"/>
<text text-anchor="middle" x="344.385" y="-116.848" font-family="Times New Roman,serif" font-size="14.00">f</text>
</g>
<!-- {1,2}&#45;&gt;{1,2} -->
<g id="edge13" class="edge"><title>{1,2}&#45;&gt;{1,2}</title>
<path fill="none" stroke="black" d="M279.213,-163.146C279.266,-173.974 282.64,-182.595 289.338,-182.595 293.733,-182.595 296.697,-178.882 298.23,-173.269"/>
<polygon fill="black" stroke="black" points="301.728,-173.496 299.462,-163.146 294.78,-172.65 301.728,-173.496"/>
<text text-anchor="middle" x="289.338" y="-186.395" font-family="Times New Roman,serif" font-size="14.00">i</text>
</g>
<!-- {0,2}&#45;&gt;{1,2} -->
<g id="edge5" class="edge"><title>{0,2}&#45;&gt;{1,2}</title>
<path fill="none" stroke="black" d="M215.062,-130.048C224.243,-130.048 234.549,-130.048 244.467,-130.048"/>
<polygon fill="black" stroke="black" points="244.598,-133.548 254.598,-130.048 244.598,-126.548 244.598,-133.548"/>
<text text-anchor="middle" x="234.79" y="-133.848" font-family="Times New Roman,serif" font-size="14.00">i</text>
</g>
<!-- {0,2}&#45;&gt;{0,2} -->
<g id="edge4" class="edge"><title>{0,2}&#45;&gt;{0,2}</title>
<path fill="none" stroke="black" d="M174.877,-159.436C174.676,-169.99 177.798,-178.595 184.243,-178.595 188.372,-178.595 191.137,-175.064 192.538,-169.751"/>
<polygon fill="black" stroke="black" points="196.058,-169.744 193.609,-159.436 189.095,-169.021 196.058,-169.744"/>
<text text-anchor="middle" x="184.243" y="-182.395" font-family="Times New Roman,serif" font-size="14.00">f</text>
</g>
<!-- {2}&#45;&gt;{1} -->
<g id="edge7" class="edge"><title>{2}&#45;&gt;{1}</title>
<path fill="none" stroke="black" d="M207.868,-29.5342C220.774,-32.664 237.258,-36.6612 251.941,-40.2218"/>
<polygon fill="black" stroke="black" points="251.209,-43.6458 261.753,-42.6011 252.859,-36.843 251.209,-43.6458"/>
<text text-anchor="middle" x="234.79" y="-40.8479" font-family="Times New Roman,serif" font-size="14.00">i</text>
</g>
<!-- {2}&#45;&gt;{2} -->
<g id="edge6" class="edge"><title>{2}&#45;&gt;{2}</title>
<path fill="none" stroke="black" d="M175.053,-46.5428C174.051,-56.9782 177.114,-66.0957 184.243,-66.0957 188.81,-66.0957 191.708,-62.3539 192.938,-56.9208"/>
<polygon fill="black" stroke="black" points="196.453,-56.6981 193.433,-46.5428 189.461,-56.3649 196.453,-56.6981"/>
<text text-anchor="middle" x="184.243" y="-69.8957" font-family="Times New Roman,serif" font-size="14.00">f</text>
</g>
</g>
</svg>
