<?xml version="1.0" encoding="UTF-8" standalone="no"?>
<!DOCTYPE svg PUBLIC "-//W3C//DTD SVG 1.1//EN"
 "http://www.w3.org/Graphics/SVG/1.1/DTD/svg11.dtd">
<!-- Generated by graphviz version 2.38.0 (20140413.2041)
 -->
<!-- Title: dfa Pages: 1 -->
<svg width="462pt" height="206pt"
 viewBox="0.00 0.00 462.18 205.60" xmlns="http://www.w3.org/2000/svg" xmlns:xlink="http://www.w3.org/1999/xlink">
<g id="graph0" class="graph" transform="scale(1 1) rotate(0) translate(4 201.595)">
<title>dfa</title>
<polygon fill="white" stroke="none" points="-4,4 -4,-201.595 458.182,-201.595 458.182,4 -4,4"/>
<!-- __start -->
<!-- {0} -->
<g id="node2" class="node"><title>{0}</title>
<ellipse fill="none" stroke="black" cx="91.6" cy="-85.0479" rx="27" ry="18"/>
<text text-anchor="middle" x="91.6" y="-81.3479" font-family="Times New Roman,serif" font-size="14.00">{0}</text>
</g>
<!-- __start&#45;&gt;{0} -->
<g id="edge1" class="edge"><title>__start&#45;&gt;{0}</title>
<path fill="none" stroke="black" d="M3.78604,-85.0479C8.86985,-85.0479 32.7092,-85.0479 54.1222,-85.0479"/>
<polygon fill="black" stroke="black" points="54.3463,-88.548 64.3463,-85.0479 54.3463,-81.548 54.3463,-88.548"/>
<text text-anchor="middle" x="34.1" y="-88.8479" font-family="Times New Roman,serif" font-size="14.00">start</text>
</g>
<!-- {0,2} -->
<g id="node6" class="node"><title>{0,2}</title>
<ellipse fill="none" stroke="black" cx="190.147" cy="-130.048" rx="30.5947" ry="30.5947"/>
<text text-anchor="middle" x="190.147" y="-126.348" font-family="Times New Roman,serif" font-size="14.00">{0,2}</text>
</g>
<!-- {0}&#45;&gt;{0,2} -->
<g id="edge2" class="edge"><title>{0}&#45;&gt;{0,2}</title>
<path fill="none" stroke="black" d="M114.508,-95.2591C125.879,-100.559 140.067,-107.172 153.009,-113.204"/>
<polygon fill="black" stroke="black" points="151.613,-116.415 162.155,-117.467 154.57,-110.07 151.613,-116.415"/>
<text text-anchor="middle" x="139.1" y="-111.848" font-family="Times New Roman,serif" font-size="14.00">f</text>
</g>
<!-- {2} -->
<g id="node7" class="node"><title>{2}</title>
<ellipse fill="none" stroke="black" cx="190.147" cy="-24.0479" rx="24.0958" ry="24.0958"/>
<text text-anchor="middle" x="190.147" y="-20.3479" font-family="Times New Roman,serif" font-size="14.00">{2}</text>
</g>
<!-- {0}&#45;&gt;{2} -->
<g id="edge3" class="edge"><title>{0}&#45;&gt;{2}</title>
<path fill="none" stroke="black" d="M111.675,-72.9962C125.64,-64.1727 144.828,-52.0496 160.613,-42.076"/>
<polygon fill="black" stroke="black" points="162.865,-44.7936 169.449,-36.4933 159.126,-38.8758 162.865,-44.7936"/>
<text text-anchor="middle" x="139.1" y="-60.8479" font-family="Times New Roman,serif" font-size="14.00">i</text>
</g>
<!-- {1} -->
<g id="node3" class="node"><title>{1}</title>
<ellipse fill="none" stroke="black" cx="295.242" cy="-49.0479" rx="24.089" ry="24.089"/>
<ellipse fill="none" stroke="black" cx="295.242" cy="-49.0479" rx="28.0958" ry="28.0958"/>
<text text-anchor="middle" x="295.242" y="-45.3479" font-family="Times New Roman,serif" font-size="14.00">{1}</text>
</g>
<!-- {0,1,2} -->
<g id="node4" class="node"><title>{0,1,2}</title>
<ellipse fill="none" stroke="black" cx="412.486" cy="-92.0479" rx="37.8753" ry="37.8753"/>
<ellipse fill="none" stroke="black" cx="412.486" cy="-92.0479" rx="41.8942" ry="41.8942"/>
<text text-anchor="middle" x="412.486" y="-88.3479" font-family="Times New Roman,serif" font-size="14.00">{0,1,2}</text>
</g>
<!-- {1}&#45;&gt;{0,1,2} -->
<g id="edge8" class="edge"><title>{1}&#45;&gt;{0,1,2}</title>
<path fill="none" stroke="black" d="M321.818,-58.591C334.103,-63.1745 349.236,-68.8211 363.549,-74.1615"/>
<polygon fill="black" stroke="black" points="362.689,-77.5763 373.281,-77.7929 365.136,-71.0179 362.689,-77.5763"/>
<text text-anchor="middle" x="350.289" y="-73.8479" font-family="Times New Roman,serif" font-size="14.00">f</text>
</g>
<!-- {1}&#45;&gt;{2} -->
<g id="edge9" class="edge"><title>{1}&#45;&gt;{2}</title>
<path fill="none" stroke="black" d="M272.446,-31.7777C263.712,-25.8964 253.229,-20.0519 242.695,-17.0479 236.482,-15.2763 229.717,-15.0413 223.193,-15.6225"/>
<polygon fill="black" stroke="black" points="222.628,-12.1679 213.253,-17.104 223.66,-19.0914 222.628,-12.1679"/>
<text text-anchor="middle" x="240.695" y="-20.8479" font-family="Times New Roman,serif" font-size="14.00">i</text>
</g>
<!-- {0,1,2}&#45;&gt;{0,1,2} -->
<g id="edge10" class="edge"><title>{0,1,2}&#45;&gt;{0,1,2}</title>
<path fill="none" stroke="black" d="M400.932,-132.224C401.49,-143.289 405.341,-151.745 412.486,-151.745 417.174,-151.745 420.445,-148.103 422.297,-142.472"/>
<polygon fill="black" stroke="black" points="425.814,-142.669 424.04,-132.224 418.913,-141.496 425.814,-142.669"/>
<text text-anchor="middle" x="412.486" y="-155.545" font-family="Times New Roman,serif" font-size="14.00">f</text>
</g>
<!-- {1,2} -->
<g id="node5" class="node"><title>{1,2}</title>
<ellipse fill="none" stroke="black" cx="295.242" cy="-130.048" rx="30.5892" ry="30.5892"/>
<ellipse fill="none" stroke="black" cx="295.242" cy="-130.048" rx="34.5946" ry="34.5946"/>
<text text-anchor="middle" x="295.242" y="-126.348" font-family="Times New Roman,serif" font-size="14.00">{1,2}</text>
</g>
<!-- {0,1,2}&#45;&gt;{1,2} -->
<g id="edge11" class="edge"><title>{0,1,2}&#45;&gt;{1,2}</title>
<path fill="none" stroke="black" d="M370.776,-89.0365C363.002,-89.4774 355.035,-90.6536 347.789,-93.0479 341.68,-95.0665 335.675,-98.0899 330.045,-101.555"/>
<polygon fill="black" stroke="black" points="327.883,-98.791 321.546,-107.281 331.795,-104.596 327.883,-98.791"/>
<text text-anchor="middle" x="350.289" y="-96.8479" font-family="Times New Roman,serif" font-size="14.00">i</text>
</g>
<!-- {1,2}&#45;&gt;{0,1,2} -->
<g id="edge12" class="edge"><title>{1,2}&#45;&gt;{0,1,2}</title>
<path fill="none" stroke="black" d="M328.344,-119.463C339.062,-115.928 351.257,-111.907 362.942,-108.055"/>
<polygon fill="black" stroke="black" points="364.192,-111.328 372.592,-104.872 361.999,-104.68 364.192,-111.328"/>
<text text-anchor="middle" x="350.289" y="-116.848" font-family="Times New Roman,serif" font-size="14.00">f</text>
</g>
<!-- {1,2}&#45;&gt;{1,2} -->
<g id="edge13" class="edge"><title>{1,2}&#45;&gt;{1,2}</title>
<path fill="none" stroke="black" d="M285.117,-163.146C285.17,-173.974 288.545,-182.595 295.242,-182.595 299.637,-182.595 302.601,-178.882 304.135,-173.269"/>
<polygon fill="black" stroke="black" points="307.633,-173.496 305.366,-163.146 300.684,-172.65 307.633,-173.496"/>
<text text-anchor="middle" x="295.242" y="-186.395" font-family="Times New Roman,serif" font-size="14.00">i</text>
</g>
<!-- {0,2}&#45;&gt;{1,2} -->
<g id="edge5" class="edge"><title>{0,2}&#45;&gt;{1,2}</title>
<path fill="none" stroke="black" d="M220.967,-130.048C230.147,-130.048 240.453,-130.048 250.371,-130.048"/>
<polygon fill="black" stroke="black" points="250.503,-133.548 260.503,-130.048 250.503,-126.548 250.503,-133.548"/>
<text text-anchor="middle" x="240.695" y="-133.848" font-family="Times New Roman,serif" font-size="14.00">i</text>
</g>
<!-- {0,2}&#45;&gt;{0,2} -->
<g id="edge4" class="edge"><title>{0,2}&#45;&gt;{0,2}</title>
<path fill="none" stroke="black" d="M180.781,-159.436C180.58,-169.99 183.702,-178.595 190.147,-178.595 194.276,-178.595 197.041,-175.064 198.443,-169.751"/>
<polygon fill="black" stroke="black" points="201.962,-169.744 199.513,-159.436 194.999,-169.021 201.962,-169.744"/>
<text text-anchor="middle" x="190.147" y="-182.395" font-family="Times New Roman,serif" font-size="14.00">f</text>
</g>
<!-- {2}&#45;&gt;{1} -->
<g id="edge7" class="edge"><title>{2}&#45;&gt;{1}</title>
<path fill="none" stroke="black" d="M213.772,-29.5342C226.678,-32.664 243.162,-36.6612 257.845,-40.2218"/>
<polygon fill="black" stroke="black" points="257.114,-43.6458 267.657,-42.6011 258.763,-36.843 257.114,-43.6458"/>
<text text-anchor="middle" x="240.695" y="-40.8479" font-family="Times New Roman,serif" font-size="14.00">i</text>
</g>
<!-- {2}&#45;&gt;{2} -->
<g id="edge6" class="edge"><title>{2}&#45;&gt;{2}</title>
<path fill="none" stroke="black" d="M180.958,-46.5428C179.955,-56.9782 183.018,-66.0957 190.147,-66.0957 194.714,-66.0957 197.613,-62.3539 198.842,-56.9208"/>
<polygon fill="black" stroke="black" points="202.357,-56.6981 199.337,-46.5428 195.365,-56.3649 202.357,-56.6981"/>
<text text-anchor="middle" x="190.147" y="-69.8957" font-family="Times New Roman,serif" font-size="14.00">f</text>
</g>
</g>
</svg>
