<?xml version="1.0" encoding="UTF-8" standalone="no"?>
<!DOCTYPE svg PUBLIC "-//W3C//DTD SVG 1.1//EN"
 "http://www.w3.org/Graphics/SVG/1.1/DTD/svg11.dtd">
<!-- Generated by graphviz version 2.38.0 (20140413.2041)
 -->
<!-- Title: dfa Pages: 1 -->
<svg width="372pt" height="78pt"
 viewBox="0.00 0.00 371.60 78.00" xmlns="http://www.w3.org/2000/svg" xmlns:xlink="http://www.w3.org/1999/xlink">
<g id="graph0" class="graph" transform="scale(1 1) rotate(0) translate(4 74)">
<title>dfa</title>
<polygon fill="white" stroke="none" points="-4,4 -4,-74 367.6,-74 367.6,4 -4,4"/>
<!-- __start -->
<!-- 0 -->
<g id="node2" class="node"><title>0</title>
<ellipse fill="none" stroke="black" cx="91.6" cy="-22" rx="27" ry="18"/>
<text text-anchor="middle" x="91.6" y="-18.3" font-family="Times New Roman,serif" font-size="14.00">0</text>
</g>
<!-- __start&#45;&gt;0 -->
<g id="edge1" class="edge"><title>__start&#45;&gt;0</title>
<path fill="none" stroke="black" d="M3.78604,-22C8.86985,-22 32.7092,-22 54.1222,-22"/>
<polygon fill="black" stroke="black" points="54.3463,-25.5001 64.3463,-22 54.3463,-18.5001 54.3463,-25.5001"/>
<text text-anchor="middle" x="34.1" y="-25.8" font-family="Times New Roman,serif" font-size="14.00">start</text>
</g>
<!-- 1 -->
<g id="node3" class="node"><title>1</title>
<ellipse fill="none" stroke="black" cx="183.6" cy="-22" rx="18" ry="18"/>
<ellipse fill="none" stroke="black" cx="183.6" cy="-22" rx="22" ry="22"/>
<text text-anchor="middle" x="183.6" y="-18.3" font-family="Times New Roman,serif" font-size="14.00">1</text>
</g>
<!-- 0&#45;&gt;1 -->
<g id="edge2" class="edge"><title>0&#45;&gt;1</title>
<path fill="none" stroke="black" d="M118.632,-22C128.833,-22 140.626,-22 151.287,-22"/>
<polygon fill="black" stroke="black" points="151.469,-25.5001 161.469,-22 151.469,-18.5001 151.469,-25.5001"/>
<text text-anchor="middle" x="140.1" y="-25.8" font-family="Times New Roman,serif" font-size="14.00">y</text>
</g>
<!-- 2 -->
<g id="node4" class="node"><title>2</title>
<ellipse fill="none" stroke="black" cx="266.6" cy="-52" rx="18" ry="18"/>
<text text-anchor="middle" x="266.6" y="-48.3" font-family="Times New Roman,serif" font-size="14.00">2</text>
</g>
<!-- 1&#45;&gt;2 -->
<g id="edge3" class="edge"><title>1&#45;&gt;2</title>
<path fill="none" stroke="black" d="M204.622,-29.4157C215.275,-33.3613 228.493,-38.2568 239.897,-42.4803"/>
<polygon fill="black" stroke="black" points="238.748,-45.787 249.341,-45.9781 241.179,-39.2228 238.748,-45.787"/>
<text text-anchor="middle" x="227.1" y="-41.8" font-family="Times New Roman,serif" font-size="14.00">y</text>
</g>
<!-- 3 -->
<g id="node5" class="node"><title>3</title>
<ellipse fill="none" stroke="black" cx="345.6" cy="-22" rx="18" ry="18"/>
<text text-anchor="middle" x="345.6" y="-18.3" font-family="Times New Roman,serif" font-size="14.00">3</text>
</g>
<!-- 2&#45;&gt;3 -->
<g id="edge5" class="edge"><title>2&#45;&gt;3</title>
<path fill="none" stroke="black" d="M283.554,-45.784C293.879,-41.7615 307.543,-36.4379 319.326,-31.8472"/>
<polygon fill="black" stroke="black" points="320.619,-35.0996 328.666,-28.2081 318.078,-28.5772 320.619,-35.0996"/>
<text text-anchor="middle" x="306.1" y="-40.8" font-family="Times New Roman,serif" font-size="14.00">y</text>
</g>
<!-- 3&#45;&gt;1 -->
<g id="edge4" class="edge"><title>3&#45;&gt;1</title>
<path fill="none" stroke="black" d="M327.923,-17.744C315.957,-14.9169 299.4,-11.4655 284.6,-10 268.678,-8.4234 264.531,-8.51934 248.6,-10 237.625,-11.02 225.727,-13.0037 215.2,-15.0691"/>
<polygon fill="black" stroke="black" points="214.302,-11.6805 205.216,-17.129 215.716,-18.5361 214.302,-11.6805"/>
<text text-anchor="middle" x="266.6" y="-13.8" font-family="Times New Roman,serif" font-size="14.00">y</text>
</g>
</g>
</svg>
