<?xml version="1.0" encoding="UTF-8" standalone="no"?>
<!DOCTYPE svg PUBLIC "-//W3C//DTD SVG 1.1//EN"
 "http://www.w3.org/Graphics/SVG/1.1/DTD/svg11.dtd">
<!-- Generated by graphviz version 2.38.0 (20140413.2041)
 -->
<!-- Title: dfa Pages: 1 -->
<svg width="439pt" height="142pt"
 viewBox="0.00 0.00 438.60 141.76" xmlns="http://www.w3.org/2000/svg" xmlns:xlink="http://www.w3.org/1999/xlink">
<g id="graph0" class="graph" transform="scale(1 1) rotate(0) translate(4 137.763)">
<title>dfa</title>
<polygon fill="white" stroke="none" points="-4,4 -4,-137.763 434.6,-137.763 434.6,4 -4,4"/>
<!-- __start -->
<!-- 0 -->
<g id="node2" class="node"><title>0</title>
<ellipse fill="none" stroke="black" cx="86.6" cy="-85.763" rx="18" ry="18"/>
<ellipse fill="none" stroke="black" cx="86.6" cy="-85.763" rx="22" ry="22"/>
<text text-anchor="middle" x="86.6" y="-82.063" font-family="Times New Roman,serif" font-size="14.00">0</text>
</g>
<!-- __start&#45;&gt;0 -->
<g id="edge1" class="edge"><title>__start&#45;&gt;0</title>
<path fill="none" stroke="black" d="M3.72988,-85.763C8.77597,-85.763 33.4162,-85.763 54.3593,-85.763"/>
<polygon fill="black" stroke="black" points="54.5455,-89.2631 64.5454,-85.763 54.5454,-82.2631 54.5455,-89.2631"/>
<text text-anchor="middle" x="34.1" y="-89.563" font-family="Times New Roman,serif" font-size="14.00">start</text>
</g>
<!-- 2 -->
<g id="node4" class="node"><title>2</title>
<ellipse fill="none" stroke="black" cx="169.6" cy="-85.763" rx="18" ry="18"/>
<text text-anchor="middle" x="169.6" y="-82.063" font-family="Times New Roman,serif" font-size="14.00">2</text>
</g>
<!-- 0&#45;&gt;2 -->
<g id="edge2" class="edge"><title>0&#45;&gt;2</title>
<path fill="none" stroke="black" d="M108.882,-85.763C118.866,-85.763 130.878,-85.763 141.503,-85.763"/>
<polygon fill="black" stroke="black" points="141.54,-89.2631 151.539,-85.763 141.539,-82.2631 141.54,-89.2631"/>
<text text-anchor="middle" x="130.1" y="-89.563" font-family="Times New Roman,serif" font-size="14.00">r</text>
</g>
<!-- 0&#45;&gt;2 -->
<g id="edge3" class="edge"><title>0&#45;&gt;2</title>
<path fill="none" stroke="black" d="M104.675,-72.9645C113.172,-68.0944 123.718,-64.2537 133.6,-66.763 137.558,-67.7681 141.553,-69.3207 145.356,-71.1148"/>
<polygon fill="black" stroke="black" points="143.821,-74.2626 154.289,-75.8973 147.125,-68.0915 143.821,-74.2626"/>
<text text-anchor="middle" x="130.1" y="-70.563" font-family="Times New Roman,serif" font-size="14.00">v</text>
</g>
<!-- 1 -->
<g id="node3" class="node"><title>1</title>
<ellipse fill="none" stroke="black" cx="329.6" cy="-50.763" rx="18" ry="18"/>
<ellipse fill="none" stroke="black" cx="329.6" cy="-50.763" rx="22" ry="22"/>
<text text-anchor="middle" x="329.6" y="-47.063" font-family="Times New Roman,serif" font-size="14.00">1</text>
</g>
<!-- 3 -->
<g id="node5" class="node"><title>3</title>
<ellipse fill="none" stroke="black" cx="412.6" cy="-49.763" rx="18" ry="18"/>
<text text-anchor="middle" x="412.6" y="-46.063" font-family="Times New Roman,serif" font-size="14.00">3</text>
</g>
<!-- 1&#45;&gt;3 -->
<g id="edge10" class="edge"><title>1&#45;&gt;3</title>
<path fill="none" stroke="black" d="M351.882,-50.5003C361.866,-50.377 373.878,-50.2287 384.503,-50.0976"/>
<polygon fill="black" stroke="black" points="384.583,-53.5969 394.539,-49.9737 384.497,-46.5975 384.583,-53.5969"/>
<text text-anchor="middle" x="373.1" y="-54.563" font-family="Times New Roman,serif" font-size="14.00">r</text>
</g>
<!-- 1&#45;&gt;3 -->
<g id="edge11" class="edge"><title>1&#45;&gt;3</title>
<path fill="none" stroke="black" d="M349.004,-39.6789C355.309,-36.466 362.555,-33.3879 369.6,-31.763 376.093,-30.2655 382.847,-31.6887 388.992,-34.2771"/>
<polygon fill="black" stroke="black" points="387.545,-37.471 398.021,-39.0515 390.817,-31.2828 387.545,-37.471"/>
<text text-anchor="middle" x="373.1" y="-35.563" font-family="Times New Roman,serif" font-size="14.00">v</text>
</g>
<!-- 2&#45;&gt;3 -->
<g id="edge4" class="edge"><title>2&#45;&gt;3</title>
<path fill="none" stroke="black" d="M187.895,-87.8468C220.491,-91.2364 293.007,-96.2098 351.6,-81.763 364.721,-78.528 378.104,-71.788 388.892,-65.3243"/>
<polygon fill="black" stroke="black" points="391.042,-68.1062 397.632,-59.8103 387.307,-62.186 391.042,-68.1062"/>
<text text-anchor="middle" x="287.1" y="-94.563" font-family="Times New Roman,serif" font-size="14.00">r</text>
</g>
<!-- 4 -->
<g id="node6" class="node"><title>4</title>
<ellipse fill="none" stroke="black" cx="248.6" cy="-50.763" rx="18" ry="18"/>
<text text-anchor="middle" x="248.6" y="-47.063" font-family="Times New Roman,serif" font-size="14.00">4</text>
</g>
<!-- 2&#45;&gt;4 -->
<g id="edge5" class="edge"><title>2&#45;&gt;4</title>
<path fill="none" stroke="black" d="M186.182,-78.6803C196.723,-73.8888 210.868,-67.4592 222.927,-61.9782"/>
<polygon fill="black" stroke="black" points="224.386,-65.1597 232.041,-57.8353 221.489,-58.7871 224.386,-65.1597"/>
<text text-anchor="middle" x="209.1" y="-72.563" font-family="Times New Roman,serif" font-size="14.00">v</text>
</g>
<!-- 3&#45;&gt;3 -->
<g id="edge6" class="edge"><title>3&#45;&gt;3</title>
<path fill="none" stroke="black" d="M409.184,-67.5448C408.604,-77.078 409.743,-85.763 412.6,-85.763 414.341,-85.763 415.444,-82.538 415.909,-77.8611"/>
<polygon fill="black" stroke="black" points="419.412,-77.5805 416.016,-67.5448 412.412,-77.508 419.412,-77.5805"/>
<text text-anchor="middle" x="412.6" y="-89.563" font-family="Times New Roman,serif" font-size="14.00">r</text>
</g>
<!-- 3&#45;&gt;3 -->
<g id="edge7" class="edge"><title>3&#45;&gt;3</title>
<path fill="none" stroke="black" d="M407.041,-66.9048C403.77,-84.348 405.623,-103.763 412.6,-103.763 418.214,-103.763 420.51,-91.1914 419.489,-77.1917"/>
<polygon fill="black" stroke="black" points="422.913,-76.3735 418.159,-66.9048 415.97,-77.271 422.913,-76.3735"/>
<text text-anchor="middle" x="412.6" y="-107.563" font-family="Times New Roman,serif" font-size="14.00">v</text>
</g>
<!-- 4&#45;&gt;1 -->
<g id="edge8" class="edge"><title>4&#45;&gt;1</title>
<path fill="none" stroke="black" d="M266.742,-50.763C275.727,-50.763 287.014,-50.763 297.478,-50.763"/>
<polygon fill="black" stroke="black" points="297.553,-54.2631 307.553,-50.763 297.553,-47.2631 297.553,-54.2631"/>
<text text-anchor="middle" x="287.1" y="-54.563" font-family="Times New Roman,serif" font-size="14.00">r</text>
</g>
<!-- 4&#45;&gt;3 -->
<g id="edge9" class="edge"><title>4&#45;&gt;3</title>
<path fill="none" stroke="black" d="M261.406,-37.3382C272.164,-26.202 289.153,-11.1903 307.6,-4.76304 326.067,1.67104 333.048,1.42097 351.6,-4.76304 366.759,-9.81605 381.172,-20.3653 392.071,-29.9802"/>
<polygon fill="black" stroke="black" points="389.966,-32.8021 399.675,-37.0442 394.731,-27.6737 389.966,-32.8021"/>
<text text-anchor="middle" x="329.6" y="-8.56304" font-family="Times New Roman,serif" font-size="14.00">v</text>
</g>
</g>
</svg>
