<?xml version="1.0" encoding="UTF-8" standalone="no"?>
<!DOCTYPE svg PUBLIC "-//W3C//DTD SVG 1.1//EN"
 "http://www.w3.org/Graphics/SVG/1.1/DTD/svg11.dtd">
<!-- Generated by graphviz version 2.38.0 (20140413.2041)
 -->
<!-- Title: enfa Pages: 1 -->
<svg width="896pt" height="149pt"
 viewBox="0.00 0.00 895.59 149.50" xmlns="http://www.w3.org/2000/svg" xmlns:xlink="http://www.w3.org/1999/xlink">
<g id="graph0" class="graph" transform="scale(1 1) rotate(0) translate(4 145.498)">
<title>enfa</title>
<polygon fill="white" stroke="none" points="-4,4 -4,-145.498 891.586,-145.498 891.586,4 -4,4"/>
<!-- __start -->
<!-- 0 -->
<g id="node2" class="node"><title>0</title>
<ellipse fill="none" stroke="black" cx="82.6" cy="-43.4983" rx="18" ry="18"/>
<text text-anchor="middle" x="82.6" y="-39.7983" font-family="Times New Roman,serif" font-size="14.00">0</text>
</g>
<!-- __start&#45;&gt;0 -->
<g id="edge1" class="edge"><title>__start&#45;&gt;0</title>
<path fill="none" stroke="black" d="M3.68496,-43.4983C8.69573,-43.4983 34.008,-43.4983 54.4423,-43.4983"/>
<polygon fill="black" stroke="black" points="54.5501,-46.9984 64.5501,-43.4983 54.5501,-39.9984 54.5501,-46.9984"/>
<text text-anchor="middle" x="34.1" y="-47.2983" font-family="Times New Roman,serif" font-size="14.00">start</text>
</g>
<!-- 6 -->
<g id="node8" class="node"><title>6</title>
<ellipse fill="none" stroke="black" cx="161.6" cy="-69.4983" rx="18" ry="18"/>
<text text-anchor="middle" x="161.6" y="-65.7983" font-family="Times New Roman,serif" font-size="14.00">6</text>
</g>
<!-- 0&#45;&gt;6 -->
<g id="edge13" class="edge"><title>0&#45;&gt;6</title>
<path fill="none" stroke="black" d="M99.9297,-49.0122C110.036,-52.4248 123.235,-56.8815 134.74,-60.7663"/>
<polygon fill="black" stroke="black" points="133.7,-64.1091 144.294,-63.9923 135.939,-57.477 133.7,-64.1091"/>
<text text-anchor="middle" x="122.1" y="-60.2983" font-family="Times New Roman,serif" font-size="14.00">ε</text>
</g>
<!-- 12 -->
<g id="node14" class="node"><title>12</title>
<ellipse fill="none" stroke="black" cx="217.098" cy="-20.4983" rx="19.4965" ry="19.4965"/>
<text text-anchor="middle" x="217.098" y="-16.7983" font-family="Times New Roman,serif" font-size="14.00">12</text>
</g>
<!-- 0&#45;&gt;12 -->
<g id="edge14" class="edge"><title>0&#45;&gt;12</title>
<path fill="none" stroke="black" d="M100.312,-40.0329C106.096,-38.8663 112.625,-37.5856 118.6,-36.4983 141.81,-32.2742 168.221,-27.9708 187.696,-24.8925"/>
<polygon fill="black" stroke="black" points="188.4,-28.3249 197.736,-23.3167 187.315,-21.4095 188.4,-28.3249"/>
<text text-anchor="middle" x="122.1" y="-40.2983" font-family="Times New Roman,serif" font-size="14.00">ε</text>
</g>
<!-- 1 -->
<g id="node3" class="node"><title>1</title>
<ellipse fill="none" stroke="black" cx="865.586" cy="-41.4983" rx="18" ry="18"/>
<ellipse fill="none" stroke="black" cx="865.586" cy="-41.4983" rx="22" ry="22"/>
<text text-anchor="middle" x="865.586" y="-37.7983" font-family="Times New Roman,serif" font-size="14.00">1</text>
</g>
<!-- 2 -->
<g id="node4" class="node"><title>2</title>
<ellipse fill="none" stroke="black" cx="272.597" cy="-123.498" rx="18" ry="18"/>
<text text-anchor="middle" x="272.597" y="-119.798" font-family="Times New Roman,serif" font-size="14.00">2</text>
</g>
<!-- 3 -->
<g id="node5" class="node"><title>3</title>
<ellipse fill="none" stroke="black" cx="383.593" cy="-123.498" rx="18" ry="18"/>
<text text-anchor="middle" x="383.593" y="-119.798" font-family="Times New Roman,serif" font-size="14.00">3</text>
</g>
<!-- 2&#45;&gt;3 -->
<g id="edge2" class="edge"><title>2&#45;&gt;3</title>
<path fill="none" stroke="black" d="M290.627,-123.498C307.883,-123.498 334.852,-123.498 355.132,-123.498"/>
<polygon fill="black" stroke="black" points="355.322,-126.998 365.322,-123.498 355.322,-119.998 355.322,-126.998"/>
<text text-anchor="middle" x="328.095" y="-127.298" font-family="Times New Roman,serif" font-size="14.00">r</text>
</g>
<!-- 7 -->
<g id="node9" class="node"><title>7</title>
<ellipse fill="none" stroke="black" cx="462.593" cy="-69.4983" rx="18" ry="18"/>
<text text-anchor="middle" x="462.593" y="-65.7983" font-family="Times New Roman,serif" font-size="14.00">7</text>
</g>
<!-- 3&#45;&gt;7 -->
<g id="edge6" class="edge"><title>3&#45;&gt;7</title>
<path fill="none" stroke="black" d="M398.716,-113.594C409.934,-105.727 425.842,-94.5705 438.85,-85.448"/>
<polygon fill="black" stroke="black" points="441.121,-88.1302 447.299,-79.5228 437.102,-82.399 441.121,-88.1302"/>
<text text-anchor="middle" x="423.093" y="-101.298" font-family="Times New Roman,serif" font-size="14.00">ε</text>
</g>
<!-- 4 -->
<g id="node6" class="node"><title>4</title>
<ellipse fill="none" stroke="black" cx="272.597" cy="-69.4983" rx="18" ry="18"/>
<text text-anchor="middle" x="272.597" y="-65.7983" font-family="Times New Roman,serif" font-size="14.00">4</text>
</g>
<!-- 5 -->
<g id="node7" class="node"><title>5</title>
<ellipse fill="none" stroke="black" cx="383.593" cy="-69.4983" rx="18" ry="18"/>
<text text-anchor="middle" x="383.593" y="-65.7983" font-family="Times New Roman,serif" font-size="14.00">5</text>
</g>
<!-- 4&#45;&gt;5 -->
<g id="edge3" class="edge"><title>4&#45;&gt;5</title>
<path fill="none" stroke="black" d="M290.627,-69.4983C307.883,-69.4983 334.852,-69.4983 355.132,-69.4983"/>
<polygon fill="black" stroke="black" points="355.322,-72.9984 365.322,-69.4983 355.322,-65.9984 355.322,-72.9984"/>
<text text-anchor="middle" x="328.095" y="-73.2983" font-family="Times New Roman,serif" font-size="14.00">v</text>
</g>
<!-- 5&#45;&gt;7 -->
<g id="edge7" class="edge"><title>5&#45;&gt;7</title>
<path fill="none" stroke="black" d="M401.682,-69.4983C411.252,-69.4983 423.41,-69.4983 434.27,-69.4983"/>
<polygon fill="black" stroke="black" points="434.552,-72.9984 444.552,-69.4983 434.552,-65.9984 434.552,-72.9984"/>
<text text-anchor="middle" x="423.093" y="-73.2983" font-family="Times New Roman,serif" font-size="14.00">ε</text>
</g>
<!-- 6&#45;&gt;2 -->
<g id="edge4" class="edge"><title>6&#45;&gt;2</title>
<path fill="none" stroke="black" d="M177.836,-78.0076C183.94,-81.3544 191.064,-85.1819 197.6,-88.4983 213.766,-96.7014 232.194,-105.42 246.616,-112.103"/>
<polygon fill="black" stroke="black" points="245.337,-115.367 255.883,-116.373 248.266,-109.01 245.337,-115.367"/>
<text text-anchor="middle" x="217.098" y="-110.298" font-family="Times New Roman,serif" font-size="14.00">ε</text>
</g>
<!-- 6&#45;&gt;4 -->
<g id="edge5" class="edge"><title>6&#45;&gt;4</title>
<path fill="none" stroke="black" d="M179.631,-69.4983C196.886,-69.4983 223.855,-69.4983 244.135,-69.4983"/>
<polygon fill="black" stroke="black" points="244.326,-72.9984 254.326,-69.4983 244.326,-65.9984 244.326,-72.9984"/>
<text text-anchor="middle" x="217.098" y="-73.2983" font-family="Times New Roman,serif" font-size="14.00">ε</text>
</g>
<!-- 8 -->
<g id="node10" class="node"><title>8</title>
<ellipse fill="none" stroke="black" cx="541.593" cy="-68.4983" rx="18" ry="18"/>
<text text-anchor="middle" x="541.593" y="-64.7983" font-family="Times New Roman,serif" font-size="14.00">8</text>
</g>
<!-- 7&#45;&gt;8 -->
<g id="edge11" class="edge"><title>7&#45;&gt;8</title>
<path fill="none" stroke="black" d="M480.682,-69.2763C490.252,-69.152 502.41,-68.9942 513.27,-68.8531"/>
<polygon fill="black" stroke="black" points="513.598,-72.3492 523.552,-68.7196 513.507,-65.3498 513.598,-72.3492"/>
<text text-anchor="middle" x="502.093" y="-72.2983" font-family="Times New Roman,serif" font-size="14.00">ε</text>
</g>
<!-- 9 -->
<g id="node11" class="node"><title>9</title>
<ellipse fill="none" stroke="black" cx="620.593" cy="-68.4983" rx="18" ry="18"/>
<text text-anchor="middle" x="620.593" y="-64.7983" font-family="Times New Roman,serif" font-size="14.00">9</text>
</g>
<!-- 8&#45;&gt;9 -->
<g id="edge8" class="edge"><title>8&#45;&gt;9</title>
<path fill="none" stroke="black" d="M559.682,-68.4983C569.252,-68.4983 581.41,-68.4983 592.27,-68.4983"/>
<polygon fill="black" stroke="black" points="592.552,-71.9984 602.552,-68.4983 592.552,-64.9984 592.552,-71.9984"/>
<text text-anchor="middle" x="581.093" y="-72.2983" font-family="Times New Roman,serif" font-size="14.00">v</text>
</g>
<!-- 10 -->
<g id="node12" class="node"><title>10</title>
<ellipse fill="none" stroke="black" cx="701.091" cy="-68.4983" rx="19.4965" ry="19.4965"/>
<text text-anchor="middle" x="701.091" y="-64.7983" font-family="Times New Roman,serif" font-size="14.00">10</text>
</g>
<!-- 9&#45;&gt;10 -->
<g id="edge10" class="edge"><title>9&#45;&gt;10</title>
<path fill="none" stroke="black" d="M638.626,-68.4983C648.194,-68.4983 660.388,-68.4983 671.389,-68.4983"/>
<polygon fill="black" stroke="black" points="671.445,-71.9984 681.445,-68.4983 671.445,-64.9984 671.445,-71.9984"/>
<text text-anchor="middle" x="660.093" y="-72.2983" font-family="Times New Roman,serif" font-size="14.00">ε</text>
</g>
<!-- 11 -->
<g id="node13" class="node"><title>11</title>
<ellipse fill="none" stroke="black" cx="781.088" cy="-68.4983" rx="19.4965" ry="19.4965"/>
<text text-anchor="middle" x="781.088" y="-64.7983" font-family="Times New Roman,serif" font-size="14.00">11</text>
</g>
<!-- 10&#45;&gt;11 -->
<g id="edge9" class="edge"><title>10&#45;&gt;11</title>
<path fill="none" stroke="black" d="M720.972,-68.4983C730.074,-68.4983 741.188,-68.4983 751.313,-68.4983"/>
<polygon fill="black" stroke="black" points="751.381,-71.9984 761.381,-68.4983 751.381,-64.9984 751.381,-71.9984"/>
<text text-anchor="middle" x="741.09" y="-72.2983" font-family="Times New Roman,serif" font-size="14.00">r</text>
</g>
<!-- 11&#45;&gt;1 -->
<g id="edge15" class="edge"><title>11&#45;&gt;1</title>
<path fill="none" stroke="black" d="M799.989,-62.6397C810.105,-59.3289 823.015,-55.1038 834.63,-51.3023"/>
<polygon fill="black" stroke="black" points="835.986,-54.5412 844.402,-48.1043 833.809,-47.8884 835.986,-54.5412"/>
<text text-anchor="middle" x="822.086" y="-59.2983" font-family="Times New Roman,serif" font-size="14.00">ε</text>
</g>
<!-- 13 -->
<g id="node15" class="node"><title>13</title>
<ellipse fill="none" stroke="black" cx="328.095" cy="-19.4983" rx="19.4965" ry="19.4965"/>
<text text-anchor="middle" x="328.095" y="-15.7983" font-family="Times New Roman,serif" font-size="14.00">13</text>
</g>
<!-- 12&#45;&gt;13 -->
<g id="edge12" class="edge"><title>12&#45;&gt;13</title>
<path fill="none" stroke="black" d="M237.084,-20.3241C253.964,-20.1692 278.894,-19.9405 298.24,-19.763"/>
<polygon fill="black" stroke="black" points="298.359,-23.2622 308.327,-19.6705 298.295,-16.2624 298.359,-23.2622"/>
<text text-anchor="middle" x="272.597" y="-24.2983" font-family="Times New Roman,serif" font-size="14.00">ε</text>
</g>
<!-- 13&#45;&gt;1 -->
<g id="edge16" class="edge"><title>13&#45;&gt;1</title>
<path fill="none" stroke="black" d="M347.619,-20.1311C366.387,-20.717 396.254,-21.4983 422.093,-21.4983 422.093,-21.4983 422.093,-21.4983 782.088,-21.4983 800.101,-21.4983 819.719,-26.0574 835.304,-30.8222"/>
<polygon fill="black" stroke="black" points="834.314,-34.1803 844.906,-33.9371 836.474,-27.5219 834.314,-34.1803"/>
<text text-anchor="middle" x="581.093" y="-25.2983" font-family="Times New Roman,serif" font-size="14.00">ε</text>
</g>
</g>
</svg>
