<?xml version="1.0" encoding="UTF-8" standalone="no"?>
<!DOCTYPE svg PUBLIC "-//W3C//DTD SVG 1.1//EN"
 "http://www.w3.org/Graphics/SVG/1.1/DTD/svg11.dtd">
<!-- Generated by graphviz version 2.38.0 (20140413.2041)
 -->
<!-- Title: dfa Pages: 1 -->
<svg width="660pt" height="195pt"
 viewBox="0.00 0.00 660.26 194.70" xmlns="http://www.w3.org/2000/svg" xmlns:xlink="http://www.w3.org/1999/xlink">
<g id="graph0" class="graph" transform="scale(1 1) rotate(0) translate(4 190.697)">
<title>dfa</title>
<polygon fill="white" stroke="none" points="-4,4 -4,-190.697 656.264,-190.697 656.264,4 -4,4"/>
<!-- __start -->
<!-- {0,1,12,13,2,4,6} -->
<g id="node2" class="node"><title>{0,1,12,13,2,4,6}</title>
<ellipse fill="none" stroke="black" cx="142.043" cy="-90.6967" rx="73.3899" ry="73.3899"/>
<ellipse fill="none" stroke="black" cx="142.043" cy="-90.6967" rx="77.387" ry="77.387"/>
<text text-anchor="middle" x="142.043" y="-86.9967" font-family="Times New Roman,serif" font-size="14.00">{0,1,12,13,2,4,6}</text>
</g>
<!-- __start&#45;&gt;{0,1,12,13,2,4,6} -->
<g id="edge1" class="edge"><title>__start&#45;&gt;{0,1,12,13,2,4,6}</title>
<path fill="none" stroke="black" d="M3.6828,-90.6967C8.21006,-90.6967 29.5654,-90.6967 54.1379,-90.6967"/>
<polygon fill="black" stroke="black" points="54.4421,-94.1968 64.4421,-90.6967 54.4421,-87.1968 54.4421,-94.1968"/>
<text text-anchor="middle" x="34.1" y="-94.4967" font-family="Times New Roman,serif" font-size="14.00">start</text>
</g>
<!-- {3,7,8} -->
<g id="node4" class="node"><title>{3,7,8}</title>
<ellipse fill="none" stroke="black" cx="300.184" cy="-130.697" rx="37.8943" ry="37.8943"/>
<text text-anchor="middle" x="300.184" y="-126.997" font-family="Times New Roman,serif" font-size="14.00">{3,7,8}</text>
</g>
<!-- {0,1,12,13,2,4,6}&#45;&gt;{3,7,8} -->
<g id="edge2" class="edge"><title>{0,1,12,13,2,4,6}&#45;&gt;{3,7,8}</title>
<path fill="none" stroke="black" d="M217.455,-109.759C229.723,-112.902 242.112,-116.076 253.406,-118.969"/>
<polygon fill="black" stroke="black" points="252.88,-122.447 263.435,-121.539 254.617,-115.666 252.88,-122.447"/>
<text text-anchor="middle" x="240.987" y="-119.497" font-family="Times New Roman,serif" font-size="14.00">r</text>
</g>
<!-- {5,7,8} -->
<g id="node5" class="node"><title>{5,7,8}</title>
<ellipse fill="none" stroke="black" cx="300.184" cy="-37.6967" rx="37.8943" ry="37.8943"/>
<text text-anchor="middle" x="300.184" y="-33.9967" font-family="Times New Roman,serif" font-size="14.00">{5,7,8}</text>
</g>
<!-- {0,1,12,13,2,4,6}&#45;&gt;{5,7,8} -->
<g id="edge3" class="edge"><title>{0,1,12,13,2,4,6}&#45;&gt;{5,7,8}</title>
<path fill="none" stroke="black" d="M215.628,-66.0586C228.818,-61.5813 242.218,-57.0328 254.312,-52.9277"/>
<polygon fill="black" stroke="black" points="255.786,-56.1236 264.131,-49.595 253.536,-49.4951 255.786,-56.1236"/>
<text text-anchor="middle" x="240.987" y="-61.4967" font-family="Times New Roman,serif" font-size="14.00">v</text>
</g>
<!-- {1,11} -->
<g id="node3" class="node"><title>{1,11}</title>
<ellipse fill="none" stroke="black" cx="531.171" cy="-104.697" rx="35.1841" ry="35.1841"/>
<ellipse fill="none" stroke="black" cx="531.171" cy="-104.697" rx="39.194" ry="39.194"/>
<text text-anchor="middle" x="531.171" y="-100.997" font-family="Times New Roman,serif" font-size="14.00">{1,11}</text>
</g>
<!-- {} -->
<g id="node6" class="node"><title>{}</title>
<ellipse fill="none" stroke="black" cx="632.766" cy="-66.6967" rx="19.4965" ry="19.4965"/>
<text text-anchor="middle" x="632.766" y="-62.9967" font-family="Times New Roman,serif" font-size="14.00">{}</text>
</g>
<!-- {1,11}&#45;&gt;{} -->
<g id="edge12" class="edge"><title>{1,11}&#45;&gt;{}</title>
<path fill="none" stroke="black" d="M568.385,-92.611C577.228,-89.5111 586.63,-86.0901 595.268,-82.6967 598.588,-81.3923 602.052,-79.9642 605.466,-78.5153"/>
<polygon fill="black" stroke="black" points="607.021,-81.656 614.798,-74.4617 604.232,-75.2356 607.021,-81.656"/>
<text text-anchor="middle" x="591.768" y="-88.4967" font-family="Times New Roman,serif" font-size="14.00">r</text>
</g>
<!-- {1,11}&#45;&gt;{} -->
<g id="edge13" class="edge"><title>{1,11}&#45;&gt;{}</title>
<path fill="none" stroke="black" d="M560.105,-78.3226C568.529,-71.9612 578.225,-66.0396 588.268,-62.6967 593.053,-61.1039 598.287,-60.6085 603.414,-60.7479"/>
<polygon fill="black" stroke="black" points="603.309,-64.2549 613.61,-61.7772 604.012,-57.2903 603.309,-64.2549"/>
<text text-anchor="middle" x="591.768" y="-66.4967" font-family="Times New Roman,serif" font-size="14.00">v</text>
</g>
<!-- {3,7,8}&#45;&gt;{} -->
<g id="edge4" class="edge"><title>{3,7,8}&#45;&gt;{}</title>
<path fill="none" stroke="black" d="M335.301,-144.455C388.69,-163.673 493.78,-192.033 570.268,-152.697 594.082,-140.449 610.727,-114.23 620.639,-93.9415"/>
<polygon fill="black" stroke="black" points="623.833,-95.3741 624.844,-84.8276 617.477,-92.4417 623.833,-95.3741"/>
<text text-anchor="middle" x="471.574" y="-175.497" font-family="Times New Roman,serif" font-size="14.00">r</text>
</g>
<!-- {10,9} -->
<g id="node7" class="node"><title>{10,9}</title>
<ellipse fill="none" stroke="black" cx="415.977" cy="-75.6967" rx="35.194" ry="35.194"/>
<text text-anchor="middle" x="415.977" y="-71.9967" font-family="Times New Roman,serif" font-size="14.00">{10,9}</text>
</g>
<!-- {3,7,8}&#45;&gt;{10,9} -->
<g id="edge5" class="edge"><title>{3,7,8}&#45;&gt;{10,9}</title>
<path fill="none" stroke="black" d="M334.403,-114.641C346.967,-108.568 361.405,-101.59 374.558,-95.2326"/>
<polygon fill="black" stroke="black" points="376.382,-98.2383 383.863,-90.7353 373.336,-91.9358 376.382,-98.2383"/>
<text text-anchor="middle" x="359.38" y="-106.497" font-family="Times New Roman,serif" font-size="14.00">v</text>
</g>
<!-- {5,7,8}&#45;&gt;{} -->
<g id="edge8" class="edge"><title>{5,7,8}&#45;&gt;{}</title>
<path fill="none" stroke="black" d="M337.838,-31.6798C390.123,-24.2939 488.807,-14.8036 570.268,-32.6967 583.673,-35.6412 597.173,-42.5638 608.095,-49.3995"/>
<polygon fill="black" stroke="black" points="606.335,-52.4312 616.605,-55.0318 610.198,-46.5939 606.335,-52.4312"/>
<text text-anchor="middle" x="471.574" y="-26.4967" font-family="Times New Roman,serif" font-size="14.00">r</text>
</g>
<!-- {5,7,8}&#45;&gt;{10,9} -->
<g id="edge9" class="edge"><title>{5,7,8}&#45;&gt;{10,9}</title>
<path fill="none" stroke="black" d="M336.254,-49.408C347.784,-53.2583 360.724,-57.5794 372.73,-61.5886"/>
<polygon fill="black" stroke="black" points="371.95,-65.0181 382.543,-64.8658 374.167,-58.3785 371.95,-65.0181"/>
<text text-anchor="middle" x="359.38" y="-61.4967" font-family="Times New Roman,serif" font-size="14.00">v</text>
</g>
<!-- {}&#45;&gt;{} -->
<g id="edge6" class="edge"><title>{}&#45;&gt;{}</title>
<path fill="none" stroke="black" d="M629.127,-85.9903C628.623,-95.6123 629.836,-104.195 632.766,-104.195 634.551,-104.195 635.699,-101.008 636.21,-96.3407"/>
<polygon fill="black" stroke="black" points="639.716,-96.0547 636.405,-85.9903 632.717,-95.9223 639.716,-96.0547"/>
<text text-anchor="middle" x="632.766" y="-107.995" font-family="Times New Roman,serif" font-size="14.00">r</text>
</g>
<!-- {}&#45;&gt;{} -->
<g id="edge7" class="edge"><title>{}&#45;&gt;{}</title>
<path fill="none" stroke="black" d="M626.702,-85.4609C623.557,-103.081 625.579,-122.195 632.766,-122.195 638.606,-122.195 641.035,-109.577 640.054,-95.394"/>
<polygon fill="black" stroke="black" points="643.527,-94.9577 638.831,-85.4609 636.58,-95.8139 643.527,-94.9577"/>
<text text-anchor="middle" x="632.766" y="-125.995" font-family="Times New Roman,serif" font-size="14.00">v</text>
</g>
<!-- {10,9}&#45;&gt;{1,11} -->
<g id="edge10" class="edge"><title>{10,9}&#45;&gt;{1,11}</title>
<path fill="none" stroke="black" d="M450.327,-84.2408C460.612,-86.8759 472.137,-89.8286 483.163,-92.6532"/>
<polygon fill="black" stroke="black" points="482.541,-96.1071 493.097,-95.1985 484.279,-89.3261 482.541,-96.1071"/>
<text text-anchor="middle" x="471.574" y="-93.4967" font-family="Times New Roman,serif" font-size="14.00">r</text>
</g>
<!-- {10,9}&#45;&gt;{} -->
<g id="edge11" class="edge"><title>{10,9}&#45;&gt;{}</title>
<path fill="none" stroke="black" d="M447.017,-58.5555C460.365,-51.8854 476.546,-45.0481 492.074,-41.6967 526.045,-34.3648 536.161,-35.029 570.268,-41.6967 582.392,-44.0668 595.145,-48.835 605.874,-53.5775"/>
<polygon fill="black" stroke="black" points="604.539,-56.8165 615.083,-57.8562 607.489,-50.4683 604.539,-56.8165"/>
<text text-anchor="middle" x="531.171" y="-45.4967" font-family="Times New Roman,serif" font-size="14.00">v</text>
</g>
</g>
</svg>
