<?xml version="1.0" encoding="UTF-8" standalone="no"?>
<!DOCTYPE svg PUBLIC "-//W3C//DTD SVG 1.1//EN"
 "http://www.w3.org/Graphics/SVG/1.1/DTD/svg11.dtd">
<!-- Generated by graphviz version 2.38.0 (20140413.2041)
 -->
<!-- Title: dfa Pages: 1 -->
<svg width="365pt" height="238pt"
 viewBox="0.00 0.00 364.60 237.92" xmlns="http://www.w3.org/2000/svg" xmlns:xlink="http://www.w3.org/1999/xlink">
<g id="graph0" class="graph" transform="scale(1 1) rotate(0) translate(4 233.922)">
<title>dfa</title>
<polygon fill="white" stroke="none" points="-4,4 -4,-233.922 360.6,-233.922 360.6,4 -4,4"/>
<!-- __start -->
<!-- 0 -->
<g id="node2" class="node"><title>0</title>
<ellipse fill="none" stroke="black" cx="82.6" cy="-112.922" rx="18" ry="18"/>
<text text-anchor="middle" x="82.6" y="-109.222" font-family="Times New Roman,serif" font-size="14.00">0</text>
</g>
<!-- __start&#45;&gt;0 -->
<g id="edge1" class="edge"><title>__start&#45;&gt;0</title>
<path fill="none" stroke="black" d="M3.68496,-112.922C8.69573,-112.922 34.008,-112.922 54.4423,-112.922"/>
<polygon fill="black" stroke="black" points="54.5501,-116.422 64.5501,-112.922 54.5501,-109.422 54.5501,-116.422"/>
<text text-anchor="middle" x="34.1" y="-116.722" font-family="Times New Roman,serif" font-size="14.00">start</text>
</g>
<!-- 1 -->
<g id="node3" class="node"><title>1</title>
<ellipse fill="none" stroke="black" cx="166.6" cy="-173.922" rx="18" ry="18"/>
<ellipse fill="none" stroke="black" cx="166.6" cy="-173.922" rx="22" ry="22"/>
<text text-anchor="middle" x="166.6" y="-170.222" font-family="Times New Roman,serif" font-size="14.00">1</text>
</g>
<!-- 0&#45;&gt;1 -->
<g id="edge2" class="edge"><title>0&#45;&gt;1</title>
<path fill="none" stroke="black" d="M97.5102,-123.269C109.165,-131.939 126.106,-144.542 140.173,-155.007"/>
<polygon fill="black" stroke="black" points="138.376,-158.032 148.488,-161.192 142.554,-152.415 138.376,-158.032"/>
<text text-anchor="middle" x="122.6" y="-146.722" font-family="Times New Roman,serif" font-size="14.00">b</text>
</g>
<!-- 2 -->
<g id="node4" class="node"><title>2</title>
<ellipse fill="none" stroke="black" cx="254.6" cy="-112.922" rx="18" ry="18"/>
<ellipse fill="none" stroke="black" cx="254.6" cy="-112.922" rx="22" ry="22"/>
<text text-anchor="middle" x="254.6" y="-109.222" font-family="Times New Roman,serif" font-size="14.00">2</text>
</g>
<!-- 0&#45;&gt;2 -->
<g id="edge4" class="edge"><title>0&#45;&gt;2</title>
<path fill="none" stroke="black" d="M100.836,-112.922C129.217,-112.922 186.199,-112.922 221.981,-112.922"/>
<polygon fill="black" stroke="black" points="222.35,-116.422 232.349,-112.922 222.349,-109.422 222.35,-116.422"/>
<text text-anchor="middle" x="166.6" y="-116.722" font-family="Times New Roman,serif" font-size="14.00">h</text>
</g>
<!-- 3 -->
<g id="node5" class="node"><title>3</title>
<ellipse fill="none" stroke="black" cx="166.6" cy="-49.9216" rx="18" ry="18"/>
<text text-anchor="middle" x="166.6" y="-46.2216" font-family="Times New Roman,serif" font-size="14.00">3</text>
</g>
<!-- 0&#45;&gt;3 -->
<g id="edge3" class="edge"><title>0&#45;&gt;3</title>
<path fill="none" stroke="black" d="M96.7293,-101.697C103.227,-96.231 111.239,-89.624 118.6,-83.9216 126.467,-77.8274 135.263,-71.3723 143.099,-65.7428"/>
<polygon fill="black" stroke="black" points="145.325,-68.4545 151.438,-59.8009 141.263,-62.7538 145.325,-68.4545"/>
<text text-anchor="middle" x="122.6" y="-87.7216" font-family="Times New Roman,serif" font-size="14.00">s</text>
</g>
<!-- 1&#45;&gt;2 -->
<g id="edge5" class="edge"><title>1&#45;&gt;2</title>
<path fill="none" stroke="black" d="M185.003,-161.577C197.36,-152.813 214.149,-140.904 228.025,-131.062"/>
<polygon fill="black" stroke="black" points="230.091,-133.888 236.222,-125.248 226.041,-128.178 230.091,-133.888"/>
<text text-anchor="middle" x="210.6" y="-148.722" font-family="Times New Roman,serif" font-size="14.00">b</text>
</g>
<!-- 4 -->
<g id="node6" class="node"><title>4</title>
<ellipse fill="none" stroke="black" cx="338.6" cy="-112.922" rx="18" ry="18"/>
<text text-anchor="middle" x="338.6" y="-109.222" font-family="Times New Roman,serif" font-size="14.00">4</text>
</g>
<!-- 1&#45;&gt;4 -->
<g id="edge6" class="edge"><title>1&#45;&gt;4</title>
<path fill="none" stroke="black" d="M188.988,-173.619C216.731,-172.403 265.914,-167.387 302.6,-147.922 309.026,-144.512 315.03,-139.53 320.187,-134.388"/>
<polygon fill="black" stroke="black" points="322.882,-136.629 327.089,-126.906 317.736,-131.883 322.882,-136.629"/>
<text text-anchor="middle" x="254.6" y="-172.722" font-family="Times New Roman,serif" font-size="14.00">s</text>
</g>
<!-- 1&#45;&gt;4 -->
<g id="edge7" class="edge"><title>1&#45;&gt;4</title>
<path fill="none" stroke="black" d="M187.246,-182.138C209.665,-190.241 247.045,-199.826 276.6,-187.922 299.138,-178.844 315.692,-156.049 325.823,-137.955"/>
<polygon fill="black" stroke="black" points="328.967,-139.496 330.533,-129.018 322.775,-136.232 328.967,-139.496"/>
<text text-anchor="middle" x="254.6" y="-196.722" font-family="Times New Roman,serif" font-size="14.00">h</text>
</g>
<!-- 2&#45;&gt;4 -->
<g id="edge8" class="edge"><title>2&#45;&gt;4</title>
<path fill="none" stroke="black" d="M268.463,-95.8151C275.285,-88.1818 284.371,-80.0019 294.6,-75.9216 305.606,-71.5316 315.764,-79.4402 323.441,-89.0571"/>
<polygon fill="black" stroke="black" points="320.64,-91.1583 329.27,-97.3046 326.357,-87.1182 320.64,-91.1583"/>
<text text-anchor="middle" x="298.6" y="-79.7216" font-family="Times New Roman,serif" font-size="14.00">b</text>
</g>
<!-- 2&#45;&gt;4 -->
<g id="edge9" class="edge"><title>2&#45;&gt;4</title>
<path fill="none" stroke="black" d="M274.078,-124.159C282.628,-128.068 292.999,-131.012 302.6,-128.922 306.101,-128.159 309.671,-127.014 313.127,-125.68"/>
<polygon fill="black" stroke="black" points="314.68,-128.821 322.416,-121.582 311.854,-122.417 314.68,-128.821"/>
<text text-anchor="middle" x="298.6" y="-132.722" font-family="Times New Roman,serif" font-size="14.00">s</text>
</g>
<!-- 2&#45;&gt;4 -->
<g id="edge10" class="edge"><title>2&#45;&gt;4</title>
<path fill="none" stroke="black" d="M276.647,-110.62C284.755,-109.985 294.104,-109.558 302.6,-109.922 305.159,-110.031 307.821,-110.185 310.482,-110.367"/>
<polygon fill="black" stroke="black" points="310.283,-113.862 320.529,-111.164 310.837,-106.884 310.283,-113.862"/>
<text text-anchor="middle" x="298.6" y="-113.722" font-family="Times New Roman,serif" font-size="14.00">h</text>
</g>
<!-- 3&#45;&gt;2 -->
<g id="edge13" class="edge"><title>3&#45;&gt;2</title>
<path fill="none" stroke="black" d="M181.62,-59.9903C190.981,-66.7318 203.556,-75.8212 214.6,-83.9216 219.107,-87.2276 223.894,-90.7647 228.513,-94.1918"/>
<polygon fill="black" stroke="black" points="226.437,-97.0098 236.55,-100.168 230.614,-91.3926 226.437,-97.0098"/>
<text text-anchor="middle" x="210.6" y="-87.7216" font-family="Times New Roman,serif" font-size="14.00">h</text>
</g>
<!-- 3&#45;&gt;4 -->
<g id="edge11" class="edge"><title>3&#45;&gt;4</title>
<path fill="none" stroke="black" d="M180.251,-37.6091C192.496,-26.6194 212.163,-11.3057 232.6,-4.92161 251.266,0.909227 258.313,2.00619 276.6,-4.92161 309.277,-17.3007 325.037,-57.3792 332.198,-85.0681"/>
<polygon fill="black" stroke="black" points="328.836,-86.0606 334.538,-94.9898 335.649,-84.4534 328.836,-86.0606"/>
<text text-anchor="middle" x="254.6" y="-8.72161" font-family="Times New Roman,serif" font-size="14.00">b</text>
</g>
<!-- 3&#45;&gt;4 -->
<g id="edge12" class="edge"><title>3&#45;&gt;4</title>
<path fill="none" stroke="black" d="M184.617,-48.8678C211.496,-47.9774 264.621,-49.4184 302.6,-70.9216 310.555,-75.4257 317.478,-82.4855 323.02,-89.5404"/>
<polygon fill="black" stroke="black" points="320.187,-91.5959 328.871,-97.6667 325.868,-87.5061 320.187,-91.5959"/>
<text text-anchor="middle" x="254.6" y="-63.7216" font-family="Times New Roman,serif" font-size="14.00">s</text>
</g>
<!-- 4&#45;&gt;4 -->
<g id="edge14" class="edge"><title>4&#45;&gt;4</title>
<path fill="none" stroke="black" d="M336.188,-131.074C335.817,-140.461 336.621,-148.922 338.6,-148.922 339.806,-148.922 340.576,-145.78 340.909,-141.201"/>
<polygon fill="black" stroke="black" points="344.41,-141.109 341.012,-131.074 337.41,-141.038 344.41,-141.109"/>
<text text-anchor="middle" x="338.6" y="-152.722" font-family="Times New Roman,serif" font-size="14.00">b</text>
</g>
<!-- 4&#45;&gt;4 -->
<g id="edge15" class="edge"><title>4&#45;&gt;4</title>
<path fill="none" stroke="black" d="M334.627,-130.621C332.432,-147.917 333.756,-166.922 338.6,-166.922 342.498,-166.922 344.117,-154.616 343.457,-140.797"/>
<polygon fill="black" stroke="black" points="346.925,-140.281 342.573,-130.621 339.951,-140.886 346.925,-140.281"/>
<text text-anchor="middle" x="338.6" y="-170.722" font-family="Times New Roman,serif" font-size="14.00">s</text>
</g>
<!-- 4&#45;&gt;4 -->
<g id="edge16" class="edge"><title>4&#45;&gt;4</title>
<path fill="none" stroke="black" d="M333.675,-130.275C329.029,-154.739 330.67,-184.922 338.6,-184.922 345.477,-184.922 347.624,-162.224 345.044,-140.241"/>
<polygon fill="black" stroke="black" points="348.492,-139.634 343.525,-130.275 341.571,-140.688 348.492,-139.634"/>
<text text-anchor="middle" x="338.6" y="-188.722" font-family="Times New Roman,serif" font-size="14.00">h</text>
</g>
</g>
</svg>
