<?xml version="1.0" encoding="UTF-8" standalone="no"?>
<!DOCTYPE svg PUBLIC "-//W3C//DTD SVG 1.1//EN"
 "http://www.w3.org/Graphics/SVG/1.1/DTD/svg11.dtd">
<!-- Generated by graphviz version 2.38.0 (20140413.2041)
 -->
<!-- Title: enfa Pages: 1 -->
<svg width="969pt" height="192pt"
 viewBox="0.00 0.00 968.57 192.50" xmlns="http://www.w3.org/2000/svg" xmlns:xlink="http://www.w3.org/1999/xlink">
<g id="graph0" class="graph" transform="scale(1 1) rotate(0) translate(4 188.498)">
<title>enfa</title>
<polygon fill="white" stroke="none" points="-4,4 -4,-188.498 964.572,-188.498 964.572,4 -4,4"/>
<!-- __start -->
<!-- 0 -->
<g id="node2" class="node"><title>0</title>
<ellipse fill="none" stroke="black" cx="82.6" cy="-140.498" rx="18" ry="18"/>
<text text-anchor="middle" x="82.6" y="-136.798" font-family="Times New Roman,serif" font-size="14.00">0</text>
</g>
<!-- __start&#45;&gt;0 -->
<g id="edge1" class="edge"><title>__start&#45;&gt;0</title>
<path fill="none" stroke="black" d="M3.68496,-140.498C8.69573,-140.498 34.008,-140.498 54.4423,-140.498"/>
<polygon fill="black" stroke="black" points="54.5501,-143.998 64.5501,-140.498 54.5501,-136.998 54.5501,-143.998"/>
<text text-anchor="middle" x="34.1" y="-144.298" font-family="Times New Roman,serif" font-size="14.00">start</text>
</g>
<!-- 2 -->
<g id="node4" class="node"><title>2</title>
<ellipse fill="none" stroke="black" cx="163.098" cy="-166.498" rx="18" ry="18"/>
<text text-anchor="middle" x="163.098" y="-162.798" font-family="Times New Roman,serif" font-size="14.00">2</text>
</g>
<!-- 0&#45;&gt;2 -->
<g id="edge18" class="edge"><title>0&#45;&gt;2</title>
<path fill="none" stroke="black" d="M99.8649,-145.885C110.39,-149.372 124.32,-153.985 136.332,-157.964"/>
<polygon fill="black" stroke="black" points="135.261,-161.296 145.854,-161.118 137.462,-154.651 135.261,-161.296"/>
<text text-anchor="middle" x="122.1" y="-157.298" font-family="Times New Roman,serif" font-size="14.00">ε</text>
</g>
<!-- 16 -->
<g id="node18" class="node"><title>16</title>
<ellipse fill="none" stroke="black" cx="163.098" cy="-111.498" rx="19.4965" ry="19.4965"/>
<text text-anchor="middle" x="163.098" y="-107.798" font-family="Times New Roman,serif" font-size="14.00">16</text>
</g>
<!-- 0&#45;&gt;16 -->
<g id="edge19" class="edge"><title>0&#45;&gt;16</title>
<path fill="none" stroke="black" d="M99.8649,-134.489C109.937,-130.768 123.128,-125.895 134.772,-121.593"/>
<polygon fill="black" stroke="black" points="136.322,-124.752 144.489,-118.004 133.896,-118.186 136.322,-124.752"/>
<text text-anchor="middle" x="122.1" y="-130.298" font-family="Times New Roman,serif" font-size="14.00">ε</text>
</g>
<!-- 1 -->
<g id="node3" class="node"><title>1</title>
<ellipse fill="none" stroke="black" cx="938.572" cy="-147.498" rx="18" ry="18"/>
<ellipse fill="none" stroke="black" cx="938.572" cy="-147.498" rx="22" ry="22"/>
<text text-anchor="middle" x="938.572" y="-143.798" font-family="Times New Roman,serif" font-size="14.00">1</text>
</g>
<!-- 3 -->
<g id="node5" class="node"><title>3</title>
<ellipse fill="none" stroke="black" cx="301.593" cy="-166.498" rx="18" ry="18"/>
<text text-anchor="middle" x="301.593" y="-162.798" font-family="Times New Roman,serif" font-size="14.00">3</text>
</g>
<!-- 2&#45;&gt;3 -->
<g id="edge2" class="edge"><title>2&#45;&gt;3</title>
<path fill="none" stroke="black" d="M181.109,-166.498C204.2,-166.498 245.732,-166.498 273.233,-166.498"/>
<polygon fill="black" stroke="black" points="273.368,-169.998 283.368,-166.498 273.367,-162.998 273.368,-169.998"/>
<text text-anchor="middle" x="204.597" y="-170.298" font-family="Times New Roman,serif" font-size="14.00">b</text>
</g>
<!-- 3&#45;&gt;1 -->
<g id="edge20" class="edge"><title>3&#45;&gt;1</title>
<path fill="none" stroke="black" d="M319.722,-166.498C340.935,-166.498 378.178,-166.498 410.091,-166.498 410.091,-166.498 410.091,-166.498 855.074,-166.498 872.918,-166.498 892.391,-162.225 907.936,-157.732"/>
<polygon fill="black" stroke="black" points="908.993,-161.069 917.527,-154.79 906.94,-154.376 908.993,-161.069"/>
<text text-anchor="middle" x="634.583" y="-170.298" font-family="Times New Roman,serif" font-size="14.00">ε</text>
</g>
<!-- 4 -->
<g id="node6" class="node"><title>4</title>
<ellipse fill="none" stroke="black" cx="301.593" cy="-120.498" rx="18" ry="18"/>
<text text-anchor="middle" x="301.593" y="-116.798" font-family="Times New Roman,serif" font-size="14.00">4</text>
</g>
<!-- 5 -->
<g id="node7" class="node"><title>5</title>
<ellipse fill="none" stroke="black" cx="411.091" cy="-123.498" rx="18" ry="18"/>
<text text-anchor="middle" x="411.091" y="-119.798" font-family="Times New Roman,serif" font-size="14.00">5</text>
</g>
<!-- 4&#45;&gt;5 -->
<g id="edge3" class="edge"><title>4&#45;&gt;5</title>
<path fill="none" stroke="black" d="M319.865,-120.98C336.79,-121.453 362.854,-122.18 382.625,-122.732"/>
<polygon fill="black" stroke="black" points="382.769,-126.237 392.863,-123.017 382.964,-119.24 382.769,-126.237"/>
<text text-anchor="middle" x="355.593" y="-125.298" font-family="Times New Roman,serif" font-size="14.00">s</text>
</g>
<!-- 6 -->
<g id="node8" class="node"><title>6</title>
<ellipse fill="none" stroke="black" cx="522.088" cy="-123.498" rx="18" ry="18"/>
<text text-anchor="middle" x="522.088" y="-119.798" font-family="Times New Roman,serif" font-size="14.00">6</text>
</g>
<!-- 5&#45;&gt;6 -->
<g id="edge5" class="edge"><title>5&#45;&gt;6</title>
<path fill="none" stroke="black" d="M429.122,-123.498C446.378,-123.498 473.347,-123.498 493.626,-123.498"/>
<polygon fill="black" stroke="black" points="493.817,-126.998 503.817,-123.498 493.817,-119.998 493.817,-126.998"/>
<text text-anchor="middle" x="466.59" y="-127.298" font-family="Times New Roman,serif" font-size="14.00">ε</text>
</g>
<!-- 7 -->
<g id="node9" class="node"><title>7</title>
<ellipse fill="none" stroke="black" cx="634.583" cy="-122.498" rx="18" ry="18"/>
<text text-anchor="middle" x="634.583" y="-118.798" font-family="Times New Roman,serif" font-size="14.00">7</text>
</g>
<!-- 6&#45;&gt;7 -->
<g id="edge4" class="edge"><title>6&#45;&gt;7</title>
<path fill="none" stroke="black" d="M540.353,-123.342C558.03,-123.182 585.762,-122.931 606.39,-122.744"/>
<polygon fill="black" stroke="black" points="606.471,-126.244 616.439,-122.653 606.408,-119.244 606.471,-126.244"/>
<text text-anchor="middle" x="579.084" y="-126.298" font-family="Times New Roman,serif" font-size="14.00">h</text>
</g>
<!-- 17 -->
<g id="node19" class="node"><title>17</title>
<ellipse fill="none" stroke="black" cx="854.074" cy="-119.498" rx="19.4965" ry="19.4965"/>
<text text-anchor="middle" x="854.074" y="-115.798" font-family="Times New Roman,serif" font-size="14.00">17</text>
</g>
<!-- 7&#45;&gt;17 -->
<g id="edge16" class="edge"><title>7&#45;&gt;17</title>
<path fill="none" stroke="black" d="M652.649,-122.263C689.825,-121.75 778.46,-120.527 824.387,-119.894"/>
<polygon fill="black" stroke="black" points="824.609,-123.391 834.56,-119.754 824.513,-116.392 824.609,-123.391"/>
<text text-anchor="middle" x="731.079" y="-124.298" font-family="Times New Roman,serif" font-size="14.00">ε</text>
</g>
<!-- 8 -->
<g id="node10" class="node"><title>8</title>
<ellipse fill="none" stroke="black" cx="355.593" cy="-69.4983" rx="18" ry="18"/>
<text text-anchor="middle" x="355.593" y="-65.7983" font-family="Times New Roman,serif" font-size="14.00">8</text>
</g>
<!-- 9 -->
<g id="node11" class="node"><title>9</title>
<ellipse fill="none" stroke="black" cx="466.59" cy="-69.4983" rx="18" ry="18"/>
<text text-anchor="middle" x="466.59" y="-65.7983" font-family="Times New Roman,serif" font-size="14.00">9</text>
</g>
<!-- 8&#45;&gt;9 -->
<g id="edge6" class="edge"><title>8&#45;&gt;9</title>
<path fill="none" stroke="black" d="M373.624,-69.4983C390.88,-69.4983 417.849,-69.4983 438.128,-69.4983"/>
<polygon fill="black" stroke="black" points="438.319,-72.9984 448.319,-69.4983 438.319,-65.9984 438.319,-72.9984"/>
<text text-anchor="middle" x="411.091" y="-73.2983" font-family="Times New Roman,serif" font-size="14.00">b</text>
</g>
<!-- 10 -->
<g id="node12" class="node"><title>10</title>
<ellipse fill="none" stroke="black" cx="579.084" cy="-68.4983" rx="19.4965" ry="19.4965"/>
<text text-anchor="middle" x="579.084" y="-64.7983" font-family="Times New Roman,serif" font-size="14.00">10</text>
</g>
<!-- 9&#45;&gt;10 -->
<g id="edge8" class="edge"><title>9&#45;&gt;10</title>
<path fill="none" stroke="black" d="M484.854,-69.342C502.118,-69.1858 528.971,-68.9428 549.433,-68.7576"/>
<polygon fill="black" stroke="black" points="549.498,-72.2572 559.465,-68.6668 549.434,-65.2575 549.498,-72.2572"/>
<text text-anchor="middle" x="522.088" y="-73.2983" font-family="Times New Roman,serif" font-size="14.00">ε</text>
</g>
<!-- 11 -->
<g id="node13" class="node"><title>11</title>
<ellipse fill="none" stroke="black" cx="690.081" cy="-68.4983" rx="19.4965" ry="19.4965"/>
<text text-anchor="middle" x="690.081" y="-64.7983" font-family="Times New Roman,serif" font-size="14.00">11</text>
</g>
<!-- 10&#45;&gt;11 -->
<g id="edge7" class="edge"><title>10&#45;&gt;11</title>
<path fill="none" stroke="black" d="M599.07,-68.4983C615.95,-68.4983 640.88,-68.4983 660.226,-68.4983"/>
<polygon fill="black" stroke="black" points="660.313,-71.9984 670.313,-68.4983 660.313,-64.9984 660.313,-71.9984"/>
<text text-anchor="middle" x="634.583" y="-72.2983" font-family="Times New Roman,serif" font-size="14.00">b</text>
</g>
<!-- 15 -->
<g id="node17" class="node"><title>15</title>
<ellipse fill="none" stroke="black" cx="772.078" cy="-68.4983" rx="19.4965" ry="19.4965"/>
<text text-anchor="middle" x="772.078" y="-64.7983" font-family="Times New Roman,serif" font-size="14.00">15</text>
</g>
<!-- 11&#45;&gt;15 -->
<g id="edge12" class="edge"><title>11&#45;&gt;15</title>
<path fill="none" stroke="black" d="M709.635,-68.4983C719.258,-68.4983 731.233,-68.4983 742.048,-68.4983"/>
<polygon fill="black" stroke="black" points="742.347,-71.9984 752.347,-68.4983 742.347,-64.9984 742.347,-71.9984"/>
<text text-anchor="middle" x="731.079" y="-72.2983" font-family="Times New Roman,serif" font-size="14.00">ε</text>
</g>
<!-- 12 -->
<g id="node14" class="node"><title>12</title>
<ellipse fill="none" stroke="black" cx="411.091" cy="-19.4983" rx="19.4965" ry="19.4965"/>
<text text-anchor="middle" x="411.091" y="-15.7983" font-family="Times New Roman,serif" font-size="14.00">12</text>
</g>
<!-- 13 -->
<g id="node15" class="node"><title>13</title>
<ellipse fill="none" stroke="black" cx="522.088" cy="-19.4983" rx="19.4965" ry="19.4965"/>
<text text-anchor="middle" x="522.088" y="-15.7983" font-family="Times New Roman,serif" font-size="14.00">13</text>
</g>
<!-- 12&#45;&gt;13 -->
<g id="edge9" class="edge"><title>12&#45;&gt;13</title>
<path fill="none" stroke="black" d="M431.077,-19.4983C447.957,-19.4983 472.887,-19.4983 492.233,-19.4983"/>
<polygon fill="black" stroke="black" points="492.32,-22.9984 502.32,-19.4983 492.32,-15.9984 492.32,-22.9984"/>
<text text-anchor="middle" x="466.59" y="-23.2983" font-family="Times New Roman,serif" font-size="14.00">h</text>
</g>
<!-- 13&#45;&gt;15 -->
<g id="edge13" class="edge"><title>13&#45;&gt;15</title>
<path fill="none" stroke="black" d="M541.717,-19.6713C575.697,-20.4073 649.755,-23.9612 709.579,-40.4983 721.786,-43.8725 734.633,-49.38 745.411,-54.6216"/>
<polygon fill="black" stroke="black" points="744.145,-57.9036 754.649,-59.2918 747.303,-51.6565 744.145,-57.9036"/>
<text text-anchor="middle" x="634.583" y="-33.2983" font-family="Times New Roman,serif" font-size="14.00">ε</text>
</g>
<!-- 14 -->
<g id="node16" class="node"><title>14</title>
<ellipse fill="none" stroke="black" cx="246.095" cy="-69.4983" rx="19.4965" ry="19.4965"/>
<text text-anchor="middle" x="246.095" y="-65.7983" font-family="Times New Roman,serif" font-size="14.00">14</text>
</g>
<!-- 14&#45;&gt;8 -->
<g id="edge10" class="edge"><title>14&#45;&gt;8</title>
<path fill="none" stroke="black" d="M265.82,-69.4983C282.794,-69.4983 308.024,-69.4983 327.253,-69.4983"/>
<polygon fill="black" stroke="black" points="327.5,-72.9984 337.5,-69.4983 327.5,-65.9984 327.5,-72.9984"/>
<text text-anchor="middle" x="301.593" y="-73.2983" font-family="Times New Roman,serif" font-size="14.00">ε</text>
</g>
<!-- 14&#45;&gt;12 -->
<g id="edge11" class="edge"><title>14&#45;&gt;12</title>
<path fill="none" stroke="black" d="M263.425,-59.9313C269.595,-56.604 276.774,-53.0661 283.593,-50.4983 316.326,-38.1719 355.688,-29.4234 381.716,-24.4293"/>
<polygon fill="black" stroke="black" points="382.472,-27.849 391.663,-22.5794 381.192,-20.967 382.472,-27.849"/>
<text text-anchor="middle" x="301.593" y="-54.2983" font-family="Times New Roman,serif" font-size="14.00">ε</text>
</g>
<!-- 15&#45;&gt;17 -->
<g id="edge17" class="edge"><title>15&#45;&gt;17</title>
<path fill="none" stroke="black" d="M789.903,-77.1097C798.099,-81.4729 808.01,-87.0015 816.576,-92.4983 821.022,-95.3518 825.643,-98.5621 830.041,-101.747"/>
<polygon fill="black" stroke="black" points="828.004,-104.593 838.121,-107.739 832.173,-98.9706 828.004,-104.593"/>
<text text-anchor="middle" x="813.076" y="-96.2983" font-family="Times New Roman,serif" font-size="14.00">ε</text>
</g>
<!-- 16&#45;&gt;4 -->
<g id="edge14" class="edge"><title>16&#45;&gt;4</title>
<path fill="none" stroke="black" d="M182.791,-112.731C206.149,-114.271 246.311,-116.919 273.157,-118.689"/>
<polygon fill="black" stroke="black" points="273.207,-122.2 283.416,-119.366 273.668,-115.215 273.207,-122.2"/>
<text text-anchor="middle" x="204.597" y="-117.298" font-family="Times New Roman,serif" font-size="14.00">ε</text>
</g>
<!-- 16&#45;&gt;14 -->
<g id="edge15" class="edge"><title>16&#45;&gt;14</title>
<path fill="none" stroke="black" d="M177.657,-97.9998C184.137,-92.1979 192.284,-85.7805 200.597,-81.4983 205.665,-78.8875 211.358,-76.8004 216.937,-75.1478"/>
<polygon fill="black" stroke="black" points="217.89,-78.5165 226.695,-72.6229 216.137,-71.7397 217.89,-78.5165"/>
<text text-anchor="middle" x="204.597" y="-85.2983" font-family="Times New Roman,serif" font-size="14.00">ε</text>
</g>
<!-- 17&#45;&gt;1 -->
<g id="edge21" class="edge"><title>17&#45;&gt;1</title>
<path fill="none" stroke="black" d="M872.975,-125.574C883.091,-129.007 896.001,-133.389 907.616,-137.331"/>
<polygon fill="black" stroke="black" points="906.793,-140.748 917.388,-140.648 909.043,-134.119 906.793,-140.748"/>
<text text-anchor="middle" x="895.072" y="-137.298" font-family="Times New Roman,serif" font-size="14.00">ε</text>
</g>
</g>
</svg>
