<?xml version="1.0" encoding="UTF-8" standalone="no"?>
<!DOCTYPE svg PUBLIC "-//W3C//DTD SVG 1.1//EN"
 "http://www.w3.org/Graphics/SVG/1.1/DTD/svg11.dtd">
<!-- Generated by graphviz version 2.38.0 (20140413.2041)
 -->
<!-- Title: dfa Pages: 1 -->
<svg width="629pt" height="569pt"
 viewBox="0.00 0.00 628.76 569.07" xmlns="http://www.w3.org/2000/svg" xmlns:xlink="http://www.w3.org/1999/xlink">
<g id="graph0" class="graph" transform="scale(1 1) rotate(0) translate(4 565.074)">
<title>dfa</title>
<polygon fill="white" stroke="none" points="-4,4 -4,-565.074 624.764,-565.074 624.764,4 -4,4"/>
<!-- __start -->
<!-- {0,12,14,16,2,4,8} -->
<g id="node2" class="node"><title>{0,12,14,16,2,4,8}</title>
<ellipse fill="none" stroke="black" cx="142.593" cy="-255.229" rx="77.9862" ry="77.9862"/>
<text text-anchor="middle" x="142.593" y="-251.529" font-family="Times New Roman,serif" font-size="14.00">{0,12,14,16,2,4,8}</text>
</g>
<!-- __start&#45;&gt;{0,12,14,16,2,4,8} -->
<g id="edge1" class="edge"><title>__start&#45;&gt;{0,12,14,16,2,4,8}</title>
<path fill="none" stroke="black" d="M3.68631,-255.229C8.21128,-255.229 29.4807,-255.229 54.0117,-255.229"/>
<polygon fill="black" stroke="black" points="54.3018,-258.729 64.3017,-255.229 54.3017,-251.729 54.3018,-258.729"/>
<text text-anchor="middle" x="34.1" y="-259.029" font-family="Times New Roman,serif" font-size="14.00">start</text>
</g>
<!-- {1,10,3,9} -->
<g id="node3" class="node"><title>{1,10,3,9}</title>
<ellipse fill="none" stroke="black" cx="317.332" cy="-379.229" rx="48.9738" ry="48.9738"/>
<ellipse fill="none" stroke="black" cx="317.332" cy="-379.229" rx="52.9925" ry="52.9925"/>
<text text-anchor="middle" x="317.332" y="-375.529" font-family="Times New Roman,serif" font-size="14.00">{1,10,3,9}</text>
</g>
<!-- {0,12,14,16,2,4,8}&#45;&gt;{1,10,3,9} -->
<g id="edge2" class="edge"><title>{0,12,14,16,2,4,8}&#45;&gt;{1,10,3,9}</title>
<path fill="none" stroke="black" d="M206.444,-300.347C225.936,-314.339 247.157,-329.572 265.707,-342.888"/>
<polygon fill="black" stroke="black" points="263.861,-345.872 274.026,-348.86 267.943,-340.185 263.861,-345.872"/>
<text text-anchor="middle" x="242.586" y="-333.029" font-family="Times New Roman,serif" font-size="14.00">b</text>
</g>
<!-- {1,13,15,17} -->
<g id="node6" class="node"><title>{1,13,15,17}</title>
<ellipse fill="none" stroke="black" cx="475.922" cy="-255.229" rx="57.7001" ry="57.7001"/>
<ellipse fill="none" stroke="black" cx="475.922" cy="-255.229" rx="61.6901" ry="61.6901"/>
<text text-anchor="middle" x="475.922" y="-251.529" font-family="Times New Roman,serif" font-size="14.00">{1,13,15,17}</text>
</g>
<!-- {0,12,14,16,2,4,8}&#45;&gt;{1,13,15,17} -->
<g id="edge4" class="edge"><title>{0,12,14,16,2,4,8}&#45;&gt;{1,13,15,17}</title>
<path fill="none" stroke="black" d="M220.857,-255.229C276.097,-255.229 349.883,-255.229 403.701,-255.229"/>
<polygon fill="black" stroke="black" points="403.847,-258.729 413.847,-255.229 403.847,-251.729 403.847,-258.729"/>
<text text-anchor="middle" x="317.332" y="-259.029" font-family="Times New Roman,serif" font-size="14.00">h</text>
</g>
<!-- {5,6} -->
<g id="node7" class="node"><title>{5,6}</title>
<ellipse fill="none" stroke="black" cx="317.332" cy="-78.2294" rx="30.5947" ry="30.5947"/>
<text text-anchor="middle" x="317.332" y="-74.5294" font-family="Times New Roman,serif" font-size="14.00">{5,6}</text>
</g>
<!-- {0,12,14,16,2,4,8}&#45;&gt;{5,6} -->
<g id="edge3" class="edge"><title>{0,12,14,16,2,4,8}&#45;&gt;{5,6}</title>
<path fill="none" stroke="black" d="M197.775,-199.711C227.723,-169.024 263.697,-132.162 288.106,-107.152"/>
<polygon fill="black" stroke="black" points="290.81,-109.392 295.29,-99.7906 285.8,-104.503 290.81,-109.392"/>
<text text-anchor="middle" x="242.586" y="-160.029" font-family="Times New Roman,serif" font-size="14.00">s</text>
</g>
<!-- {1,11,15,17} -->
<g id="node4" class="node"><title>{1,11,15,17}</title>
<ellipse fill="none" stroke="black" cx="475.922" cy="-499.229" rx="57.7001" ry="57.7001"/>
<ellipse fill="none" stroke="black" cx="475.922" cy="-499.229" rx="61.6901" ry="61.6901"/>
<text text-anchor="middle" x="475.922" y="-495.529" font-family="Times New Roman,serif" font-size="14.00">{1,11,15,17}</text>
</g>
<!-- {1,10,3,9}&#45;&gt;{1,11,15,17} -->
<g id="edge5" class="edge"><title>{1,10,3,9}&#45;&gt;{1,11,15,17}</title>
<path fill="none" stroke="black" d="M359.884,-411.072C377.722,-424.742 398.851,-440.934 418.103,-455.687"/>
<polygon fill="black" stroke="black" points="416.157,-458.606 426.224,-461.91 420.415,-453.049 416.157,-458.606"/>
<text text-anchor="middle" x="392.078" y="-443.029" font-family="Times New Roman,serif" font-size="14.00">b</text>
</g>
<!-- {} -->
<g id="node8" class="node"><title>{}</title>
<ellipse fill="none" stroke="black" cx="601.266" cy="-281.229" rx="19.4965" ry="19.4965"/>
<text text-anchor="middle" x="601.266" y="-277.529" font-family="Times New Roman,serif" font-size="14.00">{}</text>
</g>
<!-- {1,10,3,9}&#45;&gt;{} -->
<g id="edge6" class="edge"><title>{1,10,3,9}&#45;&gt;{}</title>
<path fill="none" stroke="black" d="M368.569,-392.531C422.887,-403.67 509.02,-411.475 563.767,-367.229 581.117,-353.208 590.359,-329.431 595.197,-310.427"/>
<polygon fill="black" stroke="black" points="598.661,-310.979 597.456,-300.453 591.834,-309.433 598.661,-310.979"/>
<text text-anchor="middle" x="475.922" y="-405.029" font-family="Times New Roman,serif" font-size="14.00">s</text>
</g>
<!-- {1,10,3,9}&#45;&gt;{} -->
<g id="edge7" class="edge"><title>{1,10,3,9}&#45;&gt;{}</title>
<path fill="none" stroke="black" d="M369.249,-368.391C413.96,-358.528 480.601,-342.985 537.767,-326.229 549.502,-322.79 553.38,-323.682 563.767,-317.229 569.863,-313.443 575.739,-308.47 580.929,-303.435"/>
<polygon fill="black" stroke="black" points="583.548,-305.762 587.989,-296.143 578.519,-300.893 583.548,-305.762"/>
<text text-anchor="middle" x="475.922" y="-362.029" font-family="Times New Roman,serif" font-size="14.00">h</text>
</g>
<!-- {1,11,15,17}&#45;&gt;{} -->
<g id="edge8" class="edge"><title>{1,11,15,17}&#45;&gt;{}</title>
<path fill="none" stroke="black" d="M537.736,-503.661C547.376,-501.705 556.535,-497.904 563.767,-491.229 589.6,-467.39 597.192,-363.274 599.39,-311.164"/>
<polygon fill="black" stroke="black" points="602.898,-311.007 599.781,-300.881 595.903,-310.741 602.898,-311.007"/>
<text text-anchor="middle" x="559.767" y="-501.029" font-family="Times New Roman,serif" font-size="14.00">b</text>
</g>
<!-- {1,11,15,17}&#45;&gt;{} -->
<g id="edge9" class="edge"><title>{1,11,15,17}&#45;&gt;{}</title>
<path fill="none" stroke="black" d="M534.214,-478.08C545.415,-471.622 556.06,-463.444 563.767,-453.229 580.463,-431.102 591.839,-353.808 597.04,-310.755"/>
<polygon fill="black" stroke="black" points="600.542,-310.941 598.229,-300.601 593.59,-310.126 600.542,-310.941"/>
<text text-anchor="middle" x="559.767" y="-465.029" font-family="Times New Roman,serif" font-size="14.00">s</text>
</g>
<!-- {1,11,15,17}&#45;&gt;{} -->
<g id="edge10" class="edge"><title>{1,11,15,17}&#45;&gt;{}</title>
<path fill="none" stroke="black" d="M525.183,-461.279C539.357,-448.036 553.732,-432.202 563.767,-415.229 583.137,-382.471 592.496,-339.169 596.826,-310.778"/>
<polygon fill="black" stroke="black" points="600.319,-311.07 598.249,-300.679 593.387,-310.093 600.319,-311.07"/>
<text text-anchor="middle" x="559.767" y="-430.029" font-family="Times New Roman,serif" font-size="14.00">h</text>
</g>
<!-- {1,17,7} -->
<g id="node5" class="node"><title>{1,17,7}</title>
<ellipse fill="none" stroke="black" cx="475.922" cy="-129.229" rx="42.4724" ry="42.4724"/>
<ellipse fill="none" stroke="black" cx="475.922" cy="-129.229" rx="46.4938" ry="46.4938"/>
<text text-anchor="middle" x="475.922" y="-125.529" font-family="Times New Roman,serif" font-size="14.00">{1,17,7}</text>
</g>
<!-- {1,17,7}&#45;&gt;{} -->
<g id="edge14" class="edge"><title>{1,17,7}&#45;&gt;{}</title>
<path fill="none" stroke="black" d="M512.245,-158.292C521.031,-166.273 530.117,-175.221 537.767,-184.229 556.773,-206.607 574.5,-235.153 586.185,-255.472"/>
<polygon fill="black" stroke="black" points="583.139,-257.197 591.111,-264.176 589.232,-253.749 583.139,-257.197"/>
<text text-anchor="middle" x="559.767" y="-224.029" font-family="Times New Roman,serif" font-size="14.00">b</text>
</g>
<!-- {1,17,7}&#45;&gt;{} -->
<g id="edge15" class="edge"><title>{1,17,7}&#45;&gt;{}</title>
<path fill="none" stroke="black" d="M517.127,-151.116C533.335,-161.535 551.144,-175.232 563.767,-191.229 578.043,-209.322 587.48,-233.752 593.174,-252.594"/>
<polygon fill="black" stroke="black" points="589.863,-253.746 595.96,-262.411 596.597,-251.835 589.863,-253.746"/>
<text text-anchor="middle" x="559.767" y="-195.029" font-family="Times New Roman,serif" font-size="14.00">s</text>
</g>
<!-- {1,17,7}&#45;&gt;{} -->
<g id="edge16" class="edge"><title>{1,17,7}&#45;&gt;{}</title>
<path fill="none" stroke="black" d="M521.189,-138.757C536.455,-144.01 552.526,-152.042 563.767,-164.229 585.956,-188.286 594.657,-225.67 598.068,-251.683"/>
<polygon fill="black" stroke="black" points="594.602,-252.177 599.198,-261.723 601.558,-251.394 594.602,-252.177"/>
<text text-anchor="middle" x="559.767" y="-168.029" font-family="Times New Roman,serif" font-size="14.00">h</text>
</g>
<!-- {1,13,15,17}&#45;&gt;{} -->
<g id="edge17" class="edge"><title>{1,13,15,17}&#45;&gt;{}</title>
<path fill="none" stroke="black" d="M528.928,-287.425C537.612,-291.47 546.739,-294.975 555.767,-297.229 562.144,-298.822 568.885,-297.853 575.138,-295.77"/>
<polygon fill="black" stroke="black" points="576.626,-298.94 584.44,-291.786 573.87,-292.506 576.626,-298.94"/>
<text text-anchor="middle" x="559.767" y="-302.029" font-family="Times New Roman,serif" font-size="14.00">b</text>
</g>
<!-- {1,13,15,17}&#45;&gt;{} -->
<g id="edge18" class="edge"><title>{1,13,15,17}&#45;&gt;{}</title>
<path fill="none" stroke="black" d="M536.787,-267.849C549.125,-270.449 561.558,-273.07 572.111,-275.295"/>
<polygon fill="black" stroke="black" points="571.457,-278.734 581.964,-277.372 572.901,-271.884 571.457,-278.734"/>
<text text-anchor="middle" x="559.767" y="-278.029" font-family="Times New Roman,serif" font-size="14.00">s</text>
</g>
<!-- {1,13,15,17}&#45;&gt;{} -->
<g id="edge19" class="edge"><title>{1,13,15,17}&#45;&gt;{}</title>
<path fill="none" stroke="black" d="M537.549,-248.446C546.497,-248.983 555.484,-250.418 563.767,-253.229 569.156,-255.058 574.372,-258.038 579.094,-261.386"/>
<polygon fill="black" stroke="black" points="576.98,-264.177 586.992,-267.643 581.327,-258.69 576.98,-264.177"/>
<text text-anchor="middle" x="559.767" y="-257.029" font-family="Times New Roman,serif" font-size="14.00">h</text>
</g>
<!-- {5,6}&#45;&gt;{1,17,7} -->
<g id="edge13" class="edge"><title>{5,6}&#45;&gt;{1,17,7}</title>
<path fill="none" stroke="black" d="M346.689,-87.4651C367.619,-94.2818 396.72,-103.76 421.91,-111.964"/>
<polygon fill="black" stroke="black" points="421.114,-115.386 431.707,-115.154 423.282,-108.73 421.114,-115.386"/>
<text text-anchor="middle" x="392.078" y="-108.029" font-family="Times New Roman,serif" font-size="14.00">h</text>
</g>
<!-- {5,6}&#45;&gt;{} -->
<g id="edge11" class="edge"><title>{5,6}&#45;&gt;{}</title>
<path fill="none" stroke="black" d="M345.139,-65.4237C389.951,-46.0952 480.763,-16.0577 537.767,-59.2294 568.589,-82.5722 588.476,-197.038 596.385,-251.857"/>
<polygon fill="black" stroke="black" points="592.95,-252.565 597.807,-261.981 599.882,-251.591 592.95,-252.565"/>
<text text-anchor="middle" x="475.922" y="-63.0294" font-family="Times New Roman,serif" font-size="14.00">b</text>
</g>
<!-- {5,6}&#45;&gt;{} -->
<g id="edge12" class="edge"><title>{5,6}&#45;&gt;{}</title>
<path fill="none" stroke="black" d="M341.305,-58.6027C359.654,-44.2926 386.74,-26.0873 414.078,-18.2294 466.911,-3.04273 492.246,12.5902 537.767,-18.2294 576.341,-44.3451 592.672,-188.106 598.062,-251.352"/>
<polygon fill="black" stroke="black" points="594.587,-251.8 598.889,-261.482 601.563,-251.23 594.587,-251.8"/>
<text text-anchor="middle" x="475.922" y="-22.0294" font-family="Times New Roman,serif" font-size="14.00">s</text>
</g>
<!-- {}&#45;&gt;{} -->
<g id="edge20" class="edge"><title>{}&#45;&gt;{}</title>
<path fill="none" stroke="black" d="M598.827,-300.907C598.525,-310.372 599.338,-318.728 601.266,-318.728 602.44,-318.728 603.2,-315.625 603.547,-311.059"/>
<polygon fill="black" stroke="black" points="607.049,-310.96 603.704,-300.907 600.05,-310.852 607.049,-310.96"/>
<text text-anchor="middle" x="601.266" y="-322.528" font-family="Times New Roman,serif" font-size="14.00">b</text>
</g>
<!-- {}&#45;&gt;{} -->
<g id="edge21" class="edge"><title>{}&#45;&gt;{}</title>
<path fill="none" stroke="black" d="M597.155,-300.569C595.156,-318.027 596.526,-336.728 601.266,-336.728 605.079,-336.728 606.711,-324.619 606.162,-310.792"/>
<polygon fill="black" stroke="black" points="609.632,-310.271 605.376,-300.569 602.653,-310.808 609.632,-310.271"/>
<text text-anchor="middle" x="601.266" y="-340.528" font-family="Times New Roman,serif" font-size="14.00">s</text>
</g>
<!-- {}&#45;&gt;{} -->
<g id="edge22" class="edge"><title>{}&#45;&gt;{}</title>
<path fill="none" stroke="black" d="M596.139,-300.055C591.744,-324.821 593.453,-354.728 601.266,-354.728 608.04,-354.728 610.225,-332.238 607.82,-310.113"/>
<polygon fill="black" stroke="black" points="611.263,-309.464 606.392,-300.055 604.333,-310.448 611.263,-309.464"/>
<text text-anchor="middle" x="601.266" y="-358.528" font-family="Times New Roman,serif" font-size="14.00">h</text>
</g>
</g>
</svg>
