<?xml version="1.0" encoding="UTF-8" standalone="no"?>
<!DOCTYPE svg PUBLIC "-//W3C//DTD SVG 1.1//EN"
 "http://www.w3.org/Graphics/SVG/1.1/DTD/svg11.dtd">
<!-- Generated by graphviz version 2.38.0 (20140413.2041)
 -->
<!-- Title: dfa Pages: 1 -->
<svg width="354pt" height="81pt"
 viewBox="0.00 0.00 353.60 81.00" xmlns="http://www.w3.org/2000/svg" xmlns:xlink="http://www.w3.org/1999/xlink">
<g id="graph0" class="graph" transform="scale(1 1) rotate(0) translate(4 77)">
<title>dfa</title>
<polygon fill="white" stroke="none" points="-4,4 -4,-77 349.6,-77 349.6,4 -4,4"/>
<!-- __start -->
<!-- 0 -->
<g id="node2" class="node"><title>0</title>
<ellipse fill="none" stroke="black" cx="82.6" cy="-18" rx="18" ry="18"/>
<text text-anchor="middle" x="82.6" y="-14.3" font-family="Times New Roman,serif" font-size="14.00">0</text>
</g>
<!-- __start&#45;&gt;0 -->
<g id="edge1" class="edge"><title>__start&#45;&gt;0</title>
<path fill="none" stroke="black" d="M3.68496,-18C8.69573,-18 34.008,-18 54.4423,-18"/>
<polygon fill="black" stroke="black" points="54.5501,-21.5001 64.5501,-18 54.5501,-14.5001 54.5501,-21.5001"/>
<text text-anchor="middle" x="34.1" y="-21.8" font-family="Times New Roman,serif" font-size="14.00">start</text>
</g>
<!-- 2 -->
<g id="node4" class="node"><title>2</title>
<ellipse fill="none" stroke="black" cx="161.6" cy="-18" rx="18" ry="18"/>
<text text-anchor="middle" x="161.6" y="-14.3" font-family="Times New Roman,serif" font-size="14.00">2</text>
</g>
<!-- 0&#45;&gt;2 -->
<g id="edge3" class="edge"><title>0&#45;&gt;2</title>
<path fill="none" stroke="black" d="M100.689,-18C110.259,-18 122.417,-18 133.277,-18"/>
<polygon fill="black" stroke="black" points="133.559,-21.5001 143.559,-18 133.559,-14.5001 133.559,-21.5001"/>
<text text-anchor="middle" x="122.1" y="-21.8" font-family="Times New Roman,serif" font-size="14.00">x</text>
</g>
<!-- 1 -->
<g id="node3" class="node"><title>1</title>
<ellipse fill="none" stroke="black" cx="244.6" cy="-51" rx="18" ry="18"/>
<ellipse fill="none" stroke="black" cx="244.6" cy="-51" rx="22" ry="22"/>
<text text-anchor="middle" x="244.6" y="-47.3" font-family="Times New Roman,serif" font-size="14.00">1</text>
</g>
<!-- 3 -->
<g id="node5" class="node"><title>3</title>
<ellipse fill="none" stroke="black" cx="327.6" cy="-18" rx="18" ry="18"/>
<text text-anchor="middle" x="327.6" y="-14.3" font-family="Times New Roman,serif" font-size="14.00">3</text>
</g>
<!-- 1&#45;&gt;3 -->
<g id="edge5" class="edge"><title>1&#45;&gt;3</title>
<path fill="none" stroke="black" d="M265.208,-43.0116C275.999,-38.6151 289.516,-33.1083 301.117,-28.3819"/>
<polygon fill="black" stroke="black" points="302.762,-31.491 310.703,-24.4767 300.121,-25.0084 302.762,-31.491"/>
<text text-anchor="middle" x="288.1" y="-37.8" font-family="Times New Roman,serif" font-size="14.00">x</text>
</g>
<!-- 2&#45;&gt;1 -->
<g id="edge2" class="edge"><title>2&#45;&gt;1</title>
<path fill="none" stroke="black" d="M178.603,-24.5197C188.862,-28.6994 202.481,-34.2476 214.601,-39.1854"/>
<polygon fill="black" stroke="black" points="213.325,-42.445 223.907,-42.9767 215.966,-35.9624 213.325,-42.445"/>
<text text-anchor="middle" x="201.1" y="-37.8" font-family="Times New Roman,serif" font-size="14.00">x</text>
</g>
<!-- 3&#45;&gt;2 -->
<g id="edge4" class="edge"><title>3&#45;&gt;2</title>
<path fill="none" stroke="black" d="M309.945,-13.3901C297.99,-10.3279 281.437,-6.58889 266.6,-5 247.156,-2.91768 242.044,-2.91768 222.6,-5 211.472,-6.19167 199.379,-8.59277 188.984,-11.0107"/>
<polygon fill="black" stroke="black" points="188.137,-7.61475 179.255,-13.3901 189.8,-14.4144 188.137,-7.61475"/>
<text text-anchor="middle" x="244.6" y="-8.8" font-family="Times New Roman,serif" font-size="14.00">x</text>
</g>
</g>
</svg>
