<?xml version="1.0" encoding="UTF-8" standalone="no"?>
<!DOCTYPE svg PUBLIC "-//W3C//DTD SVG 1.1//EN"
 "http://www.w3.org/Graphics/SVG/1.1/DTD/svg11.dtd">
<!-- Generated by graphviz version 2.38.0 (20140413.2041)
 -->
<!-- Title: dfa Pages: 1 -->
<svg width="372pt" height="81pt"
 viewBox="0.00 0.00 371.60 81.00" xmlns="http://www.w3.org/2000/svg" xmlns:xlink="http://www.w3.org/1999/xlink">
<g id="graph0" class="graph" transform="scale(1 1) rotate(0) translate(4 77)">
<title>dfa</title>
<polygon fill="white" stroke="none" points="-4,4 -4,-77 367.6,-77 367.6,4 -4,4"/>
<!-- __start -->
<!-- 0 -->
<g id="node2" class="node"><title>0</title>
<ellipse fill="none" stroke="black" cx="91.6" cy="-18" rx="27" ry="18"/>
<text text-anchor="middle" x="91.6" y="-14.3" font-family="Times New Roman,serif" font-size="14.00">0</text>
</g>
<!-- __start&#45;&gt;0 -->
<g id="edge1" class="edge"><title>__start&#45;&gt;0</title>
<path fill="none" stroke="black" d="M3.78604,-18C8.86985,-18 32.7092,-18 54.1222,-18"/>
<polygon fill="black" stroke="black" points="54.3463,-21.5001 64.3463,-18 54.3463,-14.5001 54.3463,-21.5001"/>
<text text-anchor="middle" x="34.1" y="-21.8" font-family="Times New Roman,serif" font-size="14.00">start</text>
</g>
<!-- 2 -->
<g id="node4" class="node"><title>2</title>
<ellipse fill="none" stroke="black" cx="179.6" cy="-18" rx="18" ry="18"/>
<text text-anchor="middle" x="179.6" y="-14.3" font-family="Times New Roman,serif" font-size="14.00">2</text>
</g>
<!-- 0&#45;&gt;2 -->
<g id="edge3" class="edge"><title>0&#45;&gt;2</title>
<path fill="none" stroke="black" d="M118.87,-18C129.135,-18 140.908,-18 151.272,-18"/>
<polygon fill="black" stroke="black" points="151.442,-21.5001 161.442,-18 151.442,-14.5001 151.442,-21.5001"/>
<text text-anchor="middle" x="140.1" y="-21.8" font-family="Times New Roman,serif" font-size="14.00">x</text>
</g>
<!-- 1 -->
<g id="node3" class="node"><title>1</title>
<ellipse fill="none" stroke="black" cx="262.6" cy="-51" rx="18" ry="18"/>
<ellipse fill="none" stroke="black" cx="262.6" cy="-51" rx="22" ry="22"/>
<text text-anchor="middle" x="262.6" y="-47.3" font-family="Times New Roman,serif" font-size="14.00">1</text>
</g>
<!-- 3 -->
<g id="node5" class="node"><title>3</title>
<ellipse fill="none" stroke="black" cx="345.6" cy="-18" rx="18" ry="18"/>
<text text-anchor="middle" x="345.6" y="-14.3" font-family="Times New Roman,serif" font-size="14.00">3</text>
</g>
<!-- 1&#45;&gt;3 -->
<g id="edge5" class="edge"><title>1&#45;&gt;3</title>
<path fill="none" stroke="black" d="M283.208,-43.0116C293.999,-38.6151 307.516,-33.1083 319.117,-28.3819"/>
<polygon fill="black" stroke="black" points="320.762,-31.491 328.703,-24.4767 318.121,-25.0084 320.762,-31.491"/>
<text text-anchor="middle" x="306.1" y="-37.8" font-family="Times New Roman,serif" font-size="14.00">x</text>
</g>
<!-- 2&#45;&gt;1 -->
<g id="edge2" class="edge"><title>2&#45;&gt;1</title>
<path fill="none" stroke="black" d="M196.603,-24.5197C206.862,-28.6994 220.481,-34.2476 232.601,-39.1854"/>
<polygon fill="black" stroke="black" points="231.325,-42.445 241.907,-42.9767 233.966,-35.9624 231.325,-42.445"/>
<text text-anchor="middle" x="219.1" y="-37.8" font-family="Times New Roman,serif" font-size="14.00">x</text>
</g>
<!-- 3&#45;&gt;2 -->
<g id="edge4" class="edge"><title>3&#45;&gt;2</title>
<path fill="none" stroke="black" d="M327.945,-13.3901C315.99,-10.3279 299.437,-6.58889 284.6,-5 265.156,-2.91768 260.044,-2.91768 240.6,-5 229.472,-6.19167 217.379,-8.59277 206.984,-11.0107"/>
<polygon fill="black" stroke="black" points="206.137,-7.61475 197.255,-13.3901 207.8,-14.4144 206.137,-7.61475"/>
<text text-anchor="middle" x="262.6" y="-8.8" font-family="Times New Roman,serif" font-size="14.00">x</text>
</g>
</g>
</svg>
