<?xml version="1.0" encoding="UTF-8" standalone="no"?>
<!DOCTYPE svg PUBLIC "-//W3C//DTD SVG 1.1//EN"
 "http://www.w3.org/Graphics/SVG/1.1/DTD/svg11.dtd">
<!-- Generated by graphviz version 2.38.0 (20140413.2041)
 -->
<!-- Title: dfa Pages: 1 -->
<svg width="372pt" height="81pt"
 viewBox="0.00 0.00 371.60 81.00" xmlns="http://www.w3.org/2000/svg" xmlns:xlink="http://www.w3.org/1999/xlink">
<g id="graph0" class="graph" transform="scale(1 1) rotate(0) translate(4 77)">
<title>dfa</title>
<polygon fill="white" stroke="none" points="-4,4 -4,-77 367.6,-77 367.6,4 -4,4"/>
<!-- __start -->
<!-- 0 -->
<g id="node2" class="node"><title>0</title>
<ellipse fill="none" stroke="black" cx="91.6" cy="-22" rx="27" ry="18"/>
<text text-anchor="middle" x="91.6" y="-18.3" font-family="Times New Roman,serif" font-size="14.00">0</text>
</g>
<!-- __start&#45;&gt;0 -->
<g id="edge1" class="edge"><title>__start&#45;&gt;0</title>
<path fill="none" stroke="black" d="M3.78604,-22C8.86985,-22 32.7092,-22 54.1222,-22"/>
<polygon fill="black" stroke="black" points="54.3463,-25.5001 64.3463,-22 54.3463,-18.5001 54.3463,-25.5001"/>
<text text-anchor="middle" x="34.1" y="-25.8" font-family="Times New Roman,serif" font-size="14.00">start</text>
</g>
<!-- 3 -->
<g id="node5" class="node"><title>3</title>
<ellipse fill="none" stroke="black" cx="179.6" cy="-22" rx="18" ry="18"/>
<text text-anchor="middle" x="179.6" y="-18.3" font-family="Times New Roman,serif" font-size="14.00">3</text>
</g>
<!-- 0&#45;&gt;3 -->
<g id="edge3" class="edge"><title>0&#45;&gt;3</title>
<path fill="none" stroke="black" d="M118.87,-22C129.135,-22 140.908,-22 151.272,-22"/>
<polygon fill="black" stroke="black" points="151.442,-25.5001 161.442,-22 151.442,-18.5001 151.442,-25.5001"/>
<text text-anchor="middle" x="140.1" y="-25.8" font-family="Times New Roman,serif" font-size="14.00">x</text>
</g>
<!-- 1 -->
<g id="node3" class="node"><title>1</title>
<ellipse fill="none" stroke="black" cx="262.6" cy="-22" rx="18" ry="18"/>
<ellipse fill="none" stroke="black" cx="262.6" cy="-22" rx="22" ry="22"/>
<text text-anchor="middle" x="262.6" y="-18.3" font-family="Times New Roman,serif" font-size="14.00">1</text>
</g>
<!-- 2 -->
<g id="node4" class="node"><title>2</title>
<ellipse fill="none" stroke="black" cx="345.6" cy="-22" rx="18" ry="18"/>
<text text-anchor="middle" x="345.6" y="-18.3" font-family="Times New Roman,serif" font-size="14.00">2</text>
</g>
<!-- 1&#45;&gt;2 -->
<g id="edge4" class="edge"><title>1&#45;&gt;2</title>
<path fill="none" stroke="black" d="M284.882,-22C294.866,-22 306.878,-22 317.503,-22"/>
<polygon fill="black" stroke="black" points="317.54,-25.5001 327.539,-22 317.539,-18.5001 317.54,-25.5001"/>
<text text-anchor="middle" x="306.1" y="-25.8" font-family="Times New Roman,serif" font-size="14.00">x</text>
</g>
<!-- 2&#45;&gt;2 -->
<g id="edge2" class="edge"><title>2&#45;&gt;2</title>
<path fill="none" stroke="black" d="M338.866,-39.0373C337.492,-48.8579 339.737,-58 345.6,-58 349.265,-58 351.516,-54.4289 352.353,-49.3529"/>
<polygon fill="black" stroke="black" points="355.852,-49.0307 352.334,-39.0373 348.852,-49.0439 355.852,-49.0307"/>
<text text-anchor="middle" x="345.6" y="-61.8" font-family="Times New Roman,serif" font-size="14.00">x</text>
</g>
<!-- 3&#45;&gt;1 -->
<g id="edge5" class="edge"><title>3&#45;&gt;1</title>
<path fill="none" stroke="black" d="M197.778,-22C207.21,-22 219.201,-22 230.237,-22"/>
<polygon fill="black" stroke="black" points="230.411,-25.5001 240.411,-22 230.411,-18.5001 230.411,-25.5001"/>
<text text-anchor="middle" x="219.1" y="-25.8" font-family="Times New Roman,serif" font-size="14.00">x</text>
</g>
</g>
</svg>
