<?xml version="1.0" encoding="UTF-8" standalone="no"?>
<!DOCTYPE svg PUBLIC "-//W3C//DTD SVG 1.1//EN"
 "http://www.w3.org/Graphics/SVG/1.1/DTD/svg11.dtd">
<!-- Generated by graphviz version 2.38.0 (20140413.2041)
 -->
<!-- Title: dfa Pages: 1 -->
<svg width="631pt" height="108pt"
 viewBox="0.00 0.00 630.97 107.90" xmlns="http://www.w3.org/2000/svg" xmlns:xlink="http://www.w3.org/1999/xlink">
<g id="graph0" class="graph" transform="scale(1 1) rotate(0) translate(4 103.895)">
<title>dfa</title>
<polygon fill="white" stroke="none" points="-4,4 -4,-103.895 626.97,-103.895 626.97,4 -4,4"/>
<!-- __start -->
<!-- (0,0) -->
<g id="node2" class="node"><title>(0,0)</title>
<ellipse fill="none" stroke="black" cx="92.5475" cy="-67.9475" rx="27.8951" ry="27.8951"/>
<text text-anchor="middle" x="92.5475" y="-64.2475" font-family="Times New Roman,serif" font-size="14.00">(0,0)</text>
</g>
<!-- __start&#45;&gt;(0,0) -->
<g id="edge1" class="edge"><title>__start&#45;&gt;(0,0)</title>
<path fill="none" stroke="black" d="M3.79668,-67.9475C8.92583,-67.9475 32.9428,-67.9475 54.5557,-67.9475"/>
<polygon fill="black" stroke="black" points="54.5589,-71.4476 64.5589,-67.9475 54.5588,-64.4476 54.5589,-71.4476"/>
<text text-anchor="middle" x="34.1" y="-71.7475" font-family="Times New Roman,serif" font-size="14.00">start</text>
</g>
<!-- (3,2) -->
<g id="node7" class="node"><title>(3,2)</title>
<ellipse fill="none" stroke="black" cx="191.443" cy="-67.9475" rx="27.8951" ry="27.8951"/>
<text text-anchor="middle" x="191.443" y="-64.2475" font-family="Times New Roman,serif" font-size="14.00">(3,2)</text>
</g>
<!-- (0,0)&#45;&gt;(3,2) -->
<g id="edge5" class="edge"><title>(0,0)&#45;&gt;(3,2)</title>
<path fill="none" stroke="black" d="M120.538,-67.9475C130.638,-67.9475 142.296,-67.9475 153.162,-67.9475"/>
<polygon fill="black" stroke="black" points="153.261,-71.4476 163.261,-67.9475 153.261,-64.4476 153.261,-71.4476"/>
<text text-anchor="middle" x="141.995" y="-71.7475" font-family="Times New Roman,serif" font-size="14.00">x</text>
</g>
<!-- (1,1) -->
<g id="node3" class="node"><title>(1,1)</title>
<ellipse fill="none" stroke="black" cx="294.338" cy="-67.9475" rx="27.9017" ry="27.9017"/>
<ellipse fill="none" stroke="black" cx="294.338" cy="-67.9475" rx="31.8951" ry="31.8951"/>
<text text-anchor="middle" x="294.338" y="-64.2475" font-family="Times New Roman,serif" font-size="14.00">(1,1)</text>
</g>
<!-- (2,3) -->
<g id="node6" class="node"><title>(2,3)</title>
<ellipse fill="none" stroke="black" cx="397.233" cy="-67.9475" rx="27.8951" ry="27.8951"/>
<text text-anchor="middle" x="397.233" y="-64.2475" font-family="Times New Roman,serif" font-size="14.00">(2,3)</text>
</g>
<!-- (1,1)&#45;&gt;(2,3) -->
<g id="edge7" class="edge"><title>(1,1)&#45;&gt;(2,3)</title>
<path fill="none" stroke="black" d="M326.433,-67.9475C336.681,-67.9475 348.186,-67.9475 358.853,-67.9475"/>
<polygon fill="black" stroke="black" points="359.164,-71.4476 369.164,-67.9475 359.163,-64.4476 359.164,-71.4476"/>
<text text-anchor="middle" x="347.785" y="-71.7475" font-family="Times New Roman,serif" font-size="14.00">x</text>
</g>
<!-- (2,2) -->
<g id="node4" class="node"><title>(2,2)</title>
<ellipse fill="none" stroke="black" cx="496.128" cy="-27.9475" rx="27.8951" ry="27.8951"/>
<text text-anchor="middle" x="496.128" y="-24.2475" font-family="Times New Roman,serif" font-size="14.00">(2,2)</text>
</g>
<!-- (2,1) -->
<g id="node5" class="node"><title>(2,1)</title>
<ellipse fill="none" stroke="black" cx="595.023" cy="-67.9475" rx="27.8951" ry="27.8951"/>
<text text-anchor="middle" x="595.023" y="-64.2475" font-family="Times New Roman,serif" font-size="14.00">(2,1)</text>
</g>
<!-- (2,2)&#45;&gt;(2,1) -->
<g id="edge2" class="edge"><title>(2,2)&#45;&gt;(2,1)</title>
<path fill="none" stroke="black" d="M522.333,-38.3526C533.66,-43.0285 547.208,-48.6215 559.461,-53.68"/>
<polygon fill="black" stroke="black" points="558.365,-57.0138 568.944,-57.5945 561.036,-50.5435 558.365,-57.0138"/>
<text text-anchor="middle" x="545.575" y="-53.7475" font-family="Times New Roman,serif" font-size="14.00">x</text>
</g>
<!-- (2,1)&#45;&gt;(2,3) -->
<g id="edge3" class="edge"><title>(2,1)&#45;&gt;(2,3)</title>
<path fill="none" stroke="black" d="M566.928,-68.6477C561.043,-68.7726 554.851,-68.8833 549.075,-68.9475 502.014,-69.471 490.242,-69.471 443.18,-68.9475 440.653,-68.9194 438.047,-68.8824 435.421,-68.8392"/>
<polygon fill="black" stroke="black" points="435.391,-65.3382 425.327,-68.6477 435.259,-72.3369 435.391,-65.3382"/>
<text text-anchor="middle" x="496.128" y="-72.7475" font-family="Times New Roman,serif" font-size="14.00">x</text>
</g>
<!-- (2,3)&#45;&gt;(2,2) -->
<g id="edge4" class="edge"><title>(2,3)&#45;&gt;(2,2)</title>
<path fill="none" stroke="black" d="M423.438,-57.5424C434.765,-52.8665 448.313,-47.2736 460.566,-42.2151"/>
<polygon fill="black" stroke="black" points="462.141,-45.3516 470.049,-38.3005 459.47,-38.8812 462.141,-45.3516"/>
<text text-anchor="middle" x="446.68" y="-53.7475" font-family="Times New Roman,serif" font-size="14.00">x</text>
</g>
<!-- (3,2)&#45;&gt;(1,1) -->
<g id="edge6" class="edge"><title>(3,2)&#45;&gt;(1,1)</title>
<path fill="none" stroke="black" d="M219.481,-67.9475C229.478,-67.9475 241.051,-67.9475 252.027,-67.9475"/>
<polygon fill="black" stroke="black" points="252.296,-71.4476 262.296,-67.9475 252.296,-64.4476 252.296,-71.4476"/>
<text text-anchor="middle" x="240.89" y="-71.7475" font-family="Times New Roman,serif" font-size="14.00">x</text>
</g>
</g>
</svg>
