<?xml version="1.0" encoding="UTF-8" standalone="no"?>
<!DOCTYPE svg PUBLIC "-//W3C//DTD SVG 1.1//EN"
 "http://www.w3.org/Graphics/SVG/1.1/DTD/svg11.dtd">
<!-- Generated by graphviz version 2.38.0 (20140413.2041)
 -->
<!-- Title: dfa Pages: 1 -->
<svg width="198pt" height="85pt"
 viewBox="0.00 0.00 197.60 85.00" xmlns="http://www.w3.org/2000/svg" xmlns:xlink="http://www.w3.org/1999/xlink">
<g id="graph0" class="graph" transform="scale(1 1) rotate(0) translate(4 81)">
<title>dfa</title>
<polygon fill="white" stroke="none" points="-4,4 -4,-81 193.6,-81 193.6,4 -4,4"/>
<!-- __start -->
<!-- 0 -->
<g id="node2" class="node"><title>0</title>
<ellipse fill="none" stroke="black" cx="82.6" cy="-22" rx="18" ry="18"/>
<text text-anchor="middle" x="82.6" y="-18.3" font-family="Times New Roman,serif" font-size="14.00">0</text>
</g>
<!-- __start&#45;&gt;0 -->
<g id="edge1" class="edge"><title>__start&#45;&gt;0</title>
<path fill="none" stroke="black" d="M3.68496,-22C8.69573,-22 34.008,-22 54.4423,-22"/>
<polygon fill="black" stroke="black" points="54.5501,-25.5001 64.5501,-22 54.5501,-18.5001 54.5501,-25.5001"/>
<text text-anchor="middle" x="34.1" y="-25.8" font-family="Times New Roman,serif" font-size="14.00">start</text>
</g>
<!-- 0&#45;&gt;0 -->
<g id="edge2" class="edge"><title>0&#45;&gt;0</title>
<path fill="none" stroke="black" d="M75.5688,-38.6641C74.0063,-48.625 76.35,-58 82.6,-58 86.6039,-58 89.0047,-54.1525 89.8023,-48.7682"/>
<polygon fill="black" stroke="black" points="93.3001,-48.6033 89.6313,-38.6641 86.3011,-48.7219 93.3001,-48.6033"/>
<text text-anchor="middle" x="82.6" y="-61.8" font-family="Times New Roman,serif" font-size="14.00">+</text>
</g>
<!-- 1 -->
<g id="node3" class="node"><title>1</title>
<ellipse fill="none" stroke="black" cx="167.6" cy="-22" rx="18" ry="18"/>
<ellipse fill="none" stroke="black" cx="167.6" cy="-22" rx="22" ry="22"/>
<text text-anchor="middle" x="167.6" y="-18.3" font-family="Times New Roman,serif" font-size="14.00">1</text>
</g>
<!-- 0&#45;&gt;1 -->
<g id="edge3" class="edge"><title>0&#45;&gt;1</title>
<path fill="none" stroke="black" d="M100.798,-22C110.759,-22 123.604,-22 135.297,-22"/>
<polygon fill="black" stroke="black" points="135.597,-25.5001 145.597,-22 135.597,-18.5001 135.597,-25.5001"/>
<text text-anchor="middle" x="123.1" y="-25.8" font-family="Times New Roman,serif" font-size="14.00">&#45;</text>
</g>
<!-- 1&#45;&gt;0 -->
<g id="edge4" class="edge"><title>1&#45;&gt;0</title>
<path fill="none" stroke="black" d="M149.179,-9.3694C140.222,-4.36241 129.024,-0.353037 118.6,-3 114.642,-4.00504 110.647,-5.55766 106.844,-7.35171"/>
<polygon fill="black" stroke="black" points="105.075,-4.32845 97.9113,-12.1343 108.379,-10.4996 105.075,-4.32845"/>
<text text-anchor="middle" x="123.1" y="-6.8" font-family="Times New Roman,serif" font-size="14.00">+</text>
</g>
<!-- 1&#45;&gt;1 -->
<g id="edge5" class="edge"><title>1&#45;&gt;1</title>
<path fill="none" stroke="black" d="M159.594,-42.5808C158.486,-52.8447 161.155,-62 167.6,-62 171.729,-62 174.308,-58.2427 175.337,-52.8436"/>
<polygon fill="black" stroke="black" points="178.843,-52.6691 175.606,-42.5808 171.845,-52.4857 178.843,-52.6691"/>
<text text-anchor="middle" x="167.6" y="-65.8" font-family="Times New Roman,serif" font-size="14.00">&#45;</text>
</g>
</g>
</svg>
