<?xml version="1.0" encoding="UTF-8" standalone="no"?>
<!DOCTYPE svg PUBLIC "-//W3C//DTD SVG 1.1//EN"
 "http://www.w3.org/Graphics/SVG/1.1/DTD/svg11.dtd">
<!-- Generated by graphviz version 2.38.0 (20140413.2041)
 -->
<!-- Title: dfa Pages: 1 -->
<svg width="378pt" height="122pt"
 viewBox="0.00 0.00 377.60 122.00" xmlns="http://www.w3.org/2000/svg" xmlns:xlink="http://www.w3.org/1999/xlink">
<g id="graph0" class="graph" transform="scale(1 1) rotate(0) translate(4 118)">
<title>dfa</title>
<polygon fill="white" stroke="none" points="-4,4 -4,-118 373.6,-118 373.6,4 -4,4"/>
<!-- __start -->
<!-- 0 -->
<g id="node2" class="node"><title>0</title>
<ellipse fill="none" stroke="black" cx="91.6" cy="-32" rx="27" ry="18"/>
<text text-anchor="middle" x="91.6" y="-28.3" font-family="Times New Roman,serif" font-size="14.00">0</text>
</g>
<!-- __start&#45;&gt;0 -->
<g id="edge1" class="edge"><title>__start&#45;&gt;0</title>
<path fill="none" stroke="black" d="M3.78604,-32C8.86985,-32 32.7092,-32 54.1222,-32"/>
<polygon fill="black" stroke="black" points="54.3463,-35.5001 64.3463,-32 54.3463,-28.5001 54.3463,-35.5001"/>
<text text-anchor="middle" x="34.1" y="-35.8" font-family="Times New Roman,serif" font-size="14.00">start</text>
</g>
<!-- 1 -->
<g id="node3" class="node"><title>1</title>
<ellipse fill="none" stroke="black" cx="185.6" cy="-59" rx="18" ry="18"/>
<ellipse fill="none" stroke="black" cx="185.6" cy="-59" rx="22" ry="22"/>
<text text-anchor="middle" x="185.6" y="-55.3" font-family="Times New Roman,serif" font-size="14.00">1</text>
</g>
<!-- 0&#45;&gt;1 -->
<g id="edge8" class="edge"><title>0&#45;&gt;1</title>
<path fill="none" stroke="black" d="M115.259,-40.8455C122.063,-43.3366 129.584,-45.929 136.6,-48 142.135,-49.6337 148.088,-51.1706 153.854,-52.5483"/>
<polygon fill="black" stroke="black" points="153.372,-56.0282 163.9,-54.8424 154.93,-49.2039 153.372,-56.0282"/>
<text text-anchor="middle" x="141.1" y="-53.8" font-family="Times New Roman,serif" font-size="14.00">+</text>
</g>
<!-- 0&#45;&gt;1 -->
<g id="edge9" class="edge"><title>0&#45;&gt;1</title>
<path fill="none" stroke="black" d="M117.669,-26.736C126.679,-25.8374 136.788,-26.0027 145.6,-29 151.059,-30.8567 156.351,-33.82 161.184,-37.1772"/>
<polygon fill="black" stroke="black" points="159.278,-40.1284 169.325,-43.4917 163.568,-34.5972 159.278,-40.1284"/>
<text text-anchor="middle" x="141.1" y="-32.8" font-family="Times New Roman,serif" font-size="14.00">&#45;</text>
</g>
<!-- 1&#45;&gt;1 -->
<g id="edge4" class="edge"><title>1&#45;&gt;1</title>
<path fill="none" stroke="black" d="M177.594,-79.5808C176.486,-89.8447 179.155,-99 185.6,-99 189.729,-99 192.308,-95.2427 193.337,-89.8436"/>
<polygon fill="black" stroke="black" points="196.843,-89.6691 193.606,-79.5808 189.845,-89.4857 196.843,-89.6691"/>
<text text-anchor="middle" x="185.6" y="-102.8" font-family="Times New Roman,serif" font-size="14.00">+</text>
</g>
<!-- 3 -->
<g id="node5" class="node"><title>3</title>
<ellipse fill="none" stroke="black" cx="270.6" cy="-45" rx="18" ry="18"/>
<text text-anchor="middle" x="270.6" y="-41.3" font-family="Times New Roman,serif" font-size="14.00">3</text>
</g>
<!-- 1&#45;&gt;3 -->
<g id="edge5" class="edge"><title>1&#45;&gt;3</title>
<path fill="none" stroke="black" d="M207.778,-59.4284C216.189,-59.2586 225.911,-58.6347 234.6,-57 237.658,-56.4247 240.811,-55.6375 243.915,-54.7392"/>
<polygon fill="black" stroke="black" points="245.063,-58.0463 253.482,-51.6142 242.889,-51.3923 245.063,-58.0463"/>
<text text-anchor="middle" x="230.1" y="-61.8" font-family="Times New Roman,serif" font-size="14.00">&#45;</text>
</g>
<!-- 2 -->
<g id="node4" class="node"><title>2</title>
<ellipse fill="none" stroke="black" cx="351.6" cy="-18" rx="18" ry="18"/>
<text text-anchor="middle" x="351.6" y="-14.3" font-family="Times New Roman,serif" font-size="14.00">2</text>
</g>
<!-- 2&#45;&gt;0 -->
<g id="edge2" class="edge"><title>2&#45;&gt;0</title>
<path fill="none" stroke="black" d="M333.577,-17.1217C297.212,-15.5246 209.334,-13.1551 136.6,-23 133.703,-23.3922 130.71,-23.8626 127.712,-24.3799"/>
<polygon fill="black" stroke="black" points="126.812,-20.9876 117.63,-26.2738 128.104,-27.8673 126.812,-20.9876"/>
<text text-anchor="middle" x="230.1" y="-19.8" font-family="Times New Roman,serif" font-size="14.00">+</text>
</g>
<!-- 2&#45;&gt;2 -->
<g id="edge3" class="edge"><title>2&#45;&gt;2</title>
<path fill="none" stroke="black" d="M344.569,-34.6641C343.006,-44.625 345.35,-54 351.6,-54 355.604,-54 358.005,-50.1525 358.802,-44.7682"/>
<polygon fill="black" stroke="black" points="362.3,-44.6033 358.631,-34.6641 355.301,-44.7219 362.3,-44.6033"/>
<text text-anchor="middle" x="351.6" y="-57.8" font-family="Times New Roman,serif" font-size="14.00">&#45;</text>
</g>
<!-- 3&#45;&gt;1 -->
<g id="edge7" class="edge"><title>3&#45;&gt;1</title>
<path fill="none" stroke="black" d="M253.161,-39.2511C244.831,-37.1271 234.6,-35.7309 225.6,-38 221.604,-39.0075 217.571,-40.5136 213.693,-42.2653"/>
<polygon fill="black" stroke="black" points="211.786,-39.3096 204.479,-46.9816 214.976,-45.5407 211.786,-39.3096"/>
<text text-anchor="middle" x="230.1" y="-41.8" font-family="Times New Roman,serif" font-size="14.00">&#45;</text>
</g>
<!-- 3&#45;&gt;2 -->
<g id="edge6" class="edge"><title>3&#45;&gt;2</title>
<path fill="none" stroke="black" d="M287.969,-39.4056C298.561,-35.7854 312.58,-30.9941 324.669,-26.8625"/>
<polygon fill="black" stroke="black" points="325.921,-30.1333 334.252,-23.5873 323.658,-23.5095 325.921,-30.1333"/>
<text text-anchor="middle" x="311.1" y="-35.8" font-family="Times New Roman,serif" font-size="14.00">+</text>
</g>
</g>
</svg>
