<?xml version="1.0" encoding="UTF-8" standalone="no"?>
<!DOCTYPE svg PUBLIC "-//W3C//DTD SVG 1.1//EN"
 "http://www.w3.org/Graphics/SVG/1.1/DTD/svg11.dtd">
<!-- Generated by graphviz version 2.38.0 (20140413.2041)
 -->
<!-- Title: dfa Pages: 1 -->
<svg width="360pt" height="122pt"
 viewBox="0.00 0.00 359.60 122.00" xmlns="http://www.w3.org/2000/svg" xmlns:xlink="http://www.w3.org/1999/xlink">
<g id="graph0" class="graph" transform="scale(1 1) rotate(0) translate(4 118)">
<title>dfa</title>
<polygon fill="white" stroke="none" points="-4,4 -4,-118 355.6,-118 355.6,4 -4,4"/>
<!-- __start -->
<!-- 0 -->
<g id="node2" class="node"><title>0</title>
<ellipse fill="none" stroke="black" cx="82.6" cy="-32" rx="18" ry="18"/>
<text text-anchor="middle" x="82.6" y="-28.3" font-family="Times New Roman,serif" font-size="14.00">0</text>
</g>
<!-- __start&#45;&gt;0 -->
<g id="edge1" class="edge"><title>__start&#45;&gt;0</title>
<path fill="none" stroke="black" d="M3.68496,-32C8.69573,-32 34.008,-32 54.4423,-32"/>
<polygon fill="black" stroke="black" points="54.5501,-35.5001 64.5501,-32 54.5501,-28.5001 54.5501,-35.5001"/>
<text text-anchor="middle" x="34.1" y="-35.8" font-family="Times New Roman,serif" font-size="14.00">start</text>
</g>
<!-- 1 -->
<g id="node3" class="node"><title>1</title>
<ellipse fill="none" stroke="black" cx="167.6" cy="-59" rx="18" ry="18"/>
<ellipse fill="none" stroke="black" cx="167.6" cy="-59" rx="22" ry="22"/>
<text text-anchor="middle" x="167.6" y="-55.3" font-family="Times New Roman,serif" font-size="14.00">1</text>
</g>
<!-- 0&#45;&gt;1 -->
<g id="edge8" class="edge"><title>0&#45;&gt;1</title>
<path fill="none" stroke="black" d="M99.0049,-39.863C105.01,-42.7088 112.02,-45.768 118.6,-48 124.065,-49.8538 129.985,-51.4947 135.74,-52.9062"/>
<polygon fill="black" stroke="black" points="135.261,-56.3864 145.788,-55.1954 136.816,-49.5613 135.261,-56.3864"/>
<text text-anchor="middle" x="123.1" y="-53.8" font-family="Times New Roman,serif" font-size="14.00">+</text>
</g>
<!-- 0&#45;&gt;1 -->
<g id="edge9" class="edge"><title>0&#45;&gt;1</title>
<path fill="none" stroke="black" d="M100.295,-27.8546C108.69,-26.5157 118.901,-26.0414 127.6,-29 133.059,-30.8567 138.351,-33.82 143.184,-37.1772"/>
<polygon fill="black" stroke="black" points="141.278,-40.1284 151.325,-43.4917 145.568,-34.5972 141.278,-40.1284"/>
<text text-anchor="middle" x="123.1" y="-32.8" font-family="Times New Roman,serif" font-size="14.00">&#45;</text>
</g>
<!-- 1&#45;&gt;1 -->
<g id="edge4" class="edge"><title>1&#45;&gt;1</title>
<path fill="none" stroke="black" d="M159.594,-79.5808C158.486,-89.8447 161.155,-99 167.6,-99 171.729,-99 174.308,-95.2427 175.337,-89.8436"/>
<polygon fill="black" stroke="black" points="178.843,-89.6691 175.606,-79.5808 171.845,-89.4857 178.843,-89.6691"/>
<text text-anchor="middle" x="167.6" y="-102.8" font-family="Times New Roman,serif" font-size="14.00">+</text>
</g>
<!-- 3 -->
<g id="node5" class="node"><title>3</title>
<ellipse fill="none" stroke="black" cx="252.6" cy="-45" rx="18" ry="18"/>
<text text-anchor="middle" x="252.6" y="-41.3" font-family="Times New Roman,serif" font-size="14.00">3</text>
</g>
<!-- 1&#45;&gt;3 -->
<g id="edge5" class="edge"><title>1&#45;&gt;3</title>
<path fill="none" stroke="black" d="M189.778,-59.4284C198.189,-59.2586 207.911,-58.6347 216.6,-57 219.658,-56.4247 222.811,-55.6375 225.915,-54.7392"/>
<polygon fill="black" stroke="black" points="227.063,-58.0463 235.482,-51.6142 224.889,-51.3923 227.063,-58.0463"/>
<text text-anchor="middle" x="212.1" y="-61.8" font-family="Times New Roman,serif" font-size="14.00">&#45;</text>
</g>
<!-- 2 -->
<g id="node4" class="node"><title>2</title>
<ellipse fill="none" stroke="black" cx="333.6" cy="-18" rx="18" ry="18"/>
<text text-anchor="middle" x="333.6" y="-14.3" font-family="Times New Roman,serif" font-size="14.00">2</text>
</g>
<!-- 2&#45;&gt;0 -->
<g id="edge2" class="edge"><title>2&#45;&gt;0</title>
<path fill="none" stroke="black" d="M315.535,-16.8377C279.089,-14.6963 191.065,-11.3427 118.6,-23 115.849,-23.4425 113,-24.0023 110.168,-24.6254"/>
<polygon fill="black" stroke="black" points="109.085,-21.2872 100.203,-27.0629 110.748,-28.0868 109.085,-21.2872"/>
<text text-anchor="middle" x="212.1" y="-18.8" font-family="Times New Roman,serif" font-size="14.00">+</text>
</g>
<!-- 2&#45;&gt;2 -->
<g id="edge3" class="edge"><title>2&#45;&gt;2</title>
<path fill="none" stroke="black" d="M326.569,-34.6641C325.006,-44.625 327.35,-54 333.6,-54 337.604,-54 340.005,-50.1525 340.802,-44.7682"/>
<polygon fill="black" stroke="black" points="344.3,-44.6033 340.631,-34.6641 337.301,-44.7219 344.3,-44.6033"/>
<text text-anchor="middle" x="333.6" y="-57.8" font-family="Times New Roman,serif" font-size="14.00">&#45;</text>
</g>
<!-- 3&#45;&gt;1 -->
<g id="edge7" class="edge"><title>3&#45;&gt;1</title>
<path fill="none" stroke="black" d="M235.161,-39.2511C226.831,-37.1271 216.6,-35.7309 207.6,-38 203.604,-39.0075 199.571,-40.5136 195.693,-42.2653"/>
<polygon fill="black" stroke="black" points="193.786,-39.3096 186.479,-46.9816 196.976,-45.5407 193.786,-39.3096"/>
<text text-anchor="middle" x="212.1" y="-41.8" font-family="Times New Roman,serif" font-size="14.00">&#45;</text>
</g>
<!-- 3&#45;&gt;2 -->
<g id="edge6" class="edge"><title>3&#45;&gt;2</title>
<path fill="none" stroke="black" d="M269.969,-39.4056C280.561,-35.7854 294.58,-30.9941 306.669,-26.8625"/>
<polygon fill="black" stroke="black" points="307.921,-30.1333 316.252,-23.5873 305.658,-23.5095 307.921,-30.1333"/>
<text text-anchor="middle" x="293.1" y="-35.8" font-family="Times New Roman,serif" font-size="14.00">+</text>
</g>
</g>
</svg>
