<?xml version="1.0" encoding="UTF-8" standalone="no"?>
<!DOCTYPE svg PUBLIC "-//W3C//DTD SVG 1.1//EN"
 "http://www.w3.org/Graphics/SVG/1.1/DTD/svg11.dtd">
<!-- Generated by graphviz version 2.38.0 (20140413.2041)
 -->
<!-- Title: dfa Pages: 1 -->
<svg width="633pt" height="278pt"
 viewBox="0.00 0.00 632.97 278.00" xmlns="http://www.w3.org/2000/svg" xmlns:xlink="http://www.w3.org/1999/xlink">
<g id="graph0" class="graph" transform="scale(1 1) rotate(0) translate(4 274)">
<title>dfa</title>
<polygon fill="white" stroke="none" points="-4,4 -4,-274 628.97,-274 628.97,4 -4,4"/>
<!-- __start -->
<!-- (0,0) -->
<g id="node2" class="node"><title>(0,0)</title>
<ellipse fill="none" stroke="black" cx="92.5475" cy="-96" rx="27.8951" ry="27.8951"/>
<text text-anchor="middle" x="92.5475" y="-92.3" font-family="Times New Roman,serif" font-size="14.00">(0,0)</text>
</g>
<!-- __start&#45;&gt;(0,0) -->
<g id="edge1" class="edge"><title>__start&#45;&gt;(0,0)</title>
<path fill="none" stroke="black" d="M3.79668,-96C8.92583,-96 32.9428,-96 54.5557,-96"/>
<polygon fill="black" stroke="black" points="54.5589,-99.5001 64.5589,-96 54.5588,-92.5001 54.5589,-99.5001"/>
<text text-anchor="middle" x="34.1" y="-99.8" font-family="Times New Roman,serif" font-size="14.00">start</text>
</g>
<!-- (1,1) -->
<g id="node3" class="node"><title>(1,1)</title>
<ellipse fill="none" stroke="black" cx="193.443" cy="-137" rx="27.9017" ry="27.9017"/>
<ellipse fill="none" stroke="black" cx="193.443" cy="-137" rx="31.8951" ry="31.8951"/>
<text text-anchor="middle" x="193.443" y="-133.3" font-family="Times New Roman,serif" font-size="14.00">(1,1)</text>
</g>
<!-- (0,0)&#45;&gt;(1,1) -->
<g id="edge7" class="edge"><title>(0,0)&#45;&gt;(1,1)</title>
<path fill="none" stroke="black" d="M118.759,-106.452C129.596,-110.945 142.497,-116.294 154.452,-121.25"/>
<polygon fill="black" stroke="black" points="153.202,-124.52 163.78,-125.117 155.883,-118.054 153.202,-124.52"/>
<text text-anchor="middle" x="140.995" y="-120.8" font-family="Times New Roman,serif" font-size="14.00">&#45;</text>
</g>
<!-- (1,0) -->
<g id="node6" class="node"><title>(1,0)</title>
<ellipse fill="none" stroke="black" cx="298.338" cy="-56" rx="27.8951" ry="27.8951"/>
<text text-anchor="middle" x="298.338" y="-52.3" font-family="Times New Roman,serif" font-size="14.00">(1,0)</text>
</g>
<!-- (0,0)&#45;&gt;(1,0) -->
<g id="edge6" class="edge"><title>(0,0)&#45;&gt;(1,0)</title>
<path fill="none" stroke="black" d="M119.962,-89.9418C132.521,-87.1194 147.76,-83.779 161.495,-81 195.049,-74.2109 233.425,-67.2192 260.81,-62.3621"/>
<polygon fill="black" stroke="black" points="261.495,-65.7954 270.734,-60.61 260.278,-58.902 261.495,-65.7954"/>
<text text-anchor="middle" x="193.443" y="-84.8" font-family="Times New Roman,serif" font-size="14.00">+</text>
</g>
<!-- (1,1)&#45;&gt;(1,0) -->
<g id="edge10" class="edge"><title>(1,1)&#45;&gt;(1,0)</title>
<path fill="none" stroke="black" d="M219.088,-117.598C233.636,-106.146 252.151,-91.5716 267.518,-79.4745"/>
<polygon fill="black" stroke="black" points="269.994,-81.9799 275.686,-73.0443 265.664,-76.4797 269.994,-81.9799"/>
<text text-anchor="middle" x="247.89" y="-100.8" font-family="Times New Roman,serif" font-size="14.00">+</text>
</g>
<!-- (3,1) -->
<g id="node7" class="node"><title>(3,1)</title>
<ellipse fill="none" stroke="black" cx="399.233" cy="-153" rx="27.8951" ry="27.8951"/>
<text text-anchor="middle" x="399.233" y="-149.3" font-family="Times New Roman,serif" font-size="14.00">(3,1)</text>
</g>
<!-- (1,1)&#45;&gt;(3,1) -->
<g id="edge11" class="edge"><title>(1,1)&#45;&gt;(3,1)</title>
<path fill="none" stroke="black" d="M225.394,-139.43C261.729,-142.283 321.956,-147.011 360.861,-150.066"/>
<polygon fill="black" stroke="black" points="360.988,-153.587 371.232,-150.88 361.536,-146.608 360.988,-153.587"/>
<text text-anchor="middle" x="298.338" y="-151.8" font-family="Times New Roman,serif" font-size="14.00">&#45;</text>
</g>
<!-- (2,0) -->
<g id="node4" class="node"><title>(2,0)</title>
<ellipse fill="none" stroke="black" cx="500.128" cy="-153" rx="27.8951" ry="27.8951"/>
<text text-anchor="middle" x="500.128" y="-149.3" font-family="Times New Roman,serif" font-size="14.00">(2,0)</text>
</g>
<!-- (2,0)&#45;&gt;(0,0) -->
<g id="edge2" class="edge"><title>(2,0)&#45;&gt;(0,0)</title>
<path fill="none" stroke="black" d="M488.007,-178.476C472.891,-208.687 442.78,-255 400.233,-255 192.443,-255 192.443,-255 192.443,-255 135.505,-255 110.186,-180.573 99.872,-133.561"/>
<polygon fill="black" stroke="black" points="103.285,-132.783 97.8375,-123.696 96.4295,-134.197 103.285,-132.783"/>
<text text-anchor="middle" x="298.338" y="-258.8" font-family="Times New Roman,serif" font-size="14.00">+</text>
</g>
<!-- (2,1) -->
<g id="node5" class="node"><title>(2,1)</title>
<ellipse fill="none" stroke="black" cx="597.023" cy="-46" rx="27.8951" ry="27.8951"/>
<text text-anchor="middle" x="597.023" y="-42.3" font-family="Times New Roman,serif" font-size="14.00">(2,1)</text>
</g>
<!-- (2,0)&#45;&gt;(2,1) -->
<g id="edge3" class="edge"><title>(2,0)&#45;&gt;(2,1)</title>
<path fill="none" stroke="black" d="M519.424,-132.369C534.128,-115.79 554.929,-92.3361 571.144,-74.0518"/>
<polygon fill="black" stroke="black" points="573.766,-76.3713 577.782,-66.5673 568.528,-71.7266 573.766,-76.3713"/>
<text text-anchor="middle" x="548.575" y="-103.8" font-family="Times New Roman,serif" font-size="14.00">&#45;</text>
</g>
<!-- (2,1)&#45;&gt;(0,0) -->
<g id="edge4" class="edge"><title>(2,1)&#45;&gt;(0,0)</title>
<path fill="none" stroke="black" d="M574.813,-28.8713C556.45,-15.7928 528.59,-0 501.128,-0 192.443,-0 192.443,-0 192.443,-0 155.629,-0 127.345,-34.6724 110.635,-62.3427"/>
<polygon fill="black" stroke="black" points="107.59,-60.6175 105.62,-71.0277 113.652,-64.1179 107.59,-60.6175"/>
<text text-anchor="middle" x="348.785" y="-3.8" font-family="Times New Roman,serif" font-size="14.00">+</text>
</g>
<!-- (2,1)&#45;&gt;(2,1) -->
<g id="edge5" class="edge"><title>(2,1)&#45;&gt;(2,1)</title>
<path fill="none" stroke="black" d="M588.058,-72.9013C587.659,-83.3024 590.648,-91.9475 597.023,-91.9475 601.107,-91.9475 603.801,-88.3996 605.105,-83.1149"/>
<polygon fill="black" stroke="black" points="608.614,-83.1656 605.988,-72.9013 601.64,-82.5628 608.614,-83.1656"/>
<text text-anchor="middle" x="597.023" y="-95.7475" font-family="Times New Roman,serif" font-size="14.00">&#45;</text>
</g>
<!-- (1,0)&#45;&gt;(1,0) -->
<g id="edge8" class="edge"><title>(1,0)&#45;&gt;(1,0)</title>
<path fill="none" stroke="black" d="M289.02,-82.4414C288.493,-93.0463 291.599,-101.948 298.338,-101.948 302.76,-101.948 305.617,-98.1141 306.911,-92.4814"/>
<polygon fill="black" stroke="black" points="310.406,-92.6729 307.655,-82.4414 303.425,-92.155 310.406,-92.6729"/>
<text text-anchor="middle" x="298.338" y="-105.748" font-family="Times New Roman,serif" font-size="14.00">+</text>
</g>
<!-- (1,0)&#45;&gt;(3,1) -->
<g id="edge9" class="edge"><title>(1,0)&#45;&gt;(3,1)</title>
<path fill="none" stroke="black" d="M318.876,-75.1641C333.911,-89.911 354.855,-110.454 371.452,-126.733"/>
<polygon fill="black" stroke="black" points="369.145,-129.372 378.735,-133.876 374.046,-124.375 369.145,-129.372"/>
<text text-anchor="middle" x="348.785" y="-111.8" font-family="Times New Roman,serif" font-size="14.00">&#45;</text>
</g>
<!-- (3,1)&#45;&gt;(1,1) -->
<g id="edge13" class="edge"><title>(3,1)&#45;&gt;(1,1)</title>
<path fill="none" stroke="black" d="M372.1,-160.366C346.135,-166.63 305.265,-173.638 270.39,-167 257.423,-164.532 243.842,-159.89 231.808,-154.983"/>
<polygon fill="black" stroke="black" points="233.103,-151.73 222.531,-151.027 230.357,-158.169 233.103,-151.73"/>
<text text-anchor="middle" x="298.338" y="-173.8" font-family="Times New Roman,serif" font-size="14.00">&#45;</text>
</g>
<!-- (3,1)&#45;&gt;(2,0) -->
<g id="edge12" class="edge"><title>(3,1)&#45;&gt;(2,0)</title>
<path fill="none" stroke="black" d="M427.256,-153C437.94,-153 450.395,-153 461.908,-153"/>
<polygon fill="black" stroke="black" points="462.137,-156.5 472.137,-153 462.137,-149.5 462.137,-156.5"/>
<text text-anchor="middle" x="449.68" y="-156.8" font-family="Times New Roman,serif" font-size="14.00">+</text>
</g>
</g>
</svg>
