<?xml version="1.0" encoding="UTF-8" standalone="no"?>
<!DOCTYPE svg PUBLIC "-//W3C//DTD SVG 1.1//EN"
 "http://www.w3.org/Graphics/SVG/1.1/DTD/svg11.dtd">
<!-- Generated by graphviz version 2.38.0 (20140413.2041)
 -->
<!-- Title: dfa Pages: 1 -->
<svg width="271pt" height="52pt"
 viewBox="0.00 0.00 270.60 52.00" xmlns="http://www.w3.org/2000/svg" xmlns:xlink="http://www.w3.org/1999/xlink">
<g id="graph0" class="graph" transform="scale(1 1) rotate(0) translate(4 48)">
<title>dfa</title>
<polygon fill="white" stroke="none" points="-4,4 -4,-48 266.6,-48 266.6,4 -4,4"/>
<!-- __start -->
<!-- 0 -->
<g id="node2" class="node"><title>0</title>
<ellipse fill="none" stroke="black" cx="82.6" cy="-22" rx="18" ry="18"/>
<text text-anchor="middle" x="82.6" y="-18.3" font-family="Times New Roman,serif" font-size="14.00">0</text>
</g>
<!-- __start&#45;&gt;0 -->
<g id="edge1" class="edge"><title>__start&#45;&gt;0</title>
<path fill="none" stroke="black" d="M3.68496,-22C8.69573,-22 34.008,-22 54.4423,-22"/>
<polygon fill="black" stroke="black" points="54.5501,-25.5001 64.5501,-22 54.5501,-18.5001 54.5501,-25.5001"/>
<text text-anchor="middle" x="34.1" y="-25.8" font-family="Times New Roman,serif" font-size="14.00">start</text>
</g>
<!-- 2 -->
<g id="node4" class="node"><title>2</title>
<ellipse fill="none" stroke="black" cx="159.6" cy="-22" rx="18" ry="18"/>
<text text-anchor="middle" x="159.6" y="-18.3" font-family="Times New Roman,serif" font-size="14.00">2</text>
</g>
<!-- 0&#45;&gt;2 -->
<g id="edge2" class="edge"><title>0&#45;&gt;2</title>
<path fill="none" stroke="black" d="M100.619,-22C109.664,-22 121.003,-22 131.249,-22"/>
<polygon fill="black" stroke="black" points="131.389,-25.5001 141.389,-22 131.389,-18.5001 131.389,-25.5001"/>
<text text-anchor="middle" x="121.1" y="-25.8" font-family="Times New Roman,serif" font-size="14.00">r</text>
</g>
<!-- 1 -->
<g id="node3" class="node"><title>1</title>
<ellipse fill="none" stroke="black" cx="240.6" cy="-22" rx="18" ry="18"/>
<ellipse fill="none" stroke="black" cx="240.6" cy="-22" rx="22" ry="22"/>
<text text-anchor="middle" x="240.6" y="-18.3" font-family="Times New Roman,serif" font-size="14.00">1</text>
</g>
<!-- 1&#45;&gt;2 -->
<g id="edge4" class="edge"><title>1&#45;&gt;2</title>
<path fill="none" stroke="black" d="M222.491,-8.79275C214.525,-4.17787 204.794,-0.665449 195.6,-3 191.642,-4.00504 187.647,-5.55766 183.844,-7.35171"/>
<polygon fill="black" stroke="black" points="182.075,-4.32845 174.911,-12.1343 185.379,-10.4996 182.075,-4.32845"/>
<text text-anchor="middle" x="198.1" y="-6.8" font-family="Times New Roman,serif" font-size="14.00">r</text>
</g>
<!-- 2&#45;&gt;1 -->
<g id="edge3" class="edge"><title>2&#45;&gt;1</title>
<path fill="none" stroke="black" d="M177.742,-22C186.727,-22 198.014,-22 208.478,-22"/>
<polygon fill="black" stroke="black" points="208.553,-25.5001 218.553,-22 208.553,-18.5001 208.553,-25.5001"/>
<text text-anchor="middle" x="198.1" y="-25.8" font-family="Times New Roman,serif" font-size="14.00">r</text>
</g>
</g>
</svg>
