<?xml version="1.0" encoding="UTF-8" standalone="no"?>
<!DOCTYPE svg PUBLIC "-//W3C//DTD SVG 1.1//EN"
 "http://www.w3.org/Graphics/SVG/1.1/DTD/svg11.dtd">
<!-- Generated by graphviz version 2.38.0 (20140413.2041)
 -->
<!-- Title: enfa Pages: 1 -->
<svg width="372pt" height="86pt"
 viewBox="0.00 0.00 371.60 86.00" xmlns="http://www.w3.org/2000/svg" xmlns:xlink="http://www.w3.org/1999/xlink">
<g id="graph0" class="graph" transform="scale(1 1) rotate(0) translate(4 82)">
<title>enfa</title>
<polygon fill="white" stroke="none" points="-4,4 -4,-82 367.6,-82 367.6,4 -4,4"/>
<!-- __start -->
<!-- 0 -->
<g id="node2" class="node"><title>0</title>
<ellipse fill="none" stroke="black" cx="91.6" cy="-45" rx="27" ry="18"/>
<text text-anchor="middle" x="91.6" y="-41.3" font-family="Times New Roman,serif" font-size="14.00">0</text>
</g>
<!-- __start&#45;&gt;0 -->
<g id="edge1" class="edge"><title>__start&#45;&gt;0</title>
<path fill="none" stroke="black" d="M3.78604,-45C8.86985,-45 32.7092,-45 54.1222,-45"/>
<polygon fill="black" stroke="black" points="54.3463,-48.5001 64.3463,-45 54.3463,-41.5001 54.3463,-48.5001"/>
<text text-anchor="middle" x="34.1" y="-48.8" font-family="Times New Roman,serif" font-size="14.00">start</text>
</g>
<!-- 1 -->
<g id="node3" class="node"><title>1</title>
<ellipse fill="none" stroke="black" cx="341.6" cy="-56" rx="18" ry="18"/>
<ellipse fill="none" stroke="black" cx="341.6" cy="-56" rx="22" ry="22"/>
<text text-anchor="middle" x="341.6" y="-52.3" font-family="Times New Roman,serif" font-size="14.00">1</text>
</g>
<!-- 0&#45;&gt;1 -->
<g id="edge6" class="edge"><title>0&#45;&gt;1</title>
<path fill="none" stroke="black" d="M118.389,-47.7263C156.751,-51.6266 231.147,-58.5939 294.6,-61 299.462,-61.1844 304.597,-61.0016 309.606,-60.6152"/>
<polygon fill="black" stroke="black" points="309.989,-64.0944 319.578,-59.5883 309.272,-57.1312 309.989,-64.0944"/>
<text text-anchor="middle" x="219.1" y="-59.8" font-family="Times New Roman,serif" font-size="14.00">x</text>
</g>
<!-- 2 -->
<g id="node4" class="node"><title>2</title>
<ellipse fill="none" stroke="black" cx="179.6" cy="-18" rx="18" ry="18"/>
<text text-anchor="middle" x="179.6" y="-14.3" font-family="Times New Roman,serif" font-size="14.00">2</text>
</g>
<!-- 0&#45;&gt;2 -->
<g id="edge7" class="edge"><title>0&#45;&gt;2</title>
<path fill="none" stroke="black" d="M116.556,-37.479C127.667,-33.9906 140.904,-29.8347 152.292,-26.2594"/>
<polygon fill="black" stroke="black" points="153.624,-29.5097 162.117,-23.1749 151.528,-22.8311 153.624,-29.5097"/>
<text text-anchor="middle" x="140.1" y="-33.8" font-family="Times New Roman,serif" font-size="14.00">x</text>
</g>
<!-- 2&#45;&gt;0 -->
<g id="edge3" class="edge"><title>2&#45;&gt;0</title>
<path fill="none" stroke="black" d="M163.186,-10.0742C155.133,-6.99213 145.191,-4.86784 136.6,-8 128.108,-11.096 120.118,-16.6319 113.337,-22.494"/>
<polygon fill="black" stroke="black" points="110.875,-20.0049 105.975,-29.3988 115.663,-25.1106 110.875,-20.0049"/>
<text text-anchor="middle" x="140.1" y="-11.8" font-family="Times New Roman,serif" font-size="14.00">t</text>
</g>
<!-- 3 -->
<g id="node5" class="node"><title>3</title>
<ellipse fill="none" stroke="black" cx="258.6" cy="-29" rx="18" ry="18"/>
<text text-anchor="middle" x="258.6" y="-25.3" font-family="Times New Roman,serif" font-size="14.00">3</text>
</g>
<!-- 2&#45;&gt;3 -->
<g id="edge2" class="edge"><title>2&#45;&gt;3</title>
<path fill="none" stroke="black" d="M197.689,-20.4413C207.359,-21.8227 219.671,-23.5815 230.615,-25.1451"/>
<polygon fill="black" stroke="black" points="230.164,-28.6161 240.559,-26.5656 231.154,-21.6864 230.164,-28.6161"/>
<text text-anchor="middle" x="219.1" y="-26.8" font-family="Times New Roman,serif" font-size="14.00">t</text>
</g>
<!-- 3&#45;&gt;1 -->
<g id="edge4" class="edge"><title>3&#45;&gt;1</title>
<path fill="none" stroke="black" d="M275.992,-34.4639C286.032,-37.8105 299.179,-42.1932 310.992,-46.1306"/>
<polygon fill="black" stroke="black" points="309.909,-49.459 320.503,-49.3009 312.123,-42.8182 309.909,-49.459"/>
<text text-anchor="middle" x="298.1" y="-45.8" font-family="Times New Roman,serif" font-size="14.00">x</text>
</g>
<!-- 3&#45;&gt;2 -->
<g id="edge5" class="edge"><title>3&#45;&gt;2</title>
<path fill="none" stroke="black" d="M245.047,-17.1191C238.808,-12.0243 230.849,-6.64347 222.6,-4 216.692,-2.10664 210.334,-2.79913 204.397,-4.63503"/>
<polygon fill="black" stroke="black" points="202.854,-1.48587 194.957,-8.54953 205.535,-7.95195 202.854,-1.48587"/>
<text text-anchor="middle" x="219.1" y="-7.8" font-family="Times New Roman,serif" font-size="14.00">x</text>
</g>
</g>
</svg>
