<?xml version="1.0" encoding="UTF-8" standalone="no"?>
<!DOCTYPE svg PUBLIC "-//W3C//DTD SVG 1.1//EN"
 "http://www.w3.org/Graphics/SVG/1.1/DTD/svg11.dtd">
<!-- Generated by graphviz version 2.38.0 (20140413.2041)
 -->
<!-- Title: enfa Pages: 1 -->
<svg width="354pt" height="86pt"
 viewBox="0.00 0.00 353.60 86.00" xmlns="http://www.w3.org/2000/svg" xmlns:xlink="http://www.w3.org/1999/xlink">
<g id="graph0" class="graph" transform="scale(1 1) rotate(0) translate(4 82)">
<title>enfa</title>
<polygon fill="white" stroke="none" points="-4,4 -4,-82 349.6,-82 349.6,4 -4,4"/>
<!-- __start -->
<!-- 0 -->
<g id="node2" class="node"><title>0</title>
<ellipse fill="none" stroke="black" cx="82.6" cy="-45" rx="18" ry="18"/>
<text text-anchor="middle" x="82.6" y="-41.3" font-family="Times New Roman,serif" font-size="14.00">0</text>
</g>
<!-- __start&#45;&gt;0 -->
<g id="edge1" class="edge"><title>__start&#45;&gt;0</title>
<path fill="none" stroke="black" d="M3.68496,-45C8.69573,-45 34.008,-45 54.4423,-45"/>
<polygon fill="black" stroke="black" points="54.5501,-48.5001 64.5501,-45 54.5501,-41.5001 54.5501,-48.5001"/>
<text text-anchor="middle" x="34.1" y="-48.8" font-family="Times New Roman,serif" font-size="14.00">start</text>
</g>
<!-- 1 -->
<g id="node3" class="node"><title>1</title>
<ellipse fill="none" stroke="black" cx="323.6" cy="-56" rx="18" ry="18"/>
<ellipse fill="none" stroke="black" cx="323.6" cy="-56" rx="22" ry="22"/>
<text text-anchor="middle" x="323.6" y="-52.3" font-family="Times New Roman,serif" font-size="14.00">1</text>
</g>
<!-- 0&#45;&gt;1 -->
<g id="edge6" class="edge"><title>0&#45;&gt;1</title>
<path fill="none" stroke="black" d="M100.637,-48.2954C106.33,-49.2964 112.722,-50.3121 118.6,-51 188.486,-59.1782 206.272,-58.7767 276.6,-61 281.463,-61.1537 286.599,-60.9549 291.607,-60.5617"/>
<polygon fill="black" stroke="black" points="291.992,-64.0407 301.58,-59.5323 291.273,-57.0777 291.992,-64.0407"/>
<text text-anchor="middle" x="201.1" y="-61.8" font-family="Times New Roman,serif" font-size="14.00">x</text>
</g>
<!-- 2 -->
<g id="node4" class="node"><title>2</title>
<ellipse fill="none" stroke="black" cx="161.6" cy="-18" rx="18" ry="18"/>
<text text-anchor="middle" x="161.6" y="-14.3" font-family="Times New Roman,serif" font-size="14.00">2</text>
</g>
<!-- 0&#45;&gt;2 -->
<g id="edge7" class="edge"><title>0&#45;&gt;2</title>
<path fill="none" stroke="black" d="M99.9297,-39.274C110.036,-35.7301 123.235,-31.102 134.74,-27.0678"/>
<polygon fill="black" stroke="black" points="136.015,-30.3296 144.294,-23.7178 133.699,-23.7239 136.015,-30.3296"/>
<text text-anchor="middle" x="122.1" y="-35.8" font-family="Times New Roman,serif" font-size="14.00">x</text>
</g>
<!-- 2&#45;&gt;0 -->
<g id="edge3" class="edge"><title>2&#45;&gt;0</title>
<path fill="none" stroke="black" d="M145.425,-9.83393C137.257,-6.55562 127.137,-4.3243 118.6,-8 111.342,-11.1253 104.885,-16.5782 99.5557,-22.3525"/>
<polygon fill="black" stroke="black" points="96.7063,-20.3055 93.017,-30.2373 102.095,-24.7739 96.7063,-20.3055"/>
<text text-anchor="middle" x="122.1" y="-11.8" font-family="Times New Roman,serif" font-size="14.00">t</text>
</g>
<!-- 3 -->
<g id="node5" class="node"><title>3</title>
<ellipse fill="none" stroke="black" cx="240.6" cy="-29" rx="18" ry="18"/>
<text text-anchor="middle" x="240.6" y="-25.3" font-family="Times New Roman,serif" font-size="14.00">3</text>
</g>
<!-- 2&#45;&gt;3 -->
<g id="edge2" class="edge"><title>2&#45;&gt;3</title>
<path fill="none" stroke="black" d="M179.689,-20.4413C189.359,-21.8227 201.671,-23.5815 212.615,-25.1451"/>
<polygon fill="black" stroke="black" points="212.164,-28.6161 222.559,-26.5656 213.154,-21.6864 212.164,-28.6161"/>
<text text-anchor="middle" x="201.1" y="-26.8" font-family="Times New Roman,serif" font-size="14.00">t</text>
</g>
<!-- 3&#45;&gt;1 -->
<g id="edge4" class="edge"><title>3&#45;&gt;1</title>
<path fill="none" stroke="black" d="M257.992,-34.4639C268.032,-37.8105 281.179,-42.1932 292.992,-46.1306"/>
<polygon fill="black" stroke="black" points="291.909,-49.459 302.503,-49.3009 294.123,-42.8182 291.909,-49.459"/>
<text text-anchor="middle" x="280.1" y="-45.8" font-family="Times New Roman,serif" font-size="14.00">x</text>
</g>
<!-- 3&#45;&gt;2 -->
<g id="edge5" class="edge"><title>3&#45;&gt;2</title>
<path fill="none" stroke="black" d="M227.047,-17.1191C220.808,-12.0243 212.849,-6.64347 204.6,-4 198.692,-2.10664 192.334,-2.79913 186.397,-4.63503"/>
<polygon fill="black" stroke="black" points="184.854,-1.48587 176.957,-8.54953 187.535,-7.95195 184.854,-1.48587"/>
<text text-anchor="middle" x="201.1" y="-7.8" font-family="Times New Roman,serif" font-size="14.00">x</text>
</g>
</g>
</svg>
