<?xml version="1.0" encoding="UTF-8" standalone="no"?>
<!DOCTYPE svg PUBLIC "-//W3C//DTD SVG 1.1//EN"
 "http://www.w3.org/Graphics/SVG/1.1/DTD/svg11.dtd">
<!-- Generated by graphviz version 2.38.0 (20140413.2041)
 -->
<!-- Title: dfa Pages: 1 -->
<svg width="293pt" height="110pt"
 viewBox="0.00 0.00 292.60 110.00" xmlns="http://www.w3.org/2000/svg" xmlns:xlink="http://www.w3.org/1999/xlink">
<g id="graph0" class="graph" transform="scale(1 1) rotate(0) translate(4 106)">
<title>dfa</title>
<polygon fill="white" stroke="none" points="-4,4 -4,-106 288.6,-106 288.6,4 -4,4"/>
<!-- __start -->
<!-- 0 -->
<g id="node2" class="node"><title>0</title>
<ellipse fill="none" stroke="black" cx="91.6" cy="-29" rx="27" ry="18"/>
<text text-anchor="middle" x="91.6" y="-25.3" font-family="Times New Roman,serif" font-size="14.00">0</text>
</g>
<!-- __start&#45;&gt;0 -->
<g id="edge1" class="edge"><title>__start&#45;&gt;0</title>
<path fill="none" stroke="black" d="M3.78604,-29C8.86985,-29 32.7092,-29 54.1222,-29"/>
<polygon fill="black" stroke="black" points="54.3463,-32.5001 64.3463,-29 54.3463,-25.5001 54.3463,-32.5001"/>
<text text-anchor="middle" x="34.1" y="-32.8" font-family="Times New Roman,serif" font-size="14.00">start</text>
</g>
<!-- 1 -->
<g id="node3" class="node"><title>1</title>
<ellipse fill="none" stroke="black" cx="183.6" cy="-51" rx="18" ry="18"/>
<ellipse fill="none" stroke="black" cx="183.6" cy="-51" rx="22" ry="22"/>
<text text-anchor="middle" x="183.6" y="-47.3" font-family="Times New Roman,serif" font-size="14.00">1</text>
</g>
<!-- 0&#45;&gt;1 -->
<g id="edge3" class="edge"><title>0&#45;&gt;1</title>
<path fill="none" stroke="black" d="M115.144,-38.2712C121.945,-40.7744 129.493,-43.2665 136.6,-45 141.339,-46.1558 146.41,-47.1005 151.391,-47.8694"/>
<polygon fill="black" stroke="black" points="150.975,-51.3449 161.353,-49.2118 151.91,-44.4076 150.975,-51.3449"/>
<text text-anchor="middle" x="140.1" y="-49.8" font-family="Times New Roman,serif" font-size="14.00">x</text>
</g>
<!-- 2 -->
<g id="node4" class="node"><title>2</title>
<ellipse fill="none" stroke="black" cx="266.6" cy="-18" rx="18" ry="18"/>
<text text-anchor="middle" x="266.6" y="-14.3" font-family="Times New Roman,serif" font-size="14.00">2</text>
</g>
<!-- 0&#45;&gt;2 -->
<g id="edge2" class="edge"><title>0&#45;&gt;2</title>
<path fill="none" stroke="black" d="M114.476,-19.2774C127.803,-13.8928 145.342,-7.74671 161.6,-5 187.846,-0.565733 218.056,-5.44405 239.129,-10.4399"/>
<polygon fill="black" stroke="black" points="238.411,-13.8685 248.965,-12.9378 240.134,-7.08391 238.411,-13.8685"/>
<text text-anchor="middle" x="183.6" y="-8.8" font-family="Times New Roman,serif" font-size="14.00">t</text>
</g>
<!-- 1&#45;&gt;0 -->
<g id="edge6" class="edge"><title>1&#45;&gt;0</title>
<path fill="none" stroke="black" d="M166.169,-37.5129C159.568,-32.9188 151.627,-28.3518 143.6,-26 138.569,-24.5259 133.142,-23.8924 127.771,-23.79"/>
<polygon fill="black" stroke="black" points="127.491,-20.2979 117.628,-24.1662 127.751,-27.2931 127.491,-20.2979"/>
<text text-anchor="middle" x="140.1" y="-29.8" font-family="Times New Roman,serif" font-size="14.00">t</text>
</g>
<!-- 1&#45;&gt;2 -->
<g id="edge7" class="edge"><title>1&#45;&gt;2</title>
<path fill="none" stroke="black" d="M204.208,-43.0116C214.999,-38.6151 228.516,-33.1083 240.117,-28.3819"/>
<polygon fill="black" stroke="black" points="241.762,-31.491 249.703,-24.4767 239.121,-25.0084 241.762,-31.491"/>
<text text-anchor="middle" x="227.1" y="-37.8" font-family="Times New Roman,serif" font-size="14.00">x</text>
</g>
<!-- 2&#45;&gt;2 -->
<g id="edge4" class="edge"><title>2&#45;&gt;2</title>
<path fill="none" stroke="black" d="M263.184,-35.7817C262.604,-45.3149 263.743,-54 266.6,-54 268.341,-54 269.444,-50.7749 269.909,-46.0981"/>
<polygon fill="black" stroke="black" points="273.412,-45.8174 270.016,-35.7817 266.412,-45.745 273.412,-45.8174"/>
<text text-anchor="middle" x="266.6" y="-57.8" font-family="Times New Roman,serif" font-size="14.00">t</text>
</g>
<!-- 2&#45;&gt;2 -->
<g id="edge5" class="edge"><title>2&#45;&gt;2</title>
<path fill="none" stroke="black" d="M261.041,-35.1418C257.77,-52.585 259.623,-72 266.6,-72 272.214,-72 274.51,-59.4283 273.489,-45.4287"/>
<polygon fill="black" stroke="black" points="276.913,-44.6105 272.159,-35.1418 269.97,-45.508 276.913,-44.6105"/>
<text text-anchor="middle" x="266.6" y="-75.8" font-family="Times New Roman,serif" font-size="14.00">x</text>
</g>
</g>
</svg>
