<?xml version="1.0" encoding="UTF-8" standalone="no"?>
<!DOCTYPE svg PUBLIC "-//W3C//DTD SVG 1.1//EN"
 "http://www.w3.org/Graphics/SVG/1.1/DTD/svg11.dtd">
<!-- Generated by graphviz version 2.38.0 (20140413.2041)
 -->
<!-- Title: dfa Pages: 1 -->
<svg width="275pt" height="110pt"
 viewBox="0.00 0.00 274.60 110.00" xmlns="http://www.w3.org/2000/svg" xmlns:xlink="http://www.w3.org/1999/xlink">
<g id="graph0" class="graph" transform="scale(1 1) rotate(0) translate(4 106)">
<title>dfa</title>
<polygon fill="white" stroke="none" points="-4,4 -4,-106 270.6,-106 270.6,4 -4,4"/>
<!-- __start -->
<!-- 0 -->
<g id="node2" class="node"><title>0</title>
<ellipse fill="none" stroke="black" cx="82.6" cy="-29" rx="18" ry="18"/>
<text text-anchor="middle" x="82.6" y="-25.3" font-family="Times New Roman,serif" font-size="14.00">0</text>
</g>
<!-- __start&#45;&gt;0 -->
<g id="edge1" class="edge"><title>__start&#45;&gt;0</title>
<path fill="none" stroke="black" d="M3.68496,-29C8.69573,-29 34.008,-29 54.4423,-29"/>
<polygon fill="black" stroke="black" points="54.5501,-32.5001 64.5501,-29 54.5501,-25.5001 54.5501,-32.5001"/>
<text text-anchor="middle" x="34.1" y="-32.8" font-family="Times New Roman,serif" font-size="14.00">start</text>
</g>
<!-- 1 -->
<g id="node3" class="node"><title>1</title>
<ellipse fill="none" stroke="black" cx="165.6" cy="-51" rx="18" ry="18"/>
<ellipse fill="none" stroke="black" cx="165.6" cy="-51" rx="22" ry="22"/>
<text text-anchor="middle" x="165.6" y="-47.3" font-family="Times New Roman,serif" font-size="14.00">1</text>
</g>
<!-- 0&#45;&gt;1 -->
<g id="edge3" class="edge"><title>0&#45;&gt;1</title>
<path fill="none" stroke="black" d="M98.9,-37.1981C104.892,-40.0851 111.921,-43.0848 118.6,-45 123.289,-46.3444 128.333,-47.3885 133.303,-48.1991"/>
<polygon fill="black" stroke="black" points="132.88,-51.6738 143.261,-49.5566 133.826,-44.7379 132.88,-51.6738"/>
<text text-anchor="middle" x="122.1" y="-49.8" font-family="Times New Roman,serif" font-size="14.00">x</text>
</g>
<!-- 2 -->
<g id="node4" class="node"><title>2</title>
<ellipse fill="none" stroke="black" cx="248.6" cy="-18" rx="18" ry="18"/>
<text text-anchor="middle" x="248.6" y="-14.3" font-family="Times New Roman,serif" font-size="14.00">2</text>
</g>
<!-- 0&#45;&gt;2 -->
<g id="edge2" class="edge"><title>0&#45;&gt;2</title>
<path fill="none" stroke="black" d="M98.8949,-20.9926C110.735,-15.267 127.736,-8.05513 143.6,-5 169.891,0.0631285 200.317,-4.98865 221.439,-10.2005"/>
<polygon fill="black" stroke="black" points="220.72,-13.6308 231.283,-12.8079 222.512,-6.86415 220.72,-13.6308"/>
<text text-anchor="middle" x="165.6" y="-8.8" font-family="Times New Roman,serif" font-size="14.00">t</text>
</g>
<!-- 1&#45;&gt;0 -->
<g id="edge6" class="edge"><title>1&#45;&gt;0</title>
<path fill="none" stroke="black" d="M148.169,-37.5129C141.568,-32.9188 133.627,-28.3518 125.6,-26 120.768,-24.5843 115.496,-24.1475 110.371,-24.2654"/>
<polygon fill="black" stroke="black" points="109.9,-20.793 100.243,-25.1504 110.51,-27.7665 109.9,-20.793"/>
<text text-anchor="middle" x="122.1" y="-29.8" font-family="Times New Roman,serif" font-size="14.00">t</text>
</g>
<!-- 1&#45;&gt;2 -->
<g id="edge7" class="edge"><title>1&#45;&gt;2</title>
<path fill="none" stroke="black" d="M186.208,-43.0116C196.999,-38.6151 210.516,-33.1083 222.117,-28.3819"/>
<polygon fill="black" stroke="black" points="223.762,-31.491 231.703,-24.4767 221.121,-25.0084 223.762,-31.491"/>
<text text-anchor="middle" x="209.1" y="-37.8" font-family="Times New Roman,serif" font-size="14.00">x</text>
</g>
<!-- 2&#45;&gt;2 -->
<g id="edge4" class="edge"><title>2&#45;&gt;2</title>
<path fill="none" stroke="black" d="M245.184,-35.7817C244.604,-45.3149 245.743,-54 248.6,-54 250.341,-54 251.444,-50.7749 251.909,-46.0981"/>
<polygon fill="black" stroke="black" points="255.412,-45.8174 252.016,-35.7817 248.412,-45.745 255.412,-45.8174"/>
<text text-anchor="middle" x="248.6" y="-57.8" font-family="Times New Roman,serif" font-size="14.00">t</text>
</g>
<!-- 2&#45;&gt;2 -->
<g id="edge5" class="edge"><title>2&#45;&gt;2</title>
<path fill="none" stroke="black" d="M243.041,-35.1418C239.77,-52.585 241.623,-72 248.6,-72 254.214,-72 256.51,-59.4283 255.489,-45.4287"/>
<polygon fill="black" stroke="black" points="258.913,-44.6105 254.159,-35.1418 251.97,-45.508 258.913,-44.6105"/>
<text text-anchor="middle" x="248.6" y="-75.8" font-family="Times New Roman,serif" font-size="14.00">x</text>
</g>
</g>
</svg>
