<?xml version="1.0" encoding="UTF-8" standalone="no"?>
<!DOCTYPE svg PUBLIC "-//W3C//DTD SVG 1.1//EN"
 "http://www.w3.org/Graphics/SVG/1.1/DTD/svg11.dtd">
<!-- Generated by graphviz version 2.38.0 (20140413.2041)
 -->
<!-- Title: dfa Pages: 1 -->
<svg width="416pt" height="151pt"
 viewBox="0.00 0.00 415.88 150.55" xmlns="http://www.w3.org/2000/svg" xmlns:xlink="http://www.w3.org/1999/xlink">
<g id="graph0" class="graph" transform="scale(1 1) rotate(0) translate(4 146.546)">
<title>dfa</title>
<polygon fill="white" stroke="none" points="-4,4 -4,-146.546 411.881,-146.546 411.881,4 -4,4"/>
<!-- __start -->
<!-- {0} -->
<g id="node2" class="node"><title>{0}</title>
<ellipse fill="none" stroke="black" cx="88.6479" cy="-24.0479" rx="24.0958" ry="24.0958"/>
<text text-anchor="middle" x="88.6479" y="-20.3479" font-family="Times New Roman,serif" font-size="14.00">{0}</text>
</g>
<!-- __start&#45;&gt;{0} -->
<g id="edge1" class="edge"><title>__start&#45;&gt;{0}</title>
<path fill="none" stroke="black" d="M3.75288,-24.0479C8.82222,-24.0479 33.1893,-24.0479 54.3658,-24.0479"/>
<polygon fill="black" stroke="black" points="54.4068,-27.548 64.4067,-24.0479 54.4067,-20.548 54.4068,-27.548"/>
<text text-anchor="middle" x="34.1" y="-27.8479" font-family="Times New Roman,serif" font-size="14.00">start</text>
</g>
<!-- {1,2} -->
<g id="node3" class="node"><title>{1,2}</title>
<ellipse fill="none" stroke="black" cx="190.243" cy="-72.0479" rx="30.5892" ry="30.5892"/>
<ellipse fill="none" stroke="black" cx="190.243" cy="-72.0479" rx="34.5946" ry="34.5946"/>
<text text-anchor="middle" x="190.243" y="-68.3479" font-family="Times New Roman,serif" font-size="14.00">{1,2}</text>
</g>
<!-- {0}&#45;&gt;{1,2} -->
<g id="edge3" class="edge"><title>{0}&#45;&gt;{1,2}</title>
<path fill="none" stroke="black" d="M110.769,-34.2274C121.981,-39.6307 136.134,-46.4517 149.323,-52.8085"/>
<polygon fill="black" stroke="black" points="148.173,-56.1395 158.701,-57.3283 151.213,-49.8337 148.173,-56.1395"/>
<text text-anchor="middle" x="134.196" y="-50.8479" font-family="Times New Roman,serif" font-size="14.00">x</text>
</g>
<!-- {} -->
<g id="node4" class="node"><title>{}</title>
<ellipse fill="none" stroke="black" cx="388.383" cy="-57.0479" rx="19.4965" ry="19.4965"/>
<text text-anchor="middle" x="388.383" y="-53.3479" font-family="Times New Roman,serif" font-size="14.00">{}</text>
</g>
<!-- {0}&#45;&gt;{} -->
<g id="edge2" class="edge"><title>{0}&#45;&gt;{}</title>
<path fill="none" stroke="black" d="M112.399,-18.608C155.702,-9.28386 252.467,6.58081 328.885,-17.0479 342.108,-21.1366 355.007,-29.3565 365.312,-37.287"/>
<polygon fill="black" stroke="black" points="363.34,-40.1946 373.309,-43.7835 367.754,-34.7615 363.34,-40.1946"/>
<text text-anchor="middle" x="246.29" y="-8.84787" font-family="Times New Roman,serif" font-size="14.00">t</text>
</g>
<!-- {1,2}&#45;&gt;{} -->
<g id="edge7" class="edge"><title>{1,2}&#45;&gt;{}</title>
<path fill="none" stroke="black" d="M222.091,-85.949C250.324,-96.7319 293.036,-108.133 328.885,-97.0479 342.108,-92.9591 355.007,-84.7393 365.312,-76.8087"/>
<polygon fill="black" stroke="black" points="367.754,-79.3342 373.309,-70.3122 363.34,-73.9011 367.754,-79.3342"/>
<text text-anchor="middle" x="298.338" y="-105.848" font-family="Times New Roman,serif" font-size="14.00">x</text>
</g>
<!-- {0,3} -->
<g id="node5" class="node"><title>{0,3}</title>
<ellipse fill="none" stroke="black" cx="298.338" cy="-57.0479" rx="30.5947" ry="30.5947"/>
<text text-anchor="middle" x="298.338" y="-53.3479" font-family="Times New Roman,serif" font-size="14.00">{0,3}</text>
</g>
<!-- {1,2}&#45;&gt;{0,3} -->
<g id="edge6" class="edge"><title>{1,2}&#45;&gt;{0,3}</title>
<path fill="none" stroke="black" d="M224.521,-67.3429C235.021,-65.8584 246.726,-64.2034 257.628,-62.6621"/>
<polygon fill="black" stroke="black" points="258.357,-66.0939 267.769,-61.2284 257.377,-59.1628 258.357,-66.0939"/>
<text text-anchor="middle" x="246.29" y="-68.8479" font-family="Times New Roman,serif" font-size="14.00">t</text>
</g>
<!-- {}&#45;&gt;{} -->
<g id="edge4" class="edge"><title>{}&#45;&gt;{}</title>
<path fill="none" stroke="black" d="M384.926,-76.3415C384.448,-85.9635 385.6,-94.5461 388.383,-94.5461 390.079,-94.5461 391.17,-91.3591 391.654,-86.6919"/>
<polygon fill="black" stroke="black" points="395.16,-86.4028 391.84,-76.3415 388.161,-86.277 395.16,-86.4028"/>
<text text-anchor="middle" x="388.383" y="-98.3461" font-family="Times New Roman,serif" font-size="14.00">t</text>
</g>
<!-- {}&#45;&gt;{} -->
<g id="edge5" class="edge"><title>{}&#45;&gt;{}</title>
<path fill="none" stroke="black" d="M382.622,-75.8121C379.635,-93.4325 381.555,-112.546 388.383,-112.546 393.931,-112.546 396.239,-99.9281 395.307,-85.7452"/>
<polygon fill="black" stroke="black" points="398.783,-85.3373 394.144,-75.8121 391.831,-86.1512 398.783,-85.3373"/>
<text text-anchor="middle" x="388.383" y="-116.346" font-family="Times New Roman,serif" font-size="14.00">x</text>
</g>
<!-- {0,3}&#45;&gt;{1,2} -->
<g id="edge9" class="edge"><title>{0,3}&#45;&gt;{1,2}</title>
<path fill="none" stroke="black" d="M269.507,-46.756C260.913,-44.8328 251.437,-43.9907 242.79,-46.0479 238.393,-47.094 233.946,-48.5783 229.602,-50.314"/>
<polygon fill="black" stroke="black" points="228.034,-47.1809 220.319,-54.4426 230.879,-53.5769 228.034,-47.1809"/>
<text text-anchor="middle" x="246.29" y="-49.8479" font-family="Times New Roman,serif" font-size="14.00">x</text>
</g>
<!-- {0,3}&#45;&gt;{} -->
<g id="edge8" class="edge"><title>{0,3}&#45;&gt;{}</title>
<path fill="none" stroke="black" d="M329.146,-57.0479C338.642,-57.0479 349.128,-57.0479 358.554,-57.0479"/>
<polygon fill="black" stroke="black" points="358.637,-60.548 368.637,-57.0479 358.637,-53.548 358.637,-60.548"/>
<text text-anchor="middle" x="348.885" y="-60.8479" font-family="Times New Roman,serif" font-size="14.00">t</text>
</g>
</g>
</svg>
