<?xml version="1.0" encoding="UTF-8" standalone="no"?>
<!DOCTYPE svg PUBLIC "-//W3C//DTD SVG 1.1//EN"
 "http://www.w3.org/Graphics/SVG/1.1/DTD/svg11.dtd">
<!-- Generated by graphviz version 2.38.0 (20140413.2041)
 -->
<!-- Title: dfa Pages: 1 -->
<svg width="422pt" height="146pt"
 viewBox="0.00 0.00 421.79 146.36" xmlns="http://www.w3.org/2000/svg" xmlns:xlink="http://www.w3.org/1999/xlink">
<g id="graph0" class="graph" transform="scale(1 1) rotate(0) translate(4 142.356)">
<title>dfa</title>
<polygon fill="white" stroke="none" points="-4,4 -4,-142.356 417.786,-142.356 417.786,4 -4,4"/>
<!-- __start -->
<!-- {0} -->
<g id="node2" class="node"><title>{0}</title>
<ellipse fill="none" stroke="black" cx="91.6" cy="-19.8573" rx="27" ry="18"/>
<text text-anchor="middle" x="91.6" y="-16.1573" font-family="Times New Roman,serif" font-size="14.00">{0}</text>
</g>
<!-- __start&#45;&gt;{0} -->
<g id="edge1" class="edge"><title>__start&#45;&gt;{0}</title>
<path fill="none" stroke="black" d="M3.78604,-19.8573C8.86985,-19.8573 32.7092,-19.8573 54.1222,-19.8573"/>
<polygon fill="black" stroke="black" points="54.3463,-23.3574 64.3463,-19.8573 54.3463,-16.3574 54.3463,-23.3574"/>
<text text-anchor="middle" x="34.1" y="-23.6573" font-family="Times New Roman,serif" font-size="14.00">start</text>
</g>
<!-- {1,2} -->
<g id="node3" class="node"><title>{1,2}</title>
<ellipse fill="none" stroke="black" cx="196.147" cy="-67.8573" rx="30.5892" ry="30.5892"/>
<ellipse fill="none" stroke="black" cx="196.147" cy="-67.8573" rx="34.5946" ry="34.5946"/>
<text text-anchor="middle" x="196.147" y="-64.1573" font-family="Times New Roman,serif" font-size="14.00">{1,2}</text>
</g>
<!-- {0}&#45;&gt;{1,2} -->
<g id="edge3" class="edge"><title>{0}&#45;&gt;{1,2}</title>
<path fill="none" stroke="black" d="M114.348,-30.0369C126.194,-35.5821 141.231,-42.6204 155.112,-49.1178"/>
<polygon fill="black" stroke="black" points="153.943,-52.4351 164.484,-53.5045 156.911,-46.0952 153.943,-52.4351"/>
<text text-anchor="middle" x="140.1" y="-46.6573" font-family="Times New Roman,serif" font-size="14.00">x</text>
</g>
<!-- {} -->
<g id="node4" class="node"><title>{}</title>
<ellipse fill="none" stroke="black" cx="394.287" cy="-52.8573" rx="19.4965" ry="19.4965"/>
<text text-anchor="middle" x="394.287" y="-49.1573" font-family="Times New Roman,serif" font-size="14.00">{}</text>
</g>
<!-- {0}&#45;&gt;{} -->
<g id="edge2" class="edge"><title>{0}&#45;&gt;{}</title>
<path fill="none" stroke="black" d="M117.367,-13.9937C162.01,-4.53967 258.434,10.752 334.789,-12.8573 348.013,-16.9461 360.911,-25.1659 371.216,-33.0965"/>
<polygon fill="black" stroke="black" points="369.245,-36.0041 379.213,-39.593 373.658,-30.571 369.245,-36.0041"/>
<text text-anchor="middle" x="252.195" y="-4.65734" font-family="Times New Roman,serif" font-size="14.00">t</text>
</g>
<!-- {1,2}&#45;&gt;{} -->
<g id="edge7" class="edge"><title>{1,2}&#45;&gt;{}</title>
<path fill="none" stroke="black" d="M227.995,-81.7585C256.229,-92.5413 298.94,-103.942 334.789,-92.8573 348.013,-88.7686 360.911,-80.5487 371.216,-72.6182"/>
<polygon fill="black" stroke="black" points="373.658,-75.1437 379.213,-66.1217 369.245,-69.7106 373.658,-75.1437"/>
<text text-anchor="middle" x="304.242" y="-101.657" font-family="Times New Roman,serif" font-size="14.00">x</text>
</g>
<!-- {0,3} -->
<g id="node5" class="node"><title>{0,3}</title>
<ellipse fill="none" stroke="black" cx="304.242" cy="-52.8573" rx="30.5947" ry="30.5947"/>
<text text-anchor="middle" x="304.242" y="-49.1573" font-family="Times New Roman,serif" font-size="14.00">{0,3}</text>
</g>
<!-- {1,2}&#45;&gt;{0,3} -->
<g id="edge6" class="edge"><title>{1,2}&#45;&gt;{0,3}</title>
<path fill="none" stroke="black" d="M230.425,-63.1524C240.925,-61.6679 252.631,-60.0129 263.533,-58.4716"/>
<polygon fill="black" stroke="black" points="264.262,-61.9034 273.673,-57.0379 263.282,-54.9723 264.262,-61.9034"/>
<text text-anchor="middle" x="252.195" y="-64.6573" font-family="Times New Roman,serif" font-size="14.00">t</text>
</g>
<!-- {}&#45;&gt;{} -->
<g id="edge4" class="edge"><title>{}&#45;&gt;{}</title>
<path fill="none" stroke="black" d="M390.83,-72.151C390.352,-81.7729 391.504,-90.3556 394.287,-90.3556 395.983,-90.3556 397.074,-87.1685 397.559,-82.5013"/>
<polygon fill="black" stroke="black" points="401.064,-82.2122 397.745,-72.151 394.066,-82.0865 401.064,-82.2122"/>
<text text-anchor="middle" x="394.287" y="-94.1556" font-family="Times New Roman,serif" font-size="14.00">t</text>
</g>
<!-- {}&#45;&gt;{} -->
<g id="edge5" class="edge"><title>{}&#45;&gt;{}</title>
<path fill="none" stroke="black" d="M388.526,-71.6215C385.539,-89.242 387.459,-108.356 394.287,-108.356 399.835,-108.356 402.143,-95.7376 401.211,-81.5547"/>
<polygon fill="black" stroke="black" points="404.688,-81.1468 400.049,-71.6215 397.735,-81.9607 404.688,-81.1468"/>
<text text-anchor="middle" x="394.287" y="-112.156" font-family="Times New Roman,serif" font-size="14.00">x</text>
</g>
<!-- {0,3}&#45;&gt;{1,2} -->
<g id="edge9" class="edge"><title>{0,3}&#45;&gt;{1,2}</title>
<path fill="none" stroke="black" d="M275.411,-42.5654C266.818,-40.6423 257.341,-39.8002 248.695,-41.8573 244.298,-42.9035 239.85,-44.3878 235.507,-46.1235"/>
<polygon fill="black" stroke="black" points="233.938,-42.9904 226.223,-50.2521 236.783,-49.3864 233.938,-42.9904"/>
<text text-anchor="middle" x="252.195" y="-45.6573" font-family="Times New Roman,serif" font-size="14.00">x</text>
</g>
<!-- {0,3}&#45;&gt;{} -->
<g id="edge8" class="edge"><title>{0,3}&#45;&gt;{}</title>
<path fill="none" stroke="black" d="M335.05,-52.8573C344.547,-52.8573 355.032,-52.8573 364.458,-52.8573"/>
<polygon fill="black" stroke="black" points="364.541,-56.3574 374.541,-52.8573 364.541,-49.3574 364.541,-56.3574"/>
<text text-anchor="middle" x="354.789" y="-56.6573" font-family="Times New Roman,serif" font-size="14.00">t</text>
</g>
</g>
</svg>
