<?xml version="1.0" encoding="UTF-8" standalone="no"?>
<!DOCTYPE svg PUBLIC "-//W3C//DTD SVG 1.1//EN"
 "http://www.w3.org/Graphics/SVG/1.1/DTD/svg11.dtd">
<!-- Generated by graphviz version 2.38.0 (20140413.2041)
 -->
<!-- Title: dfa Pages: 1 -->
<svg width="433pt" height="135pt"
 viewBox="0.00 0.00 432.60 135.00" xmlns="http://www.w3.org/2000/svg" xmlns:xlink="http://www.w3.org/1999/xlink">
<g id="graph0" class="graph" transform="scale(1 1) rotate(0) translate(4 131)">
<title>dfa</title>
<polygon fill="white" stroke="none" points="-4,4 -4,-131 428.6,-131 428.6,4 -4,4"/>
<!-- __start -->
<!-- 0 -->
<g id="node2" class="node"><title>0</title>
<ellipse fill="none" stroke="black" cx="82.6" cy="-76" rx="18" ry="18"/>
<text text-anchor="middle" x="82.6" y="-72.3" font-family="Times New Roman,serif" font-size="14.00">0</text>
</g>
<!-- __start&#45;&gt;0 -->
<g id="edge1" class="edge"><title>__start&#45;&gt;0</title>
<path fill="none" stroke="black" d="M3.68496,-76C8.69573,-76 34.008,-76 54.4423,-76"/>
<polygon fill="black" stroke="black" points="54.5501,-79.5001 64.5501,-76 54.5501,-72.5001 54.5501,-79.5001"/>
<text text-anchor="middle" x="34.1" y="-79.8" font-family="Times New Roman,serif" font-size="14.00">start</text>
</g>
<!-- 1 -->
<g id="node3" class="node"><title>1</title>
<ellipse fill="none" stroke="black" cx="244.6" cy="-76" rx="18" ry="18"/>
<ellipse fill="none" stroke="black" cx="244.6" cy="-76" rx="22" ry="22"/>
<text text-anchor="middle" x="244.6" y="-72.3" font-family="Times New Roman,serif" font-size="14.00">1</text>
</g>
<!-- 0&#45;&gt;1 -->
<g id="edge4" class="edge"><title>0&#45;&gt;1</title>
<path fill="none" stroke="black" d="M100.665,-76.7202C112.671,-77.1898 129.115,-77.7586 143.6,-78 159.598,-78.2666 163.602,-78.2499 179.6,-78 190.242,-77.8338 201.876,-77.5121 212.271,-77.1746"/>
<polygon fill="black" stroke="black" points="212.687,-80.6625 222.562,-76.8229 212.448,-73.6666 212.687,-80.6625"/>
<text text-anchor="middle" x="161.6" y="-81.8" font-family="Times New Roman,serif" font-size="14.00">h</text>
</g>
<!-- 3 -->
<g id="node5" class="node"><title>3</title>
<ellipse fill="none" stroke="black" cx="161.6" cy="-18" rx="18" ry="18"/>
<text text-anchor="middle" x="161.6" y="-14.3" font-family="Times New Roman,serif" font-size="14.00">3</text>
</g>
<!-- 0&#45;&gt;3 -->
<g id="edge5" class="edge"><title>0&#45;&gt;3</title>
<path fill="none" stroke="black" d="M97.3661,-65.6308C108.792,-57.0241 125.259,-44.6207 138.524,-34.6288"/>
<polygon fill="black" stroke="black" points="140.812,-37.2873 146.694,-28.475 136.6,-31.696 140.812,-37.2873"/>
<text text-anchor="middle" x="122.1" y="-51.8" font-family="Times New Roman,serif" font-size="14.00">n</text>
</g>
<!-- 2 -->
<g id="node4" class="node"><title>2</title>
<ellipse fill="none" stroke="black" cx="327.6" cy="-85" rx="18" ry="18"/>
<text text-anchor="middle" x="327.6" y="-81.3" font-family="Times New Roman,serif" font-size="14.00">2</text>
</g>
<!-- 1&#45;&gt;2 -->
<g id="edge2" class="edge"><title>1&#45;&gt;2</title>
<path fill="none" stroke="black" d="M259.346,-92.9363C266.121,-99.945 274.915,-107.291 284.6,-111 292.659,-114.086 300.871,-110.729 307.872,-105.517"/>
<polygon fill="black" stroke="black" points="310.273,-108.065 315.451,-98.8218 305.639,-102.819 310.273,-108.065"/>
<text text-anchor="middle" x="288.1" y="-115.8" font-family="Times New Roman,serif" font-size="14.00">h</text>
</g>
<!-- 1&#45;&gt;2 -->
<g id="edge3" class="edge"><title>1&#45;&gt;2</title>
<path fill="none" stroke="black" d="M266.882,-78.3646C276.866,-79.474 288.878,-80.8087 299.503,-81.9892"/>
<polygon fill="black" stroke="black" points="299.214,-85.4786 309.539,-83.1044 299.987,-78.5214 299.214,-85.4786"/>
<text text-anchor="middle" x="288.1" y="-84.8" font-family="Times New Roman,serif" font-size="14.00">n</text>
</g>
<!-- 2&#45;&gt;1 -->
<g id="edge9" class="edge"><title>2&#45;&gt;1</title>
<path fill="none" stroke="black" d="M313.646,-73.3342C307.441,-68.5177 299.623,-63.4864 291.6,-61 285.74,-59.184 279.48,-59.6248 273.525,-61.1827"/>
<polygon fill="black" stroke="black" points="272.129,-57.9656 263.916,-64.6578 274.51,-64.5484 272.129,-57.9656"/>
<text text-anchor="middle" x="288.1" y="-64.8" font-family="Times New Roman,serif" font-size="14.00">n</text>
</g>
<!-- 4 -->
<g id="node6" class="node"><title>4</title>
<ellipse fill="none" stroke="black" cx="406.6" cy="-47" rx="18" ry="18"/>
<text text-anchor="middle" x="406.6" y="-43.3" font-family="Times New Roman,serif" font-size="14.00">4</text>
</g>
<!-- 2&#45;&gt;4 -->
<g id="edge8" class="edge"><title>2&#45;&gt;4</title>
<path fill="none" stroke="black" d="M344.182,-77.3101C354.723,-72.108 368.868,-65.1273 380.927,-59.1765"/>
<polygon fill="black" stroke="black" points="382.623,-62.2426 390.041,-54.6784 379.525,-55.9654 382.623,-62.2426"/>
<text text-anchor="middle" x="367.1" y="-70.8" font-family="Times New Roman,serif" font-size="14.00">h</text>
</g>
<!-- 3&#45;&gt;1 -->
<g id="edge6" class="edge"><title>3&#45;&gt;1</title>
<path fill="none" stroke="black" d="M176.709,-28.1028C188.012,-36.1965 204.173,-47.7685 217.778,-57.5105"/>
<polygon fill="black" stroke="black" points="216.105,-60.6169 226.273,-63.5931 220.18,-54.9255 216.105,-60.6169"/>
<text text-anchor="middle" x="201.1" y="-50.8" font-family="Times New Roman,serif" font-size="14.00">h</text>
</g>
<!-- 3&#45;&gt;3 -->
<g id="edge7" class="edge"><title>3&#45;&gt;3</title>
<path fill="none" stroke="black" d="M154.866,-35.0373C153.492,-44.8579 155.737,-54 161.6,-54 165.265,-54 167.516,-50.4289 168.353,-45.3529"/>
<polygon fill="black" stroke="black" points="171.852,-45.0307 168.334,-35.0373 164.852,-45.0439 171.852,-45.0307"/>
<text text-anchor="middle" x="161.6" y="-57.8" font-family="Times New Roman,serif" font-size="14.00">n</text>
</g>
<!-- 4&#45;&gt;1 -->
<g id="edge11" class="edge"><title>4&#45;&gt;1</title>
<path fill="none" stroke="black" d="M388.708,-43.6444C369.34,-40.4041 336.763,-36.8185 309.6,-43 296.458,-45.9907 283.034,-52.3153 271.897,-58.6353"/>
<polygon fill="black" stroke="black" points="269.925,-55.7362 263.136,-63.8697 273.515,-61.7454 269.925,-55.7362"/>
<text text-anchor="middle" x="327.6" y="-46.8" font-family="Times New Roman,serif" font-size="14.00">n</text>
</g>
<!-- 4&#45;&gt;4 -->
<g id="edge10" class="edge"><title>4&#45;&gt;4</title>
<path fill="none" stroke="black" d="M399.866,-64.0373C398.492,-73.8579 400.737,-83 406.6,-83 410.265,-83 412.516,-79.4289 413.353,-74.3529"/>
<polygon fill="black" stroke="black" points="416.852,-74.0307 413.334,-64.0373 409.852,-74.0439 416.852,-74.0307"/>
<text text-anchor="middle" x="406.6" y="-86.8" font-family="Times New Roman,serif" font-size="14.00">h</text>
</g>
</g>
</svg>
