<?xml version="1.0" encoding="UTF-8" standalone="no"?>
<!DOCTYPE svg PUBLIC "-//W3C//DTD SVG 1.1//EN"
 "http://www.w3.org/Graphics/SVG/1.1/DTD/svg11.dtd">
<!-- Generated by graphviz version 2.38.0 (20140413.2041)
 -->
<!-- Title: dfa Pages: 1 -->
<svg width="451pt" height="135pt"
 viewBox="0.00 0.00 450.60 135.00" xmlns="http://www.w3.org/2000/svg" xmlns:xlink="http://www.w3.org/1999/xlink">
<g id="graph0" class="graph" transform="scale(1 1) rotate(0) translate(4 131)">
<title>dfa</title>
<polygon fill="white" stroke="none" points="-4,4 -4,-131 446.6,-131 446.6,4 -4,4"/>
<!-- __start -->
<!-- 0 -->
<g id="node2" class="node"><title>0</title>
<ellipse fill="none" stroke="black" cx="91.6" cy="-76" rx="27" ry="18"/>
<text text-anchor="middle" x="91.6" y="-72.3" font-family="Times New Roman,serif" font-size="14.00">0</text>
</g>
<!-- __start&#45;&gt;0 -->
<g id="edge1" class="edge"><title>__start&#45;&gt;0</title>
<path fill="none" stroke="black" d="M3.78604,-76C8.86985,-76 32.7092,-76 54.1222,-76"/>
<polygon fill="black" stroke="black" points="54.3463,-79.5001 64.3463,-76 54.3463,-72.5001 54.3463,-79.5001"/>
<text text-anchor="middle" x="34.1" y="-79.8" font-family="Times New Roman,serif" font-size="14.00">start</text>
</g>
<!-- 1 -->
<g id="node3" class="node"><title>1</title>
<ellipse fill="none" stroke="black" cx="262.6" cy="-76" rx="18" ry="18"/>
<ellipse fill="none" stroke="black" cx="262.6" cy="-76" rx="22" ry="22"/>
<text text-anchor="middle" x="262.6" y="-72.3" font-family="Times New Roman,serif" font-size="14.00">1</text>
</g>
<!-- 0&#45;&gt;1 -->
<g id="edge4" class="edge"><title>0&#45;&gt;1</title>
<path fill="none" stroke="black" d="M118.808,-76.9383C131.695,-77.3542 147.46,-77.7951 161.6,-78 177.598,-78.2318 181.602,-78.2499 197.6,-78 208.242,-77.8338 219.876,-77.5121 230.271,-77.1746"/>
<polygon fill="black" stroke="black" points="230.687,-80.6625 240.562,-76.8229 230.448,-73.6666 230.687,-80.6625"/>
<text text-anchor="middle" x="179.6" y="-81.8" font-family="Times New Roman,serif" font-size="14.00">h</text>
</g>
<!-- 3 -->
<g id="node5" class="node"><title>3</title>
<ellipse fill="none" stroke="black" cx="179.6" cy="-18" rx="18" ry="18"/>
<text text-anchor="middle" x="179.6" y="-14.3" font-family="Times New Roman,serif" font-size="14.00">3</text>
</g>
<!-- 0&#45;&gt;3 -->
<g id="edge5" class="edge"><title>0&#45;&gt;3</title>
<path fill="none" stroke="black" d="M111.261,-63.4149C124.31,-54.6145 141.817,-42.8071 155.71,-33.4375"/>
<polygon fill="black" stroke="black" points="157.901,-36.1817 164.234,-27.6885 153.987,-30.3782 157.901,-36.1817"/>
<text text-anchor="middle" x="140.1" y="-48.8" font-family="Times New Roman,serif" font-size="14.00">n</text>
</g>
<!-- 2 -->
<g id="node4" class="node"><title>2</title>
<ellipse fill="none" stroke="black" cx="345.6" cy="-85" rx="18" ry="18"/>
<text text-anchor="middle" x="345.6" y="-81.3" font-family="Times New Roman,serif" font-size="14.00">2</text>
</g>
<!-- 1&#45;&gt;2 -->
<g id="edge2" class="edge"><title>1&#45;&gt;2</title>
<path fill="none" stroke="black" d="M277.346,-92.9363C284.121,-99.945 292.915,-107.291 302.6,-111 310.659,-114.086 318.871,-110.729 325.872,-105.517"/>
<polygon fill="black" stroke="black" points="328.273,-108.065 333.451,-98.8218 323.639,-102.819 328.273,-108.065"/>
<text text-anchor="middle" x="306.1" y="-115.8" font-family="Times New Roman,serif" font-size="14.00">h</text>
</g>
<!-- 1&#45;&gt;2 -->
<g id="edge3" class="edge"><title>1&#45;&gt;2</title>
<path fill="none" stroke="black" d="M284.882,-78.3646C294.866,-79.474 306.878,-80.8087 317.503,-81.9892"/>
<polygon fill="black" stroke="black" points="317.214,-85.4786 327.539,-83.1044 317.987,-78.5214 317.214,-85.4786"/>
<text text-anchor="middle" x="306.1" y="-84.8" font-family="Times New Roman,serif" font-size="14.00">n</text>
</g>
<!-- 2&#45;&gt;1 -->
<g id="edge9" class="edge"><title>2&#45;&gt;1</title>
<path fill="none" stroke="black" d="M331.646,-73.3342C325.441,-68.5177 317.623,-63.4864 309.6,-61 303.74,-59.184 297.48,-59.6248 291.525,-61.1827"/>
<polygon fill="black" stroke="black" points="290.129,-57.9656 281.916,-64.6578 292.51,-64.5484 290.129,-57.9656"/>
<text text-anchor="middle" x="306.1" y="-64.8" font-family="Times New Roman,serif" font-size="14.00">n</text>
</g>
<!-- 4 -->
<g id="node6" class="node"><title>4</title>
<ellipse fill="none" stroke="black" cx="424.6" cy="-47" rx="18" ry="18"/>
<text text-anchor="middle" x="424.6" y="-43.3" font-family="Times New Roman,serif" font-size="14.00">4</text>
</g>
<!-- 2&#45;&gt;4 -->
<g id="edge8" class="edge"><title>2&#45;&gt;4</title>
<path fill="none" stroke="black" d="M362.182,-77.3101C372.723,-72.108 386.868,-65.1273 398.927,-59.1765"/>
<polygon fill="black" stroke="black" points="400.623,-62.2426 408.041,-54.6784 397.525,-55.9654 400.623,-62.2426"/>
<text text-anchor="middle" x="385.1" y="-70.8" font-family="Times New Roman,serif" font-size="14.00">h</text>
</g>
<!-- 3&#45;&gt;1 -->
<g id="edge6" class="edge"><title>3&#45;&gt;1</title>
<path fill="none" stroke="black" d="M194.709,-28.1028C206.012,-36.1965 222.173,-47.7685 235.778,-57.5105"/>
<polygon fill="black" stroke="black" points="234.105,-60.6169 244.273,-63.5931 238.18,-54.9255 234.105,-60.6169"/>
<text text-anchor="middle" x="219.1" y="-50.8" font-family="Times New Roman,serif" font-size="14.00">h</text>
</g>
<!-- 3&#45;&gt;3 -->
<g id="edge7" class="edge"><title>3&#45;&gt;3</title>
<path fill="none" stroke="black" d="M172.866,-35.0373C171.492,-44.8579 173.737,-54 179.6,-54 183.265,-54 185.516,-50.4289 186.353,-45.3529"/>
<polygon fill="black" stroke="black" points="189.852,-45.0307 186.334,-35.0373 182.852,-45.0439 189.852,-45.0307"/>
<text text-anchor="middle" x="179.6" y="-57.8" font-family="Times New Roman,serif" font-size="14.00">n</text>
</g>
<!-- 4&#45;&gt;1 -->
<g id="edge11" class="edge"><title>4&#45;&gt;1</title>
<path fill="none" stroke="black" d="M406.708,-43.6444C387.34,-40.4041 354.763,-36.8185 327.6,-43 314.458,-45.9907 301.034,-52.3153 289.897,-58.6353"/>
<polygon fill="black" stroke="black" points="287.925,-55.7362 281.136,-63.8697 291.515,-61.7454 287.925,-55.7362"/>
<text text-anchor="middle" x="345.6" y="-46.8" font-family="Times New Roman,serif" font-size="14.00">n</text>
</g>
<!-- 4&#45;&gt;4 -->
<g id="edge10" class="edge"><title>4&#45;&gt;4</title>
<path fill="none" stroke="black" d="M417.866,-64.0373C416.492,-73.8579 418.737,-83 424.6,-83 428.265,-83 430.516,-79.4289 431.353,-74.3529"/>
<polygon fill="black" stroke="black" points="434.852,-74.0307 431.334,-64.0373 427.852,-74.0439 434.852,-74.0307"/>
<text text-anchor="middle" x="424.6" y="-86.8" font-family="Times New Roman,serif" font-size="14.00">h</text>
</g>
</g>
</svg>
