<?xml version="1.0" encoding="UTF-8" standalone="no"?>
<!DOCTYPE svg PUBLIC "-//W3C//DTD SVG 1.1//EN"
 "http://www.w3.org/Graphics/SVG/1.1/DTD/svg11.dtd">
<!-- Generated by graphviz version 2.38.0 (20140413.2041)
 -->
<!-- Title: dfa Pages: 1 -->
<svg width="293pt" height="83pt"
 viewBox="0.00 0.00 292.60 83.18" xmlns="http://www.w3.org/2000/svg" xmlns:xlink="http://www.w3.org/1999/xlink">
<g id="graph0" class="graph" transform="scale(1 1) rotate(0) translate(4 79.1807)">
<title>dfa</title>
<polygon fill="white" stroke="none" points="-4,4 -4,-79.1807 288.6,-79.1807 288.6,4 -4,4"/>
<!-- __start -->
<!-- 0 -->
<g id="node2" class="node"><title>0</title>
<ellipse fill="none" stroke="black" cx="91.6" cy="-24.1807" rx="27" ry="18"/>
<text text-anchor="middle" x="91.6" y="-20.4807" font-family="Times New Roman,serif" font-size="14.00">0</text>
</g>
<!-- __start&#45;&gt;0 -->
<g id="edge1" class="edge"><title>__start&#45;&gt;0</title>
<path fill="none" stroke="black" d="M3.78604,-24.1807C8.86985,-24.1807 32.7092,-24.1807 54.1222,-24.1807"/>
<polygon fill="black" stroke="black" points="54.3463,-27.6808 64.3463,-24.1807 54.3463,-20.6808 54.3463,-27.6808"/>
<text text-anchor="middle" x="34.1" y="-27.9807" font-family="Times New Roman,serif" font-size="14.00">start</text>
</g>
<!-- 0&#45;&gt;0 -->
<g id="edge5" class="edge"><title>0&#45;&gt;0</title>
<path fill="none" stroke="black" d="M83.0307,-41.5906C81.4311,-51.2686 84.2875,-60.1807 91.6,-60.1807 96.1703,-60.1807 99,-56.6994 100.089,-51.7257"/>
<polygon fill="black" stroke="black" points="103.59,-51.6181 100.169,-41.5906 96.5901,-51.5625 103.59,-51.6181"/>
<text text-anchor="middle" x="91.6" y="-63.9807" font-family="Times New Roman,serif" font-size="14.00">n</text>
</g>
<!-- 1 -->
<g id="node3" class="node"><title>1</title>
<ellipse fill="none" stroke="black" cx="183.6" cy="-24.1807" rx="18" ry="18"/>
<ellipse fill="none" stroke="black" cx="183.6" cy="-24.1807" rx="22" ry="22"/>
<text text-anchor="middle" x="183.6" y="-20.4807" font-family="Times New Roman,serif" font-size="14.00">1</text>
</g>
<!-- 0&#45;&gt;1 -->
<g id="edge4" class="edge"><title>0&#45;&gt;1</title>
<path fill="none" stroke="black" d="M118.632,-24.1807C128.833,-24.1807 140.626,-24.1807 151.287,-24.1807"/>
<polygon fill="black" stroke="black" points="151.469,-27.6808 161.469,-24.1807 151.469,-20.6808 151.469,-27.6808"/>
<text text-anchor="middle" x="140.1" y="-27.9807" font-family="Times New Roman,serif" font-size="14.00">h</text>
</g>
<!-- 2 -->
<g id="node4" class="node"><title>2</title>
<ellipse fill="none" stroke="black" cx="266.6" cy="-24.1807" rx="18" ry="18"/>
<text text-anchor="middle" x="266.6" y="-20.4807" font-family="Times New Roman,serif" font-size="14.00">2</text>
</g>
<!-- 1&#45;&gt;2 -->
<g id="edge2" class="edge"><title>1&#45;&gt;2</title>
<path fill="none" stroke="black" d="M202.665,-35.3809C211.029,-39.2829 221.182,-42.2315 230.6,-40.1807 234.101,-39.4185 237.671,-38.2735 241.127,-36.9396"/>
<polygon fill="black" stroke="black" points="242.68,-40.08 250.416,-32.8409 239.854,-33.6757 242.68,-40.08"/>
<text text-anchor="middle" x="227.1" y="-43.9807" font-family="Times New Roman,serif" font-size="14.00">h</text>
</g>
<!-- 1&#45;&gt;2 -->
<g id="edge3" class="edge"><title>1&#45;&gt;2</title>
<path fill="none" stroke="black" d="M205.657,-21.8512C213.485,-21.2372 222.444,-20.8318 230.6,-21.1807 233.159,-21.2902 235.821,-21.4445 238.482,-21.626"/>
<polygon fill="black" stroke="black" points="238.283,-25.1212 248.529,-22.4232 238.837,-18.1431 238.283,-25.1212"/>
<text text-anchor="middle" x="227.1" y="-24.9807" font-family="Times New Roman,serif" font-size="14.00">n</text>
</g>
<!-- 2&#45;&gt;1 -->
<g id="edge7" class="edge"><title>2&#45;&gt;1</title>
<path fill="none" stroke="black" d="M252.241,-12.7512C246.076,-8.20887 238.402,-3.51477 230.6,-1.18074 223.308,1.00089 215.771,-0.821044 208.961,-4.22204"/>
<polygon fill="black" stroke="black" points="206.894,-1.3846 200.217,-9.61082 210.567,-7.3438 206.894,-1.3846"/>
<text text-anchor="middle" x="227.1" y="-4.98074" font-family="Times New Roman,serif" font-size="14.00">n</text>
</g>
<!-- 2&#45;&gt;2 -->
<g id="edge6" class="edge"><title>2&#45;&gt;2</title>
<path fill="none" stroke="black" d="M259.866,-41.218C258.492,-51.0386 260.737,-60.1807 266.6,-60.1807 270.265,-60.1807 272.516,-56.6096 273.353,-51.5337"/>
<polygon fill="black" stroke="black" points="276.852,-51.2114 273.334,-41.218 269.852,-51.2246 276.852,-51.2114"/>
<text text-anchor="middle" x="266.6" y="-63.9807" font-family="Times New Roman,serif" font-size="14.00">h</text>
</g>
</g>
</svg>
