<?xml version="1.0" encoding="UTF-8" standalone="no"?>
<!DOCTYPE svg PUBLIC "-//W3C//DTD SVG 1.1//EN"
 "http://www.w3.org/Graphics/SVG/1.1/DTD/svg11.dtd">
<!-- Generated by graphviz version 2.38.0 (20140413.2041)
 -->
<!-- Title: dfa Pages: 1 -->
<svg width="275pt" height="83pt"
 viewBox="0.00 0.00 274.60 83.18" xmlns="http://www.w3.org/2000/svg" xmlns:xlink="http://www.w3.org/1999/xlink">
<g id="graph0" class="graph" transform="scale(1 1) rotate(0) translate(4 79.1807)">
<title>dfa</title>
<polygon fill="white" stroke="none" points="-4,4 -4,-79.1807 270.6,-79.1807 270.6,4 -4,4"/>
<!-- __start -->
<!-- 0 -->
<g id="node2" class="node"><title>0</title>
<ellipse fill="none" stroke="black" cx="82.6" cy="-24.1807" rx="18" ry="18"/>
<text text-anchor="middle" x="82.6" y="-20.4807" font-family="Times New Roman,serif" font-size="14.00">0</text>
</g>
<!-- __start&#45;&gt;0 -->
<g id="edge1" class="edge"><title>__start&#45;&gt;0</title>
<path fill="none" stroke="black" d="M3.68496,-24.1807C8.69573,-24.1807 34.008,-24.1807 54.4423,-24.1807"/>
<polygon fill="black" stroke="black" points="54.5501,-27.6808 64.5501,-24.1807 54.5501,-20.6808 54.5501,-27.6808"/>
<text text-anchor="middle" x="34.1" y="-27.9807" font-family="Times New Roman,serif" font-size="14.00">start</text>
</g>
<!-- 0&#45;&gt;0 -->
<g id="edge5" class="edge"><title>0&#45;&gt;0</title>
<path fill="none" stroke="black" d="M75.8664,-41.218C74.4922,-51.0386 76.7367,-60.1807 82.6,-60.1807 86.2646,-60.1807 88.5155,-56.6096 89.3529,-51.5337"/>
<polygon fill="black" stroke="black" points="92.8524,-51.2114 89.3336,-41.218 85.8524,-51.2246 92.8524,-51.2114"/>
<text text-anchor="middle" x="82.6" y="-63.9807" font-family="Times New Roman,serif" font-size="14.00">n</text>
</g>
<!-- 1 -->
<g id="node3" class="node"><title>1</title>
<ellipse fill="none" stroke="black" cx="165.6" cy="-24.1807" rx="18" ry="18"/>
<ellipse fill="none" stroke="black" cx="165.6" cy="-24.1807" rx="22" ry="22"/>
<text text-anchor="middle" x="165.6" y="-20.4807" font-family="Times New Roman,serif" font-size="14.00">1</text>
</g>
<!-- 0&#45;&gt;1 -->
<g id="edge4" class="edge"><title>0&#45;&gt;1</title>
<path fill="none" stroke="black" d="M100.778,-24.1807C110.21,-24.1807 122.201,-24.1807 133.237,-24.1807"/>
<polygon fill="black" stroke="black" points="133.411,-27.6808 143.411,-24.1807 133.411,-20.6808 133.411,-27.6808"/>
<text text-anchor="middle" x="122.1" y="-27.9807" font-family="Times New Roman,serif" font-size="14.00">h</text>
</g>
<!-- 2 -->
<g id="node4" class="node"><title>2</title>
<ellipse fill="none" stroke="black" cx="248.6" cy="-24.1807" rx="18" ry="18"/>
<text text-anchor="middle" x="248.6" y="-20.4807" font-family="Times New Roman,serif" font-size="14.00">2</text>
</g>
<!-- 1&#45;&gt;2 -->
<g id="edge2" class="edge"><title>1&#45;&gt;2</title>
<path fill="none" stroke="black" d="M184.665,-35.3809C193.029,-39.2829 203.182,-42.2315 212.6,-40.1807 216.101,-39.4185 219.671,-38.2735 223.127,-36.9396"/>
<polygon fill="black" stroke="black" points="224.68,-40.08 232.416,-32.8409 221.854,-33.6757 224.68,-40.08"/>
<text text-anchor="middle" x="209.1" y="-43.9807" font-family="Times New Roman,serif" font-size="14.00">h</text>
</g>
<!-- 1&#45;&gt;2 -->
<g id="edge3" class="edge"><title>1&#45;&gt;2</title>
<path fill="none" stroke="black" d="M187.657,-21.8512C195.485,-21.2372 204.444,-20.8318 212.6,-21.1807 215.159,-21.2902 217.821,-21.4445 220.482,-21.626"/>
<polygon fill="black" stroke="black" points="220.283,-25.1212 230.529,-22.4232 220.837,-18.1431 220.283,-25.1212"/>
<text text-anchor="middle" x="209.1" y="-24.9807" font-family="Times New Roman,serif" font-size="14.00">n</text>
</g>
<!-- 2&#45;&gt;1 -->
<g id="edge7" class="edge"><title>2&#45;&gt;1</title>
<path fill="none" stroke="black" d="M234.241,-12.7512C228.076,-8.20887 220.402,-3.51477 212.6,-1.18074 205.308,1.00089 197.771,-0.821044 190.961,-4.22204"/>
<polygon fill="black" stroke="black" points="188.894,-1.3846 182.217,-9.61082 192.567,-7.3438 188.894,-1.3846"/>
<text text-anchor="middle" x="209.1" y="-4.98074" font-family="Times New Roman,serif" font-size="14.00">n</text>
</g>
<!-- 2&#45;&gt;2 -->
<g id="edge6" class="edge"><title>2&#45;&gt;2</title>
<path fill="none" stroke="black" d="M241.866,-41.218C240.492,-51.0386 242.737,-60.1807 248.6,-60.1807 252.265,-60.1807 254.516,-56.6096 255.353,-51.5337"/>
<polygon fill="black" stroke="black" points="258.852,-51.2114 255.334,-41.218 251.852,-51.2246 258.852,-51.2114"/>
<text text-anchor="middle" x="248.6" y="-63.9807" font-family="Times New Roman,serif" font-size="14.00">h</text>
</g>
</g>
</svg>
