<?xml version="1.0" encoding="UTF-8" standalone="no"?>
<!DOCTYPE svg PUBLIC "-//W3C//DTD SVG 1.1//EN"
 "http://www.w3.org/Graphics/SVG/1.1/DTD/svg11.dtd">
<!-- Generated by graphviz version 2.38.0 (20140413.2041)
 -->
<!-- Title: dfa Pages: 1 -->
<svg width="354pt" height="78pt"
 viewBox="0.00 0.00 353.60 78.00" xmlns="http://www.w3.org/2000/svg" xmlns:xlink="http://www.w3.org/1999/xlink">
<g id="graph0" class="graph" transform="scale(1 1) rotate(0) translate(4 74)">
<title>dfa</title>
<polygon fill="white" stroke="none" points="-4,4 -4,-74 349.6,-74 349.6,4 -4,4"/>
<!-- __start -->
<!-- 0 -->
<g id="node2" class="node"><title>0</title>
<ellipse fill="none" stroke="black" cx="82.6" cy="-22" rx="18" ry="18"/>
<text text-anchor="middle" x="82.6" y="-18.3" font-family="Times New Roman,serif" font-size="14.00">0</text>
</g>
<!-- __start&#45;&gt;0 -->
<g id="edge1" class="edge"><title>__start&#45;&gt;0</title>
<path fill="none" stroke="black" d="M3.68496,-22C8.69573,-22 34.008,-22 54.4423,-22"/>
<polygon fill="black" stroke="black" points="54.5501,-25.5001 64.5501,-22 54.5501,-18.5001 54.5501,-25.5001"/>
<text text-anchor="middle" x="34.1" y="-25.8" font-family="Times New Roman,serif" font-size="14.00">start</text>
</g>
<!-- 1 -->
<g id="node3" class="node"><title>1</title>
<ellipse fill="none" stroke="black" cx="165.6" cy="-22" rx="18" ry="18"/>
<ellipse fill="none" stroke="black" cx="165.6" cy="-22" rx="22" ry="22"/>
<text text-anchor="middle" x="165.6" y="-18.3" font-family="Times New Roman,serif" font-size="14.00">1</text>
</g>
<!-- 0&#45;&gt;1 -->
<g id="edge4" class="edge"><title>0&#45;&gt;1</title>
<path fill="none" stroke="black" d="M100.778,-22C110.21,-22 122.201,-22 133.237,-22"/>
<polygon fill="black" stroke="black" points="133.411,-25.5001 143.411,-22 133.411,-18.5001 133.411,-25.5001"/>
<text text-anchor="middle" x="122.1" y="-25.8" font-family="Times New Roman,serif" font-size="14.00">a</text>
</g>
<!-- 3 -->
<g id="node5" class="node"><title>3</title>
<ellipse fill="none" stroke="black" cx="248.6" cy="-52" rx="18" ry="18"/>
<text text-anchor="middle" x="248.6" y="-48.3" font-family="Times New Roman,serif" font-size="14.00">3</text>
</g>
<!-- 1&#45;&gt;3 -->
<g id="edge3" class="edge"><title>1&#45;&gt;3</title>
<path fill="none" stroke="black" d="M186.622,-29.4157C197.275,-33.3613 210.493,-38.2568 221.897,-42.4803"/>
<polygon fill="black" stroke="black" points="220.748,-45.787 231.341,-45.9781 223.179,-39.2228 220.748,-45.787"/>
<text text-anchor="middle" x="209.1" y="-41.8" font-family="Times New Roman,serif" font-size="14.00">a</text>
</g>
<!-- 2 -->
<g id="node4" class="node"><title>2</title>
<ellipse fill="none" stroke="black" cx="327.6" cy="-22" rx="18" ry="18"/>
<text text-anchor="middle" x="327.6" y="-18.3" font-family="Times New Roman,serif" font-size="14.00">2</text>
</g>
<!-- 2&#45;&gt;1 -->
<g id="edge2" class="edge"><title>2&#45;&gt;1</title>
<path fill="none" stroke="black" d="M309.923,-17.744C297.957,-14.9169 281.4,-11.4655 266.6,-10 250.678,-8.4234 246.531,-8.51934 230.6,-10 219.625,-11.02 207.727,-13.0037 197.2,-15.0691"/>
<polygon fill="black" stroke="black" points="196.302,-11.6805 187.216,-17.129 197.716,-18.5361 196.302,-11.6805"/>
<text text-anchor="middle" x="248.6" y="-13.8" font-family="Times New Roman,serif" font-size="14.00">a</text>
</g>
<!-- 3&#45;&gt;2 -->
<g id="edge5" class="edge"><title>3&#45;&gt;2</title>
<path fill="none" stroke="black" d="M265.554,-45.784C275.879,-41.7615 289.543,-36.4379 301.326,-31.8472"/>
<polygon fill="black" stroke="black" points="302.619,-35.0996 310.666,-28.2081 300.078,-28.5772 302.619,-35.0996"/>
<text text-anchor="middle" x="288.1" y="-40.8" font-family="Times New Roman,serif" font-size="14.00">a</text>
</g>
</g>
</svg>
