<?xml version="1.0" encoding="UTF-8" standalone="no"?>
<!DOCTYPE svg PUBLIC "-//W3C//DTD SVG 1.1//EN"
 "http://www.w3.org/Graphics/SVG/1.1/DTD/svg11.dtd">
<!-- Generated by graphviz version 2.38.0 (20140413.2041)
 -->
<!-- Title: dfa Pages: 1 -->
<svg width="532pt" height="108pt"
 viewBox="0.00 0.00 532.08 107.90" xmlns="http://www.w3.org/2000/svg" xmlns:xlink="http://www.w3.org/1999/xlink">
<g id="graph0" class="graph" transform="scale(1 1) rotate(0) translate(4 103.895)">
<title>dfa</title>
<polygon fill="white" stroke="none" points="-4,4 -4,-103.895 528.075,-103.895 528.075,4 -4,4"/>
<!-- __start -->
<!-- (0,0) -->
<g id="node2" class="node"><title>(0,0)</title>
<ellipse fill="none" stroke="black" cx="92.5475" cy="-67.9475" rx="27.8951" ry="27.8951"/>
<text text-anchor="middle" x="92.5475" y="-64.2475" font-family="Times New Roman,serif" font-size="14.00">(0,0)</text>
</g>
<!-- __start&#45;&gt;(0,0) -->
<g id="edge1" class="edge"><title>__start&#45;&gt;(0,0)</title>
<path fill="none" stroke="black" d="M3.79668,-67.9475C8.92583,-67.9475 32.9428,-67.9475 54.5557,-67.9475"/>
<polygon fill="black" stroke="black" points="54.5589,-71.4476 64.5589,-67.9475 54.5588,-64.4476 54.5589,-71.4476"/>
<text text-anchor="middle" x="34.1" y="-71.7475" font-family="Times New Roman,serif" font-size="14.00">start</text>
</g>
<!-- (1,1) -->
<g id="node3" class="node"><title>(1,1)</title>
<ellipse fill="none" stroke="black" cx="195.443" cy="-67.9475" rx="27.9017" ry="27.9017"/>
<ellipse fill="none" stroke="black" cx="195.443" cy="-67.9475" rx="31.8951" ry="31.8951"/>
<text text-anchor="middle" x="195.443" y="-64.2475" font-family="Times New Roman,serif" font-size="14.00">(1,1)</text>
</g>
<!-- (0,0)&#45;&gt;(1,1) -->
<g id="edge6" class="edge"><title>(0,0)&#45;&gt;(1,1)</title>
<path fill="none" stroke="black" d="M120.586,-67.9475C130.583,-67.9475 142.156,-67.9475 153.132,-67.9475"/>
<polygon fill="black" stroke="black" points="153.401,-71.4476 163.401,-67.9475 153.401,-64.4476 153.401,-71.4476"/>
<text text-anchor="middle" x="141.995" y="-71.7475" font-family="Times New Roman,serif" font-size="14.00">a</text>
</g>
<!-- (2,3) -->
<g id="node6" class="node"><title>(2,3)</title>
<ellipse fill="none" stroke="black" cx="298.338" cy="-67.9475" rx="27.8951" ry="27.8951"/>
<text text-anchor="middle" x="298.338" y="-64.2475" font-family="Times New Roman,serif" font-size="14.00">(2,3)</text>
</g>
<!-- (1,1)&#45;&gt;(2,3) -->
<g id="edge5" class="edge"><title>(1,1)&#45;&gt;(2,3)</title>
<path fill="none" stroke="black" d="M227.538,-67.9475C237.786,-67.9475 249.291,-67.9475 259.958,-67.9475"/>
<polygon fill="black" stroke="black" points="260.269,-71.4476 270.268,-67.9475 260.268,-64.4476 260.269,-71.4476"/>
<text text-anchor="middle" x="248.89" y="-71.7475" font-family="Times New Roman,serif" font-size="14.00">a</text>
</g>
<!-- (2,2) -->
<g id="node4" class="node"><title>(2,2)</title>
<ellipse fill="none" stroke="black" cx="397.233" cy="-27.9475" rx="27.8951" ry="27.8951"/>
<text text-anchor="middle" x="397.233" y="-24.2475" font-family="Times New Roman,serif" font-size="14.00">(2,2)</text>
</g>
<!-- (2,1) -->
<g id="node5" class="node"><title>(2,1)</title>
<ellipse fill="none" stroke="black" cx="496.128" cy="-67.9475" rx="27.8951" ry="27.8951"/>
<text text-anchor="middle" x="496.128" y="-64.2475" font-family="Times New Roman,serif" font-size="14.00">(2,1)</text>
</g>
<!-- (2,2)&#45;&gt;(2,1) -->
<g id="edge2" class="edge"><title>(2,2)&#45;&gt;(2,1)</title>
<path fill="none" stroke="black" d="M423.438,-38.3526C434.765,-43.0285 448.313,-48.6215 460.566,-53.68"/>
<polygon fill="black" stroke="black" points="459.47,-57.0138 470.049,-57.5945 462.141,-50.5435 459.47,-57.0138"/>
<text text-anchor="middle" x="446.68" y="-53.7475" font-family="Times New Roman,serif" font-size="14.00">a</text>
</g>
<!-- (2,1)&#45;&gt;(2,3) -->
<g id="edge3" class="edge"><title>(2,1)&#45;&gt;(2,3)</title>
<path fill="none" stroke="black" d="M468.033,-68.6477C462.148,-68.7726 455.956,-68.8833 450.18,-68.9475 403.119,-69.471 391.347,-69.471 344.285,-68.9475 341.758,-68.9194 339.152,-68.8824 336.526,-68.8392"/>
<polygon fill="black" stroke="black" points="336.496,-65.3382 326.432,-68.6477 336.364,-72.3369 336.496,-65.3382"/>
<text text-anchor="middle" x="397.233" y="-72.7475" font-family="Times New Roman,serif" font-size="14.00">a</text>
</g>
<!-- (2,3)&#45;&gt;(2,2) -->
<g id="edge4" class="edge"><title>(2,3)&#45;&gt;(2,2)</title>
<path fill="none" stroke="black" d="M324.543,-57.5424C335.87,-52.8665 349.418,-47.2736 361.671,-42.2151"/>
<polygon fill="black" stroke="black" points="363.246,-45.3516 371.154,-38.3005 360.575,-38.8812 363.246,-45.3516"/>
<text text-anchor="middle" x="347.785" y="-53.7475" font-family="Times New Roman,serif" font-size="14.00">a</text>
</g>
</g>
</svg>
