<?xml version="1.0" encoding="UTF-8" standalone="no"?>
<!DOCTYPE svg PUBLIC "-//W3C//DTD SVG 1.1//EN"
 "http://www.w3.org/Graphics/SVG/1.1/DTD/svg11.dtd">
<!-- Generated by graphviz version 2.38.0 (20140413.2041)
 -->
<!-- Title: dfa Pages: 1 -->
<svg width="275pt" height="99pt"
 viewBox="0.00 0.00 274.60 99.00" xmlns="http://www.w3.org/2000/svg" xmlns:xlink="http://www.w3.org/1999/xlink">
<g id="graph0" class="graph" transform="scale(1 1) rotate(0) translate(4 95)">
<title>dfa</title>
<polygon fill="white" stroke="none" points="-4,4 -4,-95 270.6,-95 270.6,4 -4,4"/>
<!-- __start -->
<!-- 0 -->
<g id="node2" class="node"><title>0</title>
<ellipse fill="none" stroke="black" cx="82.6" cy="-38" rx="18" ry="18"/>
<text text-anchor="middle" x="82.6" y="-34.3" font-family="Times New Roman,serif" font-size="14.00">0</text>
</g>
<!-- __start&#45;&gt;0 -->
<g id="edge1" class="edge"><title>__start&#45;&gt;0</title>
<path fill="none" stroke="black" d="M3.68496,-38C8.69573,-38 34.008,-38 54.4423,-38"/>
<polygon fill="black" stroke="black" points="54.5501,-41.5001 64.5501,-38 54.5501,-34.5001 54.5501,-41.5001"/>
<text text-anchor="middle" x="34.1" y="-41.8" font-family="Times New Roman,serif" font-size="14.00">start</text>
</g>
<!-- 0&#45;&gt;0 -->
<g id="edge5" class="edge"><title>0&#45;&gt;0</title>
<path fill="none" stroke="black" d="M75.8664,-55.0373C74.4922,-64.8579 76.7367,-74 82.6,-74 86.2646,-74 88.5155,-70.4289 89.3529,-65.3529"/>
<polygon fill="black" stroke="black" points="92.8524,-65.0307 89.3336,-55.0373 85.8524,-65.0439 92.8524,-65.0307"/>
<text text-anchor="middle" x="82.6" y="-77.8" font-family="Times New Roman,serif" font-size="14.00">i</text>
</g>
<!-- 2 -->
<g id="node4" class="node"><title>2</title>
<ellipse fill="none" stroke="black" cx="161.6" cy="-73" rx="18" ry="18"/>
<text text-anchor="middle" x="161.6" y="-69.3" font-family="Times New Roman,serif" font-size="14.00">2</text>
</g>
<!-- 0&#45;&gt;2 -->
<g id="edge4" class="edge"><title>0&#45;&gt;2</title>
<path fill="none" stroke="black" d="M94.318,-52.0431C100.559,-59.0812 109.069,-66.9502 118.6,-71 123.227,-72.9662 128.405,-74.0192 133.502,-74.508"/>
<polygon fill="black" stroke="black" points="133.542,-78.011 143.648,-74.8309 133.764,-71.0145 133.542,-78.011"/>
<text text-anchor="middle" x="122.1" y="-76.8" font-family="Times New Roman,serif" font-size="14.00">k</text>
</g>
<!-- 1 -->
<g id="node3" class="node"><title>1</title>
<ellipse fill="none" stroke="black" cx="244.6" cy="-22" rx="18" ry="18"/>
<ellipse fill="none" stroke="black" cx="244.6" cy="-22" rx="22" ry="22"/>
<text text-anchor="middle" x="244.6" y="-18.3" font-family="Times New Roman,serif" font-size="14.00">1</text>
</g>
<!-- 1&#45;&gt;0 -->
<g id="edge6" class="edge"><title>1&#45;&gt;0</title>
<path fill="none" stroke="black" d="M222.515,-23.735C202.266,-25.4397 170.822,-28.1875 143.6,-31 132.838,-32.1119 121.006,-33.4644 110.714,-34.683"/>
<polygon fill="black" stroke="black" points="110.168,-31.2233 100.656,-35.8888 111.002,-38.1736 110.168,-31.2233"/>
<text text-anchor="middle" x="161.6" y="-34.8" font-family="Times New Roman,serif" font-size="14.00">k</text>
</g>
<!-- 1&#45;&gt;0 -->
<g id="edge7" class="edge"><title>1&#45;&gt;0</title>
<path fill="none" stroke="black" d="M223.476,-14.8516C203.136,-8.63555 170.898,-1.55573 143.6,-8 130.801,-11.0215 117.619,-17.2145 106.882,-23.1933"/>
<polygon fill="black" stroke="black" points="105.009,-20.2342 98.1474,-28.307 108.546,-26.2751 105.009,-20.2342"/>
<text text-anchor="middle" x="161.6" y="-11.8" font-family="Times New Roman,serif" font-size="14.00">i</text>
</g>
<!-- 2&#45;&gt;0 -->
<g id="edge3" class="edge"><title>2&#45;&gt;0</title>
<path fill="none" stroke="black" d="M144.994,-65.2249C138.965,-62.2723 131.99,-58.9193 125.6,-56 120.278,-53.5689 114.537,-51.0446 109.06,-48.6827"/>
<polygon fill="black" stroke="black" points="110.205,-45.3659 99.6332,-44.6616 107.458,-51.8046 110.205,-45.3659"/>
<text text-anchor="middle" x="122.1" y="-59.8" font-family="Times New Roman,serif" font-size="14.00">i</text>
</g>
<!-- 2&#45;&gt;1 -->
<g id="edge2" class="edge"><title>2&#45;&gt;1</title>
<path fill="none" stroke="black" d="M177.457,-63.6458C188.441,-56.7299 203.7,-47.1223 216.794,-38.8777"/>
<polygon fill="black" stroke="black" points="218.837,-41.7275 225.435,-33.4375 215.107,-35.8038 218.837,-41.7275"/>
<text text-anchor="middle" x="201.1" y="-53.8" font-family="Times New Roman,serif" font-size="14.00">k</text>
</g>
</g>
</svg>
