<?xml version="1.0" encoding="UTF-8" standalone="no"?>
<!DOCTYPE svg PUBLIC "-//W3C//DTD SVG 1.1//EN"
 "http://www.w3.org/Graphics/SVG/1.1/DTD/svg11.dtd">
<!-- Generated by graphviz version 2.38.0 (20140413.2041)
 -->
<!-- Title: dfa Pages: 1 -->
<svg width="372pt" height="174pt"
 viewBox="0.00 0.00 371.60 174.00" xmlns="http://www.w3.org/2000/svg" xmlns:xlink="http://www.w3.org/1999/xlink">
<g id="graph0" class="graph" transform="scale(1 1) rotate(0) translate(4 170)">
<title>dfa</title>
<polygon fill="white" stroke="none" points="-4,4 -4,-170 367.6,-170 367.6,4 -4,4"/>
<!-- __start -->
<!-- 0 -->
<g id="node2" class="node"><title>0</title>
<ellipse fill="none" stroke="black" cx="91.6" cy="-18" rx="27" ry="18"/>
<text text-anchor="middle" x="91.6" y="-14.3" font-family="Times New Roman,serif" font-size="14.00">0</text>
</g>
<!-- __start&#45;&gt;0 -->
<g id="edge1" class="edge"><title>__start&#45;&gt;0</title>
<path fill="none" stroke="black" d="M3.78604,-18C8.86985,-18 32.7092,-18 54.1222,-18"/>
<polygon fill="black" stroke="black" points="54.3463,-21.5001 64.3463,-18 54.3463,-14.5001 54.3463,-21.5001"/>
<text text-anchor="middle" x="34.1" y="-21.8" font-family="Times New Roman,serif" font-size="14.00">start</text>
</g>
<!-- 0&#45;&gt;0 -->
<g id="edge5" class="edge"><title>0&#45;&gt;0</title>
<path fill="none" stroke="black" d="M83.0307,-35.4099C81.4311,-45.0879 84.2875,-54 91.6,-54 96.1703,-54 99,-50.5187 100.089,-45.5449"/>
<polygon fill="black" stroke="black" points="103.59,-45.4374 100.169,-35.4099 96.5901,-45.3818 103.59,-45.4374"/>
<text text-anchor="middle" x="91.6" y="-57.8" font-family="Times New Roman,serif" font-size="14.00">i</text>
</g>
<!-- 2 -->
<g id="node4" class="node"><title>2</title>
<ellipse fill="none" stroke="black" cx="179.6" cy="-63" rx="18" ry="18"/>
<text text-anchor="middle" x="179.6" y="-59.3" font-family="Times New Roman,serif" font-size="14.00">2</text>
</g>
<!-- 0&#45;&gt;2 -->
<g id="edge4" class="edge"><title>0&#45;&gt;2</title>
<path fill="none" stroke="black" d="M113.418,-28.8932C125.698,-35.3189 141.302,-43.4837 154.164,-50.2136"/>
<polygon fill="black" stroke="black" points="152.881,-53.4926 163.364,-55.0278 156.127,-47.2904 152.881,-53.4926"/>
<text text-anchor="middle" x="140.1" y="-47.8" font-family="Times New Roman,serif" font-size="14.00">k</text>
</g>
<!-- 1 -->
<g id="node3" class="node"><title>1</title>
<ellipse fill="none" stroke="black" cx="262.6" cy="-144" rx="18" ry="18"/>
<ellipse fill="none" stroke="black" cx="262.6" cy="-144" rx="22" ry="22"/>
<text text-anchor="middle" x="262.6" y="-140.3" font-family="Times New Roman,serif" font-size="14.00">1</text>
</g>
<!-- 3 -->
<g id="node5" class="node"><title>3</title>
<ellipse fill="none" stroke="black" cx="345.6" cy="-89" rx="18" ry="18"/>
<text text-anchor="middle" x="345.6" y="-85.3" font-family="Times New Roman,serif" font-size="14.00">3</text>
</g>
<!-- 1&#45;&gt;3 -->
<g id="edge6" class="edge"><title>1&#45;&gt;3</title>
<path fill="none" stroke="black" d="M284.93,-144.756C293.133,-144.173 302.278,-142.39 309.6,-138 319.014,-132.355 326.594,-123.098 332.26,-114.141"/>
<polygon fill="black" stroke="black" points="335.321,-115.84 337.286,-105.429 329.257,-112.342 335.321,-115.84"/>
<text text-anchor="middle" x="306.1" y="-144.8" font-family="Times New Roman,serif" font-size="14.00">k</text>
</g>
<!-- 1&#45;&gt;3 -->
<g id="edge7" class="edge"><title>1&#45;&gt;3</title>
<path fill="none" stroke="black" d="M281.176,-132.066C293.122,-123.954 309.036,-113.148 321.935,-104.39"/>
<polygon fill="black" stroke="black" points="323.99,-107.225 330.297,-98.7122 320.057,-101.434 323.99,-107.225"/>
<text text-anchor="middle" x="306.1" y="-119.8" font-family="Times New Roman,serif" font-size="14.00">i</text>
</g>
<!-- 2&#45;&gt;1 -->
<g id="edge2" class="edge"><title>2&#45;&gt;1</title>
<path fill="none" stroke="black" d="M191.865,-76.7075C198.537,-84.61 207.287,-94.61 215.6,-103 222.311,-109.773 229.925,-116.799 236.999,-123.082"/>
<polygon fill="black" stroke="black" points="235.139,-126.105 244.969,-130.055 239.748,-120.836 235.139,-126.105"/>
<text text-anchor="middle" x="219.1" y="-111.8" font-family="Times New Roman,serif" font-size="14.00">k</text>
</g>
<!-- 2&#45;&gt;3 -->
<g id="edge3" class="edge"><title>2&#45;&gt;3</title>
<path fill="none" stroke="black" d="M197.533,-65.6845C225.89,-70.1802 283.223,-79.2694 317.324,-84.6757"/>
<polygon fill="black" stroke="black" points="317.089,-88.1821 327.513,-86.2911 318.185,-81.2684 317.089,-88.1821"/>
<text text-anchor="middle" x="262.6" y="-82.8" font-family="Times New Roman,serif" font-size="14.00">i</text>
</g>
<!-- 3&#45;&gt;0 -->
<g id="edge9" class="edge"><title>3&#45;&gt;0</title>
<path fill="none" stroke="black" d="M332.851,-75.967C326.44,-69.3868 318.093,-61.6283 309.6,-56 299.481,-49.2943 296.187,-48.6203 284.6,-45 231.918,-28.5393 167.956,-22.0883 128.776,-19.5774"/>
<polygon fill="black" stroke="black" points="128.84,-16.0752 118.652,-18.9814 128.429,-23.0631 128.84,-16.0752"/>
<text text-anchor="middle" x="219.1" y="-33.8" font-family="Times New Roman,serif" font-size="14.00">i</text>
</g>
<!-- 3&#45;&gt;2 -->
<g id="edge8" class="edge"><title>3&#45;&gt;2</title>
<path fill="none" stroke="black" d="M330.825,-77.7468C319.273,-69.0815 301.926,-57.7991 284.6,-53 258.879,-45.8757 228.368,-50.2446 207.07,-55.2484"/>
<polygon fill="black" stroke="black" points="205.955,-51.9209 197.132,-57.7866 207.687,-58.7032 205.955,-51.9209"/>
<text text-anchor="middle" x="262.6" y="-56.8" font-family="Times New Roman,serif" font-size="14.00">k</text>
</g>
</g>
</svg>
