<?xml version="1.0" encoding="UTF-8" standalone="no"?>
<!DOCTYPE svg PUBLIC "-//W3C//DTD SVG 1.1//EN"
 "http://www.w3.org/Graphics/SVG/1.1/DTD/svg11.dtd">
<!-- Generated by graphviz version 2.38.0 (20140413.2041)
 -->
<!-- Title: dfa Pages: 1 -->
<svg width="354pt" height="174pt"
 viewBox="0.00 0.00 353.60 174.00" xmlns="http://www.w3.org/2000/svg" xmlns:xlink="http://www.w3.org/1999/xlink">
<g id="graph0" class="graph" transform="scale(1 1) rotate(0) translate(4 170)">
<title>dfa</title>
<polygon fill="white" stroke="none" points="-4,4 -4,-170 349.6,-170 349.6,4 -4,4"/>
<!-- __start -->
<!-- 0 -->
<g id="node2" class="node"><title>0</title>
<ellipse fill="none" stroke="black" cx="82.6" cy="-18" rx="18" ry="18"/>
<text text-anchor="middle" x="82.6" y="-14.3" font-family="Times New Roman,serif" font-size="14.00">0</text>
</g>
<!-- __start&#45;&gt;0 -->
<g id="edge1" class="edge"><title>__start&#45;&gt;0</title>
<path fill="none" stroke="black" d="M3.68496,-18C8.69573,-18 34.008,-18 54.4423,-18"/>
<polygon fill="black" stroke="black" points="54.5501,-21.5001 64.5501,-18 54.5501,-14.5001 54.5501,-21.5001"/>
<text text-anchor="middle" x="34.1" y="-21.8" font-family="Times New Roman,serif" font-size="14.00">start</text>
</g>
<!-- 0&#45;&gt;0 -->
<g id="edge5" class="edge"><title>0&#45;&gt;0</title>
<path fill="none" stroke="black" d="M75.8664,-35.0373C74.4922,-44.8579 76.7367,-54 82.6,-54 86.2646,-54 88.5155,-50.4289 89.3529,-45.3529"/>
<polygon fill="black" stroke="black" points="92.8524,-45.0307 89.3336,-35.0373 85.8524,-45.0439 92.8524,-45.0307"/>
<text text-anchor="middle" x="82.6" y="-57.8" font-family="Times New Roman,serif" font-size="14.00">i</text>
</g>
<!-- 2 -->
<g id="node4" class="node"><title>2</title>
<ellipse fill="none" stroke="black" cx="161.6" cy="-63" rx="18" ry="18"/>
<text text-anchor="middle" x="161.6" y="-59.3" font-family="Times New Roman,serif" font-size="14.00">2</text>
</g>
<!-- 0&#45;&gt;2 -->
<g id="edge4" class="edge"><title>0&#45;&gt;2</title>
<path fill="none" stroke="black" d="M98.4464,-26.6765C109.312,-33.0263 124.281,-41.7745 136.806,-49.0944"/>
<polygon fill="black" stroke="black" points="135.399,-52.3263 145.799,-54.3502 138.931,-46.2826 135.399,-52.3263"/>
<text text-anchor="middle" x="122.1" y="-44.8" font-family="Times New Roman,serif" font-size="14.00">k</text>
</g>
<!-- 1 -->
<g id="node3" class="node"><title>1</title>
<ellipse fill="none" stroke="black" cx="244.6" cy="-144" rx="18" ry="18"/>
<ellipse fill="none" stroke="black" cx="244.6" cy="-144" rx="22" ry="22"/>
<text text-anchor="middle" x="244.6" y="-140.3" font-family="Times New Roman,serif" font-size="14.00">1</text>
</g>
<!-- 3 -->
<g id="node5" class="node"><title>3</title>
<ellipse fill="none" stroke="black" cx="327.6" cy="-89" rx="18" ry="18"/>
<text text-anchor="middle" x="327.6" y="-85.3" font-family="Times New Roman,serif" font-size="14.00">3</text>
</g>
<!-- 1&#45;&gt;3 -->
<g id="edge6" class="edge"><title>1&#45;&gt;3</title>
<path fill="none" stroke="black" d="M266.93,-144.756C275.133,-144.173 284.278,-142.39 291.6,-138 301.014,-132.355 308.594,-123.098 314.26,-114.141"/>
<polygon fill="black" stroke="black" points="317.321,-115.84 319.286,-105.429 311.257,-112.342 317.321,-115.84"/>
<text text-anchor="middle" x="288.1" y="-144.8" font-family="Times New Roman,serif" font-size="14.00">k</text>
</g>
<!-- 1&#45;&gt;3 -->
<g id="edge7" class="edge"><title>1&#45;&gt;3</title>
<path fill="none" stroke="black" d="M263.176,-132.066C275.122,-123.954 291.036,-113.148 303.935,-104.39"/>
<polygon fill="black" stroke="black" points="305.99,-107.225 312.297,-98.7122 302.057,-101.434 305.99,-107.225"/>
<text text-anchor="middle" x="288.1" y="-119.8" font-family="Times New Roman,serif" font-size="14.00">i</text>
</g>
<!-- 2&#45;&gt;1 -->
<g id="edge2" class="edge"><title>2&#45;&gt;1</title>
<path fill="none" stroke="black" d="M173.865,-76.7075C180.537,-84.61 189.287,-94.61 197.6,-103 204.311,-109.773 211.925,-116.799 218.999,-123.082"/>
<polygon fill="black" stroke="black" points="217.139,-126.105 226.969,-130.055 221.748,-120.836 217.139,-126.105"/>
<text text-anchor="middle" x="201.1" y="-111.8" font-family="Times New Roman,serif" font-size="14.00">k</text>
</g>
<!-- 2&#45;&gt;3 -->
<g id="edge3" class="edge"><title>2&#45;&gt;3</title>
<path fill="none" stroke="black" d="M179.533,-65.6845C207.89,-70.1802 265.223,-79.2694 299.324,-84.6757"/>
<polygon fill="black" stroke="black" points="299.089,-88.1821 309.513,-86.2911 300.185,-81.2684 299.089,-88.1821"/>
<text text-anchor="middle" x="244.6" y="-82.8" font-family="Times New Roman,serif" font-size="14.00">i</text>
</g>
<!-- 3&#45;&gt;0 -->
<g id="edge9" class="edge"><title>3&#45;&gt;0</title>
<path fill="none" stroke="black" d="M314.851,-75.967C308.44,-69.3868 300.093,-61.6283 291.6,-56 281.481,-49.2943 278.187,-48.6203 266.6,-45 212.985,-28.2478 147.208,-21.7831 110.916,-19.3685"/>
<polygon fill="black" stroke="black" points="110.84,-15.8574 100.645,-18.7422 110.413,-22.8444 110.84,-15.8574"/>
<text text-anchor="middle" x="201.1" y="-33.8" font-family="Times New Roman,serif" font-size="14.00">i</text>
</g>
<!-- 3&#45;&gt;2 -->
<g id="edge8" class="edge"><title>3&#45;&gt;2</title>
<path fill="none" stroke="black" d="M312.825,-77.7468C301.273,-69.0815 283.926,-57.7991 266.6,-53 240.879,-45.8757 210.368,-50.2446 189.07,-55.2484"/>
<polygon fill="black" stroke="black" points="187.955,-51.9209 179.132,-57.7866 189.687,-58.7032 187.955,-51.9209"/>
<text text-anchor="middle" x="244.6" y="-56.8" font-family="Times New Roman,serif" font-size="14.00">k</text>
</g>
</g>
</svg>
