<?xml version="1.0" encoding="UTF-8" standalone="no"?>
<!DOCTYPE svg PUBLIC "-//W3C//DTD SVG 1.1//EN"
 "http://www.w3.org/Graphics/SVG/1.1/DTD/svg11.dtd">
<!-- Generated by graphviz version 2.38.0 (20140413.2041)
 -->
<!-- Title: dfa Pages: 1 -->
<svg width="293pt" height="99pt"
 viewBox="0.00 0.00 292.60 99.00" xmlns="http://www.w3.org/2000/svg" xmlns:xlink="http://www.w3.org/1999/xlink">
<g id="graph0" class="graph" transform="scale(1 1) rotate(0) translate(4 95)">
<title>dfa</title>
<polygon fill="white" stroke="none" points="-4,4 -4,-95 288.6,-95 288.6,4 -4,4"/>
<!-- __start -->
<!-- 0 -->
<g id="node2" class="node"><title>0</title>
<ellipse fill="none" stroke="black" cx="91.6" cy="-38" rx="27" ry="18"/>
<text text-anchor="middle" x="91.6" y="-34.3" font-family="Times New Roman,serif" font-size="14.00">0</text>
</g>
<!-- __start&#45;&gt;0 -->
<g id="edge1" class="edge"><title>__start&#45;&gt;0</title>
<path fill="none" stroke="black" d="M3.78604,-38C8.86985,-38 32.7092,-38 54.1222,-38"/>
<polygon fill="black" stroke="black" points="54.3463,-41.5001 64.3463,-38 54.3463,-34.5001 54.3463,-41.5001"/>
<text text-anchor="middle" x="34.1" y="-41.8" font-family="Times New Roman,serif" font-size="14.00">start</text>
</g>
<!-- 0&#45;&gt;0 -->
<g id="edge5" class="edge"><title>0&#45;&gt;0</title>
<path fill="none" stroke="black" d="M83.0307,-55.4099C81.4311,-65.0879 84.2875,-74 91.6,-74 96.1703,-74 99,-70.5187 100.089,-65.5449"/>
<polygon fill="black" stroke="black" points="103.59,-65.4374 100.169,-55.4099 96.5901,-65.3818 103.59,-65.4374"/>
<text text-anchor="middle" x="91.6" y="-77.8" font-family="Times New Roman,serif" font-size="14.00">i</text>
</g>
<!-- 2 -->
<g id="node4" class="node"><title>2</title>
<ellipse fill="none" stroke="black" cx="179.6" cy="-73" rx="18" ry="18"/>
<text text-anchor="middle" x="179.6" y="-69.3" font-family="Times New Roman,serif" font-size="14.00">2</text>
</g>
<!-- 0&#45;&gt;2 -->
<g id="edge4" class="edge"><title>0&#45;&gt;2</title>
<path fill="none" stroke="black" d="M107.532,-52.7589C115.477,-59.6254 125.819,-67.119 136.6,-71 141.249,-72.6736 146.376,-73.602 151.403,-74.0623"/>
<polygon fill="black" stroke="black" points="151.271,-77.5597 161.396,-74.4383 151.535,-70.5647 151.271,-77.5597"/>
<text text-anchor="middle" x="140.1" y="-75.8" font-family="Times New Roman,serif" font-size="14.00">k</text>
</g>
<!-- 1 -->
<g id="node3" class="node"><title>1</title>
<ellipse fill="none" stroke="black" cx="262.6" cy="-22" rx="18" ry="18"/>
<ellipse fill="none" stroke="black" cx="262.6" cy="-22" rx="22" ry="22"/>
<text text-anchor="middle" x="262.6" y="-18.3" font-family="Times New Roman,serif" font-size="14.00">1</text>
</g>
<!-- 1&#45;&gt;0 -->
<g id="edge6" class="edge"><title>1&#45;&gt;0</title>
<path fill="none" stroke="black" d="M240.524,-23.8269C220.282,-25.5981 188.843,-28.3923 161.6,-31 150.903,-32.024 139.278,-33.1848 128.672,-34.2625"/>
<polygon fill="black" stroke="black" points="128.07,-30.8057 118.478,-35.3045 128.782,-37.7694 128.07,-30.8057"/>
<text text-anchor="middle" x="179.6" y="-34.8" font-family="Times New Roman,serif" font-size="14.00">k</text>
</g>
<!-- 1&#45;&gt;0 -->
<g id="edge7" class="edge"><title>1&#45;&gt;0</title>
<path fill="none" stroke="black" d="M241.544,-15.1608C221.258,-9.1851 189.061,-2.28846 161.6,-8 147.977,-10.8334 133.744,-16.5032 121.768,-22.1582"/>
<polygon fill="black" stroke="black" points="120.118,-19.0695 112.702,-26.6359 123.218,-25.3458 120.118,-19.0695"/>
<text text-anchor="middle" x="179.6" y="-11.8" font-family="Times New Roman,serif" font-size="14.00">i</text>
</g>
<!-- 2&#45;&gt;0 -->
<g id="edge3" class="edge"><title>2&#45;&gt;0</title>
<path fill="none" stroke="black" d="M163.092,-65.0016C157.074,-62.0216 150.083,-58.7081 143.6,-56 137.939,-53.6349 131.845,-51.3045 125.908,-49.1451"/>
<polygon fill="black" stroke="black" points="126.764,-45.7352 116.169,-45.6965 124.427,-52.3338 126.764,-45.7352"/>
<text text-anchor="middle" x="140.1" y="-59.8" font-family="Times New Roman,serif" font-size="14.00">i</text>
</g>
<!-- 2&#45;&gt;1 -->
<g id="edge2" class="edge"><title>2&#45;&gt;1</title>
<path fill="none" stroke="black" d="M195.457,-63.6458C206.441,-56.7299 221.7,-47.1223 234.794,-38.8777"/>
<polygon fill="black" stroke="black" points="236.837,-41.7275 243.435,-33.4375 233.107,-35.8038 236.837,-41.7275"/>
<text text-anchor="middle" x="219.1" y="-53.8" font-family="Times New Roman,serif" font-size="14.00">k</text>
</g>
</g>
</svg>
