<?xml version="1.0" encoding="UTF-8" standalone="no"?>
<!DOCTYPE svg PUBLIC "-//W3C//DTD SVG 1.1//EN"
 "http://www.w3.org/Graphics/SVG/1.1/DTD/svg11.dtd">
<!-- Generated by graphviz version 2.38.0 (20140413.2041)
 -->
<!-- Title: enfa Pages: 1 -->
<svg width="356pt" height="81pt"
 viewBox="0.00 0.00 355.60 81.00" xmlns="http://www.w3.org/2000/svg" xmlns:xlink="http://www.w3.org/1999/xlink">
<g id="graph0" class="graph" transform="scale(1 1) rotate(0) translate(4 77)">
<title>enfa</title>
<polygon fill="white" stroke="none" points="-4,4 -4,-77 351.6,-77 351.6,4 -4,4"/>
<!-- __start -->
<!-- 0 -->
<g id="node2" class="node"><title>0</title>
<ellipse fill="none" stroke="black" cx="82.6" cy="-29" rx="18" ry="18"/>
<text text-anchor="middle" x="82.6" y="-25.3" font-family="Times New Roman,serif" font-size="14.00">0</text>
</g>
<!-- __start&#45;&gt;0 -->
<g id="edge1" class="edge"><title>__start&#45;&gt;0</title>
<path fill="none" stroke="black" d="M3.68496,-29C8.69573,-29 34.008,-29 54.4423,-29"/>
<polygon fill="black" stroke="black" points="54.5501,-32.5001 64.5501,-29 54.5501,-25.5001 54.5501,-32.5001"/>
<text text-anchor="middle" x="34.1" y="-32.8" font-family="Times New Roman,serif" font-size="14.00">start</text>
</g>
<!-- 2 -->
<g id="node4" class="node"><title>2</title>
<ellipse fill="none" stroke="black" cx="161.6" cy="-29" rx="18" ry="18"/>
<text text-anchor="middle" x="161.6" y="-25.3" font-family="Times New Roman,serif" font-size="14.00">2</text>
</g>
<!-- 0&#45;&gt;2 -->
<g id="edge2" class="edge"><title>0&#45;&gt;2</title>
<path fill="none" stroke="black" d="M100.689,-29C110.259,-29 122.417,-29 133.277,-29"/>
<polygon fill="black" stroke="black" points="133.559,-32.5001 143.559,-29 133.559,-25.5001 133.559,-32.5001"/>
<text text-anchor="middle" x="122.1" y="-32.8" font-family="Times New Roman,serif" font-size="14.00">ε</text>
</g>
<!-- 1 -->
<g id="node3" class="node"><title>1</title>
<ellipse fill="none" stroke="black" cx="245.6" cy="-51" rx="18" ry="18"/>
<ellipse fill="none" stroke="black" cx="245.6" cy="-51" rx="22" ry="22"/>
<text text-anchor="middle" x="245.6" y="-47.3" font-family="Times New Roman,serif" font-size="14.00">1</text>
</g>
<!-- 1&#45;&gt;2 -->
<g id="edge6" class="edge"><title>1&#45;&gt;2</title>
<path fill="none" stroke="black" d="M228.169,-37.5129C221.568,-32.9188 213.627,-28.3518 205.6,-26 200.436,-24.487 194.781,-24.0606 189.317,-24.2298"/>
<polygon fill="black" stroke="black" points="188.863,-20.7567 179.227,-25.1601 189.506,-27.7271 188.863,-20.7567"/>
<text text-anchor="middle" x="201.6" y="-29.8" font-family="Times New Roman,serif" font-size="14.00">p</text>
</g>
<!-- 3 -->
<g id="node5" class="node"><title>3</title>
<ellipse fill="none" stroke="black" cx="329.6" cy="-18" rx="18" ry="18"/>
<text text-anchor="middle" x="329.6" y="-14.3" font-family="Times New Roman,serif" font-size="14.00">3</text>
</g>
<!-- 1&#45;&gt;3 -->
<g id="edge5" class="edge"><title>1&#45;&gt;3</title>
<path fill="none" stroke="black" d="M266.45,-43.0116C277.485,-38.5707 291.335,-32.997 303.158,-28.2389"/>
<polygon fill="black" stroke="black" points="304.536,-31.4571 312.506,-24.4767 301.923,-24.9632 304.536,-31.4571"/>
<text text-anchor="middle" x="289.6" y="-37.8" font-family="Times New Roman,serif" font-size="14.00">p</text>
</g>
<!-- 2&#45;&gt;1 -->
<g id="edge4" class="edge"><title>2&#45;&gt;1</title>
<path fill="none" stroke="black" d="M177.897,-37.2078C183.889,-40.0959 190.918,-43.0939 197.6,-45 202.613,-46.43 208.025,-47.5198 213.33,-48.35"/>
<polygon fill="black" stroke="black" points="212.9,-51.8235 223.269,-49.6481 213.806,-44.8824 212.9,-51.8235"/>
<text text-anchor="middle" x="201.6" y="-49.8" font-family="Times New Roman,serif" font-size="14.00">p</text>
</g>
<!-- 3&#45;&gt;2 -->
<g id="edge3" class="edge"><title>3&#45;&gt;2</title>
<path fill="none" stroke="black" d="M312.13,-12.8182C291.369,-7.00528 254.64,0.886672 223.6,-5 211.273,-7.33781 198.25,-12.1133 187.416,-16.7933"/>
<polygon fill="black" stroke="black" points="185.825,-13.6717 178.166,-20.9916 188.718,-20.0459 185.825,-13.6717"/>
<text text-anchor="middle" x="245.6" y="-8.8" font-family="Times New Roman,serif" font-size="14.00">p</text>
</g>
</g>
</svg>
