<?xml version="1.0" encoding="UTF-8" standalone="no"?>
<!DOCTYPE svg PUBLIC "-//W3C//DTD SVG 1.1//EN"
 "http://www.w3.org/Graphics/SVG/1.1/DTD/svg11.dtd">
<!-- Generated by graphviz version 2.38.0 (20140413.2041)
 -->
<!-- Title: enfa Pages: 1 -->
<svg width="372pt" height="103pt"
 viewBox="0.00 0.00 371.60 103.00" xmlns="http://www.w3.org/2000/svg" xmlns:xlink="http://www.w3.org/1999/xlink">
<g id="graph0" class="graph" transform="scale(1 1) rotate(0) translate(4 99)">
<title>enfa</title>
<polygon fill="white" stroke="none" points="-4,4 -4,-99 367.6,-99 367.6,4 -4,4"/>
<!-- __start -->
<!-- 0 -->
<g id="node2" class="node"><title>0</title>
<ellipse fill="none" stroke="black" cx="91.6" cy="-76" rx="27" ry="18"/>
<text text-anchor="middle" x="91.6" y="-72.3" font-family="Times New Roman,serif" font-size="14.00">0</text>
</g>
<!-- __start&#45;&gt;0 -->
<g id="edge1" class="edge"><title>__start&#45;&gt;0</title>
<path fill="none" stroke="black" d="M3.78604,-76C8.86985,-76 32.7092,-76 54.1222,-76"/>
<polygon fill="black" stroke="black" points="54.3463,-79.5001 64.3463,-76 54.3463,-72.5001 54.3463,-79.5001"/>
<text text-anchor="middle" x="34.1" y="-79.8" font-family="Times New Roman,serif" font-size="14.00">start</text>
</g>
<!-- 1 -->
<g id="node3" class="node"><title>1</title>
<ellipse fill="none" stroke="black" cx="262.6" cy="-73" rx="18" ry="18"/>
<ellipse fill="none" stroke="black" cx="262.6" cy="-73" rx="22" ry="22"/>
<text text-anchor="middle" x="262.6" y="-69.3" font-family="Times New Roman,serif" font-size="14.00">1</text>
</g>
<!-- 0&#45;&gt;1 -->
<g id="edge2" class="edge"><title>0&#45;&gt;1</title>
<path fill="none" stroke="black" d="M118.931,-77.3471C140.173,-78.2301 170.819,-79.0446 197.6,-78 208.262,-77.5841 219.901,-76.78 230.295,-75.9361"/>
<polygon fill="black" stroke="black" points="230.916,-79.3959 240.582,-75.057 230.32,-72.4213 230.916,-79.3959"/>
<text text-anchor="middle" x="179.6" y="-81.8" font-family="Times New Roman,serif" font-size="14.00">a</text>
</g>
<!-- 2 -->
<g id="node4" class="node"><title>2</title>
<ellipse fill="none" stroke="black" cx="179.6" cy="-18" rx="18" ry="18"/>
<text text-anchor="middle" x="179.6" y="-14.3" font-family="Times New Roman,serif" font-size="14.00">2</text>
</g>
<!-- 0&#45;&gt;2 -->
<g id="edge3" class="edge"><title>0&#45;&gt;2</title>
<path fill="none" stroke="black" d="M111.261,-63.4149C124.31,-54.6145 141.817,-42.8071 155.71,-33.4375"/>
<polygon fill="black" stroke="black" points="157.901,-36.1817 164.234,-27.6885 153.987,-30.3782 157.901,-36.1817"/>
<text text-anchor="middle" x="140.1" y="-48.8" font-family="Times New Roman,serif" font-size="14.00">a</text>
</g>
<!-- 3 -->
<g id="node5" class="node"><title>3</title>
<ellipse fill="none" stroke="black" cx="345.6" cy="-40" rx="18" ry="18"/>
<text text-anchor="middle" x="345.6" y="-36.3" font-family="Times New Roman,serif" font-size="14.00">3</text>
</g>
<!-- 1&#45;&gt;3 -->
<g id="edge4" class="edge"><title>1&#45;&gt;3</title>
<path fill="none" stroke="black" d="M283.208,-65.0116C293.999,-60.6151 307.516,-55.1083 319.117,-50.3819"/>
<polygon fill="black" stroke="black" points="320.762,-53.491 328.703,-46.4767 318.121,-47.0084 320.762,-53.491"/>
<text text-anchor="middle" x="306.1" y="-59.8" font-family="Times New Roman,serif" font-size="14.00">v</text>
</g>
<!-- 2&#45;&gt;1 -->
<g id="edge5" class="edge"><title>2&#45;&gt;1</title>
<path fill="none" stroke="black" d="M195.081,-27.8329C206.28,-35.4368 222.081,-46.1658 235.472,-55.2591"/>
<polygon fill="black" stroke="black" points="233.613,-58.2272 243.852,-60.9491 237.545,-52.436 233.613,-58.2272"/>
<text text-anchor="middle" x="219.1" y="-48.8" font-family="Times New Roman,serif" font-size="14.00">v</text>
</g>
<!-- 2&#45;&gt;2 -->
<g id="edge6" class="edge"><title>2&#45;&gt;2</title>
<path fill="none" stroke="black" d="M172.866,-35.0373C171.492,-44.8579 173.737,-54 179.6,-54 183.265,-54 185.516,-50.4289 186.353,-45.3529"/>
<polygon fill="black" stroke="black" points="189.852,-45.0307 186.334,-35.0373 182.852,-45.0439 189.852,-45.0307"/>
<text text-anchor="middle" x="179.6" y="-57.8" font-family="Times New Roman,serif" font-size="14.00">v</text>
</g>
<!-- 2&#45;&gt;3 -->
<g id="edge7" class="edge"><title>2&#45;&gt;3</title>
<path fill="none" stroke="black" d="M197.611,-18.8075C218.27,-19.941 254.136,-22.4006 284.6,-27 295.666,-28.6707 307.748,-31.1579 318.151,-33.5107"/>
<polygon fill="black" stroke="black" points="317.361,-36.9203 327.895,-35.7835 318.951,-30.1033 317.361,-36.9203"/>
<text text-anchor="middle" x="262.6" y="-30.8" font-family="Times New Roman,serif" font-size="14.00">v</text>
</g>
</g>
</svg>
