<?xml version="1.0" encoding="UTF-8" standalone="no"?>
<!DOCTYPE svg PUBLIC "-//W3C//DTD SVG 1.1//EN"
 "http://www.w3.org/Graphics/SVG/1.1/DTD/svg11.dtd">
<!-- Generated by graphviz version 2.38.0 (20140413.2041)
 -->
<!-- Title: enfa Pages: 1 -->
<svg width="354pt" height="103pt"
 viewBox="0.00 0.00 353.60 103.00" xmlns="http://www.w3.org/2000/svg" xmlns:xlink="http://www.w3.org/1999/xlink">
<g id="graph0" class="graph" transform="scale(1 1) rotate(0) translate(4 99)">
<title>enfa</title>
<polygon fill="white" stroke="none" points="-4,4 -4,-99 349.6,-99 349.6,4 -4,4"/>
<!-- __start -->
<!-- 0 -->
<g id="node2" class="node"><title>0</title>
<ellipse fill="none" stroke="black" cx="82.6" cy="-76" rx="18" ry="18"/>
<text text-anchor="middle" x="82.6" y="-72.3" font-family="Times New Roman,serif" font-size="14.00">0</text>
</g>
<!-- __start&#45;&gt;0 -->
<g id="edge1" class="edge"><title>__start&#45;&gt;0</title>
<path fill="none" stroke="black" d="M3.68496,-76C8.69573,-76 34.008,-76 54.4423,-76"/>
<polygon fill="black" stroke="black" points="54.5501,-79.5001 64.5501,-76 54.5501,-72.5001 54.5501,-79.5001"/>
<text text-anchor="middle" x="34.1" y="-79.8" font-family="Times New Roman,serif" font-size="14.00">start</text>
</g>
<!-- 1 -->
<g id="node3" class="node"><title>1</title>
<ellipse fill="none" stroke="black" cx="244.6" cy="-73" rx="18" ry="18"/>
<ellipse fill="none" stroke="black" cx="244.6" cy="-73" rx="22" ry="22"/>
<text text-anchor="middle" x="244.6" y="-69.3" font-family="Times New Roman,serif" font-size="14.00">1</text>
</g>
<!-- 0&#45;&gt;1 -->
<g id="edge2" class="edge"><title>0&#45;&gt;1</title>
<path fill="none" stroke="black" d="M100.665,-76.7202C112.671,-77.1898 129.115,-77.7586 143.6,-78 159.598,-78.2666 163.612,-78.6236 179.6,-78 190.262,-77.5841 201.901,-76.78 212.295,-75.9361"/>
<polygon fill="black" stroke="black" points="212.916,-79.3959 222.582,-75.057 212.32,-72.4213 212.916,-79.3959"/>
<text text-anchor="middle" x="161.6" y="-81.8" font-family="Times New Roman,serif" font-size="14.00">a</text>
</g>
<!-- 2 -->
<g id="node4" class="node"><title>2</title>
<ellipse fill="none" stroke="black" cx="161.6" cy="-18" rx="18" ry="18"/>
<text text-anchor="middle" x="161.6" y="-14.3" font-family="Times New Roman,serif" font-size="14.00">2</text>
</g>
<!-- 0&#45;&gt;2 -->
<g id="edge3" class="edge"><title>0&#45;&gt;2</title>
<path fill="none" stroke="black" d="M97.3661,-65.6308C108.792,-57.0241 125.259,-44.6207 138.524,-34.6288"/>
<polygon fill="black" stroke="black" points="140.812,-37.2873 146.694,-28.475 136.6,-31.696 140.812,-37.2873"/>
<text text-anchor="middle" x="122.1" y="-51.8" font-family="Times New Roman,serif" font-size="14.00">a</text>
</g>
<!-- 3 -->
<g id="node5" class="node"><title>3</title>
<ellipse fill="none" stroke="black" cx="327.6" cy="-40" rx="18" ry="18"/>
<text text-anchor="middle" x="327.6" y="-36.3" font-family="Times New Roman,serif" font-size="14.00">3</text>
</g>
<!-- 1&#45;&gt;3 -->
<g id="edge4" class="edge"><title>1&#45;&gt;3</title>
<path fill="none" stroke="black" d="M265.208,-65.0116C275.999,-60.6151 289.516,-55.1083 301.117,-50.3819"/>
<polygon fill="black" stroke="black" points="302.762,-53.491 310.703,-46.4767 300.121,-47.0084 302.762,-53.491"/>
<text text-anchor="middle" x="288.1" y="-59.8" font-family="Times New Roman,serif" font-size="14.00">v</text>
</g>
<!-- 2&#45;&gt;1 -->
<g id="edge5" class="edge"><title>2&#45;&gt;1</title>
<path fill="none" stroke="black" d="M177.081,-27.8329C188.28,-35.4368 204.081,-46.1658 217.472,-55.2591"/>
<polygon fill="black" stroke="black" points="215.613,-58.2272 225.852,-60.9491 219.545,-52.436 215.613,-58.2272"/>
<text text-anchor="middle" x="201.1" y="-48.8" font-family="Times New Roman,serif" font-size="14.00">v</text>
</g>
<!-- 2&#45;&gt;2 -->
<g id="edge6" class="edge"><title>2&#45;&gt;2</title>
<path fill="none" stroke="black" d="M154.866,-35.0373C153.492,-44.8579 155.737,-54 161.6,-54 165.265,-54 167.516,-50.4289 168.353,-45.3529"/>
<polygon fill="black" stroke="black" points="171.852,-45.0307 168.334,-35.0373 164.852,-45.0439 171.852,-45.0307"/>
<text text-anchor="middle" x="161.6" y="-57.8" font-family="Times New Roman,serif" font-size="14.00">v</text>
</g>
<!-- 2&#45;&gt;3 -->
<g id="edge7" class="edge"><title>2&#45;&gt;3</title>
<path fill="none" stroke="black" d="M179.611,-18.8075C200.27,-19.941 236.136,-22.4006 266.6,-27 277.666,-28.6707 289.748,-31.1579 300.151,-33.5107"/>
<polygon fill="black" stroke="black" points="299.361,-36.9203 309.895,-35.7835 300.951,-30.1033 299.361,-36.9203"/>
<text text-anchor="middle" x="244.6" y="-30.8" font-family="Times New Roman,serif" font-size="14.00">v</text>
</g>
</g>
</svg>
