<?xml version="1.0" encoding="UTF-8" standalone="no"?>
<!DOCTYPE svg PUBLIC "-//W3C//DTD SVG 1.1//EN"
 "http://www.w3.org/Graphics/SVG/1.1/DTD/svg11.dtd">
<!-- Generated by graphviz version 2.38.0 (20140413.2041)
 -->
<!-- Title: dfa Pages: 1 -->
<svg width="293pt" height="114pt"
 viewBox="0.00 0.00 292.60 114.00" xmlns="http://www.w3.org/2000/svg" xmlns:xlink="http://www.w3.org/1999/xlink">
<g id="graph0" class="graph" transform="scale(1 1) rotate(0) translate(4 110)">
<title>dfa</title>
<polygon fill="white" stroke="none" points="-4,4 -4,-110 288.6,-110 288.6,4 -4,4"/>
<!-- __start -->
<!-- 0 -->
<g id="node2" class="node"><title>0</title>
<ellipse fill="none" stroke="black" cx="91.6" cy="-18" rx="27" ry="18"/>
<text text-anchor="middle" x="91.6" y="-14.3" font-family="Times New Roman,serif" font-size="14.00">0</text>
</g>
<!-- __start&#45;&gt;0 -->
<g id="edge1" class="edge"><title>__start&#45;&gt;0</title>
<path fill="none" stroke="black" d="M3.78604,-18C8.86985,-18 32.7092,-18 54.1222,-18"/>
<polygon fill="black" stroke="black" points="54.3463,-21.5001 64.3463,-18 54.3463,-14.5001 54.3463,-21.5001"/>
<text text-anchor="middle" x="34.1" y="-21.8" font-family="Times New Roman,serif" font-size="14.00">start</text>
</g>
<!-- 1 -->
<g id="node3" class="node"><title>1</title>
<ellipse fill="none" stroke="black" cx="183.6" cy="-51" rx="18" ry="18"/>
<ellipse fill="none" stroke="black" cx="183.6" cy="-51" rx="22" ry="22"/>
<text text-anchor="middle" x="183.6" y="-47.3" font-family="Times New Roman,serif" font-size="14.00">1</text>
</g>
<!-- 0&#45;&gt;1 -->
<g id="edge2" class="edge"><title>0&#45;&gt;1</title>
<path fill="none" stroke="black" d="M115.777,-26.4983C127.089,-30.646 140.828,-35.6836 152.9,-40.1099"/>
<polygon fill="black" stroke="black" points="151.964,-43.4947 162.558,-43.6513 154.374,-36.9226 151.964,-43.4947"/>
<text text-anchor="middle" x="140.1" y="-39.8" font-family="Times New Roman,serif" font-size="14.00">a</text>
</g>
<!-- 2 -->
<g id="node4" class="node"><title>2</title>
<ellipse fill="none" stroke="black" cx="266.6" cy="-18" rx="18" ry="18"/>
<text text-anchor="middle" x="266.6" y="-14.3" font-family="Times New Roman,serif" font-size="14.00">2</text>
</g>
<!-- 0&#45;&gt;2 -->
<g id="edge3" class="edge"><title>0&#45;&gt;2</title>
<path fill="none" stroke="black" d="M117.353,-12.1798C130.428,-9.39999 146.793,-6.38273 161.6,-5 181.071,-3.18178 186.156,-2.91768 205.6,-5 216.728,-6.19167 228.821,-8.59277 239.216,-11.0107"/>
<polygon fill="black" stroke="black" points="238.4,-14.4144 248.945,-13.3901 240.063,-7.61475 238.4,-14.4144"/>
<text text-anchor="middle" x="183.6" y="-8.8" font-family="Times New Roman,serif" font-size="14.00">v</text>
</g>
<!-- 1&#45;&gt;1 -->
<g id="edge5" class="edge"><title>1&#45;&gt;1</title>
<path fill="none" stroke="black" d="M175.917,-71.9908C174.969,-82.0872 177.53,-91 183.6,-91 187.489,-91 189.937,-87.3422 190.946,-82.0587"/>
<polygon fill="black" stroke="black" points="194.446,-82.1023 191.283,-71.9908 187.45,-81.868 194.446,-82.1023"/>
<text text-anchor="middle" x="183.6" y="-94.8" font-family="Times New Roman,serif" font-size="14.00">v</text>
</g>
<!-- 1&#45;&gt;2 -->
<g id="edge4" class="edge"><title>1&#45;&gt;2</title>
<path fill="none" stroke="black" d="M204.208,-43.0116C214.999,-38.6151 228.516,-33.1083 240.117,-28.3819"/>
<polygon fill="black" stroke="black" points="241.762,-31.491 249.703,-24.4767 239.121,-25.0084 241.762,-31.491"/>
<text text-anchor="middle" x="227.1" y="-37.8" font-family="Times New Roman,serif" font-size="14.00">a</text>
</g>
<!-- 2&#45;&gt;2 -->
<g id="edge6" class="edge"><title>2&#45;&gt;2</title>
<path fill="none" stroke="black" d="M263.184,-35.7817C262.604,-45.3149 263.743,-54 266.6,-54 268.341,-54 269.444,-50.7749 269.909,-46.0981"/>
<polygon fill="black" stroke="black" points="273.412,-45.8174 270.016,-35.7817 266.412,-45.745 273.412,-45.8174"/>
<text text-anchor="middle" x="266.6" y="-57.8" font-family="Times New Roman,serif" font-size="14.00">a</text>
</g>
<!-- 2&#45;&gt;2 -->
<g id="edge7" class="edge"><title>2&#45;&gt;2</title>
<path fill="none" stroke="black" d="M261.041,-35.1418C257.77,-52.585 259.623,-72 266.6,-72 272.214,-72 274.51,-59.4283 273.489,-45.4287"/>
<polygon fill="black" stroke="black" points="276.913,-44.6105 272.159,-35.1418 269.97,-45.508 276.913,-44.6105"/>
<text text-anchor="middle" x="266.6" y="-75.8" font-family="Times New Roman,serif" font-size="14.00">v</text>
</g>
</g>
</svg>
