<?xml version="1.0" encoding="UTF-8" standalone="no"?>
<!DOCTYPE svg PUBLIC "-//W3C//DTD SVG 1.1//EN"
 "http://www.w3.org/Graphics/SVG/1.1/DTD/svg11.dtd">
<!-- Generated by graphviz version 2.38.0 (20140413.2041)
 -->
<!-- Title: dfa Pages: 1 -->
<svg width="275pt" height="114pt"
 viewBox="0.00 0.00 274.60 114.00" xmlns="http://www.w3.org/2000/svg" xmlns:xlink="http://www.w3.org/1999/xlink">
<g id="graph0" class="graph" transform="scale(1 1) rotate(0) translate(4 110)">
<title>dfa</title>
<polygon fill="white" stroke="none" points="-4,4 -4,-110 270.6,-110 270.6,4 -4,4"/>
<!-- __start -->
<!-- 0 -->
<g id="node2" class="node"><title>0</title>
<ellipse fill="none" stroke="black" cx="82.6" cy="-18" rx="18" ry="18"/>
<text text-anchor="middle" x="82.6" y="-14.3" font-family="Times New Roman,serif" font-size="14.00">0</text>
</g>
<!-- __start&#45;&gt;0 -->
<g id="edge1" class="edge"><title>__start&#45;&gt;0</title>
<path fill="none" stroke="black" d="M3.68496,-18C8.69573,-18 34.008,-18 54.4423,-18"/>
<polygon fill="black" stroke="black" points="54.5501,-21.5001 64.5501,-18 54.5501,-14.5001 54.5501,-21.5001"/>
<text text-anchor="middle" x="34.1" y="-21.8" font-family="Times New Roman,serif" font-size="14.00">start</text>
</g>
<!-- 1 -->
<g id="node3" class="node"><title>1</title>
<ellipse fill="none" stroke="black" cx="165.6" cy="-51" rx="18" ry="18"/>
<ellipse fill="none" stroke="black" cx="165.6" cy="-51" rx="22" ry="22"/>
<text text-anchor="middle" x="165.6" y="-47.3" font-family="Times New Roman,serif" font-size="14.00">1</text>
</g>
<!-- 0&#45;&gt;1 -->
<g id="edge2" class="edge"><title>0&#45;&gt;1</title>
<path fill="none" stroke="black" d="M99.603,-24.5197C109.862,-28.6994 123.481,-34.2476 135.601,-39.1854"/>
<polygon fill="black" stroke="black" points="134.325,-42.445 144.907,-42.9767 136.966,-35.9624 134.325,-42.445"/>
<text text-anchor="middle" x="122.1" y="-37.8" font-family="Times New Roman,serif" font-size="14.00">a</text>
</g>
<!-- 2 -->
<g id="node4" class="node"><title>2</title>
<ellipse fill="none" stroke="black" cx="248.6" cy="-18" rx="18" ry="18"/>
<text text-anchor="middle" x="248.6" y="-14.3" font-family="Times New Roman,serif" font-size="14.00">2</text>
</g>
<!-- 0&#45;&gt;2 -->
<g id="edge3" class="edge"><title>0&#45;&gt;2</title>
<path fill="none" stroke="black" d="M100.255,-13.3901C112.21,-10.3279 128.763,-6.58889 143.6,-5 163.044,-2.91768 168.156,-2.91768 187.6,-5 198.728,-6.19167 210.821,-8.59277 221.216,-11.0107"/>
<polygon fill="black" stroke="black" points="220.4,-14.4144 230.945,-13.3901 222.063,-7.61475 220.4,-14.4144"/>
<text text-anchor="middle" x="165.6" y="-8.8" font-family="Times New Roman,serif" font-size="14.00">v</text>
</g>
<!-- 1&#45;&gt;1 -->
<g id="edge5" class="edge"><title>1&#45;&gt;1</title>
<path fill="none" stroke="black" d="M157.917,-71.9908C156.969,-82.0872 159.53,-91 165.6,-91 169.489,-91 171.937,-87.3422 172.946,-82.0587"/>
<polygon fill="black" stroke="black" points="176.446,-82.1023 173.283,-71.9908 169.45,-81.868 176.446,-82.1023"/>
<text text-anchor="middle" x="165.6" y="-94.8" font-family="Times New Roman,serif" font-size="14.00">v</text>
</g>
<!-- 1&#45;&gt;2 -->
<g id="edge4" class="edge"><title>1&#45;&gt;2</title>
<path fill="none" stroke="black" d="M186.208,-43.0116C196.999,-38.6151 210.516,-33.1083 222.117,-28.3819"/>
<polygon fill="black" stroke="black" points="223.762,-31.491 231.703,-24.4767 221.121,-25.0084 223.762,-31.491"/>
<text text-anchor="middle" x="209.1" y="-37.8" font-family="Times New Roman,serif" font-size="14.00">a</text>
</g>
<!-- 2&#45;&gt;2 -->
<g id="edge6" class="edge"><title>2&#45;&gt;2</title>
<path fill="none" stroke="black" d="M245.184,-35.7817C244.604,-45.3149 245.743,-54 248.6,-54 250.341,-54 251.444,-50.7749 251.909,-46.0981"/>
<polygon fill="black" stroke="black" points="255.412,-45.8174 252.016,-35.7817 248.412,-45.745 255.412,-45.8174"/>
<text text-anchor="middle" x="248.6" y="-57.8" font-family="Times New Roman,serif" font-size="14.00">a</text>
</g>
<!-- 2&#45;&gt;2 -->
<g id="edge7" class="edge"><title>2&#45;&gt;2</title>
<path fill="none" stroke="black" d="M243.041,-35.1418C239.77,-52.585 241.623,-72 248.6,-72 254.214,-72 256.51,-59.4283 255.489,-45.4287"/>
<polygon fill="black" stroke="black" points="258.913,-44.6105 254.159,-35.1418 251.97,-45.508 258.913,-44.6105"/>
<text text-anchor="middle" x="248.6" y="-75.8" font-family="Times New Roman,serif" font-size="14.00">v</text>
</g>
</g>
</svg>
