<?xml version="1.0" encoding="UTF-8" standalone="no"?>
<!DOCTYPE svg PUBLIC "-//W3C//DTD SVG 1.1//EN"
 "http://www.w3.org/Graphics/SVG/1.1/DTD/svg11.dtd">
<!-- Generated by graphviz version 2.38.0 (20140413.2041)
 -->
<!-- Title: dfa Pages: 1 -->
<svg width="447pt" height="198pt"
 viewBox="0.00 0.00 447.08 197.70" xmlns="http://www.w3.org/2000/svg" xmlns:xlink="http://www.w3.org/1999/xlink">
<g id="graph0" class="graph" transform="scale(1 1) rotate(0) translate(4 193.697)">
<title>dfa</title>
<polygon fill="white" stroke="none" points="-4,4 -4,-193.697 443.084,-193.697 443.084,4 -4,4"/>
<!-- __start -->
<!-- {0} -->
<g id="node2" class="node"><title>{0}</title>
<ellipse fill="none" stroke="black" cx="91.6" cy="-18" rx="27" ry="18"/>
<text text-anchor="middle" x="91.6" y="-14.3" font-family="Times New Roman,serif" font-size="14.00">{0}</text>
</g>
<!-- __start&#45;&gt;{0} -->
<g id="edge1" class="edge"><title>__start&#45;&gt;{0}</title>
<path fill="none" stroke="black" d="M3.78604,-18C8.86985,-18 32.7092,-18 54.1222,-18"/>
<polygon fill="black" stroke="black" points="54.3463,-21.5001 64.3463,-18 54.3463,-14.5001 54.3463,-21.5001"/>
<text text-anchor="middle" x="34.1" y="-21.8" font-family="Times New Roman,serif" font-size="14.00">start</text>
</g>
<!-- {1,2} -->
<g id="node3" class="node"><title>{1,2}</title>
<ellipse fill="none" stroke="black" cx="196.147" cy="-57" rx="30.5892" ry="30.5892"/>
<ellipse fill="none" stroke="black" cx="196.147" cy="-57" rx="34.5946" ry="34.5946"/>
<text text-anchor="middle" x="196.147" y="-53.3" font-family="Times New Roman,serif" font-size="14.00">{1,2}</text>
</g>
<!-- {0}&#45;&gt;{1,2} -->
<g id="edge2" class="edge"><title>{0}&#45;&gt;{1,2}</title>
<path fill="none" stroke="black" d="M115.359,-26.6554C126.754,-30.9893 140.905,-36.371 154.112,-41.3936"/>
<polygon fill="black" stroke="black" points="152.917,-44.6838 163.508,-44.9672 155.405,-38.141 152.917,-44.6838"/>
<text text-anchor="middle" x="140.1" y="-41.8" font-family="Times New Roman,serif" font-size="14.00">a</text>
</g>
<!-- {} -->
<g id="node5" class="node"><title>{}</title>
<ellipse fill="none" stroke="black" cx="419.586" cy="-40" rx="19.4965" ry="19.4965"/>
<text text-anchor="middle" x="419.586" y="-36.3" font-family="Times New Roman,serif" font-size="14.00">{}</text>
</g>
<!-- {0}&#45;&gt;{} -->
<g id="edge3" class="edge"><title>{0}&#45;&gt;{}</title>
<path fill="none" stroke="black" d="M118.461,-15.6808C131.403,-14.6336 147.317,-13.5168 161.6,-13 192.289,-11.8895 200.064,-10.8104 230.695,-13 287.688,-17.0741 353.669,-28.0148 390.319,-34.652"/>
<polygon fill="black" stroke="black" points="389.81,-38.1171 400.278,-36.481 391.075,-31.2322 389.81,-38.1171"/>
<text text-anchor="middle" x="252.195" y="-19.8" font-family="Times New Roman,serif" font-size="14.00">v</text>
</g>
<!-- {1,2,3} -->
<g id="node4" class="node"><title>{1,2,3}</title>
<ellipse fill="none" stroke="black" cx="315.391" cy="-115" rx="37.8753" ry="37.8753"/>
<ellipse fill="none" stroke="black" cx="315.391" cy="-115" rx="41.8942" ry="41.8942"/>
<text text-anchor="middle" x="315.391" y="-111.3" font-family="Times New Roman,serif" font-size="14.00">{1,2,3}</text>
</g>
<!-- {1,2}&#45;&gt;{1,2,3} -->
<g id="edge5" class="edge"><title>{1,2}&#45;&gt;{1,2,3}</title>
<path fill="none" stroke="black" d="M227.341,-71.9364C239.799,-78.0997 254.518,-85.3812 268.274,-92.186"/>
<polygon fill="black" stroke="black" points="267.088,-95.5044 277.604,-96.8014 270.192,-89.2301 267.088,-95.5044"/>
<text text-anchor="middle" x="252.195" y="-89.8" font-family="Times New Roman,serif" font-size="14.00">v</text>
</g>
<!-- {1,2}&#45;&gt;{} -->
<g id="edge4" class="edge"><title>{1,2}&#45;&gt;{}</title>
<path fill="none" stroke="black" d="M230.654,-53.1895C244.03,-51.749 259.58,-50.1754 273.695,-49 313.783,-45.6616 360.205,-42.9876 389.48,-41.4471"/>
<polygon fill="black" stroke="black" points="390.006,-44.9247 399.812,-40.9132 389.645,-37.9341 390.006,-44.9247"/>
<text text-anchor="middle" x="315.391" y="-52.8" font-family="Times New Roman,serif" font-size="14.00">a</text>
</g>
<!-- {1,2,3}&#45;&gt;{1,2,3} -->
<g id="edge7" class="edge"><title>{1,2,3}&#45;&gt;{1,2,3}</title>
<path fill="none" stroke="black" d="M303.837,-155.176C304.395,-166.241 308.247,-174.697 315.391,-174.697 320.08,-174.697 323.35,-171.055 325.202,-165.424"/>
<polygon fill="black" stroke="black" points="328.719,-165.621 326.945,-155.176 321.818,-164.448 328.719,-165.621"/>
<text text-anchor="middle" x="315.391" y="-178.497" font-family="Times New Roman,serif" font-size="14.00">v</text>
</g>
<!-- {1,2,3}&#45;&gt;{} -->
<g id="edge6" class="edge"><title>{1,2,3}&#45;&gt;{}</title>
<path fill="none" stroke="black" d="M349.571,-90.6496C364.392,-79.7727 381.515,-67.2059 394.998,-57.311"/>
<polygon fill="black" stroke="black" points="397.281,-59.9773 403.272,-51.239 393.139,-54.334 397.281,-59.9773"/>
<text text-anchor="middle" x="378.588" y="-74.8" font-family="Times New Roman,serif" font-size="14.00">a</text>
</g>
<!-- {}&#45;&gt;{} -->
<g id="edge8" class="edge"><title>{}&#45;&gt;{}</title>
<path fill="none" stroke="black" d="M415.947,-59.2936C415.443,-68.9156 416.656,-77.4983 419.586,-77.4983 421.371,-77.4983 422.519,-74.3112 423.03,-69.644"/>
<polygon fill="black" stroke="black" points="426.536,-69.358 423.225,-59.2936 419.537,-69.2256 426.536,-69.358"/>
<text text-anchor="middle" x="419.586" y="-81.2983" font-family="Times New Roman,serif" font-size="14.00">a</text>
</g>
<!-- {}&#45;&gt;{} -->
<g id="edge9" class="edge"><title>{}&#45;&gt;{}</title>
<path fill="none" stroke="black" d="M413.522,-58.7642C410.377,-76.3846 412.399,-95.4983 419.586,-95.4983 425.426,-95.4983 427.855,-82.8803 426.875,-68.6973"/>
<polygon fill="black" stroke="black" points="430.347,-68.2611 425.651,-58.7642 423.4,-69.1172 430.347,-68.2611"/>
<text text-anchor="middle" x="419.586" y="-99.2983" font-family="Times New Roman,serif" font-size="14.00">v</text>
</g>
</g>
</svg>
