<?xml version="1.0" encoding="UTF-8" standalone="no"?>
<!DOCTYPE svg PUBLIC "-//W3C//DTD SVG 1.1//EN"
 "http://www.w3.org/Graphics/SVG/1.1/DTD/svg11.dtd">
<!-- Generated by graphviz version 2.38.0 (20140413.2041)
 -->
<!-- Title: dfa Pages: 1 -->
<svg width="441pt" height="204pt"
 viewBox="0.00 0.00 441.18 203.74" xmlns="http://www.w3.org/2000/svg" xmlns:xlink="http://www.w3.org/1999/xlink">
<g id="graph0" class="graph" transform="scale(1 1) rotate(0) translate(4 199.745)">
<title>dfa</title>
<polygon fill="white" stroke="none" points="-4,4 -4,-199.745 437.18,-199.745 437.18,4 -4,4"/>
<!-- __start -->
<!-- {0} -->
<g id="node2" class="node"><title>{0}</title>
<ellipse fill="none" stroke="black" cx="88.6479" cy="-24.0479" rx="24.0958" ry="24.0958"/>
<text text-anchor="middle" x="88.6479" y="-20.3479" font-family="Times New Roman,serif" font-size="14.00">{0}</text>
</g>
<!-- __start&#45;&gt;{0} -->
<g id="edge1" class="edge"><title>__start&#45;&gt;{0}</title>
<path fill="none" stroke="black" d="M3.75288,-24.0479C8.82222,-24.0479 33.1893,-24.0479 54.3658,-24.0479"/>
<polygon fill="black" stroke="black" points="54.4068,-27.548 64.4067,-24.0479 54.4067,-20.548 54.4068,-27.548"/>
<text text-anchor="middle" x="34.1" y="-27.8479" font-family="Times New Roman,serif" font-size="14.00">start</text>
</g>
<!-- {1,2} -->
<g id="node3" class="node"><title>{1,2}</title>
<ellipse fill="none" stroke="black" cx="190.243" cy="-63.0479" rx="30.5892" ry="30.5892"/>
<ellipse fill="none" stroke="black" cx="190.243" cy="-63.0479" rx="34.5946" ry="34.5946"/>
<text text-anchor="middle" x="190.243" y="-59.3479" font-family="Times New Roman,serif" font-size="14.00">{1,2}</text>
</g>
<!-- {0}&#45;&gt;{1,2} -->
<g id="edge2" class="edge"><title>{0}&#45;&gt;{1,2}</title>
<path fill="none" stroke="black" d="M111.259,-32.5103C122.109,-36.7591 135.621,-42.0504 148.335,-47.0288"/>
<polygon fill="black" stroke="black" points="147.256,-50.3651 157.844,-50.7524 149.808,-43.847 147.256,-50.3651"/>
<text text-anchor="middle" x="134.196" y="-46.8479" font-family="Times New Roman,serif" font-size="14.00">a</text>
</g>
<!-- {} -->
<g id="node5" class="node"><title>{}</title>
<ellipse fill="none" stroke="black" cx="413.682" cy="-46.0479" rx="19.4965" ry="19.4965"/>
<text text-anchor="middle" x="413.682" y="-42.3479" font-family="Times New Roman,serif" font-size="14.00">{}</text>
</g>
<!-- {0}&#45;&gt;{} -->
<g id="edge3" class="edge"><title>{0}&#45;&gt;{}</title>
<path fill="none" stroke="black" d="M112.854,-21.8603C125.505,-20.7764 141.447,-19.5864 155.696,-19.0479 186.383,-17.888 194.16,-16.8583 224.79,-19.0479 281.784,-23.1219 347.764,-34.0627 384.414,-40.6999"/>
<polygon fill="black" stroke="black" points="383.906,-44.1649 394.374,-42.5289 385.17,-37.2801 383.906,-44.1649"/>
<text text-anchor="middle" x="246.29" y="-25.8479" font-family="Times New Roman,serif" font-size="14.00">v</text>
</g>
<!-- {1,2,3} -->
<g id="node4" class="node"><title>{1,2,3}</title>
<ellipse fill="none" stroke="black" cx="309.487" cy="-121.048" rx="37.8753" ry="37.8753"/>
<ellipse fill="none" stroke="black" cx="309.487" cy="-121.048" rx="41.8942" ry="41.8942"/>
<text text-anchor="middle" x="309.487" y="-117.348" font-family="Times New Roman,serif" font-size="14.00">{1,2,3}</text>
</g>
<!-- {1,2}&#45;&gt;{1,2,3} -->
<g id="edge5" class="edge"><title>{1,2}&#45;&gt;{1,2,3}</title>
<path fill="none" stroke="black" d="M221.436,-77.9843C233.895,-84.1476 248.614,-91.4291 262.37,-98.2339"/>
<polygon fill="black" stroke="black" points="261.184,-101.552 271.699,-102.849 264.288,-95.278 261.184,-101.552"/>
<text text-anchor="middle" x="246.29" y="-95.8479" font-family="Times New Roman,serif" font-size="14.00">v</text>
</g>
<!-- {1,2}&#45;&gt;{} -->
<g id="edge4" class="edge"><title>{1,2}&#45;&gt;{}</title>
<path fill="none" stroke="black" d="M224.749,-59.2374C238.126,-57.7969 253.676,-56.2233 267.79,-55.0479 307.878,-51.7095 354.301,-49.0354 383.576,-47.495"/>
<polygon fill="black" stroke="black" points="384.102,-50.9726 393.908,-46.9611 383.74,-43.9819 384.102,-50.9726"/>
<text text-anchor="middle" x="309.487" y="-58.8479" font-family="Times New Roman,serif" font-size="14.00">a</text>
</g>
<!-- {1,2,3}&#45;&gt;{1,2,3} -->
<g id="edge7" class="edge"><title>{1,2,3}&#45;&gt;{1,2,3}</title>
<path fill="none" stroke="black" d="M297.933,-161.224C298.491,-172.289 302.342,-180.745 309.487,-180.745 314.176,-180.745 317.446,-177.103 319.298,-171.472"/>
<polygon fill="black" stroke="black" points="322.815,-171.669 321.041,-161.224 315.914,-170.496 322.815,-171.669"/>
<text text-anchor="middle" x="309.487" y="-184.545" font-family="Times New Roman,serif" font-size="14.00">v</text>
</g>
<!-- {1,2,3}&#45;&gt;{} -->
<g id="edge6" class="edge"><title>{1,2,3}&#45;&gt;{}</title>
<path fill="none" stroke="black" d="M343.667,-96.6975C358.488,-85.8206 375.611,-73.2538 389.094,-63.3588"/>
<polygon fill="black" stroke="black" points="391.376,-66.0252 397.368,-57.2869 387.235,-60.3818 391.376,-66.0252"/>
<text text-anchor="middle" x="372.684" y="-80.8479" font-family="Times New Roman,serif" font-size="14.00">a</text>
</g>
<!-- {}&#45;&gt;{} -->
<g id="edge8" class="edge"><title>{}&#45;&gt;{}</title>
<path fill="none" stroke="black" d="M410.043,-65.3415C409.539,-74.9635 410.752,-83.5461 413.682,-83.5461 415.467,-83.5461 416.615,-80.3591 417.125,-75.6919"/>
<polygon fill="black" stroke="black" points="420.631,-75.4059 417.321,-65.3415 413.633,-75.2735 420.631,-75.4059"/>
<text text-anchor="middle" x="413.682" y="-87.3461" font-family="Times New Roman,serif" font-size="14.00">a</text>
</g>
<!-- {}&#45;&gt;{} -->
<g id="edge9" class="edge"><title>{}&#45;&gt;{}</title>
<path fill="none" stroke="black" d="M407.617,-64.8121C404.473,-82.4325 406.494,-101.546 413.682,-101.546 419.522,-101.546 421.951,-88.9281 420.97,-74.7452"/>
<polygon fill="black" stroke="black" points="424.443,-74.3089 419.746,-64.8121 417.496,-75.1651 424.443,-74.3089"/>
<text text-anchor="middle" x="413.682" y="-105.346" font-family="Times New Roman,serif" font-size="14.00">v</text>
</g>
</g>
</svg>
