<?xml version="1.0" encoding="UTF-8" standalone="no"?>
<!DOCTYPE svg PUBLIC "-//W3C//DTD SVG 1.1//EN"
 "http://www.w3.org/Graphics/SVG/1.1/DTD/svg11.dtd">
<!-- Generated by graphviz version 2.38.0 (20140413.2041)
 -->
<!-- Title: dfa Pages: 1 -->
<svg width="355pt" height="135pt"
 viewBox="0.00 0.00 354.60 135.00" xmlns="http://www.w3.org/2000/svg" xmlns:xlink="http://www.w3.org/1999/xlink">
<g id="graph0" class="graph" transform="scale(1 1) rotate(0) translate(4 131)">
<title>dfa</title>
<polygon fill="white" stroke="none" points="-4,4 -4,-131 350.6,-131 350.6,4 -4,4"/>
<!-- __start -->
<!-- 0 -->
<g id="node2" class="node"><title>0</title>
<ellipse fill="none" stroke="black" cx="82.6" cy="-18" rx="18" ry="18"/>
<text text-anchor="middle" x="82.6" y="-14.3" font-family="Times New Roman,serif" font-size="14.00">0</text>
</g>
<!-- __start&#45;&gt;0 -->
<g id="edge1" class="edge"><title>__start&#45;&gt;0</title>
<path fill="none" stroke="black" d="M3.68496,-18C8.69573,-18 34.008,-18 54.4423,-18"/>
<polygon fill="black" stroke="black" points="54.5501,-21.5001 64.5501,-18 54.5501,-14.5001 54.5501,-21.5001"/>
<text text-anchor="middle" x="34.1" y="-21.8" font-family="Times New Roman,serif" font-size="14.00">start</text>
</g>
<!-- 1 -->
<g id="node3" class="node"><title>1</title>
<ellipse fill="none" stroke="black" cx="165.6" cy="-57" rx="18" ry="18"/>
<ellipse fill="none" stroke="black" cx="165.6" cy="-57" rx="22" ry="22"/>
<text text-anchor="middle" x="165.6" y="-53.3" font-family="Times New Roman,serif" font-size="14.00">1</text>
</g>
<!-- 0&#45;&gt;1 -->
<g id="edge2" class="edge"><title>0&#45;&gt;1</title>
<path fill="none" stroke="black" d="M99.2176,-25.5196C109.695,-30.5642 123.8,-37.3554 136.226,-43.3386"/>
<polygon fill="black" stroke="black" points="134.786,-46.5296 145.314,-47.7143 137.823,-40.2225 134.786,-46.5296"/>
<text text-anchor="middle" x="122.1" y="-40.8" font-family="Times New Roman,serif" font-size="14.00">a</text>
</g>
<!-- 2 -->
<g id="node4" class="node"><title>2</title>
<ellipse fill="none" stroke="black" cx="328.6" cy="-43" rx="18" ry="18"/>
<text text-anchor="middle" x="328.6" y="-39.3" font-family="Times New Roman,serif" font-size="14.00">2</text>
</g>
<!-- 0&#45;&gt;2 -->
<g id="edge3" class="edge"><title>0&#45;&gt;2</title>
<path fill="none" stroke="black" d="M100.511,-14.6896C133.434,-8.92074 208.121,0.838474 267.6,-16 279.717,-19.4304 292.526,-24.9139 303.183,-30.0458"/>
<polygon fill="black" stroke="black" points="301.774,-33.254 312.284,-34.5909 304.901,-26.9916 301.774,-33.254"/>
<text text-anchor="middle" x="209.6" y="-10.8" font-family="Times New Roman,serif" font-size="14.00">b</text>
</g>
<!-- 1&#45;&gt;2 -->
<g id="edge5" class="edge"><title>1&#45;&gt;2</title>
<path fill="none" stroke="black" d="M186.6,-64.2449C192.628,-66.1304 199.315,-67.931 205.6,-69 232.769,-73.621 240.371,-74.2505 267.6,-70 280.216,-68.0307 293.254,-62.6333 303.94,-57.1771"/>
<polygon fill="black" stroke="black" points="305.898,-60.0965 313.013,-52.2464 302.556,-53.9461 305.898,-60.0965"/>
<text text-anchor="middle" x="249.6" y="-75.8" font-family="Times New Roman,serif" font-size="14.00">b</text>
</g>
<!-- 3 -->
<g id="node5" class="node"><title>3</title>
<ellipse fill="none" stroke="black" cx="249.6" cy="-43" rx="18" ry="18"/>
<text text-anchor="middle" x="249.6" y="-39.3" font-family="Times New Roman,serif" font-size="14.00">3</text>
</g>
<!-- 1&#45;&gt;3 -->
<g id="edge4" class="edge"><title>1&#45;&gt;3</title>
<path fill="none" stroke="black" d="M187.717,-53.3947C198.074,-51.6264 210.664,-49.4769 221.701,-47.5925"/>
<polygon fill="black" stroke="black" points="222.416,-51.0212 231.684,-45.8881 221.238,-44.121 222.416,-51.0212"/>
<text text-anchor="middle" x="209.6" y="-53.8" font-family="Times New Roman,serif" font-size="14.00">a</text>
</g>
<!-- 2&#45;&gt;2 -->
<g id="edge8" class="edge"><title>2&#45;&gt;2</title>
<path fill="none" stroke="black" d="M325.184,-60.7817C324.604,-70.3149 325.743,-79 328.6,-79 330.341,-79 331.444,-75.7749 331.909,-71.0981"/>
<polygon fill="black" stroke="black" points="335.412,-70.8174 332.016,-60.7817 328.412,-70.745 335.412,-70.8174"/>
<text text-anchor="middle" x="328.6" y="-82.8" font-family="Times New Roman,serif" font-size="14.00">a</text>
</g>
<!-- 2&#45;&gt;2 -->
<g id="edge9" class="edge"><title>2&#45;&gt;2</title>
<path fill="none" stroke="black" d="M323.041,-60.1418C319.77,-77.585 321.623,-97 328.6,-97 334.214,-97 336.51,-84.4283 335.489,-70.4287"/>
<polygon fill="black" stroke="black" points="338.913,-69.6105 334.159,-60.1418 331.97,-70.508 338.913,-69.6105"/>
<text text-anchor="middle" x="328.6" y="-100.8" font-family="Times New Roman,serif" font-size="14.00">b</text>
</g>
<!-- 3&#45;&gt;1 -->
<g id="edge7" class="edge"><title>3&#45;&gt;1</title>
<path fill="none" stroke="black" d="M233.852,-34.081C225.543,-30.1734 214.98,-27.07 205.6,-30 200.523,-31.5861 195.525,-34.0907 190.889,-36.9494"/>
<polygon fill="black" stroke="black" points="188.743,-34.1775 182.496,-42.7346 192.716,-39.941 188.743,-34.1775"/>
<text text-anchor="middle" x="209.6" y="-33.8" font-family="Times New Roman,serif" font-size="14.00">b</text>
</g>
<!-- 3&#45;&gt;2 -->
<g id="edge6" class="edge"><title>3&#45;&gt;2</title>
<path fill="none" stroke="black" d="M267.689,-43C277.259,-43 289.417,-43 300.277,-43"/>
<polygon fill="black" stroke="black" points="300.559,-46.5001 310.559,-43 300.559,-39.5001 300.559,-46.5001"/>
<text text-anchor="middle" x="289.1" y="-46.8" font-family="Times New Roman,serif" font-size="14.00">a</text>
</g>
</g>
</svg>
