<?xml version="1.0" encoding="UTF-8" standalone="no"?>
<!DOCTYPE svg PUBLIC "-//W3C//DTD SVG 1.1//EN"
 "http://www.w3.org/Graphics/SVG/1.1/DTD/svg11.dtd">
<!-- Generated by graphviz version 2.38.0 (20140413.2041)
 -->
<!-- Title: dfa Pages: 1 -->
<svg width="575pt" height="206pt"
 viewBox="0.00 0.00 574.57 206.00" xmlns="http://www.w3.org/2000/svg" xmlns:xlink="http://www.w3.org/1999/xlink">
<g id="graph0" class="graph" transform="scale(1 1) rotate(0) translate(4 202)">
<title>dfa</title>
<polygon fill="white" stroke="none" points="-4,4 -4,-202 570.572,-202 570.572,4 -4,4"/>
<!-- __start -->
<!-- {0} -->
<g id="node2" class="node"><title>{0}</title>
<ellipse fill="none" stroke="black" cx="88.6479" cy="-29" rx="24.0958" ry="24.0958"/>
<text text-anchor="middle" x="88.6479" y="-25.3" font-family="Times New Roman,serif" font-size="14.00">{0}</text>
</g>
<!-- __start&#45;&gt;{0} -->
<g id="edge1" class="edge"><title>__start&#45;&gt;{0}</title>
<path fill="none" stroke="black" d="M3.75288,-29C8.82222,-29 33.1893,-29 54.3658,-29"/>
<polygon fill="black" stroke="black" points="54.4068,-32.5001 64.4067,-29 54.4067,-25.5001 54.4068,-32.5001"/>
<text text-anchor="middle" x="34.1" y="-32.8" font-family="Times New Roman,serif" font-size="14.00">start</text>
</g>
<!-- {1,2,3,7} -->
<g id="node3" class="node"><title>{1,2,3,7}</title>
<ellipse fill="none" stroke="black" cx="203.892" cy="-83" rx="44.3766" ry="44.3766"/>
<ellipse fill="none" stroke="black" cx="203.892" cy="-83" rx="48.393" ry="48.393"/>
<text text-anchor="middle" x="203.892" y="-79.3" font-family="Times New Roman,serif" font-size="14.00">{1,2,3,7}</text>
</g>
<!-- {0}&#45;&gt;{1,2,3,7} -->
<g id="edge2" class="edge"><title>{0}&#45;&gt;{1,2,3,7}</title>
<path fill="none" stroke="black" d="M110.683,-39.0304C122.016,-44.4348 136.549,-51.3646 150.709,-58.1167"/>
<polygon fill="black" stroke="black" points="149.39,-61.3653 159.923,-62.5103 152.403,-55.0469 149.39,-61.3653"/>
<text text-anchor="middle" x="134.196" y="-55.8" font-family="Times New Roman,serif" font-size="14.00">a</text>
</g>
<!-- {} -->
<g id="node5" class="node"><title>{}</title>
<ellipse fill="none" stroke="black" cx="547.074" cy="-73" rx="19.4965" ry="19.4965"/>
<text text-anchor="middle" x="547.074" y="-69.3" font-family="Times New Roman,serif" font-size="14.00">{}</text>
</g>
<!-- {0}&#45;&gt;{} -->
<g id="edge3" class="edge"><title>{0}&#45;&gt;{}</title>
<path fill="none" stroke="black" d="M111.359,-19.9832C133.85,-11.4702 170.217,-0 202.892,-0 202.892,-0 202.892,-0 442.879,-0 477.906,-0 509.37,-28.3766 528.098,-49.7456"/>
<polygon fill="black" stroke="black" points="525.519,-52.1167 534.633,-57.5186 530.877,-47.612 525.519,-52.1167"/>
<text text-anchor="middle" x="325.635" y="-3.8" font-family="Times New Roman,serif" font-size="14.00">b</text>
</g>
<!-- {1,2,3,7}&#45;&gt;{} -->
<g id="edge5" class="edge"><title>{1,2,3,7}&#45;&gt;{}</title>
<path fill="none" stroke="black" d="M241.906,-112.869C297.092,-153.515 403.07,-216.383 483.576,-172 510.676,-157.059 527.648,-124.874 536.953,-101.24"/>
<polygon fill="black" stroke="black" points="540.291,-102.303 540.478,-91.7095 533.726,-99.8739 540.291,-102.303"/>
<text text-anchor="middle" x="378.182" y="-186.8" font-family="Times New Roman,serif" font-size="14.00">b</text>
</g>
<!-- {4,5} -->
<g id="node6" class="node"><title>{4,5}</title>
<ellipse fill="none" stroke="black" cx="325.635" cy="-83" rx="30.5947" ry="30.5947"/>
<text text-anchor="middle" x="325.635" y="-79.3" font-family="Times New Roman,serif" font-size="14.00">{4,5}</text>
</g>
<!-- {1,2,3,7}&#45;&gt;{4,5} -->
<g id="edge4" class="edge"><title>{1,2,3,7}&#45;&gt;{4,5}</title>
<path fill="none" stroke="black" d="M252.218,-83C263.004,-83 274.359,-83 284.796,-83"/>
<polygon fill="black" stroke="black" points="284.872,-86.5001 294.872,-83 284.872,-79.5001 284.872,-86.5001"/>
<text text-anchor="middle" x="273.588" y="-86.8" font-family="Times New Roman,serif" font-size="14.00">a</text>
</g>
<!-- {1,3,6} -->
<g id="node4" class="node"><title>{1,3,6}</title>
<ellipse fill="none" stroke="black" cx="441.879" cy="-121" rx="37.8753" ry="37.8753"/>
<ellipse fill="none" stroke="black" cx="441.879" cy="-121" rx="41.8942" ry="41.8942"/>
<text text-anchor="middle" x="441.879" y="-117.3" font-family="Times New Roman,serif" font-size="14.00">{1,3,6}</text>
</g>
<!-- {1,3,6}&#45;&gt;{} -->
<g id="edge9" class="edge"><title>{1,3,6}&#45;&gt;{}</title>
<path fill="none" stroke="black" d="M480.135,-103.671C493.346,-97.526 507.919,-90.7474 519.998,-85.129"/>
<polygon fill="black" stroke="black" points="521.486,-88.2971 529.077,-80.9061 518.534,-81.9501 521.486,-88.2971"/>
<text text-anchor="middle" x="505.576" y="-96.8" font-family="Times New Roman,serif" font-size="14.00">b</text>
</g>
<!-- {1,3,6}&#45;&gt;{4,5} -->
<g id="edge8" class="edge"><title>{1,3,6}&#45;&gt;{4,5}</title>
<path fill="none" stroke="black" d="M409.866,-94.1652C401.422,-88.3656 391.905,-83.0595 382.182,-80 377.13,-78.4102 371.693,-77.6392 366.268,-77.4092"/>
<polygon fill="black" stroke="black" points="365.902,-73.9141 355.955,-77.5607 366.005,-80.9134 365.902,-73.9141"/>
<text text-anchor="middle" x="378.182" y="-83.8" font-family="Times New Roman,serif" font-size="14.00">a</text>
</g>
<!-- {}&#45;&gt;{} -->
<g id="edge10" class="edge"><title>{}&#45;&gt;{}</title>
<path fill="none" stroke="black" d="M543.435,-92.2936C542.931,-101.916 544.144,-110.498 547.074,-110.498 548.859,-110.498 550.007,-107.311 550.518,-102.644"/>
<polygon fill="black" stroke="black" points="554.023,-102.358 550.713,-92.2936 547.025,-102.226 554.023,-102.358"/>
<text text-anchor="middle" x="547.074" y="-114.298" font-family="Times New Roman,serif" font-size="14.00">a</text>
</g>
<!-- {}&#45;&gt;{} -->
<g id="edge11" class="edge"><title>{}&#45;&gt;{}</title>
<path fill="none" stroke="black" d="M541.01,-91.7642C537.865,-109.385 539.887,-128.498 547.074,-128.498 552.914,-128.498 555.343,-115.88 554.362,-101.697"/>
<polygon fill="black" stroke="black" points="557.835,-101.261 553.139,-91.7642 550.888,-102.117 557.835,-101.261"/>
<text text-anchor="middle" x="547.074" y="-132.298" font-family="Times New Roman,serif" font-size="14.00">b</text>
</g>
<!-- {4,5}&#45;&gt;{1,3,6} -->
<g id="edge7" class="edge"><title>{4,5}&#45;&gt;{1,3,6}</title>
<path fill="none" stroke="black" d="M354.785,-92.5036C361.161,-94.6475 367.903,-96.9077 374.182,-99 380.104,-100.973 386.324,-103.036 392.486,-105.075"/>
<polygon fill="black" stroke="black" points="391.478,-108.428 402.071,-108.243 393.674,-101.782 391.478,-108.428"/>
<text text-anchor="middle" x="378.182" y="-105.8" font-family="Times New Roman,serif" font-size="14.00">b</text>
</g>
<!-- {4,5}&#45;&gt;{} -->
<g id="edge6" class="edge"><title>{4,5}&#45;&gt;{}</title>
<path fill="none" stroke="black" d="M353.542,-70.0526C367.176,-64.1979 384.192,-57.9409 400.182,-55 436.635,-48.2959 446.876,-49.8203 483.576,-55 495.353,-56.6622 508.02,-60.004 518.85,-63.3618"/>
<polygon fill="black" stroke="black" points="517.989,-66.7625 528.582,-66.5318 520.157,-60.1067 517.989,-66.7625"/>
<text text-anchor="middle" x="441.879" y="-59.8" font-family="Times New Roman,serif" font-size="14.00">a</text>
</g>
</g>
</svg>
