<?xml version="1.0" encoding="UTF-8" standalone="no"?>
<!DOCTYPE svg PUBLIC "-//W3C//DTD SVG 1.1//EN"
 "http://www.w3.org/Graphics/SVG/1.1/DTD/svg11.dtd">
<!-- Generated by graphviz version 2.38.0 (20140413.2041)
 -->
<!-- Title: enfa Pages: 1 -->
<svg width="671pt" height="104pt"
 viewBox="0.00 0.00 670.60 104.00" xmlns="http://www.w3.org/2000/svg" xmlns:xlink="http://www.w3.org/1999/xlink">
<g id="graph0" class="graph" transform="scale(1 1) rotate(0) translate(4 99.9964)">
<title>enfa</title>
<polygon fill="white" stroke="none" points="-4,4 -4,-99.9964 666.6,-99.9964 666.6,4 -4,4"/>
<!-- __start -->
<!-- 0 -->
<g id="node2" class="node"><title>0</title>
<ellipse fill="none" stroke="black" cx="82.6" cy="-61.9964" rx="18" ry="18"/>
<text text-anchor="middle" x="82.6" y="-58.2964" font-family="Times New Roman,serif" font-size="14.00">0</text>
</g>
<!-- __start&#45;&gt;0 -->
<g id="edge1" class="edge"><title>__start&#45;&gt;0</title>
<path fill="none" stroke="black" d="M3.68496,-61.9964C8.69573,-61.9964 34.008,-61.9964 54.4423,-61.9964"/>
<polygon fill="black" stroke="black" points="54.5501,-65.4965 64.5501,-61.9964 54.5501,-58.4965 54.5501,-65.4965"/>
<text text-anchor="middle" x="34.1" y="-65.7964" font-family="Times New Roman,serif" font-size="14.00">start</text>
</g>
<!-- 2 -->
<g id="node4" class="node"><title>2</title>
<ellipse fill="none" stroke="black" cx="161.6" cy="-61.9964" rx="18" ry="18"/>
<text text-anchor="middle" x="161.6" y="-58.2964" font-family="Times New Roman,serif" font-size="14.00">2</text>
</g>
<!-- 0&#45;&gt;2 -->
<g id="edge2" class="edge"><title>0&#45;&gt;2</title>
<path fill="none" stroke="black" d="M100.689,-61.9964C110.259,-61.9964 122.417,-61.9964 133.277,-61.9964"/>
<polygon fill="black" stroke="black" points="133.559,-65.4965 143.559,-61.9964 133.559,-58.4965 133.559,-65.4965"/>
<text text-anchor="middle" x="122.1" y="-65.7964" font-family="Times New Roman,serif" font-size="14.00">a</text>
</g>
<!-- 1 -->
<g id="node3" class="node"><title>1</title>
<ellipse fill="none" stroke="black" cx="640.6" cy="-61.9964" rx="18" ry="18"/>
<ellipse fill="none" stroke="black" cx="640.6" cy="-61.9964" rx="22" ry="22"/>
<text text-anchor="middle" x="640.6" y="-58.2964" font-family="Times New Roman,serif" font-size="14.00">1</text>
</g>
<!-- 7 -->
<g id="node9" class="node"><title>7</title>
<ellipse fill="none" stroke="black" cx="240.6" cy="-61.9964" rx="18" ry="18"/>
<text text-anchor="middle" x="240.6" y="-58.2964" font-family="Times New Roman,serif" font-size="14.00">7</text>
</g>
<!-- 2&#45;&gt;7 -->
<g id="edge10" class="edge"><title>2&#45;&gt;7</title>
<path fill="none" stroke="black" d="M179.689,-61.9964C189.259,-61.9964 201.417,-61.9964 212.277,-61.9964"/>
<polygon fill="black" stroke="black" points="212.559,-65.4965 222.559,-61.9964 212.559,-58.4965 212.559,-65.4965"/>
<text text-anchor="middle" x="201.1" y="-65.7964" font-family="Times New Roman,serif" font-size="14.00">ε</text>
</g>
<!-- 3 -->
<g id="node5" class="node"><title>3</title>
<ellipse fill="none" stroke="black" cx="319.6" cy="-34.9964" rx="18" ry="18"/>
<text text-anchor="middle" x="319.6" y="-31.2964" font-family="Times New Roman,serif" font-size="14.00">3</text>
</g>
<!-- 4 -->
<g id="node6" class="node"><title>4</title>
<ellipse fill="none" stroke="black" cx="398.6" cy="-34.9964" rx="18" ry="18"/>
<text text-anchor="middle" x="398.6" y="-31.2964" font-family="Times New Roman,serif" font-size="14.00">4</text>
</g>
<!-- 3&#45;&gt;4 -->
<g id="edge3" class="edge"><title>3&#45;&gt;4</title>
<path fill="none" stroke="black" d="M337.689,-34.9964C347.259,-34.9964 359.417,-34.9964 370.277,-34.9964"/>
<polygon fill="black" stroke="black" points="370.559,-38.4965 380.559,-34.9964 370.559,-31.4965 370.559,-38.4965"/>
<text text-anchor="middle" x="359.1" y="-38.7964" font-family="Times New Roman,serif" font-size="14.00">a</text>
</g>
<!-- 5 -->
<g id="node7" class="node"><title>5</title>
<ellipse fill="none" stroke="black" cx="477.6" cy="-34.9964" rx="18" ry="18"/>
<text text-anchor="middle" x="477.6" y="-31.2964" font-family="Times New Roman,serif" font-size="14.00">5</text>
</g>
<!-- 4&#45;&gt;5 -->
<g id="edge5" class="edge"><title>4&#45;&gt;5</title>
<path fill="none" stroke="black" d="M416.689,-34.9964C426.259,-34.9964 438.417,-34.9964 449.277,-34.9964"/>
<polygon fill="black" stroke="black" points="449.559,-38.4965 459.559,-34.9964 449.559,-31.4965 449.559,-38.4965"/>
<text text-anchor="middle" x="438.1" y="-38.7964" font-family="Times New Roman,serif" font-size="14.00">ε</text>
</g>
<!-- 6 -->
<g id="node8" class="node"><title>6</title>
<ellipse fill="none" stroke="black" cx="557.6" cy="-34.9964" rx="18" ry="18"/>
<text text-anchor="middle" x="557.6" y="-31.2964" font-family="Times New Roman,serif" font-size="14.00">6</text>
</g>
<!-- 5&#45;&gt;6 -->
<g id="edge4" class="edge"><title>5&#45;&gt;6</title>
<path fill="none" stroke="black" d="M495.911,-34.9964C505.706,-34.9964 518.178,-34.9964 529.265,-34.9964"/>
<polygon fill="black" stroke="black" points="529.338,-38.4965 539.338,-34.9964 529.338,-31.4965 529.338,-38.4965"/>
<text text-anchor="middle" x="517.6" y="-38.7964" font-family="Times New Roman,serif" font-size="14.00">b</text>
</g>
<!-- 6&#45;&gt;1 -->
<g id="edge9" class="edge"><title>6&#45;&gt;1</title>
<path fill="none" stroke="black" d="M574.992,-40.4603C585.032,-43.8069 598.179,-48.1896 609.992,-52.127"/>
<polygon fill="black" stroke="black" points="608.909,-55.4554 619.503,-55.2973 611.123,-48.8146 608.909,-55.4554"/>
<text text-anchor="middle" x="597.1" y="-51.7964" font-family="Times New Roman,serif" font-size="14.00">ε</text>
</g>
<!-- 6&#45;&gt;3 -->
<g id="edge8" class="edge"><title>6&#45;&gt;3</title>
<path fill="none" stroke="black" d="M541.654,-26.2625C529.657,-19.784 512.143,-11.4939 495.6,-7.9964 445.594,2.57578 430.573,2.72953 380.6,-7.9964 368.287,-10.6392 355.451,-16.0135 344.827,-21.2763"/>
<polygon fill="black" stroke="black" points="343.02,-18.2711 335.769,-25.9966 346.255,-24.4786 343.02,-18.2711"/>
<text text-anchor="middle" x="438.1" y="-4.7964" font-family="Times New Roman,serif" font-size="14.00">ε</text>
</g>
<!-- 7&#45;&gt;1 -->
<g id="edge7" class="edge"><title>7&#45;&gt;1</title>
<path fill="none" stroke="black" d="M257.541,-68.3231C272.92,-73.8502 296.983,-80.9964 318.6,-80.9964 318.6,-80.9964 318.6,-80.9964 558.6,-80.9964 575.852,-80.9964 594.637,-76.8606 609.77,-72.4482"/>
<polygon fill="black" stroke="black" points="611.087,-75.7043 619.599,-69.3967 609.011,-69.0191 611.087,-75.7043"/>
<text text-anchor="middle" x="438.1" y="-84.7964" font-family="Times New Roman,serif" font-size="14.00">ε</text>
</g>
<!-- 7&#45;&gt;3 -->
<g id="edge6" class="edge"><title>7&#45;&gt;3</title>
<path fill="none" stroke="black" d="M257.93,-56.2704C268.036,-52.7265 281.235,-48.0984 292.74,-44.0643"/>
<polygon fill="black" stroke="black" points="294.015,-47.326 302.294,-40.7142 291.699,-40.7203 294.015,-47.326"/>
<text text-anchor="middle" x="280.1" y="-52.7964" font-family="Times New Roman,serif" font-size="14.00">ε</text>
</g>
</g>
</svg>
