<?xml version="1.0" encoding="UTF-8" standalone="no"?>
<!DOCTYPE svg PUBLIC "-//W3C//DTD SVG 1.1//EN"
 "http://www.w3.org/Graphics/SVG/1.1/DTD/svg11.dtd">
<!-- Generated by graphviz version 2.38.0 (20140413.2041)
 -->
<!-- Title: dfa Pages: 1 -->
<svg width="275pt" height="121pt"
 viewBox="0.00 0.00 274.60 121.00" xmlns="http://www.w3.org/2000/svg" xmlns:xlink="http://www.w3.org/1999/xlink">
<g id="graph0" class="graph" transform="scale(1 1) rotate(0) translate(4 117)">
<title>dfa</title>
<polygon fill="white" stroke="none" points="-4,4 -4,-117 270.6,-117 270.6,4 -4,4"/>
<!-- __start -->
<!-- 0 -->
<g id="node2" class="node"><title>0</title>
<ellipse fill="none" stroke="black" cx="82.6" cy="-18" rx="18" ry="18"/>
<text text-anchor="middle" x="82.6" y="-14.3" font-family="Times New Roman,serif" font-size="14.00">0</text>
</g>
<!-- __start&#45;&gt;0 -->
<g id="edge1" class="edge"><title>__start&#45;&gt;0</title>
<path fill="none" stroke="black" d="M3.68496,-18C8.69573,-18 34.008,-18 54.4423,-18"/>
<polygon fill="black" stroke="black" points="54.5501,-21.5001 64.5501,-18 54.5501,-14.5001 54.5501,-21.5001"/>
<text text-anchor="middle" x="34.1" y="-21.8" font-family="Times New Roman,serif" font-size="14.00">start</text>
</g>
<!-- 1 -->
<g id="node3" class="node"><title>1</title>
<ellipse fill="none" stroke="black" cx="165.6" cy="-51" rx="18" ry="18"/>
<ellipse fill="none" stroke="black" cx="165.6" cy="-51" rx="22" ry="22"/>
<text text-anchor="middle" x="165.6" y="-47.3" font-family="Times New Roman,serif" font-size="14.00">1</text>
</g>
<!-- 0&#45;&gt;1 -->
<g id="edge4" class="edge"><title>0&#45;&gt;1</title>
<path fill="none" stroke="black" d="M99.603,-24.5197C109.862,-28.6994 123.481,-34.2476 135.601,-39.1854"/>
<polygon fill="black" stroke="black" points="134.325,-42.445 144.907,-42.9767 136.966,-35.9624 134.325,-42.445"/>
<text text-anchor="middle" x="122.1" y="-37.8" font-family="Times New Roman,serif" font-size="14.00">e</text>
</g>
<!-- 2 -->
<g id="node4" class="node"><title>2</title>
<ellipse fill="none" stroke="black" cx="248.6" cy="-29" rx="18" ry="18"/>
<text text-anchor="middle" x="248.6" y="-25.3" font-family="Times New Roman,serif" font-size="14.00">2</text>
</g>
<!-- 0&#45;&gt;2 -->
<g id="edge5" class="edge"><title>0&#45;&gt;2</title>
<path fill="none" stroke="black" d="M99.917,-12.8079C120.485,-6.98436 156.867,0.918543 187.6,-5 199.746,-7.33908 212.558,-12.1148 223.211,-16.7945"/>
<polygon fill="black" stroke="black" points="221.759,-19.9791 232.305,-20.9926 224.693,-13.6236 221.759,-19.9791"/>
<text text-anchor="middle" x="165.6" y="-8.8" font-family="Times New Roman,serif" font-size="14.00">a</text>
</g>
<!-- 1&#45;&gt;2 -->
<g id="edge2" class="edge"><title>1&#45;&gt;2</title>
<path fill="none" stroke="black" d="M187.939,-49.5566C195.797,-48.6767 204.703,-47.2642 212.6,-45 216.044,-44.0125 219.581,-42.7366 223.021,-41.3366"/>
<polygon fill="black" stroke="black" points="224.593,-44.4678 232.3,-37.1981 221.741,-38.0748 224.593,-44.4678"/>
<text text-anchor="middle" x="209.1" y="-49.8" font-family="Times New Roman,serif" font-size="14.00">e</text>
</g>
<!-- 1&#45;&gt;2 -->
<g id="edge3" class="edge"><title>1&#45;&gt;2</title>
<path fill="none" stroke="black" d="M183.031,-37.5129C189.632,-32.9188 197.573,-28.3518 205.6,-26 210.432,-24.5843 215.704,-24.1475 220.829,-24.2654"/>
<polygon fill="black" stroke="black" points="220.69,-27.7665 230.957,-25.1504 221.3,-20.793 220.69,-27.7665"/>
<text text-anchor="middle" x="209.1" y="-29.8" font-family="Times New Roman,serif" font-size="14.00">a</text>
</g>
<!-- 2&#45;&gt;2 -->
<g id="edge6" class="edge"><title>2&#45;&gt;2</title>
<path fill="none" stroke="black" d="M245.184,-46.7817C244.604,-56.3149 245.743,-65 248.6,-65 250.341,-65 251.444,-61.7749 251.909,-57.0981"/>
<polygon fill="black" stroke="black" points="255.412,-56.8174 252.016,-46.7817 248.412,-56.745 255.412,-56.8174"/>
<text text-anchor="middle" x="248.6" y="-68.8" font-family="Times New Roman,serif" font-size="14.00">e</text>
</g>
<!-- 2&#45;&gt;2 -->
<g id="edge7" class="edge"><title>2&#45;&gt;2</title>
<path fill="none" stroke="black" d="M243.041,-46.1418C239.77,-63.585 241.623,-83 248.6,-83 254.214,-83 256.51,-70.4283 255.489,-56.4287"/>
<polygon fill="black" stroke="black" points="258.913,-55.6105 254.159,-46.1418 251.97,-56.508 258.913,-55.6105"/>
<text text-anchor="middle" x="248.6" y="-86.8" font-family="Times New Roman,serif" font-size="14.00">a</text>
</g>
</g>
</svg>
