<?xml version="1.0" encoding="UTF-8" standalone="no"?>
<!DOCTYPE svg PUBLIC "-//W3C//DTD SVG 1.1//EN"
 "http://www.w3.org/Graphics/SVG/1.1/DTD/svg11.dtd">
<!-- Generated by graphviz version 2.38.0 (20140413.2041)
 -->
<!-- Title: dfa Pages: 1 -->
<svg width="357pt" height="78pt"
 viewBox="0.00 0.00 356.60 78.00" xmlns="http://www.w3.org/2000/svg" xmlns:xlink="http://www.w3.org/1999/xlink">
<g id="graph0" class="graph" transform="scale(1 1) rotate(0) translate(4 74)">
<title>dfa</title>
<polygon fill="white" stroke="none" points="-4,4 -4,-74 352.6,-74 352.6,4 -4,4"/>
<!-- __start -->
<!-- 0 -->
<g id="node2" class="node"><title>0</title>
<ellipse fill="none" stroke="black" cx="82.6" cy="-18" rx="18" ry="18"/>
<text text-anchor="middle" x="82.6" y="-14.3" font-family="Times New Roman,serif" font-size="14.00">0</text>
</g>
<!-- __start&#45;&gt;0 -->
<g id="edge1" class="edge"><title>__start&#45;&gt;0</title>
<path fill="none" stroke="black" d="M3.68496,-18C8.69573,-18 34.008,-18 54.4423,-18"/>
<polygon fill="black" stroke="black" points="54.5501,-21.5001 64.5501,-18 54.5501,-14.5001 54.5501,-21.5001"/>
<text text-anchor="middle" x="34.1" y="-21.8" font-family="Times New Roman,serif" font-size="14.00">start</text>
</g>
<!-- 1 -->
<g id="node3" class="node"><title>1</title>
<ellipse fill="none" stroke="black" cx="166.6" cy="-48" rx="18" ry="18"/>
<ellipse fill="none" stroke="black" cx="166.6" cy="-48" rx="22" ry="22"/>
<text text-anchor="middle" x="166.6" y="-44.3" font-family="Times New Roman,serif" font-size="14.00">1</text>
</g>
<!-- 0&#45;&gt;1 -->
<g id="edge2" class="edge"><title>0&#45;&gt;1</title>
<path fill="none" stroke="black" d="M99.8006,-23.927C110.186,-27.7267 123.973,-32.7706 136.243,-37.2595"/>
<polygon fill="black" stroke="black" points="135.07,-40.5572 145.663,-40.7061 137.475,-33.9833 135.07,-40.5572"/>
<text text-anchor="middle" x="122.6" y="-36.8" font-family="Times New Roman,serif" font-size="14.00">o</text>
</g>
<!-- 2 -->
<g id="node4" class="node"><title>2</title>
<ellipse fill="none" stroke="black" cx="250.6" cy="-45" rx="18" ry="18"/>
<text text-anchor="middle" x="250.6" y="-41.3" font-family="Times New Roman,serif" font-size="14.00">2</text>
</g>
<!-- 1&#45;&gt;2 -->
<g id="edge5" class="edge"><title>1&#45;&gt;2</title>
<path fill="none" stroke="black" d="M188.717,-47.2274C198.896,-46.855 211.232,-46.4037 222.131,-46.005"/>
<polygon fill="black" stroke="black" points="222.553,-49.492 232.418,-45.6286 222.297,-42.4967 222.553,-49.492"/>
<text text-anchor="middle" x="210.6" y="-49.8" font-family="Times New Roman,serif" font-size="14.00">o</text>
</g>
<!-- 3 -->
<g id="node5" class="node"><title>3</title>
<ellipse fill="none" stroke="black" cx="330.6" cy="-18" rx="18" ry="18"/>
<text text-anchor="middle" x="330.6" y="-14.3" font-family="Times New Roman,serif" font-size="14.00">3</text>
</g>
<!-- 2&#45;&gt;3 -->
<g id="edge3" class="edge"><title>2&#45;&gt;3</title>
<path fill="none" stroke="black" d="M267.762,-39.4056C278.22,-35.7854 292.062,-30.9941 303.997,-26.8625"/>
<polygon fill="black" stroke="black" points="305.154,-30.1659 313.459,-23.5873 302.864,-23.551 305.154,-30.1659"/>
<text text-anchor="middle" x="290.6" y="-35.8" font-family="Times New Roman,serif" font-size="14.00">o</text>
</g>
<!-- 3&#45;&gt;0 -->
<g id="edge4" class="edge"><title>3&#45;&gt;0</title>
<path fill="none" stroke="black" d="M312.511,-17.7524C279.877,-17.314 206.426,-16.4933 144.6,-17 133.595,-17.0902 121.474,-17.2719 110.956,-17.456"/>
<polygon fill="black" stroke="black" points="110.624,-13.9614 100.69,-17.645 110.753,-20.9603 110.624,-13.9614"/>
<text text-anchor="middle" x="210.6" y="-19.8" font-family="Times New Roman,serif" font-size="14.00">o</text>
</g>
</g>
</svg>
