<?xml version="1.0" encoding="UTF-8" standalone="no"?>
<!DOCTYPE svg PUBLIC "-//W3C//DTD SVG 1.1//EN"
 "http://www.w3.org/Graphics/SVG/1.1/DTD/svg11.dtd">
<!-- Generated by graphviz version 2.38.0 (20140413.2041)
 -->
<!-- Title: dfa Pages: 1 -->
<svg width="512pt" height="171pt"
 viewBox="0.00 0.00 511.60 171.46" xmlns="http://www.w3.org/2000/svg" xmlns:xlink="http://www.w3.org/1999/xlink">
<g id="graph0" class="graph" transform="scale(1 1) rotate(0) translate(4 167.458)">
<title>dfa</title>
<polygon fill="white" stroke="none" points="-4,4 -4,-167.458 507.6,-167.458 507.6,4 -4,4"/>
<!-- __start -->
<!-- 0 -->
<g id="node2" class="node"><title>0</title>
<ellipse fill="none" stroke="black" cx="82.6" cy="-35.4577" rx="18" ry="18"/>
<text text-anchor="middle" x="82.6" y="-31.7577" font-family="Times New Roman,serif" font-size="14.00">0</text>
</g>
<!-- __start&#45;&gt;0 -->
<g id="edge1" class="edge"><title>__start&#45;&gt;0</title>
<path fill="none" stroke="black" d="M3.68496,-35.4577C8.69573,-35.4577 34.008,-35.4577 54.4423,-35.4577"/>
<polygon fill="black" stroke="black" points="54.5501,-38.9578 64.5501,-35.4577 54.5501,-31.9578 54.5501,-38.9578"/>
<text text-anchor="middle" x="34.1" y="-39.2577" font-family="Times New Roman,serif" font-size="14.00">start</text>
</g>
<!-- 1 -->
<g id="node3" class="node"><title>1</title>
<ellipse fill="none" stroke="black" cx="244.6" cy="-34.4577" rx="18" ry="18"/>
<ellipse fill="none" stroke="black" cx="244.6" cy="-34.4577" rx="22" ry="22"/>
<text text-anchor="middle" x="244.6" y="-30.7577" font-family="Times New Roman,serif" font-size="14.00">1</text>
</g>
<!-- 0&#45;&gt;1 -->
<g id="edge12" class="edge"><title>0&#45;&gt;1</title>
<path fill="none" stroke="black" d="M100.638,-38.3862C106.331,-39.2324 112.722,-40.04 118.6,-40.4577 156.726,-43.1673 166.489,-43.3722 204.6,-40.4577 207.17,-40.2612 209.827,-39.9928 212.49,-39.678"/>
<polygon fill="black" stroke="black" points="213.187,-43.1151 222.618,-38.287 212.235,-36.1802 213.187,-43.1151"/>
<text text-anchor="middle" x="161.6" y="-46.2577" font-family="Times New Roman,serif" font-size="14.00">u</text>
</g>
<!-- 2 -->
<g id="node4" class="node"><title>2</title>
<ellipse fill="none" stroke="black" cx="161.6" cy="-112.458" rx="18" ry="18"/>
<text text-anchor="middle" x="161.6" y="-108.758" font-family="Times New Roman,serif" font-size="14.00">2</text>
</g>
<!-- 0&#45;&gt;2 -->
<g id="edge13" class="edge"><title>0&#45;&gt;2</title>
<path fill="none" stroke="black" d="M94.8467,-49.1833C101.512,-57.0919 110.262,-67.0919 118.6,-75.4577 125.108,-81.9879 132.561,-88.7597 139.365,-94.6971"/>
<polygon fill="black" stroke="black" points="137.091,-97.3583 146.957,-101.219 141.652,-92.0484 137.091,-97.3583"/>
<text text-anchor="middle" x="122.1" y="-85.2577" font-family="Times New Roman,serif" font-size="14.00">k</text>
</g>
<!-- 3 -->
<g id="node5" class="node"><title>3</title>
<ellipse fill="none" stroke="black" cx="327.6" cy="-35.4577" rx="18" ry="18"/>
<text text-anchor="middle" x="327.6" y="-31.7577" font-family="Times New Roman,serif" font-size="14.00">3</text>
</g>
<!-- 0&#45;&gt;3 -->
<g id="edge11" class="edge"><title>0&#45;&gt;3</title>
<path fill="none" stroke="black" d="M99.4559,-28.9725C105.394,-26.7025 112.242,-24.2705 118.6,-22.4577 182.376,-4.27505 200.899,5.56684 266.6,-3.45772 278.031,-5.02788 281.193,-5.47394 291.6,-10.4577 296.159,-12.6409 300.753,-15.4173 305.047,-18.3206"/>
<polygon fill="black" stroke="black" points="303.173,-21.285 313.327,-24.309 307.275,-15.6128 303.173,-21.285"/>
<text text-anchor="middle" x="201.1" y="-5.25772" font-family="Times New Roman,serif" font-size="14.00">y</text>
</g>
<!-- 1&#45;&gt;0 -->
<g id="edge6" class="edge"><title>1&#45;&gt;0</title>
<path fill="none" stroke="black" d="M222.926,-30.0861C202.712,-26.3561 171.054,-21.9619 143.6,-24.4577 132.641,-25.454 120.694,-27.4537 110.366,-29.4781"/>
<polygon fill="black" stroke="black" points="109.385,-26.1067 100.299,-31.5557 110.8,-32.9623 109.385,-26.1067"/>
<text text-anchor="middle" x="161.6" y="-28.2577" font-family="Times New Roman,serif" font-size="14.00">u</text>
</g>
<!-- 1&#45;&gt;1 -->
<g id="edge5" class="edge"><title>1&#45;&gt;1</title>
<path fill="none" stroke="black" d="M236.917,-55.4485C235.969,-65.545 238.53,-74.4577 244.6,-74.4577 248.489,-74.4577 250.937,-70.7999 251.946,-65.5164"/>
<polygon fill="black" stroke="black" points="255.446,-65.56 252.283,-55.4485 248.45,-65.3257 255.446,-65.56"/>
<text text-anchor="middle" x="244.6" y="-78.2577" font-family="Times New Roman,serif" font-size="14.00">y</text>
</g>
<!-- 1&#45;&gt;3 -->
<g id="edge7" class="edge"><title>1&#45;&gt;3</title>
<path fill="none" stroke="black" d="M266.882,-34.7205C276.866,-34.8437 288.878,-34.992 299.503,-35.1232"/>
<polygon fill="black" stroke="black" points="299.497,-38.6233 309.539,-35.2471 299.583,-31.6238 299.497,-38.6233"/>
<text text-anchor="middle" x="288.1" y="-38.2577" font-family="Times New Roman,serif" font-size="14.00">k</text>
</g>
<!-- 2&#45;&gt;1 -->
<g id="edge3" class="edge"><title>2&#45;&gt;1</title>
<path fill="none" stroke="black" d="M175.583,-100.632C183.941,-92.9617 194.999,-82.7099 204.6,-73.4577 210.099,-68.1588 215.956,-62.3766 221.416,-56.9264"/>
<polygon fill="black" stroke="black" points="223.961,-59.3301 228.542,-49.7766 219.004,-54.3885 223.961,-59.3301"/>
<text text-anchor="middle" x="201.1" y="-83.2577" font-family="Times New Roman,serif" font-size="14.00">u</text>
</g>
<!-- 2&#45;&gt;2 -->
<g id="edge4" class="edge"><title>2&#45;&gt;2</title>
<path fill="none" stroke="black" d="M154.866,-129.495C153.492,-139.316 155.737,-148.458 161.6,-148.458 165.265,-148.458 167.516,-144.887 168.353,-139.811"/>
<polygon fill="black" stroke="black" points="171.852,-139.488 168.334,-129.495 164.852,-139.502 171.852,-139.488"/>
<text text-anchor="middle" x="161.6" y="-152.258" font-family="Times New Roman,serif" font-size="14.00">k</text>
</g>
<!-- 2&#45;&gt;3 -->
<g id="edge2" class="edge"><title>2&#45;&gt;3</title>
<path fill="none" stroke="black" d="M179.828,-113.525C201.335,-114.124 238.688,-112.699 266.6,-98.4577 284.649,-89.2483 300.259,-72.3898 311.029,-58.4283"/>
<polygon fill="black" stroke="black" points="313.974,-60.331 317.088,-50.204 308.339,-56.1791 313.974,-60.331"/>
<text text-anchor="middle" x="244.6" y="-114.258" font-family="Times New Roman,serif" font-size="14.00">y</text>
</g>
<!-- 3&#45;&gt;1 -->
<g id="edge14" class="edge"><title>3&#45;&gt;1</title>
<path fill="none" stroke="black" d="M312.693,-25.2903C306.549,-21.4041 299.04,-17.4336 291.6,-15.4577 285.133,-13.7403 278.37,-14.8005 272.081,-17.1149"/>
<polygon fill="black" stroke="black" points="270.234,-14.117 262.699,-21.5653 273.234,-20.4414 270.234,-14.117"/>
<text text-anchor="middle" x="288.1" y="-19.2577" font-family="Times New Roman,serif" font-size="14.00">y</text>
</g>
<!-- 3&#45;&gt;1 -->
<g id="edge15" class="edge"><title>3&#45;&gt;1</title>
<path fill="none" stroke="black" d="M311.416,-44.1179C305.439,-47.0616 298.389,-49.9794 291.6,-51.4577 285.524,-52.7806 279.172,-51.9651 273.194,-50.1238"/>
<polygon fill="black" stroke="black" points="274.188,-46.7504 263.605,-46.2527 271.567,-53.2415 274.188,-46.7504"/>
<text text-anchor="middle" x="288.1" y="-55.2577" font-family="Times New Roman,serif" font-size="14.00">u</text>
</g>
<!-- 4 -->
<g id="node6" class="node"><title>4</title>
<ellipse fill="none" stroke="black" cx="406.6" cy="-63.4577" rx="18" ry="18"/>
<text text-anchor="middle" x="406.6" y="-59.7577" font-family="Times New Roman,serif" font-size="14.00">4</text>
</g>
<!-- 3&#45;&gt;4 -->
<g id="edge16" class="edge"><title>3&#45;&gt;4</title>
<path fill="none" stroke="black" d="M345.43,-31.0499C353.304,-29.7853 362.671,-29.4512 370.6,-32.4577 376.532,-34.707 382.104,-38.4723 386.983,-42.6183"/>
<polygon fill="black" stroke="black" points="384.825,-45.3958 394.481,-49.7546 389.651,-40.3252 384.825,-45.3958"/>
<text text-anchor="middle" x="367.1" y="-36.2577" font-family="Times New Roman,serif" font-size="14.00">k</text>
</g>
<!-- 4&#45;&gt;3 -->
<g id="edge8" class="edge"><title>4&#45;&gt;3</title>
<path fill="none" stroke="black" d="M389.06,-59.349C381.25,-57.2527 371.853,-54.5033 363.6,-51.4577 360.239,-50.2173 356.75,-48.7945 353.335,-47.3201"/>
<polygon fill="black" stroke="black" points="354.624,-44.0622 344.07,-43.137 351.744,-50.4421 354.624,-44.0622"/>
<text text-anchor="middle" x="367.1" y="-57.2577" font-family="Times New Roman,serif" font-size="14.00">y</text>
</g>
<!-- 5 -->
<g id="node7" class="node"><title>5</title>
<ellipse fill="none" stroke="black" cx="485.6" cy="-35.4577" rx="18" ry="18"/>
<text text-anchor="middle" x="485.6" y="-31.7577" font-family="Times New Roman,serif" font-size="14.00">5</text>
</g>
<!-- 4&#45;&gt;5 -->
<g id="edge9" class="edge"><title>4&#45;&gt;5</title>
<path fill="none" stroke="black" d="M419.705,-51.0149C425.961,-45.4542 434.064,-39.4814 442.6,-36.4577 447.131,-34.8526 452.113,-34.0077 457.013,-33.638"/>
<polygon fill="black" stroke="black" points="457.458,-37.1316 467.403,-33.4768 457.35,-30.1324 457.458,-37.1316"/>
<text text-anchor="middle" x="446.1" y="-40.2577" font-family="Times New Roman,serif" font-size="14.00">u</text>
</g>
<!-- 4&#45;&gt;5 -->
<g id="edge10" class="edge"><title>4&#45;&gt;5</title>
<path fill="none" stroke="black" d="M424.14,-59.349C431.95,-57.2527 441.347,-54.5033 449.6,-51.4577 452.961,-50.2173 456.45,-48.7945 459.865,-47.3201"/>
<polygon fill="black" stroke="black" points="461.456,-50.4421 469.13,-43.137 458.576,-44.0622 461.456,-50.4421"/>
<text text-anchor="middle" x="446.1" y="-57.2577" font-family="Times New Roman,serif" font-size="14.00">k</text>
</g>
<!-- 5&#45;&gt;3 -->
<g id="edge17" class="edge"><title>5&#45;&gt;3</title>
<path fill="none" stroke="black" d="M468.225,-30.5647C456.263,-27.2544 439.583,-23.1826 424.6,-21.4577 397.576,-18.3468 390.119,-20.4009 363.6,-26.4577 360.884,-27.0781 358.057,-27.754 355.239,-28.4476"/>
<polygon fill="black" stroke="black" points="354.123,-25.1197 345.29,-30.9691 355.843,-31.9051 354.123,-25.1197"/>
<text text-anchor="middle" x="406.6" y="-25.2577" font-family="Times New Roman,serif" font-size="14.00">y</text>
</g>
<!-- 5&#45;&gt;5 -->
<g id="edge18" class="edge"><title>5&#45;&gt;5</title>
<path fill="none" stroke="black" d="M482.184,-53.2395C481.604,-62.7727 482.743,-71.4577 485.6,-71.4577 487.341,-71.4577 488.444,-68.2326 488.909,-63.5558"/>
<polygon fill="black" stroke="black" points="492.412,-63.2751 489.016,-53.2395 485.412,-63.2027 492.412,-63.2751"/>
<text text-anchor="middle" x="485.6" y="-75.2577" font-family="Times New Roman,serif" font-size="14.00">u</text>
</g>
<!-- 5&#45;&gt;5 -->
<g id="edge19" class="edge"><title>5&#45;&gt;5</title>
<path fill="none" stroke="black" d="M480.041,-52.5995C476.77,-70.0427 478.623,-89.4577 485.6,-89.4577 491.214,-89.4577 493.51,-76.8861 492.489,-62.8864"/>
<polygon fill="black" stroke="black" points="495.913,-62.0682 491.159,-52.5995 488.97,-62.9657 495.913,-62.0682"/>
<text text-anchor="middle" x="485.6" y="-93.2577" font-family="Times New Roman,serif" font-size="14.00">k</text>
</g>
</g>
</svg>
