<?xml version="1.0" encoding="UTF-8" standalone="no"?>
<!DOCTYPE svg PUBLIC "-//W3C//DTD SVG 1.1//EN"
 "http://www.w3.org/Graphics/SVG/1.1/DTD/svg11.dtd">
<!-- Generated by graphviz version 2.38.0 (20140413.2041)
 -->
<!-- Title: dfa Pages: 1 -->
<svg width="372pt" height="129pt"
 viewBox="0.00 0.00 371.60 129.00" xmlns="http://www.w3.org/2000/svg" xmlns:xlink="http://www.w3.org/1999/xlink">
<g id="graph0" class="graph" transform="scale(1 1) rotate(0) translate(4 125)">
<title>dfa</title>
<polygon fill="white" stroke="none" points="-4,4 -4,-125 367.6,-125 367.6,4 -4,4"/>
<!-- __start -->
<!-- 0 -->
<g id="node2" class="node"><title>0</title>
<ellipse fill="none" stroke="black" cx="91.6" cy="-18" rx="27" ry="18"/>
<text text-anchor="middle" x="91.6" y="-14.3" font-family="Times New Roman,serif" font-size="14.00">0</text>
</g>
<!-- __start&#45;&gt;0 -->
<g id="edge1" class="edge"><title>__start&#45;&gt;0</title>
<path fill="none" stroke="black" d="M3.78604,-18C8.86985,-18 32.7092,-18 54.1222,-18"/>
<polygon fill="black" stroke="black" points="54.3463,-21.5001 64.3463,-18 54.3463,-14.5001 54.3463,-21.5001"/>
<text text-anchor="middle" x="34.1" y="-21.8" font-family="Times New Roman,serif" font-size="14.00">start</text>
</g>
<!-- 0&#45;&gt;0 -->
<g id="edge4" class="edge"><title>0&#45;&gt;0</title>
<path fill="none" stroke="black" d="M83.0307,-35.4099C81.4311,-45.0879 84.2875,-54 91.6,-54 96.1703,-54 99,-50.5187 100.089,-45.5449"/>
<polygon fill="black" stroke="black" points="103.59,-45.4374 100.169,-35.4099 96.5901,-45.3818 103.59,-45.4374"/>
<text text-anchor="middle" x="91.6" y="-57.8" font-family="Times New Roman,serif" font-size="14.00">k</text>
</g>
<!-- 1 -->
<g id="node3" class="node"><title>1</title>
<ellipse fill="none" stroke="black" cx="183.6" cy="-56" rx="18" ry="18"/>
<ellipse fill="none" stroke="black" cx="183.6" cy="-56" rx="22" ry="22"/>
<text text-anchor="middle" x="183.6" y="-52.3" font-family="Times New Roman,serif" font-size="14.00">1</text>
</g>
<!-- 0&#45;&gt;1 -->
<g id="edge3" class="edge"><title>0&#45;&gt;1</title>
<path fill="none" stroke="black" d="M114.847,-27.3933C126.512,-32.3185 140.945,-38.4124 153.489,-43.7085"/>
<polygon fill="black" stroke="black" points="152.48,-47.0818 163.054,-47.7472 155.203,-40.6331 152.48,-47.0818"/>
<text text-anchor="middle" x="140.1" y="-42.8" font-family="Times New Roman,serif" font-size="14.00">u</text>
</g>
<!-- 2 -->
<g id="node4" class="node"><title>2</title>
<ellipse fill="none" stroke="black" cx="266.6" cy="-37" rx="18" ry="18"/>
<text text-anchor="middle" x="266.6" y="-33.3" font-family="Times New Roman,serif" font-size="14.00">2</text>
</g>
<!-- 0&#45;&gt;2 -->
<g id="edge2" class="edge"><title>0&#45;&gt;2</title>
<path fill="none" stroke="black" d="M117.51,-12.5549C140.555,-8.38397 175.666,-4.23523 205.6,-10 218.138,-12.4146 231.166,-17.8684 241.866,-23.2468"/>
<polygon fill="black" stroke="black" points="240.484,-26.4756 250.957,-28.0758 243.768,-20.2936 240.484,-26.4756"/>
<text text-anchor="middle" x="183.6" y="-13.8" font-family="Times New Roman,serif" font-size="14.00">y</text>
</g>
<!-- 1&#45;&gt;0 -->
<g id="edge6" class="edge"><title>1&#45;&gt;0</title>
<path fill="none" stroke="black" d="M169.828,-38.441C163.027,-30.6037 153.933,-22.2018 143.6,-18 138.802,-16.0489 133.533,-14.9896 128.26,-14.5162"/>
<polygon fill="black" stroke="black" points="128.326,-11.0169 118.236,-14.2479 128.139,-18.0143 128.326,-11.0169"/>
<text text-anchor="middle" x="140.1" y="-21.8" font-family="Times New Roman,serif" font-size="14.00">u</text>
</g>
<!-- 1&#45;&gt;1 -->
<g id="edge5" class="edge"><title>1&#45;&gt;1</title>
<path fill="none" stroke="black" d="M175.917,-76.9908C174.969,-87.0872 177.53,-96 183.6,-96 187.489,-96 189.937,-92.3422 190.946,-87.0587"/>
<polygon fill="black" stroke="black" points="194.446,-87.1023 191.283,-76.9908 187.45,-86.868 194.446,-87.1023"/>
<text text-anchor="middle" x="183.6" y="-99.8" font-family="Times New Roman,serif" font-size="14.00">y</text>
</g>
<!-- 1&#45;&gt;2 -->
<g id="edge7" class="edge"><title>1&#45;&gt;2</title>
<path fill="none" stroke="black" d="M202.254,-68.2641C210.889,-72.7171 221.382,-75.8182 230.6,-72 237.428,-69.1719 243.618,-64.294 248.828,-59.0627"/>
<polygon fill="black" stroke="black" points="251.672,-61.1333 255.722,-51.343 246.45,-56.471 251.672,-61.1333"/>
<text text-anchor="middle" x="227.1" y="-76.8" font-family="Times New Roman,serif" font-size="14.00">k</text>
</g>
<!-- 2&#45;&gt;1 -->
<g id="edge11" class="edge"><title>2&#45;&gt;1</title>
<path fill="none" stroke="black" d="M248.89,-40.9195C239.251,-43.1805 226.827,-46.0949 215.474,-48.7579"/>
<polygon fill="black" stroke="black" points="214.396,-45.4157 205.46,-51.107 215.995,-52.2308 214.396,-45.4157"/>
<text text-anchor="middle" x="227.1" y="-49.8" font-family="Times New Roman,serif" font-size="14.00">y</text>
</g>
<!-- 2&#45;&gt;1 -->
<g id="edge12" class="edge"><title>2&#45;&gt;1</title>
<path fill="none" stroke="black" d="M250.281,-28.6796C242.253,-25.3983 232.306,-23.0389 223.6,-26 218.141,-27.8567 212.849,-30.82 208.016,-34.1772"/>
<polygon fill="black" stroke="black" points="205.632,-31.5972 199.875,-40.4917 209.922,-37.1284 205.632,-31.5972"/>
<text text-anchor="middle" x="227.1" y="-29.8" font-family="Times New Roman,serif" font-size="14.00">u</text>
</g>
<!-- 3 -->
<g id="node5" class="node"><title>3</title>
<ellipse fill="none" stroke="black" cx="345.6" cy="-37" rx="18" ry="18"/>
<text text-anchor="middle" x="345.6" y="-33.3" font-family="Times New Roman,serif" font-size="14.00">3</text>
</g>
<!-- 2&#45;&gt;3 -->
<g id="edge13" class="edge"><title>2&#45;&gt;3</title>
<path fill="none" stroke="black" d="M284.689,-37C294.259,-37 306.417,-37 317.277,-37"/>
<polygon fill="black" stroke="black" points="317.559,-40.5001 327.559,-37 317.559,-33.5001 317.559,-40.5001"/>
<text text-anchor="middle" x="306.1" y="-40.8" font-family="Times New Roman,serif" font-size="14.00">k</text>
</g>
<!-- 3&#45;&gt;2 -->
<g id="edge8" class="edge"><title>3&#45;&gt;2</title>
<path fill="none" stroke="black" d="M329.883,-27.4577C323.85,-24.083 316.64,-20.7041 309.6,-19 303.123,-17.4321 296.375,-18.8312 290.231,-21.4189"/>
<polygon fill="black" stroke="black" points="288.393,-18.4314 281.198,-26.2082 291.673,-24.6158 288.393,-18.4314"/>
<text text-anchor="middle" x="306.1" y="-22.8" font-family="Times New Roman,serif" font-size="14.00">y</text>
</g>
<!-- 3&#45;&gt;3 -->
<g id="edge9" class="edge"><title>3&#45;&gt;3</title>
<path fill="none" stroke="black" d="M342.184,-54.7817C341.604,-64.3149 342.743,-73 345.6,-73 347.341,-73 348.444,-69.7749 348.909,-65.0981"/>
<polygon fill="black" stroke="black" points="352.412,-64.8174 349.016,-54.7817 345.412,-64.745 352.412,-64.8174"/>
<text text-anchor="middle" x="345.6" y="-76.8" font-family="Times New Roman,serif" font-size="14.00">u</text>
</g>
<!-- 3&#45;&gt;3 -->
<g id="edge10" class="edge"><title>3&#45;&gt;3</title>
<path fill="none" stroke="black" d="M340.041,-54.1418C336.77,-71.585 338.623,-91 345.6,-91 351.214,-91 353.51,-78.4283 352.489,-64.4287"/>
<polygon fill="black" stroke="black" points="355.913,-63.6105 351.159,-54.1418 348.97,-64.508 355.913,-63.6105"/>
<text text-anchor="middle" x="345.6" y="-94.8" font-family="Times New Roman,serif" font-size="14.00">k</text>
</g>
</g>
</svg>
