<?xml version="1.0" encoding="UTF-8" standalone="no"?>
<!DOCTYPE svg PUBLIC "-//W3C//DTD SVG 1.1//EN"
 "http://www.w3.org/Graphics/SVG/1.1/DTD/svg11.dtd">
<!-- Generated by graphviz version 2.38.0 (20140413.2041)
 -->
<!-- Title: dfa Pages: 1 -->
<svg width="354pt" height="129pt"
 viewBox="0.00 0.00 353.60 129.00" xmlns="http://www.w3.org/2000/svg" xmlns:xlink="http://www.w3.org/1999/xlink">
<g id="graph0" class="graph" transform="scale(1 1) rotate(0) translate(4 125)">
<title>dfa</title>
<polygon fill="white" stroke="none" points="-4,4 -4,-125 349.6,-125 349.6,4 -4,4"/>
<!-- __start -->
<!-- 0 -->
<g id="node2" class="node"><title>0</title>
<ellipse fill="none" stroke="black" cx="82.6" cy="-18" rx="18" ry="18"/>
<text text-anchor="middle" x="82.6" y="-14.3" font-family="Times New Roman,serif" font-size="14.00">0</text>
</g>
<!-- __start&#45;&gt;0 -->
<g id="edge1" class="edge"><title>__start&#45;&gt;0</title>
<path fill="none" stroke="black" d="M3.68496,-18C8.69573,-18 34.008,-18 54.4423,-18"/>
<polygon fill="black" stroke="black" points="54.5501,-21.5001 64.5501,-18 54.5501,-14.5001 54.5501,-21.5001"/>
<text text-anchor="middle" x="34.1" y="-21.8" font-family="Times New Roman,serif" font-size="14.00">start</text>
</g>
<!-- 0&#45;&gt;0 -->
<g id="edge4" class="edge"><title>0&#45;&gt;0</title>
<path fill="none" stroke="black" d="M75.8664,-35.0373C74.4922,-44.8579 76.7367,-54 82.6,-54 86.2646,-54 88.5155,-50.4289 89.3529,-45.3529"/>
<polygon fill="black" stroke="black" points="92.8524,-45.0307 89.3336,-35.0373 85.8524,-45.0439 92.8524,-45.0307"/>
<text text-anchor="middle" x="82.6" y="-57.8" font-family="Times New Roman,serif" font-size="14.00">k</text>
</g>
<!-- 1 -->
<g id="node3" class="node"><title>1</title>
<ellipse fill="none" stroke="black" cx="165.6" cy="-56" rx="18" ry="18"/>
<ellipse fill="none" stroke="black" cx="165.6" cy="-56" rx="22" ry="22"/>
<text text-anchor="middle" x="165.6" y="-52.3" font-family="Times New Roman,serif" font-size="14.00">1</text>
</g>
<!-- 0&#45;&gt;1 -->
<g id="edge3" class="edge"><title>0&#45;&gt;1</title>
<path fill="none" stroke="black" d="M99.2176,-25.3268C109.695,-30.2421 123.8,-36.8591 136.226,-42.6889"/>
<polygon fill="black" stroke="black" points="134.774,-45.8737 145.314,-46.9524 137.748,-39.5365 134.774,-45.8737"/>
<text text-anchor="middle" x="122.1" y="-40.8" font-family="Times New Roman,serif" font-size="14.00">u</text>
</g>
<!-- 2 -->
<g id="node4" class="node"><title>2</title>
<ellipse fill="none" stroke="black" cx="248.6" cy="-37" rx="18" ry="18"/>
<text text-anchor="middle" x="248.6" y="-33.3" font-family="Times New Roman,serif" font-size="14.00">2</text>
</g>
<!-- 0&#45;&gt;2 -->
<g id="edge2" class="edge"><title>0&#45;&gt;2</title>
<path fill="none" stroke="black" d="M100.169,-12.8288C105.941,-11.2715 112.5,-9.77173 118.6,-9 135.774,-6.82722 98.7079,7.86362 187.6,-10 199.947,-12.4812 212.787,-17.833 223.406,-23.1227"/>
<polygon fill="black" stroke="black" points="221.976,-26.3247 232.456,-27.879 225.232,-20.1284 221.976,-26.3247"/>
<text text-anchor="middle" x="165.6" y="-13.8" font-family="Times New Roman,serif" font-size="14.00">y</text>
</g>
<!-- 1&#45;&gt;0 -->
<g id="edge6" class="edge"><title>1&#45;&gt;0</title>
<path fill="none" stroke="black" d="M152.784,-37.9431C145.988,-29.2576 136.615,-19.7246 125.6,-15 120.893,-12.981 115.617,-12.2919 110.435,-12.3558"/>
<polygon fill="black" stroke="black" points="109.758,-8.90523 100.145,-13.3602 110.438,-15.8721 109.758,-8.90523"/>
<text text-anchor="middle" x="122.1" y="-18.8" font-family="Times New Roman,serif" font-size="14.00">u</text>
</g>
<!-- 1&#45;&gt;1 -->
<g id="edge5" class="edge"><title>1&#45;&gt;1</title>
<path fill="none" stroke="black" d="M157.917,-76.9908C156.969,-87.0872 159.53,-96 165.6,-96 169.489,-96 171.937,-92.3422 172.946,-87.0587"/>
<polygon fill="black" stroke="black" points="176.446,-87.1023 173.283,-76.9908 169.45,-86.868 176.446,-87.1023"/>
<text text-anchor="middle" x="165.6" y="-99.8" font-family="Times New Roman,serif" font-size="14.00">y</text>
</g>
<!-- 1&#45;&gt;2 -->
<g id="edge7" class="edge"><title>1&#45;&gt;2</title>
<path fill="none" stroke="black" d="M184.254,-68.2641C192.889,-72.7171 203.382,-75.8182 212.6,-72 219.428,-69.1719 225.618,-64.294 230.828,-59.0627"/>
<polygon fill="black" stroke="black" points="233.672,-61.1333 237.722,-51.343 228.45,-56.471 233.672,-61.1333"/>
<text text-anchor="middle" x="209.1" y="-76.8" font-family="Times New Roman,serif" font-size="14.00">k</text>
</g>
<!-- 2&#45;&gt;1 -->
<g id="edge11" class="edge"><title>2&#45;&gt;1</title>
<path fill="none" stroke="black" d="M230.89,-40.9195C221.251,-43.1805 208.827,-46.0949 197.474,-48.7579"/>
<polygon fill="black" stroke="black" points="196.396,-45.4157 187.46,-51.107 197.995,-52.2308 196.396,-45.4157"/>
<text text-anchor="middle" x="209.1" y="-49.8" font-family="Times New Roman,serif" font-size="14.00">y</text>
</g>
<!-- 2&#45;&gt;1 -->
<g id="edge12" class="edge"><title>2&#45;&gt;1</title>
<path fill="none" stroke="black" d="M232.281,-28.6796C224.253,-25.3983 214.306,-23.0389 205.6,-26 200.141,-27.8567 194.849,-30.82 190.016,-34.1772"/>
<polygon fill="black" stroke="black" points="187.632,-31.5972 181.875,-40.4917 191.922,-37.1284 187.632,-31.5972"/>
<text text-anchor="middle" x="209.1" y="-29.8" font-family="Times New Roman,serif" font-size="14.00">u</text>
</g>
<!-- 3 -->
<g id="node5" class="node"><title>3</title>
<ellipse fill="none" stroke="black" cx="327.6" cy="-37" rx="18" ry="18"/>
<text text-anchor="middle" x="327.6" y="-33.3" font-family="Times New Roman,serif" font-size="14.00">3</text>
</g>
<!-- 2&#45;&gt;3 -->
<g id="edge13" class="edge"><title>2&#45;&gt;3</title>
<path fill="none" stroke="black" d="M266.689,-37C276.259,-37 288.417,-37 299.277,-37"/>
<polygon fill="black" stroke="black" points="299.559,-40.5001 309.559,-37 299.559,-33.5001 299.559,-40.5001"/>
<text text-anchor="middle" x="288.1" y="-40.8" font-family="Times New Roman,serif" font-size="14.00">k</text>
</g>
<!-- 3&#45;&gt;2 -->
<g id="edge8" class="edge"><title>3&#45;&gt;2</title>
<path fill="none" stroke="black" d="M311.883,-27.4577C305.85,-24.083 298.64,-20.7041 291.6,-19 285.123,-17.4321 278.375,-18.8312 272.231,-21.4189"/>
<polygon fill="black" stroke="black" points="270.393,-18.4314 263.198,-26.2082 273.673,-24.6158 270.393,-18.4314"/>
<text text-anchor="middle" x="288.1" y="-22.8" font-family="Times New Roman,serif" font-size="14.00">y</text>
</g>
<!-- 3&#45;&gt;3 -->
<g id="edge9" class="edge"><title>3&#45;&gt;3</title>
<path fill="none" stroke="black" d="M324.184,-54.7817C323.604,-64.3149 324.743,-73 327.6,-73 329.341,-73 330.444,-69.7749 330.909,-65.0981"/>
<polygon fill="black" stroke="black" points="334.412,-64.8174 331.016,-54.7817 327.412,-64.745 334.412,-64.8174"/>
<text text-anchor="middle" x="327.6" y="-76.8" font-family="Times New Roman,serif" font-size="14.00">u</text>
</g>
<!-- 3&#45;&gt;3 -->
<g id="edge10" class="edge"><title>3&#45;&gt;3</title>
<path fill="none" stroke="black" d="M322.041,-54.1418C318.77,-71.585 320.623,-91 327.6,-91 333.214,-91 335.51,-78.4283 334.489,-64.4287"/>
<polygon fill="black" stroke="black" points="337.913,-63.6105 333.159,-54.1418 330.97,-64.508 337.913,-63.6105"/>
<text text-anchor="middle" x="327.6" y="-94.8" font-family="Times New Roman,serif" font-size="14.00">k</text>
</g>
</g>
</svg>
