<?xml version="1.0" encoding="UTF-8" standalone="no"?>
<!DOCTYPE svg PUBLIC "-//W3C//DTD SVG 1.1//EN"
 "http://www.w3.org/Graphics/SVG/1.1/DTD/svg11.dtd">
<!-- Generated by graphviz version 2.38.0 (20140413.2041)
 -->
<!-- Title: dfa Pages: 1 -->
<svg width="374pt" height="133pt"
 viewBox="0.00 0.00 373.60 133.02" xmlns="http://www.w3.org/2000/svg" xmlns:xlink="http://www.w3.org/1999/xlink">
<g id="graph0" class="graph" transform="scale(1 1) rotate(0) translate(4 129.023)">
<title>dfa</title>
<polygon fill="white" stroke="none" points="-4,4 -4,-129.023 369.6,-129.023 369.6,4 -4,4"/>
<!-- __start -->
<!-- 0 -->
<g id="node2" class="node"><title>0</title>
<ellipse fill="none" stroke="black" cx="91.6" cy="-47.0233" rx="27" ry="18"/>
<text text-anchor="middle" x="91.6" y="-43.3233" font-family="Times New Roman,serif" font-size="14.00">0</text>
</g>
<!-- __start&#45;&gt;0 -->
<g id="edge1" class="edge"><title>__start&#45;&gt;0</title>
<path fill="none" stroke="black" d="M3.78604,-47.0233C8.86985,-47.0233 32.7092,-47.0233 54.1222,-47.0233"/>
<polygon fill="black" stroke="black" points="54.3463,-50.5234 64.3463,-47.0233 54.3463,-43.5234 54.3463,-50.5234"/>
<text text-anchor="middle" x="34.1" y="-50.8233" font-family="Times New Roman,serif" font-size="14.00">start</text>
</g>
<!-- 1 -->
<g id="node3" class="node"><title>1</title>
<ellipse fill="none" stroke="black" cx="343.6" cy="-68.0233" rx="18" ry="18"/>
<ellipse fill="none" stroke="black" cx="343.6" cy="-68.0233" rx="22" ry="22"/>
<text text-anchor="middle" x="343.6" y="-64.3233" font-family="Times New Roman,serif" font-size="14.00">1</text>
</g>
<!-- 0&#45;&gt;1 -->
<g id="edge7" class="edge"><title>0&#45;&gt;1</title>
<path fill="none" stroke="black" d="M105.519,-62.566C118.158,-76.4487 138.791,-95.8206 161.6,-104.023 213.822,-122.804 278.24,-99.6884 314.441,-82.7744"/>
<polygon fill="black" stroke="black" points="316.396,-85.7169 323.87,-78.2082 313.344,-79.4168 316.396,-85.7169"/>
<text text-anchor="middle" x="219.6" y="-113.823" font-family="Times New Roman,serif" font-size="14.00">d</text>
</g>
<!-- 2 -->
<g id="node4" class="node"><title>2</title>
<ellipse fill="none" stroke="black" cx="179.6" cy="-77.0233" rx="18" ry="18"/>
<text text-anchor="middle" x="179.6" y="-73.3233" font-family="Times New Roman,serif" font-size="14.00">2</text>
</g>
<!-- 0&#45;&gt;2 -->
<g id="edge6" class="edge"><title>0&#45;&gt;2</title>
<path fill="none" stroke="black" d="M116.1,-55.221C127.485,-59.1927 141.185,-63.9717 152.853,-68.0419"/>
<polygon fill="black" stroke="black" points="151.88,-71.4091 162.475,-71.3982 154.185,-64.7997 151.88,-71.4091"/>
<text text-anchor="middle" x="140.1" y="-67.8233" font-family="Times New Roman,serif" font-size="14.00">x</text>
</g>
<!-- 1&#45;&gt;0 -->
<g id="edge4" class="edge"><title>1&#45;&gt;0</title>
<path fill="none" stroke="black" d="M329.898,-50.5706C318.179,-36.0822 299.341,-16.5236 277.6,-8.02335 224.842,12.6041 159.142,-12.3035 121.925,-30.7271"/>
<polygon fill="black" stroke="black" points="119.964,-27.7991 112.659,-35.4737 123.155,-34.0292 119.964,-27.7991"/>
<text text-anchor="middle" x="219.6" y="-5.82335" font-family="Times New Roman,serif" font-size="14.00">x</text>
</g>
<!-- 1&#45;&gt;1 -->
<g id="edge5" class="edge"><title>1&#45;&gt;1</title>
<path fill="none" stroke="black" d="M335.594,-88.6042C334.486,-98.8681 337.155,-108.023 343.6,-108.023 347.729,-108.023 350.308,-104.266 351.337,-98.8669"/>
<polygon fill="black" stroke="black" points="354.843,-98.6924 351.606,-88.6042 347.845,-98.509 354.843,-98.6924"/>
<text text-anchor="middle" x="343.6" y="-111.823" font-family="Times New Roman,serif" font-size="14.00">d</text>
</g>
<!-- 2&#45;&gt;1 -->
<g id="edge3" class="edge"><title>2&#45;&gt;1</title>
<path fill="none" stroke="black" d="M197.76,-76.2735C205.635,-75.917 215.092,-75.4714 223.6,-75.0233 253.35,-73.4565 287.27,-71.4384 311.264,-69.972"/>
<polygon fill="black" stroke="black" points="311.772,-73.4474 321.538,-69.3406 311.342,-66.4606 311.772,-73.4474"/>
<text text-anchor="middle" x="259.6" y="-77.8233" font-family="Times New Roman,serif" font-size="14.00">d</text>
</g>
<!-- 3 -->
<g id="node5" class="node"><title>3</title>
<ellipse fill="none" stroke="black" cx="259.6" cy="-35.0233" rx="18" ry="18"/>
<text text-anchor="middle" x="259.6" y="-31.3233" font-family="Times New Roman,serif" font-size="14.00">3</text>
</g>
<!-- 2&#45;&gt;3 -->
<g id="edge2" class="edge"><title>2&#45;&gt;3</title>
<path fill="none" stroke="black" d="M196.01,-68.7255C206.978,-62.8199 221.932,-54.7675 234.473,-48.0146"/>
<polygon fill="black" stroke="black" points="236.342,-50.9838 243.487,-43.161 233.023,-44.8204 236.342,-50.9838"/>
<text text-anchor="middle" x="219.6" y="-60.8233" font-family="Times New Roman,serif" font-size="14.00">x</text>
</g>
<!-- 3&#45;&gt;0 -->
<g id="edge8" class="edge"><title>3&#45;&gt;0</title>
<path fill="none" stroke="black" d="M241.39,-34.132C221.969,-33.3332 189.451,-32.6195 161.6,-35.0233 150.4,-35.99 138.291,-37.8235 127.389,-39.7718"/>
<polygon fill="black" stroke="black" points="126.559,-36.3663 117.376,-41.6502 127.85,-43.2462 126.559,-36.3663"/>
<text text-anchor="middle" x="179.6" y="-38.8233" font-family="Times New Roman,serif" font-size="14.00">x</text>
</g>
<!-- 3&#45;&gt;1 -->
<g id="edge9" class="edge"><title>3&#45;&gt;1</title>
<path fill="none" stroke="black" d="M276.801,-41.5431C287.26,-45.7524 301.169,-51.3497 313.503,-56.3137"/>
<polygon fill="black" stroke="black" points="312.379,-59.6338 322.962,-60.1203 314.992,-53.1399 312.379,-59.6338"/>
<text text-anchor="middle" x="299.6" y="-54.8233" font-family="Times New Roman,serif" font-size="14.00">d</text>
</g>
</g>
</svg>
