<?xml version="1.0" encoding="UTF-8" standalone="no"?>
<!DOCTYPE svg PUBLIC "-//W3C//DTD SVG 1.1//EN"
 "http://www.w3.org/Graphics/SVG/1.1/DTD/svg11.dtd">
<!-- Generated by graphviz version 2.38.0 (20140413.2041)
 -->
<!-- Title: dfa Pages: 1 -->
<svg width="453pt" height="204pt"
 viewBox="0.00 0.00 452.60 204.00" xmlns="http://www.w3.org/2000/svg" xmlns:xlink="http://www.w3.org/1999/xlink">
<g id="graph0" class="graph" transform="scale(1 1) rotate(0) translate(4 200)">
<title>dfa</title>
<polygon fill="white" stroke="none" points="-4,4 -4,-200 448.6,-200 448.6,4 -4,4"/>
<!-- __start -->
<!-- 0 -->
<g id="node2" class="node"><title>0</title>
<ellipse fill="none" stroke="black" cx="91.6" cy="-115" rx="27" ry="18"/>
<text text-anchor="middle" x="91.6" y="-111.3" font-family="Times New Roman,serif" font-size="14.00">0</text>
</g>
<!-- __start&#45;&gt;0 -->
<g id="edge1" class="edge"><title>__start&#45;&gt;0</title>
<path fill="none" stroke="black" d="M3.78604,-115C8.86985,-115 32.7092,-115 54.1222,-115"/>
<polygon fill="black" stroke="black" points="54.3463,-118.5 64.3463,-115 54.3463,-111.5 54.3463,-118.5"/>
<text text-anchor="middle" x="34.1" y="-118.8" font-family="Times New Roman,serif" font-size="14.00">start</text>
</g>
<!-- 1 -->
<g id="node3" class="node"><title>1</title>
<ellipse fill="none" stroke="black" cx="184.6" cy="-62" rx="18" ry="18"/>
<ellipse fill="none" stroke="black" cx="184.6" cy="-62" rx="22" ry="22"/>
<text text-anchor="middle" x="184.6" y="-58.3" font-family="Times New Roman,serif" font-size="14.00">1</text>
</g>
<!-- 0&#45;&gt;1 -->
<g id="edge9" class="edge"><title>0&#45;&gt;1</title>
<path fill="none" stroke="black" d="M112.796,-103.238C125.682,-95.7326 142.538,-85.9152 156.571,-77.7422"/>
<polygon fill="black" stroke="black" points="158.435,-80.7069 165.315,-72.6496 154.912,-74.6581 158.435,-80.7069"/>
<text text-anchor="middle" x="140.6" y="-91.8" font-family="Times New Roman,serif" font-size="14.00">q</text>
</g>
<!-- 2 -->
<g id="node4" class="node"><title>2</title>
<ellipse fill="none" stroke="black" cx="426.6" cy="-115" rx="18" ry="18"/>
<text text-anchor="middle" x="426.6" y="-111.3" font-family="Times New Roman,serif" font-size="14.00">2</text>
</g>
<!-- 0&#45;&gt;2 -->
<g id="edge8" class="edge"><title>0&#45;&gt;2</title>
<path fill="none" stroke="black" d="M104.176,-130.977C119.806,-150.51 149.641,-181 183.6,-181 183.6,-181 183.6,-181 348.6,-181 375.472,-181 397.672,-157.541 411.219,-138.595"/>
<polygon fill="black" stroke="black" points="414.12,-140.553 416.82,-130.308 408.32,-136.633 414.12,-140.553"/>
<text text-anchor="middle" x="268.6" y="-184.8" font-family="Times New Roman,serif" font-size="14.00">v</text>
</g>
<!-- 4 -->
<g id="node6" class="node"><title>4</title>
<ellipse fill="none" stroke="black" cx="268.6" cy="-18" rx="18" ry="18"/>
<text text-anchor="middle" x="268.6" y="-14.3" font-family="Times New Roman,serif" font-size="14.00">4</text>
</g>
<!-- 1&#45;&gt;4 -->
<g id="edge10" class="edge"><title>1&#45;&gt;4</title>
<path fill="none" stroke="black" d="M204.207,-52.0157C215.805,-45.7926 230.851,-37.7192 243.374,-30.9994"/>
<polygon fill="black" stroke="black" points="245.203,-33.9901 252.36,-26.1778 241.893,-27.8219 245.203,-33.9901"/>
<text text-anchor="middle" x="228.6" y="-43.8" font-family="Times New Roman,serif" font-size="14.00">v</text>
</g>
<!-- 1&#45;&gt;4 -->
<g id="edge11" class="edge"><title>1&#45;&gt;4</title>
<path fill="none" stroke="black" d="M196.807,-43.1114C203.546,-33.6789 213.057,-23.1934 224.6,-18 229.495,-15.7975 235.033,-14.8323 240.466,-14.5831"/>
<polygon fill="black" stroke="black" points="240.5,-18.0851 250.589,-14.8491 240.684,-11.0875 240.5,-18.0851"/>
<text text-anchor="middle" x="228.6" y="-21.8" font-family="Times New Roman,serif" font-size="14.00">q</text>
</g>
<!-- 2&#45;&gt;0 -->
<g id="edge3" class="edge"><title>2&#45;&gt;0</title>
<path fill="none" stroke="black" d="M409.257,-120.078C393.792,-124.43 369.846,-130 348.6,-130 183.6,-130 183.6,-130 183.6,-130 164.771,-130 144.039,-126.835 127.125,-123.413"/>
<polygon fill="black" stroke="black" points="127.65,-119.946 117.139,-121.274 126.184,-126.791 127.65,-119.946"/>
<text text-anchor="middle" x="268.6" y="-133.8" font-family="Times New Roman,serif" font-size="14.00">q</text>
</g>
<!-- 3 -->
<g id="node5" class="node"><title>3</title>
<ellipse fill="none" stroke="black" cx="347.6" cy="-70" rx="18" ry="18"/>
<text text-anchor="middle" x="347.6" y="-66.3" font-family="Times New Roman,serif" font-size="14.00">3</text>
</g>
<!-- 2&#45;&gt;3 -->
<g id="edge2" class="edge"><title>2&#45;&gt;3</title>
<path fill="none" stroke="black" d="M419.422,-98.3312C413.907,-86.1124 404.529,-70.4148 390.6,-63 385.749,-60.4175 380.173,-59.9254 374.703,-60.5272"/>
<polygon fill="black" stroke="black" points="373.543,-57.1988 364.532,-62.7707 375.051,-64.0345 373.543,-57.1988"/>
<text text-anchor="middle" x="387.1" y="-66.8" font-family="Times New Roman,serif" font-size="14.00">v</text>
</g>
<!-- 3&#45;&gt;1 -->
<g id="edge5" class="edge"><title>3&#45;&gt;1</title>
<path fill="none" stroke="black" d="M329.48,-69.1493C302.694,-67.8183 250.469,-65.2233 216.853,-63.5529"/>
<polygon fill="black" stroke="black" points="216.809,-60.0465 206.648,-63.0459 216.462,-67.0379 216.809,-60.0465"/>
<text text-anchor="middle" x="268.6" y="-69.8" font-family="Times New Roman,serif" font-size="14.00">q</text>
</g>
<!-- 3&#45;&gt;2 -->
<g id="edge4" class="edge"><title>3&#45;&gt;2</title>
<path fill="none" stroke="black" d="M363.446,-78.6765C374.312,-85.0263 389.281,-93.7745 401.806,-101.094"/>
<polygon fill="black" stroke="black" points="400.399,-104.326 410.799,-106.35 403.931,-98.2826 400.399,-104.326"/>
<text text-anchor="middle" x="387.1" y="-96.8" font-family="Times New Roman,serif" font-size="14.00">v</text>
</g>
<!-- 4&#45;&gt;0 -->
<g id="edge7" class="edge"><title>4&#45;&gt;0</title>
<path fill="none" stroke="black" d="M251.043,-12.7819C229.21,-6.93879 190.322,-0.204151 162.6,-16 134.434,-32.0484 114.824,-64.6144 103.668,-88.0178"/>
<polygon fill="black" stroke="black" points="100.351,-86.8594 99.4049,-97.4119 106.725,-89.7524 100.351,-86.8594"/>
<text text-anchor="middle" x="184.6" y="-19.8" font-family="Times New Roman,serif" font-size="14.00">q</text>
</g>
<!-- 4&#45;&gt;3 -->
<g id="edge6" class="edge"><title>4&#45;&gt;3</title>
<path fill="none" stroke="black" d="M284.083,-27.7808C295.268,-35.3344 310.956,-45.929 323.819,-54.6152"/>
<polygon fill="black" stroke="black" points="321.936,-57.567 332.182,-60.2631 325.853,-51.7659 321.936,-57.567"/>
<text text-anchor="middle" x="308.1" y="-48.8" font-family="Times New Roman,serif" font-size="14.00">v</text>
</g>
</g>
</svg>
