<?xml version="1.0" encoding="UTF-8" standalone="no"?>
<!DOCTYPE svg PUBLIC "-//W3C//DTD SVG 1.1//EN"
 "http://www.w3.org/Graphics/SVG/1.1/DTD/svg11.dtd">
<!-- Generated by graphviz version 2.38.0 (20140413.2041)
 -->
<!-- Title: dfa Pages: 1 -->
<svg width="295pt" height="151pt"
 viewBox="0.00 0.00 294.60 150.56" xmlns="http://www.w3.org/2000/svg" xmlns:xlink="http://www.w3.org/1999/xlink">
<g id="graph0" class="graph" transform="scale(1 1) rotate(0) translate(4 146.564)">
<title>dfa</title>
<polygon fill="white" stroke="none" points="-4,4 -4,-146.564 290.6,-146.564 290.6,4 -4,4"/>
<!-- __start -->
<!-- 0 -->
<g id="node2" class="node"><title>0</title>
<ellipse fill="none" stroke="black" cx="91.6" cy="-39.5639" rx="27" ry="18"/>
<text text-anchor="middle" x="91.6" y="-35.8639" font-family="Times New Roman,serif" font-size="14.00">0</text>
</g>
<!-- __start&#45;&gt;0 -->
<g id="edge1" class="edge"><title>__start&#45;&gt;0</title>
<path fill="none" stroke="black" d="M3.78604,-39.5639C8.86985,-39.5639 32.7092,-39.5639 54.1222,-39.5639"/>
<polygon fill="black" stroke="black" points="54.3463,-43.064 64.3463,-39.5639 54.3463,-36.064 54.3463,-43.064"/>
<text text-anchor="middle" x="34.1" y="-43.3639" font-family="Times New Roman,serif" font-size="14.00">start</text>
</g>
<!-- 1 -->
<g id="node3" class="node"><title>1</title>
<ellipse fill="none" stroke="black" cx="184.6" cy="-120.564" rx="18" ry="18"/>
<ellipse fill="none" stroke="black" cx="184.6" cy="-120.564" rx="22" ry="22"/>
<text text-anchor="middle" x="184.6" y="-116.864" font-family="Times New Roman,serif" font-size="14.00">1</text>
</g>
<!-- 0&#45;&gt;1 -->
<g id="edge5" class="edge"><title>0&#45;&gt;1</title>
<path fill="none" stroke="black" d="M108.415,-54.0841C116.76,-61.7105 127.194,-71.1876 136.6,-79.5639 144.082,-86.2273 152.296,-93.4303 159.735,-99.9121"/>
<polygon fill="black" stroke="black" points="157.588,-102.684 167.432,-106.603 162.181,-97.4007 157.588,-102.684"/>
<text text-anchor="middle" x="140.6" y="-89.3639" font-family="Times New Roman,serif" font-size="14.00">q</text>
</g>
<!-- 2 -->
<g id="node4" class="node"><title>2</title>
<ellipse fill="none" stroke="black" cx="268.6" cy="-65.5639" rx="18" ry="18"/>
<text text-anchor="middle" x="268.6" y="-61.8639" font-family="Times New Roman,serif" font-size="14.00">2</text>
</g>
<!-- 0&#45;&gt;2 -->
<g id="edge4" class="edge"><title>0&#45;&gt;2</title>
<path fill="none" stroke="black" d="M118.047,-43.3445C150.722,-48.1992 207.185,-56.588 240.597,-61.552"/>
<polygon fill="black" stroke="black" points="240.169,-65.0268 250.575,-63.0345 241.198,-58.1028 240.169,-65.0268"/>
<text text-anchor="middle" x="184.6" y="-59.3639" font-family="Times New Roman,serif" font-size="14.00">v</text>
</g>
<!-- 1&#45;&gt;2 -->
<g id="edge6" class="edge"><title>1&#45;&gt;2</title>
<path fill="none" stroke="black" d="M206.917,-121.437C215.418,-120.902 224.974,-119.122 232.6,-114.564 242.022,-108.932 249.603,-99.6768 255.268,-90.718"/>
<polygon fill="black" stroke="black" points="258.33,-92.4148 260.292,-82.0032 252.265,-88.9188 258.33,-92.4148"/>
<text text-anchor="middle" x="228.6" y="-121.364" font-family="Times New Roman,serif" font-size="14.00">v</text>
</g>
<!-- 1&#45;&gt;2 -->
<g id="edge7" class="edge"><title>1&#45;&gt;2</title>
<path fill="none" stroke="black" d="M203.393,-108.63C215.487,-100.518 231.597,-89.7122 244.655,-80.954"/>
<polygon fill="black" stroke="black" points="246.765,-83.7532 253.12,-75.2761 242.865,-77.9398 246.765,-83.7532"/>
<text text-anchor="middle" x="228.6" y="-96.3639" font-family="Times New Roman,serif" font-size="14.00">q</text>
</g>
<!-- 2&#45;&gt;0 -->
<g id="edge2" class="edge"><title>2&#45;&gt;0</title>
<path fill="none" stroke="black" d="M254.089,-54.3594C242.36,-45.4095 224.493,-33.5663 206.6,-28.5639 180.362,-21.2286 149.554,-24.8963 126.584,-29.8902"/>
<polygon fill="black" stroke="black" points="125.553,-26.5373 116.626,-32.2433 127.163,-33.3497 125.553,-26.5373"/>
<text text-anchor="middle" x="184.6" y="-32.3639" font-family="Times New Roman,serif" font-size="14.00">v</text>
</g>
<!-- 2&#45;&gt;0 -->
<g id="edge3" class="edge"><title>2&#45;&gt;0</title>
<path fill="none" stroke="black" d="M258.033,-50.686C247.489,-35.81 229.016,-13.8488 206.6,-4.5639 177.387,7.53642 142.456,-7.25818 119.027,-21.164"/>
<polygon fill="black" stroke="black" points="116.97,-18.322 110.345,-26.5898 120.68,-24.2582 116.97,-18.322"/>
<text text-anchor="middle" x="184.6" y="-8.3639" font-family="Times New Roman,serif" font-size="14.00">q</text>
</g>
</g>
</svg>
