<?xml version="1.0" encoding="UTF-8" standalone="no"?>
<!DOCTYPE svg PUBLIC "-//W3C//DTD SVG 1.1//EN"
 "http://www.w3.org/Graphics/SVG/1.1/DTD/svg11.dtd">
<!-- Generated by graphviz version 2.38.0 (20140413.2041)
 -->
<!-- Title: dfa Pages: 1 -->
<svg width="294pt" height="200pt"
 viewBox="0.00 0.00 293.60 200.00" xmlns="http://www.w3.org/2000/svg" xmlns:xlink="http://www.w3.org/1999/xlink">
<g id="graph0" class="graph" transform="scale(1 1) rotate(0) translate(4 196)">
<title>dfa</title>
<polygon fill="white" stroke="none" points="-4,4 -4,-196 289.6,-196 289.6,4 -4,4"/>
<!-- __start -->
<!-- 0 -->
<g id="node2" class="node"><title>0</title>
<ellipse fill="none" stroke="black" cx="91.6" cy="-18" rx="27" ry="18"/>
<text text-anchor="middle" x="91.6" y="-14.3" font-family="Times New Roman,serif" font-size="14.00">0</text>
</g>
<!-- __start&#45;&gt;0 -->
<g id="edge1" class="edge"><title>__start&#45;&gt;0</title>
<path fill="none" stroke="black" d="M3.78604,-18C8.86985,-18 32.7092,-18 54.1222,-18"/>
<polygon fill="black" stroke="black" points="54.3463,-21.5001 64.3463,-18 54.3463,-14.5001 54.3463,-21.5001"/>
<text text-anchor="middle" x="34.1" y="-21.8" font-family="Times New Roman,serif" font-size="14.00">start</text>
</g>
<!-- 0&#45;&gt;0 -->
<g id="edge7" class="edge"><title>0&#45;&gt;0</title>
<path fill="none" stroke="black" d="M83.0307,-35.4099C81.4311,-45.0879 84.2875,-54 91.6,-54 96.1703,-54 99,-50.5187 100.089,-45.5449"/>
<polygon fill="black" stroke="black" points="103.59,-45.4374 100.169,-35.4099 96.5901,-45.3818 103.59,-45.4374"/>
<text text-anchor="middle" x="91.6" y="-57.8" font-family="Times New Roman,serif" font-size="14.00">o</text>
</g>
<!-- 2 -->
<g id="node4" class="node"><title>2</title>
<ellipse fill="none" stroke="black" cx="179.6" cy="-56" rx="18" ry="18"/>
<text text-anchor="middle" x="179.6" y="-52.3" font-family="Times New Roman,serif" font-size="14.00">2</text>
</g>
<!-- 0&#45;&gt;2 -->
<g id="edge6" class="edge"><title>0&#45;&gt;2</title>
<path fill="none" stroke="black" d="M114.747,-27.7859C126.607,-33.0262 141.259,-39.5003 153.535,-44.9246"/>
<polygon fill="black" stroke="black" points="152.21,-48.1657 162.771,-49.006 155.039,-41.7629 152.21,-48.1657"/>
<text text-anchor="middle" x="140.1" y="-43.8" font-family="Times New Roman,serif" font-size="14.00">k</text>
</g>
<!-- 1 -->
<g id="node3" class="node"><title>1</title>
<ellipse fill="none" stroke="black" cx="263.6" cy="-104" rx="18" ry="18"/>
<ellipse fill="none" stroke="black" cx="263.6" cy="-104" rx="22" ry="22"/>
<text text-anchor="middle" x="263.6" y="-100.3" font-family="Times New Roman,serif" font-size="14.00">1</text>
</g>
<!-- 1&#45;&gt;1 -->
<g id="edge8" class="edge"><title>1&#45;&gt;1</title>
<path fill="none" stroke="black" d="M259.539,-125.807C259.153,-135.563 260.506,-144 263.6,-144 265.534,-144 266.787,-140.704 267.361,-135.85"/>
<polygon fill="black" stroke="black" points="270.861,-135.906 267.661,-125.807 263.864,-135.698 270.861,-135.906"/>
<text text-anchor="middle" x="263.6" y="-147.8" font-family="Times New Roman,serif" font-size="14.00">k</text>
</g>
<!-- 1&#45;&gt;1 -->
<g id="edge9" class="edge"><title>1&#45;&gt;1</title>
<path fill="none" stroke="black" d="M256.66,-125.114C253.595,-143.096 255.909,-162 263.6,-162 269.849,-162 272.548,-149.52 271.697,-135.195"/>
<polygon fill="black" stroke="black" points="275.157,-134.65 270.54,-125.114 268.203,-135.448 275.157,-134.65"/>
<text text-anchor="middle" x="263.6" y="-165.8" font-family="Times New Roman,serif" font-size="14.00">o</text>
</g>
<!-- 2&#45;&gt;1 -->
<g id="edge3" class="edge"><title>2&#45;&gt;1</title>
<path fill="none" stroke="black" d="M195.64,-64.8039C206.76,-71.313 222.207,-80.3555 235.463,-88.1151"/>
<polygon fill="black" stroke="black" points="233.812,-91.2041 244.21,-93.2353 237.348,-85.1629 233.812,-91.2041"/>
<text text-anchor="middle" x="219.6" y="-83.8" font-family="Times New Roman,serif" font-size="14.00">o</text>
</g>
<!-- 3 -->
<g id="node5" class="node"><title>3</title>
<ellipse fill="none" stroke="black" cx="263.6" cy="-28" rx="18" ry="18"/>
<text text-anchor="middle" x="263.6" y="-24.3" font-family="Times New Roman,serif" font-size="14.00">3</text>
</g>
<!-- 2&#45;&gt;3 -->
<g id="edge2" class="edge"><title>2&#45;&gt;3</title>
<path fill="none" stroke="black" d="M197.485,-51.7782C205.471,-49.6571 215.097,-46.9196 223.6,-44 228.082,-42.4612 232.792,-40.6772 237.327,-38.8705"/>
<polygon fill="black" stroke="black" points="238.905,-42.0063 246.822,-34.9656 236.242,-35.5324 238.905,-42.0063"/>
<text text-anchor="middle" x="219.6" y="-49.8" font-family="Times New Roman,serif" font-size="14.00">k</text>
</g>
<!-- 3&#45;&gt;0 -->
<g id="edge5" class="edge"><title>3&#45;&gt;0</title>
<path fill="none" stroke="black" d="M245.924,-23.3858C232.887,-20.0282 214.244,-15.7721 197.6,-14 174.738,-11.5659 148.938,-12.4979 128.633,-14.0717"/>
<polygon fill="black" stroke="black" points="128.224,-10.5939 118.561,-14.9387 128.824,-17.5681 128.224,-10.5939"/>
<text text-anchor="middle" x="179.6" y="-17.8" font-family="Times New Roman,serif" font-size="14.00">o</text>
</g>
<!-- 3&#45;&gt;2 -->
<g id="edge4" class="edge"><title>3&#45;&gt;2</title>
<path fill="none" stroke="black" d="M246.001,-23.6391C236.769,-22.017 225.233,-21.3474 215.6,-25 209.668,-27.2493 204.096,-31.0146 199.217,-35.1606"/>
<polygon fill="black" stroke="black" points="196.549,-32.8675 191.719,-42.2969 201.375,-37.9381 196.549,-32.8675"/>
<text text-anchor="middle" x="219.6" y="-28.8" font-family="Times New Roman,serif" font-size="14.00">k</text>
</g>
</g>
</svg>
