<?xml version="1.0" encoding="UTF-8" standalone="no"?>
<!DOCTYPE svg PUBLIC "-//W3C//DTD SVG 1.1//EN"
 "http://www.w3.org/Graphics/SVG/1.1/DTD/svg11.dtd">
<!-- Generated by graphviz version 2.38.0 (20140413.2041)
 -->
<!-- Title: dfa Pages: 1 -->
<svg width="382pt" height="118pt"
 viewBox="0.00 0.00 381.60 118.00" xmlns="http://www.w3.org/2000/svg" xmlns:xlink="http://www.w3.org/1999/xlink">
<g id="graph0" class="graph" transform="scale(1 1) rotate(0) translate(4 114)">
<title>dfa</title>
<polygon fill="white" stroke="none" points="-4,4 -4,-114 377.6,-114 377.6,4 -4,4"/>
<!-- __start -->
<!-- 0 -->
<g id="node2" class="node"><title>0</title>
<ellipse fill="none" stroke="black" cx="91.6" cy="-22" rx="27" ry="18"/>
<text text-anchor="middle" x="91.6" y="-18.3" font-family="Times New Roman,serif" font-size="14.00">0</text>
</g>
<!-- __start&#45;&gt;0 -->
<g id="edge1" class="edge"><title>__start&#45;&gt;0</title>
<path fill="none" stroke="black" d="M3.78604,-22C8.86985,-22 32.7092,-22 54.1222,-22"/>
<polygon fill="black" stroke="black" points="54.3463,-25.5001 64.3463,-22 54.3463,-18.5001 54.3463,-25.5001"/>
<text text-anchor="middle" x="34.1" y="-25.8" font-family="Times New Roman,serif" font-size="14.00">start</text>
</g>
<!-- 0&#45;&gt;0 -->
<g id="edge3" class="edge"><title>0&#45;&gt;0</title>
<path fill="none" stroke="black" d="M83.0307,-39.4099C81.4311,-49.0879 84.2875,-58 91.6,-58 96.1703,-58 99,-54.5187 100.089,-49.5449"/>
<polygon fill="black" stroke="black" points="103.59,-49.4374 100.169,-39.4099 96.5901,-49.3818 103.59,-49.4374"/>
<text text-anchor="middle" x="91.6" y="-61.8" font-family="Times New Roman,serif" font-size="14.00">o</text>
</g>
<!-- 4 -->
<g id="node5" class="node"><title>4</title>
<ellipse fill="none" stroke="black" cx="179.6" cy="-22" rx="18" ry="18"/>
<text text-anchor="middle" x="179.6" y="-18.3" font-family="Times New Roman,serif" font-size="14.00">4</text>
</g>
<!-- 0&#45;&gt;4 -->
<g id="edge2" class="edge"><title>0&#45;&gt;4</title>
<path fill="none" stroke="black" d="M118.87,-22C129.135,-22 140.908,-22 151.272,-22"/>
<polygon fill="black" stroke="black" points="151.442,-25.5001 161.442,-22 151.442,-18.5001 151.442,-25.5001"/>
<text text-anchor="middle" x="140.1" y="-25.8" font-family="Times New Roman,serif" font-size="14.00">k</text>
</g>
<!-- 1 -->
<g id="node3" class="node"><title>1</title>
<ellipse fill="none" stroke="black" cx="263.6" cy="-22" rx="18" ry="18"/>
<ellipse fill="none" stroke="black" cx="263.6" cy="-22" rx="22" ry="22"/>
<text text-anchor="middle" x="263.6" y="-18.3" font-family="Times New Roman,serif" font-size="14.00">1</text>
</g>
<!-- 3 -->
<g id="node4" class="node"><title>3</title>
<ellipse fill="none" stroke="black" cx="351.6" cy="-22" rx="18" ry="18"/>
<ellipse fill="none" stroke="black" cx="351.6" cy="-22" rx="22" ry="22"/>
<text text-anchor="middle" x="351.6" y="-18.3" font-family="Times New Roman,serif" font-size="14.00">3</text>
</g>
<!-- 1&#45;&gt;3 -->
<g id="edge4" class="edge"><title>1&#45;&gt;3</title>
<path fill="none" stroke="black" d="M285.858,-22C295.96,-22 308.235,-22 319.369,-22"/>
<polygon fill="black" stroke="black" points="319.586,-25.5001 329.586,-22 319.586,-18.5001 319.586,-25.5001"/>
<text text-anchor="middle" x="307.6" y="-25.8" font-family="Times New Roman,serif" font-size="14.00">k</text>
</g>
<!-- 1&#45;&gt;3 -->
<g id="edge5" class="edge"><title>1&#45;&gt;3</title>
<path fill="none" stroke="black" d="M282.026,-9.35432C290.704,-4.5205 301.48,-0.666039 311.6,-3 315.343,-3.86323 319.142,-5.13659 322.827,-6.62241"/>
<polygon fill="black" stroke="black" points="321.647,-9.93162 332.196,-10.9159 324.563,-3.568 321.647,-9.93162"/>
<text text-anchor="middle" x="307.6" y="-6.8" font-family="Times New Roman,serif" font-size="14.00">o</text>
</g>
<!-- 3&#45;&gt;3 -->
<g id="edge6" class="edge"><title>3&#45;&gt;3</title>
<path fill="none" stroke="black" d="M347.539,-43.8066C347.153,-53.5625 348.506,-62 351.6,-62 353.534,-62 354.787,-58.7041 355.361,-53.8504"/>
<polygon fill="black" stroke="black" points="358.861,-53.9064 355.661,-43.8066 351.864,-53.698 358.861,-53.9064"/>
<text text-anchor="middle" x="351.6" y="-65.8" font-family="Times New Roman,serif" font-size="14.00">k</text>
</g>
<!-- 3&#45;&gt;3 -->
<g id="edge7" class="edge"><title>3&#45;&gt;3</title>
<path fill="none" stroke="black" d="M344.66,-43.1143C341.595,-61.0956 343.909,-80 351.6,-80 357.849,-80 360.548,-67.5201 359.697,-53.1954"/>
<polygon fill="black" stroke="black" points="363.157,-52.6501 358.54,-43.1143 356.203,-53.4481 363.157,-52.6501"/>
<text text-anchor="middle" x="351.6" y="-83.8" font-family="Times New Roman,serif" font-size="14.00">o</text>
</g>
<!-- 4&#45;&gt;0 -->
<g id="edge8" class="edge"><title>4&#45;&gt;0</title>
<path fill="none" stroke="black" d="M164.289,-12.1343C158.198,-8.50652 150.837,-4.83778 143.6,-3 136.045,-1.08149 128.062,-2.37276 120.713,-5.00427"/>
<polygon fill="black" stroke="black" points="118.894,-1.98266 111.183,-9.24782 121.742,-8.37736 118.894,-1.98266"/>
<text text-anchor="middle" x="140.1" y="-6.8" font-family="Times New Roman,serif" font-size="14.00">k</text>
</g>
<!-- 4&#45;&gt;1 -->
<g id="edge9" class="edge"><title>4&#45;&gt;1</title>
<path fill="none" stroke="black" d="M197.99,-22C207.708,-22 220.111,-22 231.447,-22"/>
<polygon fill="black" stroke="black" points="231.45,-25.5001 241.45,-22 231.45,-18.5001 231.45,-25.5001"/>
<text text-anchor="middle" x="219.6" y="-25.8" font-family="Times New Roman,serif" font-size="14.00">o</text>
</g>
</g>
</svg>
