<?xml version="1.0" encoding="UTF-8" standalone="no"?>
<!DOCTYPE svg PUBLIC "-//W3C//DTD SVG 1.1//EN"
 "http://www.w3.org/Graphics/SVG/1.1/DTD/svg11.dtd">
<!-- Generated by graphviz version 2.38.0 (20140413.2041)
 -->
<!-- Title: dfa Pages: 1 -->
<svg width="364pt" height="118pt"
 viewBox="0.00 0.00 363.60 118.00" xmlns="http://www.w3.org/2000/svg" xmlns:xlink="http://www.w3.org/1999/xlink">
<g id="graph0" class="graph" transform="scale(1 1) rotate(0) translate(4 114)">
<title>dfa</title>
<polygon fill="white" stroke="none" points="-4,4 -4,-114 359.6,-114 359.6,4 -4,4"/>
<!-- __start -->
<!-- 0 -->
<g id="node2" class="node"><title>0</title>
<ellipse fill="none" stroke="black" cx="82.6" cy="-22" rx="18" ry="18"/>
<text text-anchor="middle" x="82.6" y="-18.3" font-family="Times New Roman,serif" font-size="14.00">0</text>
</g>
<!-- __start&#45;&gt;0 -->
<g id="edge1" class="edge"><title>__start&#45;&gt;0</title>
<path fill="none" stroke="black" d="M3.68496,-22C8.69573,-22 34.008,-22 54.4423,-22"/>
<polygon fill="black" stroke="black" points="54.5501,-25.5001 64.5501,-22 54.5501,-18.5001 54.5501,-25.5001"/>
<text text-anchor="middle" x="34.1" y="-25.8" font-family="Times New Roman,serif" font-size="14.00">start</text>
</g>
<!-- 0&#45;&gt;0 -->
<g id="edge3" class="edge"><title>0&#45;&gt;0</title>
<path fill="none" stroke="black" d="M75.8664,-39.0373C74.4922,-48.8579 76.7367,-58 82.6,-58 86.2646,-58 88.5155,-54.4289 89.3529,-49.3529"/>
<polygon fill="black" stroke="black" points="92.8524,-49.0307 89.3336,-39.0373 85.8524,-49.0439 92.8524,-49.0307"/>
<text text-anchor="middle" x="82.6" y="-61.8" font-family="Times New Roman,serif" font-size="14.00">o</text>
</g>
<!-- 4 -->
<g id="node5" class="node"><title>4</title>
<ellipse fill="none" stroke="black" cx="161.6" cy="-22" rx="18" ry="18"/>
<text text-anchor="middle" x="161.6" y="-18.3" font-family="Times New Roman,serif" font-size="14.00">4</text>
</g>
<!-- 0&#45;&gt;4 -->
<g id="edge2" class="edge"><title>0&#45;&gt;4</title>
<path fill="none" stroke="black" d="M100.689,-22C110.259,-22 122.417,-22 133.277,-22"/>
<polygon fill="black" stroke="black" points="133.559,-25.5001 143.559,-22 133.559,-18.5001 133.559,-25.5001"/>
<text text-anchor="middle" x="122.1" y="-25.8" font-family="Times New Roman,serif" font-size="14.00">k</text>
</g>
<!-- 1 -->
<g id="node3" class="node"><title>1</title>
<ellipse fill="none" stroke="black" cx="245.6" cy="-22" rx="18" ry="18"/>
<ellipse fill="none" stroke="black" cx="245.6" cy="-22" rx="22" ry="22"/>
<text text-anchor="middle" x="245.6" y="-18.3" font-family="Times New Roman,serif" font-size="14.00">1</text>
</g>
<!-- 3 -->
<g id="node4" class="node"><title>3</title>
<ellipse fill="none" stroke="black" cx="333.6" cy="-22" rx="18" ry="18"/>
<ellipse fill="none" stroke="black" cx="333.6" cy="-22" rx="22" ry="22"/>
<text text-anchor="middle" x="333.6" y="-18.3" font-family="Times New Roman,serif" font-size="14.00">3</text>
</g>
<!-- 1&#45;&gt;3 -->
<g id="edge4" class="edge"><title>1&#45;&gt;3</title>
<path fill="none" stroke="black" d="M267.858,-22C277.96,-22 290.235,-22 301.369,-22"/>
<polygon fill="black" stroke="black" points="301.586,-25.5001 311.586,-22 301.586,-18.5001 301.586,-25.5001"/>
<text text-anchor="middle" x="289.6" y="-25.8" font-family="Times New Roman,serif" font-size="14.00">k</text>
</g>
<!-- 1&#45;&gt;3 -->
<g id="edge5" class="edge"><title>1&#45;&gt;3</title>
<path fill="none" stroke="black" d="M264.026,-9.35432C272.704,-4.5205 283.48,-0.666039 293.6,-3 297.343,-3.86323 301.142,-5.13659 304.827,-6.62241"/>
<polygon fill="black" stroke="black" points="303.647,-9.93162 314.196,-10.9159 306.563,-3.568 303.647,-9.93162"/>
<text text-anchor="middle" x="289.6" y="-6.8" font-family="Times New Roman,serif" font-size="14.00">o</text>
</g>
<!-- 3&#45;&gt;3 -->
<g id="edge6" class="edge"><title>3&#45;&gt;3</title>
<path fill="none" stroke="black" d="M329.539,-43.8066C329.153,-53.5625 330.506,-62 333.6,-62 335.534,-62 336.787,-58.7041 337.361,-53.8504"/>
<polygon fill="black" stroke="black" points="340.861,-53.9064 337.661,-43.8066 333.864,-53.698 340.861,-53.9064"/>
<text text-anchor="middle" x="333.6" y="-65.8" font-family="Times New Roman,serif" font-size="14.00">k</text>
</g>
<!-- 3&#45;&gt;3 -->
<g id="edge7" class="edge"><title>3&#45;&gt;3</title>
<path fill="none" stroke="black" d="M326.66,-43.1143C323.595,-61.0956 325.909,-80 333.6,-80 339.849,-80 342.548,-67.5201 341.697,-53.1954"/>
<polygon fill="black" stroke="black" points="345.157,-52.6501 340.54,-43.1143 338.203,-53.4481 345.157,-52.6501"/>
<text text-anchor="middle" x="333.6" y="-83.8" font-family="Times New Roman,serif" font-size="14.00">o</text>
</g>
<!-- 4&#45;&gt;0 -->
<g id="edge8" class="edge"><title>4&#45;&gt;0</title>
<path fill="none" stroke="black" d="M147.421,-10.8617C139.357,-5.37901 128.684,-0.439405 118.6,-3 114.642,-4.00504 110.647,-5.55766 106.844,-7.35171"/>
<polygon fill="black" stroke="black" points="105.075,-4.32845 97.9113,-12.1343 108.379,-10.4996 105.075,-4.32845"/>
<text text-anchor="middle" x="122.1" y="-6.8" font-family="Times New Roman,serif" font-size="14.00">k</text>
</g>
<!-- 4&#45;&gt;1 -->
<g id="edge9" class="edge"><title>4&#45;&gt;1</title>
<path fill="none" stroke="black" d="M179.99,-22C189.708,-22 202.111,-22 213.447,-22"/>
<polygon fill="black" stroke="black" points="213.45,-25.5001 223.45,-22 213.45,-18.5001 213.45,-25.5001"/>
<text text-anchor="middle" x="201.6" y="-25.8" font-family="Times New Roman,serif" font-size="14.00">o</text>
</g>
</g>
</svg>
