<?xml version="1.0" encoding="UTF-8" standalone="no"?>
<!DOCTYPE svg PUBLIC "-//W3C//DTD SVG 1.1//EN"
 "http://www.w3.org/Graphics/SVG/1.1/DTD/svg11.dtd">
<!-- Generated by graphviz version 2.38.0 (20140413.2041)
 -->
<!-- Title: dfa Pages: 1 -->
<svg width="276pt" height="200pt"
 viewBox="0.00 0.00 275.60 200.00" xmlns="http://www.w3.org/2000/svg" xmlns:xlink="http://www.w3.org/1999/xlink">
<g id="graph0" class="graph" transform="scale(1 1) rotate(0) translate(4 196)">
<title>dfa</title>
<polygon fill="white" stroke="none" points="-4,4 -4,-196 271.6,-196 271.6,4 -4,4"/>
<!-- __start -->
<!-- 0 -->
<g id="node2" class="node"><title>0</title>
<ellipse fill="none" stroke="black" cx="82.6" cy="-18" rx="18" ry="18"/>
<text text-anchor="middle" x="82.6" y="-14.3" font-family="Times New Roman,serif" font-size="14.00">0</text>
</g>
<!-- __start&#45;&gt;0 -->
<g id="edge1" class="edge"><title>__start&#45;&gt;0</title>
<path fill="none" stroke="black" d="M3.68496,-18C8.69573,-18 34.008,-18 54.4423,-18"/>
<polygon fill="black" stroke="black" points="54.5501,-21.5001 64.5501,-18 54.5501,-14.5001 54.5501,-21.5001"/>
<text text-anchor="middle" x="34.1" y="-21.8" font-family="Times New Roman,serif" font-size="14.00">start</text>
</g>
<!-- 0&#45;&gt;0 -->
<g id="edge7" class="edge"><title>0&#45;&gt;0</title>
<path fill="none" stroke="black" d="M75.8664,-35.0373C74.4922,-44.8579 76.7367,-54 82.6,-54 86.2646,-54 88.5155,-50.4289 89.3529,-45.3529"/>
<polygon fill="black" stroke="black" points="92.8524,-45.0307 89.3336,-35.0373 85.8524,-45.0439 92.8524,-45.0307"/>
<text text-anchor="middle" x="82.6" y="-57.8" font-family="Times New Roman,serif" font-size="14.00">o</text>
</g>
<!-- 2 -->
<g id="node4" class="node"><title>2</title>
<ellipse fill="none" stroke="black" cx="161.6" cy="-56" rx="18" ry="18"/>
<text text-anchor="middle" x="161.6" y="-52.3" font-family="Times New Roman,serif" font-size="14.00">2</text>
</g>
<!-- 0&#45;&gt;2 -->
<g id="edge6" class="edge"><title>0&#45;&gt;2</title>
<path fill="none" stroke="black" d="M99.1821,-25.6899C109.723,-30.892 123.868,-37.8727 135.927,-43.8235"/>
<polygon fill="black" stroke="black" points="134.525,-47.0346 145.041,-48.3216 137.623,-40.7574 134.525,-47.0346"/>
<text text-anchor="middle" x="122.1" y="-41.8" font-family="Times New Roman,serif" font-size="14.00">k</text>
</g>
<!-- 1 -->
<g id="node3" class="node"><title>1</title>
<ellipse fill="none" stroke="black" cx="245.6" cy="-104" rx="18" ry="18"/>
<ellipse fill="none" stroke="black" cx="245.6" cy="-104" rx="22" ry="22"/>
<text text-anchor="middle" x="245.6" y="-100.3" font-family="Times New Roman,serif" font-size="14.00">1</text>
</g>
<!-- 1&#45;&gt;1 -->
<g id="edge8" class="edge"><title>1&#45;&gt;1</title>
<path fill="none" stroke="black" d="M241.539,-125.807C241.153,-135.563 242.506,-144 245.6,-144 247.534,-144 248.787,-140.704 249.361,-135.85"/>
<polygon fill="black" stroke="black" points="252.861,-135.906 249.661,-125.807 245.864,-135.698 252.861,-135.906"/>
<text text-anchor="middle" x="245.6" y="-147.8" font-family="Times New Roman,serif" font-size="14.00">k</text>
</g>
<!-- 1&#45;&gt;1 -->
<g id="edge9" class="edge"><title>1&#45;&gt;1</title>
<path fill="none" stroke="black" d="M238.66,-125.114C235.595,-143.096 237.909,-162 245.6,-162 251.849,-162 254.548,-149.52 253.697,-135.195"/>
<polygon fill="black" stroke="black" points="257.157,-134.65 252.54,-125.114 250.203,-135.448 257.157,-134.65"/>
<text text-anchor="middle" x="245.6" y="-165.8" font-family="Times New Roman,serif" font-size="14.00">o</text>
</g>
<!-- 2&#45;&gt;1 -->
<g id="edge3" class="edge"><title>2&#45;&gt;1</title>
<path fill="none" stroke="black" d="M177.64,-64.8039C188.76,-71.313 204.207,-80.3555 217.463,-88.1151"/>
<polygon fill="black" stroke="black" points="215.812,-91.2041 226.21,-93.2353 219.348,-85.1629 215.812,-91.2041"/>
<text text-anchor="middle" x="201.6" y="-83.8" font-family="Times New Roman,serif" font-size="14.00">o</text>
</g>
<!-- 3 -->
<g id="node5" class="node"><title>3</title>
<ellipse fill="none" stroke="black" cx="245.6" cy="-28" rx="18" ry="18"/>
<text text-anchor="middle" x="245.6" y="-24.3" font-family="Times New Roman,serif" font-size="14.00">3</text>
</g>
<!-- 2&#45;&gt;3 -->
<g id="edge2" class="edge"><title>2&#45;&gt;3</title>
<path fill="none" stroke="black" d="M179.485,-51.7782C187.471,-49.6571 197.097,-46.9196 205.6,-44 210.082,-42.4612 214.792,-40.6772 219.327,-38.8705"/>
<polygon fill="black" stroke="black" points="220.905,-42.0063 228.822,-34.9656 218.242,-35.5324 220.905,-42.0063"/>
<text text-anchor="middle" x="201.6" y="-49.8" font-family="Times New Roman,serif" font-size="14.00">k</text>
</g>
<!-- 3&#45;&gt;0 -->
<g id="edge5" class="edge"><title>3&#45;&gt;0</title>
<path fill="none" stroke="black" d="M227.924,-23.3858C214.887,-20.0282 196.244,-15.7721 179.6,-14 163.69,-12.306 159.591,-13.4676 143.6,-14 132.836,-14.3584 121.003,-15.0775 110.712,-15.8085"/>
<polygon fill="black" stroke="black" points="110.366,-12.3245 100.654,-16.5598 110.887,-19.305 110.366,-12.3245"/>
<text text-anchor="middle" x="161.6" y="-17.8" font-family="Times New Roman,serif" font-size="14.00">o</text>
</g>
<!-- 3&#45;&gt;2 -->
<g id="edge4" class="edge"><title>3&#45;&gt;2</title>
<path fill="none" stroke="black" d="M228.001,-23.6391C218.769,-22.017 207.233,-21.3474 197.6,-25 191.668,-27.2493 186.096,-31.0146 181.217,-35.1606"/>
<polygon fill="black" stroke="black" points="178.549,-32.8675 173.719,-42.2969 183.375,-37.9381 178.549,-32.8675"/>
<text text-anchor="middle" x="201.6" y="-28.8" font-family="Times New Roman,serif" font-size="14.00">k</text>
</g>
</g>
</svg>
