<?xml version="1.0" encoding="UTF-8" standalone="no"?>
<!DOCTYPE svg PUBLIC "-//W3C//DTD SVG 1.1//EN"
 "http://www.w3.org/Graphics/SVG/1.1/DTD/svg11.dtd">
<!-- Generated by graphviz version 2.38.0 (20140413.2041)
 -->
<!-- Title: dfa Pages: 1 -->
<svg width="277pt" height="107pt"
 viewBox="0.00 0.00 276.60 107.00" xmlns="http://www.w3.org/2000/svg" xmlns:xlink="http://www.w3.org/1999/xlink">
<g id="graph0" class="graph" transform="scale(1 1) rotate(0) translate(4 103)">
<title>dfa</title>
<polygon fill="white" stroke="none" points="-4,4 -4,-103 272.6,-103 272.6,4 -4,4"/>
<!-- __start -->
<!-- 0 -->
<g id="node2" class="node"><title>0</title>
<ellipse fill="none" stroke="black" cx="82.6" cy="-18" rx="18" ry="18"/>
<text text-anchor="middle" x="82.6" y="-14.3" font-family="Times New Roman,serif" font-size="14.00">0</text>
</g>
<!-- __start&#45;&gt;0 -->
<g id="edge1" class="edge"><title>__start&#45;&gt;0</title>
<path fill="none" stroke="black" d="M3.68496,-18C8.69573,-18 34.008,-18 54.4423,-18"/>
<polygon fill="black" stroke="black" points="54.5501,-21.5001 64.5501,-18 54.5501,-14.5001 54.5501,-21.5001"/>
<text text-anchor="middle" x="34.1" y="-21.8" font-family="Times New Roman,serif" font-size="14.00">start</text>
</g>
<!-- 0&#45;&gt;0 -->
<g id="edge4" class="edge"><title>0&#45;&gt;0</title>
<path fill="none" stroke="black" d="M75.5688,-34.6641C74.0063,-44.625 76.35,-54 82.6,-54 86.6039,-54 89.0047,-50.1525 89.8023,-44.7682"/>
<polygon fill="black" stroke="black" points="93.3001,-44.6033 89.6313,-34.6641 86.3011,-44.7219 93.3001,-44.6033"/>
<text text-anchor="middle" x="82.6" y="-57.8" font-family="Times New Roman,serif" font-size="14.00">a</text>
</g>
<!-- 2 -->
<g id="node4" class="node"><title>2</title>
<ellipse fill="none" stroke="black" cx="162.6" cy="-48" rx="18" ry="18"/>
<text text-anchor="middle" x="162.6" y="-44.3" font-family="Times New Roman,serif" font-size="14.00">2</text>
</g>
<!-- 0&#45;&gt;2 -->
<g id="edge5" class="edge"><title>0&#45;&gt;2</title>
<path fill="none" stroke="black" d="M99.7617,-24.216C110.22,-28.2385 124.062,-33.5621 135.997,-38.1528"/>
<polygon fill="black" stroke="black" points="134.869,-41.4688 145.459,-41.7919 137.382,-34.9354 134.869,-41.4688"/>
<text text-anchor="middle" x="122.6" y="-36.8" font-family="Times New Roman,serif" font-size="14.00">b</text>
</g>
<!-- 1 -->
<g id="node3" class="node"><title>1</title>
<ellipse fill="none" stroke="black" cx="246.6" cy="-30" rx="18" ry="18"/>
<ellipse fill="none" stroke="black" cx="246.6" cy="-30" rx="22" ry="22"/>
<text text-anchor="middle" x="246.6" y="-26.3" font-family="Times New Roman,serif" font-size="14.00">1</text>
</g>
<!-- 1&#45;&gt;0 -->
<g id="edge7" class="edge"><title>1&#45;&gt;0</title>
<path fill="none" stroke="black" d="M226.478,-20.8982C213.788,-15.375 196.586,-8.85706 180.6,-6 156.812,-1.74873 129.474,-5.9405 109.896,-10.4975"/>
<polygon fill="black" stroke="black" points="109.004,-7.11275 100.158,-12.9431 110.709,-13.9019 109.004,-7.11275"/>
<text text-anchor="middle" x="162.6" y="-9.8" font-family="Times New Roman,serif" font-size="14.00">b</text>
</g>
<!-- 1&#45;&gt;2 -->
<g id="edge6" class="edge"><title>1&#45;&gt;2</title>
<path fill="none" stroke="black" d="M224.704,-25.7343C216.446,-24.8032 206.952,-24.6865 198.6,-27 194.374,-28.1704 190.147,-30.0018 186.165,-32.1063"/>
<polygon fill="black" stroke="black" points="184.22,-29.1913 177.437,-37.33 187.815,-35.1978 184.22,-29.1913"/>
<text text-anchor="middle" x="202.6" y="-30.8" font-family="Times New Roman,serif" font-size="14.00">a</text>
</g>
<!-- 2&#45;&gt;1 -->
<g id="edge3" class="edge"><title>2&#45;&gt;1</title>
<path fill="none" stroke="black" d="M180.935,-48.5366C188.845,-48.4398 198.282,-47.8417 206.6,-46 210.063,-45.2332 213.613,-44.1832 217.093,-42.9847"/>
<polygon fill="black" stroke="black" points="218.511,-46.1891 226.582,-39.3259 215.993,-39.6578 218.511,-46.1891"/>
<text text-anchor="middle" x="202.6" y="-50.8" font-family="Times New Roman,serif" font-size="14.00">b</text>
</g>
<!-- 2&#45;&gt;2 -->
<g id="edge2" class="edge"><title>2&#45;&gt;2</title>
<path fill="none" stroke="black" d="M155.569,-64.6641C154.006,-74.625 156.35,-84 162.6,-84 166.604,-84 169.005,-80.1525 169.802,-74.7682"/>
<polygon fill="black" stroke="black" points="173.3,-74.6033 169.631,-64.6641 166.301,-74.7219 173.3,-74.6033"/>
<text text-anchor="middle" x="162.6" y="-87.8" font-family="Times New Roman,serif" font-size="14.00">a</text>
</g>
</g>
</svg>
