<?xml version="1.0" encoding="UTF-8" standalone="no"?>
<!DOCTYPE svg PUBLIC "-//W3C//DTD SVG 1.1//EN"
 "http://www.w3.org/Graphics/SVG/1.1/DTD/svg11.dtd">
<!-- Generated by graphviz version 2.38.0 (20140413.2041)
 -->
<!-- Title: dfa Pages: 1 -->
<svg width="215pt" height="85pt"
 viewBox="0.00 0.00 214.60 85.00" xmlns="http://www.w3.org/2000/svg" xmlns:xlink="http://www.w3.org/1999/xlink">
<g id="graph0" class="graph" transform="scale(1 1) rotate(0) translate(4 81)">
<title>dfa</title>
<polygon fill="white" stroke="none" points="-4,4 -4,-81 210.6,-81 210.6,4 -4,4"/>
<!-- __start -->
<!-- 0 -->
<g id="node2" class="node"><title>0</title>
<ellipse fill="none" stroke="black" cx="91.6" cy="-22" rx="27" ry="18"/>
<text text-anchor="middle" x="91.6" y="-18.3" font-family="Times New Roman,serif" font-size="14.00">0</text>
</g>
<!-- __start&#45;&gt;0 -->
<g id="edge1" class="edge"><title>__start&#45;&gt;0</title>
<path fill="none" stroke="black" d="M3.78604,-22C8.86985,-22 32.7092,-22 54.1222,-22"/>
<polygon fill="black" stroke="black" points="54.3463,-25.5001 64.3463,-22 54.3463,-18.5001 54.3463,-25.5001"/>
<text text-anchor="middle" x="34.1" y="-25.8" font-family="Times New Roman,serif" font-size="14.00">start</text>
</g>
<!-- 0&#45;&gt;0 -->
<g id="edge5" class="edge"><title>0&#45;&gt;0</title>
<path fill="none" stroke="black" d="M83.0307,-39.4099C81.4311,-49.0879 84.2875,-58 91.6,-58 96.1703,-58 99,-54.5187 100.089,-49.5449"/>
<polygon fill="black" stroke="black" points="103.59,-49.4374 100.169,-39.4099 96.5901,-49.3818 103.59,-49.4374"/>
<text text-anchor="middle" x="91.6" y="-61.8" font-family="Times New Roman,serif" font-size="14.00">b</text>
</g>
<!-- 1 -->
<g id="node3" class="node"><title>1</title>
<ellipse fill="none" stroke="black" cx="184.6" cy="-22" rx="18" ry="18"/>
<ellipse fill="none" stroke="black" cx="184.6" cy="-22" rx="22" ry="22"/>
<text text-anchor="middle" x="184.6" y="-18.3" font-family="Times New Roman,serif" font-size="14.00">1</text>
</g>
<!-- 0&#45;&gt;1 -->
<g id="edge4" class="edge"><title>0&#45;&gt;1</title>
<path fill="none" stroke="black" d="M118.921,-22C129.423,-22 141.593,-22 152.524,-22"/>
<polygon fill="black" stroke="black" points="152.53,-25.5001 162.53,-22 152.53,-18.5001 152.53,-25.5001"/>
<text text-anchor="middle" x="140.6" y="-25.8" font-family="Times New Roman,serif" font-size="14.00">a</text>
</g>
<!-- 1&#45;&gt;0 -->
<g id="edge3" class="edge"><title>1&#45;&gt;0</title>
<path fill="none" stroke="black" d="M165.134,-11.495C158.825,-8.45094 151.592,-5.53575 144.6,-4 136.944,-2.31852 128.854,-3.56376 121.395,-6.03245"/>
<polygon fill="black" stroke="black" points="119.985,-2.82762 112.042,-9.83926 122.624,-9.31117 119.985,-2.82762"/>
<text text-anchor="middle" x="140.6" y="-7.8" font-family="Times New Roman,serif" font-size="14.00">b</text>
</g>
<!-- 1&#45;&gt;1 -->
<g id="edge2" class="edge"><title>1&#45;&gt;1</title>
<path fill="none" stroke="black" d="M176.594,-42.5808C175.486,-52.8447 178.155,-62 184.6,-62 188.729,-62 191.308,-58.2427 192.337,-52.8436"/>
<polygon fill="black" stroke="black" points="195.843,-52.6691 192.606,-42.5808 188.845,-52.4857 195.843,-52.6691"/>
<text text-anchor="middle" x="184.6" y="-65.8" font-family="Times New Roman,serif" font-size="14.00">a</text>
</g>
</g>
</svg>
