<?xml version="1.0" encoding="UTF-8" standalone="no"?>
<!DOCTYPE svg PUBLIC "-//W3C//DTD SVG 1.1//EN"
 "http://www.w3.org/Graphics/SVG/1.1/DTD/svg11.dtd">
<!-- Generated by graphviz version 2.38.0 (20140413.2041)
 -->
<!-- Title: dfa Pages: 1 -->
<svg width="295pt" height="107pt"
 viewBox="0.00 0.00 294.60 107.00" xmlns="http://www.w3.org/2000/svg" xmlns:xlink="http://www.w3.org/1999/xlink">
<g id="graph0" class="graph" transform="scale(1 1) rotate(0) translate(4 103)">
<title>dfa</title>
<polygon fill="white" stroke="none" points="-4,4 -4,-103 290.6,-103 290.6,4 -4,4"/>
<!-- __start -->
<!-- 0 -->
<g id="node2" class="node"><title>0</title>
<ellipse fill="none" stroke="black" cx="91.6" cy="-18" rx="27" ry="18"/>
<text text-anchor="middle" x="91.6" y="-14.3" font-family="Times New Roman,serif" font-size="14.00">0</text>
</g>
<!-- __start&#45;&gt;0 -->
<g id="edge1" class="edge"><title>__start&#45;&gt;0</title>
<path fill="none" stroke="black" d="M3.78604,-18C8.86985,-18 32.7092,-18 54.1222,-18"/>
<polygon fill="black" stroke="black" points="54.3463,-21.5001 64.3463,-18 54.3463,-14.5001 54.3463,-21.5001"/>
<text text-anchor="middle" x="34.1" y="-21.8" font-family="Times New Roman,serif" font-size="14.00">start</text>
</g>
<!-- 0&#45;&gt;0 -->
<g id="edge4" class="edge"><title>0&#45;&gt;0</title>
<path fill="none" stroke="black" d="M83.0307,-35.4099C81.4311,-45.0879 84.2875,-54 91.6,-54 96.1703,-54 99,-50.5187 100.089,-45.5449"/>
<polygon fill="black" stroke="black" points="103.59,-45.4374 100.169,-35.4099 96.5901,-45.3818 103.59,-45.4374"/>
<text text-anchor="middle" x="91.6" y="-57.8" font-family="Times New Roman,serif" font-size="14.00">a</text>
</g>
<!-- 2 -->
<g id="node4" class="node"><title>2</title>
<ellipse fill="none" stroke="black" cx="180.6" cy="-48" rx="18" ry="18"/>
<text text-anchor="middle" x="180.6" y="-44.3" font-family="Times New Roman,serif" font-size="14.00">2</text>
</g>
<!-- 0&#45;&gt;2 -->
<g id="edge5" class="edge"><title>0&#45;&gt;2</title>
<path fill="none" stroke="black" d="M115.914,-26.0394C127.633,-30.0802 141.862,-34.9868 153.896,-39.1364"/>
<polygon fill="black" stroke="black" points="152.789,-42.4572 163.384,-42.4083 155.071,-35.8396 152.789,-42.4572"/>
<text text-anchor="middle" x="140.6" y="-38.8" font-family="Times New Roman,serif" font-size="14.00">b</text>
</g>
<!-- 1 -->
<g id="node3" class="node"><title>1</title>
<ellipse fill="none" stroke="black" cx="264.6" cy="-30" rx="18" ry="18"/>
<ellipse fill="none" stroke="black" cx="264.6" cy="-30" rx="22" ry="22"/>
<text text-anchor="middle" x="264.6" y="-26.3" font-family="Times New Roman,serif" font-size="14.00">1</text>
</g>
<!-- 1&#45;&gt;0 -->
<g id="edge7" class="edge"><title>1&#45;&gt;0</title>
<path fill="none" stroke="black" d="M244.478,-20.8982C231.788,-15.375 214.586,-8.85706 198.6,-6 174.737,-1.73532 147.567,-4.96834 126.709,-9.14707"/>
<polygon fill="black" stroke="black" points="125.754,-5.77279 116.724,-11.3144 127.238,-12.6135 125.754,-5.77279"/>
<text text-anchor="middle" x="180.6" y="-9.8" font-family="Times New Roman,serif" font-size="14.00">b</text>
</g>
<!-- 1&#45;&gt;2 -->
<g id="edge6" class="edge"><title>1&#45;&gt;2</title>
<path fill="none" stroke="black" d="M242.704,-25.7343C234.446,-24.8032 224.952,-24.6865 216.6,-27 212.374,-28.1704 208.147,-30.0018 204.165,-32.1063"/>
<polygon fill="black" stroke="black" points="202.22,-29.1913 195.437,-37.33 205.815,-35.1978 202.22,-29.1913"/>
<text text-anchor="middle" x="220.6" y="-30.8" font-family="Times New Roman,serif" font-size="14.00">a</text>
</g>
<!-- 2&#45;&gt;1 -->
<g id="edge3" class="edge"><title>2&#45;&gt;1</title>
<path fill="none" stroke="black" d="M198.935,-48.5366C206.845,-48.4398 216.282,-47.8417 224.6,-46 228.063,-45.2332 231.613,-44.1832 235.093,-42.9847"/>
<polygon fill="black" stroke="black" points="236.511,-46.1891 244.582,-39.3259 233.993,-39.6578 236.511,-46.1891"/>
<text text-anchor="middle" x="220.6" y="-50.8" font-family="Times New Roman,serif" font-size="14.00">b</text>
</g>
<!-- 2&#45;&gt;2 -->
<g id="edge2" class="edge"><title>2&#45;&gt;2</title>
<path fill="none" stroke="black" d="M173.569,-64.6641C172.006,-74.625 174.35,-84 180.6,-84 184.604,-84 187.005,-80.1525 187.802,-74.7682"/>
<polygon fill="black" stroke="black" points="191.3,-74.6033 187.631,-64.6641 184.301,-74.7219 191.3,-74.6033"/>
<text text-anchor="middle" x="180.6" y="-87.8" font-family="Times New Roman,serif" font-size="14.00">a</text>
</g>
</g>
</svg>
