<?xml version="1.0" encoding="UTF-8" standalone="no"?>
<!DOCTYPE svg PUBLIC "-//W3C//DTD SVG 1.1//EN"
 "http://www.w3.org/Graphics/SVG/1.1/DTD/svg11.dtd">
<!-- Generated by graphviz version 2.38.0 (20140413.2041)
 -->
<!-- Title: dfa Pages: 1 -->
<svg width="550pt" height="184pt"
 viewBox="0.00 0.00 550.08 183.95" xmlns="http://www.w3.org/2000/svg" xmlns:xlink="http://www.w3.org/1999/xlink">
<g id="graph0" class="graph" transform="scale(1 1) rotate(0) translate(4 179.948)">
<title>dfa</title>
<polygon fill="white" stroke="none" points="-4,4 -4,-179.948 546.075,-179.948 546.075,4 -4,4"/>
<!-- __start -->
<!-- (0,0) -->
<g id="node2" class="node"><title>(0,0)</title>
<ellipse fill="none" stroke="black" cx="92.5475" cy="-46" rx="27.8951" ry="27.8951"/>
<text text-anchor="middle" x="92.5475" y="-42.3" font-family="Times New Roman,serif" font-size="14.00">(0,0)</text>
</g>
<!-- __start&#45;&gt;(0,0) -->
<g id="edge1" class="edge"><title>__start&#45;&gt;(0,0)</title>
<path fill="none" stroke="black" d="M3.79668,-46C8.92583,-46 32.9428,-46 54.5557,-46"/>
<polygon fill="black" stroke="black" points="54.5589,-49.5001 64.5589,-46 54.5588,-42.5001 54.5589,-49.5001"/>
<text text-anchor="middle" x="34.1" y="-49.8" font-family="Times New Roman,serif" font-size="14.00">start</text>
</g>
<!-- (0,1) -->
<g id="node3" class="node"><title>(0,1)</title>
<ellipse fill="none" stroke="black" cx="195.443" cy="-111" rx="27.9017" ry="27.9017"/>
<ellipse fill="none" stroke="black" cx="195.443" cy="-111" rx="31.8951" ry="31.8951"/>
<text text-anchor="middle" x="195.443" y="-107.3" font-family="Times New Roman,serif" font-size="14.00">(0,1)</text>
</g>
<!-- (0,0)&#45;&gt;(0,1) -->
<g id="edge10" class="edge"><title>(0,0)&#45;&gt;(0,1)</title>
<path fill="none" stroke="black" d="M116.442,-60.7495C129.153,-68.9384 145.231,-79.2962 159.482,-88.4775"/>
<polygon fill="black" stroke="black" points="157.772,-91.5387 168.074,-94.0122 161.563,-85.6541 157.772,-91.5387"/>
<text text-anchor="middle" x="141.995" y="-82.8" font-family="Times New Roman,serif" font-size="14.00">a</text>
</g>
<!-- (2,0) -->
<g id="node6" class="node"><title>(2,0)</title>
<ellipse fill="none" stroke="black" cx="299.338" cy="-75" rx="27.8951" ry="27.8951"/>
<text text-anchor="middle" x="299.338" y="-71.3" font-family="Times New Roman,serif" font-size="14.00">(2,0)</text>
</g>
<!-- (0,0)&#45;&gt;(2,0) -->
<g id="edge11" class="edge"><title>(0,0)&#45;&gt;(2,0)</title>
<path fill="none" stroke="black" d="M120.66,-46.1786C147.838,-46.7421 190.786,-48.6806 227.39,-55 239.073,-57.0169 251.591,-60.1932 262.81,-63.4256"/>
<polygon fill="black" stroke="black" points="262.103,-66.8673 272.687,-66.3783 264.108,-60.1606 262.103,-66.8673"/>
<text text-anchor="middle" x="195.443" y="-58.8" font-family="Times New Roman,serif" font-size="14.00">b</text>
</g>
<!-- (0,1)&#45;&gt;(0,1) -->
<g id="edge8" class="edge"><title>(0,1)&#45;&gt;(0,1)</title>
<path fill="none" stroke="black" d="M185.695,-141.728C185.592,-152.361 188.841,-160.948 195.443,-160.948 199.775,-160.948 202.663,-157.25 204.108,-151.702"/>
<polygon fill="black" stroke="black" points="207.591,-152.047 205.19,-141.728 200.632,-151.292 207.591,-152.047"/>
<text text-anchor="middle" x="195.443" y="-164.748" font-family="Times New Roman,serif" font-size="14.00">a</text>
</g>
<!-- (0,1)&#45;&gt;(2,0) -->
<g id="edge9" class="edge"><title>(0,1)&#45;&gt;(2,0)</title>
<path fill="none" stroke="black" d="M225.915,-100.587C237.486,-96.499 250.867,-91.7715 262.955,-87.5009"/>
<polygon fill="black" stroke="black" points="264.473,-90.6765 272.736,-84.0451 262.141,-84.0763 264.473,-90.6765"/>
<text text-anchor="middle" x="249.39" y="-96.8" font-family="Times New Roman,serif" font-size="14.00">b</text>
</g>
<!-- (2,1) -->
<g id="node4" class="node"><title>(2,1)</title>
<ellipse fill="none" stroke="black" cx="402.233" cy="-111" rx="27.9017" ry="27.9017"/>
<ellipse fill="none" stroke="black" cx="402.233" cy="-111" rx="31.8951" ry="31.8951"/>
<text text-anchor="middle" x="402.233" y="-107.3" font-family="Times New Roman,serif" font-size="14.00">(2,1)</text>
</g>
<!-- (2,1)&#45;&gt;(2,1) -->
<g id="edge2" class="edge"><title>(2,1)&#45;&gt;(2,1)</title>
<path fill="none" stroke="black" d="M392.485,-141.728C392.382,-152.361 395.631,-160.948 402.233,-160.948 406.565,-160.948 409.453,-157.25 410.898,-151.702"/>
<polygon fill="black" stroke="black" points="414.381,-152.047 411.98,-141.728 407.422,-151.292 414.381,-152.047"/>
<text text-anchor="middle" x="402.233" y="-164.748" font-family="Times New Roman,serif" font-size="14.00">a</text>
</g>
<!-- (1,0) -->
<g id="node5" class="node"><title>(1,0)</title>
<ellipse fill="none" stroke="black" cx="510.128" cy="-62" rx="27.9017" ry="27.9017"/>
<ellipse fill="none" stroke="black" cx="510.128" cy="-62" rx="31.8951" ry="31.8951"/>
<text text-anchor="middle" x="510.128" y="-58.3" font-family="Times New Roman,serif" font-size="14.00">(1,0)</text>
</g>
<!-- (2,1)&#45;&gt;(1,0) -->
<g id="edge3" class="edge"><title>(2,1)&#45;&gt;(1,0)</title>
<path fill="none" stroke="black" d="M433.728,-104.359C442.476,-101.943 451.886,-98.8396 460.18,-95 465.295,-92.632 470.472,-89.7583 475.448,-86.7055"/>
<polygon fill="black" stroke="black" points="477.635,-89.4587 484.13,-81.0876 473.832,-83.5818 477.635,-89.4587"/>
<text text-anchor="middle" x="456.18" y="-102.8" font-family="Times New Roman,serif" font-size="14.00">b</text>
</g>
<!-- (1,0)&#45;&gt;(0,0) -->
<g id="edge7" class="edge"><title>(1,0)&#45;&gt;(0,0)</title>
<path fill="none" stroke="black" d="M486.93,-39.6166C466.875,-21.8574 435.614,-0 403.233,-0 194.443,-0 194.443,-0 194.443,-0 169.181,-0 143.308,-12.0856 124.088,-23.8674"/>
<polygon fill="black" stroke="black" points="122.007,-21.0437 115.485,-29.3929 125.79,-26.9334 122.007,-21.0437"/>
<text text-anchor="middle" x="299.338" y="-3.8" font-family="Times New Roman,serif" font-size="14.00">b</text>
</g>
<!-- (1,0)&#45;&gt;(2,1) -->
<g id="edge6" class="edge"><title>(1,0)&#45;&gt;(2,1)</title>
<path fill="none" stroke="black" d="M478.554,-67.2683C469.804,-69.3699 460.413,-72.2152 452.18,-76 446.647,-78.5438 441.095,-81.7441 435.821,-85.1699"/>
<polygon fill="black" stroke="black" points="433.505,-82.5151 427.258,-91.0722 437.478,-88.2786 433.505,-82.5151"/>
<text text-anchor="middle" x="456.18" y="-79.8" font-family="Times New Roman,serif" font-size="14.00">a</text>
</g>
<!-- (2,0)&#45;&gt;(2,1) -->
<g id="edge4" class="edge"><title>(2,0)&#45;&gt;(2,1)</title>
<path fill="none" stroke="black" d="M325.798,-84.0843C336.853,-88.0289 350.05,-92.7377 362.292,-97.1058"/>
<polygon fill="black" stroke="black" points="361.252,-100.451 371.846,-100.515 363.604,-93.8577 361.252,-100.451"/>
<text text-anchor="middle" x="348.785" y="-96.8" font-family="Times New Roman,serif" font-size="14.00">a</text>
</g>
<!-- (2,0)&#45;&gt;(1,0) -->
<g id="edge5" class="edge"><title>(2,0)&#45;&gt;(1,0)</title>
<path fill="none" stroke="black" d="M325.877,-65.8449C338.968,-61.6297 355.275,-57.1037 370.285,-55 403.03,-50.4106 440.49,-52.7379 468.242,-55.8933"/>
<polygon fill="black" stroke="black" points="468.022,-59.3924 478.372,-57.1305 468.87,-52.444 468.022,-59.3924"/>
<text text-anchor="middle" x="402.233" y="-58.8" font-family="Times New Roman,serif" font-size="14.00">b</text>
</g>
</g>
</svg>
