<?xml version="1.0" encoding="UTF-8" standalone="no"?>
<!DOCTYPE svg PUBLIC "-//W3C//DTD SVG 1.1//EN"
 "http://www.w3.org/Graphics/SVG/1.1/DTD/svg11.dtd">
<!-- Generated by graphviz version 2.38.0 (20140413.2041)
 -->
<!-- Title: dfa Pages: 1 -->
<svg width="283pt" height="180pt"
 viewBox="0.00 0.00 282.60 180.00" xmlns="http://www.w3.org/2000/svg" xmlns:xlink="http://www.w3.org/1999/xlink">
<g id="graph0" class="graph" transform="scale(1 1) rotate(0) translate(4 176)">
<title>dfa</title>
<polygon fill="white" stroke="none" points="-4,4 -4,-176 278.6,-176 278.6,4 -4,4"/>
<!-- __start -->
<!-- 0 -->
<g id="node2" class="node"><title>0</title>
<ellipse fill="none" stroke="black" cx="86.6" cy="-76" rx="18" ry="18"/>
<ellipse fill="none" stroke="black" cx="86.6" cy="-76" rx="22" ry="22"/>
<text text-anchor="middle" x="86.6" y="-72.3" font-family="Times New Roman,serif" font-size="14.00">0</text>
</g>
<!-- __start&#45;&gt;0 -->
<g id="edge1" class="edge"><title>__start&#45;&gt;0</title>
<path fill="none" stroke="black" d="M3.72988,-76C8.77597,-76 33.4162,-76 54.3593,-76"/>
<polygon fill="black" stroke="black" points="54.5455,-79.5001 64.5454,-76 54.5454,-72.5001 54.5455,-79.5001"/>
<text text-anchor="middle" x="34.1" y="-79.8" font-family="Times New Roman,serif" font-size="14.00">start</text>
</g>
<!-- 1 -->
<g id="node3" class="node"><title>1</title>
<ellipse fill="none" stroke="black" cx="173.6" cy="-117" rx="18" ry="18"/>
<ellipse fill="none" stroke="black" cx="173.6" cy="-117" rx="22" ry="22"/>
<text text-anchor="middle" x="173.6" y="-113.3" font-family="Times New Roman,serif" font-size="14.00">1</text>
</g>
<!-- 0&#45;&gt;1 -->
<g id="edge2" class="edge"><title>0&#45;&gt;1</title>
<path fill="none" stroke="black" d="M106.888,-85.3035C117.864,-90.5981 131.821,-97.3299 144.046,-103.227"/>
<polygon fill="black" stroke="black" points="142.861,-106.541 153.389,-107.733 145.902,-100.236 142.861,-106.541"/>
<text text-anchor="middle" x="130.1" y="-100.8" font-family="Times New Roman,serif" font-size="14.00">l</text>
</g>
<!-- 2 -->
<g id="node4" class="node"><title>2</title>
<ellipse fill="none" stroke="black" cx="173.6" cy="-22" rx="18" ry="18"/>
<ellipse fill="none" stroke="black" cx="173.6" cy="-22" rx="22" ry="22"/>
<text text-anchor="middle" x="173.6" y="-18.3" font-family="Times New Roman,serif" font-size="14.00">2</text>
</g>
<!-- 0&#45;&gt;2 -->
<g id="edge3" class="edge"><title>0&#45;&gt;2</title>
<path fill="none" stroke="black" d="M105.626,-64.548C117.346,-57.1023 132.833,-47.2635 145.962,-38.9227"/>
<polygon fill="black" stroke="black" points="148.036,-41.7521 154.6,-33.4355 144.282,-35.8436 148.036,-41.7521"/>
<text text-anchor="middle" x="130.1" y="-53.8" font-family="Times New Roman,serif" font-size="14.00">v</text>
</g>
<!-- 1&#45;&gt;1 -->
<g id="edge4" class="edge"><title>1&#45;&gt;1</title>
<path fill="none" stroke="black" d="M165.917,-137.991C164.969,-148.087 167.53,-157 173.6,-157 177.489,-157 179.937,-153.342 180.946,-148.059"/>
<polygon fill="black" stroke="black" points="184.446,-148.102 181.283,-137.991 177.45,-147.868 184.446,-148.102"/>
<text text-anchor="middle" x="173.6" y="-160.8" font-family="Times New Roman,serif" font-size="14.00">l</text>
</g>
<!-- 3 -->
<g id="node5" class="node"><title>3</title>
<ellipse fill="none" stroke="black" cx="256.6" cy="-76" rx="18" ry="18"/>
<text text-anchor="middle" x="256.6" y="-72.3" font-family="Times New Roman,serif" font-size="14.00">3</text>
</g>
<!-- 1&#45;&gt;3 -->
<g id="edge5" class="edge"><title>1&#45;&gt;3</title>
<path fill="none" stroke="black" d="M193.796,-107.284C205.018,-101.603 219.291,-94.3788 231.292,-88.3039"/>
<polygon fill="black" stroke="black" points="232.987,-91.3688 240.329,-83.7298 229.826,-85.1233 232.987,-91.3688"/>
<text text-anchor="middle" x="217.1" y="-99.8" font-family="Times New Roman,serif" font-size="14.00">v</text>
</g>
<!-- 2&#45;&gt;2 -->
<g id="edge7" class="edge"><title>2&#45;&gt;2</title>
<path fill="none" stroke="black" d="M165.917,-42.9908C164.969,-53.0872 167.53,-62 173.6,-62 177.489,-62 179.937,-58.3422 180.946,-53.0587"/>
<polygon fill="black" stroke="black" points="184.446,-53.1023 181.283,-42.9908 177.45,-52.868 184.446,-53.1023"/>
<text text-anchor="middle" x="173.6" y="-65.8" font-family="Times New Roman,serif" font-size="14.00">v</text>
</g>
<!-- 2&#45;&gt;3 -->
<g id="edge6" class="edge"><title>2&#45;&gt;3</title>
<path fill="none" stroke="black" d="M192.577,-33.9844C204.353,-41.8354 219.855,-52.17 232.537,-60.6249"/>
<polygon fill="black" stroke="black" points="230.918,-63.7519 241.18,-66.3867 234.801,-57.9275 230.918,-63.7519"/>
<text text-anchor="middle" x="217.1" y="-55.8" font-family="Times New Roman,serif" font-size="14.00">l</text>
</g>
<!-- 3&#45;&gt;3 -->
<g id="edge8" class="edge"><title>3&#45;&gt;3</title>
<path fill="none" stroke="black" d="M253.184,-93.7817C252.604,-103.315 253.743,-112 256.6,-112 258.341,-112 259.444,-108.775 259.909,-104.098"/>
<polygon fill="black" stroke="black" points="263.412,-103.817 260.016,-93.7817 256.412,-103.745 263.412,-103.817"/>
<text text-anchor="middle" x="256.6" y="-115.8" font-family="Times New Roman,serif" font-size="14.00">l</text>
</g>
<!-- 3&#45;&gt;3 -->
<g id="edge9" class="edge"><title>3&#45;&gt;3</title>
<path fill="none" stroke="black" d="M251.041,-93.1418C247.77,-110.585 249.623,-130 256.6,-130 262.214,-130 264.51,-117.428 263.489,-103.429"/>
<polygon fill="black" stroke="black" points="266.913,-102.61 262.159,-93.1418 259.97,-103.508 266.913,-102.61"/>
<text text-anchor="middle" x="256.6" y="-133.8" font-family="Times New Roman,serif" font-size="14.00">v</text>
</g>
</g>
</svg>
