<?xml version="1.0" encoding="UTF-8" standalone="no"?>
<!DOCTYPE svg PUBLIC "-//W3C//DTD SVG 1.1//EN"
 "http://www.w3.org/Graphics/SVG/1.1/DTD/svg11.dtd">
<!-- Generated by graphviz version 2.38.0 (20140413.2041)
 -->
<!-- Title: dfa Pages: 1 -->
<svg width="445pt" height="284pt"
 viewBox="0.00 0.00 444.98 284.39" xmlns="http://www.w3.org/2000/svg" xmlns:xlink="http://www.w3.org/1999/xlink">
<g id="graph0" class="graph" transform="scale(1 1) rotate(0) translate(4 280.392)">
<title>dfa</title>
<polygon fill="white" stroke="none" points="-4,4 -4,-280.392 440.976,-280.392 440.976,4 -4,4"/>
<!-- __start -->
<!-- {0,1,2,4,5,6,8,9} -->
<g id="node2" class="node"><title>{0,1,2,4,5,6,8,9}</title>
<ellipse fill="none" stroke="black" cx="140.094" cy="-134.196" rx="71.4876" ry="71.4876"/>
<ellipse fill="none" stroke="black" cx="140.094" cy="-134.196" rx="75.4873" ry="75.4873"/>
<text text-anchor="middle" x="140.094" y="-130.496" font-family="Times New Roman,serif" font-size="14.00">{0,1,2,4,5,6,8,9}</text>
</g>
<!-- __start&#45;&gt;{0,1,2,4,5,6,8,9} -->
<g id="edge1" class="edge"><title>__start&#45;&gt;{0,1,2,4,5,6,8,9}</title>
<path fill="none" stroke="black" d="M3.67034,-134.196C8.17361,-134.196 29.5652,-134.196 54.0634,-134.196"/>
<polygon fill="black" stroke="black" points="54.3303,-137.696 64.3303,-134.196 54.3302,-130.696 54.3303,-137.696"/>
<text text-anchor="middle" x="34.1" y="-137.996" font-family="Times New Roman,serif" font-size="14.00">start</text>
</g>
<!-- {1,2,3,5} -->
<g id="node3" class="node"><title>{1,2,3,5}</title>
<ellipse fill="none" stroke="black" cx="306.783" cy="-195.196" rx="44.3766" ry="44.3766"/>
<ellipse fill="none" stroke="black" cx="306.783" cy="-195.196" rx="48.393" ry="48.393"/>
<text text-anchor="middle" x="306.783" y="-191.496" font-family="Times New Roman,serif" font-size="14.00">{1,2,3,5}</text>
</g>
<!-- {0,1,2,4,5,6,8,9}&#45;&gt;{1,2,3,5} -->
<g id="edge2" class="edge"><title>{0,1,2,4,5,6,8,9}&#45;&gt;{1,2,3,5}</title>
<path fill="none" stroke="black" d="M211.415,-160.243C224.93,-165.249 238.887,-170.418 251.787,-175.196"/>
<polygon fill="black" stroke="black" points="250.828,-178.573 261.421,-178.765 253.259,-172.009 250.828,-178.573"/>
<text text-anchor="middle" x="237.087" y="-172.996" font-family="Times New Roman,serif" font-size="14.00">l</text>
</g>
<!-- {1,6,7,9} -->
<g id="node4" class="node"><title>{1,6,7,9}</title>
<ellipse fill="none" stroke="black" cx="306.783" cy="-48.1961" rx="44.3766" ry="44.3766"/>
<ellipse fill="none" stroke="black" cx="306.783" cy="-48.1961" rx="48.393" ry="48.393"/>
<text text-anchor="middle" x="306.783" y="-44.4961" font-family="Times New Roman,serif" font-size="14.00">{1,6,7,9}</text>
</g>
<!-- {0,1,2,4,5,6,8,9}&#45;&gt;{1,6,7,9} -->
<g id="edge3" class="edge"><title>{0,1,2,4,5,6,8,9}&#45;&gt;{1,6,7,9}</title>
<path fill="none" stroke="black" d="M207.605,-99.4645C223.277,-91.2802 239.746,-82.6806 254.621,-74.9128"/>
<polygon fill="black" stroke="black" points="256.412,-77.9263 263.656,-70.1949 253.171,-71.7213 256.412,-77.9263"/>
<text text-anchor="middle" x="237.087" y="-86.9961" font-family="Times New Roman,serif" font-size="14.00">v</text>
</g>
<!-- {1,2,3,5}&#45;&gt;{1,2,3,5} -->
<g id="edge4" class="edge"><title>{1,2,3,5}&#45;&gt;{1,2,3,5}</title>
<path fill="none" stroke="black" d="M294.258,-241.898C295.237,-253.095 299.412,-261.392 306.783,-261.392 311.736,-261.392 315.246,-257.647 317.312,-251.793"/>
<polygon fill="black" stroke="black" points="320.762,-252.393 319.308,-241.898 313.9,-251.009 320.762,-252.393"/>
<text text-anchor="middle" x="306.783" y="-265.192" font-family="Times New Roman,serif" font-size="14.00">l</text>
</g>
<!-- {} -->
<g id="node5" class="node"><title>{}</title>
<ellipse fill="none" stroke="black" cx="417.478" cy="-134.196" rx="19.4965" ry="19.4965"/>
<text text-anchor="middle" x="417.478" y="-130.496" font-family="Times New Roman,serif" font-size="14.00">{}</text>
</g>
<!-- {1,2,3,5}&#45;&gt;{} -->
<g id="edge5" class="edge"><title>{1,2,3,5}&#45;&gt;{}</title>
<path fill="none" stroke="black" d="M349.186,-171.961C363.337,-164.019 378.732,-155.379 391.22,-148.371"/>
<polygon fill="black" stroke="black" points="393.128,-151.314 400.135,-143.368 389.702,-145.209 393.128,-151.314"/>
<text text-anchor="middle" x="376.479" y="-160.996" font-family="Times New Roman,serif" font-size="14.00">v</text>
</g>
<!-- {1,6,7,9}&#45;&gt;{1,6,7,9} -->
<g id="edge7" class="edge"><title>{1,6,7,9}&#45;&gt;{1,6,7,9}</title>
<path fill="none" stroke="black" d="M294.258,-94.8981C295.237,-106.095 299.412,-114.392 306.783,-114.392 311.736,-114.392 315.246,-110.647 317.312,-104.793"/>
<polygon fill="black" stroke="black" points="320.762,-105.393 319.308,-94.8981 313.9,-104.009 320.762,-105.393"/>
<text text-anchor="middle" x="306.783" y="-118.192" font-family="Times New Roman,serif" font-size="14.00">v</text>
</g>
<!-- {1,6,7,9}&#45;&gt;{} -->
<g id="edge6" class="edge"><title>{1,6,7,9}&#45;&gt;{}</title>
<path fill="none" stroke="black" d="M345.19,-77.7924C361.26,-90.5071 379.525,-104.959 393.544,-116.051"/>
<polygon fill="black" stroke="black" points="391.653,-119.017 401.667,-122.477 395.996,-113.528 391.653,-119.017"/>
<text text-anchor="middle" x="376.479" y="-106.996" font-family="Times New Roman,serif" font-size="14.00">l</text>
</g>
<!-- {}&#45;&gt;{} -->
<g id="edge8" class="edge"><title>{}&#45;&gt;{}</title>
<path fill="none" stroke="black" d="M413.839,-153.49C413.335,-163.112 414.548,-171.694 417.478,-171.694 419.263,-171.694 420.411,-168.507 420.921,-163.84"/>
<polygon fill="black" stroke="black" points="424.427,-163.554 421.117,-153.49 417.428,-163.422 424.427,-163.554"/>
<text text-anchor="middle" x="417.478" y="-175.494" font-family="Times New Roman,serif" font-size="14.00">l</text>
</g>
<!-- {}&#45;&gt;{} -->
<g id="edge9" class="edge"><title>{}&#45;&gt;{}</title>
<path fill="none" stroke="black" d="M411.413,-152.96C408.269,-170.581 410.29,-189.694 417.478,-189.694 423.318,-189.694 425.747,-177.076 424.766,-162.893"/>
<polygon fill="black" stroke="black" points="428.239,-162.457 423.542,-152.96 421.291,-163.313 428.239,-162.457"/>
<text text-anchor="middle" x="417.478" y="-193.494" font-family="Times New Roman,serif" font-size="14.00">v</text>
</g>
</g>
</svg>
