<?xml version="1.0" encoding="UTF-8" standalone="no"?>
<!DOCTYPE svg PUBLIC "-//W3C//DTD SVG 1.1//EN"
 "http://www.w3.org/Graphics/SVG/1.1/DTD/svg11.dtd">
<!-- Generated by graphviz version 2.38.0 (20140413.2041)
 -->
<!-- Title: enfa Pages: 1 -->
<svg width="512pt" height="181pt"
 viewBox="0.00 0.00 511.60 180.88" xmlns="http://www.w3.org/2000/svg" xmlns:xlink="http://www.w3.org/1999/xlink">
<g id="graph0" class="graph" transform="scale(1 1) rotate(0) translate(4 176.878)">
<title>enfa</title>
<polygon fill="white" stroke="none" points="-4,4 -4,-176.878 507.6,-176.878 507.6,4 -4,4"/>
<!-- __start -->
<!-- 0 -->
<g id="node2" class="node"><title>0</title>
<ellipse fill="none" stroke="black" cx="82.6" cy="-71.8784" rx="18" ry="18"/>
<text text-anchor="middle" x="82.6" y="-68.1784" font-family="Times New Roman,serif" font-size="14.00">0</text>
</g>
<!-- __start&#45;&gt;0 -->
<g id="edge1" class="edge"><title>__start&#45;&gt;0</title>
<path fill="none" stroke="black" d="M3.68496,-71.8784C8.69573,-71.8784 34.008,-71.8784 54.4423,-71.8784"/>
<polygon fill="black" stroke="black" points="54.5501,-75.3785 64.5501,-71.8784 54.5501,-68.3785 54.5501,-75.3785"/>
<text text-anchor="middle" x="34.1" y="-75.6784" font-family="Times New Roman,serif" font-size="14.00">start</text>
</g>
<!-- 4 -->
<g id="node6" class="node"><title>4</title>
<ellipse fill="none" stroke="black" cx="161.6" cy="-99.8784" rx="18" ry="18"/>
<text text-anchor="middle" x="161.6" y="-96.1784" font-family="Times New Roman,serif" font-size="14.00">4</text>
</g>
<!-- 0&#45;&gt;4 -->
<g id="edge12" class="edge"><title>0&#45;&gt;4</title>
<path fill="none" stroke="black" d="M99.9297,-77.8165C110.105,-81.5164 123.414,-86.356 134.973,-90.5594"/>
<polygon fill="black" stroke="black" points="133.964,-93.9167 144.558,-94.0449 136.356,-87.3381 133.964,-93.9167"/>
<text text-anchor="middle" x="122.1" y="-89.6784" font-family="Times New Roman,serif" font-size="14.00">ε</text>
</g>
<!-- 8 -->
<g id="node10" class="node"><title>8</title>
<ellipse fill="none" stroke="black" cx="161.6" cy="-38.8784" rx="18" ry="18"/>
<text text-anchor="middle" x="161.6" y="-35.1784" font-family="Times New Roman,serif" font-size="14.00">8</text>
</g>
<!-- 0&#45;&gt;8 -->
<g id="edge13" class="edge"><title>0&#45;&gt;8</title>
<path fill="none" stroke="black" d="M99.5544,-65.0408C109.879,-60.6161 123.543,-54.76 135.326,-49.7103"/>
<polygon fill="black" stroke="black" points="136.853,-52.8635 144.666,-45.7072 134.096,-46.4295 136.853,-52.8635"/>
<text text-anchor="middle" x="122.1" y="-59.6784" font-family="Times New Roman,serif" font-size="14.00">ε</text>
</g>
<!-- 1 -->
<g id="node3" class="node"><title>1</title>
<ellipse fill="none" stroke="black" cx="481.6" cy="-71.8784" rx="18" ry="18"/>
<ellipse fill="none" stroke="black" cx="481.6" cy="-71.8784" rx="22" ry="22"/>
<text text-anchor="middle" x="481.6" y="-68.1784" font-family="Times New Roman,serif" font-size="14.00">1</text>
</g>
<!-- 2 -->
<g id="node4" class="node"><title>2</title>
<ellipse fill="none" stroke="black" cx="240.6" cy="-145.878" rx="18" ry="18"/>
<text text-anchor="middle" x="240.6" y="-142.178" font-family="Times New Roman,serif" font-size="14.00">2</text>
</g>
<!-- 3 -->
<g id="node5" class="node"><title>3</title>
<ellipse fill="none" stroke="black" cx="319.6" cy="-145.878" rx="18" ry="18"/>
<text text-anchor="middle" x="319.6" y="-142.178" font-family="Times New Roman,serif" font-size="14.00">3</text>
</g>
<!-- 2&#45;&gt;3 -->
<g id="edge2" class="edge"><title>2&#45;&gt;3</title>
<path fill="none" stroke="black" d="M257.342,-152.512C263.268,-154.677 270.137,-156.801 276.6,-157.878 282.21,-158.813 288.138,-158.171 293.716,-156.794"/>
<polygon fill="black" stroke="black" points="294.802,-160.122 303.234,-153.707 292.642,-153.463 294.802,-160.122"/>
<text text-anchor="middle" x="280.1" y="-161.678" font-family="Times New Roman,serif" font-size="14.00">l</text>
</g>
<!-- 3&#45;&gt;2 -->
<g id="edge5" class="edge"><title>3&#45;&gt;2</title>
<path fill="none" stroke="black" d="M301.909,-141.04C294.232,-139.345 284.986,-138.048 276.6,-138.878 273.862,-139.15 271.02,-139.537 268.194,-139.993"/>
<polygon fill="black" stroke="black" points="267.421,-136.577 258.234,-141.854 268.707,-143.458 267.421,-136.577"/>
<text text-anchor="middle" x="280.1" y="-142.678" font-family="Times New Roman,serif" font-size="14.00">ε</text>
</g>
<!-- 5 -->
<g id="node7" class="node"><title>5</title>
<ellipse fill="none" stroke="black" cx="398.6" cy="-99.8784" rx="18" ry="18"/>
<text text-anchor="middle" x="398.6" y="-96.1784" font-family="Times New Roman,serif" font-size="14.00">5</text>
</g>
<!-- 3&#45;&gt;5 -->
<g id="edge6" class="edge"><title>3&#45;&gt;5</title>
<path fill="none" stroke="black" d="M335.446,-137.009C346.418,-130.454 361.575,-121.4 374.174,-113.873"/>
<polygon fill="black" stroke="black" points="376.009,-116.854 382.799,-108.72 372.419,-110.844 376.009,-116.854"/>
<text text-anchor="middle" x="359.1" y="-127.678" font-family="Times New Roman,serif" font-size="14.00">ε</text>
</g>
<!-- 4&#45;&gt;2 -->
<g id="edge3" class="edge"><title>4&#45;&gt;2</title>
<path fill="none" stroke="black" d="M177.446,-108.748C188.418,-115.302 203.575,-124.357 216.174,-131.883"/>
<polygon fill="black" stroke="black" points="214.419,-134.912 224.799,-137.036 218.009,-128.903 214.419,-134.912"/>
<text text-anchor="middle" x="201.1" y="-127.678" font-family="Times New Roman,serif" font-size="14.00">ε</text>
</g>
<!-- 4&#45;&gt;5 -->
<g id="edge4" class="edge"><title>4&#45;&gt;5</title>
<path fill="none" stroke="black" d="M179.88,-99.8784C220.283,-99.8784 321.198,-99.8784 370.132,-99.8784"/>
<polygon fill="black" stroke="black" points="370.295,-103.378 380.295,-99.8784 370.295,-96.3785 370.295,-103.378"/>
<text text-anchor="middle" x="280.1" y="-103.678" font-family="Times New Roman,serif" font-size="14.00">ε</text>
</g>
<!-- 5&#45;&gt;1 -->
<g id="edge14" class="edge"><title>5&#45;&gt;1</title>
<path fill="none" stroke="black" d="M415.992,-94.2122C426.032,-90.7415 439.179,-86.1966 450.992,-82.1133"/>
<polygon fill="black" stroke="black" points="452.195,-85.4007 460.503,-78.8256 449.908,-78.7848 452.195,-85.4007"/>
<text text-anchor="middle" x="438.1" y="-90.6784" font-family="Times New Roman,serif" font-size="14.00">ε</text>
</g>
<!-- 6 -->
<g id="node8" class="node"><title>6</title>
<ellipse fill="none" stroke="black" cx="240.6" cy="-38.8784" rx="18" ry="18"/>
<text text-anchor="middle" x="240.6" y="-35.1784" font-family="Times New Roman,serif" font-size="14.00">6</text>
</g>
<!-- 7 -->
<g id="node9" class="node"><title>7</title>
<ellipse fill="none" stroke="black" cx="319.6" cy="-38.8784" rx="18" ry="18"/>
<text text-anchor="middle" x="319.6" y="-35.1784" font-family="Times New Roman,serif" font-size="14.00">7</text>
</g>
<!-- 6&#45;&gt;7 -->
<g id="edge7" class="edge"><title>6&#45;&gt;7</title>
<path fill="none" stroke="black" d="M258.688,-39.4643C264.384,-39.6336 270.765,-39.795 276.6,-39.8784 281.322,-39.9458 286.343,-39.9152 291.208,-39.8318"/>
<polygon fill="black" stroke="black" points="291.525,-43.3252 301.436,-39.5824 291.354,-36.3273 291.525,-43.3252"/>
<text text-anchor="middle" x="280.1" y="-43.6784" font-family="Times New Roman,serif" font-size="14.00">v</text>
</g>
<!-- 7&#45;&gt;6 -->
<g id="edge10" class="edge"><title>7&#45;&gt;6</title>
<path fill="none" stroke="black" d="M303.883,-29.3361C297.85,-25.9614 290.64,-22.5825 283.6,-20.8784 277.123,-19.3105 270.375,-20.7096 264.231,-23.2973"/>
<polygon fill="black" stroke="black" points="262.393,-20.3098 255.198,-28.0866 265.673,-26.4942 262.393,-20.3098"/>
<text text-anchor="middle" x="280.1" y="-24.6784" font-family="Times New Roman,serif" font-size="14.00">ε</text>
</g>
<!-- 9 -->
<g id="node11" class="node"><title>9</title>
<ellipse fill="none" stroke="black" cx="398.6" cy="-38.8784" rx="18" ry="18"/>
<text text-anchor="middle" x="398.6" y="-35.1784" font-family="Times New Roman,serif" font-size="14.00">9</text>
</g>
<!-- 7&#45;&gt;9 -->
<g id="edge11" class="edge"><title>7&#45;&gt;9</title>
<path fill="none" stroke="black" d="M337.689,-38.8784C347.259,-38.8784 359.417,-38.8784 370.277,-38.8784"/>
<polygon fill="black" stroke="black" points="370.559,-42.3785 380.559,-38.8784 370.559,-35.3785 370.559,-42.3785"/>
<text text-anchor="middle" x="359.1" y="-42.6784" font-family="Times New Roman,serif" font-size="14.00">ε</text>
</g>
<!-- 8&#45;&gt;6 -->
<g id="edge8" class="edge"><title>8&#45;&gt;6</title>
<path fill="none" stroke="black" d="M179.689,-38.8784C189.259,-38.8784 201.417,-38.8784 212.277,-38.8784"/>
<polygon fill="black" stroke="black" points="212.559,-42.3785 222.559,-38.8784 212.559,-35.3785 212.559,-42.3785"/>
<text text-anchor="middle" x="201.1" y="-42.6784" font-family="Times New Roman,serif" font-size="14.00">ε</text>
</g>
<!-- 8&#45;&gt;9 -->
<g id="edge9" class="edge"><title>8&#45;&gt;9</title>
<path fill="none" stroke="black" d="M178.015,-30.7949C189.917,-24.8381 206.945,-16.926 222.6,-11.8784 245.911,-4.36222 252.231,-3.33522 276.6,-0.878386 311.451,2.63516 349.713,-12.8919 373.689,-25.1522"/>
<polygon fill="black" stroke="black" points="372.268,-28.3609 382.739,-29.9754 375.56,-22.1834 372.268,-28.3609"/>
<text text-anchor="middle" x="280.1" y="-4.67839" font-family="Times New Roman,serif" font-size="14.00">ε</text>
</g>
<!-- 9&#45;&gt;1 -->
<g id="edge15" class="edge"><title>9&#45;&gt;1</title>
<path fill="none" stroke="black" d="M415.603,-45.3981C425.862,-49.5778 439.481,-55.126 451.601,-60.0638"/>
<polygon fill="black" stroke="black" points="450.325,-63.3234 460.907,-63.8551 452.966,-56.8408 450.325,-63.3234"/>
<text text-anchor="middle" x="438.1" y="-58.6784" font-family="Times New Roman,serif" font-size="14.00">ε</text>
</g>
</g>
</svg>
