<?xml version="1.0" encoding="UTF-8" standalone="no"?>
<!DOCTYPE svg PUBLIC "-//W3C//DTD SVG 1.1//EN"
 "http://www.w3.org/Graphics/SVG/1.1/DTD/svg11.dtd">
<!-- Generated by graphviz version 2.38.0 (20140413.2041)
 -->
<!-- Title: enfa Pages: 1 -->
<svg width="378pt" height="168pt"
 viewBox="0.00 0.00 377.60 168.42" xmlns="http://www.w3.org/2000/svg" xmlns:xlink="http://www.w3.org/1999/xlink">
<g id="graph0" class="graph" transform="scale(1 1) rotate(0) translate(4 164.422)">
<title>enfa</title>
<polygon fill="white" stroke="none" points="-4,4 -4,-164.422 373.6,-164.422 373.6,4 -4,4"/>
<!-- __start -->
<!-- 0 -->
<g id="node2" class="node"><title>0</title>
<ellipse fill="none" stroke="black" cx="91.6" cy="-38.4217" rx="27" ry="18"/>
<text text-anchor="middle" x="91.6" y="-34.7217" font-family="Times New Roman,serif" font-size="14.00">0</text>
</g>
<!-- __start&#45;&gt;0 -->
<g id="edge1" class="edge"><title>__start&#45;&gt;0</title>
<path fill="none" stroke="black" d="M3.78604,-38.4217C8.86985,-38.4217 32.7092,-38.4217 54.1222,-38.4217"/>
<polygon fill="black" stroke="black" points="54.3463,-41.9218 64.3463,-38.4217 54.3463,-34.9218 54.3463,-41.9218"/>
<text text-anchor="middle" x="34.1" y="-42.2217" font-family="Times New Roman,serif" font-size="14.00">start</text>
</g>
<!-- 1 -->
<g id="node3" class="node"><title>1</title>
<ellipse fill="none" stroke="black" cx="183.6" cy="-88.4217" rx="18" ry="18"/>
<ellipse fill="none" stroke="black" cx="183.6" cy="-88.4217" rx="22" ry="22"/>
<text text-anchor="middle" x="183.6" y="-84.7217" font-family="Times New Roman,serif" font-size="14.00">1</text>
</g>
<!-- 0&#45;&gt;1 -->
<g id="edge7" class="edge"><title>0&#45;&gt;1</title>
<path fill="none" stroke="black" d="M113.022,-49.7675C125.495,-56.6969 141.602,-65.6453 155.177,-73.1869"/>
<polygon fill="black" stroke="black" points="153.654,-76.3443 164.095,-78.1412 157.053,-70.2252 153.654,-76.3443"/>
<text text-anchor="middle" x="140.1" y="-69.2217" font-family="Times New Roman,serif" font-size="14.00">x</text>
</g>
<!-- 4 -->
<g id="node6" class="node"><title>4</title>
<ellipse fill="none" stroke="black" cx="351.6" cy="-38.4217" rx="18" ry="18"/>
<text text-anchor="middle" x="351.6" y="-34.7217" font-family="Times New Roman,serif" font-size="14.00">4</text>
</g>
<!-- 0&#45;&gt;4 -->
<g id="edge10" class="edge"><title>0&#45;&gt;4</title>
<path fill="none" stroke="black" d="M118.758,-38.4217C167.931,-38.4217 273.675,-38.4217 323.535,-38.4217"/>
<polygon fill="black" stroke="black" points="323.563,-41.9218 333.563,-38.4217 323.563,-34.9218 323.563,-41.9218"/>
<text text-anchor="middle" x="228.6" y="-42.2217" font-family="Times New Roman,serif" font-size="14.00">w</text>
</g>
<!-- 3 -->
<g id="node5" class="node"><title>3</title>
<ellipse fill="none" stroke="black" cx="269.6" cy="-109.422" rx="18" ry="18"/>
<text text-anchor="middle" x="269.6" y="-105.722" font-family="Times New Roman,serif" font-size="14.00">3</text>
</g>
<!-- 1&#45;&gt;3 -->
<g id="edge3" class="edge"><title>1&#45;&gt;3</title>
<path fill="none" stroke="black" d="M205.234,-93.7587C211.16,-95.2789 217.633,-96.9275 223.6,-98.4217 229.597,-99.9236 236.051,-101.515 242.146,-103.008"/>
<polygon fill="black" stroke="black" points="241.375,-106.422 251.92,-105.392 243.034,-99.6217 241.375,-106.422"/>
<text text-anchor="middle" x="228.6" y="-104.222" font-family="Times New Roman,serif" font-size="14.00">x</text>
</g>
<!-- 1&#45;&gt;3 -->
<g id="edge8" class="edge"><title>1&#45;&gt;3</title>
<path fill="none" stroke="black" d="M204.092,-80.1676C213.247,-77.4623 224.19,-75.9407 233.6,-79.4217 239.466,-81.5918 245.013,-85.2331 249.888,-89.2449"/>
<polygon fill="black" stroke="black" points="247.668,-91.9581 257.397,-96.1522 252.407,-86.8062 247.668,-91.9581"/>
<text text-anchor="middle" x="228.6" y="-83.2217" font-family="Times New Roman,serif" font-size="14.00">w</text>
</g>
<!-- 2 -->
<g id="node4" class="node"><title>2</title>
<ellipse fill="none" stroke="black" cx="351.6" cy="-128.422" rx="18" ry="18"/>
<text text-anchor="middle" x="351.6" y="-124.722" font-family="Times New Roman,serif" font-size="14.00">2</text>
</g>
<!-- 2&#45;&gt;3 -->
<g id="edge2" class="edge"><title>2&#45;&gt;3</title>
<path fill="none" stroke="black" d="M335.863,-118.96C329.827,-115.596 322.62,-112.204 315.6,-110.422 310.014,-109.004 303.912,-108.32 298.054,-108.064"/>
<polygon fill="black" stroke="black" points="297.961,-104.564 287.94,-108.002 297.918,-111.564 297.961,-104.564"/>
<text text-anchor="middle" x="310.6" y="-114.222" font-family="Times New Roman,serif" font-size="14.00">ε</text>
</g>
<!-- 3&#45;&gt;2 -->
<g id="edge5" class="edge"><title>3&#45;&gt;2</title>
<path fill="none" stroke="black" d="M285.84,-117.844C291.824,-120.758 298.864,-123.718 305.6,-125.422 311.198,-126.837 317.306,-127.686 323.164,-128.178"/>
<polygon fill="black" stroke="black" points="323.104,-131.679 333.277,-128.721 323.479,-124.689 323.104,-131.679"/>
<text text-anchor="middle" x="310.6" y="-130.222" font-family="Times New Roman,serif" font-size="14.00">x</text>
</g>
<!-- 3&#45;&gt;3 -->
<g id="edge6" class="edge"><title>3&#45;&gt;3</title>
<path fill="none" stroke="black" d="M262.569,-126.086C261.006,-136.047 263.35,-145.422 269.6,-145.422 273.604,-145.422 276.005,-141.574 276.802,-136.19"/>
<polygon fill="black" stroke="black" points="280.3,-136.025 276.631,-126.086 273.301,-136.144 280.3,-136.025"/>
<text text-anchor="middle" x="269.6" y="-149.222" font-family="Times New Roman,serif" font-size="14.00">x</text>
</g>
<!-- 3&#45;&gt;4 -->
<g id="edge9" class="edge"><title>3&#45;&gt;4</title>
<path fill="none" stroke="black" d="M283.81,-97.6975C296.392,-86.5314 315.518,-69.5571 330.083,-56.6303"/>
<polygon fill="black" stroke="black" points="332.479,-59.1834 337.635,-49.9278 327.833,-53.9479 332.479,-59.1834"/>
<text text-anchor="middle" x="310.6" y="-81.2217" font-family="Times New Roman,serif" font-size="14.00">w</text>
</g>
<!-- 4&#45;&gt;0 -->
<g id="edge4" class="edge"><title>4&#45;&gt;0</title>
<path fill="none" stroke="black" d="M334.723,-31.4942C312.587,-22.2815 270.956,-6.5615 233.6,-1.42171 194.576,3.94754 150.883,-10.8899 122.623,-23.3474"/>
<polygon fill="black" stroke="black" points="120.937,-20.2699 113.304,-27.6175 123.853,-26.6337 120.937,-20.2699"/>
<text text-anchor="middle" x="228.6" y="-5.22171" font-family="Times New Roman,serif" font-size="14.00">ε</text>
</g>
</g>
</svg>
