<?xml version="1.0" encoding="UTF-8" standalone="no"?>
<!DOCTYPE svg PUBLIC "-//W3C//DTD SVG 1.1//EN"
 "http://www.w3.org/Graphics/SVG/1.1/DTD/svg11.dtd">
<!-- Generated by graphviz version 2.38.0 (20140413.2041)
 -->
<!-- Title: enfa Pages: 1 -->
<svg width="360pt" height="168pt"
 viewBox="0.00 0.00 359.60 168.32" xmlns="http://www.w3.org/2000/svg" xmlns:xlink="http://www.w3.org/1999/xlink">
<g id="graph0" class="graph" transform="scale(1 1) rotate(0) translate(4 164.323)">
<title>enfa</title>
<polygon fill="white" stroke="none" points="-4,4 -4,-164.323 355.6,-164.323 355.6,4 -4,4"/>
<!-- __start -->
<!-- 0 -->
<g id="node2" class="node"><title>0</title>
<ellipse fill="none" stroke="black" cx="82.6" cy="-38.3232" rx="18" ry="18"/>
<text text-anchor="middle" x="82.6" y="-34.6232" font-family="Times New Roman,serif" font-size="14.00">0</text>
</g>
<!-- __start&#45;&gt;0 -->
<g id="edge1" class="edge"><title>__start&#45;&gt;0</title>
<path fill="none" stroke="black" d="M3.68496,-38.3232C8.69573,-38.3232 34.008,-38.3232 54.4423,-38.3232"/>
<polygon fill="black" stroke="black" points="54.5501,-41.8233 64.5501,-38.3232 54.5501,-34.8233 54.5501,-41.8233"/>
<text text-anchor="middle" x="34.1" y="-42.1232" font-family="Times New Roman,serif" font-size="14.00">start</text>
</g>
<!-- 1 -->
<g id="node3" class="node"><title>1</title>
<ellipse fill="none" stroke="black" cx="165.6" cy="-88.3232" rx="18" ry="18"/>
<ellipse fill="none" stroke="black" cx="165.6" cy="-88.3232" rx="22" ry="22"/>
<text text-anchor="middle" x="165.6" y="-84.6232" font-family="Times New Roman,serif" font-size="14.00">1</text>
</g>
<!-- 0&#45;&gt;1 -->
<g id="edge7" class="edge"><title>0&#45;&gt;1</title>
<path fill="none" stroke="black" d="M98.4566,-47.494C109.441,-54.2743 124.7,-63.6935 137.794,-71.7765"/>
<polygon fill="black" stroke="black" points="136.087,-74.8356 146.435,-77.11 139.764,-68.879 136.087,-74.8356"/>
<text text-anchor="middle" x="122.1" y="-67.1232" font-family="Times New Roman,serif" font-size="14.00">x</text>
</g>
<!-- 4 -->
<g id="node6" class="node"><title>4</title>
<ellipse fill="none" stroke="black" cx="333.6" cy="-38.3232" rx="18" ry="18"/>
<text text-anchor="middle" x="333.6" y="-34.6232" font-family="Times New Roman,serif" font-size="14.00">4</text>
</g>
<!-- 0&#45;&gt;4 -->
<g id="edge10" class="edge"><title>0&#45;&gt;4</title>
<path fill="none" stroke="black" d="M100.715,-38.3232C143.182,-38.3232 253.677,-38.3232 305.291,-38.3232"/>
<polygon fill="black" stroke="black" points="305.365,-41.8233 315.365,-38.3232 305.365,-34.8233 305.365,-41.8233"/>
<text text-anchor="middle" x="210.6" y="-42.1232" font-family="Times New Roman,serif" font-size="14.00">w</text>
</g>
<!-- 3 -->
<g id="node5" class="node"><title>3</title>
<ellipse fill="none" stroke="black" cx="251.6" cy="-109.323" rx="18" ry="18"/>
<text text-anchor="middle" x="251.6" y="-105.623" font-family="Times New Roman,serif" font-size="14.00">3</text>
</g>
<!-- 1&#45;&gt;3 -->
<g id="edge3" class="edge"><title>1&#45;&gt;3</title>
<path fill="none" stroke="black" d="M187.234,-93.6602C193.16,-95.1804 199.633,-96.829 205.6,-98.3232 211.597,-99.8251 218.051,-101.417 224.146,-102.909"/>
<polygon fill="black" stroke="black" points="223.375,-106.324 233.92,-105.293 225.034,-99.5232 223.375,-106.324"/>
<text text-anchor="middle" x="210.6" y="-104.123" font-family="Times New Roman,serif" font-size="14.00">x</text>
</g>
<!-- 1&#45;&gt;3 -->
<g id="edge8" class="edge"><title>1&#45;&gt;3</title>
<path fill="none" stroke="black" d="M186.092,-80.0691C195.247,-77.3638 206.19,-75.8423 215.6,-79.3232 221.466,-81.4933 227.013,-85.1346 231.888,-89.1464"/>
<polygon fill="black" stroke="black" points="229.668,-91.8596 239.397,-96.0537 234.407,-86.7077 229.668,-91.8596"/>
<text text-anchor="middle" x="210.6" y="-83.1232" font-family="Times New Roman,serif" font-size="14.00">w</text>
</g>
<!-- 2 -->
<g id="node4" class="node"><title>2</title>
<ellipse fill="none" stroke="black" cx="333.6" cy="-128.323" rx="18" ry="18"/>
<text text-anchor="middle" x="333.6" y="-124.623" font-family="Times New Roman,serif" font-size="14.00">2</text>
</g>
<!-- 2&#45;&gt;3 -->
<g id="edge2" class="edge"><title>2&#45;&gt;3</title>
<path fill="none" stroke="black" d="M317.863,-118.861C311.827,-115.498 304.62,-112.105 297.6,-110.323 292.014,-108.905 285.912,-108.221 280.054,-107.966"/>
<polygon fill="black" stroke="black" points="279.961,-104.465 269.94,-107.904 279.918,-111.465 279.961,-104.465"/>
<text text-anchor="middle" x="292.6" y="-114.123" font-family="Times New Roman,serif" font-size="14.00">ε</text>
</g>
<!-- 3&#45;&gt;2 -->
<g id="edge5" class="edge"><title>3&#45;&gt;2</title>
<path fill="none" stroke="black" d="M267.84,-117.745C273.824,-120.66 280.864,-123.62 287.6,-125.323 293.198,-126.739 299.306,-127.588 305.164,-128.079"/>
<polygon fill="black" stroke="black" points="305.104,-131.581 315.277,-128.622 305.479,-124.591 305.104,-131.581"/>
<text text-anchor="middle" x="292.6" y="-130.123" font-family="Times New Roman,serif" font-size="14.00">x</text>
</g>
<!-- 3&#45;&gt;3 -->
<g id="edge6" class="edge"><title>3&#45;&gt;3</title>
<path fill="none" stroke="black" d="M244.569,-125.987C243.006,-135.948 245.35,-145.323 251.6,-145.323 255.604,-145.323 258.005,-141.476 258.802,-136.091"/>
<polygon fill="black" stroke="black" points="262.3,-135.927 258.631,-125.987 255.301,-136.045 262.3,-135.927"/>
<text text-anchor="middle" x="251.6" y="-149.123" font-family="Times New Roman,serif" font-size="14.00">x</text>
</g>
<!-- 3&#45;&gt;4 -->
<g id="edge9" class="edge"><title>3&#45;&gt;4</title>
<path fill="none" stroke="black" d="M265.81,-97.599C278.392,-86.4329 297.518,-69.4587 312.083,-56.5318"/>
<polygon fill="black" stroke="black" points="314.479,-59.0849 319.635,-49.8293 309.833,-53.8494 314.479,-59.0849"/>
<text text-anchor="middle" x="292.6" y="-81.1232" font-family="Times New Roman,serif" font-size="14.00">w</text>
</g>
<!-- 4&#45;&gt;0 -->
<g id="edge4" class="edge"><title>4&#45;&gt;0</title>
<path fill="none" stroke="black" d="M316.723,-31.3957C294.587,-22.183 252.956,-6.46301 215.6,-1.32322 177.131,3.96965 134.08,-12.5131 107.913,-25.1648"/>
<polygon fill="black" stroke="black" points="106.115,-22.1512 98.7559,-29.7728 109.262,-28.4042 106.115,-22.1512"/>
<text text-anchor="middle" x="210.6" y="-5.12322" font-family="Times New Roman,serif" font-size="14.00">ε</text>
</g>
</g>
</svg>
