<?xml version="1.0" encoding="UTF-8" standalone="no"?>
<!DOCTYPE svg PUBLIC "-//W3C//DTD SVG 1.1//EN"
 "http://www.w3.org/Graphics/SVG/1.1/DTD/svg11.dtd">
<!-- Generated by graphviz version 2.38.0 (20140413.2041)
 -->
<!-- Title: dfa Pages: 1 -->
<svg width="296pt" height="88pt"
 viewBox="0.00 0.00 295.60 88.00" xmlns="http://www.w3.org/2000/svg" xmlns:xlink="http://www.w3.org/1999/xlink">
<g id="graph0" class="graph" transform="scale(1 1) rotate(0) translate(4 84)">
<title>dfa</title>
<polygon fill="white" stroke="none" points="-4,4 -4,-84 291.6,-84 291.6,4 -4,4"/>
<!-- __start -->
<!-- 0 -->
<g id="node2" class="node"><title>0</title>
<ellipse fill="none" stroke="black" cx="91.6" cy="-18" rx="27" ry="18"/>
<text text-anchor="middle" x="91.6" y="-14.3" font-family="Times New Roman,serif" font-size="14.00">0</text>
</g>
<!-- __start&#45;&gt;0 -->
<g id="edge1" class="edge"><title>__start&#45;&gt;0</title>
<path fill="none" stroke="black" d="M3.78604,-18C8.86985,-18 32.7092,-18 54.1222,-18"/>
<polygon fill="black" stroke="black" points="54.3463,-21.5001 64.3463,-18 54.3463,-14.5001 54.3463,-21.5001"/>
<text text-anchor="middle" x="34.1" y="-21.8" font-family="Times New Roman,serif" font-size="14.00">start</text>
</g>
<!-- 0&#45;&gt;0 -->
<g id="edge3" class="edge"><title>0&#45;&gt;0</title>
<path fill="none" stroke="black" d="M83.0307,-35.4099C81.4311,-45.0879 84.2875,-54 91.6,-54 96.1703,-54 99,-50.5187 100.089,-45.5449"/>
<polygon fill="black" stroke="black" points="103.59,-45.4374 100.169,-35.4099 96.5901,-45.3818 103.59,-45.4374"/>
<text text-anchor="middle" x="91.6" y="-57.8" font-family="Times New Roman,serif" font-size="14.00">w</text>
</g>
<!-- 1 -->
<g id="node3" class="node"><title>1</title>
<ellipse fill="none" stroke="black" cx="183.6" cy="-51" rx="18" ry="18"/>
<ellipse fill="none" stroke="black" cx="183.6" cy="-51" rx="22" ry="22"/>
<text text-anchor="middle" x="183.6" y="-47.3" font-family="Times New Roman,serif" font-size="14.00">1</text>
</g>
<!-- 0&#45;&gt;1 -->
<g id="edge2" class="edge"><title>0&#45;&gt;1</title>
<path fill="none" stroke="black" d="M115.777,-26.4983C127.089,-30.646 140.828,-35.6836 152.9,-40.1099"/>
<polygon fill="black" stroke="black" points="151.964,-43.4947 162.558,-43.6513 154.374,-36.9226 151.964,-43.4947"/>
<text text-anchor="middle" x="140.1" y="-39.8" font-family="Times New Roman,serif" font-size="14.00">x</text>
</g>
<!-- 2 -->
<g id="node4" class="node"><title>2</title>
<ellipse fill="none" stroke="black" cx="269.6" cy="-29" rx="18" ry="18"/>
<text text-anchor="middle" x="269.6" y="-25.3" font-family="Times New Roman,serif" font-size="14.00">2</text>
</g>
<!-- 1&#45;&gt;2 -->
<g id="edge4" class="edge"><title>1&#45;&gt;2</title>
<path fill="none" stroke="black" d="M205.864,-49.8256C214.58,-48.9773 224.692,-47.5162 233.6,-45 237.048,-44.026 240.587,-42.758 244.028,-41.3619"/>
<polygon fill="black" stroke="black" points="245.599,-44.4938 253.308,-37.2259 242.749,-38.1001 245.599,-44.4938"/>
<text text-anchor="middle" x="228.6" y="-50.8" font-family="Times New Roman,serif" font-size="14.00">x</text>
</g>
<!-- 1&#45;&gt;2 -->
<g id="edge5" class="edge"><title>1&#45;&gt;2</title>
<path fill="none" stroke="black" d="M201.031,-37.5129C207.632,-32.9188 215.573,-28.3518 223.6,-26 229.235,-24.3488 235.431,-23.9226 241.375,-24.1454"/>
<polygon fill="black" stroke="black" points="241.341,-27.6578 251.628,-25.1227 242.005,-20.6894 241.341,-27.6578"/>
<text text-anchor="middle" x="228.6" y="-29.8" font-family="Times New Roman,serif" font-size="14.00">w</text>
</g>
<!-- 2&#45;&gt;0 -->
<g id="edge7" class="edge"><title>2&#45;&gt;0</title>
<path fill="none" stroke="black" d="M253.265,-21.3458C240.782,-15.5652 222.521,-8.11392 205.6,-5 179.327,-0.165016 149.266,-4.07032 126.757,-8.82861"/>
<polygon fill="black" stroke="black" points="125.965,-5.41941 116.988,-11.0465 127.514,-12.2457 125.965,-5.41941"/>
<text text-anchor="middle" x="183.6" y="-8.8" font-family="Times New Roman,serif" font-size="14.00">w</text>
</g>
<!-- 2&#45;&gt;2 -->
<g id="edge6" class="edge"><title>2&#45;&gt;2</title>
<path fill="none" stroke="black" d="M262.569,-45.6641C261.006,-55.625 263.35,-65 269.6,-65 273.604,-65 276.005,-61.1525 276.802,-55.7682"/>
<polygon fill="black" stroke="black" points="280.3,-55.6033 276.631,-45.6641 273.301,-55.7219 280.3,-55.6033"/>
<text text-anchor="middle" x="269.6" y="-68.8" font-family="Times New Roman,serif" font-size="14.00">x</text>
</g>
</g>
</svg>
