<?xml version="1.0" encoding="UTF-8" standalone="no"?>
<!DOCTYPE svg PUBLIC "-//W3C//DTD SVG 1.1//EN"
 "http://www.w3.org/Graphics/SVG/1.1/DTD/svg11.dtd">
<!-- Generated by graphviz version 2.38.0 (20140413.2041)
 -->
<!-- Title: dfa Pages: 1 -->
<svg width="278pt" height="88pt"
 viewBox="0.00 0.00 277.60 88.00" xmlns="http://www.w3.org/2000/svg" xmlns:xlink="http://www.w3.org/1999/xlink">
<g id="graph0" class="graph" transform="scale(1 1) rotate(0) translate(4 84)">
<title>dfa</title>
<polygon fill="white" stroke="none" points="-4,4 -4,-84 273.6,-84 273.6,4 -4,4"/>
<!-- __start -->
<!-- 0 -->
<g id="node2" class="node"><title>0</title>
<ellipse fill="none" stroke="black" cx="82.6" cy="-18" rx="18" ry="18"/>
<text text-anchor="middle" x="82.6" y="-14.3" font-family="Times New Roman,serif" font-size="14.00">0</text>
</g>
<!-- __start&#45;&gt;0 -->
<g id="edge1" class="edge"><title>__start&#45;&gt;0</title>
<path fill="none" stroke="black" d="M3.68496,-18C8.69573,-18 34.008,-18 54.4423,-18"/>
<polygon fill="black" stroke="black" points="54.5501,-21.5001 64.5501,-18 54.5501,-14.5001 54.5501,-21.5001"/>
<text text-anchor="middle" x="34.1" y="-21.8" font-family="Times New Roman,serif" font-size="14.00">start</text>
</g>
<!-- 0&#45;&gt;0 -->
<g id="edge3" class="edge"><title>0&#45;&gt;0</title>
<path fill="none" stroke="black" d="M75.8664,-35.0373C74.4922,-44.8579 76.7367,-54 82.6,-54 86.2646,-54 88.5155,-50.4289 89.3529,-45.3529"/>
<polygon fill="black" stroke="black" points="92.8524,-45.0307 89.3336,-35.0373 85.8524,-45.0439 92.8524,-45.0307"/>
<text text-anchor="middle" x="82.6" y="-57.8" font-family="Times New Roman,serif" font-size="14.00">w</text>
</g>
<!-- 1 -->
<g id="node3" class="node"><title>1</title>
<ellipse fill="none" stroke="black" cx="165.6" cy="-51" rx="18" ry="18"/>
<ellipse fill="none" stroke="black" cx="165.6" cy="-51" rx="22" ry="22"/>
<text text-anchor="middle" x="165.6" y="-47.3" font-family="Times New Roman,serif" font-size="14.00">1</text>
</g>
<!-- 0&#45;&gt;1 -->
<g id="edge2" class="edge"><title>0&#45;&gt;1</title>
<path fill="none" stroke="black" d="M99.603,-24.5197C109.862,-28.6994 123.481,-34.2476 135.601,-39.1854"/>
<polygon fill="black" stroke="black" points="134.325,-42.445 144.907,-42.9767 136.966,-35.9624 134.325,-42.445"/>
<text text-anchor="middle" x="122.1" y="-37.8" font-family="Times New Roman,serif" font-size="14.00">x</text>
</g>
<!-- 2 -->
<g id="node4" class="node"><title>2</title>
<ellipse fill="none" stroke="black" cx="251.6" cy="-29" rx="18" ry="18"/>
<text text-anchor="middle" x="251.6" y="-25.3" font-family="Times New Roman,serif" font-size="14.00">2</text>
</g>
<!-- 1&#45;&gt;2 -->
<g id="edge4" class="edge"><title>1&#45;&gt;2</title>
<path fill="none" stroke="black" d="M187.864,-49.8256C196.58,-48.9773 206.692,-47.5162 215.6,-45 219.048,-44.026 222.587,-42.758 226.028,-41.3619"/>
<polygon fill="black" stroke="black" points="227.599,-44.4938 235.308,-37.2259 224.749,-38.1001 227.599,-44.4938"/>
<text text-anchor="middle" x="210.6" y="-50.8" font-family="Times New Roman,serif" font-size="14.00">x</text>
</g>
<!-- 1&#45;&gt;2 -->
<g id="edge5" class="edge"><title>1&#45;&gt;2</title>
<path fill="none" stroke="black" d="M183.031,-37.5129C189.632,-32.9188 197.573,-28.3518 205.6,-26 211.235,-24.3488 217.431,-23.9226 223.375,-24.1454"/>
<polygon fill="black" stroke="black" points="223.341,-27.6578 233.628,-25.1227 224.005,-20.6894 223.341,-27.6578"/>
<text text-anchor="middle" x="210.6" y="-29.8" font-family="Times New Roman,serif" font-size="14.00">w</text>
</g>
<!-- 2&#45;&gt;0 -->
<g id="edge7" class="edge"><title>2&#45;&gt;0</title>
<path fill="none" stroke="black" d="M235.265,-21.3458C222.782,-15.5652 204.521,-8.11392 187.6,-5 161.268,-0.154301 130.849,-5.17357 109.739,-10.3185"/>
<polygon fill="black" stroke="black" points="108.691,-6.97467 99.9016,-12.89 110.462,-13.7471 108.691,-6.97467"/>
<text text-anchor="middle" x="165.6" y="-8.8" font-family="Times New Roman,serif" font-size="14.00">w</text>
</g>
<!-- 2&#45;&gt;2 -->
<g id="edge6" class="edge"><title>2&#45;&gt;2</title>
<path fill="none" stroke="black" d="M244.569,-45.6641C243.006,-55.625 245.35,-65 251.6,-65 255.604,-65 258.005,-61.1525 258.802,-55.7682"/>
<polygon fill="black" stroke="black" points="262.3,-55.6033 258.631,-45.6641 255.301,-55.7219 262.3,-55.6033"/>
<text text-anchor="middle" x="251.6" y="-68.8" font-family="Times New Roman,serif" font-size="14.00">x</text>
</g>
</g>
</svg>
