<?xml version="1.0" encoding="UTF-8" standalone="no"?>
<!DOCTYPE svg PUBLIC "-//W3C//DTD SVG 1.1//EN"
 "http://www.w3.org/Graphics/SVG/1.1/DTD/svg11.dtd">
<!-- Generated by graphviz version 2.38.0 (20140413.2041)
 -->
<!-- Title: dfa Pages: 1 -->
<svg width="525pt" height="206pt"
 viewBox="0.00 0.00 525.08 206.05" xmlns="http://www.w3.org/2000/svg" xmlns:xlink="http://www.w3.org/1999/xlink">
<g id="graph0" class="graph" transform="scale(1 1) rotate(0) translate(4 202.048)">
<title>dfa</title>
<polygon fill="white" stroke="none" points="-4,4 -4,-202.048 521.076,-202.048 521.076,4 -4,4"/>
<!-- __start -->
<!-- {0} -->
<g id="node2" class="node"><title>{0}</title>
<ellipse fill="none" stroke="black" cx="88.6479" cy="-24.0479" rx="24.0958" ry="24.0958"/>
<text text-anchor="middle" x="88.6479" y="-20.3479" font-family="Times New Roman,serif" font-size="14.00">{0}</text>
</g>
<!-- __start&#45;&gt;{0} -->
<g id="edge1" class="edge"><title>__start&#45;&gt;{0}</title>
<path fill="none" stroke="black" d="M3.75288,-24.0479C8.82222,-24.0479 33.1893,-24.0479 54.3658,-24.0479"/>
<polygon fill="black" stroke="black" points="54.4068,-27.548 64.4067,-24.0479 54.4067,-20.548 54.4068,-27.548"/>
<text text-anchor="middle" x="34.1" y="-27.8479" font-family="Times New Roman,serif" font-size="14.00">start</text>
</g>
<!-- {1} -->
<g id="node3" class="node"><title>{1}</title>
<ellipse fill="none" stroke="black" cx="183.744" cy="-66.0479" rx="24.089" ry="24.089"/>
<ellipse fill="none" stroke="black" cx="183.744" cy="-66.0479" rx="28.0958" ry="28.0958"/>
<text text-anchor="middle" x="183.744" y="-62.3479" font-family="Times New Roman,serif" font-size="14.00">{1}</text>
</g>
<!-- {0}&#45;&gt;{1} -->
<g id="edge2" class="edge"><title>{0}&#45;&gt;{1}</title>
<path fill="none" stroke="black" d="M110.773,-33.5783C121.888,-38.5928 135.792,-44.8659 148.409,-50.5578"/>
<polygon fill="black" stroke="black" points="147.184,-53.8447 157.738,-54.7667 150.062,-47.464 147.184,-53.8447"/>
<text text-anchor="middle" x="134.196" y="-48.8479" font-family="Times New Roman,serif" font-size="14.00">x</text>
</g>
<!-- {0,4} -->
<g id="node4" class="node"><title>{0,4}</title>
<ellipse fill="none" stroke="black" cx="486.529" cy="-66.0479" rx="30.5947" ry="30.5947"/>
<text text-anchor="middle" x="486.529" y="-62.3479" font-family="Times New Roman,serif" font-size="14.00">{0,4}</text>
</g>
<!-- {0}&#45;&gt;{0,4} -->
<g id="edge3" class="edge"><title>{0}&#45;&gt;{0,4}</title>
<path fill="none" stroke="black" d="M111.065,-15.2474C129.68,-8.39784 157.54,-0.0478662 182.744,-0.0478662 182.744,-0.0478662 182.744,-0.0478662 380.434,-0.0478662 410.106,-0.0478662 438.268,-19.1486 457.958,-36.7991"/>
<polygon fill="black" stroke="black" points="455.642,-39.4253 465.334,-43.7033 460.425,-34.3145 455.642,-39.4253"/>
<text text-anchor="middle" x="281.839" y="-3.84787" font-family="Times New Roman,serif" font-size="14.00">w</text>
</g>
<!-- {3} -->
<g id="node5" class="node"><title>{3}</title>
<ellipse fill="none" stroke="black" cx="281.839" cy="-108.048" rx="24.0958" ry="24.0958"/>
<text text-anchor="middle" x="281.839" y="-104.348" font-family="Times New Roman,serif" font-size="14.00">{3}</text>
</g>
<!-- {1}&#45;&gt;{3} -->
<g id="edge4" class="edge"><title>{1}&#45;&gt;{3}</title>
<path fill="none" stroke="black" d="M208.081,-80.817C214.918,-84.7839 222.515,-88.8542 229.791,-92.0479 235.763,-94.6689 242.3,-97.0559 248.642,-99.14"/>
<polygon fill="black" stroke="black" points="247.75,-102.528 258.338,-102.156 249.829,-95.8439 247.75,-102.528"/>
<text text-anchor="middle" x="234.791" y="-99.8479" font-family="Times New Roman,serif" font-size="14.00">x</text>
</g>
<!-- {1}&#45;&gt;{3} -->
<g id="edge5" class="edge"><title>{1}&#45;&gt;{3}</title>
<path fill="none" stroke="black" d="M211.899,-66.3933C221.066,-67.3098 231.156,-69.2304 239.791,-73.0479 245.862,-75.7317 251.718,-79.6122 257.012,-83.8211"/>
<polygon fill="black" stroke="black" points="254.969,-86.6813 264.82,-90.5804 259.55,-81.389 254.969,-86.6813"/>
<text text-anchor="middle" x="234.791" y="-76.8479" font-family="Times New Roman,serif" font-size="14.00">w</text>
</g>
<!-- {0,4}&#45;&gt;{1} -->
<g id="edge10" class="edge"><title>{0,4}&#45;&gt;{1}</title>
<path fill="none" stroke="black" d="M455.762,-64.1078C441.86,-63.2951 425.081,-62.4473 409.982,-62.0479 343.746,-60.2956 266.532,-62.6144 221.879,-64.3834"/>
<polygon fill="black" stroke="black" points="221.639,-60.8902 211.79,-64.7959 221.925,-67.8844 221.639,-60.8902"/>
<text text-anchor="middle" x="327.387" y="-65.8479" font-family="Times New Roman,serif" font-size="14.00">x</text>
</g>
<!-- {0,4}&#45;&gt;{0,4} -->
<g id="edge11" class="edge"><title>{0,4}&#45;&gt;{0,4}</title>
<path fill="none" stroke="black" d="M476.789,-95.436C476.579,-105.99 479.826,-114.595 486.529,-114.595 490.823,-114.595 493.699,-111.064 495.156,-105.751"/>
<polygon fill="black" stroke="black" points="498.676,-105.754 496.27,-95.436 491.717,-105.003 498.676,-105.754"/>
<text text-anchor="middle" x="486.529" y="-118.395" font-family="Times New Roman,serif" font-size="14.00">w</text>
</g>
<!-- {3}&#45;&gt;{0,4} -->
<g id="edge7" class="edge"><title>{3}&#45;&gt;{0,4}</title>
<path fill="none" stroke="black" d="M295.575,-127.811C307.244,-143.928 326.135,-165.528 348.887,-175.048 373.936,-185.529 385.927,-187.643 409.982,-175.048 438.469,-160.132 458.358,-129.05 470.552,-103.881"/>
<polygon fill="black" stroke="black" points="473.837,-105.116 474.851,-94.5696 467.482,-102.182 473.837,-105.116"/>
<text text-anchor="middle" x="379.434" y="-186.848" font-family="Times New Roman,serif" font-size="14.00">w</text>
</g>
<!-- {2,3} -->
<g id="node6" class="node"><title>{2,3}</title>
<ellipse fill="none" stroke="black" cx="379.434" cy="-102.048" rx="30.5947" ry="30.5947"/>
<text text-anchor="middle" x="379.434" y="-98.3479" font-family="Times New Roman,serif" font-size="14.00">{2,3}</text>
</g>
<!-- {3}&#45;&gt;{2,3} -->
<g id="edge6" class="edge"><title>{3}&#45;&gt;{2,3}</title>
<path fill="none" stroke="black" d="M305.98,-106.595C315.795,-105.979 327.521,-105.243 338.649,-104.545"/>
<polygon fill="black" stroke="black" points="338.869,-108.038 348.63,-103.919 338.43,-101.052 338.869,-108.038"/>
<text text-anchor="middle" x="327.387" y="-109.848" font-family="Times New Roman,serif" font-size="14.00">x</text>
</g>
<!-- {2,3}&#45;&gt;{0,4} -->
<g id="edge9" class="edge"><title>{2,3}&#45;&gt;{0,4}</title>
<path fill="none" stroke="black" d="M408.598,-92.4005C420.614,-88.2845 434.815,-83.4198 447.725,-78.9976"/>
<polygon fill="black" stroke="black" points="448.962,-82.2737 457.288,-75.7218 446.693,-75.6514 448.962,-82.2737"/>
<text text-anchor="middle" x="432.982" y="-89.8479" font-family="Times New Roman,serif" font-size="14.00">w</text>
</g>
<!-- {2,3}&#45;&gt;{2,3} -->
<g id="edge8" class="edge"><title>{2,3}&#45;&gt;{2,3}</title>
<path fill="none" stroke="black" d="M369.694,-131.436C369.485,-141.99 372.731,-150.595 379.434,-150.595 383.729,-150.595 386.604,-147.064 388.062,-141.751"/>
<polygon fill="black" stroke="black" points="391.582,-141.754 389.175,-131.436 384.622,-141.003 391.582,-141.754"/>
<text text-anchor="middle" x="379.434" y="-154.395" font-family="Times New Roman,serif" font-size="14.00">x</text>
</g>
</g>
</svg>
