<?xml version="1.0" encoding="UTF-8" standalone="no"?>
<!DOCTYPE svg PUBLIC "-//W3C//DTD SVG 1.1//EN"
 "http://www.w3.org/Graphics/SVG/1.1/DTD/svg11.dtd">
<!-- Generated by graphviz version 2.38.0 (20140413.2041)
 -->
<!-- Title: dfa Pages: 1 -->
<svg width="531pt" height="206pt"
 viewBox="0.00 0.00 530.98 206.00" xmlns="http://www.w3.org/2000/svg" xmlns:xlink="http://www.w3.org/1999/xlink">
<g id="graph0" class="graph" transform="scale(1 1) rotate(0) translate(4 202)">
<title>dfa</title>
<polygon fill="white" stroke="none" points="-4,4 -4,-202 526.981,-202 526.981,4 -4,4"/>
<!-- __start -->
<!-- {0} -->
<g id="node2" class="node"><title>{0}</title>
<ellipse fill="none" stroke="black" cx="91.6" cy="-24" rx="27" ry="18"/>
<text text-anchor="middle" x="91.6" y="-20.3" font-family="Times New Roman,serif" font-size="14.00">{0}</text>
</g>
<!-- __start&#45;&gt;{0} -->
<g id="edge1" class="edge"><title>__start&#45;&gt;{0}</title>
<path fill="none" stroke="black" d="M3.78604,-24C8.86985,-24 32.7092,-24 54.1222,-24"/>
<polygon fill="black" stroke="black" points="54.3463,-27.5001 64.3463,-24 54.3463,-20.5001 54.3463,-27.5001"/>
<text text-anchor="middle" x="34.1" y="-27.8" font-family="Times New Roman,serif" font-size="14.00">start</text>
</g>
<!-- {1} -->
<g id="node3" class="node"><title>{1}</title>
<ellipse fill="none" stroke="black" cx="189.648" cy="-66" rx="24.089" ry="24.089"/>
<ellipse fill="none" stroke="black" cx="189.648" cy="-66" rx="28.0958" ry="28.0958"/>
<text text-anchor="middle" x="189.648" y="-62.3" font-family="Times New Roman,serif" font-size="14.00">{1}</text>
</g>
<!-- {0}&#45;&gt;{1} -->
<g id="edge2" class="edge"><title>{0}&#45;&gt;{1}</title>
<path fill="none" stroke="black" d="M114.877,-33.7412C126.649,-38.8892 141.353,-45.3187 154.528,-51.0801"/>
<polygon fill="black" stroke="black" points="153.224,-54.3296 163.788,-55.1293 156.028,-47.916 153.224,-54.3296"/>
<text text-anchor="middle" x="140.1" y="-50.8" font-family="Times New Roman,serif" font-size="14.00">x</text>
</g>
<!-- {0,4} -->
<g id="node4" class="node"><title>{0,4}</title>
<ellipse fill="none" stroke="black" cx="492.433" cy="-66" rx="30.5947" ry="30.5947"/>
<text text-anchor="middle" x="492.433" y="-62.3" font-family="Times New Roman,serif" font-size="14.00">{0,4}</text>
</g>
<!-- {0}&#45;&gt;{0,4} -->
<g id="edge3" class="edge"><title>{0}&#45;&gt;{0,4}</title>
<path fill="none" stroke="black" d="M115.104,-15.0633C134.322,-8.23975 162.866,-0 188.648,-0 188.648,-0 188.648,-0 386.339,-0 416.011,-0 444.173,-19.1007 463.862,-36.7512"/>
<polygon fill="black" stroke="black" points="461.546,-39.3774 471.239,-43.6554 466.329,-34.2667 461.546,-39.3774"/>
<text text-anchor="middle" x="287.744" y="-3.8" font-family="Times New Roman,serif" font-size="14.00">w</text>
</g>
<!-- {3} -->
<g id="node5" class="node"><title>{3}</title>
<ellipse fill="none" stroke="black" cx="287.744" cy="-108" rx="24.0958" ry="24.0958"/>
<text text-anchor="middle" x="287.744" y="-104.3" font-family="Times New Roman,serif" font-size="14.00">{3}</text>
</g>
<!-- {1}&#45;&gt;{3} -->
<g id="edge4" class="edge"><title>{1}&#45;&gt;{3}</title>
<path fill="none" stroke="black" d="M213.985,-80.7692C220.822,-84.736 228.419,-88.8063 235.696,-92 241.667,-94.6211 248.204,-97.0081 254.546,-99.0921"/>
<polygon fill="black" stroke="black" points="253.654,-102.48 264.243,-102.108 255.733,-95.796 253.654,-102.48"/>
<text text-anchor="middle" x="240.696" y="-99.8" font-family="Times New Roman,serif" font-size="14.00">x</text>
</g>
<!-- {1}&#45;&gt;{3} -->
<g id="edge5" class="edge"><title>{1}&#45;&gt;{3}</title>
<path fill="none" stroke="black" d="M217.803,-66.3455C226.97,-67.262 237.061,-69.1825 245.696,-73 251.767,-75.6839 257.622,-79.5644 262.916,-83.7732"/>
<polygon fill="black" stroke="black" points="260.873,-86.6334 270.724,-90.5325 265.455,-81.3411 260.873,-86.6334"/>
<text text-anchor="middle" x="240.696" y="-76.8" font-family="Times New Roman,serif" font-size="14.00">w</text>
</g>
<!-- {0,4}&#45;&gt;{1} -->
<g id="edge10" class="edge"><title>{0,4}&#45;&gt;{1}</title>
<path fill="none" stroke="black" d="M461.666,-64.0599C447.764,-63.2472 430.985,-62.3994 415.886,-62 349.65,-60.2477 272.436,-62.5666 227.783,-64.3355"/>
<polygon fill="black" stroke="black" points="227.543,-60.8423 217.695,-64.748 227.829,-67.8365 227.543,-60.8423"/>
<text text-anchor="middle" x="333.291" y="-65.8" font-family="Times New Roman,serif" font-size="14.00">x</text>
</g>
<!-- {0,4}&#45;&gt;{0,4} -->
<g id="edge11" class="edge"><title>{0,4}&#45;&gt;{0,4}</title>
<path fill="none" stroke="black" d="M482.693,-95.3881C482.483,-105.942 485.73,-114.547 492.433,-114.547 496.728,-114.547 499.603,-111.016 501.061,-105.703"/>
<polygon fill="black" stroke="black" points="504.58,-105.706 502.174,-95.3881 497.621,-104.955 504.58,-105.706"/>
<text text-anchor="middle" x="492.433" y="-118.347" font-family="Times New Roman,serif" font-size="14.00">w</text>
</g>
<!-- {3}&#45;&gt;{0,4} -->
<g id="edge7" class="edge"><title>{3}&#45;&gt;{0,4}</title>
<path fill="none" stroke="black" d="M301.48,-127.763C313.148,-143.88 332.039,-165.48 354.791,-175 379.84,-185.481 391.831,-187.596 415.886,-175 444.373,-160.084 464.262,-129.003 476.456,-103.833"/>
<polygon fill="black" stroke="black" points="479.741,-105.068 480.755,-94.5217 473.386,-102.134 479.741,-105.068"/>
<text text-anchor="middle" x="385.339" y="-186.8" font-family="Times New Roman,serif" font-size="14.00">w</text>
</g>
<!-- {2,3} -->
<g id="node6" class="node"><title>{2,3}</title>
<ellipse fill="none" stroke="black" cx="385.339" cy="-102" rx="30.5947" ry="30.5947"/>
<text text-anchor="middle" x="385.339" y="-98.3" font-family="Times New Roman,serif" font-size="14.00">{2,3}</text>
</g>
<!-- {3}&#45;&gt;{2,3} -->
<g id="edge6" class="edge"><title>{3}&#45;&gt;{2,3}</title>
<path fill="none" stroke="black" d="M311.885,-106.548C321.7,-105.932 333.425,-105.196 344.553,-104.497"/>
<polygon fill="black" stroke="black" points="344.773,-107.99 354.534,-103.871 344.334,-101.004 344.773,-107.99"/>
<text text-anchor="middle" x="333.291" y="-109.8" font-family="Times New Roman,serif" font-size="14.00">x</text>
</g>
<!-- {2,3}&#45;&gt;{0,4} -->
<g id="edge9" class="edge"><title>{2,3}&#45;&gt;{0,4}</title>
<path fill="none" stroke="black" d="M414.502,-92.3527C426.518,-88.2366 440.72,-83.3719 453.629,-78.9497"/>
<polygon fill="black" stroke="black" points="454.866,-82.2258 463.192,-75.674 452.598,-75.6035 454.866,-82.2258"/>
<text text-anchor="middle" x="438.886" y="-89.8" font-family="Times New Roman,serif" font-size="14.00">w</text>
</g>
<!-- {2,3}&#45;&gt;{2,3} -->
<g id="edge8" class="edge"><title>{2,3}&#45;&gt;{2,3}</title>
<path fill="none" stroke="black" d="M375.598,-131.388C375.389,-141.942 378.636,-150.547 385.339,-150.547 389.633,-150.547 392.509,-147.016 393.966,-141.703"/>
<polygon fill="black" stroke="black" points="397.486,-141.706 395.079,-131.388 390.526,-140.955 397.486,-141.706"/>
<text text-anchor="middle" x="385.339" y="-154.347" font-family="Times New Roman,serif" font-size="14.00">x</text>
</g>
</g>
</svg>
