<?xml version="1.0" encoding="UTF-8" standalone="no"?>
<!DOCTYPE svg PUBLIC "-//W3C//DTD SVG 1.1//EN"
 "http://www.w3.org/Graphics/SVG/1.1/DTD/svg11.dtd">
<!-- Generated by graphviz version 2.38.0 (20140413.2041)
 -->
<!-- Title: dfa Pages: 1 -->
<svg width="271pt" height="96pt"
 viewBox="0.00 0.00 270.60 96.00" xmlns="http://www.w3.org/2000/svg" xmlns:xlink="http://www.w3.org/1999/xlink">
<g id="graph0" class="graph" transform="scale(1 1) rotate(0) translate(4 92)">
<title>dfa</title>
<polygon fill="white" stroke="none" points="-4,4 -4,-92 266.6,-92 266.6,4 -4,4"/>
<!-- __start -->
<!-- 0 -->
<g id="node2" class="node"><title>0</title>
<ellipse fill="none" stroke="black" cx="82.6" cy="-18" rx="18" ry="18"/>
<text text-anchor="middle" x="82.6" y="-14.3" font-family="Times New Roman,serif" font-size="14.00">0</text>
</g>
<!-- __start&#45;&gt;0 -->
<g id="edge1" class="edge"><title>__start&#45;&gt;0</title>
<path fill="none" stroke="black" d="M3.68496,-18C8.69573,-18 34.008,-18 54.4423,-18"/>
<polygon fill="black" stroke="black" points="54.5501,-21.5001 64.5501,-18 54.5501,-14.5001 54.5501,-21.5001"/>
<text text-anchor="middle" x="34.1" y="-21.8" font-family="Times New Roman,serif" font-size="14.00">start</text>
</g>
<!-- 1 -->
<g id="node3" class="node"><title>1</title>
<ellipse fill="none" stroke="black" cx="163.6" cy="-56" rx="18" ry="18"/>
<ellipse fill="none" stroke="black" cx="163.6" cy="-56" rx="22" ry="22"/>
<text text-anchor="middle" x="163.6" y="-52.3" font-family="Times New Roman,serif" font-size="14.00">1</text>
</g>
<!-- 0&#45;&gt;1 -->
<g id="edge4" class="edge"><title>0&#45;&gt;1</title>
<path fill="none" stroke="black" d="M99.2079,-25.5076C109.214,-30.3205 122.496,-36.7094 134.317,-42.3953"/>
<polygon fill="black" stroke="black" points="132.864,-45.5804 143.393,-46.7611 135.898,-39.2722 132.864,-45.5804"/>
<text text-anchor="middle" x="121.1" y="-40.8" font-family="Times New Roman,serif" font-size="14.00">(</text>
</g>
<!-- 2 -->
<g id="node4" class="node"><title>2</title>
<ellipse fill="none" stroke="black" cx="244.6" cy="-37" rx="18" ry="18"/>
<text text-anchor="middle" x="244.6" y="-33.3" font-family="Times New Roman,serif" font-size="14.00">2</text>
</g>
<!-- 0&#45;&gt;2 -->
<g id="edge5" class="edge"><title>0&#45;&gt;2</title>
<path fill="none" stroke="black" d="M100.39,-13.8163C120.757,-9.39653 156.036,-3.85108 185.6,-10 197.467,-12.4681 209.755,-17.7381 219.95,-22.9728"/>
<polygon fill="black" stroke="black" points="218.543,-26.1913 229.001,-27.8882 221.884,-20.0399 218.543,-26.1913"/>
<text text-anchor="middle" x="163.6" y="-13.8" font-family="Times New Roman,serif" font-size="14.00">)</text>
</g>
<!-- 1&#45;&gt;0 -->
<g id="edge3" class="edge"><title>1&#45;&gt;0</title>
<path fill="none" stroke="black" d="M149.343,-38.6174C142.551,-31.1212 133.605,-23.1365 123.6,-19 119.556,-17.3279 115.079,-16.4182 110.629,-15.997"/>
<polygon fill="black" stroke="black" points="110.581,-12.4951 100.506,-15.7716 110.425,-19.4934 110.581,-12.4951"/>
<text text-anchor="middle" x="121.1" y="-22.8" font-family="Times New Roman,serif" font-size="14.00">)</text>
</g>
<!-- 1&#45;&gt;2 -->
<g id="edge2" class="edge"><title>1&#45;&gt;2</title>
<path fill="none" stroke="black" d="M181.869,-68.3591C190.038,-72.6614 199.889,-75.6082 208.6,-72 215.428,-69.1719 221.618,-64.294 226.828,-59.0627"/>
<polygon fill="black" stroke="black" points="229.672,-61.1333 233.722,-51.343 224.45,-56.471 229.672,-61.1333"/>
<text text-anchor="middle" x="206.1" y="-76.8" font-family="Times New Roman,serif" font-size="14.00">(</text>
</g>
<!-- 2&#45;&gt;1 -->
<g id="edge6" class="edge"><title>2&#45;&gt;1</title>
<path fill="none" stroke="black" d="M226.961,-41.0018C217.775,-43.211 206.075,-46.025 195.296,-48.6174"/>
<polygon fill="black" stroke="black" points="194.261,-45.2665 185.356,-51.008 195.898,-52.0725 194.261,-45.2665"/>
<text text-anchor="middle" x="206.1" y="-49.8" font-family="Times New Roman,serif" font-size="14.00">(</text>
</g>
<!-- 2&#45;&gt;1 -->
<g id="edge7" class="edge"><title>2&#45;&gt;1</title>
<path fill="none" stroke="black" d="M228.655,-28.6287C221.083,-25.4601 211.782,-23.217 203.6,-26 198.141,-27.8567 192.849,-30.82 188.016,-34.1772"/>
<polygon fill="black" stroke="black" points="185.632,-31.5972 179.875,-40.4917 189.922,-37.1284 185.632,-31.5972"/>
<text text-anchor="middle" x="206.1" y="-29.8" font-family="Times New Roman,serif" font-size="14.00">)</text>
</g>
</g>
</svg>
