<?xml version="1.0" encoding="UTF-8" standalone="no"?>
<!DOCTYPE svg PUBLIC "-//W3C//DTD SVG 1.1//EN"
 "http://www.w3.org/Graphics/SVG/1.1/DTD/svg11.dtd">
<!-- Generated by graphviz version 2.38.0 (20140413.2041)
 -->
<!-- Title: dfa Pages: 1 -->
<svg width="374pt" height="111pt"
 viewBox="0.00 0.00 373.60 111.00" xmlns="http://www.w3.org/2000/svg" xmlns:xlink="http://www.w3.org/1999/xlink">
<g id="graph0" class="graph" transform="scale(1 1) rotate(0) translate(4 107)">
<title>dfa</title>
<polygon fill="white" stroke="none" points="-4,4 -4,-107 369.6,-107 369.6,4 -4,4"/>
<!-- __start -->
<!-- 0 -->
<g id="node2" class="node"><title>0</title>
<ellipse fill="none" stroke="black" cx="91.6" cy="-18" rx="27" ry="18"/>
<text text-anchor="middle" x="91.6" y="-14.3" font-family="Times New Roman,serif" font-size="14.00">0</text>
</g>
<!-- __start&#45;&gt;0 -->
<g id="edge1" class="edge"><title>__start&#45;&gt;0</title>
<path fill="none" stroke="black" d="M3.78604,-18C8.86985,-18 32.7092,-18 54.1222,-18"/>
<polygon fill="black" stroke="black" points="54.3463,-21.5001 64.3463,-18 54.3463,-14.5001 54.3463,-21.5001"/>
<text text-anchor="middle" x="34.1" y="-21.8" font-family="Times New Roman,serif" font-size="14.00">start</text>
</g>
<!-- 0&#45;&gt;0 -->
<g id="edge4" class="edge"><title>0&#45;&gt;0</title>
<path fill="none" stroke="black" d="M83.3877,-35.4099C81.8548,-45.0879 84.5922,-54 91.6,-54 95.9799,-54 98.6916,-50.5187 99.7353,-45.5449"/>
<polygon fill="black" stroke="black" points="103.236,-45.4362 99.8123,-35.4099 96.2363,-45.383 103.236,-45.4362"/>
<text text-anchor="middle" x="91.6" y="-57.8" font-family="Times New Roman,serif" font-size="14.00">(</text>
</g>
<!-- 2 -->
<g id="node4" class="node"><title>2</title>
<ellipse fill="none" stroke="black" cx="181.6" cy="-48" rx="18" ry="18"/>
<ellipse fill="none" stroke="black" cx="181.6" cy="-48" rx="22" ry="22"/>
<text text-anchor="middle" x="181.6" y="-44.3" font-family="Times New Roman,serif" font-size="14.00">2</text>
</g>
<!-- 0&#45;&gt;2 -->
<g id="edge5" class="edge"><title>0&#45;&gt;2</title>
<path fill="none" stroke="black" d="M116.182,-26.0394C126.893,-29.6908 139.677,-34.0491 151.023,-37.917"/>
<polygon fill="black" stroke="black" points="149.941,-41.2457 160.535,-41.1597 152.199,-34.6201 149.941,-41.2457"/>
<text text-anchor="middle" x="139.1" y="-36.8" font-family="Times New Roman,serif" font-size="14.00">)</text>
</g>
<!-- 1 -->
<g id="node3" class="node"><title>1</title>
<ellipse fill="none" stroke="black" cx="266.6" cy="-48" rx="18" ry="18"/>
<ellipse fill="none" stroke="black" cx="266.6" cy="-48" rx="22" ry="22"/>
<text text-anchor="middle" x="266.6" y="-44.3" font-family="Times New Roman,serif" font-size="14.00">1</text>
</g>
<!-- 1&#45;&gt;1 -->
<g id="edge8" class="edge"><title>1&#45;&gt;1</title>
<path fill="none" stroke="black" d="M258.917,-68.9908C257.969,-79.0872 260.53,-88 266.6,-88 270.489,-88 272.937,-84.3422 273.946,-79.0587"/>
<polygon fill="black" stroke="black" points="277.446,-79.1023 274.283,-68.9908 270.45,-78.868 277.446,-79.1023"/>
<text text-anchor="middle" x="266.6" y="-91.8" font-family="Times New Roman,serif" font-size="14.00">(</text>
</g>
<!-- 3 -->
<g id="node5" class="node"><title>3</title>
<ellipse fill="none" stroke="black" cx="347.6" cy="-18" rx="18" ry="18"/>
<text text-anchor="middle" x="347.6" y="-14.3" font-family="Times New Roman,serif" font-size="14.00">3</text>
</g>
<!-- 1&#45;&gt;3 -->
<g id="edge9" class="edge"><title>1&#45;&gt;3</title>
<path fill="none" stroke="black" d="M287.535,-40.4297C297.754,-36.5492 310.31,-31.781 321.214,-27.6403"/>
<polygon fill="black" stroke="black" points="322.543,-30.8796 330.649,-24.0574 320.058,-24.3356 322.543,-30.8796"/>
<text text-anchor="middle" x="309.1" y="-36.8" font-family="Times New Roman,serif" font-size="14.00">)</text>
</g>
<!-- 2&#45;&gt;1 -->
<g id="edge3" class="edge"><title>2&#45;&gt;1</title>
<path fill="none" stroke="black" d="M203.975,-48C213.243,-48 224.279,-48 234.433,-48"/>
<polygon fill="black" stroke="black" points="234.585,-51.5001 244.585,-48 234.585,-44.5001 234.585,-51.5001"/>
<text text-anchor="middle" x="224.1" y="-51.8" font-family="Times New Roman,serif" font-size="14.00">)</text>
</g>
<!-- 2&#45;&gt;2 -->
<g id="edge2" class="edge"><title>2&#45;&gt;2</title>
<path fill="none" stroke="black" d="M173.917,-68.9908C172.969,-79.0872 175.53,-88 181.6,-88 185.489,-88 187.937,-84.3422 188.946,-79.0587"/>
<polygon fill="black" stroke="black" points="192.446,-79.1023 189.283,-68.9908 185.45,-78.868 192.446,-79.1023"/>
<text text-anchor="middle" x="181.6" y="-91.8" font-family="Times New Roman,serif" font-size="14.00">(</text>
</g>
<!-- 3&#45;&gt;0 -->
<g id="edge6" class="edge"><title>3&#45;&gt;0</title>
<path fill="none" stroke="black" d="M329.597,-17.6297C318.037,-17.397 302.397,-17.1189 288.6,-17 231.269,-16.5058 216.932,-16.5722 159.6,-17 149.585,-17.0747 138.728,-17.2123 128.729,-17.362"/>
<polygon fill="black" stroke="black" points="128.633,-13.863 118.69,-17.5202 128.744,-20.8621 128.633,-13.863"/>
<text text-anchor="middle" x="224.1" y="-19.8" font-family="Times New Roman,serif" font-size="14.00">(</text>
</g>
<!-- 3&#45;&gt;3 -->
<g id="edge7" class="edge"><title>3&#45;&gt;3</title>
<path fill="none" stroke="black" d="M340.866,-35.0373C339.492,-44.8579 341.737,-54 347.6,-54 351.265,-54 353.516,-50.4289 354.353,-45.3529"/>
<polygon fill="black" stroke="black" points="357.852,-45.0307 354.334,-35.0373 350.852,-45.0439 357.852,-45.0307"/>
<text text-anchor="middle" x="347.6" y="-57.8" font-family="Times New Roman,serif" font-size="14.00">)</text>
</g>
</g>
</svg>
