<?xml version="1.0" encoding="UTF-8" standalone="no"?>
<!DOCTYPE svg PUBLIC "-//W3C//DTD SVG 1.1//EN"
 "http://www.w3.org/Graphics/SVG/1.1/DTD/svg11.dtd">
<!-- Generated by graphviz version 2.38.0 (20140413.2041)
 -->
<!-- Title: dfa Pages: 1 -->
<svg width="289pt" height="96pt"
 viewBox="0.00 0.00 288.60 96.00" xmlns="http://www.w3.org/2000/svg" xmlns:xlink="http://www.w3.org/1999/xlink">
<g id="graph0" class="graph" transform="scale(1 1) rotate(0) translate(4 92)">
<title>dfa</title>
<polygon fill="white" stroke="none" points="-4,4 -4,-92 284.6,-92 284.6,4 -4,4"/>
<!-- __start -->
<!-- 0 -->
<g id="node2" class="node"><title>0</title>
<ellipse fill="none" stroke="black" cx="91.6" cy="-18" rx="27" ry="18"/>
<text text-anchor="middle" x="91.6" y="-14.3" font-family="Times New Roman,serif" font-size="14.00">0</text>
</g>
<!-- __start&#45;&gt;0 -->
<g id="edge1" class="edge"><title>__start&#45;&gt;0</title>
<path fill="none" stroke="black" d="M3.78604,-18C8.86985,-18 32.7092,-18 54.1222,-18"/>
<polygon fill="black" stroke="black" points="54.3463,-21.5001 64.3463,-18 54.3463,-14.5001 54.3463,-21.5001"/>
<text text-anchor="middle" x="34.1" y="-21.8" font-family="Times New Roman,serif" font-size="14.00">start</text>
</g>
<!-- 1 -->
<g id="node3" class="node"><title>1</title>
<ellipse fill="none" stroke="black" cx="181.6" cy="-56" rx="18" ry="18"/>
<ellipse fill="none" stroke="black" cx="181.6" cy="-56" rx="22" ry="22"/>
<text text-anchor="middle" x="181.6" y="-52.3" font-family="Times New Roman,serif" font-size="14.00">1</text>
</g>
<!-- 0&#45;&gt;1 -->
<g id="edge4" class="edge"><title>0&#45;&gt;1</title>
<path fill="none" stroke="black" d="M114.806,-27.589C126.055,-32.4467 139.848,-38.4024 151.893,-43.6039"/>
<polygon fill="black" stroke="black" points="150.529,-46.8272 161.097,-47.5784 153.304,-40.4007 150.529,-46.8272"/>
<text text-anchor="middle" x="139.1" y="-41.8" font-family="Times New Roman,serif" font-size="14.00">(</text>
</g>
<!-- 2 -->
<g id="node4" class="node"><title>2</title>
<ellipse fill="none" stroke="black" cx="262.6" cy="-37" rx="18" ry="18"/>
<text text-anchor="middle" x="262.6" y="-33.3" font-family="Times New Roman,serif" font-size="14.00">2</text>
</g>
<!-- 0&#45;&gt;2 -->
<g id="edge5" class="edge"><title>0&#45;&gt;2</title>
<path fill="none" stroke="black" d="M117.549,-12.3164C140.218,-8.06691 174.469,-3.9412 203.6,-10 215.467,-12.4681 227.755,-17.7381 237.95,-22.9728"/>
<polygon fill="black" stroke="black" points="236.543,-26.1913 247.001,-27.8882 239.884,-20.0399 236.543,-26.1913"/>
<text text-anchor="middle" x="181.6" y="-13.8" font-family="Times New Roman,serif" font-size="14.00">)</text>
</g>
<!-- 1&#45;&gt;0 -->
<g id="edge3" class="edge"><title>1&#45;&gt;0</title>
<path fill="none" stroke="black" d="M167.351,-38.5968C160.561,-31.0961 151.614,-23.1135 141.6,-19 137.414,-17.2805 132.852,-16.2323 128.251,-15.6507"/>
<polygon fill="black" stroke="black" points="128.442,-12.156 118.248,-15.0434 128.018,-19.1431 128.442,-12.156"/>
<text text-anchor="middle" x="139.1" y="-22.8" font-family="Times New Roman,serif" font-size="14.00">)</text>
</g>
<!-- 1&#45;&gt;2 -->
<g id="edge2" class="edge"><title>1&#45;&gt;2</title>
<path fill="none" stroke="black" d="M199.869,-68.3591C208.038,-72.6614 217.889,-75.6082 226.6,-72 233.428,-69.1719 239.618,-64.294 244.828,-59.0627"/>
<polygon fill="black" stroke="black" points="247.672,-61.1333 251.722,-51.343 242.45,-56.471 247.672,-61.1333"/>
<text text-anchor="middle" x="224.1" y="-76.8" font-family="Times New Roman,serif" font-size="14.00">(</text>
</g>
<!-- 2&#45;&gt;1 -->
<g id="edge6" class="edge"><title>2&#45;&gt;1</title>
<path fill="none" stroke="black" d="M244.961,-41.0018C235.775,-43.211 224.075,-46.025 213.296,-48.6174"/>
<polygon fill="black" stroke="black" points="212.261,-45.2665 203.356,-51.008 213.898,-52.0725 212.261,-45.2665"/>
<text text-anchor="middle" x="224.1" y="-49.8" font-family="Times New Roman,serif" font-size="14.00">(</text>
</g>
<!-- 2&#45;&gt;1 -->
<g id="edge7" class="edge"><title>2&#45;&gt;1</title>
<path fill="none" stroke="black" d="M246.655,-28.6287C239.083,-25.4601 229.782,-23.217 221.6,-26 216.141,-27.8567 210.849,-30.82 206.016,-34.1772"/>
<polygon fill="black" stroke="black" points="203.632,-31.5972 197.875,-40.4917 207.922,-37.1284 203.632,-31.5972"/>
<text text-anchor="middle" x="224.1" y="-29.8" font-family="Times New Roman,serif" font-size="14.00">)</text>
</g>
</g>
</svg>
