<?xml version="1.0" encoding="UTF-8" standalone="no"?>
<!DOCTYPE svg PUBLIC "-//W3C//DTD SVG 1.1//EN"
 "http://www.w3.org/Graphics/SVG/1.1/DTD/svg11.dtd">
<!-- Generated by graphviz version 2.38.0 (20140413.2041)
 -->
<!-- Title: dfa Pages: 1 -->
<svg width="356pt" height="111pt"
 viewBox="0.00 0.00 355.60 111.00" xmlns="http://www.w3.org/2000/svg" xmlns:xlink="http://www.w3.org/1999/xlink">
<g id="graph0" class="graph" transform="scale(1 1) rotate(0) translate(4 107)">
<title>dfa</title>
<polygon fill="white" stroke="none" points="-4,4 -4,-107 351.6,-107 351.6,4 -4,4"/>
<!-- __start -->
<!-- 0 -->
<g id="node2" class="node"><title>0</title>
<ellipse fill="none" stroke="black" cx="82.6" cy="-18" rx="18" ry="18"/>
<text text-anchor="middle" x="82.6" y="-14.3" font-family="Times New Roman,serif" font-size="14.00">0</text>
</g>
<!-- __start&#45;&gt;0 -->
<g id="edge1" class="edge"><title>__start&#45;&gt;0</title>
<path fill="none" stroke="black" d="M3.68496,-18C8.69573,-18 34.008,-18 54.4423,-18"/>
<polygon fill="black" stroke="black" points="54.5501,-21.5001 64.5501,-18 54.5501,-14.5001 54.5501,-21.5001"/>
<text text-anchor="middle" x="34.1" y="-21.8" font-family="Times New Roman,serif" font-size="14.00">start</text>
</g>
<!-- 0&#45;&gt;0 -->
<g id="edge4" class="edge"><title>0&#45;&gt;0</title>
<path fill="none" stroke="black" d="M75.8664,-35.0373C74.4922,-44.8579 76.7367,-54 82.6,-54 86.2646,-54 88.5155,-50.4289 89.3529,-45.3529"/>
<polygon fill="black" stroke="black" points="92.8524,-45.0307 89.3336,-35.0373 85.8524,-45.0439 92.8524,-45.0307"/>
<text text-anchor="middle" x="82.6" y="-57.8" font-family="Times New Roman,serif" font-size="14.00">(</text>
</g>
<!-- 2 -->
<g id="node4" class="node"><title>2</title>
<ellipse fill="none" stroke="black" cx="163.6" cy="-48" rx="18" ry="18"/>
<ellipse fill="none" stroke="black" cx="163.6" cy="-48" rx="22" ry="22"/>
<text text-anchor="middle" x="163.6" y="-44.3" font-family="Times New Roman,serif" font-size="14.00">2</text>
</g>
<!-- 0&#45;&gt;2 -->
<g id="edge5" class="edge"><title>0&#45;&gt;2</title>
<path fill="none" stroke="black" d="M99.5868,-24.0709C109.211,-27.7258 121.764,-32.4926 133.13,-36.8089"/>
<polygon fill="black" stroke="black" points="132.118,-40.1685 142.71,-40.4467 134.604,-33.6245 132.118,-40.1685"/>
<text text-anchor="middle" x="121.1" y="-36.8" font-family="Times New Roman,serif" font-size="14.00">)</text>
</g>
<!-- 1 -->
<g id="node3" class="node"><title>1</title>
<ellipse fill="none" stroke="black" cx="248.6" cy="-48" rx="18" ry="18"/>
<ellipse fill="none" stroke="black" cx="248.6" cy="-48" rx="22" ry="22"/>
<text text-anchor="middle" x="248.6" y="-44.3" font-family="Times New Roman,serif" font-size="14.00">1</text>
</g>
<!-- 1&#45;&gt;1 -->
<g id="edge8" class="edge"><title>1&#45;&gt;1</title>
<path fill="none" stroke="black" d="M240.917,-68.9908C239.969,-79.0872 242.53,-88 248.6,-88 252.489,-88 254.937,-84.3422 255.946,-79.0587"/>
<polygon fill="black" stroke="black" points="259.446,-79.1023 256.283,-68.9908 252.45,-78.868 259.446,-79.1023"/>
<text text-anchor="middle" x="248.6" y="-91.8" font-family="Times New Roman,serif" font-size="14.00">(</text>
</g>
<!-- 3 -->
<g id="node5" class="node"><title>3</title>
<ellipse fill="none" stroke="black" cx="329.6" cy="-18" rx="18" ry="18"/>
<text text-anchor="middle" x="329.6" y="-14.3" font-family="Times New Roman,serif" font-size="14.00">3</text>
</g>
<!-- 1&#45;&gt;3 -->
<g id="edge9" class="edge"><title>1&#45;&gt;3</title>
<path fill="none" stroke="black" d="M269.535,-40.4297C279.754,-36.5492 292.31,-31.781 303.214,-27.6403"/>
<polygon fill="black" stroke="black" points="304.543,-30.8796 312.649,-24.0574 302.058,-24.3356 304.543,-30.8796"/>
<text text-anchor="middle" x="291.1" y="-36.8" font-family="Times New Roman,serif" font-size="14.00">)</text>
</g>
<!-- 2&#45;&gt;1 -->
<g id="edge3" class="edge"><title>2&#45;&gt;1</title>
<path fill="none" stroke="black" d="M185.975,-48C195.243,-48 206.279,-48 216.433,-48"/>
<polygon fill="black" stroke="black" points="216.585,-51.5001 226.585,-48 216.585,-44.5001 216.585,-51.5001"/>
<text text-anchor="middle" x="206.1" y="-51.8" font-family="Times New Roman,serif" font-size="14.00">)</text>
</g>
<!-- 2&#45;&gt;2 -->
<g id="edge2" class="edge"><title>2&#45;&gt;2</title>
<path fill="none" stroke="black" d="M155.917,-68.9908C154.969,-79.0872 157.53,-88 163.6,-88 167.489,-88 169.937,-84.3422 170.946,-79.0587"/>
<polygon fill="black" stroke="black" points="174.446,-79.1023 171.283,-68.9908 167.45,-78.868 174.446,-79.1023"/>
<text text-anchor="middle" x="163.6" y="-91.8" font-family="Times New Roman,serif" font-size="14.00">(</text>
</g>
<!-- 3&#45;&gt;0 -->
<g id="edge6" class="edge"><title>3&#45;&gt;0</title>
<path fill="none" stroke="black" d="M311.597,-17.6297C300.037,-17.397 284.397,-17.1189 270.6,-17 213.269,-16.5058 198.931,-16.5058 141.6,-17 131.576,-17.0864 120.578,-17.2568 110.88,-17.4328"/>
<polygon fill="black" stroke="black" points="110.534,-13.9387 100.603,-17.6297 110.668,-20.9374 110.534,-13.9387"/>
<text text-anchor="middle" x="206.1" y="-19.8" font-family="Times New Roman,serif" font-size="14.00">(</text>
</g>
<!-- 3&#45;&gt;3 -->
<g id="edge7" class="edge"><title>3&#45;&gt;3</title>
<path fill="none" stroke="black" d="M322.866,-35.0373C321.492,-44.8579 323.737,-54 329.6,-54 333.265,-54 335.516,-50.4289 336.353,-45.3529"/>
<polygon fill="black" stroke="black" points="339.852,-45.0307 336.334,-35.0373 332.852,-45.0439 339.852,-45.0307"/>
<text text-anchor="middle" x="329.6" y="-57.8" font-family="Times New Roman,serif" font-size="14.00">)</text>
</g>
</g>
</svg>
