<?xml version="1.0" encoding="UTF-8" standalone="no"?>
<!DOCTYPE svg PUBLIC "-//W3C//DTD SVG 1.1//EN"
 "http://www.w3.org/Graphics/SVG/1.1/DTD/svg11.dtd">
<!-- Generated by graphviz version 2.38.0 (20140413.2041)
 -->
<!-- Title: dfa Pages: 1 -->
<svg width="1113pt" height="354pt"
 viewBox="0.00 0.00 1113.45 354.00" xmlns="http://www.w3.org/2000/svg" xmlns:xlink="http://www.w3.org/1999/xlink">
<g id="graph0" class="graph" transform="scale(1 1) rotate(0) translate(4 350)">
<title>dfa</title>
<polygon fill="white" stroke="none" points="-4,4 -4,-350 1109.45,-350 1109.45,4 -4,4"/>
<!-- __start -->
<!-- (0,0) -->
<g id="node2" class="node"><title>(0,0)</title>
<ellipse fill="none" stroke="black" cx="92.5475" cy="-32" rx="27.8951" ry="18"/>
<text text-anchor="middle" x="92.5475" y="-28.3" font-family="Times New Roman,serif" font-size="14.00">(0,0)</text>
</g>
<!-- __start&#45;&gt;(0,0) -->
<g id="edge1" class="edge"><title>__start&#45;&gt;(0,0)</title>
<path fill="none" stroke="black" d="M3.79668,-32C8.92583,-32 32.9428,-32 54.5557,-32"/>
<polygon fill="black" stroke="black" points="54.5589,-35.5001 64.5589,-32 54.5588,-28.5001 54.5589,-35.5001"/>
<text text-anchor="middle" x="34.1" y="-35.8" font-family="Times New Roman,serif" font-size="14.00">start</text>
</g>
<!-- (2,2) -->
<g id="node5" class="node"><title>(2,2)</title>
<ellipse fill="none" stroke="black" cx="189.443" cy="-71" rx="27.8951" ry="27.8951"/>
<text text-anchor="middle" x="189.443" y="-67.3" font-family="Times New Roman,serif" font-size="14.00">(2,2)</text>
</g>
<!-- (0,0)&#45;&gt;(2,2) -->
<g id="edge19" class="edge"><title>(0,0)&#45;&gt;(2,2)</title>
<path fill="none" stroke="black" d="M116.519,-41.4408C127.686,-46.0301 141.343,-51.6431 153.745,-56.7401"/>
<polygon fill="black" stroke="black" points="152.771,-60.1237 163.351,-60.6878 155.432,-53.6492 152.771,-60.1237"/>
<text text-anchor="middle" x="140.995" y="-56.8" font-family="Times New Roman,serif" font-size="14.00">)</text>
</g>
<!-- (0,1) -->
<g id="node12" class="node"><title>(0,1)</title>
<ellipse fill="none" stroke="black" cx="980.603" cy="-147" rx="27.8951" ry="27.8951"/>
<text text-anchor="middle" x="980.603" y="-143.3" font-family="Times New Roman,serif" font-size="14.00">(0,1)</text>
</g>
<!-- (0,0)&#45;&gt;(0,1) -->
<g id="edge18" class="edge"><title>(0,0)&#45;&gt;(0,1)</title>
<path fill="none" stroke="black" d="M116.922,-22.6523C135.881,-15.9135 163.462,-8 188.443,-8 188.443,-8 188.443,-8 642.47,-8 697.826,-8 863.742,-32.6248 911.655,-62 932.279,-74.6442 949.271,-95.9052 961.104,-114"/>
<polygon fill="black" stroke="black" points="958.209,-115.97 966.492,-122.576 964.136,-112.247 958.209,-115.97"/>
<text text-anchor="middle" x="544.575" y="-11.8" font-family="Times New Roman,serif" font-size="14.00">(</text>
</g>
<!-- (2,1) -->
<g id="node3" class="node"><title>(2,1)</title>
<ellipse fill="none" stroke="black" cx="290.338" cy="-117" rx="27.9017" ry="27.9017"/>
<ellipse fill="none" stroke="black" cx="290.338" cy="-117" rx="31.8951" ry="31.8951"/>
<text text-anchor="middle" x="290.338" y="-113.3" font-family="Times New Roman,serif" font-size="14.00">(2,1)</text>
</g>
<!-- (2,1)&#45;&gt;(2,2) -->
<g id="edge2" class="edge"><title>(2,1)&#45;&gt;(2,2)</title>
<path fill="none" stroke="black" d="M260.262,-105.784C252.138,-102.477 243.356,-98.7389 235.39,-95 231.516,-93.1818 227.501,-91.1938 223.537,-89.165"/>
<polygon fill="black" stroke="black" points="224.953,-85.9553 214.47,-84.4181 221.706,-92.1569 224.953,-85.9553"/>
<text text-anchor="middle" x="237.89" y="-100.8" font-family="Times New Roman,serif" font-size="14.00">(</text>
</g>
<!-- (1,0) -->
<g id="node6" class="node"><title>(1,0)</title>
<ellipse fill="none" stroke="black" cx="391.233" cy="-140" rx="27.8951" ry="27.8951"/>
<text text-anchor="middle" x="391.233" y="-136.3" font-family="Times New Roman,serif" font-size="14.00">(1,0)</text>
</g>
<!-- (2,1)&#45;&gt;(1,0) -->
<g id="edge3" class="edge"><title>(2,1)&#45;&gt;(1,0)</title>
<path fill="none" stroke="black" d="M321.547,-124.026C331.792,-126.408 343.342,-129.095 354.007,-131.575"/>
<polygon fill="black" stroke="black" points="353.356,-135.017 363.889,-133.873 354.942,-128.199 353.356,-135.017"/>
<text text-anchor="middle" x="342.785" y="-133.8" font-family="Times New Roman,serif" font-size="14.00">)</text>
</g>
<!-- (1,1) -->
<g id="node4" class="node"><title>(1,1)</title>
<ellipse fill="none" stroke="black" cx="492.128" cy="-130" rx="27.9017" ry="27.9017"/>
<ellipse fill="none" stroke="black" cx="492.128" cy="-130" rx="31.8951" ry="31.8951"/>
<text text-anchor="middle" x="492.128" y="-126.3" font-family="Times New Roman,serif" font-size="14.00">(1,1)</text>
</g>
<!-- (1,2) -->
<g id="node8" class="node"><title>(1,2)</title>
<ellipse fill="none" stroke="black" cx="593.023" cy="-162" rx="27.8951" ry="27.8951"/>
<text text-anchor="middle" x="593.023" y="-158.3" font-family="Times New Roman,serif" font-size="14.00">(1,2)</text>
</g>
<!-- (1,1)&#45;&gt;(1,2) -->
<g id="edge8" class="edge"><title>(1,1)&#45;&gt;(1,2)</title>
<path fill="none" stroke="black" d="M524.164,-127.506C531.799,-127.724 539.852,-128.677 547.075,-131 552.49,-132.741 557.835,-135.369 562.847,-138.373"/>
<polygon fill="black" stroke="black" points="561.18,-141.467 571.449,-144.074 565.047,-135.632 561.18,-141.467"/>
<text text-anchor="middle" x="544.575" y="-134.8" font-family="Times New Roman,serif" font-size="14.00">(</text>
</g>
<!-- (3,0) -->
<g id="node9" class="node"><title>(3,0)</title>
<ellipse fill="none" stroke="black" cx="786.813" cy="-140" rx="27.8951" ry="27.8951"/>
<text text-anchor="middle" x="786.813" y="-136.3" font-family="Times New Roman,serif" font-size="14.00">(3,0)</text>
</g>
<!-- (1,1)&#45;&gt;(3,0) -->
<g id="edge9" class="edge"><title>(1,1)&#45;&gt;(3,0)</title>
<path fill="none" stroke="black" d="M523.826,-125.372C567.252,-119.595 649.004,-111.553 717.865,-121 728.514,-122.461 739.846,-125.153 750.142,-128.06"/>
<polygon fill="black" stroke="black" points="749.445,-131.504 760.028,-131.001 751.441,-124.795 749.445,-131.504"/>
<text text-anchor="middle" x="641.47" y="-120.8" font-family="Times New Roman,serif" font-size="14.00">)</text>
</g>
<!-- (2,2)&#45;&gt;(2,1) -->
<g id="edge4" class="edge"><title>(2,2)&#45;&gt;(2,1)</title>
<path fill="none" stroke="black" d="M217.61,-70.7888C225.211,-71.5032 233.322,-73.024 240.39,-76 247.273,-78.8982 253.924,-83.1108 259.987,-87.7452"/>
<polygon fill="black" stroke="black" points="257.919,-90.5758 267.859,-94.2424 262.375,-85.1773 257.919,-90.5758"/>
<text text-anchor="middle" x="237.89" y="-79.8" font-family="Times New Roman,serif" font-size="14.00">(</text>
</g>
<!-- (2,2)&#45;&gt;(1,1) -->
<g id="edge5" class="edge"><title>(2,2)&#45;&gt;(1,1)</title>
<path fill="none" stroke="black" d="M216.282,-63.063C247.316,-54.7312 300.763,-44.2229 345.285,-55 386.111,-64.8824 428.319,-88.2836 456.756,-106.34"/>
<polygon fill="black" stroke="black" points="455.189,-109.495 465.486,-111.99 458.993,-103.618 455.189,-109.495"/>
<text text-anchor="middle" x="342.785" y="-58.8" font-family="Times New Roman,serif" font-size="14.00">)</text>
</g>
<!-- (1,0)&#45;&gt;(1,1) -->
<g id="edge12" class="edge"><title>(1,0)&#45;&gt;(1,1)</title>
<path fill="none" stroke="black" d="M419.256,-137.267C428.778,-136.305 439.708,-135.199 450.122,-134.146"/>
<polygon fill="black" stroke="black" points="450.697,-137.606 460.294,-133.118 449.993,-130.642 450.697,-137.606"/>
<text text-anchor="middle" x="439.68" y="-139.8" font-family="Times New Roman,serif" font-size="14.00">(</text>
</g>
<!-- (3,2) -->
<g id="node11" class="node"><title>(3,2)</title>
<ellipse fill="none" stroke="black" cx="883.708" cy="-196" rx="27.8951" ry="27.8951"/>
<text text-anchor="middle" x="883.708" y="-192.3" font-family="Times New Roman,serif" font-size="14.00">(3,2)</text>
</g>
<!-- (1,0)&#45;&gt;(3,2) -->
<g id="edge13" class="edge"><title>(1,0)&#45;&gt;(3,2)</title>
<path fill="none" stroke="black" d="M397.826,-167.273C408.213,-209.276 434.756,-285 491.128,-285 491.128,-285 491.128,-285 787.813,-285 811.262,-285 819.386,-282.569 837.76,-268 850.144,-258.181 860.041,-243.952 867.36,-230.732"/>
<polygon fill="black" stroke="black" points="870.494,-232.292 872.015,-221.807 864.287,-229.055 870.494,-232.292"/>
<text text-anchor="middle" x="641.47" y="-288.8" font-family="Times New Roman,serif" font-size="14.00">)</text>
</g>
<!-- (2,0) -->
<g id="node7" class="node"><title>(2,0)</title>
<ellipse fill="none" stroke="black" cx="1077.5" cy="-252" rx="27.8951" ry="27.8951"/>
<text text-anchor="middle" x="1077.5" y="-248.3" font-family="Times New Roman,serif" font-size="14.00">(2,0)</text>
</g>
<!-- (2,0)&#45;&gt;(2,1) -->
<g id="edge6" class="edge"><title>(2,0)&#45;&gt;(2,1)</title>
<path fill="none" stroke="black" d="M1061.86,-275.703C1045.46,-298.973 1016.54,-331 981.603,-331 390.233,-331 390.233,-331 390.233,-331 315.368,-331 296.998,-221.744 292.611,-159.363"/>
<polygon fill="black" stroke="black" points="296.084,-158.807 291.982,-149.038 289.097,-159.232 296.084,-158.807"/>
<text text-anchor="middle" x="689.918" y="-334.8" font-family="Times New Roman,serif" font-size="14.00">(</text>
</g>
<!-- (2,0)&#45;&gt;(1,2) -->
<g id="edge7" class="edge"><title>(2,0)&#45;&gt;(1,2)</title>
<path fill="none" stroke="black" d="M1049.53,-251.72C982.292,-250.298 802.506,-242.021 661.97,-195 650.139,-191.042 637.718,-185.468 626.779,-180.026"/>
<polygon fill="black" stroke="black" points="628.095,-176.768 617.6,-175.322 624.903,-182.998 628.095,-176.768"/>
<text text-anchor="middle" x="835.26" y="-238.8" font-family="Times New Roman,serif" font-size="14.00">)</text>
</g>
<!-- (1,2)&#45;&gt;(1,1) -->
<g id="edge10" class="edge"><title>(1,2)&#45;&gt;(1,1)</title>
<path fill="none" stroke="black" d="M566.09,-153.725C558.36,-151.25 549.872,-148.523 542.075,-146 538.928,-144.982 535.668,-143.923 532.394,-142.858"/>
<polygon fill="black" stroke="black" points="533.218,-139.445 522.626,-139.674 531.048,-146.101 533.218,-139.445"/>
<text text-anchor="middle" x="544.575" y="-151.8" font-family="Times New Roman,serif" font-size="14.00">(</text>
</g>
<!-- (3,1) -->
<g id="node10" class="node"><title>(3,1)</title>
<ellipse fill="none" stroke="black" cx="689.918" cy="-158" rx="27.8951" ry="27.8951"/>
<text text-anchor="middle" x="689.918" y="-154.3" font-family="Times New Roman,serif" font-size="14.00">(3,1)</text>
</g>
<!-- (1,2)&#45;&gt;(3,1) -->
<g id="edge11" class="edge"><title>(1,2)&#45;&gt;(3,1)</title>
<path fill="none" stroke="black" d="M620.962,-160.864C630.579,-160.459 641.587,-159.995 651.903,-159.56"/>
<polygon fill="black" stroke="black" points="652.067,-163.057 661.911,-159.138 651.773,-156.063 652.067,-163.057"/>
<text text-anchor="middle" x="641.47" y="-163.8" font-family="Times New Roman,serif" font-size="14.00">)</text>
</g>
<!-- (3,0)&#45;&gt;(3,2) -->
<g id="edge25" class="edge"><title>(3,0)&#45;&gt;(3,2)</title>
<path fill="none" stroke="black" d="M811.27,-153.843C823.018,-160.775 837.429,-169.28 850.223,-176.83"/>
<polygon fill="black" stroke="black" points="848.801,-180.054 859.192,-182.122 852.358,-174.026 848.801,-180.054"/>
<text text-anchor="middle" x="835.26" y="-173.8" font-family="Times New Roman,serif" font-size="14.00">)</text>
</g>
<!-- (3,0)&#45;&gt;(0,1) -->
<g id="edge24" class="edge"><title>(3,0)&#45;&gt;(0,1)</title>
<path fill="none" stroke="black" d="M814.874,-140.782C839.965,-141.529 878.337,-142.726 911.655,-144 921.639,-144.382 932.445,-144.839 942.44,-145.28"/>
<polygon fill="black" stroke="black" points="942.347,-148.779 952.493,-145.729 942.66,-141.786 942.347,-148.779"/>
<text text-anchor="middle" x="883.708" y="-147.8" font-family="Times New Roman,serif" font-size="14.00">(</text>
</g>
<!-- (3,1)&#45;&gt;(3,0) -->
<g id="edge21" class="edge"><title>(3,1)&#45;&gt;(3,0)</title>
<path fill="none" stroke="black" d="M717.604,-152.938C727.307,-151.098 738.453,-148.983 748.885,-147.005"/>
<polygon fill="black" stroke="black" points="749.826,-150.389 758.998,-145.086 748.521,-143.511 749.826,-150.389"/>
<text text-anchor="middle" x="738.365" y="-152.8" font-family="Times New Roman,serif" font-size="14.00">)</text>
</g>
<!-- (0,2) -->
<g id="node13" class="node"><title>(0,2)</title>
<ellipse fill="none" stroke="black" cx="1077.5" cy="-100" rx="27.8951" ry="27.8951"/>
<text text-anchor="middle" x="1077.5" y="-96.3" font-family="Times New Roman,serif" font-size="14.00">(0,2)</text>
</g>
<!-- (3,1)&#45;&gt;(0,2) -->
<g id="edge20" class="edge"><title>(3,1)&#45;&gt;(0,2)</title>
<path fill="none" stroke="black" d="M710.111,-138.629C722.912,-126.738 740.676,-112.095 758.865,-103 789.773,-87.5451 799.704,-84 834.26,-84 834.26,-84 834.26,-84 981.603,-84 1001.16,-84 1022.66,-87.3438 1040.25,-90.9742"/>
<polygon fill="black" stroke="black" points="1039.59,-94.4131 1050.11,-93.1217 1041.08,-87.5735 1039.59,-94.4131"/>
<text text-anchor="middle" x="883.708" y="-87.8" font-family="Times New Roman,serif" font-size="14.00">(</text>
</g>
<!-- (3,2)&#45;&gt;(3,1) -->
<g id="edge23" class="edge"><title>(3,2)&#45;&gt;(3,1)</title>
<path fill="none" stroke="black" d="M855.993,-192.365C848.474,-191.313 840.293,-190.139 832.76,-189 799.862,-184.024 791.359,-184.158 758.865,-177 748.368,-174.688 737.084,-171.728 726.786,-168.837"/>
<polygon fill="black" stroke="black" points="727.459,-165.389 716.882,-165.995 725.528,-172.117 727.459,-165.389"/>
<text text-anchor="middle" x="786.813" y="-190.8" font-family="Times New Roman,serif" font-size="14.00">)</text>
</g>
<!-- (3,2)&#45;&gt;(0,1) -->
<g id="edge22" class="edge"><title>(3,2)&#45;&gt;(0,1)</title>
<path fill="none" stroke="black" d="M909.146,-183.381C920.436,-177.551 934.02,-170.537 946.235,-164.23"/>
<polygon fill="black" stroke="black" points="947.968,-167.274 955.248,-159.576 944.757,-161.054 947.968,-167.274"/>
<text text-anchor="middle" x="932.155" y="-175.8" font-family="Times New Roman,serif" font-size="14.00">(</text>
</g>
<!-- (0,1)&#45;&gt;(2,0) -->
<g id="edge15" class="edge"><title>(0,1)&#45;&gt;(2,0)</title>
<path fill="none" stroke="black" d="M999.9,-167.245C1014.38,-183.265 1034.77,-205.828 1050.87,-223.646"/>
<polygon fill="black" stroke="black" points="1048.63,-226.387 1057.93,-231.459 1053.83,-221.693 1048.63,-226.387"/>
<text text-anchor="middle" x="1029.05" y="-206.8" font-family="Times New Roman,serif" font-size="14.00">)</text>
</g>
<!-- (0,1)&#45;&gt;(0,2) -->
<g id="edge14" class="edge"><title>(0,1)&#45;&gt;(0,2)</title>
<path fill="none" stroke="black" d="M1008.18,-141.452C1015.93,-139.334 1024.26,-136.549 1031.55,-133 1036.9,-130.393 1042.28,-127.134 1047.36,-123.686"/>
<polygon fill="black" stroke="black" points="1049.48,-126.467 1055.56,-117.789 1045.4,-120.782 1049.48,-126.467"/>
<text text-anchor="middle" x="1029.05" y="-138.8" font-family="Times New Roman,serif" font-size="14.00">(</text>
</g>
<!-- (0,2)&#45;&gt;(2,1) -->
<g id="edge17" class="edge"><title>(0,2)&#45;&gt;(2,1)</title>
<path fill="none" stroke="black" d="M1065.72,-74.507C1051.29,-44.8795 1022.65,-0 981.603,-0 834.26,-0 834.26,-0 834.26,-0 641.379,-0 418.428,-71.4401 330.173,-102.672"/>
<polygon fill="black" stroke="black" points="328.82,-99.4392 320.579,-106.098 331.174,-106.032 328.82,-99.4392"/>
<text text-anchor="middle" x="689.918" y="-19.8" font-family="Times New Roman,serif" font-size="14.00">)</text>
</g>
<!-- (0,2)&#45;&gt;(0,1) -->
<g id="edge16" class="edge"><title>(0,2)&#45;&gt;(0,1)</title>
<path fill="none" stroke="black" d="M1049.92,-105.548C1042.17,-107.666 1033.84,-110.451 1026.55,-114 1021.2,-116.607 1015.82,-119.866 1010.75,-123.314"/>
<polygon fill="black" stroke="black" points="1008.62,-120.533 1002.54,-129.211 1012.7,-126.218 1008.62,-120.533"/>
<text text-anchor="middle" x="1029.05" y="-117.8" font-family="Times New Roman,serif" font-size="14.00">(</text>
</g>
</g>
</svg>
