<?xml version="1.0" encoding="UTF-8" standalone="no"?>
<!DOCTYPE svg PUBLIC "-//W3C//DTD SVG 1.1//EN"
 "http://www.w3.org/Graphics/SVG/1.1/DTD/svg11.dtd">
<!-- Generated by graphviz version 2.38.0 (20140413.2041)
 -->
<!-- Title: dfa Pages: 1 -->
<svg width="435pt" height="204pt"
 viewBox="0.00 0.00 434.60 204.00" xmlns="http://www.w3.org/2000/svg" xmlns:xlink="http://www.w3.org/1999/xlink">
<g id="graph0" class="graph" transform="scale(1 1) rotate(0) translate(4 200)">
<title>dfa</title>
<polygon fill="white" stroke="none" points="-4,4 -4,-200 430.6,-200 430.6,4 -4,4"/>
<!-- __start -->
<!-- 0 -->
<g id="node2" class="node"><title>0</title>
<ellipse fill="none" stroke="black" cx="82.6" cy="-115" rx="18" ry="18"/>
<text text-anchor="middle" x="82.6" y="-111.3" font-family="Times New Roman,serif" font-size="14.00">0</text>
</g>
<!-- __start&#45;&gt;0 -->
<g id="edge1" class="edge"><title>__start&#45;&gt;0</title>
<path fill="none" stroke="black" d="M3.68496,-115C8.69573,-115 34.008,-115 54.4423,-115"/>
<polygon fill="black" stroke="black" points="54.5501,-118.5 64.5501,-115 54.5501,-111.5 54.5501,-118.5"/>
<text text-anchor="middle" x="34.1" y="-118.8" font-family="Times New Roman,serif" font-size="14.00">start</text>
</g>
<!-- 1 -->
<g id="node3" class="node"><title>1</title>
<ellipse fill="none" stroke="black" cx="166.6" cy="-62" rx="18" ry="18"/>
<ellipse fill="none" stroke="black" cx="166.6" cy="-62" rx="22" ry="22"/>
<text text-anchor="middle" x="166.6" y="-58.3" font-family="Times New Roman,serif" font-size="14.00">1</text>
</g>
<!-- 0&#45;&gt;1 -->
<g id="edge9" class="edge"><title>0&#45;&gt;1</title>
<path fill="none" stroke="black" d="M98.26,-105.525C109.597,-98.1973 125.593,-87.8584 139.15,-79.0958"/>
<polygon fill="black" stroke="black" points="141.135,-81.9804 147.633,-73.6126 137.335,-76.1015 141.135,-81.9804"/>
<text text-anchor="middle" x="122.6" y="-94.8" font-family="Times New Roman,serif" font-size="14.00">q</text>
</g>
<!-- 2 -->
<g id="node4" class="node"><title>2</title>
<ellipse fill="none" stroke="black" cx="408.6" cy="-115" rx="18" ry="18"/>
<text text-anchor="middle" x="408.6" y="-111.3" font-family="Times New Roman,serif" font-size="14.00">2</text>
</g>
<!-- 0&#45;&gt;2 -->
<g id="edge8" class="edge"><title>0&#45;&gt;2</title>
<path fill="none" stroke="black" d="M92.9661,-129.976C106.437,-149.449 133.254,-181 165.6,-181 165.6,-181 165.6,-181 330.6,-181 357.472,-181 379.672,-157.541 393.219,-138.595"/>
<polygon fill="black" stroke="black" points="396.12,-140.553 398.82,-130.308 390.32,-136.633 396.12,-140.553"/>
<text text-anchor="middle" x="250.6" y="-184.8" font-family="Times New Roman,serif" font-size="14.00">v</text>
</g>
<!-- 4 -->
<g id="node6" class="node"><title>4</title>
<ellipse fill="none" stroke="black" cx="250.6" cy="-18" rx="18" ry="18"/>
<text text-anchor="middle" x="250.6" y="-14.3" font-family="Times New Roman,serif" font-size="14.00">4</text>
</g>
<!-- 1&#45;&gt;4 -->
<g id="edge10" class="edge"><title>1&#45;&gt;4</title>
<path fill="none" stroke="black" d="M186.207,-52.0157C197.805,-45.7926 212.851,-37.7192 225.374,-30.9994"/>
<polygon fill="black" stroke="black" points="227.203,-33.9901 234.36,-26.1778 223.893,-27.8219 227.203,-33.9901"/>
<text text-anchor="middle" x="210.6" y="-43.8" font-family="Times New Roman,serif" font-size="14.00">v</text>
</g>
<!-- 1&#45;&gt;4 -->
<g id="edge11" class="edge"><title>1&#45;&gt;4</title>
<path fill="none" stroke="black" d="M178.807,-43.1114C185.546,-33.6789 195.057,-23.1934 206.6,-18 211.495,-15.7975 217.033,-14.8323 222.466,-14.5831"/>
<polygon fill="black" stroke="black" points="222.5,-18.0851 232.589,-14.8491 222.684,-11.0875 222.5,-18.0851"/>
<text text-anchor="middle" x="210.6" y="-21.8" font-family="Times New Roman,serif" font-size="14.00">q</text>
</g>
<!-- 2&#45;&gt;0 -->
<g id="edge3" class="edge"><title>2&#45;&gt;0</title>
<path fill="none" stroke="black" d="M391.257,-120.078C375.792,-124.43 351.846,-130 330.6,-130 165.6,-130 165.6,-130 165.6,-130 146.724,-130 125.796,-126.106 109.808,-122.286"/>
<polygon fill="black" stroke="black" points="110.638,-118.886 100.086,-119.829 108.923,-125.673 110.638,-118.886"/>
<text text-anchor="middle" x="250.6" y="-133.8" font-family="Times New Roman,serif" font-size="14.00">q</text>
</g>
<!-- 3 -->
<g id="node5" class="node"><title>3</title>
<ellipse fill="none" stroke="black" cx="329.6" cy="-70" rx="18" ry="18"/>
<text text-anchor="middle" x="329.6" y="-66.3" font-family="Times New Roman,serif" font-size="14.00">3</text>
</g>
<!-- 2&#45;&gt;3 -->
<g id="edge2" class="edge"><title>2&#45;&gt;3</title>
<path fill="none" stroke="black" d="M401.422,-98.3312C395.907,-86.1124 386.529,-70.4148 372.6,-63 367.749,-60.4175 362.173,-59.9254 356.703,-60.5272"/>
<polygon fill="black" stroke="black" points="355.543,-57.1988 346.532,-62.7707 357.051,-64.0345 355.543,-57.1988"/>
<text text-anchor="middle" x="369.1" y="-66.8" font-family="Times New Roman,serif" font-size="14.00">v</text>
</g>
<!-- 3&#45;&gt;1 -->
<g id="edge5" class="edge"><title>3&#45;&gt;1</title>
<path fill="none" stroke="black" d="M311.48,-69.1493C284.694,-67.8183 232.469,-65.2233 198.853,-63.5529"/>
<polygon fill="black" stroke="black" points="198.809,-60.0465 188.648,-63.0459 198.462,-67.0379 198.809,-60.0465"/>
<text text-anchor="middle" x="250.6" y="-69.8" font-family="Times New Roman,serif" font-size="14.00">q</text>
</g>
<!-- 3&#45;&gt;2 -->
<g id="edge4" class="edge"><title>3&#45;&gt;2</title>
<path fill="none" stroke="black" d="M345.446,-78.6765C356.312,-85.0263 371.281,-93.7745 383.806,-101.094"/>
<polygon fill="black" stroke="black" points="382.399,-104.326 392.799,-106.35 385.931,-98.2826 382.399,-104.326"/>
<text text-anchor="middle" x="369.1" y="-96.8" font-family="Times New Roman,serif" font-size="14.00">v</text>
</g>
<!-- 4&#45;&gt;0 -->
<g id="edge7" class="edge"><title>4&#45;&gt;0</title>
<path fill="none" stroke="black" d="M233.264,-12.6261C211.332,-6.47057 171.965,0.75958 144.6,-16 118.056,-32.257 101.358,-64.8428 92.2755,-88.1914"/>
<polygon fill="black" stroke="black" points="88.8846,-87.2733 88.7362,-97.8671 95.4586,-89.6781 88.8846,-87.2733"/>
<text text-anchor="middle" x="166.6" y="-19.8" font-family="Times New Roman,serif" font-size="14.00">q</text>
</g>
<!-- 4&#45;&gt;3 -->
<g id="edge6" class="edge"><title>4&#45;&gt;3</title>
<path fill="none" stroke="black" d="M266.083,-27.7808C277.268,-35.3344 292.956,-45.929 305.819,-54.6152"/>
<polygon fill="black" stroke="black" points="303.936,-57.567 314.182,-60.2631 307.853,-51.7659 303.936,-57.567"/>
<text text-anchor="middle" x="290.1" y="-48.8" font-family="Times New Roman,serif" font-size="14.00">v</text>
</g>
</g>
</svg>
