<?xml version="1.0" encoding="UTF-8" standalone="no"?>
<!DOCTYPE svg PUBLIC "-//W3C//DTD SVG 1.1//EN"
 "http://www.w3.org/Graphics/SVG/1.1/DTD/svg11.dtd">
<!-- Generated by graphviz version 2.38.0 (20140413.2041)
 -->
<!-- Title: dfa Pages: 1 -->
<svg width="277pt" height="149pt"
 viewBox="0.00 0.00 276.60 149.03" xmlns="http://www.w3.org/2000/svg" xmlns:xlink="http://www.w3.org/1999/xlink">
<g id="graph0" class="graph" transform="scale(1 1) rotate(0) translate(4 145.033)">
<title>dfa</title>
<polygon fill="white" stroke="none" points="-4,4 -4,-145.033 272.6,-145.033 272.6,4 -4,4"/>
<!-- __start -->
<!-- 0 -->
<g id="node2" class="node"><title>0</title>
<ellipse fill="none" stroke="black" cx="82.6" cy="-38.0331" rx="18" ry="18"/>
<text text-anchor="middle" x="82.6" y="-34.3331" font-family="Times New Roman,serif" font-size="14.00">0</text>
</g>
<!-- __start&#45;&gt;0 -->
<g id="edge1" class="edge"><title>__start&#45;&gt;0</title>
<path fill="none" stroke="black" d="M3.68496,-38.0331C8.69573,-38.0331 34.008,-38.0331 54.4423,-38.0331"/>
<polygon fill="black" stroke="black" points="54.5501,-41.5332 64.5501,-38.0331 54.5501,-34.5332 54.5501,-41.5332"/>
<text text-anchor="middle" x="34.1" y="-41.8331" font-family="Times New Roman,serif" font-size="14.00">start</text>
</g>
<!-- 1 -->
<g id="node3" class="node"><title>1</title>
<ellipse fill="none" stroke="black" cx="166.6" cy="-119.033" rx="18" ry="18"/>
<ellipse fill="none" stroke="black" cx="166.6" cy="-119.033" rx="22" ry="22"/>
<text text-anchor="middle" x="166.6" y="-115.333" font-family="Times New Roman,serif" font-size="14.00">1</text>
</g>
<!-- 0&#45;&gt;1 -->
<g id="edge5" class="edge"><title>0&#45;&gt;1</title>
<path fill="none" stroke="black" d="M94.8314,-51.774C101.492,-59.6876 110.242,-69.6876 118.6,-78.0331 125.69,-85.1126 133.795,-92.4308 141.255,-98.8902"/>
<polygon fill="black" stroke="black" points="139.138,-101.685 149.018,-105.51 143.68,-96.3586 139.138,-101.685"/>
<text text-anchor="middle" x="122.6" y="-88.8331" font-family="Times New Roman,serif" font-size="14.00">q</text>
</g>
<!-- 2 -->
<g id="node4" class="node"><title>2</title>
<ellipse fill="none" stroke="black" cx="250.6" cy="-64.0331" rx="18" ry="18"/>
<text text-anchor="middle" x="250.6" y="-60.3331" font-family="Times New Roman,serif" font-size="14.00">2</text>
</g>
<!-- 0&#45;&gt;2 -->
<g id="edge4" class="edge"><title>0&#45;&gt;2</title>
<path fill="none" stroke="black" d="M100.43,-40.6692C129.14,-45.1659 187.822,-54.357 222.41,-59.7745"/>
<polygon fill="black" stroke="black" points="222.304,-63.3004 232.725,-61.3901 223.387,-56.3847 222.304,-63.3004"/>
<text text-anchor="middle" x="166.6" y="-57.8331" font-family="Times New Roman,serif" font-size="14.00">v</text>
</g>
<!-- 1&#45;&gt;2 -->
<g id="edge6" class="edge"><title>1&#45;&gt;2</title>
<path fill="none" stroke="black" d="M188.917,-119.906C197.418,-119.371 206.974,-117.591 214.6,-113.033 224.022,-107.401 231.603,-98.146 237.268,-89.1873"/>
<polygon fill="black" stroke="black" points="240.33,-90.8841 242.292,-80.4725 234.265,-87.3881 240.33,-90.8841"/>
<text text-anchor="middle" x="210.6" y="-119.833" font-family="Times New Roman,serif" font-size="14.00">v</text>
</g>
<!-- 1&#45;&gt;2 -->
<g id="edge7" class="edge"><title>1&#45;&gt;2</title>
<path fill="none" stroke="black" d="M185.393,-107.099C197.487,-98.9873 213.597,-88.1814 226.655,-79.4233"/>
<polygon fill="black" stroke="black" points="228.765,-82.2225 235.12,-73.7454 224.865,-76.409 228.765,-82.2225"/>
<text text-anchor="middle" x="210.6" y="-94.8331" font-family="Times New Roman,serif" font-size="14.00">q</text>
</g>
<!-- 2&#45;&gt;0 -->
<g id="edge2" class="edge"><title>2&#45;&gt;0</title>
<path fill="none" stroke="black" d="M236.089,-52.8287C224.36,-43.8787 206.493,-32.0356 188.6,-27.0331 162.356,-19.6961 131.181,-24.591 109.654,-29.985"/>
<polygon fill="black" stroke="black" points="108.661,-26.6277 99.9248,-32.6217 110.492,-33.384 108.661,-26.6277"/>
<text text-anchor="middle" x="166.6" y="-30.8331" font-family="Times New Roman,serif" font-size="14.00">v</text>
</g>
<!-- 2&#45;&gt;0 -->
<g id="edge3" class="edge"><title>2&#45;&gt;0</title>
<path fill="none" stroke="black" d="M239.975,-49.3929C229.383,-34.7557 210.871,-13.1503 188.6,-4.03315 160.671,7.40041 127.364,-8.10412 105.868,-21.728"/>
<polygon fill="black" stroke="black" points="103.798,-18.9015 97.4283,-27.3677 107.687,-24.7216 103.798,-18.9015"/>
<text text-anchor="middle" x="166.6" y="-7.83315" font-family="Times New Roman,serif" font-size="14.00">q</text>
</g>
</g>
</svg>
