<?xml version="1.0" encoding="UTF-8" standalone="no"?>
<!DOCTYPE svg PUBLIC "-//W3C//DTD SVG 1.1//EN"
 "http://www.w3.org/Graphics/SVG/1.1/DTD/svg11.dtd">
<!-- Generated by graphviz version 2.38.0 (20140413.2041)
 -->
<!-- Title: enfa Pages: 1 -->
<svg width="293pt" height="88pt"
 viewBox="0.00 0.00 292.60 87.59" xmlns="http://www.w3.org/2000/svg" xmlns:xlink="http://www.w3.org/1999/xlink">
<g id="graph0" class="graph" transform="scale(1 1) rotate(0) translate(4 83.5866)">
<title>enfa</title>
<polygon fill="white" stroke="none" points="-4,4 -4,-83.5866 288.6,-83.5866 288.6,4 -4,4"/>
<!-- __start -->
<!-- 0 -->
<g id="node2" class="node"><title>0</title>
<ellipse fill="none" stroke="black" cx="91.6" cy="-24.5866" rx="27" ry="18"/>
<text text-anchor="middle" x="91.6" y="-20.8866" font-family="Times New Roman,serif" font-size="14.00">0</text>
</g>
<!-- __start&#45;&gt;0 -->
<g id="edge1" class="edge"><title>__start&#45;&gt;0</title>
<path fill="none" stroke="black" d="M3.78604,-24.5866C8.86985,-24.5866 32.7092,-24.5866 54.1222,-24.5866"/>
<polygon fill="black" stroke="black" points="54.3463,-28.0867 64.3463,-24.5866 54.3463,-21.0867 54.3463,-28.0867"/>
<text text-anchor="middle" x="34.1" y="-28.3866" font-family="Times New Roman,serif" font-size="14.00">start</text>
</g>
<!-- 0&#45;&gt;0 -->
<g id="edge5" class="edge"><title>0&#45;&gt;0</title>
<path fill="none" stroke="black" d="M83.0307,-41.9965C81.4311,-51.6745 84.2875,-60.5866 91.6,-60.5866 96.1703,-60.5866 99,-57.1053 100.089,-52.1316"/>
<polygon fill="black" stroke="black" points="103.59,-52.024 100.169,-41.9965 96.5901,-51.9684 103.59,-52.024"/>
<text text-anchor="middle" x="91.6" y="-64.3866" font-family="Times New Roman,serif" font-size="14.00">h</text>
</g>
<!-- 2 -->
<g id="node4" class="node"><title>2</title>
<ellipse fill="none" stroke="black" cx="179.6" cy="-24.5866" rx="18" ry="18"/>
<text text-anchor="middle" x="179.6" y="-20.8866" font-family="Times New Roman,serif" font-size="14.00">2</text>
</g>
<!-- 0&#45;&gt;2 -->
<g id="edge4" class="edge"><title>0&#45;&gt;2</title>
<path fill="none" stroke="black" d="M112.726,-35.9713C122.019,-39.9106 133.263,-42.8373 143.6,-40.5866 147.101,-39.8244 150.671,-38.6794 154.127,-37.3455"/>
<polygon fill="black" stroke="black" points="155.68,-40.4859 163.416,-33.2468 152.854,-34.0816 155.68,-40.4859"/>
<text text-anchor="middle" x="140.1" y="-44.3866" font-family="Times New Roman,serif" font-size="14.00">h</text>
</g>
<!-- 0&#45;&gt;2 -->
<g id="edge6" class="edge"><title>0&#45;&gt;2</title>
<path fill="none" stroke="black" d="M118.537,-22.0411C126.568,-21.5273 135.448,-21.2379 143.6,-21.5866 146.159,-21.6961 148.821,-21.8504 151.482,-22.0319"/>
<polygon fill="black" stroke="black" points="151.283,-25.5271 161.529,-22.8291 151.837,-18.549 151.283,-25.5271"/>
<text text-anchor="middle" x="140.1" y="-25.3866" font-family="Times New Roman,serif" font-size="14.00">y</text>
</g>
<!-- 1 -->
<g id="node3" class="node"><title>1</title>
<ellipse fill="none" stroke="black" cx="262.6" cy="-24.5866" rx="18" ry="18"/>
<ellipse fill="none" stroke="black" cx="262.6" cy="-24.5866" rx="22" ry="22"/>
<text text-anchor="middle" x="262.6" y="-20.8866" font-family="Times New Roman,serif" font-size="14.00">1</text>
</g>
<!-- 1&#45;&gt;1 -->
<g id="edge8" class="edge"><title>1&#45;&gt;1</title>
<path fill="none" stroke="black" d="M254.917,-45.5774C253.969,-55.6739 256.53,-64.5866 262.6,-64.5866 266.489,-64.5866 268.937,-60.9288 269.946,-55.6453"/>
<polygon fill="black" stroke="black" points="273.446,-55.689 270.283,-45.5774 266.45,-55.4546 273.446,-55.689"/>
<text text-anchor="middle" x="262.6" y="-68.3866" font-family="Times New Roman,serif" font-size="14.00">h</text>
</g>
<!-- 1&#45;&gt;2 -->
<g id="edge9" class="edge"><title>1&#45;&gt;2</title>
<path fill="none" stroke="black" d="M240.543,-22.2571C232.715,-21.6431 223.756,-21.2378 215.6,-21.5866 213.041,-21.6961 210.379,-21.8504 207.718,-22.0319"/>
<polygon fill="black" stroke="black" points="207.363,-18.549 197.671,-22.8291 207.917,-25.5271 207.363,-18.549"/>
<text text-anchor="middle" x="219.1" y="-25.3866" font-family="Times New Roman,serif" font-size="14.00">h</text>
</g>
<!-- 1&#45;&gt;2 -->
<g id="edge10" class="edge"><title>1&#45;&gt;2</title>
<path fill="none" stroke="black" d="M245.983,-10.0167C237.331,-3.71043 226.207,1.58664 215.6,-1.58664 211.09,-2.936 206.622,-5.07417 202.463,-7.51579"/>
<polygon fill="black" stroke="black" points="200.357,-4.7128 193.959,-13.1571 204.227,-10.5462 200.357,-4.7128"/>
<text text-anchor="middle" x="219.1" y="-5.38664" font-family="Times New Roman,serif" font-size="14.00">y</text>
</g>
<!-- 2&#45;&gt;0 -->
<g id="edge7" class="edge"><title>2&#45;&gt;0</title>
<path fill="none" stroke="black" d="M165.241,-13.1571C159.076,-8.61477 151.402,-3.92067 143.6,-1.58664 135.039,0.974504 126.045,-1.27563 118.034,-5.20972"/>
<polygon fill="black" stroke="black" points="116.019,-2.33372 109.167,-10.4141 119.563,-8.37068 116.019,-2.33372"/>
<text text-anchor="middle" x="140.1" y="-5.38664" font-family="Times New Roman,serif" font-size="14.00">h</text>
</g>
<!-- 2&#45;&gt;1 -->
<g id="edge3" class="edge"><title>2&#45;&gt;1</title>
<path fill="none" stroke="black" d="M195.784,-33.2468C201.761,-36.1905 208.811,-39.1084 215.6,-40.5866 221.634,-41.9004 227.969,-41.1624 233.942,-39.4365"/>
<polygon fill="black" stroke="black" points="235.433,-42.6138 243.535,-35.7868 232.944,-36.0712 235.433,-42.6138"/>
<text text-anchor="middle" x="219.1" y="-44.3866" font-family="Times New Roman,serif" font-size="14.00">y</text>
</g>
<!-- 2&#45;&gt;2 -->
<g id="edge2" class="edge"><title>2&#45;&gt;2</title>
<path fill="none" stroke="black" d="M172.866,-41.6239C171.492,-51.4446 173.737,-60.5866 179.6,-60.5866 183.265,-60.5866 185.516,-57.0155 186.353,-51.9396"/>
<polygon fill="black" stroke="black" points="189.852,-51.6173 186.334,-41.6239 182.852,-51.6305 189.852,-51.6173"/>
<text text-anchor="middle" x="179.6" y="-64.3866" font-family="Times New Roman,serif" font-size="14.00">y</text>
</g>
</g>
</svg>
