<?xml version="1.0" encoding="UTF-8" standalone="no"?>
<!DOCTYPE svg PUBLIC "-//W3C//DTD SVG 1.1//EN"
 "http://www.w3.org/Graphics/SVG/1.1/DTD/svg11.dtd">
<!-- Generated by graphviz version 2.38.0 (20140413.2041)
 -->
<!-- Title: enfa Pages: 1 -->
<svg width="275pt" height="88pt"
 viewBox="0.00 0.00 274.60 87.59" xmlns="http://www.w3.org/2000/svg" xmlns:xlink="http://www.w3.org/1999/xlink">
<g id="graph0" class="graph" transform="scale(1 1) rotate(0) translate(4 83.5866)">
<title>enfa</title>
<polygon fill="white" stroke="none" points="-4,4 -4,-83.5866 270.6,-83.5866 270.6,4 -4,4"/>
<!-- __start -->
<!-- 0 -->
<g id="node2" class="node"><title>0</title>
<ellipse fill="none" stroke="black" cx="82.6" cy="-24.5866" rx="18" ry="18"/>
<text text-anchor="middle" x="82.6" y="-20.8866" font-family="Times New Roman,serif" font-size="14.00">0</text>
</g>
<!-- __start&#45;&gt;0 -->
<g id="edge1" class="edge"><title>__start&#45;&gt;0</title>
<path fill="none" stroke="black" d="M3.68496,-24.5866C8.69573,-24.5866 34.008,-24.5866 54.4423,-24.5866"/>
<polygon fill="black" stroke="black" points="54.5501,-28.0867 64.5501,-24.5866 54.5501,-21.0867 54.5501,-28.0867"/>
<text text-anchor="middle" x="34.1" y="-28.3866" font-family="Times New Roman,serif" font-size="14.00">start</text>
</g>
<!-- 0&#45;&gt;0 -->
<g id="edge5" class="edge"><title>0&#45;&gt;0</title>
<path fill="none" stroke="black" d="M75.8664,-41.6239C74.4922,-51.4446 76.7367,-60.5866 82.6,-60.5866 86.2646,-60.5866 88.5155,-57.0155 89.3529,-51.9396"/>
<polygon fill="black" stroke="black" points="92.8524,-51.6173 89.3336,-41.6239 85.8524,-51.6305 92.8524,-51.6173"/>
<text text-anchor="middle" x="82.6" y="-64.3866" font-family="Times New Roman,serif" font-size="14.00">h</text>
</g>
<!-- 2 -->
<g id="node4" class="node"><title>2</title>
<ellipse fill="none" stroke="black" cx="161.6" cy="-24.5866" rx="18" ry="18"/>
<text text-anchor="middle" x="161.6" y="-20.8866" font-family="Times New Roman,serif" font-size="14.00">2</text>
</g>
<!-- 0&#45;&gt;2 -->
<g id="edge4" class="edge"><title>0&#45;&gt;2</title>
<path fill="none" stroke="black" d="M98.7836,-33.2468C104.761,-36.1905 111.811,-39.1084 118.6,-40.5866 124.656,-41.9054 130.998,-40.8651 136.865,-38.8028"/>
<polygon fill="black" stroke="black" points="138.486,-41.9114 146.157,-34.6034 135.603,-35.5327 138.486,-41.9114"/>
<text text-anchor="middle" x="122.1" y="-44.3866" font-family="Times New Roman,serif" font-size="14.00">h</text>
</g>
<!-- 0&#45;&gt;2 -->
<g id="edge6" class="edge"><title>0&#45;&gt;2</title>
<path fill="none" stroke="black" d="M100.671,-22.8291C106.366,-22.3213 112.751,-21.8369 118.6,-21.5866 123.329,-21.3843 128.353,-21.4763 133.22,-21.7266"/>
<polygon fill="black" stroke="black" points="133.219,-25.2358 143.448,-22.4747 133.73,-18.2545 133.219,-25.2358"/>
<text text-anchor="middle" x="122.1" y="-25.3866" font-family="Times New Roman,serif" font-size="14.00">y</text>
</g>
<!-- 1 -->
<g id="node3" class="node"><title>1</title>
<ellipse fill="none" stroke="black" cx="244.6" cy="-24.5866" rx="18" ry="18"/>
<ellipse fill="none" stroke="black" cx="244.6" cy="-24.5866" rx="22" ry="22"/>
<text text-anchor="middle" x="244.6" y="-20.8866" font-family="Times New Roman,serif" font-size="14.00">1</text>
</g>
<!-- 1&#45;&gt;1 -->
<g id="edge8" class="edge"><title>1&#45;&gt;1</title>
<path fill="none" stroke="black" d="M236.917,-45.5774C235.969,-55.6739 238.53,-64.5866 244.6,-64.5866 248.489,-64.5866 250.937,-60.9288 251.946,-55.6453"/>
<polygon fill="black" stroke="black" points="255.446,-55.689 252.283,-45.5774 248.45,-55.4546 255.446,-55.689"/>
<text text-anchor="middle" x="244.6" y="-68.3866" font-family="Times New Roman,serif" font-size="14.00">h</text>
</g>
<!-- 1&#45;&gt;2 -->
<g id="edge9" class="edge"><title>1&#45;&gt;2</title>
<path fill="none" stroke="black" d="M222.543,-22.2571C214.715,-21.6431 205.756,-21.2378 197.6,-21.5866 195.041,-21.6961 192.379,-21.8504 189.718,-22.0319"/>
<polygon fill="black" stroke="black" points="189.363,-18.549 179.671,-22.8291 189.917,-25.5271 189.363,-18.549"/>
<text text-anchor="middle" x="201.1" y="-25.3866" font-family="Times New Roman,serif" font-size="14.00">h</text>
</g>
<!-- 1&#45;&gt;2 -->
<g id="edge10" class="edge"><title>1&#45;&gt;2</title>
<path fill="none" stroke="black" d="M227.983,-10.0167C219.331,-3.71043 208.207,1.58664 197.6,-1.58664 193.09,-2.936 188.622,-5.07417 184.463,-7.51579"/>
<polygon fill="black" stroke="black" points="182.357,-4.7128 175.959,-13.1571 186.227,-10.5462 182.357,-4.7128"/>
<text text-anchor="middle" x="201.1" y="-5.38664" font-family="Times New Roman,serif" font-size="14.00">y</text>
</g>
<!-- 2&#45;&gt;0 -->
<g id="edge7" class="edge"><title>2&#45;&gt;0</title>
<path fill="none" stroke="black" d="M147.241,-13.1571C141.076,-8.61477 133.402,-3.92067 125.6,-1.58664 118.263,0.608456 110.767,-1.75485 104.177,-5.68003"/>
<polygon fill="black" stroke="black" points="101.892,-3.01399 95.8529,-11.7192 106.002,-8.68 101.892,-3.01399"/>
<text text-anchor="middle" x="122.1" y="-5.38664" font-family="Times New Roman,serif" font-size="14.00">h</text>
</g>
<!-- 2&#45;&gt;1 -->
<g id="edge3" class="edge"><title>2&#45;&gt;1</title>
<path fill="none" stroke="black" d="M177.784,-33.2468C183.761,-36.1905 190.811,-39.1084 197.6,-40.5866 203.634,-41.9004 209.969,-41.1624 215.942,-39.4365"/>
<polygon fill="black" stroke="black" points="217.433,-42.6138 225.535,-35.7868 214.944,-36.0712 217.433,-42.6138"/>
<text text-anchor="middle" x="201.1" y="-44.3866" font-family="Times New Roman,serif" font-size="14.00">y</text>
</g>
<!-- 2&#45;&gt;2 -->
<g id="edge2" class="edge"><title>2&#45;&gt;2</title>
<path fill="none" stroke="black" d="M154.866,-41.6239C153.492,-51.4446 155.737,-60.5866 161.6,-60.5866 165.265,-60.5866 167.516,-57.0155 168.353,-51.9396"/>
<polygon fill="black" stroke="black" points="171.852,-51.6173 168.334,-41.6239 164.852,-51.6305 171.852,-51.6173"/>
<text text-anchor="middle" x="161.6" y="-64.3866" font-family="Times New Roman,serif" font-size="14.00">y</text>
</g>
</g>
</svg>
