<?xml version="1.0" encoding="UTF-8" standalone="no"?>
<!DOCTYPE svg PUBLIC "-//W3C//DTD SVG 1.1//EN"
 "http://www.w3.org/Graphics/SVG/1.1/DTD/svg11.dtd">
<!-- Generated by graphviz version 2.38.0 (20140413.2041)
 -->
<!-- Title: dfa Pages: 1 -->
<svg width="275pt" height="163pt"
 viewBox="0.00 0.00 274.60 163.00" xmlns="http://www.w3.org/2000/svg" xmlns:xlink="http://www.w3.org/1999/xlink">
<g id="graph0" class="graph" transform="scale(1 1) rotate(0) translate(4 159)">
<title>dfa</title>
<polygon fill="white" stroke="none" points="-4,4 -4,-159 270.6,-159 270.6,4 -4,4"/>
<!-- __start -->
<!-- 0 -->
<g id="node2" class="node"><title>0</title>
<ellipse fill="none" stroke="black" cx="82.6" cy="-67" rx="18" ry="18"/>
<text text-anchor="middle" x="82.6" y="-63.3" font-family="Times New Roman,serif" font-size="14.00">0</text>
</g>
<!-- __start&#45;&gt;0 -->
<g id="edge1" class="edge"><title>__start&#45;&gt;0</title>
<path fill="none" stroke="black" d="M3.68496,-67C8.69573,-67 34.008,-67 54.4423,-67"/>
<polygon fill="black" stroke="black" points="54.5501,-70.5001 64.5501,-67 54.5501,-63.5001 54.5501,-70.5001"/>
<text text-anchor="middle" x="34.1" y="-70.8" font-family="Times New Roman,serif" font-size="14.00">start</text>
</g>
<!-- 2 -->
<g id="node4" class="node"><title>2</title>
<ellipse fill="none" stroke="black" cx="161.6" cy="-105" rx="18" ry="18"/>
<text text-anchor="middle" x="161.6" y="-101.3" font-family="Times New Roman,serif" font-size="14.00">2</text>
</g>
<!-- 0&#45;&gt;2 -->
<g id="edge2" class="edge"><title>0&#45;&gt;2</title>
<path fill="none" stroke="black" d="M99.1821,-74.6899C109.723,-79.892 123.868,-86.8727 135.927,-92.8235"/>
<polygon fill="black" stroke="black" points="134.525,-96.0346 145.041,-97.3216 137.623,-89.7574 134.525,-96.0346"/>
<text text-anchor="middle" x="122.1" y="-90.8" font-family="Times New Roman,serif" font-size="14.00">y</text>
</g>
<!-- 3 -->
<g id="node5" class="node"><title>3</title>
<ellipse fill="none" stroke="black" cx="161.6" cy="-18" rx="18" ry="18"/>
<text text-anchor="middle" x="161.6" y="-14.3" font-family="Times New Roman,serif" font-size="14.00">3</text>
</g>
<!-- 0&#45;&gt;3 -->
<g id="edge3" class="edge"><title>0&#45;&gt;3</title>
<path fill="none" stroke="black" d="M97.7654,-56.9819C104.08,-52.5955 111.648,-47.446 118.6,-43 124.417,-39.2796 130.78,-35.3984 136.754,-31.8344"/>
<polygon fill="black" stroke="black" points="138.852,-34.6601 145.686,-26.564 135.295,-28.6313 138.852,-34.6601"/>
<text text-anchor="middle" x="122.1" y="-46.8" font-family="Times New Roman,serif" font-size="14.00">h</text>
</g>
<!-- 1 -->
<g id="node3" class="node"><title>1</title>
<ellipse fill="none" stroke="black" cx="244.6" cy="-67" rx="18" ry="18"/>
<ellipse fill="none" stroke="black" cx="244.6" cy="-67" rx="22" ry="22"/>
<text text-anchor="middle" x="244.6" y="-63.3" font-family="Times New Roman,serif" font-size="14.00">1</text>
</g>
<!-- 1&#45;&gt;1 -->
<g id="edge6" class="edge"><title>1&#45;&gt;1</title>
<path fill="none" stroke="black" d="M240.724,-88.8066C240.355,-98.5625 241.647,-107 244.6,-107 246.446,-107 247.643,-103.704 248.19,-98.8504"/>
<polygon fill="black" stroke="black" points="251.69,-98.9021 248.476,-88.8066 244.693,-98.7031 251.69,-98.9021"/>
<text text-anchor="middle" x="244.6" y="-110.8" font-family="Times New Roman,serif" font-size="14.00">y</text>
</g>
<!-- 1&#45;&gt;1 -->
<g id="edge7" class="edge"><title>1&#45;&gt;1</title>
<path fill="none" stroke="black" d="M237.975,-88.1143C235.05,-106.096 237.258,-125 244.6,-125 250.565,-125 253.141,-112.52 252.329,-98.1954"/>
<polygon fill="black" stroke="black" points="255.793,-97.6738 251.225,-88.1143 248.834,-98.4359 255.793,-97.6738"/>
<text text-anchor="middle" x="244.6" y="-128.8" font-family="Times New Roman,serif" font-size="14.00">h</text>
</g>
<!-- 2&#45;&gt;0 -->
<g id="edge5" class="edge"><title>2&#45;&gt;0</title>
<path fill="none" stroke="black" d="M151.727,-89.4798C145.651,-80.5106 136.692,-70.0331 125.6,-65 120.943,-62.8866 115.689,-62.0798 110.513,-62.0227"/>
<polygon fill="black" stroke="black" points="109.934,-58.5558 100.218,-62.7801 110.448,-65.5369 109.934,-58.5558"/>
<text text-anchor="middle" x="122.1" y="-68.8" font-family="Times New Roman,serif" font-size="14.00">h</text>
</g>
<!-- 2&#45;&gt;1 -->
<g id="edge4" class="edge"><title>2&#45;&gt;1</title>
<path fill="none" stroke="black" d="M178.218,-97.6732C188.695,-92.7579 202.8,-86.1409 215.226,-80.3111"/>
<polygon fill="black" stroke="black" points="216.748,-83.4635 224.314,-76.0476 213.774,-77.1263 216.748,-83.4635"/>
<text text-anchor="middle" x="201.1" y="-91.8" font-family="Times New Roman,serif" font-size="14.00">y</text>
</g>
<!-- 3&#45;&gt;1 -->
<g id="edge8" class="edge"><title>3&#45;&gt;1</title>
<path fill="none" stroke="black" d="M177.457,-26.9874C188.441,-33.6321 203.7,-42.8629 216.794,-50.7842"/>
<polygon fill="black" stroke="black" points="215.067,-53.8297 225.435,-56.0111 218.69,-47.8403 215.067,-53.8297"/>
<text text-anchor="middle" x="201.1" y="-45.8" font-family="Times New Roman,serif" font-size="14.00">y</text>
</g>
<!-- 3&#45;&gt;3 -->
<g id="edge9" class="edge"><title>3&#45;&gt;3</title>
<path fill="none" stroke="black" d="M154.866,-35.0373C153.492,-44.8579 155.737,-54 161.6,-54 165.265,-54 167.516,-50.4289 168.353,-45.3529"/>
<polygon fill="black" stroke="black" points="171.852,-45.0307 168.334,-35.0373 164.852,-45.0439 171.852,-45.0307"/>
<text text-anchor="middle" x="161.6" y="-57.8" font-family="Times New Roman,serif" font-size="14.00">h</text>
</g>
</g>
</svg>
