<?xml version="1.0" encoding="UTF-8" standalone="no"?>
<!DOCTYPE svg PUBLIC "-//W3C//DTD SVG 1.1//EN"
 "http://www.w3.org/Graphics/SVG/1.1/DTD/svg11.dtd">
<!-- Generated by graphviz version 2.38.0 (20140413.2041)
 -->
<!-- Title: dfa Pages: 1 -->
<svg width="293pt" height="163pt"
 viewBox="0.00 0.00 292.60 163.00" xmlns="http://www.w3.org/2000/svg" xmlns:xlink="http://www.w3.org/1999/xlink">
<g id="graph0" class="graph" transform="scale(1 1) rotate(0) translate(4 159)">
<title>dfa</title>
<polygon fill="white" stroke="none" points="-4,4 -4,-159 288.6,-159 288.6,4 -4,4"/>
<!-- __start -->
<!-- 0 -->
<g id="node2" class="node"><title>0</title>
<ellipse fill="none" stroke="black" cx="91.6" cy="-67" rx="27" ry="18"/>
<text text-anchor="middle" x="91.6" y="-63.3" font-family="Times New Roman,serif" font-size="14.00">0</text>
</g>
<!-- __start&#45;&gt;0 -->
<g id="edge1" class="edge"><title>__start&#45;&gt;0</title>
<path fill="none" stroke="black" d="M3.78604,-67C8.86985,-67 32.7092,-67 54.1222,-67"/>
<polygon fill="black" stroke="black" points="54.3463,-70.5001 64.3463,-67 54.3463,-63.5001 54.3463,-70.5001"/>
<text text-anchor="middle" x="34.1" y="-70.8" font-family="Times New Roman,serif" font-size="14.00">start</text>
</g>
<!-- 2 -->
<g id="node4" class="node"><title>2</title>
<ellipse fill="none" stroke="black" cx="179.6" cy="-105" rx="18" ry="18"/>
<text text-anchor="middle" x="179.6" y="-101.3" font-family="Times New Roman,serif" font-size="14.00">2</text>
</g>
<!-- 0&#45;&gt;2 -->
<g id="edge2" class="edge"><title>0&#45;&gt;2</title>
<path fill="none" stroke="black" d="M114.747,-76.7859C126.607,-82.0262 141.259,-88.5003 153.535,-93.9246"/>
<polygon fill="black" stroke="black" points="152.21,-97.1657 162.771,-98.006 155.039,-90.7629 152.21,-97.1657"/>
<text text-anchor="middle" x="140.1" y="-92.8" font-family="Times New Roman,serif" font-size="14.00">y</text>
</g>
<!-- 3 -->
<g id="node5" class="node"><title>3</title>
<ellipse fill="none" stroke="black" cx="179.6" cy="-18" rx="18" ry="18"/>
<text text-anchor="middle" x="179.6" y="-14.3" font-family="Times New Roman,serif" font-size="14.00">3</text>
</g>
<!-- 0&#45;&gt;3 -->
<g id="edge3" class="edge"><title>0&#45;&gt;3</title>
<path fill="none" stroke="black" d="M112.546,-55.6353C125.084,-48.4918 141.334,-39.2332 154.578,-31.6868"/>
<polygon fill="black" stroke="black" points="156.639,-34.5407 163.595,-26.5492 153.174,-28.4587 156.639,-34.5407"/>
<text text-anchor="middle" x="140.1" y="-44.8" font-family="Times New Roman,serif" font-size="14.00">h</text>
</g>
<!-- 1 -->
<g id="node3" class="node"><title>1</title>
<ellipse fill="none" stroke="black" cx="262.6" cy="-67" rx="18" ry="18"/>
<ellipse fill="none" stroke="black" cx="262.6" cy="-67" rx="22" ry="22"/>
<text text-anchor="middle" x="262.6" y="-63.3" font-family="Times New Roman,serif" font-size="14.00">1</text>
</g>
<!-- 1&#45;&gt;1 -->
<g id="edge6" class="edge"><title>1&#45;&gt;1</title>
<path fill="none" stroke="black" d="M258.724,-88.8066C258.355,-98.5625 259.647,-107 262.6,-107 264.446,-107 265.643,-103.704 266.19,-98.8504"/>
<polygon fill="black" stroke="black" points="269.69,-98.9021 266.476,-88.8066 262.693,-98.7031 269.69,-98.9021"/>
<text text-anchor="middle" x="262.6" y="-110.8" font-family="Times New Roman,serif" font-size="14.00">y</text>
</g>
<!-- 1&#45;&gt;1 -->
<g id="edge7" class="edge"><title>1&#45;&gt;1</title>
<path fill="none" stroke="black" d="M255.975,-88.1143C253.05,-106.096 255.258,-125 262.6,-125 268.565,-125 271.141,-112.52 270.329,-98.1954"/>
<polygon fill="black" stroke="black" points="273.793,-97.6738 269.225,-88.1143 266.834,-98.4359 273.793,-97.6738"/>
<text text-anchor="middle" x="262.6" y="-128.8" font-family="Times New Roman,serif" font-size="14.00">h</text>
</g>
<!-- 2&#45;&gt;0 -->
<g id="edge5" class="edge"><title>2&#45;&gt;0</title>
<path fill="none" stroke="black" d="M169.15,-90.3124C162.974,-82.1179 154.113,-72.6492 143.6,-68 138.862,-65.9046 133.626,-64.7147 128.368,-64.1258"/>
<polygon fill="black" stroke="black" points="128.505,-60.6285 118.352,-63.654 128.176,-67.6207 128.505,-60.6285"/>
<text text-anchor="middle" x="140.1" y="-71.8" font-family="Times New Roman,serif" font-size="14.00">h</text>
</g>
<!-- 2&#45;&gt;1 -->
<g id="edge4" class="edge"><title>2&#45;&gt;1</title>
<path fill="none" stroke="black" d="M196.218,-97.6732C206.695,-92.7579 220.8,-86.1409 233.226,-80.3111"/>
<polygon fill="black" stroke="black" points="234.748,-83.4635 242.314,-76.0476 231.774,-77.1263 234.748,-83.4635"/>
<text text-anchor="middle" x="219.1" y="-91.8" font-family="Times New Roman,serif" font-size="14.00">y</text>
</g>
<!-- 3&#45;&gt;1 -->
<g id="edge8" class="edge"><title>3&#45;&gt;1</title>
<path fill="none" stroke="black" d="M195.457,-26.9874C206.441,-33.6321 221.7,-42.8629 234.794,-50.7842"/>
<polygon fill="black" stroke="black" points="233.067,-53.8297 243.435,-56.0111 236.69,-47.8403 233.067,-53.8297"/>
<text text-anchor="middle" x="219.1" y="-45.8" font-family="Times New Roman,serif" font-size="14.00">y</text>
</g>
<!-- 3&#45;&gt;3 -->
<g id="edge9" class="edge"><title>3&#45;&gt;3</title>
<path fill="none" stroke="black" d="M172.866,-35.0373C171.492,-44.8579 173.737,-54 179.6,-54 183.265,-54 185.516,-50.4289 186.353,-45.3529"/>
<polygon fill="black" stroke="black" points="189.852,-45.0307 186.334,-35.0373 182.852,-45.0439 189.852,-45.0307"/>
<text text-anchor="middle" x="179.6" y="-57.8" font-family="Times New Roman,serif" font-size="14.00">h</text>
</g>
</g>
</svg>
