<?xml version="1.0" encoding="UTF-8" standalone="no"?>
<!DOCTYPE svg PUBLIC "-//W3C//DTD SVG 1.1//EN"
 "http://www.w3.org/Graphics/SVG/1.1/DTD/svg11.dtd">
<!-- Generated by graphviz version 2.38.0 (20140413.2041)
 -->
<!-- Title: dfa Pages: 1 -->
<svg width="469pt" height="174pt"
 viewBox="0.00 0.00 469.18 174.24" xmlns="http://www.w3.org/2000/svg" xmlns:xlink="http://www.w3.org/1999/xlink">
<g id="graph0" class="graph" transform="scale(1 1) rotate(0) translate(4 170.244)">
<title>dfa</title>
<polygon fill="white" stroke="none" points="-4,4 -4,-170.244 465.182,-170.244 465.182,4 -4,4"/>
<!-- __start -->
<!-- {0} -->
<g id="node2" class="node"><title>{0}</title>
<ellipse fill="none" stroke="black" cx="91.6" cy="-98.5473" rx="27" ry="18"/>
<text text-anchor="middle" x="91.6" y="-94.8473" font-family="Times New Roman,serif" font-size="14.00">{0}</text>
</g>
<!-- __start&#45;&gt;{0} -->
<g id="edge1" class="edge"><title>__start&#45;&gt;{0}</title>
<path fill="none" stroke="black" d="M3.78604,-98.5473C8.86985,-98.5473 32.7092,-98.5473 54.1222,-98.5473"/>
<polygon fill="black" stroke="black" points="54.3463,-102.047 64.3463,-98.5473 54.3463,-95.0474 54.3463,-102.047"/>
<text text-anchor="middle" x="34.1" y="-102.347" font-family="Times New Roman,serif" font-size="14.00">start</text>
</g>
<!-- {2} -->
<g id="node5" class="node"><title>{2}</title>
<ellipse fill="none" stroke="black" cx="192.147" cy="-136.547" rx="24.0958" ry="24.0958"/>
<text text-anchor="middle" x="192.147" y="-132.847" font-family="Times New Roman,serif" font-size="14.00">{2}</text>
</g>
<!-- {0}&#45;&gt;{2} -->
<g id="edge2" class="edge"><title>{0}&#45;&gt;{2}</title>
<path fill="none" stroke="black" d="M115.456,-107.361C128.669,-112.456 145.48,-118.938 159.901,-124.499"/>
<polygon fill="black" stroke="black" points="158.84,-127.841 169.429,-128.173 161.358,-121.309 158.84,-127.841"/>
<text text-anchor="middle" x="140.1" y="-121.347" font-family="Times New Roman,serif" font-size="14.00">y</text>
</g>
<!-- {0,2} -->
<g id="node6" class="node"><title>{0,2}</title>
<ellipse fill="none" stroke="black" cx="192.147" cy="-30.5473" rx="30.5947" ry="30.5947"/>
<text text-anchor="middle" x="192.147" y="-26.8473" font-family="Times New Roman,serif" font-size="14.00">{0,2}</text>
</g>
<!-- {0}&#45;&gt;{0,2} -->
<g id="edge3" class="edge"><title>{0}&#45;&gt;{0,2}</title>
<path fill="none" stroke="black" d="M111.136,-85.757C124.308,-76.6679 142.36,-64.2118 157.984,-53.4311"/>
<polygon fill="black" stroke="black" points="160.124,-56.2064 166.367,-47.6462 156.149,-50.4449 160.124,-56.2064"/>
<text text-anchor="middle" x="140.1" y="-71.3473" font-family="Times New Roman,serif" font-size="14.00">h</text>
</g>
<!-- {1,2} -->
<g id="node3" class="node"><title>{1,2}</title>
<ellipse fill="none" stroke="black" cx="300.242" cy="-91.5473" rx="30.5892" ry="30.5892"/>
<ellipse fill="none" stroke="black" cx="300.242" cy="-91.5473" rx="34.5946" ry="34.5946"/>
<text text-anchor="middle" x="300.242" y="-87.8473" font-family="Times New Roman,serif" font-size="14.00">{1,2}</text>
</g>
<!-- {1,2}&#45;&gt;{1,2} -->
<g id="edge6" class="edge"><title>{1,2}&#45;&gt;{1,2}</title>
<path fill="none" stroke="black" d="M289.743,-124.646C289.797,-135.473 293.297,-144.095 300.242,-144.095 304.8,-144.095 307.874,-140.382 309.464,-134.769"/>
<polygon fill="black" stroke="black" points="312.962,-135.005 310.741,-124.646 306.017,-134.129 312.962,-135.005"/>
<text text-anchor="middle" x="300.242" y="-147.895" font-family="Times New Roman,serif" font-size="14.00">y</text>
</g>
<!-- {0,1,2} -->
<g id="node4" class="node"><title>{0,1,2}</title>
<ellipse fill="none" stroke="black" cx="419.486" cy="-91.5473" rx="37.8753" ry="37.8753"/>
<ellipse fill="none" stroke="black" cx="419.486" cy="-91.5473" rx="41.8942" ry="41.8942"/>
<text text-anchor="middle" x="419.486" y="-87.8473" font-family="Times New Roman,serif" font-size="14.00">{0,1,2}</text>
</g>
<!-- {1,2}&#45;&gt;{0,1,2} -->
<g id="edge7" class="edge"><title>{1,2}&#45;&gt;{0,1,2}</title>
<path fill="none" stroke="black" d="M334.839,-91.5473C344.89,-91.5473 356.149,-91.5473 367.069,-91.5473"/>
<polygon fill="black" stroke="black" points="367.384,-95.0474 377.384,-91.5473 367.384,-88.0474 367.384,-95.0474"/>
<text text-anchor="middle" x="356.289" y="-95.3473" font-family="Times New Roman,serif" font-size="14.00">h</text>
</g>
<!-- {0,1,2}&#45;&gt;{1,2} -->
<g id="edge10" class="edge"><title>{0,1,2}&#45;&gt;{1,2}</title>
<path fill="none" stroke="black" d="M381.286,-74.5882C372.062,-72.1086 362.14,-70.8788 352.789,-72.5473 349.148,-73.197 345.427,-74.0859 341.734,-75.1266"/>
<polygon fill="black" stroke="black" points="340.575,-71.822 332.097,-78.176 342.687,-78.4958 340.575,-71.822"/>
<text text-anchor="middle" x="356.289" y="-76.3473" font-family="Times New Roman,serif" font-size="14.00">y</text>
</g>
<!-- {0,1,2}&#45;&gt;{0,1,2} -->
<g id="edge11" class="edge"><title>{0,1,2}&#45;&gt;{0,1,2}</title>
<path fill="none" stroke="black" d="M407.932,-131.723C408.49,-142.788 412.341,-151.244 419.486,-151.244 424.174,-151.244 427.445,-147.602 429.297,-141.972"/>
<polygon fill="black" stroke="black" points="432.814,-142.169 431.04,-131.723 425.913,-140.995 432.814,-142.169"/>
<text text-anchor="middle" x="419.486" y="-155.044" font-family="Times New Roman,serif" font-size="14.00">h</text>
</g>
<!-- {2}&#45;&gt;{0} -->
<g id="edge5" class="edge"><title>{2}&#45;&gt;{0}</title>
<path fill="none" stroke="black" d="M175.362,-118.875C166.865,-110.701 155.663,-101.862 143.6,-97.5473 138.722,-95.8026 133.41,-94.9075 128.117,-94.5649"/>
<polygon fill="black" stroke="black" points="128.102,-91.0648 118.082,-94.5086 128.063,-98.0647 128.102,-91.0648"/>
<text text-anchor="middle" x="140.1" y="-101.347" font-family="Times New Roman,serif" font-size="14.00">h</text>
</g>
<!-- {2}&#45;&gt;{1,2} -->
<g id="edge4" class="edge"><title>{2}&#45;&gt;{1,2}</title>
<path fill="none" stroke="black" d="M214.617,-127.441C227.233,-122.09 243.596,-115.15 258.566,-108.8"/>
<polygon fill="black" stroke="black" points="260.31,-111.862 268.149,-104.735 257.576,-105.418 260.31,-111.862"/>
<text text-anchor="middle" x="244.195" y="-119.347" font-family="Times New Roman,serif" font-size="14.00">y</text>
</g>
<!-- {0,2}&#45;&gt;{1,2} -->
<g id="edge8" class="edge"><title>{0,2}&#45;&gt;{1,2}</title>
<path fill="none" stroke="black" d="M219.101,-45.4696C231.682,-52.703 247.042,-61.5343 260.936,-69.5229"/>
<polygon fill="black" stroke="black" points="259.397,-72.6754 269.811,-74.6256 262.886,-66.6069 259.397,-72.6754"/>
<text text-anchor="middle" x="244.195" y="-65.3473" font-family="Times New Roman,serif" font-size="14.00">y</text>
</g>
<!-- {0,2}&#45;&gt;{0,2} -->
<g id="edge9" class="edge"><title>{0,2}&#45;&gt;{0,2}</title>
<path fill="none" stroke="black" d="M182.407,-59.9354C182.197,-70.4898 185.444,-79.0946 192.147,-79.0946 196.441,-79.0946 199.317,-75.5632 200.774,-70.2501"/>
<polygon fill="black" stroke="black" points="204.294,-70.2533 201.888,-59.9354 197.335,-69.5021 204.294,-70.2533"/>
<text text-anchor="middle" x="192.147" y="-82.8946" font-family="Times New Roman,serif" font-size="14.00">h</text>
</g>
</g>
</svg>
