<?xml version="1.0" encoding="UTF-8" standalone="no"?>
<!DOCTYPE svg PUBLIC "-//W3C//DTD SVG 1.1//EN"
 "http://www.w3.org/Graphics/SVG/1.1/DTD/svg11.dtd">
<!-- Generated by graphviz version 2.38.0 (20140413.2041)
 -->
<!-- Title: dfa Pages: 1 -->
<svg width="463pt" height="174pt"
 viewBox="0.00 0.00 463.28 174.24" xmlns="http://www.w3.org/2000/svg" xmlns:xlink="http://www.w3.org/1999/xlink">
<g id="graph0" class="graph" transform="scale(1 1) rotate(0) translate(4 170.244)">
<title>dfa</title>
<polygon fill="white" stroke="none" points="-4,4 -4,-170.244 459.278,-170.244 459.278,4 -4,4"/>
<!-- __start -->
<!-- {0} -->
<g id="node2" class="node"><title>{0}</title>
<ellipse fill="none" stroke="black" cx="88.6479" cy="-98.5473" rx="24.0958" ry="24.0958"/>
<text text-anchor="middle" x="88.6479" y="-94.8473" font-family="Times New Roman,serif" font-size="14.00">{0}</text>
</g>
<!-- __start&#45;&gt;{0} -->
<g id="edge1" class="edge"><title>__start&#45;&gt;{0}</title>
<path fill="none" stroke="black" d="M3.75288,-98.5473C8.82222,-98.5473 33.1893,-98.5473 54.3658,-98.5473"/>
<polygon fill="black" stroke="black" points="54.4068,-102.047 64.4067,-98.5473 54.4067,-95.0474 54.4068,-102.047"/>
<text text-anchor="middle" x="34.1" y="-102.347" font-family="Times New Roman,serif" font-size="14.00">start</text>
</g>
<!-- {2} -->
<g id="node5" class="node"><title>{2}</title>
<ellipse fill="none" stroke="black" cx="186.243" cy="-136.547" rx="24.0958" ry="24.0958"/>
<text text-anchor="middle" x="186.243" y="-132.847" font-family="Times New Roman,serif" font-size="14.00">{2}</text>
</g>
<!-- {0}&#45;&gt;{2} -->
<g id="edge2" class="edge"><title>{0}&#45;&gt;{2}</title>
<path fill="none" stroke="black" d="M111.34,-107.17C123.929,-112.174 140.003,-118.564 153.944,-124.106"/>
<polygon fill="black" stroke="black" points="153.051,-127.517 163.637,-127.959 155.637,-121.012 153.051,-127.517"/>
<text text-anchor="middle" x="134.196" y="-121.347" font-family="Times New Roman,serif" font-size="14.00">y</text>
</g>
<!-- {0,2} -->
<g id="node6" class="node"><title>{0,2}</title>
<ellipse fill="none" stroke="black" cx="186.243" cy="-30.5473" rx="30.5947" ry="30.5947"/>
<text text-anchor="middle" x="186.243" y="-26.8473" font-family="Times New Roman,serif" font-size="14.00">{0,2}</text>
</g>
<!-- {0}&#45;&gt;{0,2} -->
<g id="edge3" class="edge"><title>{0}&#45;&gt;{0,2}</title>
<path fill="none" stroke="black" d="M108.993,-84.7865C121.489,-75.8976 138.065,-64.1069 152.569,-53.7896"/>
<polygon fill="black" stroke="black" points="154.703,-56.5668 160.823,-47.9183 150.645,-50.8627 154.703,-56.5668"/>
<text text-anchor="middle" x="134.196" y="-73.3473" font-family="Times New Roman,serif" font-size="14.00">h</text>
</g>
<!-- {1,2} -->
<g id="node3" class="node"><title>{1,2}</title>
<ellipse fill="none" stroke="black" cx="294.338" cy="-91.5473" rx="30.5892" ry="30.5892"/>
<ellipse fill="none" stroke="black" cx="294.338" cy="-91.5473" rx="34.5946" ry="34.5946"/>
<text text-anchor="middle" x="294.338" y="-87.8473" font-family="Times New Roman,serif" font-size="14.00">{1,2}</text>
</g>
<!-- {1,2}&#45;&gt;{1,2} -->
<g id="edge6" class="edge"><title>{1,2}&#45;&gt;{1,2}</title>
<path fill="none" stroke="black" d="M283.838,-124.646C283.893,-135.473 287.392,-144.095 294.338,-144.095 298.895,-144.095 301.969,-140.382 303.56,-134.769"/>
<polygon fill="black" stroke="black" points="307.057,-135.005 304.837,-124.646 300.113,-134.129 307.057,-135.005"/>
<text text-anchor="middle" x="294.338" y="-147.895" font-family="Times New Roman,serif" font-size="14.00">y</text>
</g>
<!-- {0,1,2} -->
<g id="node4" class="node"><title>{0,1,2}</title>
<ellipse fill="none" stroke="black" cx="413.582" cy="-91.5473" rx="37.8753" ry="37.8753"/>
<ellipse fill="none" stroke="black" cx="413.582" cy="-91.5473" rx="41.8942" ry="41.8942"/>
<text text-anchor="middle" x="413.582" y="-87.8473" font-family="Times New Roman,serif" font-size="14.00">{0,1,2}</text>
</g>
<!-- {1,2}&#45;&gt;{0,1,2} -->
<g id="edge7" class="edge"><title>{1,2}&#45;&gt;{0,1,2}</title>
<path fill="none" stroke="black" d="M328.935,-91.5473C338.986,-91.5473 350.244,-91.5473 361.165,-91.5473"/>
<polygon fill="black" stroke="black" points="361.48,-95.0474 371.48,-91.5473 361.48,-88.0474 361.48,-95.0474"/>
<text text-anchor="middle" x="350.385" y="-95.3473" font-family="Times New Roman,serif" font-size="14.00">h</text>
</g>
<!-- {0,1,2}&#45;&gt;{1,2} -->
<g id="edge10" class="edge"><title>{0,1,2}&#45;&gt;{1,2}</title>
<path fill="none" stroke="black" d="M375.381,-74.5882C366.158,-72.1086 356.236,-70.8788 346.885,-72.5473 343.244,-73.197 339.522,-74.0859 335.829,-75.1266"/>
<polygon fill="black" stroke="black" points="334.671,-71.822 326.193,-78.176 336.783,-78.4958 334.671,-71.822"/>
<text text-anchor="middle" x="350.385" y="-76.3473" font-family="Times New Roman,serif" font-size="14.00">y</text>
</g>
<!-- {0,1,2}&#45;&gt;{0,1,2} -->
<g id="edge11" class="edge"><title>{0,1,2}&#45;&gt;{0,1,2}</title>
<path fill="none" stroke="black" d="M402.027,-131.723C402.586,-142.788 406.437,-151.244 413.582,-151.244 418.27,-151.244 421.54,-147.602 423.393,-141.972"/>
<polygon fill="black" stroke="black" points="426.909,-142.169 425.136,-131.723 420.008,-140.995 426.909,-142.169"/>
<text text-anchor="middle" x="413.582" y="-155.044" font-family="Times New Roman,serif" font-size="14.00">h</text>
</g>
<!-- {2}&#45;&gt;{0} -->
<g id="edge5" class="edge"><title>{2}&#45;&gt;{0}</title>
<path fill="none" stroke="black" d="M169.962,-118.848C161.438,-110.352 150.06,-101.056 137.696,-96.5473 133.039,-94.8489 127.957,-94.0459 122.899,-93.8143"/>
<polygon fill="black" stroke="black" points="122.612,-90.3197 112.691,-94.0378 122.765,-97.318 122.612,-90.3197"/>
<text text-anchor="middle" x="134.196" y="-100.347" font-family="Times New Roman,serif" font-size="14.00">h</text>
</g>
<!-- {2}&#45;&gt;{1,2} -->
<g id="edge4" class="edge"><title>{2}&#45;&gt;{1,2}</title>
<path fill="none" stroke="black" d="M208.713,-127.441C221.329,-122.09 237.691,-115.15 252.662,-108.8"/>
<polygon fill="black" stroke="black" points="254.405,-111.862 262.245,-104.735 251.672,-105.418 254.405,-111.862"/>
<text text-anchor="middle" x="238.29" y="-119.347" font-family="Times New Roman,serif" font-size="14.00">y</text>
</g>
<!-- {0,2}&#45;&gt;{1,2} -->
<g id="edge8" class="edge"><title>{0,2}&#45;&gt;{1,2}</title>
<path fill="none" stroke="black" d="M213.197,-45.4696C225.777,-52.703 241.137,-61.5343 255.032,-69.5229"/>
<polygon fill="black" stroke="black" points="253.493,-72.6754 263.907,-74.6256 256.982,-66.6069 253.493,-72.6754"/>
<text text-anchor="middle" x="238.29" y="-65.3473" font-family="Times New Roman,serif" font-size="14.00">y</text>
</g>
<!-- {0,2}&#45;&gt;{0,2} -->
<g id="edge9" class="edge"><title>{0,2}&#45;&gt;{0,2}</title>
<path fill="none" stroke="black" d="M176.503,-59.9354C176.293,-70.4898 179.54,-79.0946 186.243,-79.0946 190.537,-79.0946 193.413,-75.5632 194.87,-70.2501"/>
<polygon fill="black" stroke="black" points="198.39,-70.2533 195.984,-59.9354 191.431,-69.5021 198.39,-70.2533"/>
<text text-anchor="middle" x="186.243" y="-82.8946" font-family="Times New Roman,serif" font-size="14.00">h</text>
</g>
</g>
</svg>
