<?xml version="1.0" encoding="UTF-8" standalone="no"?>
<!DOCTYPE svg PUBLIC "-//W3C//DTD SVG 1.1//EN"
 "http://www.w3.org/Graphics/SVG/1.1/DTD/svg11.dtd">
<!-- Generated by graphviz version 2.38.0 (20140413.2041)
 -->
<!-- Title: enfa Pages: 1 -->
<svg width="277pt" height="178pt"
 viewBox="0.00 0.00 276.60 177.86" xmlns="http://www.w3.org/2000/svg" xmlns:xlink="http://www.w3.org/1999/xlink">
<g id="graph0" class="graph" transform="scale(1 1) rotate(0) translate(4 173.861)">
<title>enfa</title>
<polygon fill="white" stroke="none" points="-4,4 -4,-173.861 272.6,-173.861 272.6,4 -4,4"/>
<!-- __start -->
<!-- 0 -->
<g id="node2" class="node"><title>0</title>
<ellipse fill="none" stroke="black" cx="86.6" cy="-81.8606" rx="18" ry="18"/>
<ellipse fill="none" stroke="black" cx="86.6" cy="-81.8606" rx="22" ry="22"/>
<text text-anchor="middle" x="86.6" y="-78.1606" font-family="Times New Roman,serif" font-size="14.00">0</text>
</g>
<!-- __start&#45;&gt;0 -->
<g id="edge1" class="edge"><title>__start&#45;&gt;0</title>
<path fill="none" stroke="black" d="M3.72988,-81.8606C8.77597,-81.8606 33.4162,-81.8606 54.3593,-81.8606"/>
<polygon fill="black" stroke="black" points="54.5455,-85.3607 64.5454,-81.8606 54.5454,-78.3607 54.5455,-85.3607"/>
<text text-anchor="middle" x="34.1" y="-85.6606" font-family="Times New Roman,serif" font-size="14.00">start</text>
</g>
<!-- 1 -->
<g id="node3" class="node"><title>1</title>
<ellipse fill="none" stroke="black" cx="170.6" cy="-136.861" rx="18" ry="18"/>
<text text-anchor="middle" x="170.6" y="-133.161" font-family="Times New Roman,serif" font-size="14.00">1</text>
</g>
<!-- 0&#45;&gt;1 -->
<g id="edge2" class="edge"><title>0&#45;&gt;1</title>
<path fill="none" stroke="black" d="M92.8923,-103.111C98.3124,-119.889 108.565,-142.191 126.6,-152.861 133.01,-156.653 140.473,-155.541 147.366,-152.601"/>
<polygon fill="black" stroke="black" points="149.157,-155.61 156.259,-147.748 145.804,-149.466 149.157,-155.61"/>
<text text-anchor="middle" x="130.6" y="-158.661" font-family="Times New Roman,serif" font-size="14.00">k</text>
</g>
<!-- 0&#45;&gt;1 -->
<g id="edge6" class="edge"><title>0&#45;&gt;1</title>
<path fill="none" stroke="black" d="M103.263,-96.5407C110.137,-102.599 118.48,-109.452 126.6,-114.861 132.188,-118.582 138.486,-122.128 144.504,-125.244"/>
<polygon fill="black" stroke="black" points="143.074,-128.441 153.588,-129.749 146.185,-122.17 143.074,-128.441"/>
<text text-anchor="middle" x="130.6" y="-122.661" font-family="Times New Roman,serif" font-size="14.00">p</text>
</g>
<!-- 2 -->
<g id="node4" class="node"><title>2</title>
<ellipse fill="none" stroke="black" cx="250.6" cy="-81.8606" rx="18" ry="18"/>
<text text-anchor="middle" x="250.6" y="-78.1606" font-family="Times New Roman,serif" font-size="14.00">2</text>
</g>
<!-- 0&#45;&gt;2 -->
<g id="edge7" class="edge"><title>0&#45;&gt;2</title>
<path fill="none" stroke="black" d="M108.779,-81.8606C137.905,-81.8606 190.349,-81.8606 222.363,-81.8606"/>
<polygon fill="black" stroke="black" points="222.373,-85.3607 232.373,-81.8606 222.373,-78.3607 222.373,-85.3607"/>
<text text-anchor="middle" x="170.6" y="-85.6606" font-family="Times New Roman,serif" font-size="14.00">p</text>
</g>
<!-- 1&#45;&gt;0 -->
<g id="edge9" class="edge"><title>1&#45;&gt;0</title>
<path fill="none" stroke="black" d="M160.208,-122.063C153.937,-113.288 144.955,-102.598 134.6,-95.8606 129.694,-92.6682 124.033,-90.1808 118.377,-88.25"/>
<polygon fill="black" stroke="black" points="118.944,-84.7702 108.365,-85.3434 116.992,-91.4926 118.944,-84.7702"/>
<text text-anchor="middle" x="130.6" y="-99.6606" font-family="Times New Roman,serif" font-size="14.00">p</text>
</g>
<!-- 1&#45;&gt;2 -->
<g id="edge8" class="edge"><title>1&#45;&gt;2</title>
<path fill="none" stroke="black" d="M185.023,-147.883C193.84,-153.709 205.401,-158.582 214.6,-152.861 229.917,-143.334 238.728,-124.914 243.678,-109.222"/>
<polygon fill="black" stroke="black" points="247.095,-109.998 246.403,-99.4263 240.351,-108.122 247.095,-109.998"/>
<text text-anchor="middle" x="210.6" y="-158.661" font-family="Times New Roman,serif" font-size="14.00">ε</text>
</g>
<!-- 1&#45;&gt;2 -->
<g id="edge10" class="edge"><title>1&#45;&gt;2</title>
<path fill="none" stroke="black" d="M187.331,-130.126C195.75,-126.204 206.104,-120.855 214.6,-114.861 220.063,-111.006 225.533,-106.334 230.47,-101.734"/>
<polygon fill="black" stroke="black" points="232.983,-104.172 237.713,-94.6918 228.104,-99.1534 232.983,-104.172"/>
<text text-anchor="middle" x="210.6" y="-123.661" font-family="Times New Roman,serif" font-size="14.00">p</text>
</g>
<!-- 2&#45;&gt;0 -->
<g id="edge3" class="edge"><title>2&#45;&gt;0</title>
<path fill="none" stroke="black" d="M238.755,-67.918C227.733,-54.9907 209.363,-36.6207 188.6,-28.8606 173.613,-23.2591 167.673,-23.4942 152.6,-28.8606 135.834,-34.8296 120.261,-47.1805 108.563,-58.4586"/>
<polygon fill="black" stroke="black" points="106.006,-56.0663 101.462,-65.6371 110.983,-60.9891 106.006,-56.0663"/>
<text text-anchor="middle" x="170.6" y="-32.6606" font-family="Times New Roman,serif" font-size="14.00">p</text>
</g>
<!-- 2&#45;&gt;0 -->
<g id="edge5" class="edge"><title>2&#45;&gt;0</title>
<path fill="none" stroke="black" d="M242.536,-65.6317C233.287,-46.7579 215.074,-16.6812 188.6,-4.86055 173.99,1.66281 167.266,1.53494 152.6,-4.86055 130.751,-14.3882 113.747,-35.5855 102.62,-53.3319"/>
<polygon fill="black" stroke="black" points="99.4397,-51.8323 97.3422,-62.2174 105.458,-55.407 99.4397,-51.8323"/>
<text text-anchor="middle" x="170.6" y="-8.66055" font-family="Times New Roman,serif" font-size="14.00">k</text>
</g>
<!-- 2&#45;&gt;1 -->
<g id="edge4" class="edge"><title>2&#45;&gt;1</title>
<path fill="none" stroke="black" d="M233.265,-86.8784C224.869,-89.8953 214.722,-94.2465 206.6,-99.8606 200.442,-104.117 194.53,-109.604 189.374,-115.043"/>
<polygon fill="black" stroke="black" points="186.471,-113.038 182.42,-122.828 191.692,-117.701 186.471,-113.038"/>
<text text-anchor="middle" x="210.6" y="-103.661" font-family="Times New Roman,serif" font-size="14.00">k</text>
</g>
</g>
</svg>
