<?xml version="1.0" encoding="UTF-8" standalone="no"?>
<!DOCTYPE svg PUBLIC "-//W3C//DTD SVG 1.1//EN"
 "http://www.w3.org/Graphics/SVG/1.1/DTD/svg11.dtd">
<!-- Generated by graphviz version 2.38.0 (20140413.2041)
 -->
<!-- Title: enfa Pages: 1 -->
<svg width="287pt" height="178pt"
 viewBox="0.00 0.00 286.60 177.86" xmlns="http://www.w3.org/2000/svg" xmlns:xlink="http://www.w3.org/1999/xlink">
<g id="graph0" class="graph" transform="scale(1 1) rotate(0) translate(4 173.861)">
<title>enfa</title>
<polygon fill="white" stroke="none" points="-4,4 -4,-173.861 282.6,-173.861 282.6,4 -4,4"/>
<!-- __start -->
<!-- 0 -->
<g id="node2" class="node"><title>0</title>
<ellipse fill="none" stroke="black" cx="91.6" cy="-81.8606" rx="27" ry="18"/>
<text text-anchor="middle" x="91.6" y="-78.1606" font-family="Times New Roman,serif" font-size="14.00">0</text>
</g>
<!-- __start&#45;&gt;0 -->
<g id="edge1" class="edge"><title>__start&#45;&gt;0</title>
<path fill="none" stroke="black" d="M3.78604,-81.8606C8.86985,-81.8606 32.7092,-81.8606 54.1222,-81.8606"/>
<polygon fill="black" stroke="black" points="54.3463,-85.3607 64.3463,-81.8606 54.3463,-78.3607 54.3463,-85.3607"/>
<text text-anchor="middle" x="34.1" y="-85.6606" font-family="Times New Roman,serif" font-size="14.00">start</text>
</g>
<!-- 1 -->
<g id="node3" class="node"><title>1</title>
<ellipse fill="none" stroke="black" cx="180.6" cy="-136.861" rx="18" ry="18"/>
<text text-anchor="middle" x="180.6" y="-133.161" font-family="Times New Roman,serif" font-size="14.00">1</text>
</g>
<!-- 0&#45;&gt;1 -->
<g id="edge2" class="edge"><title>0&#45;&gt;1</title>
<path fill="none" stroke="black" d="M97.9695,-99.564C104.208,-116.661 116.328,-141.574 136.6,-152.861 142.866,-156.349 150.043,-155.405 156.715,-152.714"/>
<polygon fill="black" stroke="black" points="158.752,-155.597 165.965,-147.836 155.487,-149.405 158.752,-155.597"/>
<text text-anchor="middle" x="140.6" y="-158.661" font-family="Times New Roman,serif" font-size="14.00">k</text>
</g>
<!-- 0&#45;&gt;1 -->
<g id="edge6" class="edge"><title>0&#45;&gt;1</title>
<path fill="none" stroke="black" d="M109.673,-95.7349C117.632,-101.92 127.367,-109.095 136.6,-114.861 142.295,-118.417 148.633,-121.9 154.656,-125.009"/>
<polygon fill="black" stroke="black" points="153.212,-128.2 163.722,-129.542 156.343,-121.939 153.212,-128.2"/>
<text text-anchor="middle" x="140.6" y="-122.661" font-family="Times New Roman,serif" font-size="14.00">p</text>
</g>
<!-- 2 -->
<g id="node4" class="node"><title>2</title>
<ellipse fill="none" stroke="black" cx="260.6" cy="-81.8606" rx="18" ry="18"/>
<text text-anchor="middle" x="260.6" y="-78.1606" font-family="Times New Roman,serif" font-size="14.00">2</text>
</g>
<!-- 0&#45;&gt;2 -->
<g id="edge7" class="edge"><title>0&#45;&gt;2</title>
<path fill="none" stroke="black" d="M118.694,-81.8606C149.549,-81.8606 200.672,-81.8606 232.12,-81.8606"/>
<polygon fill="black" stroke="black" points="232.357,-85.3607 242.357,-81.8606 232.357,-78.3607 232.357,-85.3607"/>
<text text-anchor="middle" x="180.6" y="-85.6606" font-family="Times New Roman,serif" font-size="14.00">p</text>
</g>
<!-- 1&#45;&gt;0 -->
<g id="edge9" class="edge"><title>1&#45;&gt;0</title>
<path fill="none" stroke="black" d="M170.271,-121.966C164.022,-113.155 155.043,-102.46 144.6,-95.8606 139.537,-92.6609 133.752,-90.1859 127.922,-88.2733"/>
<polygon fill="black" stroke="black" points="128.764,-84.8744 118.191,-85.5568 126.881,-91.6166 128.764,-84.8744"/>
<text text-anchor="middle" x="140.6" y="-99.6606" font-family="Times New Roman,serif" font-size="14.00">p</text>
</g>
<!-- 1&#45;&gt;2 -->
<g id="edge8" class="edge"><title>1&#45;&gt;2</title>
<path fill="none" stroke="black" d="M195.023,-147.883C203.84,-153.709 215.401,-158.582 224.6,-152.861 239.917,-143.334 248.728,-124.914 253.678,-109.222"/>
<polygon fill="black" stroke="black" points="257.095,-109.998 256.403,-99.4263 250.351,-108.122 257.095,-109.998"/>
<text text-anchor="middle" x="220.6" y="-158.661" font-family="Times New Roman,serif" font-size="14.00">ε</text>
</g>
<!-- 1&#45;&gt;2 -->
<g id="edge10" class="edge"><title>1&#45;&gt;2</title>
<path fill="none" stroke="black" d="M197.331,-130.126C205.75,-126.204 216.104,-120.855 224.6,-114.861 230.063,-111.006 235.533,-106.334 240.47,-101.734"/>
<polygon fill="black" stroke="black" points="242.983,-104.172 247.713,-94.6918 238.104,-99.1534 242.983,-104.172"/>
<text text-anchor="middle" x="220.6" y="-123.661" font-family="Times New Roman,serif" font-size="14.00">p</text>
</g>
<!-- 2&#45;&gt;0 -->
<g id="edge3" class="edge"><title>2&#45;&gt;0</title>
<path fill="none" stroke="black" d="M248.755,-67.918C237.733,-54.9907 219.363,-36.6207 198.6,-28.8606 183.613,-23.2591 177.767,-23.7663 162.6,-28.8606 144.291,-35.0098 126.959,-48.0549 114.121,-59.6637"/>
<polygon fill="black" stroke="black" points="111.609,-57.2219 106.74,-66.6316 116.414,-62.3121 111.609,-57.2219"/>
<text text-anchor="middle" x="180.6" y="-32.6606" font-family="Times New Roman,serif" font-size="14.00">p</text>
</g>
<!-- 2&#45;&gt;0 -->
<g id="edge5" class="edge"><title>2&#45;&gt;0</title>
<path fill="none" stroke="black" d="M252.536,-65.6317C243.287,-46.7579 225.074,-16.6812 198.6,-4.86055 183.99,1.66281 177.266,1.53494 162.6,-4.86055 138.691,-15.2865 119.486,-38.4431 107.283,-56.655"/>
<polygon fill="black" stroke="black" points="104.308,-54.8112 101.865,-65.1207 110.204,-58.5845 104.308,-54.8112"/>
<text text-anchor="middle" x="180.6" y="-8.66055" font-family="Times New Roman,serif" font-size="14.00">k</text>
</g>
<!-- 2&#45;&gt;1 -->
<g id="edge4" class="edge"><title>2&#45;&gt;1</title>
<path fill="none" stroke="black" d="M243.265,-86.8784C234.869,-89.8953 224.722,-94.2465 216.6,-99.8606 210.442,-104.117 204.53,-109.604 199.374,-115.043"/>
<polygon fill="black" stroke="black" points="196.471,-113.038 192.42,-122.828 201.692,-117.701 196.471,-113.038"/>
<text text-anchor="middle" x="220.6" y="-103.661" font-family="Times New Roman,serif" font-size="14.00">k</text>
</g>
</g>
</svg>
