<?xml version="1.0" encoding="UTF-8" standalone="no"?>
<!DOCTYPE svg PUBLIC "-//W3C//DTD SVG 1.1//EN"
 "http://www.w3.org/Graphics/SVG/1.1/DTD/svg11.dtd">
<!-- Generated by graphviz version 2.38.0 (20140413.2041)
 -->
<!-- Title: dfa Pages: 1 -->
<svg width="285pt" height="118pt"
 viewBox="0.00 0.00 284.60 118.00" xmlns="http://www.w3.org/2000/svg" xmlns:xlink="http://www.w3.org/1999/xlink">
<g id="graph0" class="graph" transform="scale(1 1) rotate(0) translate(4 114)">
<title>dfa</title>
<polygon fill="white" stroke="none" points="-4,4 -4,-114 280.6,-114 280.6,4 -4,4"/>
<!-- __start -->
<!-- 0 -->
<g id="node2" class="node"><title>0</title>
<ellipse fill="none" stroke="black" cx="86.6" cy="-22" rx="18" ry="18"/>
<ellipse fill="none" stroke="black" cx="86.6" cy="-22" rx="22" ry="22"/>
<text text-anchor="middle" x="86.6" y="-18.3" font-family="Times New Roman,serif" font-size="14.00">0</text>
</g>
<!-- __start&#45;&gt;0 -->
<g id="edge1" class="edge"><title>__start&#45;&gt;0</title>
<path fill="none" stroke="black" d="M3.72988,-22C8.77597,-22 33.4162,-22 54.3593,-22"/>
<polygon fill="black" stroke="black" points="54.5455,-25.5001 64.5454,-22 54.5454,-18.5001 54.5455,-25.5001"/>
<text text-anchor="middle" x="34.1" y="-25.8" font-family="Times New Roman,serif" font-size="14.00">start</text>
</g>
<!-- 2 -->
<g id="node4" class="node"><title>2</title>
<ellipse fill="none" stroke="black" cx="170.6" cy="-22" rx="18" ry="18"/>
<text text-anchor="middle" x="170.6" y="-18.3" font-family="Times New Roman,serif" font-size="14.00">2</text>
</g>
<!-- 0&#45;&gt;2 -->
<g id="edge2" class="edge"><title>0&#45;&gt;2</title>
<path fill="none" stroke="black" d="M108.717,-22C118.896,-22 131.232,-22 142.131,-22"/>
<polygon fill="black" stroke="black" points="142.418,-25.5001 152.418,-22 142.418,-18.5001 142.418,-25.5001"/>
<text text-anchor="middle" x="130.6" y="-25.8" font-family="Times New Roman,serif" font-size="14.00">k</text>
</g>
<!-- 0&#45;&gt;2 -->
<g id="edge3" class="edge"><title>0&#45;&gt;2</title>
<path fill="none" stroke="black" d="M105.073,-9.16072C113.762,-4.28108 124.534,-0.443966 134.6,-3 138.558,-4.00504 142.553,-5.55766 146.356,-7.35171"/>
<polygon fill="black" stroke="black" points="144.821,-10.4996 155.289,-12.1343 148.125,-4.32845 144.821,-10.4996"/>
<text text-anchor="middle" x="130.6" y="-6.8" font-family="Times New Roman,serif" font-size="14.00">p</text>
</g>
<!-- 1 -->
<g id="node3" class="node"><title>1</title>
<ellipse fill="none" stroke="black" cx="254.6" cy="-22" rx="18" ry="18"/>
<ellipse fill="none" stroke="black" cx="254.6" cy="-22" rx="22" ry="22"/>
<text text-anchor="middle" x="254.6" y="-18.3" font-family="Times New Roman,serif" font-size="14.00">1</text>
</g>
<!-- 1&#45;&gt;1 -->
<g id="edge6" class="edge"><title>1&#45;&gt;1</title>
<path fill="none" stroke="black" d="M250.539,-43.8066C250.153,-53.5625 251.506,-62 254.6,-62 256.534,-62 257.787,-58.7041 258.361,-53.8504"/>
<polygon fill="black" stroke="black" points="261.861,-53.9064 258.661,-43.8066 254.864,-53.698 261.861,-53.9064"/>
<text text-anchor="middle" x="254.6" y="-65.8" font-family="Times New Roman,serif" font-size="14.00">k</text>
</g>
<!-- 1&#45;&gt;1 -->
<g id="edge7" class="edge"><title>1&#45;&gt;1</title>
<path fill="none" stroke="black" d="M247.66,-43.1143C244.595,-61.0956 246.909,-80 254.6,-80 260.849,-80 263.548,-67.5201 262.697,-53.1954"/>
<polygon fill="black" stroke="black" points="266.157,-52.6501 261.54,-43.1143 259.203,-53.4481 266.157,-52.6501"/>
<text text-anchor="middle" x="254.6" y="-83.8" font-family="Times New Roman,serif" font-size="14.00">p</text>
</g>
<!-- 2&#45;&gt;1 -->
<g id="edge4" class="edge"><title>2&#45;&gt;1</title>
<path fill="none" stroke="black" d="M188.99,-22C198.708,-22 211.111,-22 222.447,-22"/>
<polygon fill="black" stroke="black" points="222.45,-25.5001 232.45,-22 222.45,-18.5001 222.45,-25.5001"/>
<text text-anchor="middle" x="210.6" y="-25.8" font-family="Times New Roman,serif" font-size="14.00">k</text>
</g>
<!-- 2&#45;&gt;1 -->
<g id="edge5" class="edge"><title>2&#45;&gt;1</title>
<path fill="none" stroke="black" d="M185.911,-12.1343C192.002,-8.50652 199.363,-4.83778 206.6,-3 213.363,-1.28266 220.445,-2.4513 227,-4.88309"/>
<polygon fill="black" stroke="black" points="225.587,-8.0862 236.127,-9.16072 228.557,-1.74777 225.587,-8.0862"/>
<text text-anchor="middle" x="210.6" y="-6.8" font-family="Times New Roman,serif" font-size="14.00">p</text>
</g>
</g>
</svg>
