<?xml version="1.0" encoding="UTF-8" standalone="no"?>
<!DOCTYPE svg PUBLIC "-//W3C//DTD SVG 1.1//EN"
 "http://www.w3.org/Graphics/SVG/1.1/DTD/svg11.dtd">
<!-- Generated by graphviz version 2.38.0 (20140413.2041)
 -->
<!-- Title: dfa Pages: 1 -->
<svg width="295pt" height="118pt"
 viewBox="0.00 0.00 294.60 118.00" xmlns="http://www.w3.org/2000/svg" xmlns:xlink="http://www.w3.org/1999/xlink">
<g id="graph0" class="graph" transform="scale(1 1) rotate(0) translate(4 114)">
<title>dfa</title>
<polygon fill="white" stroke="none" points="-4,4 -4,-114 290.6,-114 290.6,4 -4,4"/>
<!-- __start -->
<!-- 0 -->
<g id="node2" class="node"><title>0</title>
<ellipse fill="none" stroke="black" cx="91.6" cy="-22" rx="27" ry="18"/>
<text text-anchor="middle" x="91.6" y="-18.3" font-family="Times New Roman,serif" font-size="14.00">0</text>
</g>
<!-- __start&#45;&gt;0 -->
<g id="edge1" class="edge"><title>__start&#45;&gt;0</title>
<path fill="none" stroke="black" d="M3.78604,-22C8.86985,-22 32.7092,-22 54.1222,-22"/>
<polygon fill="black" stroke="black" points="54.3463,-25.5001 64.3463,-22 54.3463,-18.5001 54.3463,-25.5001"/>
<text text-anchor="middle" x="34.1" y="-25.8" font-family="Times New Roman,serif" font-size="14.00">start</text>
</g>
<!-- 2 -->
<g id="node4" class="node"><title>2</title>
<ellipse fill="none" stroke="black" cx="180.6" cy="-22" rx="18" ry="18"/>
<text text-anchor="middle" x="180.6" y="-18.3" font-family="Times New Roman,serif" font-size="14.00">2</text>
</g>
<!-- 0&#45;&gt;2 -->
<g id="edge2" class="edge"><title>0&#45;&gt;2</title>
<path fill="none" stroke="black" d="M118.703,-22C129.364,-22 141.694,-22 152.459,-22"/>
<polygon fill="black" stroke="black" points="152.583,-25.5001 162.583,-22 152.583,-18.5001 152.583,-25.5001"/>
<text text-anchor="middle" x="140.6" y="-25.8" font-family="Times New Roman,serif" font-size="14.00">k</text>
</g>
<!-- 0&#45;&gt;2 -->
<g id="edge3" class="edge"><title>0&#45;&gt;2</title>
<path fill="none" stroke="black" d="M111.085,-9.46036C120.892,-4.29387 133.235,-0.114021 144.6,-3 148.558,-4.00504 152.553,-5.55766 156.356,-7.35171"/>
<polygon fill="black" stroke="black" points="154.821,-10.4996 165.289,-12.1343 158.125,-4.32845 154.821,-10.4996"/>
<text text-anchor="middle" x="140.6" y="-6.8" font-family="Times New Roman,serif" font-size="14.00">p</text>
</g>
<!-- 1 -->
<g id="node3" class="node"><title>1</title>
<ellipse fill="none" stroke="black" cx="264.6" cy="-22" rx="18" ry="18"/>
<ellipse fill="none" stroke="black" cx="264.6" cy="-22" rx="22" ry="22"/>
<text text-anchor="middle" x="264.6" y="-18.3" font-family="Times New Roman,serif" font-size="14.00">1</text>
</g>
<!-- 1&#45;&gt;1 -->
<g id="edge6" class="edge"><title>1&#45;&gt;1</title>
<path fill="none" stroke="black" d="M260.539,-43.8066C260.153,-53.5625 261.506,-62 264.6,-62 266.534,-62 267.787,-58.7041 268.361,-53.8504"/>
<polygon fill="black" stroke="black" points="271.861,-53.9064 268.661,-43.8066 264.864,-53.698 271.861,-53.9064"/>
<text text-anchor="middle" x="264.6" y="-65.8" font-family="Times New Roman,serif" font-size="14.00">k</text>
</g>
<!-- 1&#45;&gt;1 -->
<g id="edge7" class="edge"><title>1&#45;&gt;1</title>
<path fill="none" stroke="black" d="M257.66,-43.1143C254.595,-61.0956 256.909,-80 264.6,-80 270.849,-80 273.548,-67.5201 272.697,-53.1954"/>
<polygon fill="black" stroke="black" points="276.157,-52.6501 271.54,-43.1143 269.203,-53.4481 276.157,-52.6501"/>
<text text-anchor="middle" x="264.6" y="-83.8" font-family="Times New Roman,serif" font-size="14.00">p</text>
</g>
<!-- 2&#45;&gt;1 -->
<g id="edge4" class="edge"><title>2&#45;&gt;1</title>
<path fill="none" stroke="black" d="M198.99,-22C208.708,-22 221.111,-22 232.447,-22"/>
<polygon fill="black" stroke="black" points="232.45,-25.5001 242.45,-22 232.45,-18.5001 232.45,-25.5001"/>
<text text-anchor="middle" x="220.6" y="-25.8" font-family="Times New Roman,serif" font-size="14.00">k</text>
</g>
<!-- 2&#45;&gt;1 -->
<g id="edge5" class="edge"><title>2&#45;&gt;1</title>
<path fill="none" stroke="black" d="M195.911,-12.1343C202.002,-8.50652 209.363,-4.83778 216.6,-3 223.363,-1.28266 230.445,-2.4513 237,-4.88309"/>
<polygon fill="black" stroke="black" points="235.587,-8.0862 246.127,-9.16072 238.557,-1.74777 235.587,-8.0862"/>
<text text-anchor="middle" x="220.6" y="-6.8" font-family="Times New Roman,serif" font-size="14.00">p</text>
</g>
</g>
</svg>
