<?xml version="1.0" encoding="UTF-8" standalone="no"?>
<!DOCTYPE svg PUBLIC "-//W3C//DTD SVG 1.1//EN"
 "http://www.w3.org/Graphics/SVG/1.1/DTD/svg11.dtd">
<!-- Generated by graphviz version 2.38.0 (20140413.2041)
 -->
<!-- Title: dfa Pages: 1 -->
<svg width="472pt" height="188pt"
 viewBox="0.00 0.00 472.18 188.24" xmlns="http://www.w3.org/2000/svg" xmlns:xlink="http://www.w3.org/1999/xlink">
<g id="graph0" class="graph" transform="scale(1 1) rotate(0) translate(4 184.244)">
<title>dfa</title>
<polygon fill="white" stroke="none" points="-4,4 -4,-184.244 468.182,-184.244 468.182,4 -4,4"/>
<!-- __start -->
<!-- {0} -->
<g id="node2" class="node"><title>{0}</title>
<ellipse fill="none" stroke="black" cx="91.6" cy="-87.5473" rx="27" ry="18"/>
<text text-anchor="middle" x="91.6" y="-83.8473" font-family="Times New Roman,serif" font-size="14.00">{0}</text>
</g>
<!-- __start&#45;&gt;{0} -->
<g id="edge1" class="edge"><title>__start&#45;&gt;{0}</title>
<path fill="none" stroke="black" d="M3.78604,-87.5473C8.86985,-87.5473 32.7092,-87.5473 54.1222,-87.5473"/>
<polygon fill="black" stroke="black" points="54.3463,-91.0474 64.3463,-87.5473 54.3463,-84.0474 54.3463,-91.0474"/>
<text text-anchor="middle" x="34.1" y="-91.3473" font-family="Times New Roman,serif" font-size="14.00">start</text>
</g>
<!-- {1,2} -->
<g id="node5" class="node"><title>{1,2}</title>
<ellipse fill="none" stroke="black" cx="193.147" cy="-87.5473" rx="30.5947" ry="30.5947"/>
<text text-anchor="middle" x="193.147" y="-83.8473" font-family="Times New Roman,serif" font-size="14.00">{1,2}</text>
</g>
<!-- {0}&#45;&gt;{1,2} -->
<g id="edge2" class="edge"><title>{0}&#45;&gt;{1,2}</title>
<path fill="none" stroke="black" d="M118.755,-87.5473C128.987,-87.5473 140.953,-87.5473 152.218,-87.5473"/>
<polygon fill="black" stroke="black" points="152.297,-91.0474 162.297,-87.5473 152.297,-84.0474 152.297,-91.0474"/>
<text text-anchor="middle" x="140.6" y="-91.3473" font-family="Times New Roman,serif" font-size="14.00">k</text>
</g>
<!-- {0}&#45;&gt;{1,2} -->
<g id="edge3" class="edge"><title>{0}&#45;&gt;{1,2}</title>
<path fill="none" stroke="black" d="M113.511,-76.4537C120.634,-73.2402 128.777,-70.1641 136.6,-68.5473 143.085,-67.207 149.856,-67.7707 156.35,-69.3584"/>
<polygon fill="black" stroke="black" points="155.654,-72.8122 166.246,-72.5696 157.815,-66.154 155.654,-72.8122"/>
<text text-anchor="middle" x="140.6" y="-72.3473" font-family="Times New Roman,serif" font-size="14.00">p</text>
</g>
<!-- {0,1,2} -->
<g id="node3" class="node"><title>{0,1,2}</title>
<ellipse fill="none" stroke="black" cx="422.486" cy="-72.5473" rx="37.8753" ry="37.8753"/>
<ellipse fill="none" stroke="black" cx="422.486" cy="-72.5473" rx="41.8942" ry="41.8942"/>
<text text-anchor="middle" x="422.486" y="-68.8473" font-family="Times New Roman,serif" font-size="14.00">{0,1,2}</text>
</g>
<!-- {0,1,2}&#45;&gt;{0,1,2} -->
<g id="edge6" class="edge"><title>{0,1,2}&#45;&gt;{0,1,2}</title>
<path fill="none" stroke="black" d="M416.753,-114.116C417.154,-124.49 419.065,-132.244 422.486,-132.244 424.624,-132.244 426.172,-129.215 427.13,-124.41"/>
<polygon fill="black" stroke="black" points="430.648,-124.428 428.218,-114.116 423.687,-123.692 430.648,-124.428"/>
<text text-anchor="middle" x="422.486" y="-136.044" font-family="Times New Roman,serif" font-size="14.00">k</text>
</g>
<!-- {0,1,2}&#45;&gt;{0,1,2} -->
<g id="edge7" class="edge"><title>{0,1,2}&#45;&gt;{0,1,2}</title>
<path fill="none" stroke="black" d="M411.174,-112.922C409.694,-132.697 413.464,-150.244 422.486,-150.244 429.886,-150.244 433.753,-138.436 434.087,-123.277"/>
<polygon fill="black" stroke="black" points="437.576,-122.821 433.798,-112.922 430.579,-123.016 437.576,-122.821"/>
<text text-anchor="middle" x="422.486" y="-154.044" font-family="Times New Roman,serif" font-size="14.00">p</text>
</g>
<!-- {0,2} -->
<g id="node4" class="node"><title>{0,2}</title>
<ellipse fill="none" stroke="black" cx="302.242" cy="-34.5473" rx="30.5892" ry="30.5892"/>
<ellipse fill="none" stroke="black" cx="302.242" cy="-34.5473" rx="34.5946" ry="34.5946"/>
<text text-anchor="middle" x="302.242" y="-30.8473" font-family="Times New Roman,serif" font-size="14.00">{0,2}</text>
</g>
<!-- {0,2}&#45;&gt;{0,1,2} -->
<g id="edge8" class="edge"><title>{0,2}&#45;&gt;{0,1,2}</title>
<path fill="none" stroke="black" d="M335.24,-44.8306C346.682,-48.5075 359.853,-52.7404 372.403,-56.7735"/>
<polygon fill="black" stroke="black" points="371.698,-60.2233 382.289,-59.9507 373.84,-53.5589 371.698,-60.2233"/>
<text text-anchor="middle" x="358.789" y="-57.3473" font-family="Times New Roman,serif" font-size="14.00">k</text>
</g>
<!-- {0,2}&#45;&gt;{0,1,2} -->
<g id="edge9" class="edge"><title>{0,2}&#45;&gt;{0,1,2}</title>
<path fill="none" stroke="black" d="M336.518,-29.5848C345.221,-29.3224 354.486,-29.9871 362.789,-32.5473 369.202,-34.5247 375.541,-37.4691 381.548,-40.88"/>
<polygon fill="black" stroke="black" points="379.734,-43.8733 390.081,-46.1528 383.414,-37.9185 379.734,-43.8733"/>
<text text-anchor="middle" x="358.789" y="-36.3473" font-family="Times New Roman,serif" font-size="14.00">p</text>
</g>
<!-- {1,2}&#45;&gt;{0,1,2} -->
<g id="edge4" class="edge"><title>{1,2}&#45;&gt;{0,1,2}</title>
<path fill="none" stroke="black" d="M223.656,-85.752C252.505,-83.9812 297.672,-81.1669 336.789,-78.5473 347.712,-77.8158 359.426,-77.0038 370.552,-76.2195"/>
<polygon fill="black" stroke="black" points="370.837,-79.7081 380.565,-75.5101 370.342,-72.7256 370.837,-79.7081"/>
<text text-anchor="middle" x="302.242" y="-87.3473" font-family="Times New Roman,serif" font-size="14.00">k</text>
</g>
<!-- {1,2}&#45;&gt;{0,2} -->
<g id="edge5" class="edge"><title>{1,2}&#45;&gt;{0,2}</title>
<path fill="none" stroke="black" d="M220.896,-74.3099C233.279,-68.1816 248.238,-60.7783 261.875,-54.0295"/>
<polygon fill="black" stroke="black" points="263.647,-57.0578 271.057,-49.4854 260.542,-50.7841 263.647,-57.0578"/>
<text text-anchor="middle" x="245.695" y="-67.3473" font-family="Times New Roman,serif" font-size="14.00">p</text>
</g>
</g>
</svg>
