<?xml version="1.0" encoding="UTF-8" standalone="no"?>
<!DOCTYPE svg PUBLIC "-//W3C//DTD SVG 1.1//EN"
 "http://www.w3.org/Graphics/SVG/1.1/DTD/svg11.dtd">
<!-- Generated by graphviz version 2.38.0 (20140413.2041)
 -->
<!-- Title: dfa Pages: 1 -->
<svg width="375pt" height="102pt"
 viewBox="0.00 0.00 374.60 101.55" xmlns="http://www.w3.org/2000/svg" xmlns:xlink="http://www.w3.org/1999/xlink">
<g id="graph0" class="graph" transform="scale(1 1) rotate(0) translate(4 97.5502)">
<title>dfa</title>
<polygon fill="white" stroke="none" points="-4,4 -4,-97.5502 370.6,-97.5502 370.6,4 -4,4"/>
<!-- __start -->
<!-- 0 -->
<g id="node2" class="node"><title>0</title>
<ellipse fill="none" stroke="black" cx="91.6" cy="-38.5502" rx="27" ry="18"/>
<text text-anchor="middle" x="91.6" y="-34.8502" font-family="Times New Roman,serif" font-size="14.00">0</text>
</g>
<!-- __start&#45;&gt;0 -->
<g id="edge1" class="edge"><title>__start&#45;&gt;0</title>
<path fill="none" stroke="black" d="M3.78604,-38.5502C8.86985,-38.5502 32.7092,-38.5502 54.1222,-38.5502"/>
<polygon fill="black" stroke="black" points="54.3463,-42.0503 64.3463,-38.5502 54.3463,-35.0503 54.3463,-42.0503"/>
<text text-anchor="middle" x="34.1" y="-42.3502" font-family="Times New Roman,serif" font-size="14.00">start</text>
</g>
<!-- 2 -->
<g id="node4" class="node"><title>2</title>
<ellipse fill="none" stroke="black" cx="180.6" cy="-38.5502" rx="18" ry="18"/>
<text text-anchor="middle" x="180.6" y="-34.8502" font-family="Times New Roman,serif" font-size="14.00">2</text>
</g>
<!-- 0&#45;&gt;2 -->
<g id="edge2" class="edge"><title>0&#45;&gt;2</title>
<path fill="none" stroke="black" d="M118.703,-38.5502C129.364,-38.5502 141.694,-38.5502 152.459,-38.5502"/>
<polygon fill="black" stroke="black" points="152.583,-42.0503 162.583,-38.5502 152.583,-35.0503 152.583,-42.0503"/>
<text text-anchor="middle" x="140.6" y="-42.3502" font-family="Times New Roman,serif" font-size="14.00">t</text>
</g>
<!-- 0&#45;&gt;2 -->
<g id="edge3" class="edge"><title>0&#45;&gt;2</title>
<path fill="none" stroke="black" d="M111.085,-26.0106C120.892,-20.8441 133.235,-16.6643 144.6,-19.5502 148.558,-20.5553 152.553,-22.1079 156.356,-23.9019"/>
<polygon fill="black" stroke="black" points="154.821,-27.0498 165.289,-28.6845 158.125,-20.8787 154.821,-27.0498"/>
<text text-anchor="middle" x="140.6" y="-23.3502" font-family="Times New Roman,serif" font-size="14.00">p</text>
</g>
<!-- 1 -->
<g id="node3" class="node"><title>1</title>
<ellipse fill="none" stroke="black" cx="344.6" cy="-38.5502" rx="18" ry="18"/>
<ellipse fill="none" stroke="black" cx="344.6" cy="-38.5502" rx="22" ry="22"/>
<text text-anchor="middle" x="344.6" y="-34.8502" font-family="Times New Roman,serif" font-size="14.00">1</text>
</g>
<!-- 1&#45;&gt;1 -->
<g id="edge9" class="edge"><title>1&#45;&gt;1</title>
<path fill="none" stroke="black" d="M336.594,-59.131C335.486,-69.395 338.155,-78.5502 344.6,-78.5502 348.729,-78.5502 351.308,-74.7929 352.337,-69.3938"/>
<polygon fill="black" stroke="black" points="355.843,-69.2193 352.606,-59.131 348.845,-69.0359 355.843,-69.2193"/>
<text text-anchor="middle" x="344.6" y="-82.3502" font-family="Times New Roman,serif" font-size="14.00">p</text>
</g>
<!-- 3 -->
<g id="node5" class="node"><title>3</title>
<ellipse fill="none" stroke="black" cx="260.6" cy="-38.5502" rx="18" ry="18"/>
<text text-anchor="middle" x="260.6" y="-34.8502" font-family="Times New Roman,serif" font-size="14.00">3</text>
</g>
<!-- 1&#45;&gt;3 -->
<g id="edge8" class="edge"><title>1&#45;&gt;3</title>
<path fill="none" stroke="black" d="M322.553,-36.2489C314.445,-35.6138 305.096,-35.1868 296.6,-35.5502 294.041,-35.6597 291.379,-35.814 288.718,-35.9955"/>
<polygon fill="black" stroke="black" points="288.363,-32.5126 278.671,-36.7927 288.917,-39.4906 288.363,-32.5126"/>
<text text-anchor="middle" x="300.6" y="-39.3502" font-family="Times New Roman,serif" font-size="14.00">t</text>
</g>
<!-- 2&#45;&gt;2 -->
<g id="edge4" class="edge"><title>2&#45;&gt;2</title>
<path fill="none" stroke="black" d="M173.569,-55.2143C172.006,-65.1752 174.35,-74.5502 180.6,-74.5502 184.604,-74.5502 187.005,-70.7027 187.802,-65.3185"/>
<polygon fill="black" stroke="black" points="191.3,-65.1536 187.631,-55.2143 184.301,-65.2721 191.3,-65.1536"/>
<text text-anchor="middle" x="180.6" y="-78.3502" font-family="Times New Roman,serif" font-size="14.00">t</text>
</g>
<!-- 2&#45;&gt;3 -->
<g id="edge5" class="edge"><title>2&#45;&gt;3</title>
<path fill="none" stroke="black" d="M198.911,-38.5502C208.706,-38.5502 221.178,-38.5502 232.265,-38.5502"/>
<polygon fill="black" stroke="black" points="232.338,-42.0503 242.338,-38.5502 232.338,-35.0503 232.338,-42.0503"/>
<text text-anchor="middle" x="220.6" y="-42.3502" font-family="Times New Roman,serif" font-size="14.00">p</text>
</g>
<!-- 3&#45;&gt;1 -->
<g id="edge6" class="edge"><title>3&#45;&gt;1</title>
<path fill="none" stroke="black" d="M269.93,-22.9332C277.813,-10.4619 290.513,4.06899 304.6,-1.55023 311.633,-4.35544 318.125,-9.09836 323.712,-14.2692"/>
<polygon fill="black" stroke="black" points="321.24,-16.7472 330.737,-21.4437 326.242,-11.8498 321.24,-16.7472"/>
<text text-anchor="middle" x="300.6" y="-5.35023" font-family="Times New Roman,serif" font-size="14.00">t</text>
</g>
<!-- 3&#45;&gt;1 -->
<g id="edge7" class="edge"><title>3&#45;&gt;1</title>
<path fill="none" stroke="black" d="M276.784,-47.2104C282.761,-50.1541 289.811,-53.0719 296.6,-54.5502 302.751,-55.8895 309.217,-55.1625 315.319,-53.4391"/>
<polygon fill="black" stroke="black" points="316.973,-56.5579 325.122,-49.7871 314.53,-49.9982 316.973,-56.5579"/>
<text text-anchor="middle" x="300.6" y="-58.3502" font-family="Times New Roman,serif" font-size="14.00">p</text>
</g>
</g>
</svg>
