<?xml version="1.0" encoding="UTF-8" standalone="no"?>
<!DOCTYPE svg PUBLIC "-//W3C//DTD SVG 1.1//EN"
 "http://www.w3.org/Graphics/SVG/1.1/DTD/svg11.dtd">
<!-- Generated by graphviz version 2.38.0 (20140413.2041)
 -->
<!-- Title: dfa Pages: 1 -->
<svg width="357pt" height="102pt"
 viewBox="0.00 0.00 356.60 101.55" xmlns="http://www.w3.org/2000/svg" xmlns:xlink="http://www.w3.org/1999/xlink">
<g id="graph0" class="graph" transform="scale(1 1) rotate(0) translate(4 97.5502)">
<title>dfa</title>
<polygon fill="white" stroke="none" points="-4,4 -4,-97.5502 352.6,-97.5502 352.6,4 -4,4"/>
<!-- __start -->
<!-- 0 -->
<g id="node2" class="node"><title>0</title>
<ellipse fill="none" stroke="black" cx="82.6" cy="-38.5502" rx="18" ry="18"/>
<text text-anchor="middle" x="82.6" y="-34.8502" font-family="Times New Roman,serif" font-size="14.00">0</text>
</g>
<!-- __start&#45;&gt;0 -->
<g id="edge1" class="edge"><title>__start&#45;&gt;0</title>
<path fill="none" stroke="black" d="M3.68496,-38.5502C8.69573,-38.5502 34.008,-38.5502 54.4423,-38.5502"/>
<polygon fill="black" stroke="black" points="54.5501,-42.0503 64.5501,-38.5502 54.5501,-35.0503 54.5501,-42.0503"/>
<text text-anchor="middle" x="34.1" y="-42.3502" font-family="Times New Roman,serif" font-size="14.00">start</text>
</g>
<!-- 2 -->
<g id="node4" class="node"><title>2</title>
<ellipse fill="none" stroke="black" cx="162.6" cy="-38.5502" rx="18" ry="18"/>
<text text-anchor="middle" x="162.6" y="-34.8502" font-family="Times New Roman,serif" font-size="14.00">2</text>
</g>
<!-- 0&#45;&gt;2 -->
<g id="edge2" class="edge"><title>0&#45;&gt;2</title>
<path fill="none" stroke="black" d="M100.911,-38.5502C110.706,-38.5502 123.178,-38.5502 134.265,-38.5502"/>
<polygon fill="black" stroke="black" points="134.338,-42.0503 144.338,-38.5502 134.338,-35.0503 134.338,-42.0503"/>
<text text-anchor="middle" x="122.6" y="-42.3502" font-family="Times New Roman,serif" font-size="14.00">t</text>
</g>
<!-- 0&#45;&gt;2 -->
<g id="edge3" class="edge"><title>0&#45;&gt;2</title>
<path fill="none" stroke="black" d="M97.9113,-28.6845C104.002,-25.0568 111.363,-21.388 118.6,-19.5502 125.509,-17.7958 132.709,-19.4502 139.198,-22.3918"/>
<polygon fill="black" stroke="black" points="137.644,-25.5332 148.077,-27.3751 141.07,-19.4288 137.644,-25.5332"/>
<text text-anchor="middle" x="122.6" y="-23.3502" font-family="Times New Roman,serif" font-size="14.00">p</text>
</g>
<!-- 1 -->
<g id="node3" class="node"><title>1</title>
<ellipse fill="none" stroke="black" cx="326.6" cy="-38.5502" rx="18" ry="18"/>
<ellipse fill="none" stroke="black" cx="326.6" cy="-38.5502" rx="22" ry="22"/>
<text text-anchor="middle" x="326.6" y="-34.8502" font-family="Times New Roman,serif" font-size="14.00">1</text>
</g>
<!-- 1&#45;&gt;1 -->
<g id="edge9" class="edge"><title>1&#45;&gt;1</title>
<path fill="none" stroke="black" d="M318.594,-59.131C317.486,-69.395 320.155,-78.5502 326.6,-78.5502 330.729,-78.5502 333.308,-74.7929 334.337,-69.3938"/>
<polygon fill="black" stroke="black" points="337.843,-69.2193 334.606,-59.131 330.845,-69.0359 337.843,-69.2193"/>
<text text-anchor="middle" x="326.6" y="-82.3502" font-family="Times New Roman,serif" font-size="14.00">p</text>
</g>
<!-- 3 -->
<g id="node5" class="node"><title>3</title>
<ellipse fill="none" stroke="black" cx="242.6" cy="-38.5502" rx="18" ry="18"/>
<text text-anchor="middle" x="242.6" y="-34.8502" font-family="Times New Roman,serif" font-size="14.00">3</text>
</g>
<!-- 1&#45;&gt;3 -->
<g id="edge8" class="edge"><title>1&#45;&gt;3</title>
<path fill="none" stroke="black" d="M304.553,-36.2489C296.445,-35.6138 287.096,-35.1868 278.6,-35.5502 276.041,-35.6597 273.379,-35.814 270.718,-35.9955"/>
<polygon fill="black" stroke="black" points="270.363,-32.5126 260.671,-36.7927 270.917,-39.4906 270.363,-32.5126"/>
<text text-anchor="middle" x="282.6" y="-39.3502" font-family="Times New Roman,serif" font-size="14.00">t</text>
</g>
<!-- 2&#45;&gt;2 -->
<g id="edge4" class="edge"><title>2&#45;&gt;2</title>
<path fill="none" stroke="black" d="M155.569,-55.2143C154.006,-65.1752 156.35,-74.5502 162.6,-74.5502 166.604,-74.5502 169.005,-70.7027 169.802,-65.3185"/>
<polygon fill="black" stroke="black" points="173.3,-65.1536 169.631,-55.2143 166.301,-65.2721 173.3,-65.1536"/>
<text text-anchor="middle" x="162.6" y="-78.3502" font-family="Times New Roman,serif" font-size="14.00">t</text>
</g>
<!-- 2&#45;&gt;3 -->
<g id="edge5" class="edge"><title>2&#45;&gt;3</title>
<path fill="none" stroke="black" d="M180.911,-38.5502C190.706,-38.5502 203.178,-38.5502 214.265,-38.5502"/>
<polygon fill="black" stroke="black" points="214.338,-42.0503 224.338,-38.5502 214.338,-35.0503 214.338,-42.0503"/>
<text text-anchor="middle" x="202.6" y="-42.3502" font-family="Times New Roman,serif" font-size="14.00">p</text>
</g>
<!-- 3&#45;&gt;1 -->
<g id="edge6" class="edge"><title>3&#45;&gt;1</title>
<path fill="none" stroke="black" d="M251.93,-22.9332C259.813,-10.4619 272.513,4.06899 286.6,-1.55023 293.633,-4.35544 300.125,-9.09836 305.712,-14.2692"/>
<polygon fill="black" stroke="black" points="303.24,-16.7472 312.737,-21.4437 308.242,-11.8498 303.24,-16.7472"/>
<text text-anchor="middle" x="282.6" y="-5.35023" font-family="Times New Roman,serif" font-size="14.00">t</text>
</g>
<!-- 3&#45;&gt;1 -->
<g id="edge7" class="edge"><title>3&#45;&gt;1</title>
<path fill="none" stroke="black" d="M258.784,-47.2104C264.761,-50.1541 271.811,-53.0719 278.6,-54.5502 284.751,-55.8895 291.217,-55.1625 297.319,-53.4391"/>
<polygon fill="black" stroke="black" points="298.973,-56.5579 307.122,-49.7871 296.53,-49.9982 298.973,-56.5579"/>
<text text-anchor="middle" x="282.6" y="-58.3502" font-family="Times New Roman,serif" font-size="14.00">p</text>
</g>
</g>
</svg>
