<?xml version="1.0" encoding="UTF-8" standalone="no"?>
<!DOCTYPE svg PUBLIC "-//W3C//DTD SVG 1.1//EN"
 "http://www.w3.org/Graphics/SVG/1.1/DTD/svg11.dtd">
<!-- Generated by graphviz version 2.38.0 (20140413.2041)
 -->
<!-- Title: dfa Pages: 1 -->
<svg width="375pt" height="87pt"
 viewBox="0.00 0.00 374.60 87.21" xmlns="http://www.w3.org/2000/svg" xmlns:xlink="http://www.w3.org/1999/xlink">
<g id="graph0" class="graph" transform="scale(1 1) rotate(0) translate(4 83.2124)">
<title>dfa</title>
<polygon fill="white" stroke="none" points="-4,4 -4,-83.2124 370.6,-83.2124 370.6,4 -4,4"/>
<!-- __start -->
<!-- 0 -->
<g id="node2" class="node"><title>0</title>
<ellipse fill="none" stroke="black" cx="91.6" cy="-24.2124" rx="27" ry="18"/>
<text text-anchor="middle" x="91.6" y="-20.5124" font-family="Times New Roman,serif" font-size="14.00">0</text>
</g>
<!-- __start&#45;&gt;0 -->
<g id="edge1" class="edge"><title>__start&#45;&gt;0</title>
<path fill="none" stroke="black" d="M3.78604,-24.2124C8.86985,-24.2124 32.7092,-24.2124 54.1222,-24.2124"/>
<polygon fill="black" stroke="black" points="54.3463,-27.7125 64.3463,-24.2124 54.3463,-20.7125 54.3463,-27.7125"/>
<text text-anchor="middle" x="34.1" y="-28.0124" font-family="Times New Roman,serif" font-size="14.00">start</text>
</g>
<!-- 0&#45;&gt;0 -->
<g id="edge2" class="edge"><title>0&#45;&gt;0</title>
<path fill="none" stroke="black" d="M83.0307,-41.6223C81.4311,-51.3003 84.2875,-60.2124 91.6,-60.2124 96.1703,-60.2124 99,-56.7311 100.089,-51.7574"/>
<polygon fill="black" stroke="black" points="103.59,-51.6498 100.169,-41.6223 96.5901,-51.5942 103.59,-51.6498"/>
<text text-anchor="middle" x="91.6" y="-64.0124" font-family="Times New Roman,serif" font-size="14.00">t</text>
</g>
<!-- 3 -->
<g id="node4" class="node"><title>3</title>
<ellipse fill="none" stroke="black" cx="180.6" cy="-24.2124" rx="18" ry="18"/>
<text text-anchor="middle" x="180.6" y="-20.5124" font-family="Times New Roman,serif" font-size="14.00">3</text>
</g>
<!-- 0&#45;&gt;3 -->
<g id="edge3" class="edge"><title>0&#45;&gt;3</title>
<path fill="none" stroke="black" d="M118.703,-24.2124C129.364,-24.2124 141.694,-24.2124 152.459,-24.2124"/>
<polygon fill="black" stroke="black" points="152.583,-27.7125 162.583,-24.2124 152.583,-20.7125 152.583,-27.7125"/>
<text text-anchor="middle" x="140.6" y="-28.0124" font-family="Times New Roman,serif" font-size="14.00">p</text>
</g>
<!-- 1 -->
<g id="node3" class="node"><title>1</title>
<ellipse fill="none" stroke="black" cx="264.6" cy="-24.2124" rx="18" ry="18"/>
<ellipse fill="none" stroke="black" cx="264.6" cy="-24.2124" rx="22" ry="22"/>
<text text-anchor="middle" x="264.6" y="-20.5124" font-family="Times New Roman,serif" font-size="14.00">1</text>
</g>
<!-- 1&#45;&gt;1 -->
<g id="edge5" class="edge"><title>1&#45;&gt;1</title>
<path fill="none" stroke="black" d="M256.594,-44.7932C255.486,-55.0572 258.155,-64.2124 264.6,-64.2124 268.729,-64.2124 271.308,-60.4551 272.337,-55.056"/>
<polygon fill="black" stroke="black" points="275.843,-54.8815 272.606,-44.7932 268.845,-54.6981 275.843,-54.8815"/>
<text text-anchor="middle" x="264.6" y="-68.0124" font-family="Times New Roman,serif" font-size="14.00">p</text>
</g>
<!-- 4 -->
<g id="node5" class="node"><title>4</title>
<ellipse fill="none" stroke="black" cx="348.6" cy="-24.2124" rx="18" ry="18"/>
<text text-anchor="middle" x="348.6" y="-20.5124" font-family="Times New Roman,serif" font-size="14.00">4</text>
</g>
<!-- 1&#45;&gt;4 -->
<g id="edge4" class="edge"><title>1&#45;&gt;4</title>
<path fill="none" stroke="black" d="M284.078,-35.4494C292.628,-39.3588 302.999,-42.303 312.6,-40.2124 316.101,-39.4502 319.671,-38.3052 323.127,-36.9713"/>
<polygon fill="black" stroke="black" points="324.68,-40.1116 332.416,-32.8726 321.854,-33.7073 324.68,-40.1116"/>
<text text-anchor="middle" x="308.6" y="-44.0124" font-family="Times New Roman,serif" font-size="14.00">t</text>
</g>
<!-- 3&#45;&gt;1 -->
<g id="edge6" class="edge"><title>3&#45;&gt;1</title>
<path fill="none" stroke="black" d="M198.99,-24.2124C208.708,-24.2124 221.111,-24.2124 232.447,-24.2124"/>
<polygon fill="black" stroke="black" points="232.45,-27.7125 242.45,-24.2124 232.45,-20.7125 232.45,-27.7125"/>
<text text-anchor="middle" x="220.6" y="-28.0124" font-family="Times New Roman,serif" font-size="14.00">t</text>
</g>
<!-- 3&#45;&gt;1 -->
<g id="edge7" class="edge"><title>3&#45;&gt;1</title>
<path fill="none" stroke="black" d="M195.911,-14.3467C202.002,-10.719 209.363,-7.05021 216.6,-5.21243 223.363,-3.4951 230.445,-4.66373 237,-7.09552"/>
<polygon fill="black" stroke="black" points="235.587,-10.2986 246.127,-11.3732 238.557,-3.9602 235.587,-10.2986"/>
<text text-anchor="middle" x="220.6" y="-9.01243" font-family="Times New Roman,serif" font-size="14.00">p</text>
</g>
<!-- 4&#45;&gt;1 -->
<g id="edge8" class="edge"><title>4&#45;&gt;1</title>
<path fill="none" stroke="black" d="M330.529,-22.4549C324.834,-21.9471 318.449,-21.4627 312.6,-21.2124 307.556,-20.9966 302.21,-21.0595 297.003,-21.2791"/>
<polygon fill="black" stroke="black" points="296.415,-17.8084 286.647,-21.9111 296.841,-24.7954 296.415,-17.8084"/>
<text text-anchor="middle" x="308.6" y="-25.0124" font-family="Times New Roman,serif" font-size="14.00">t</text>
</g>
<!-- 4&#45;&gt;1 -->
<g id="edge9" class="edge"><title>4&#45;&gt;1</title>
<path fill="none" stroke="black" d="M334.241,-12.7829C328.076,-8.24056 320.402,-3.54646 312.6,-1.21243 305.18,1.00722 297.49,-0.802014 290.533,-4.20298"/>
<polygon fill="black" stroke="black" points="288.346,-1.43453 281.593,-9.5984 291.963,-7.42759 288.346,-1.43453"/>
<text text-anchor="middle" x="308.6" y="-5.01243" font-family="Times New Roman,serif" font-size="14.00">p</text>
</g>
</g>
</svg>
