<?xml version="1.0" encoding="UTF-8" standalone="no"?>
<!DOCTYPE svg PUBLIC "-//W3C//DTD SVG 1.1//EN"
 "http://www.w3.org/Graphics/SVG/1.1/DTD/svg11.dtd">
<!-- Generated by graphviz version 2.38.0 (20140413.2041)
 -->
<!-- Title: dfa Pages: 1 -->
<svg width="295pt" height="114pt"
 viewBox="0.00 0.00 294.60 114.00" xmlns="http://www.w3.org/2000/svg" xmlns:xlink="http://www.w3.org/1999/xlink">
<g id="graph0" class="graph" transform="scale(1 1) rotate(0) translate(4 110)">
<title>dfa</title>
<polygon fill="white" stroke="none" points="-4,4 -4,-110 290.6,-110 290.6,4 -4,4"/>
<!-- __start -->
<!-- 0 -->
<g id="node2" class="node"><title>0</title>
<ellipse fill="none" stroke="black" cx="91.6" cy="-22" rx="27" ry="18"/>
<text text-anchor="middle" x="91.6" y="-18.3" font-family="Times New Roman,serif" font-size="14.00">0</text>
</g>
<!-- __start&#45;&gt;0 -->
<g id="edge1" class="edge"><title>__start&#45;&gt;0</title>
<path fill="none" stroke="black" d="M3.78604,-22C8.86985,-22 32.7092,-22 54.1222,-22"/>
<polygon fill="black" stroke="black" points="54.3463,-25.5001 64.3463,-22 54.3463,-18.5001 54.3463,-25.5001"/>
<text text-anchor="middle" x="34.1" y="-25.8" font-family="Times New Roman,serif" font-size="14.00">start</text>
</g>
<!-- 0&#45;&gt;0 -->
<g id="edge4" class="edge"><title>0&#45;&gt;0</title>
<path fill="none" stroke="black" d="M83.0307,-39.4099C81.4311,-49.0879 84.2875,-58 91.6,-58 96.1703,-58 99,-54.5187 100.089,-49.5449"/>
<polygon fill="black" stroke="black" points="103.59,-49.4374 100.169,-39.4099 96.5901,-49.3818 103.59,-49.4374"/>
<text text-anchor="middle" x="91.6" y="-61.8" font-family="Times New Roman,serif" font-size="14.00">a</text>
</g>
<!-- 1 -->
<g id="node3" class="node"><title>1</title>
<ellipse fill="none" stroke="black" cx="184.6" cy="-22" rx="18" ry="18"/>
<ellipse fill="none" stroke="black" cx="184.6" cy="-22" rx="22" ry="22"/>
<text text-anchor="middle" x="184.6" y="-18.3" font-family="Times New Roman,serif" font-size="14.00">1</text>
</g>
<!-- 0&#45;&gt;1 -->
<g id="edge5" class="edge"><title>0&#45;&gt;1</title>
<path fill="none" stroke="black" d="M118.921,-22C129.423,-22 141.593,-22 152.524,-22"/>
<polygon fill="black" stroke="black" points="152.53,-25.5001 162.53,-22 152.53,-18.5001 152.53,-25.5001"/>
<text text-anchor="middle" x="140.6" y="-25.8" font-family="Times New Roman,serif" font-size="14.00">b</text>
</g>
<!-- 1&#45;&gt;1 -->
<g id="edge6" class="edge"><title>1&#45;&gt;1</title>
<path fill="none" stroke="black" d="M176.594,-42.5808C175.486,-52.8447 178.155,-62 184.6,-62 188.729,-62 191.308,-58.2427 192.337,-52.8436"/>
<polygon fill="black" stroke="black" points="195.843,-52.6691 192.606,-42.5808 188.845,-52.4857 195.843,-52.6691"/>
<text text-anchor="middle" x="184.6" y="-65.8" font-family="Times New Roman,serif" font-size="14.00">a</text>
</g>
<!-- 2 -->
<g id="node4" class="node"><title>2</title>
<ellipse fill="none" stroke="black" cx="268.6" cy="-22" rx="18" ry="18"/>
<text text-anchor="middle" x="268.6" y="-18.3" font-family="Times New Roman,serif" font-size="14.00">2</text>
</g>
<!-- 1&#45;&gt;2 -->
<g id="edge7" class="edge"><title>1&#45;&gt;2</title>
<path fill="none" stroke="black" d="M206.717,-22C216.896,-22 229.232,-22 240.131,-22"/>
<polygon fill="black" stroke="black" points="240.418,-25.5001 250.418,-22 240.418,-18.5001 240.418,-25.5001"/>
<text text-anchor="middle" x="228.6" y="-25.8" font-family="Times New Roman,serif" font-size="14.00">b</text>
</g>
<!-- 2&#45;&gt;2 -->
<g id="edge2" class="edge"><title>2&#45;&gt;2</title>
<path fill="none" stroke="black" d="M265.005,-39.7817C264.394,-49.3149 265.592,-58 268.6,-58 270.433,-58 271.594,-54.7749 272.083,-50.0981"/>
<polygon fill="black" stroke="black" points="275.586,-49.8193 272.195,-39.7817 268.587,-49.743 275.586,-49.8193"/>
<text text-anchor="middle" x="268.6" y="-61.8" font-family="Times New Roman,serif" font-size="14.00">a</text>
</g>
<!-- 2&#45;&gt;2 -->
<g id="edge3" class="edge"><title>2&#45;&gt;2</title>
<path fill="none" stroke="black" d="M262.748,-39.1418C259.306,-56.585 261.256,-76 268.6,-76 274.509,-76 276.927,-63.4283 275.852,-49.4287"/>
<polygon fill="black" stroke="black" points="279.269,-48.5785 274.452,-39.1418 272.332,-49.5224 279.269,-48.5785"/>
<text text-anchor="middle" x="268.6" y="-79.8" font-family="Times New Roman,serif" font-size="14.00">b</text>
</g>
</g>
</svg>
