<?xml version="1.0" encoding="UTF-8" standalone="no"?>
<!DOCTYPE svg PUBLIC "-//W3C//DTD SVG 1.1//EN"
 "http://www.w3.org/Graphics/SVG/1.1/DTD/svg11.dtd">
<!-- Generated by graphviz version 2.38.0 (20140413.2041)
 -->
<!-- Title: dfa Pages: 1 -->
<svg width="277pt" height="85pt"
 viewBox="0.00 0.00 276.60 85.00" xmlns="http://www.w3.org/2000/svg" xmlns:xlink="http://www.w3.org/1999/xlink">
<g id="graph0" class="graph" transform="scale(1 1) rotate(0) translate(4 81)">
<title>dfa</title>
<polygon fill="white" stroke="none" points="-4,4 -4,-81 272.6,-81 272.6,4 -4,4"/>
<!-- __start -->
<!-- 0 -->
<g id="node2" class="node"><title>0</title>
<ellipse fill="none" stroke="black" cx="82.6" cy="-22" rx="18" ry="18"/>
<text text-anchor="middle" x="82.6" y="-18.3" font-family="Times New Roman,serif" font-size="14.00">0</text>
</g>
<!-- __start&#45;&gt;0 -->
<g id="edge1" class="edge"><title>__start&#45;&gt;0</title>
<path fill="none" stroke="black" d="M3.68496,-22C8.69573,-22 34.008,-22 54.4423,-22"/>
<polygon fill="black" stroke="black" points="54.5501,-25.5001 64.5501,-22 54.5501,-18.5001 54.5501,-25.5001"/>
<text text-anchor="middle" x="34.1" y="-25.8" font-family="Times New Roman,serif" font-size="14.00">start</text>
</g>
<!-- 0&#45;&gt;0 -->
<g id="edge6" class="edge"><title>0&#45;&gt;0</title>
<path fill="none" stroke="black" d="M75.5688,-38.6641C74.0063,-48.625 76.35,-58 82.6,-58 86.6039,-58 89.0047,-54.1525 89.8023,-48.7682"/>
<polygon fill="black" stroke="black" points="93.3001,-48.6033 89.6313,-38.6641 86.3011,-48.7219 93.3001,-48.6033"/>
<text text-anchor="middle" x="82.6" y="-61.8" font-family="Times New Roman,serif" font-size="14.00">a</text>
</g>
<!-- 2 -->
<g id="node4" class="node"><title>2</title>
<ellipse fill="none" stroke="black" cx="162.6" cy="-22" rx="18" ry="18"/>
<text text-anchor="middle" x="162.6" y="-18.3" font-family="Times New Roman,serif" font-size="14.00">2</text>
</g>
<!-- 0&#45;&gt;2 -->
<g id="edge7" class="edge"><title>0&#45;&gt;2</title>
<path fill="none" stroke="black" d="M100.911,-22C110.706,-22 123.178,-22 134.265,-22"/>
<polygon fill="black" stroke="black" points="134.338,-25.5001 144.338,-22 134.338,-18.5001 134.338,-25.5001"/>
<text text-anchor="middle" x="122.6" y="-25.8" font-family="Times New Roman,serif" font-size="14.00">b</text>
</g>
<!-- 1 -->
<g id="node3" class="node"><title>1</title>
<ellipse fill="none" stroke="black" cx="246.6" cy="-22" rx="18" ry="18"/>
<ellipse fill="none" stroke="black" cx="246.6" cy="-22" rx="22" ry="22"/>
<text text-anchor="middle" x="246.6" y="-18.3" font-family="Times New Roman,serif" font-size="14.00">1</text>
</g>
<!-- 1&#45;&gt;1 -->
<g id="edge4" class="edge"><title>1&#45;&gt;1</title>
<path fill="none" stroke="black" d="M238.594,-42.5808C237.486,-52.8447 240.155,-62 246.6,-62 250.729,-62 253.308,-58.2427 254.337,-52.8436"/>
<polygon fill="black" stroke="black" points="257.843,-52.6691 254.606,-42.5808 250.845,-52.4857 257.843,-52.6691"/>
<text text-anchor="middle" x="246.6" y="-65.8" font-family="Times New Roman,serif" font-size="14.00">a</text>
</g>
<!-- 1&#45;&gt;2 -->
<g id="edge5" class="edge"><title>1&#45;&gt;2</title>
<path fill="none" stroke="black" d="M228.127,-9.16072C219.438,-4.28108 208.666,-0.443966 198.6,-3 194.642,-4.00504 190.647,-5.55766 186.844,-7.35171"/>
<polygon fill="black" stroke="black" points="185.075,-4.32845 177.911,-12.1343 188.379,-10.4996 185.075,-4.32845"/>
<text text-anchor="middle" x="202.6" y="-6.8" font-family="Times New Roman,serif" font-size="14.00">b</text>
</g>
<!-- 2&#45;&gt;1 -->
<g id="edge2" class="edge"><title>2&#45;&gt;1</title>
<path fill="none" stroke="black" d="M180.99,-22C190.708,-22 203.111,-22 214.447,-22"/>
<polygon fill="black" stroke="black" points="214.45,-25.5001 224.45,-22 214.45,-18.5001 214.45,-25.5001"/>
<text text-anchor="middle" x="202.6" y="-25.8" font-family="Times New Roman,serif" font-size="14.00">a</text>
</g>
<!-- 2&#45;&gt;2 -->
<g id="edge3" class="edge"><title>2&#45;&gt;2</title>
<path fill="none" stroke="black" d="M155.569,-38.6641C154.006,-48.625 156.35,-58 162.6,-58 166.604,-58 169.005,-54.1525 169.802,-48.7682"/>
<polygon fill="black" stroke="black" points="173.3,-48.6033 169.631,-38.6641 166.301,-48.7219 173.3,-48.6033"/>
<text text-anchor="middle" x="162.6" y="-61.8" font-family="Times New Roman,serif" font-size="14.00">b</text>
</g>
</g>
</svg>
