<?xml version="1.0" encoding="UTF-8" standalone="no"?>
<!DOCTYPE svg PUBLIC "-//W3C//DTD SVG 1.1//EN"
 "http://www.w3.org/Graphics/SVG/1.1/DTD/svg11.dtd">
<!-- Generated by graphviz version 2.38.0 (20140413.2041)
 -->
<!-- Title: dfa Pages: 1 -->
<svg width="295pt" height="85pt"
 viewBox="0.00 0.00 294.60 85.00" xmlns="http://www.w3.org/2000/svg" xmlns:xlink="http://www.w3.org/1999/xlink">
<g id="graph0" class="graph" transform="scale(1 1) rotate(0) translate(4 81)">
<title>dfa</title>
<polygon fill="white" stroke="none" points="-4,4 -4,-81 290.6,-81 290.6,4 -4,4"/>
<!-- __start -->
<!-- 0 -->
<g id="node2" class="node"><title>0</title>
<ellipse fill="none" stroke="black" cx="91.6" cy="-22" rx="27" ry="18"/>
<text text-anchor="middle" x="91.6" y="-18.3" font-family="Times New Roman,serif" font-size="14.00">0</text>
</g>
<!-- __start&#45;&gt;0 -->
<g id="edge1" class="edge"><title>__start&#45;&gt;0</title>
<path fill="none" stroke="black" d="M3.78604,-22C8.86985,-22 32.7092,-22 54.1222,-22"/>
<polygon fill="black" stroke="black" points="54.3463,-25.5001 64.3463,-22 54.3463,-18.5001 54.3463,-25.5001"/>
<text text-anchor="middle" x="34.1" y="-25.8" font-family="Times New Roman,serif" font-size="14.00">start</text>
</g>
<!-- 0&#45;&gt;0 -->
<g id="edge6" class="edge"><title>0&#45;&gt;0</title>
<path fill="none" stroke="black" d="M83.0307,-39.4099C81.4311,-49.0879 84.2875,-58 91.6,-58 96.1703,-58 99,-54.5187 100.089,-49.5449"/>
<polygon fill="black" stroke="black" points="103.59,-49.4374 100.169,-39.4099 96.5901,-49.3818 103.59,-49.4374"/>
<text text-anchor="middle" x="91.6" y="-61.8" font-family="Times New Roman,serif" font-size="14.00">a</text>
</g>
<!-- 2 -->
<g id="node4" class="node"><title>2</title>
<ellipse fill="none" stroke="black" cx="180.6" cy="-22" rx="18" ry="18"/>
<text text-anchor="middle" x="180.6" y="-18.3" font-family="Times New Roman,serif" font-size="14.00">2</text>
</g>
<!-- 0&#45;&gt;2 -->
<g id="edge7" class="edge"><title>0&#45;&gt;2</title>
<path fill="none" stroke="black" d="M118.703,-22C129.364,-22 141.694,-22 152.459,-22"/>
<polygon fill="black" stroke="black" points="152.583,-25.5001 162.583,-22 152.583,-18.5001 152.583,-25.5001"/>
<text text-anchor="middle" x="140.6" y="-25.8" font-family="Times New Roman,serif" font-size="14.00">b</text>
</g>
<!-- 1 -->
<g id="node3" class="node"><title>1</title>
<ellipse fill="none" stroke="black" cx="264.6" cy="-22" rx="18" ry="18"/>
<ellipse fill="none" stroke="black" cx="264.6" cy="-22" rx="22" ry="22"/>
<text text-anchor="middle" x="264.6" y="-18.3" font-family="Times New Roman,serif" font-size="14.00">1</text>
</g>
<!-- 1&#45;&gt;1 -->
<g id="edge4" class="edge"><title>1&#45;&gt;1</title>
<path fill="none" stroke="black" d="M256.594,-42.5808C255.486,-52.8447 258.155,-62 264.6,-62 268.729,-62 271.308,-58.2427 272.337,-52.8436"/>
<polygon fill="black" stroke="black" points="275.843,-52.6691 272.606,-42.5808 268.845,-52.4857 275.843,-52.6691"/>
<text text-anchor="middle" x="264.6" y="-65.8" font-family="Times New Roman,serif" font-size="14.00">a</text>
</g>
<!-- 1&#45;&gt;2 -->
<g id="edge5" class="edge"><title>1&#45;&gt;2</title>
<path fill="none" stroke="black" d="M246.127,-9.16072C237.438,-4.28108 226.666,-0.443966 216.6,-3 212.642,-4.00504 208.647,-5.55766 204.844,-7.35171"/>
<polygon fill="black" stroke="black" points="203.075,-4.32845 195.911,-12.1343 206.379,-10.4996 203.075,-4.32845"/>
<text text-anchor="middle" x="220.6" y="-6.8" font-family="Times New Roman,serif" font-size="14.00">b</text>
</g>
<!-- 2&#45;&gt;1 -->
<g id="edge2" class="edge"><title>2&#45;&gt;1</title>
<path fill="none" stroke="black" d="M198.99,-22C208.708,-22 221.111,-22 232.447,-22"/>
<polygon fill="black" stroke="black" points="232.45,-25.5001 242.45,-22 232.45,-18.5001 232.45,-25.5001"/>
<text text-anchor="middle" x="220.6" y="-25.8" font-family="Times New Roman,serif" font-size="14.00">a</text>
</g>
<!-- 2&#45;&gt;2 -->
<g id="edge3" class="edge"><title>2&#45;&gt;2</title>
<path fill="none" stroke="black" d="M173.569,-38.6641C172.006,-48.625 174.35,-58 180.6,-58 184.604,-58 187.005,-54.1525 187.802,-48.7682"/>
<polygon fill="black" stroke="black" points="191.3,-48.6033 187.631,-38.6641 184.301,-48.7219 191.3,-48.6033"/>
<text text-anchor="middle" x="180.6" y="-61.8" font-family="Times New Roman,serif" font-size="14.00">b</text>
</g>
</g>
</svg>
