<?xml version="1.0" encoding="UTF-8" standalone="no"?>
<!DOCTYPE svg PUBLIC "-//W3C//DTD SVG 1.1//EN"
 "http://www.w3.org/Graphics/SVG/1.1/DTD/svg11.dtd">
<!-- Generated by graphviz version 2.38.0 (20140413.2041)
 -->
<!-- Title: dfa Pages: 1 -->
<svg width="386pt" height="164pt"
 viewBox="0.00 0.00 385.60 164.44" xmlns="http://www.w3.org/2000/svg" xmlns:xlink="http://www.w3.org/1999/xlink">
<g id="graph0" class="graph" transform="scale(1 1) rotate(0) translate(4 160.438)">
<title>dfa</title>
<polygon fill="white" stroke="none" points="-4,4 -4,-160.438 381.6,-160.438 381.6,4 -4,4"/>
<!-- __start -->
<!-- 0 -->
<g id="node2" class="node"><title>0</title>
<ellipse fill="none" stroke="black" cx="91.6" cy="-58.4383" rx="27" ry="18"/>
<text text-anchor="middle" x="91.6" y="-54.7383" font-family="Times New Roman,serif" font-size="14.00">0</text>
</g>
<!-- __start&#45;&gt;0 -->
<g id="edge1" class="edge"><title>__start&#45;&gt;0</title>
<path fill="none" stroke="black" d="M3.78604,-58.4383C8.86985,-58.4383 32.7092,-58.4383 54.1222,-58.4383"/>
<polygon fill="black" stroke="black" points="54.3463,-61.9384 64.3463,-58.4383 54.3463,-54.9384 54.3463,-61.9384"/>
<text text-anchor="middle" x="34.1" y="-62.2383" font-family="Times New Roman,serif" font-size="14.00">start</text>
</g>
<!-- 1 -->
<g id="node3" class="node"><title>1</title>
<ellipse fill="none" stroke="black" cx="185.6" cy="-108.438" rx="18" ry="18"/>
<ellipse fill="none" stroke="black" cx="185.6" cy="-108.438" rx="22" ry="22"/>
<text text-anchor="middle" x="185.6" y="-104.738" font-family="Times New Roman,serif" font-size="14.00">1</text>
</g>
<!-- 0&#45;&gt;1 -->
<g id="edge4" class="edge"><title>0&#45;&gt;1</title>
<path fill="none" stroke="black" d="M102.553,-75.3932C110.255,-86.737 122.05,-100.766 136.6,-107.438 141.809,-109.827 147.682,-111.005 153.486,-111.45"/>
<polygon fill="black" stroke="black" points="153.665,-114.952 163.703,-111.563 153.742,-107.952 153.665,-114.952"/>
<text text-anchor="middle" x="141.1" y="-113.238" font-family="Times New Roman,serif" font-size="14.00">+</text>
</g>
<!-- 2 -->
<g id="node4" class="node"><title>2</title>
<ellipse fill="none" stroke="black" cx="355.6" cy="-39.4383" rx="18" ry="18"/>
<ellipse fill="none" stroke="black" cx="355.6" cy="-39.4383" rx="22" ry="22"/>
<text text-anchor="middle" x="355.6" y="-35.7383" font-family="Times New Roman,serif" font-size="14.00">2</text>
</g>
<!-- 0&#45;&gt;2 -->
<g id="edge5" class="edge"><title>0&#45;&gt;2</title>
<path fill="none" stroke="black" d="M118.679,-56.547C167.237,-53.0257 271.298,-45.4793 323.455,-41.6969"/>
<polygon fill="black" stroke="black" points="323.74,-45.1855 333.461,-40.9713 323.234,-38.2038 323.74,-45.1855"/>
<text text-anchor="middle" x="230.1" y="-52.2383" font-family="Times New Roman,serif" font-size="14.00">&#45;</text>
</g>
<!-- 1&#45;&gt;0 -->
<g id="edge6" class="edge"><title>1&#45;&gt;0</title>
<path fill="none" stroke="black" d="M165.806,-98.2239C153.213,-91.3799 136.374,-82.2284 122.021,-74.428"/>
<polygon fill="black" stroke="black" points="123.475,-71.2349 113.018,-69.5349 120.133,-77.3853 123.475,-71.2349"/>
<text text-anchor="middle" x="141.1" y="-89.2383" font-family="Times New Roman,serif" font-size="14.00">+</text>
</g>
<!-- 3 -->
<g id="node5" class="node"><title>3</title>
<ellipse fill="none" stroke="black" cx="270.6" cy="-105.438" rx="18" ry="18"/>
<text text-anchor="middle" x="270.6" y="-101.738" font-family="Times New Roman,serif" font-size="14.00">3</text>
</g>
<!-- 1&#45;&gt;3 -->
<g id="edge7" class="edge"><title>1&#45;&gt;3</title>
<path fill="none" stroke="black" d="M207.975,-107.666C218.458,-107.287 231.201,-106.826 242.373,-106.422"/>
<polygon fill="black" stroke="black" points="242.611,-109.916 252.478,-106.057 242.358,-102.921 242.611,-109.916"/>
<text text-anchor="middle" x="230.1" y="-110.238" font-family="Times New Roman,serif" font-size="14.00">&#45;</text>
</g>
<!-- 2&#45;&gt;0 -->
<g id="edge2" class="edge"><title>2&#45;&gt;0</title>
<path fill="none" stroke="black" d="M334.066,-33.19C308.63,-26.2313 263.959,-16.5619 225.6,-21.4383 190.603,-25.8873 151.881,-37.4524 125.288,-46.4796"/>
<polygon fill="black" stroke="black" points="124.025,-43.213 115.722,-49.7949 126.317,-49.8269 124.025,-43.213"/>
<text text-anchor="middle" x="230.1" y="-25.2383" font-family="Times New Roman,serif" font-size="14.00">+</text>
</g>
<!-- 2&#45;&gt;0 -->
<g id="edge3" class="edge"><title>2&#45;&gt;0</title>
<path fill="none" stroke="black" d="M336.178,-28.7049C311.479,-15.5551 266.051,4.31483 225.6,-1.43828 197.193,-5.47853 190.112,-8.46497 163.6,-19.4383 148.961,-25.4974 133.456,-33.7763 120.683,-41.1479"/>
<polygon fill="black" stroke="black" points="118.757,-38.2202 111.917,-46.3105 122.31,-44.252 118.757,-38.2202"/>
<text text-anchor="middle" x="230.1" y="-5.23828" font-family="Times New Roman,serif" font-size="14.00">&#45;</text>
</g>
<!-- 3&#45;&gt;2 -->
<g id="edge8" class="edge"><title>3&#45;&gt;2</title>
<path fill="none" stroke="black" d="M285.631,-95.2406C294.353,-88.8219 305.743,-80.2937 315.6,-72.4383 320.488,-68.5429 325.64,-64.2916 330.54,-60.1754"/>
<polygon fill="black" stroke="black" points="333.094,-62.5989 338.459,-53.4625 328.568,-57.2593 333.094,-62.5989"/>
<text text-anchor="middle" x="311.1" y="-82.2383" font-family="Times New Roman,serif" font-size="14.00">+</text>
</g>
<!-- 3&#45;&gt;3 -->
<g id="edge9" class="edge"><title>3&#45;&gt;3</title>
<path fill="none" stroke="black" d="M263.569,-122.102C262.006,-132.063 264.35,-141.438 270.6,-141.438 274.604,-141.438 277.005,-137.591 277.802,-132.207"/>
<polygon fill="black" stroke="black" points="281.3,-132.042 277.631,-122.102 274.301,-132.16 281.3,-132.042"/>
<text text-anchor="middle" x="270.6" y="-145.238" font-family="Times New Roman,serif" font-size="14.00">&#45;</text>
</g>
</g>
</svg>
