<?xml version="1.0" encoding="UTF-8" standalone="no"?>
<!DOCTYPE svg PUBLIC "-//W3C//DTD SVG 1.1//EN"
 "http://www.w3.org/Graphics/SVG/1.1/DTD/svg11.dtd">
<!-- Generated by graphviz version 2.38.0 (20140413.2041)
 -->
<!-- Title: dfa Pages: 1 -->
<svg width="212pt" height="118pt"
 viewBox="0.00 0.00 211.60 118.00" xmlns="http://www.w3.org/2000/svg" xmlns:xlink="http://www.w3.org/1999/xlink">
<g id="graph0" class="graph" transform="scale(1 1) rotate(0) translate(4 114)">
<title>dfa</title>
<polygon fill="white" stroke="none" points="-4,4 -4,-114 207.6,-114 207.6,4 -4,4"/>
<!-- __start -->
<!-- 0 -->
<g id="node2" class="node"><title>0</title>
<ellipse fill="none" stroke="black" cx="91.6" cy="-22" rx="27" ry="18"/>
<text text-anchor="middle" x="91.6" y="-18.3" font-family="Times New Roman,serif" font-size="14.00">0</text>
</g>
<!-- __start&#45;&gt;0 -->
<g id="edge1" class="edge"><title>__start&#45;&gt;0</title>
<path fill="none" stroke="black" d="M3.78604,-22C8.86985,-22 32.7092,-22 54.1222,-22"/>
<polygon fill="black" stroke="black" points="54.3463,-25.5001 64.3463,-22 54.3463,-18.5001 54.3463,-25.5001"/>
<text text-anchor="middle" x="34.1" y="-25.8" font-family="Times New Roman,serif" font-size="14.00">start</text>
</g>
<!-- 0&#45;&gt;0 -->
<g id="edge4" class="edge"><title>0&#45;&gt;0</title>
<path fill="none" stroke="black" d="M83.3877,-39.4099C81.8548,-49.0879 84.5922,-58 91.6,-58 95.9799,-58 98.6916,-54.5187 99.7353,-49.5449"/>
<polygon fill="black" stroke="black" points="103.236,-49.4362 99.8123,-39.4099 96.2363,-49.383 103.236,-49.4362"/>
<text text-anchor="middle" x="91.6" y="-61.8" font-family="Times New Roman,serif" font-size="14.00">+</text>
</g>
<!-- 1 -->
<g id="node3" class="node"><title>1</title>
<ellipse fill="none" stroke="black" cx="181.6" cy="-22" rx="18" ry="18"/>
<ellipse fill="none" stroke="black" cx="181.6" cy="-22" rx="22" ry="22"/>
<text text-anchor="middle" x="181.6" y="-18.3" font-family="Times New Roman,serif" font-size="14.00">1</text>
</g>
<!-- 0&#45;&gt;1 -->
<g id="edge5" class="edge"><title>0&#45;&gt;1</title>
<path fill="none" stroke="black" d="M119.003,-22C128.521,-22 139.354,-22 149.253,-22"/>
<polygon fill="black" stroke="black" points="149.522,-25.5001 159.522,-22 149.522,-18.5001 149.522,-25.5001"/>
<text text-anchor="middle" x="139.1" y="-25.8" font-family="Times New Roman,serif" font-size="14.00">&#45;</text>
</g>
<!-- 1&#45;&gt;1 -->
<g id="edge2" class="edge"><title>1&#45;&gt;1</title>
<path fill="none" stroke="black" d="M177.724,-43.8066C177.355,-53.5625 178.647,-62 181.6,-62 183.446,-62 184.643,-58.7041 185.19,-53.8504"/>
<polygon fill="black" stroke="black" points="188.69,-53.9021 185.476,-43.8066 181.693,-53.7031 188.69,-53.9021"/>
<text text-anchor="middle" x="181.6" y="-65.8" font-family="Times New Roman,serif" font-size="14.00">+</text>
</g>
<!-- 1&#45;&gt;1 -->
<g id="edge3" class="edge"><title>1&#45;&gt;1</title>
<path fill="none" stroke="black" d="M174.975,-43.1143C172.05,-61.0956 174.258,-80 181.6,-80 187.565,-80 190.141,-67.5201 189.329,-53.1954"/>
<polygon fill="black" stroke="black" points="192.793,-52.6738 188.225,-43.1143 185.834,-53.4359 192.793,-52.6738"/>
<text text-anchor="middle" x="181.6" y="-83.8" font-family="Times New Roman,serif" font-size="14.00">&#45;</text>
</g>
</g>
</svg>
