<?xml version="1.0" encoding="UTF-8" standalone="no"?>
<!DOCTYPE svg PUBLIC "-//W3C//DTD SVG 1.1//EN"
 "http://www.w3.org/Graphics/SVG/1.1/DTD/svg11.dtd">
<!-- Generated by graphviz version 2.38.0 (20140413.2041)
 -->
<!-- Title: dfa Pages: 1 -->
<svg width="368pt" height="164pt"
 viewBox="0.00 0.00 367.60 164.44" xmlns="http://www.w3.org/2000/svg" xmlns:xlink="http://www.w3.org/1999/xlink">
<g id="graph0" class="graph" transform="scale(1 1) rotate(0) translate(4 160.438)">
<title>dfa</title>
<polygon fill="white" stroke="none" points="-4,4 -4,-160.438 363.6,-160.438 363.6,4 -4,4"/>
<!-- __start -->
<!-- 0 -->
<g id="node2" class="node"><title>0</title>
<ellipse fill="none" stroke="black" cx="82.6" cy="-58.4383" rx="18" ry="18"/>
<text text-anchor="middle" x="82.6" y="-54.7383" font-family="Times New Roman,serif" font-size="14.00">0</text>
</g>
<!-- __start&#45;&gt;0 -->
<g id="edge1" class="edge"><title>__start&#45;&gt;0</title>
<path fill="none" stroke="black" d="M3.68496,-58.4383C8.69573,-58.4383 34.008,-58.4383 54.4423,-58.4383"/>
<polygon fill="black" stroke="black" points="54.5501,-61.9384 64.5501,-58.4383 54.5501,-54.9384 54.5501,-61.9384"/>
<text text-anchor="middle" x="34.1" y="-62.2383" font-family="Times New Roman,serif" font-size="14.00">start</text>
</g>
<!-- 1 -->
<g id="node3" class="node"><title>1</title>
<ellipse fill="none" stroke="black" cx="167.6" cy="-108.438" rx="18" ry="18"/>
<ellipse fill="none" stroke="black" cx="167.6" cy="-108.438" rx="22" ry="22"/>
<text text-anchor="middle" x="167.6" y="-104.738" font-family="Times New Roman,serif" font-size="14.00">1</text>
</g>
<!-- 0&#45;&gt;1 -->
<g id="edge4" class="edge"><title>0&#45;&gt;1</title>
<path fill="none" stroke="black" d="M90.4303,-74.8121C96.1389,-86.1901 105.472,-100.508 118.6,-107.438 123.668,-110.113 129.475,-111.424 135.26,-111.909"/>
<polygon fill="black" stroke="black" points="135.449,-115.411 145.483,-112.01 135.518,-108.412 135.449,-115.411"/>
<text text-anchor="middle" x="123.1" y="-114.238" font-family="Times New Roman,serif" font-size="14.00">+</text>
</g>
<!-- 2 -->
<g id="node4" class="node"><title>2</title>
<ellipse fill="none" stroke="black" cx="337.6" cy="-39.4383" rx="18" ry="18"/>
<ellipse fill="none" stroke="black" cx="337.6" cy="-39.4383" rx="22" ry="22"/>
<text text-anchor="middle" x="337.6" y="-35.7383" font-family="Times New Roman,serif" font-size="14.00">2</text>
</g>
<!-- 0&#45;&gt;2 -->
<g id="edge5" class="edge"><title>0&#45;&gt;2</title>
<path fill="none" stroke="black" d="M100.593,-57.1621C142.556,-54.0108 251.584,-45.8229 305.491,-41.7745"/>
<polygon fill="black" stroke="black" points="305.792,-45.2619 315.502,-41.0227 305.268,-38.2815 305.792,-45.2619"/>
<text text-anchor="middle" x="212.1" y="-52.2383" font-family="Times New Roman,serif" font-size="14.00">&#45;</text>
</g>
<!-- 1&#45;&gt;0 -->
<g id="edge6" class="edge"><title>1&#45;&gt;0</title>
<path fill="none" stroke="black" d="M148.414,-97.483C136.352,-90.2166 120.4,-80.607 107.34,-72.7396"/>
<polygon fill="black" stroke="black" points="108.811,-69.5394 98.4387,-67.3773 105.198,-75.5355 108.811,-69.5394"/>
<text text-anchor="middle" x="123.1" y="-88.2383" font-family="Times New Roman,serif" font-size="14.00">+</text>
</g>
<!-- 3 -->
<g id="node5" class="node"><title>3</title>
<ellipse fill="none" stroke="black" cx="252.6" cy="-105.438" rx="18" ry="18"/>
<text text-anchor="middle" x="252.6" y="-101.738" font-family="Times New Roman,serif" font-size="14.00">3</text>
</g>
<!-- 1&#45;&gt;3 -->
<g id="edge7" class="edge"><title>1&#45;&gt;3</title>
<path fill="none" stroke="black" d="M189.975,-107.666C200.458,-107.287 213.201,-106.826 224.373,-106.422"/>
<polygon fill="black" stroke="black" points="224.611,-109.916 234.478,-106.057 224.358,-102.921 224.611,-109.916"/>
<text text-anchor="middle" x="212.1" y="-110.238" font-family="Times New Roman,serif" font-size="14.00">&#45;</text>
</g>
<!-- 2&#45;&gt;0 -->
<g id="edge2" class="edge"><title>2&#45;&gt;0</title>
<path fill="none" stroke="black" d="M316.066,-33.19C290.63,-26.2313 245.959,-16.5619 207.6,-21.4383 167.071,-26.5905 157.423,-31.7147 118.6,-44.4383 115.428,-45.4777 112.131,-46.6587 108.885,-47.8835"/>
<polygon fill="black" stroke="black" points="107.493,-44.6698 99.4721,-51.5917 110.059,-51.1826 107.493,-44.6698"/>
<text text-anchor="middle" x="212.1" y="-25.2383" font-family="Times New Roman,serif" font-size="14.00">+</text>
</g>
<!-- 2&#45;&gt;0 -->
<g id="edge3" class="edge"><title>2&#45;&gt;0</title>
<path fill="none" stroke="black" d="M318.178,-28.7049C293.479,-15.5551 248.051,4.31483 207.6,-1.43828 179.193,-5.47853 171.776,-7.68525 145.6,-19.4383 131.87,-25.6033 117.582,-34.4042 106.188,-42.0859"/>
<polygon fill="black" stroke="black" points="103.968,-39.3661 97.7364,-47.9347 107.951,-45.1222 103.968,-39.3661"/>
<text text-anchor="middle" x="212.1" y="-5.23828" font-family="Times New Roman,serif" font-size="14.00">&#45;</text>
</g>
<!-- 3&#45;&gt;2 -->
<g id="edge8" class="edge"><title>3&#45;&gt;2</title>
<path fill="none" stroke="black" d="M267.631,-95.2406C276.353,-88.8219 287.743,-80.2937 297.6,-72.4383 302.488,-68.5429 307.64,-64.2916 312.54,-60.1754"/>
<polygon fill="black" stroke="black" points="315.094,-62.5989 320.459,-53.4625 310.568,-57.2593 315.094,-62.5989"/>
<text text-anchor="middle" x="293.1" y="-82.2383" font-family="Times New Roman,serif" font-size="14.00">+</text>
</g>
<!-- 3&#45;&gt;3 -->
<g id="edge9" class="edge"><title>3&#45;&gt;3</title>
<path fill="none" stroke="black" d="M245.569,-122.102C244.006,-132.063 246.35,-141.438 252.6,-141.438 256.604,-141.438 259.005,-137.591 259.802,-132.207"/>
<polygon fill="black" stroke="black" points="263.3,-132.042 259.631,-122.102 256.301,-132.16 263.3,-132.042"/>
<text text-anchor="middle" x="252.6" y="-145.238" font-family="Times New Roman,serif" font-size="14.00">&#45;</text>
</g>
</g>
</svg>
