<?xml version="1.0" encoding="UTF-8" standalone="no"?>
<!DOCTYPE svg PUBLIC "-//W3C//DTD SVG 1.1//EN"
 "http://www.w3.org/Graphics/SVG/1.1/DTD/svg11.dtd">
<!-- Generated by graphviz version 2.38.0 (20140413.2041)
 -->
<!-- Title: dfa Pages: 1 -->
<svg width="669pt" height="170pt"
 viewBox="0.00 0.00 668.97 169.90" xmlns="http://www.w3.org/2000/svg" xmlns:xlink="http://www.w3.org/1999/xlink">
<g id="graph0" class="graph" transform="scale(1 1) rotate(0) translate(4 165.895)">
<title>dfa</title>
<polygon fill="white" stroke="none" points="-4,4 -4,-165.895 664.97,-165.895 664.97,4 -4,4"/>
<!-- __start -->
<!-- (0,0) -->
<g id="node2" class="node"><title>(0,0)</title>
<ellipse fill="none" stroke="black" cx="92.5475" cy="-64.9475" rx="27.8951" ry="27.8951"/>
<text text-anchor="middle" x="92.5475" y="-61.2475" font-family="Times New Roman,serif" font-size="14.00">(0,0)</text>
</g>
<!-- __start&#45;&gt;(0,0) -->
<g id="edge1" class="edge"><title>__start&#45;&gt;(0,0)</title>
<path fill="none" stroke="black" d="M3.79668,-64.9475C8.92583,-64.9475 32.9428,-64.9475 54.5557,-64.9475"/>
<polygon fill="black" stroke="black" points="54.5589,-68.4476 64.5589,-64.9475 54.5588,-61.4476 54.5589,-68.4476"/>
<text text-anchor="middle" x="34.1" y="-68.7475" font-family="Times New Roman,serif" font-size="14.00">start</text>
</g>
<!-- (1,0) -->
<g id="node3" class="node"><title>(1,0)</title>
<ellipse fill="none" stroke="black" cx="197.443" cy="-96.9475" rx="27.9017" ry="27.9017"/>
<ellipse fill="none" stroke="black" cx="197.443" cy="-96.9475" rx="31.8951" ry="31.8951"/>
<text text-anchor="middle" x="197.443" y="-93.2475" font-family="Times New Roman,serif" font-size="14.00">(1,0)</text>
</g>
<!-- (0,0)&#45;&gt;(1,0) -->
<g id="edge6" class="edge"><title>(0,0)&#45;&gt;(1,0)</title>
<path fill="none" stroke="black" d="M119.11,-74.4088C125.417,-76.6429 132.176,-78.9533 138.495,-80.9475 144.234,-82.7585 150.326,-84.5653 156.323,-86.278"/>
<polygon fill="black" stroke="black" points="155.671,-89.73 166.245,-89.0555 157.559,-82.9892 155.671,-89.73"/>
<text text-anchor="middle" x="142.995" y="-87.7475" font-family="Times New Roman,serif" font-size="14.00">+</text>
</g>
<!-- (2,1) -->
<g id="node5" class="node"><title>(2,1)</title>
<ellipse fill="none" stroke="black" cx="411.233" cy="-31.9475" rx="27.9017" ry="27.9017"/>
<ellipse fill="none" stroke="black" cx="411.233" cy="-31.9475" rx="31.8951" ry="31.8951"/>
<text text-anchor="middle" x="411.233" y="-28.2475" font-family="Times New Roman,serif" font-size="14.00">(2,1)</text>
</g>
<!-- (0,0)&#45;&gt;(2,1) -->
<g id="edge7" class="edge"><title>(0,0)&#45;&gt;(2,1)</title>
<path fill="none" stroke="black" d="M120.109,-59.8372C126.139,-58.7838 132.525,-57.7519 138.495,-56.9475 219.927,-45.9747 315.746,-38.395 369.081,-34.6473"/>
<polygon fill="black" stroke="black" points="369.43,-38.1316 379.165,-33.949 368.947,-31.1483 369.43,-38.1316"/>
<text text-anchor="middle" x="249.89" y="-48.7475" font-family="Times New Roman,serif" font-size="14.00">&#45;</text>
</g>
<!-- (1,0)&#45;&gt;(0,0) -->
<g id="edge10" class="edge"><title>(1,0)&#45;&gt;(0,0)</title>
<path fill="none" stroke="black" d="M173.184,-75.8734C165.542,-70.2288 156.647,-64.8829 147.495,-61.9475 142.08,-60.2107 136.204,-59.4647 130.389,-59.3377"/>
<polygon fill="black" stroke="black" points="129.974,-55.85 120.102,-59.6972 130.218,-62.8457 129.974,-55.85"/>
<text text-anchor="middle" x="142.995" y="-65.7475" font-family="Times New Roman,serif" font-size="14.00">+</text>
</g>
<!-- (3,1) -->
<g id="node4" class="node"><title>(3,1)</title>
<ellipse fill="none" stroke="black" cx="302.338" cy="-96.9475" rx="27.9017" ry="27.9017"/>
<ellipse fill="none" stroke="black" cx="302.338" cy="-96.9475" rx="31.8951" ry="31.8951"/>
<text text-anchor="middle" x="302.338" y="-93.2475" font-family="Times New Roman,serif" font-size="14.00">(3,1)</text>
</g>
<!-- (1,0)&#45;&gt;(3,1) -->
<g id="edge11" class="edge"><title>(1,0)&#45;&gt;(3,1)</title>
<path fill="none" stroke="black" d="M229.594,-96.9475C239.164,-96.9475 249.85,-96.9475 259.991,-96.9475"/>
<polygon fill="black" stroke="black" points="260.292,-100.448 270.292,-96.9475 260.292,-93.4476 260.292,-100.448"/>
<text text-anchor="middle" x="249.89" y="-100.748" font-family="Times New Roman,serif" font-size="14.00">&#45;</text>
</g>
<!-- (3,1)&#45;&gt;(3,1) -->
<g id="edge13" class="edge"><title>(3,1)&#45;&gt;(3,1)</title>
<path fill="none" stroke="black" d="M292.59,-127.675C292.487,-138.308 295.736,-146.895 302.338,-146.895 306.67,-146.895 309.558,-143.197 311.003,-137.65"/>
<polygon fill="black" stroke="black" points="314.486,-137.995 312.085,-127.675 307.527,-137.24 314.486,-137.995"/>
<text text-anchor="middle" x="302.338" y="-150.695" font-family="Times New Roman,serif" font-size="14.00">&#45;</text>
</g>
<!-- (3,1)&#45;&gt;(2,1) -->
<g id="edge12" class="edge"><title>(3,1)&#45;&gt;(2,1)</title>
<path fill="none" stroke="black" d="M330.036,-80.7129C343.556,-72.4921 360.152,-62.4004 374.732,-53.5346"/>
<polygon fill="black" stroke="black" points="376.778,-56.3866 383.504,-48.2004 373.141,-50.4055 376.778,-56.3866"/>
<text text-anchor="middle" x="356.785" y="-70.7475" font-family="Times New Roman,serif" font-size="14.00">+</text>
</g>
<!-- (0,1) -->
<g id="node6" class="node"><title>(0,1)</title>
<ellipse fill="none" stroke="black" cx="520.128" cy="-32.9475" rx="27.9017" ry="27.9017"/>
<ellipse fill="none" stroke="black" cx="520.128" cy="-32.9475" rx="31.8951" ry="31.8951"/>
<text text-anchor="middle" x="520.128" y="-29.2475" font-family="Times New Roman,serif" font-size="14.00">(0,1)</text>
</g>
<!-- (2,1)&#45;&gt;(0,1) -->
<g id="edge2" class="edge"><title>(2,1)&#45;&gt;(0,1)</title>
<path fill="none" stroke="black" d="M442.014,-41.1711C448.285,-42.7413 454.903,-44.1281 461.18,-44.9475 467.119,-45.7227 473.358,-45.5226 479.453,-44.7511"/>
<polygon fill="black" stroke="black" points="480.252,-48.1643 489.494,-42.9847 479.039,-41.2702 480.252,-48.1643"/>
<text text-anchor="middle" x="465.68" y="-49.7475" font-family="Times New Roman,serif" font-size="14.00">+</text>
</g>
<!-- (2,1)&#45;&gt;(0,1) -->
<g id="edge3" class="edge"><title>(2,1)&#45;&gt;(0,1)</title>
<path fill="none" stroke="black" d="M442.875,-26.771C451.68,-25.8275 461.302,-25.3159 470.18,-25.9475 472.857,-26.138 475.611,-26.3863 478.382,-26.6756"/>
<polygon fill="black" stroke="black" points="478.044,-30.16 488.389,-27.8718 478.875,-23.2095 478.044,-30.16"/>
<text text-anchor="middle" x="465.68" y="-29.7475" font-family="Times New Roman,serif" font-size="14.00">&#45;</text>
</g>
<!-- (0,1)&#45;&gt;(2,1) -->
<g id="edge5" class="edge"><title>(0,1)&#45;&gt;(2,1)</title>
<path fill="none" stroke="black" d="M492.897,-16.0194C485.8,-12.2898 477.93,-8.87803 470.18,-6.94752 462.331,-4.99221 454.19,-6.24392 446.577,-9.01553"/>
<polygon fill="black" stroke="black" points="444.955,-5.9079 437.28,-13.2121 447.834,-12.2881 444.955,-5.9079"/>
<text text-anchor="middle" x="465.68" y="-10.7475" font-family="Times New Roman,serif" font-size="14.00">&#45;</text>
</g>
<!-- (1,1) -->
<g id="node7" class="node"><title>(1,1)</title>
<ellipse fill="none" stroke="black" cx="629.023" cy="-70.9475" rx="27.9017" ry="27.9017"/>
<ellipse fill="none" stroke="black" cx="629.023" cy="-70.9475" rx="31.8951" ry="31.8951"/>
<text text-anchor="middle" x="629.023" y="-67.2475" font-family="Times New Roman,serif" font-size="14.00">(1,1)</text>
</g>
<!-- (0,1)&#45;&gt;(1,1) -->
<g id="edge4" class="edge"><title>(0,1)&#45;&gt;(1,1)</title>
<path fill="none" stroke="black" d="M550.62,-43.4318C562.537,-47.6682 576.458,-52.6169 589.182,-57.1402"/>
<polygon fill="black" stroke="black" points="588.032,-60.4457 598.626,-60.4975 590.376,-53.85 588.032,-60.4457"/>
<text text-anchor="middle" x="574.575" y="-57.7475" font-family="Times New Roman,serif" font-size="14.00">+</text>
</g>
<!-- (1,1)&#45;&gt;(3,1) -->
<g id="edge9" class="edge"><title>(1,1)&#45;&gt;(3,1)</title>
<path fill="none" stroke="black" d="M596.985,-73.433C538.149,-78.1444 410.397,-88.3745 344.495,-93.6517"/>
<polygon fill="black" stroke="black" points="344.158,-90.1674 334.47,-94.4545 344.717,-97.1451 344.158,-90.1674"/>
<text text-anchor="middle" x="465.68" y="-88.7475" font-family="Times New Roman,serif" font-size="14.00">&#45;</text>
</g>
<!-- (1,1)&#45;&gt;(0,1) -->
<g id="edge8" class="edge"><title>(1,1)&#45;&gt;(0,1)</title>
<path fill="none" stroke="black" d="M606.101,-48.3221C598.266,-41.7356 588.921,-35.3905 579.075,-31.9475 573.733,-30.0794 567.94,-29.0804 562.153,-28.659"/>
<polygon fill="black" stroke="black" points="561.907,-25.1537 551.842,-28.461 561.773,-32.1524 561.907,-25.1537"/>
<text text-anchor="middle" x="574.575" y="-35.7475" font-family="Times New Roman,serif" font-size="14.00">+</text>
</g>
</g>
</svg>
