<?xml version="1.0" encoding="UTF-8" standalone="no"?>
<!DOCTYPE svg PUBLIC "-//W3C//DTD SVG 1.1//EN"
 "http://www.w3.org/Graphics/SVG/1.1/DTD/svg11.dtd">
<!-- Generated by graphviz version 2.38.0 (20140413.2041)
 -->
<!-- Title: enfa Pages: 1 -->
<svg width="362pt" height="142pt"
 viewBox="0.00 0.00 361.60 142.42" xmlns="http://www.w3.org/2000/svg" xmlns:xlink="http://www.w3.org/1999/xlink">
<g id="graph0" class="graph" transform="scale(1 1) rotate(0) translate(4 138.425)">
<title>enfa</title>
<polygon fill="white" stroke="none" points="-4,4 -4,-138.425 357.6,-138.425 357.6,4 -4,4"/>
<!-- __start -->
<!-- 0 -->
<g id="node2" class="node"><title>0</title>
<ellipse fill="none" stroke="black" cx="82.6" cy="-74.4248" rx="18" ry="18"/>
<text text-anchor="middle" x="82.6" y="-70.7248" font-family="Times New Roman,serif" font-size="14.00">0</text>
</g>
<!-- __start&#45;&gt;0 -->
<g id="edge1" class="edge"><title>__start&#45;&gt;0</title>
<path fill="none" stroke="black" d="M3.68496,-74.4248C8.69573,-74.4248 34.008,-74.4248 54.4423,-74.4248"/>
<polygon fill="black" stroke="black" points="54.5501,-77.9249 64.5501,-74.4248 54.5501,-70.9249 54.5501,-77.9249"/>
<text text-anchor="middle" x="34.1" y="-78.2248" font-family="Times New Roman,serif" font-size="14.00">start</text>
</g>
<!-- 0&#45;&gt;0 -->
<g id="edge5" class="edge"><title>0&#45;&gt;0</title>
<path fill="none" stroke="black" d="M75.8664,-91.4621C74.4922,-101.283 76.7367,-110.425 82.6,-110.425 86.2646,-110.425 88.5155,-106.854 89.3529,-101.778"/>
<polygon fill="black" stroke="black" points="92.8524,-101.456 89.3336,-91.4621 85.8524,-101.469 92.8524,-101.456"/>
<text text-anchor="middle" x="82.6" y="-114.225" font-family="Times New Roman,serif" font-size="14.00">ε</text>
</g>
<!-- 2 -->
<g id="node4" class="node"><title>2</title>
<ellipse fill="none" stroke="black" cx="165.6" cy="-74.4248" rx="18" ry="18"/>
<ellipse fill="none" stroke="black" cx="165.6" cy="-74.4248" rx="22" ry="22"/>
<text text-anchor="middle" x="165.6" y="-70.7248" font-family="Times New Roman,serif" font-size="14.00">2</text>
</g>
<!-- 0&#45;&gt;2 -->
<g id="edge7" class="edge"><title>0&#45;&gt;2</title>
<path fill="none" stroke="black" d="M97.9113,-64.5591C104.002,-60.9313 111.363,-57.2626 118.6,-55.4248 125.085,-53.778 131.856,-54.866 138.146,-57.185"/>
<polygon fill="black" stroke="black" points="136.989,-60.5097 147.525,-61.6262 139.985,-54.1832 136.989,-60.5097"/>
<text text-anchor="middle" x="122.1" y="-59.2248" font-family="Times New Roman,serif" font-size="14.00">s</text>
</g>
<!-- 3 -->
<g id="node5" class="node"><title>3</title>
<ellipse fill="none" stroke="black" cx="252.6" cy="-20.4248" rx="18" ry="18"/>
<text text-anchor="middle" x="252.6" y="-16.7248" font-family="Times New Roman,serif" font-size="14.00">3</text>
</g>
<!-- 0&#45;&gt;3 -->
<g id="edge4" class="edge"><title>0&#45;&gt;3</title>
<path fill="none" stroke="black" d="M95.589,-61.7637C106.835,-50.8059 124.711,-35.6214 143.6,-28.4248 169.721,-18.4731 201.927,-17.3821 224.342,-18.2166"/>
<polygon fill="black" stroke="black" points="224.318,-21.7201 234.489,-18.7505 224.686,-14.7298 224.318,-21.7201"/>
<text text-anchor="middle" x="165.6" y="-32.2248" font-family="Times New Roman,serif" font-size="14.00">ε</text>
</g>
<!-- 1 -->
<g id="node3" class="node"><title>1</title>
<ellipse fill="none" stroke="black" cx="252.6" cy="-112.425" rx="18" ry="18"/>
<ellipse fill="none" stroke="black" cx="252.6" cy="-112.425" rx="22" ry="22"/>
<text text-anchor="middle" x="252.6" y="-108.725" font-family="Times New Roman,serif" font-size="14.00">1</text>
</g>
<!-- 1&#45;&gt;0 -->
<g id="edge8" class="edge"><title>1&#45;&gt;0</title>
<path fill="none" stroke="black" d="M230.552,-113.063C224.737,-113.213 218.424,-113.35 212.6,-113.425 181.73,-113.821 173.201,-114.191 143.6,-105.425 131.783,-101.925 129.575,-99.0332 118.6,-93.4248 115.133,-91.6531 111.498,-89.7415 107.936,-87.8372"/>
<polygon fill="black" stroke="black" points="109.306,-84.5988 98.8456,-82.915 105.973,-90.7543 109.306,-84.5988"/>
<text text-anchor="middle" x="165.6" y="-117.225" font-family="Times New Roman,serif" font-size="14.00">s</text>
</g>
<!-- 1&#45;&gt;2 -->
<g id="edge12" class="edge"><title>1&#45;&gt;2</title>
<path fill="none" stroke="black" d="M239.354,-94.3809C232.564,-86.0184 223.324,-76.9467 212.6,-72.4248 207.964,-70.4701 202.828,-69.5975 197.716,-69.3929"/>
<polygon fill="black" stroke="black" points="197.291,-65.9063 187.43,-69.7788 197.554,-72.9014 197.291,-65.9063"/>
<text text-anchor="middle" x="209.1" y="-76.2248" font-family="Times New Roman,serif" font-size="14.00">r</text>
</g>
<!-- 2&#45;&gt;0 -->
<g id="edge6" class="edge"><title>2&#45;&gt;0</title>
<path fill="none" stroke="black" d="M143.411,-74.4248C133.448,-74.4248 121.449,-74.4248 110.822,-74.4248"/>
<polygon fill="black" stroke="black" points="110.778,-70.9249 100.778,-74.4248 110.778,-77.9249 110.778,-70.9249"/>
<text text-anchor="middle" x="122.1" y="-78.2248" font-family="Times New Roman,serif" font-size="14.00">s</text>
</g>
<!-- 2&#45;&gt;1 -->
<g id="edge2" class="edge"><title>2&#45;&gt;1</title>
<path fill="none" stroke="black" d="M185.888,-83.0476C196.787,-87.9202 210.624,-94.1062 222.787,-99.5437"/>
<polygon fill="black" stroke="black" points="221.537,-102.818 232.094,-103.705 224.394,-96.428 221.537,-102.818"/>
<text text-anchor="middle" x="209.1" y="-98.2248" font-family="Times New Roman,serif" font-size="14.00">ε</text>
</g>
<!-- 2&#45;&gt;3 -->
<g id="edge3" class="edge"><title>2&#45;&gt;3</title>
<path fill="none" stroke="black" d="M184.626,-62.9728C197.419,-54.846 214.698,-43.8683 228.501,-35.0992"/>
<polygon fill="black" stroke="black" points="230.424,-38.0244 236.988,-29.7077 226.67,-32.1159 230.424,-38.0244"/>
<text text-anchor="middle" x="209.1" y="-52.2248" font-family="Times New Roman,serif" font-size="14.00">ε</text>
</g>
<!-- 4 -->
<g id="node6" class="node"><title>4</title>
<ellipse fill="none" stroke="black" cx="335.6" cy="-20.4248" rx="18" ry="18"/>
<text text-anchor="middle" x="335.6" y="-16.7248" font-family="Times New Roman,serif" font-size="14.00">4</text>
</g>
<!-- 3&#45;&gt;4 -->
<g id="edge9" class="edge"><title>3&#45;&gt;4</title>
<path fill="none" stroke="black" d="M270.778,-20.4248C281.41,-20.4248 295.294,-20.4248 307.396,-20.4248"/>
<polygon fill="black" stroke="black" points="307.447,-23.9249 317.447,-20.4248 307.447,-16.9249 307.447,-23.9249"/>
<text text-anchor="middle" x="296.1" y="-24.2248" font-family="Times New Roman,serif" font-size="14.00">r</text>
</g>
<!-- 3&#45;&gt;4 -->
<g id="edge13" class="edge"><title>3&#45;&gt;4</title>
<path fill="none" stroke="black" d="M267.338,-9.65074C276.3,-3.91452 288.378,1.42481 299.6,-1.42481 303.558,-2.42984 307.553,-3.98247 311.356,-5.77652"/>
<polygon fill="black" stroke="black" points="309.821,-8.92437 320.289,-10.5591 313.125,-2.75326 309.821,-8.92437"/>
<text text-anchor="middle" x="296.1" y="-5.22481" font-family="Times New Roman,serif" font-size="14.00">s</text>
</g>
<!-- 4&#45;&gt;4 -->
<g id="edge10" class="edge"><title>4&#45;&gt;4</title>
<path fill="none" stroke="black" d="M332.184,-38.2065C331.604,-47.7397 332.743,-56.4248 335.6,-56.4248 337.341,-56.4248 338.444,-53.1997 338.909,-48.5229"/>
<polygon fill="black" stroke="black" points="342.412,-48.2422 339.016,-38.2065 335.412,-48.1698 342.412,-48.2422"/>
<text text-anchor="middle" x="335.6" y="-60.2248" font-family="Times New Roman,serif" font-size="14.00">s</text>
</g>
<!-- 4&#45;&gt;4 -->
<g id="edge11" class="edge"><title>4&#45;&gt;4</title>
<path fill="none" stroke="black" d="M330.041,-37.5666C326.77,-55.0098 328.623,-74.4248 335.6,-74.4248 341.214,-74.4248 343.51,-61.8531 342.489,-47.8535"/>
<polygon fill="black" stroke="black" points="345.913,-47.0353 341.159,-37.5666 338.97,-47.9328 345.913,-47.0353"/>
<text text-anchor="middle" x="335.6" y="-78.2248" font-family="Times New Roman,serif" font-size="14.00">r</text>
</g>
</g>
</svg>
