<?xml version="1.0" encoding="UTF-8" standalone="no"?>
<!DOCTYPE svg PUBLIC "-//W3C//DTD SVG 1.1//EN"
 "http://www.w3.org/Graphics/SVG/1.1/DTD/svg11.dtd">
<!-- Generated by graphviz version 2.38.0 (20140413.2041)
 -->
<!-- Title: enfa Pages: 1 -->
<svg width="380pt" height="142pt"
 viewBox="0.00 0.00 379.60 142.42" xmlns="http://www.w3.org/2000/svg" xmlns:xlink="http://www.w3.org/1999/xlink">
<g id="graph0" class="graph" transform="scale(1 1) rotate(0) translate(4 138.425)">
<title>enfa</title>
<polygon fill="white" stroke="none" points="-4,4 -4,-138.425 375.6,-138.425 375.6,4 -4,4"/>
<!-- __start -->
<!-- 0 -->
<g id="node2" class="node"><title>0</title>
<ellipse fill="none" stroke="black" cx="91.6" cy="-74.4248" rx="27" ry="18"/>
<text text-anchor="middle" x="91.6" y="-70.7248" font-family="Times New Roman,serif" font-size="14.00">0</text>
</g>
<!-- __start&#45;&gt;0 -->
<g id="edge1" class="edge"><title>__start&#45;&gt;0</title>
<path fill="none" stroke="black" d="M3.78604,-74.4248C8.86985,-74.4248 32.7092,-74.4248 54.1222,-74.4248"/>
<polygon fill="black" stroke="black" points="54.3463,-77.9249 64.3463,-74.4248 54.3463,-70.9249 54.3463,-77.9249"/>
<text text-anchor="middle" x="34.1" y="-78.2248" font-family="Times New Roman,serif" font-size="14.00">start</text>
</g>
<!-- 0&#45;&gt;0 -->
<g id="edge5" class="edge"><title>0&#45;&gt;0</title>
<path fill="none" stroke="black" d="M83.0307,-91.8347C81.4311,-101.513 84.2875,-110.425 91.6,-110.425 96.1703,-110.425 99,-106.944 100.089,-101.97"/>
<polygon fill="black" stroke="black" points="103.59,-101.862 100.169,-91.8347 96.5901,-101.807 103.59,-101.862"/>
<text text-anchor="middle" x="91.6" y="-114.225" font-family="Times New Roman,serif" font-size="14.00">ε</text>
</g>
<!-- 2 -->
<g id="node4" class="node"><title>2</title>
<ellipse fill="none" stroke="black" cx="183.6" cy="-74.4248" rx="18" ry="18"/>
<ellipse fill="none" stroke="black" cx="183.6" cy="-74.4248" rx="22" ry="22"/>
<text text-anchor="middle" x="183.6" y="-70.7248" font-family="Times New Roman,serif" font-size="14.00">2</text>
</g>
<!-- 0&#45;&gt;2 -->
<g id="edge7" class="edge"><title>0&#45;&gt;2</title>
<path fill="none" stroke="black" d="M111.133,-61.8779C120.655,-56.8922 132.552,-52.8767 143.6,-55.4248 147.343,-56.288 151.142,-57.5614 154.827,-59.0472"/>
<polygon fill="black" stroke="black" points="153.647,-62.3564 164.196,-63.3407 156.563,-55.9928 153.647,-62.3564"/>
<text text-anchor="middle" x="140.1" y="-59.2248" font-family="Times New Roman,serif" font-size="14.00">s</text>
</g>
<!-- 3 -->
<g id="node5" class="node"><title>3</title>
<ellipse fill="none" stroke="black" cx="270.6" cy="-20.4248" rx="18" ry="18"/>
<text text-anchor="middle" x="270.6" y="-16.7248" font-family="Times New Roman,serif" font-size="14.00">3</text>
</g>
<!-- 0&#45;&gt;3 -->
<g id="edge4" class="edge"><title>0&#45;&gt;3</title>
<path fill="none" stroke="black" d="M108.589,-60.2487C121.805,-49.4488 141.585,-35.3022 161.6,-28.4248 188.035,-19.3414 220.191,-18.1102 242.507,-18.6744"/>
<polygon fill="black" stroke="black" points="242.475,-22.1757 252.604,-19.0691 242.748,-15.1811 242.475,-22.1757"/>
<text text-anchor="middle" x="183.6" y="-32.2248" font-family="Times New Roman,serif" font-size="14.00">ε</text>
</g>
<!-- 1 -->
<g id="node3" class="node"><title>1</title>
<ellipse fill="none" stroke="black" cx="270.6" cy="-112.425" rx="18" ry="18"/>
<ellipse fill="none" stroke="black" cx="270.6" cy="-112.425" rx="22" ry="22"/>
<text text-anchor="middle" x="270.6" y="-108.725" font-family="Times New Roman,serif" font-size="14.00">1</text>
</g>
<!-- 1&#45;&gt;0 -->
<g id="edge8" class="edge"><title>1&#45;&gt;0</title>
<path fill="none" stroke="black" d="M248.516,-113.642C240.685,-113.895 231.731,-113.947 223.6,-113.425 195.873,-111.643 188.338,-112.977 161.6,-105.425 148.237,-101.65 134.142,-95.7055 122.199,-90.027"/>
<polygon fill="black" stroke="black" points="123.656,-86.8434 113.138,-85.5766 120.57,-93.1266 123.656,-86.8434"/>
<text text-anchor="middle" x="183.6" y="-116.225" font-family="Times New Roman,serif" font-size="14.00">s</text>
</g>
<!-- 1&#45;&gt;2 -->
<g id="edge12" class="edge"><title>1&#45;&gt;2</title>
<path fill="none" stroke="black" d="M257.354,-94.3809C250.564,-86.0184 241.324,-76.9467 230.6,-72.4248 225.964,-70.4701 220.828,-69.5975 215.716,-69.3929"/>
<polygon fill="black" stroke="black" points="215.291,-65.9063 205.43,-69.7788 215.554,-72.9014 215.291,-65.9063"/>
<text text-anchor="middle" x="227.1" y="-76.2248" font-family="Times New Roman,serif" font-size="14.00">r</text>
</g>
<!-- 2&#45;&gt;0 -->
<g id="edge6" class="edge"><title>2&#45;&gt;0</title>
<path fill="none" stroke="black" d="M161.469,-74.4248C151.766,-74.4248 139.98,-74.4248 128.92,-74.4248"/>
<polygon fill="black" stroke="black" points="128.632,-70.9249 118.632,-74.4248 128.632,-77.9249 128.632,-70.9249"/>
<text text-anchor="middle" x="140.1" y="-78.2248" font-family="Times New Roman,serif" font-size="14.00">s</text>
</g>
<!-- 2&#45;&gt;1 -->
<g id="edge2" class="edge"><title>2&#45;&gt;1</title>
<path fill="none" stroke="black" d="M203.888,-83.0476C214.787,-87.9202 228.624,-94.1062 240.787,-99.5437"/>
<polygon fill="black" stroke="black" points="239.537,-102.818 250.094,-103.705 242.394,-96.428 239.537,-102.818"/>
<text text-anchor="middle" x="227.1" y="-98.2248" font-family="Times New Roman,serif" font-size="14.00">ε</text>
</g>
<!-- 2&#45;&gt;3 -->
<g id="edge3" class="edge"><title>2&#45;&gt;3</title>
<path fill="none" stroke="black" d="M202.626,-62.9728C215.419,-54.846 232.698,-43.8683 246.501,-35.0992"/>
<polygon fill="black" stroke="black" points="248.424,-38.0244 254.988,-29.7077 244.67,-32.1159 248.424,-38.0244"/>
<text text-anchor="middle" x="227.1" y="-52.2248" font-family="Times New Roman,serif" font-size="14.00">ε</text>
</g>
<!-- 4 -->
<g id="node6" class="node"><title>4</title>
<ellipse fill="none" stroke="black" cx="353.6" cy="-20.4248" rx="18" ry="18"/>
<text text-anchor="middle" x="353.6" y="-16.7248" font-family="Times New Roman,serif" font-size="14.00">4</text>
</g>
<!-- 3&#45;&gt;4 -->
<g id="edge9" class="edge"><title>3&#45;&gt;4</title>
<path fill="none" stroke="black" d="M288.778,-20.4248C299.41,-20.4248 313.294,-20.4248 325.396,-20.4248"/>
<polygon fill="black" stroke="black" points="325.447,-23.9249 335.447,-20.4248 325.447,-16.9249 325.447,-23.9249"/>
<text text-anchor="middle" x="314.1" y="-24.2248" font-family="Times New Roman,serif" font-size="14.00">r</text>
</g>
<!-- 3&#45;&gt;4 -->
<g id="edge13" class="edge"><title>3&#45;&gt;4</title>
<path fill="none" stroke="black" d="M285.338,-9.65074C294.3,-3.91452 306.378,1.42481 317.6,-1.42481 321.558,-2.42984 325.553,-3.98247 329.356,-5.77652"/>
<polygon fill="black" stroke="black" points="327.821,-8.92437 338.289,-10.5591 331.125,-2.75326 327.821,-8.92437"/>
<text text-anchor="middle" x="314.1" y="-5.22481" font-family="Times New Roman,serif" font-size="14.00">s</text>
</g>
<!-- 4&#45;&gt;4 -->
<g id="edge10" class="edge"><title>4&#45;&gt;4</title>
<path fill="none" stroke="black" d="M350.184,-38.2065C349.604,-47.7397 350.743,-56.4248 353.6,-56.4248 355.341,-56.4248 356.444,-53.1997 356.909,-48.5229"/>
<polygon fill="black" stroke="black" points="360.412,-48.2422 357.016,-38.2065 353.412,-48.1698 360.412,-48.2422"/>
<text text-anchor="middle" x="353.6" y="-60.2248" font-family="Times New Roman,serif" font-size="14.00">s</text>
</g>
<!-- 4&#45;&gt;4 -->
<g id="edge11" class="edge"><title>4&#45;&gt;4</title>
<path fill="none" stroke="black" d="M348.041,-37.5666C344.77,-55.0098 346.623,-74.4248 353.6,-74.4248 359.214,-74.4248 361.51,-61.8531 360.489,-47.8535"/>
<polygon fill="black" stroke="black" points="363.913,-47.0353 359.159,-37.5666 356.97,-47.9328 363.913,-47.0353"/>
<text text-anchor="middle" x="353.6" y="-78.2248" font-family="Times New Roman,serif" font-size="14.00">r</text>
</g>
</g>
</svg>
