<?xml version="1.0" encoding="UTF-8" standalone="no"?>
<!DOCTYPE svg PUBLIC "-//W3C//DTD SVG 1.1//EN"
 "http://www.w3.org/Graphics/SVG/1.1/DTD/svg11.dtd">
<!-- Generated by graphviz version 2.38.0 (20140413.2041)
 -->
<!-- Title: dfa Pages: 1 -->
<svg width="196pt" height="205pt"
 viewBox="0.00 0.00 195.60 205.00" xmlns="http://www.w3.org/2000/svg" xmlns:xlink="http://www.w3.org/1999/xlink">
<g id="graph0" class="graph" transform="scale(1 1) rotate(0) translate(4 201)">
<title>dfa</title>
<polygon fill="white" stroke="none" points="-4,4 -4,-201 191.6,-201 191.6,4 -4,4"/>
<!-- __start -->
<!-- 0 -->
<g id="node2" class="node"><title>0</title>
<ellipse fill="none" stroke="black" cx="82.6" cy="-104" rx="18" ry="18"/>
<text text-anchor="middle" x="82.6" y="-100.3" font-family="Times New Roman,serif" font-size="14.00">0</text>
</g>
<!-- __start&#45;&gt;0 -->
<g id="edge1" class="edge"><title>__start&#45;&gt;0</title>
<path fill="none" stroke="black" d="M3.68496,-104C8.69573,-104 34.008,-104 54.4423,-104"/>
<polygon fill="black" stroke="black" points="54.5501,-107.5 64.5501,-104 54.5501,-100.5 54.5501,-107.5"/>
<text text-anchor="middle" x="34.1" y="-107.8" font-family="Times New Roman,serif" font-size="14.00">start</text>
</g>
<!-- 1 -->
<g id="node3" class="node"><title>1</title>
<ellipse fill="none" stroke="black" cx="165.6" cy="-142" rx="18" ry="18"/>
<ellipse fill="none" stroke="black" cx="165.6" cy="-142" rx="22" ry="22"/>
<text text-anchor="middle" x="165.6" y="-138.3" font-family="Times New Roman,serif" font-size="14.00">1</text>
</g>
<!-- 0&#45;&gt;1 -->
<g id="edge2" class="edge"><title>0&#45;&gt;1</title>
<path fill="none" stroke="black" d="M99.2176,-111.327C109.695,-116.242 123.8,-122.859 136.226,-128.689"/>
<polygon fill="black" stroke="black" points="134.774,-131.874 145.314,-132.952 137.748,-125.536 134.774,-131.874"/>
<text text-anchor="middle" x="122.1" y="-126.8" font-family="Times New Roman,serif" font-size="14.00">s</text>
</g>
<!-- 2 -->
<g id="node4" class="node"><title>2</title>
<ellipse fill="none" stroke="black" cx="165.6" cy="-18" rx="18" ry="18"/>
<text text-anchor="middle" x="165.6" y="-14.3" font-family="Times New Roman,serif" font-size="14.00">2</text>
</g>
<!-- 0&#45;&gt;2 -->
<g id="edge3" class="edge"><title>0&#45;&gt;2</title>
<path fill="none" stroke="black" d="M95.5518,-91.3104C108.713,-77.3372 130.057,-54.6756 145.534,-38.2429"/>
<polygon fill="black" stroke="black" points="148.291,-40.4209 152.599,-30.7417 143.195,-35.6215 148.291,-40.4209"/>
<text text-anchor="middle" x="122.1" y="-69.8" font-family="Times New Roman,serif" font-size="14.00">r</text>
</g>
<!-- 1&#45;&gt;0 -->
<g id="edge4" class="edge"><title>1&#45;&gt;0</title>
<path fill="none" stroke="black" d="M152.784,-123.943C145.988,-115.258 136.615,-105.725 125.6,-101 120.893,-98.981 115.617,-98.2919 110.435,-98.3558"/>
<polygon fill="black" stroke="black" points="109.758,-94.9052 100.145,-99.3602 110.438,-101.872 109.758,-94.9052"/>
<text text-anchor="middle" x="122.1" y="-104.8" font-family="Times New Roman,serif" font-size="14.00">s</text>
</g>
<!-- 1&#45;&gt;1 -->
<g id="edge5" class="edge"><title>1&#45;&gt;1</title>
<path fill="none" stroke="black" d="M157.917,-162.991C156.969,-173.087 159.53,-182 165.6,-182 169.489,-182 171.937,-178.342 172.946,-173.059"/>
<polygon fill="black" stroke="black" points="176.446,-173.102 173.283,-162.991 169.45,-172.868 176.446,-173.102"/>
<text text-anchor="middle" x="165.6" y="-185.8" font-family="Times New Roman,serif" font-size="14.00">r</text>
</g>
<!-- 2&#45;&gt;2 -->
<g id="edge6" class="edge"><title>2&#45;&gt;2</title>
<path fill="none" stroke="black" d="M161.825,-35.7817C161.183,-45.3149 162.442,-54 165.6,-54 167.525,-54 168.744,-50.7749 169.257,-46.0981"/>
<polygon fill="black" stroke="black" points="172.76,-45.8211 169.375,-35.7817 165.761,-45.741 172.76,-45.8211"/>
<text text-anchor="middle" x="165.6" y="-57.8" font-family="Times New Roman,serif" font-size="14.00">s</text>
</g>
<!-- 2&#45;&gt;2 -->
<g id="edge7" class="edge"><title>2&#45;&gt;2</title>
<path fill="none" stroke="black" d="M159.455,-35.1418C155.841,-52.585 157.889,-72 165.6,-72 171.805,-72 174.343,-59.4283 173.214,-45.4287"/>
<polygon fill="black" stroke="black" points="176.624,-44.5461 171.745,-35.1418 169.694,-45.5363 176.624,-44.5461"/>
<text text-anchor="middle" x="165.6" y="-75.8" font-family="Times New Roman,serif" font-size="14.00">r</text>
</g>
</g>
</svg>
