<?xml version="1.0" encoding="UTF-8" standalone="no"?>
<!DOCTYPE svg PUBLIC "-//W3C//DTD SVG 1.1//EN"
 "http://www.w3.org/Graphics/SVG/1.1/DTD/svg11.dtd">
<!-- Generated by graphviz version 2.38.0 (20140413.2041)
 -->
<!-- Title: dfa Pages: 1 -->
<svg width="214pt" height="205pt"
 viewBox="0.00 0.00 213.60 205.00" xmlns="http://www.w3.org/2000/svg" xmlns:xlink="http://www.w3.org/1999/xlink">
<g id="graph0" class="graph" transform="scale(1 1) rotate(0) translate(4 201)">
<title>dfa</title>
<polygon fill="white" stroke="none" points="-4,4 -4,-201 209.6,-201 209.6,4 -4,4"/>
<!-- __start -->
<!-- 0 -->
<g id="node2" class="node"><title>0</title>
<ellipse fill="none" stroke="black" cx="91.6" cy="-104" rx="27" ry="18"/>
<text text-anchor="middle" x="91.6" y="-100.3" font-family="Times New Roman,serif" font-size="14.00">0</text>
</g>
<!-- __start&#45;&gt;0 -->
<g id="edge1" class="edge"><title>__start&#45;&gt;0</title>
<path fill="none" stroke="black" d="M3.78604,-104C8.86985,-104 32.7092,-104 54.1222,-104"/>
<polygon fill="black" stroke="black" points="54.3463,-107.5 64.3463,-104 54.3463,-100.5 54.3463,-107.5"/>
<text text-anchor="middle" x="34.1" y="-107.8" font-family="Times New Roman,serif" font-size="14.00">start</text>
</g>
<!-- 1 -->
<g id="node3" class="node"><title>1</title>
<ellipse fill="none" stroke="black" cx="183.6" cy="-142" rx="18" ry="18"/>
<ellipse fill="none" stroke="black" cx="183.6" cy="-142" rx="22" ry="22"/>
<text text-anchor="middle" x="183.6" y="-138.3" font-family="Times New Roman,serif" font-size="14.00">1</text>
</g>
<!-- 0&#45;&gt;1 -->
<g id="edge2" class="edge"><title>0&#45;&gt;1</title>
<path fill="none" stroke="black" d="M114.847,-113.393C126.512,-118.318 140.945,-124.412 153.489,-129.708"/>
<polygon fill="black" stroke="black" points="152.48,-133.082 163.054,-133.747 155.203,-126.633 152.48,-133.082"/>
<text text-anchor="middle" x="140.1" y="-128.8" font-family="Times New Roman,serif" font-size="14.00">s</text>
</g>
<!-- 2 -->
<g id="node4" class="node"><title>2</title>
<ellipse fill="none" stroke="black" cx="183.6" cy="-18" rx="18" ry="18"/>
<text text-anchor="middle" x="183.6" y="-14.3" font-family="Times New Roman,serif" font-size="14.00">2</text>
</g>
<!-- 0&#45;&gt;2 -->
<g id="edge3" class="edge"><title>0&#45;&gt;2</title>
<path fill="none" stroke="black" d="M107.867,-89.4113C122.866,-75.0795 145.84,-53.1262 162.356,-37.3446"/>
<polygon fill="black" stroke="black" points="165.069,-39.5926 169.881,-30.1535 160.233,-34.5316 165.069,-39.5926"/>
<text text-anchor="middle" x="140.1" y="-64.8" font-family="Times New Roman,serif" font-size="14.00">r</text>
</g>
<!-- 1&#45;&gt;0 -->
<g id="edge4" class="edge"><title>1&#45;&gt;0</title>
<path fill="none" stroke="black" d="M169.828,-124.441C163.027,-116.604 153.933,-108.202 143.6,-104 138.802,-102.049 133.533,-100.99 128.26,-100.516"/>
<polygon fill="black" stroke="black" points="128.326,-97.0169 118.236,-100.248 128.139,-104.014 128.326,-97.0169"/>
<text text-anchor="middle" x="140.1" y="-107.8" font-family="Times New Roman,serif" font-size="14.00">s</text>
</g>
<!-- 1&#45;&gt;1 -->
<g id="edge5" class="edge"><title>1&#45;&gt;1</title>
<path fill="none" stroke="black" d="M175.917,-162.991C174.969,-173.087 177.53,-182 183.6,-182 187.489,-182 189.937,-178.342 190.946,-173.059"/>
<polygon fill="black" stroke="black" points="194.446,-173.102 191.283,-162.991 187.45,-172.868 194.446,-173.102"/>
<text text-anchor="middle" x="183.6" y="-185.8" font-family="Times New Roman,serif" font-size="14.00">r</text>
</g>
<!-- 2&#45;&gt;2 -->
<g id="edge6" class="edge"><title>2&#45;&gt;2</title>
<path fill="none" stroke="black" d="M179.825,-35.7817C179.183,-45.3149 180.442,-54 183.6,-54 185.525,-54 186.744,-50.7749 187.257,-46.0981"/>
<polygon fill="black" stroke="black" points="190.76,-45.8211 187.375,-35.7817 183.761,-45.741 190.76,-45.8211"/>
<text text-anchor="middle" x="183.6" y="-57.8" font-family="Times New Roman,serif" font-size="14.00">s</text>
</g>
<!-- 2&#45;&gt;2 -->
<g id="edge7" class="edge"><title>2&#45;&gt;2</title>
<path fill="none" stroke="black" d="M177.455,-35.1418C173.841,-52.585 175.889,-72 183.6,-72 189.805,-72 192.343,-59.4283 191.214,-45.4287"/>
<polygon fill="black" stroke="black" points="194.624,-44.5461 189.745,-35.1418 187.694,-45.5363 194.624,-44.5461"/>
<text text-anchor="middle" x="183.6" y="-75.8" font-family="Times New Roman,serif" font-size="14.00">r</text>
</g>
</g>
</svg>
