<?xml version="1.0" encoding="UTF-8" standalone="no"?>
<!DOCTYPE svg PUBLIC "-//W3C//DTD SVG 1.1//EN"
 "http://www.w3.org/Graphics/SVG/1.1/DTD/svg11.dtd">
<!-- Generated by graphviz version 2.38.0 (20140413.2041)
 -->
<!-- Title: dfa Pages: 1 -->
<svg width="481pt" height="165pt"
 viewBox="0.00 0.00 480.58 165.24" xmlns="http://www.w3.org/2000/svg" xmlns:xlink="http://www.w3.org/1999/xlink">
<g id="graph0" class="graph" transform="scale(1 1) rotate(0) translate(4 161.244)">
<title>dfa</title>
<polygon fill="white" stroke="none" points="-4,4 -4,-161.244 476.576,-161.244 476.576,4 -4,4"/>
<!-- __start -->
<!-- {0,3} -->
<g id="node2" class="node"><title>{0,3}</title>
<ellipse fill="none" stroke="black" cx="95.1473" cy="-27.0479" rx="30.5947" ry="18"/>
<text text-anchor="middle" x="95.1473" y="-23.3479" font-family="Times New Roman,serif" font-size="14.00">{0,3}</text>
</g>
<!-- __start&#45;&gt;{0,3} -->
<g id="edge1" class="edge"><title>__start&#45;&gt;{0,3}</title>
<path fill="none" stroke="black" d="M3.82587,-27.0479C8.96991,-27.0479 32.5708,-27.0479 54.3561,-27.0479"/>
<polygon fill="black" stroke="black" points="54.4895,-30.548 64.4894,-27.0479 54.4894,-23.548 54.4895,-30.548"/>
<text text-anchor="middle" x="34.1" y="-30.8479" font-family="Times New Roman,serif" font-size="14.00">start</text>
</g>
<!-- {1,2,3,4} -->
<g id="node3" class="node"><title>{1,2,3,4}</title>
<ellipse fill="none" stroke="black" cx="216.891" cy="-76.0479" rx="44.3766" ry="44.3766"/>
<ellipse fill="none" stroke="black" cx="216.891" cy="-76.0479" rx="48.393" ry="48.393"/>
<text text-anchor="middle" x="216.891" y="-72.3479" font-family="Times New Roman,serif" font-size="14.00">{1,2,3,4}</text>
</g>
<!-- {0,3}&#45;&gt;{1,2,3,4} -->
<g id="edge2" class="edge"><title>{0,3}&#45;&gt;{1,2,3,4}</title>
<path fill="none" stroke="black" d="M120.668,-37.082C132.792,-42.0431 147.928,-48.2371 162.541,-54.2166"/>
<polygon fill="black" stroke="black" points="161.45,-57.5518 172.03,-58.0998 164.101,-51.0732 161.45,-57.5518"/>
<text text-anchor="middle" x="147.195" y="-52.8479" font-family="Times New Roman,serif" font-size="14.00">s</text>
</g>
<!-- {4} -->
<g id="node4" class="node"><title>{4}</title>
<ellipse fill="none" stroke="black" cx="448.528" cy="-24.0479" rx="24.0958" ry="24.0958"/>
<text text-anchor="middle" x="448.528" y="-20.3479" font-family="Times New Roman,serif" font-size="14.00">{4}</text>
</g>
<!-- {0,3}&#45;&gt;{4} -->
<g id="edge3" class="edge"><title>{0,3}&#45;&gt;{4}</title>
<path fill="none" stroke="black" d="M125.035,-23.1261C138.307,-21.5139 154.271,-19.8407 168.695,-19.0479 264.011,-13.8083 288.092,-15.3302 383.48,-19.0479 393.465,-19.437 404.306,-20.1662 414.18,-20.9497"/>
<polygon fill="black" stroke="black" points="414.173,-24.4613 424.43,-21.8078 414.757,-17.4857 414.173,-24.4613"/>
<text text-anchor="middle" x="286.587" y="-19.8479" font-family="Times New Roman,serif" font-size="14.00">r</text>
</g>
<!-- {1,2,3,4}&#45;&gt;{1,2,3,4} -->
<g id="edge5" class="edge"><title>{1,2,3,4}&#45;&gt;{1,2,3,4}</title>
<path fill="none" stroke="black" d="M204.366,-122.75C205.345,-133.947 209.52,-142.244 216.891,-142.244 221.843,-142.244 225.353,-138.499 227.42,-132.645"/>
<polygon fill="black" stroke="black" points="230.869,-133.245 229.416,-122.75 224.007,-131.86 230.869,-133.245"/>
<text text-anchor="middle" x="216.891" y="-146.044" font-family="Times New Roman,serif" font-size="14.00">r</text>
</g>
<!-- {0,3,4} -->
<g id="node5" class="node"><title>{0,3,4}</title>
<ellipse fill="none" stroke="black" cx="345.783" cy="-66.0479" rx="37.8943" ry="37.8943"/>
<text text-anchor="middle" x="345.783" y="-62.3479" font-family="Times New Roman,serif" font-size="14.00">{0,3,4}</text>
</g>
<!-- {1,2,3,4}&#45;&gt;{0,3,4} -->
<g id="edge4" class="edge"><title>{1,2,3,4}&#45;&gt;{0,3,4}</title>
<path fill="none" stroke="black" d="M265.141,-72.3242C275.82,-71.4826 287.156,-70.5893 297.824,-69.7486"/>
<polygon fill="black" stroke="black" points="298.11,-73.237 307.804,-68.9621 297.56,-66.2587 298.11,-73.237"/>
<text text-anchor="middle" x="286.587" y="-74.8479" font-family="Times New Roman,serif" font-size="14.00">s</text>
</g>
<!-- {4}&#45;&gt;{4} -->
<g id="edge8" class="edge"><title>{4}&#45;&gt;{4}</title>
<path fill="none" stroke="black" d="M444.439,-47.8222C444.157,-57.7122 445.52,-66.0957 448.528,-66.0957 450.408,-66.0957 451.645,-62.8209 452.24,-57.9502"/>
<polygon fill="black" stroke="black" points="455.742,-57.9454 452.617,-47.8222 448.747,-57.6851 455.742,-57.9454"/>
<text text-anchor="middle" x="448.528" y="-69.8957" font-family="Times New Roman,serif" font-size="14.00">s</text>
</g>
<!-- {4}&#45;&gt;{4} -->
<g id="edge9" class="edge"><title>{4}&#45;&gt;{4}</title>
<path fill="none" stroke="black" d="M441.39,-47.1569C438.629,-65.3888 441.008,-84.0957 448.528,-84.0957 454.638,-84.0957 457.354,-71.7462 456.677,-57.336"/>
<polygon fill="black" stroke="black" points="460.137,-56.762 455.666,-47.1569 453.171,-57.4538 460.137,-56.762"/>
<text text-anchor="middle" x="448.528" y="-87.8957" font-family="Times New Roman,serif" font-size="14.00">r</text>
</g>
<!-- {0,3,4}&#45;&gt;{1,2,3,4} -->
<g id="edge6" class="edge"><title>{0,3,4}&#45;&gt;{1,2,3,4}</title>
<path fill="none" stroke="black" d="M310.31,-53.2469C301.47,-51.3362 291.954,-50.4677 283.087,-52.0479 279.191,-52.7422 275.222,-53.6529 271.264,-54.713"/>
<polygon fill="black" stroke="black" points="270.081,-51.4132 261.493,-57.6178 272.075,-58.123 270.081,-51.4132"/>
<text text-anchor="middle" x="286.587" y="-55.8479" font-family="Times New Roman,serif" font-size="14.00">s</text>
</g>
<!-- {0,3,4}&#45;&gt;{4} -->
<g id="edge7" class="edge"><title>{0,3,4}&#45;&gt;{4}</title>
<path fill="none" stroke="black" d="M380.891,-51.8286C392.458,-47.0062 405.308,-41.6493 416.612,-36.9365"/>
<polygon fill="black" stroke="black" points="418.195,-40.0689 426.078,-32.9903 415.501,-33.6078 418.195,-40.0689"/>
<text text-anchor="middle" x="403.98" y="-46.8479" font-family="Times New Roman,serif" font-size="14.00">r</text>
</g>
</g>
</svg>
