<?xml version="1.0" encoding="UTF-8" standalone="no"?>
<!DOCTYPE svg PUBLIC "-//W3C//DTD SVG 1.1//EN"
 "http://www.w3.org/Graphics/SVG/1.1/DTD/svg11.dtd">
<!-- Generated by graphviz version 2.38.0 (20140413.2041)
 -->
<!-- Title: dfa Pages: 1 -->
<svg width="481pt" height="169pt"
 viewBox="0.00 0.00 480.58 168.74" xmlns="http://www.w3.org/2000/svg" xmlns:xlink="http://www.w3.org/1999/xlink">
<g id="graph0" class="graph" transform="scale(1 1) rotate(0) translate(4 164.743)">
<title>dfa</title>
<polygon fill="white" stroke="none" points="-4,4 -4,-164.743 476.576,-164.743 476.576,4 -4,4"/>
<!-- __start -->
<!-- {0,3} -->
<g id="node2" class="node"><title>{0,3}</title>
<ellipse fill="none" stroke="black" cx="95.1473" cy="-30.5473" rx="30.5947" ry="30.5947"/>
<text text-anchor="middle" x="95.1473" y="-26.8473" font-family="Times New Roman,serif" font-size="14.00">{0,3}</text>
</g>
<!-- __start&#45;&gt;{0,3} -->
<g id="edge1" class="edge"><title>__start&#45;&gt;{0,3}</title>
<path fill="none" stroke="black" d="M3.82587,-30.5473C8.96991,-30.5473 32.5708,-30.5473 54.3561,-30.5473"/>
<polygon fill="black" stroke="black" points="54.4895,-34.0474 64.4894,-30.5473 54.4894,-27.0474 54.4895,-34.0474"/>
<text text-anchor="middle" x="34.1" y="-34.3473" font-family="Times New Roman,serif" font-size="14.00">start</text>
</g>
<!-- {1,2,3,4} -->
<g id="node3" class="node"><title>{1,2,3,4}</title>
<ellipse fill="none" stroke="black" cx="216.891" cy="-79.5473" rx="44.3766" ry="44.3766"/>
<ellipse fill="none" stroke="black" cx="216.891" cy="-79.5473" rx="48.393" ry="48.393"/>
<text text-anchor="middle" x="216.891" y="-75.8473" font-family="Times New Roman,serif" font-size="14.00">{1,2,3,4}</text>
</g>
<!-- {0,3}&#45;&gt;{1,2,3,4} -->
<g id="edge2" class="edge"><title>{0,3}&#45;&gt;{1,2,3,4}</title>
<path fill="none" stroke="black" d="M123.619,-41.7889C135.288,-46.5639 149.307,-52.3006 162.853,-57.8437"/>
<polygon fill="black" stroke="black" points="161.54,-61.0881 172.12,-61.6362 164.191,-54.6095 161.54,-61.0881"/>
<text text-anchor="middle" x="147.195" y="-56.3473" font-family="Times New Roman,serif" font-size="14.00">s</text>
</g>
<!-- {4} -->
<g id="node4" class="node"><title>{4}</title>
<ellipse fill="none" stroke="black" cx="448.528" cy="-27.5473" rx="24.0958" ry="24.0958"/>
<text text-anchor="middle" x="448.528" y="-23.8473" font-family="Times New Roman,serif" font-size="14.00">{4}</text>
</g>
<!-- {0,3}&#45;&gt;{4} -->
<g id="edge3" class="edge"><title>{0,3}&#45;&gt;{4}</title>
<path fill="none" stroke="black" d="M125.736,-26.5406C138.867,-24.9549 154.524,-23.3262 168.695,-22.5473 264.011,-17.3078 288.092,-18.8296 383.48,-22.5473 393.465,-22.9364 404.306,-23.6656 414.18,-24.4492"/>
<polygon fill="black" stroke="black" points="414.173,-27.9607 424.43,-25.3072 414.757,-20.9851 414.173,-27.9607"/>
<text text-anchor="middle" x="286.587" y="-23.3473" font-family="Times New Roman,serif" font-size="14.00">r</text>
</g>
<!-- {1,2,3,4}&#45;&gt;{1,2,3,4} -->
<g id="edge5" class="edge"><title>{1,2,3,4}&#45;&gt;{1,2,3,4}</title>
<path fill="none" stroke="black" d="M204.366,-126.249C205.345,-137.447 209.52,-145.743 216.891,-145.743 221.843,-145.743 225.353,-141.998 227.42,-136.144"/>
<polygon fill="black" stroke="black" points="230.869,-136.744 229.416,-126.249 224.007,-135.36 230.869,-136.744"/>
<text text-anchor="middle" x="216.891" y="-149.543" font-family="Times New Roman,serif" font-size="14.00">r</text>
</g>
<!-- {0,3,4} -->
<g id="node5" class="node"><title>{0,3,4}</title>
<ellipse fill="none" stroke="black" cx="345.783" cy="-69.5473" rx="37.8943" ry="37.8943"/>
<text text-anchor="middle" x="345.783" y="-65.8473" font-family="Times New Roman,serif" font-size="14.00">{0,3,4}</text>
</g>
<!-- {1,2,3,4}&#45;&gt;{0,3,4} -->
<g id="edge4" class="edge"><title>{1,2,3,4}&#45;&gt;{0,3,4}</title>
<path fill="none" stroke="black" d="M265.141,-75.8237C275.82,-74.982 287.156,-74.0887 297.824,-73.248"/>
<polygon fill="black" stroke="black" points="298.11,-76.7364 307.804,-72.4615 297.56,-69.7581 298.11,-76.7364"/>
<text text-anchor="middle" x="286.587" y="-78.3473" font-family="Times New Roman,serif" font-size="14.00">s</text>
</g>
<!-- {4}&#45;&gt;{4} -->
<g id="edge8" class="edge"><title>{4}&#45;&gt;{4}</title>
<path fill="none" stroke="black" d="M444.439,-51.3216C444.157,-61.2116 445.52,-69.5952 448.528,-69.5952 450.408,-69.5952 451.645,-66.3203 452.24,-61.4497"/>
<polygon fill="black" stroke="black" points="455.742,-61.4448 452.617,-51.3216 448.747,-61.1846 455.742,-61.4448"/>
<text text-anchor="middle" x="448.528" y="-73.3952" font-family="Times New Roman,serif" font-size="14.00">s</text>
</g>
<!-- {4}&#45;&gt;{4} -->
<g id="edge9" class="edge"><title>{4}&#45;&gt;{4}</title>
<path fill="none" stroke="black" d="M441.39,-50.6563C438.629,-68.8882 441.008,-87.5952 448.528,-87.5952 454.638,-87.5952 457.354,-75.2457 456.677,-60.8354"/>
<polygon fill="black" stroke="black" points="460.137,-60.2614 455.666,-50.6563 453.171,-60.9533 460.137,-60.2614"/>
<text text-anchor="middle" x="448.528" y="-91.3952" font-family="Times New Roman,serif" font-size="14.00">r</text>
</g>
<!-- {0,3,4}&#45;&gt;{1,2,3,4} -->
<g id="edge6" class="edge"><title>{0,3,4}&#45;&gt;{1,2,3,4}</title>
<path fill="none" stroke="black" d="M310.31,-56.7463C301.47,-54.8356 291.954,-53.9671 283.087,-55.5473 279.191,-56.2417 275.222,-57.1523 271.264,-58.2124"/>
<polygon fill="black" stroke="black" points="270.081,-54.9126 261.493,-61.1172 272.075,-61.6224 270.081,-54.9126"/>
<text text-anchor="middle" x="286.587" y="-59.3473" font-family="Times New Roman,serif" font-size="14.00">s</text>
</g>
<!-- {0,3,4}&#45;&gt;{4} -->
<g id="edge7" class="edge"><title>{0,3,4}&#45;&gt;{4}</title>
<path fill="none" stroke="black" d="M380.891,-55.328C392.458,-50.5056 405.308,-45.1487 416.612,-40.4359"/>
<polygon fill="black" stroke="black" points="418.195,-43.5683 426.078,-36.4897 415.501,-37.1073 418.195,-43.5683"/>
<text text-anchor="middle" x="403.98" y="-50.3473" font-family="Times New Roman,serif" font-size="14.00">r</text>
</g>
</g>
</svg>
