<?xml version="1.0" encoding="UTF-8" standalone="no"?>
<!DOCTYPE svg PUBLIC "-//W3C//DTD SVG 1.1//EN"
 "http://www.w3.org/Graphics/SVG/1.1/DTD/svg11.dtd">
<!-- Generated by graphviz version 2.38.0 (20140413.2041)
 -->
<!-- Title: dfa Pages: 1 -->
<svg width="540pt" height="248pt"
 viewBox="0.00 0.00 540.27 247.87" xmlns="http://www.w3.org/2000/svg" xmlns:xlink="http://www.w3.org/1999/xlink">
<g id="graph0" class="graph" transform="scale(1 1) rotate(0) translate(4 243.871)">
<title>dfa</title>
<polygon fill="white" stroke="none" points="-4,4 -4,-243.871 536.271,-243.871 536.271,4 -4,4"/>
<!-- __start -->
<!-- {0,1,10,2,3,4,6} -->
<g id="node2" class="node"><title>{0,1,10,2,3,4,6}</title>
<ellipse fill="none" stroke="black" cx="138.144" cy="-147.625" rx="69.5853" ry="69.5853"/>
<ellipse fill="none" stroke="black" cx="138.144" cy="-147.625" rx="73.5877" ry="73.5877"/>
<text text-anchor="middle" x="138.144" y="-143.925" font-family="Times New Roman,serif" font-size="14.00">{0,1,10,2,3,4,6}</text>
</g>
<!-- __start&#45;&gt;{0,1,10,2,3,4,6} -->
<g id="edge1" class="edge"><title>__start&#45;&gt;{0,1,10,2,3,4,6}</title>
<path fill="none" stroke="black" d="M3.65789,-147.625C8.15566,-147.625 29.745,-147.625 54.2933,-147.625"/>
<polygon fill="black" stroke="black" points="54.5715,-151.125 64.5715,-147.625 54.5714,-144.125 54.5715,-151.125"/>
<text text-anchor="middle" x="34.1" y="-151.425" font-family="Times New Roman,serif" font-size="14.00">start</text>
</g>
<!-- {1,11,5} -->
<g id="node3" class="node"><title>{1,11,5}</title>
<ellipse fill="none" stroke="black" cx="403.028" cy="-193.625" rx="42.4724" ry="42.4724"/>
<ellipse fill="none" stroke="black" cx="403.028" cy="-193.625" rx="46.4938" ry="46.4938"/>
<text text-anchor="middle" x="403.028" y="-189.925" font-family="Times New Roman,serif" font-size="14.00">{1,11,5}</text>
</g>
<!-- {0,1,10,2,3,4,6}&#45;&gt;{1,11,5} -->
<g id="edge2" class="edge"><title>{0,1,10,2,3,4,6}&#45;&gt;{1,11,5}</title>
<path fill="none" stroke="black" d="M210.631,-160.134C253.71,-167.672 307.724,-177.123 347.377,-184.062"/>
<polygon fill="black" stroke="black" points="346.936,-187.538 357.39,-185.814 348.142,-180.642 346.936,-187.538"/>
<text text-anchor="middle" x="282.235" y="-181.425" font-family="Times New Roman,serif" font-size="14.00">p</text>
</g>
<!-- {7,8} -->
<g id="node5" class="node"><title>{7,8}</title>
<ellipse fill="none" stroke="black" cx="282.235" cy="-83.6246" rx="30.5947" ry="30.5947"/>
<text text-anchor="middle" x="282.235" y="-79.9246" font-family="Times New Roman,serif" font-size="14.00">{7,8}</text>
</g>
<!-- {0,1,10,2,3,4,6}&#45;&gt;{7,8} -->
<g id="edge3" class="edge"><title>{0,1,10,2,3,4,6}&#45;&gt;{7,8}</title>
<path fill="none" stroke="black" d="M205.613,-117.686C219.177,-111.576 232.965,-105.366 244.987,-99.9512"/>
<polygon fill="black" stroke="black" points="246.532,-103.094 254.212,-95.7961 243.657,-96.7117 246.532,-103.094"/>
<text text-anchor="middle" x="231.688" y="-110.425" font-family="Times New Roman,serif" font-size="14.00">j</text>
</g>
<!-- {} -->
<g id="node6" class="node"><title>{}</title>
<ellipse fill="none" stroke="black" cx="512.773" cy="-117.625" rx="19.4965" ry="19.4965"/>
<text text-anchor="middle" x="512.773" y="-113.925" font-family="Times New Roman,serif" font-size="14.00">{}</text>
</g>
<!-- {1,11,5}&#45;&gt;{} -->
<g id="edge4" class="edge"><title>{1,11,5}&#45;&gt;{}</title>
<path fill="none" stroke="black" d="M448.816,-184.855C458.131,-181.69 467.475,-177.407 475.275,-171.625 485.018,-164.401 493.001,-153.76 498.989,-143.829"/>
<polygon fill="black" stroke="black" points="502.086,-145.462 503.921,-135.027 495.98,-142.04 502.086,-145.462"/>
<text text-anchor="middle" x="471.275" y="-180.425" font-family="Times New Roman,serif" font-size="14.00">p</text>
</g>
<!-- {1,11,5}&#45;&gt;{} -->
<g id="edge5" class="edge"><title>{1,11,5}&#45;&gt;{}</title>
<path fill="none" stroke="black" d="M441.41,-167.257C456.866,-156.355 474.326,-144.038 487.987,-134.402"/>
<polygon fill="black" stroke="black" points="490.202,-137.123 496.356,-128.499 486.167,-131.403 490.202,-137.123"/>
<text text-anchor="middle" x="471.275" y="-153.425" font-family="Times New Roman,serif" font-size="14.00">j</text>
</g>
<!-- {1,11,9} -->
<g id="node4" class="node"><title>{1,11,9}</title>
<ellipse fill="none" stroke="black" cx="403.028" cy="-83.6246" rx="42.4724" ry="42.4724"/>
<ellipse fill="none" stroke="black" cx="403.028" cy="-83.6246" rx="46.4938" ry="46.4938"/>
<text text-anchor="middle" x="403.028" y="-79.9246" font-family="Times New Roman,serif" font-size="14.00">{1,11,9}</text>
</g>
<!-- {1,11,9}&#45;&gt;{} -->
<g id="edge10" class="edge"><title>{1,11,9}&#45;&gt;{}</title>
<path fill="none" stroke="black" d="M447.231,-97.2578C459.693,-101.19 472.947,-105.373 484.182,-108.918"/>
<polygon fill="black" stroke="black" points="483.261,-112.297 493.851,-111.969 485.368,-105.622 483.261,-112.297"/>
<text text-anchor="middle" x="471.275" y="-110.425" font-family="Times New Roman,serif" font-size="14.00">p</text>
</g>
<!-- {1,11,9}&#45;&gt;{} -->
<g id="edge11" class="edge"><title>{1,11,9}&#45;&gt;{}</title>
<path fill="none" stroke="black" d="M449.438,-80.2469C458.231,-80.8773 467.212,-82.4606 475.275,-85.6246 481.205,-87.9516 486.815,-91.6946 491.778,-95.8144"/>
<polygon fill="black" stroke="black" points="489.742,-98.6989 499.459,-102.92 494.495,-93.5602 489.742,-98.6989"/>
<text text-anchor="middle" x="471.275" y="-89.4246" font-family="Times New Roman,serif" font-size="14.00">j</text>
</g>
<!-- {7,8}&#45;&gt;{1,11,9} -->
<g id="edge8" class="edge"><title>{7,8}&#45;&gt;{1,11,9}</title>
<path fill="none" stroke="black" d="M312.905,-83.6246C323.11,-83.6246 334.893,-83.6246 346.48,-83.6246"/>
<polygon fill="black" stroke="black" points="346.567,-87.1247 356.567,-83.6246 346.567,-80.1247 346.567,-87.1247"/>
<text text-anchor="middle" x="334.782" y="-87.4246" font-family="Times New Roman,serif" font-size="14.00">p</text>
</g>
<!-- {7,8}&#45;&gt;{} -->
<g id="edge9" class="edge"><title>{7,8}&#45;&gt;{}</title>
<path fill="none" stroke="black" d="M300.738,-59.1754C314.02,-42.8624 333.867,-22.7863 356.782,-13.6246 394.952,1.6363 413.496,6.61671 449.275,-13.6246 477.636,-29.6693 494.542,-64.2961 503.481,-89.1904"/>
<polygon fill="black" stroke="black" points="500.225,-90.4898 506.731,-98.8518 506.86,-88.2577 500.225,-90.4898"/>
<text text-anchor="middle" x="403.028" y="-17.4246" font-family="Times New Roman,serif" font-size="14.00">j</text>
</g>
<!-- {}&#45;&gt;{} -->
<g id="edge6" class="edge"><title>{}&#45;&gt;{}</title>
<path fill="none" stroke="black" d="M509.134,-136.918C508.63,-146.54 509.843,-155.123 512.773,-155.123 514.558,-155.123 515.706,-151.936 516.217,-147.269"/>
<polygon fill="black" stroke="black" points="519.722,-146.983 516.412,-136.918 512.724,-146.85 519.722,-146.983"/>
<text text-anchor="middle" x="512.773" y="-158.923" font-family="Times New Roman,serif" font-size="14.00">p</text>
</g>
<!-- {}&#45;&gt;{} -->
<g id="edge7" class="edge"><title>{}&#45;&gt;{}</title>
<path fill="none" stroke="black" d="M506.709,-136.389C503.564,-154.009 505.586,-173.123 512.773,-173.123 518.613,-173.123 521.042,-160.505 520.061,-146.322"/>
<polygon fill="black" stroke="black" points="523.534,-145.886 518.837,-136.389 516.587,-146.742 523.534,-145.886"/>
<text text-anchor="middle" x="512.773" y="-176.923" font-family="Times New Roman,serif" font-size="14.00">j</text>
</g>
</g>
</svg>
