<?xml version="1.0" encoding="UTF-8" standalone="no"?>
<!DOCTYPE svg PUBLIC "-//W3C//DTD SVG 1.1//EN"
 "http://www.w3.org/Graphics/SVG/1.1/DTD/svg11.dtd">
<!-- Generated by graphviz version 2.38.0 (20140413.2041)
 -->
<!-- Title: enfa Pages: 1 -->
<svg width="735pt" height="143pt"
 viewBox="0.00 0.00 734.59 143.00" xmlns="http://www.w3.org/2000/svg" xmlns:xlink="http://www.w3.org/1999/xlink">
<g id="graph0" class="graph" transform="scale(1 1) rotate(0) translate(4 139)">
<title>enfa</title>
<polygon fill="white" stroke="none" points="-4,4 -4,-139 730.593,-139 730.593,4 -4,4"/>
<!-- __start -->
<!-- 0 -->
<g id="node2" class="node"><title>0</title>
<ellipse fill="none" stroke="black" cx="82.6" cy="-91" rx="18" ry="18"/>
<text text-anchor="middle" x="82.6" y="-87.3" font-family="Times New Roman,serif" font-size="14.00">0</text>
</g>
<!-- __start&#45;&gt;0 -->
<g id="edge1" class="edge"><title>__start&#45;&gt;0</title>
<path fill="none" stroke="black" d="M3.68496,-91C8.69573,-91 34.008,-91 54.4423,-91"/>
<polygon fill="black" stroke="black" points="54.5501,-94.5001 64.5501,-91 54.5501,-87.5001 54.5501,-94.5001"/>
<text text-anchor="middle" x="34.1" y="-94.8" font-family="Times New Roman,serif" font-size="14.00">start</text>
</g>
<!-- 2 -->
<g id="node4" class="node"><title>2</title>
<ellipse fill="none" stroke="black" cx="163.098" cy="-117" rx="18" ry="18"/>
<text text-anchor="middle" x="163.098" y="-113.3" font-family="Times New Roman,serif" font-size="14.00">2</text>
</g>
<!-- 0&#45;&gt;2 -->
<g id="edge11" class="edge"><title>0&#45;&gt;2</title>
<path fill="none" stroke="black" d="M99.8649,-96.3872C110.39,-99.8733 124.32,-104.487 136.332,-108.466"/>
<polygon fill="black" stroke="black" points="135.261,-111.798 145.854,-111.62 137.462,-105.153 135.261,-111.798"/>
<text text-anchor="middle" x="122.1" y="-107.8" font-family="Times New Roman,serif" font-size="14.00">ε</text>
</g>
<!-- 10 -->
<g id="node12" class="node"><title>10</title>
<ellipse fill="none" stroke="black" cx="163.098" cy="-62" rx="19.4965" ry="19.4965"/>
<text text-anchor="middle" x="163.098" y="-58.3" font-family="Times New Roman,serif" font-size="14.00">10</text>
</g>
<!-- 0&#45;&gt;10 -->
<g id="edge12" class="edge"><title>0&#45;&gt;10</title>
<path fill="none" stroke="black" d="M99.8649,-84.9912C109.937,-81.27 123.128,-76.3968 134.772,-72.0952"/>
<polygon fill="black" stroke="black" points="136.322,-75.254 144.489,-68.5053 133.896,-68.6877 136.322,-75.254"/>
<text text-anchor="middle" x="122.1" y="-80.8" font-family="Times New Roman,serif" font-size="14.00">ε</text>
</g>
<!-- 1 -->
<g id="node3" class="node"><title>1</title>
<ellipse fill="none" stroke="black" cx="704.593" cy="-98" rx="18" ry="18"/>
<ellipse fill="none" stroke="black" cx="704.593" cy="-98" rx="22" ry="22"/>
<text text-anchor="middle" x="704.593" y="-94.3" font-family="Times New Roman,serif" font-size="14.00">1</text>
</g>
<!-- 3 -->
<g id="node5" class="node"><title>3</title>
<ellipse fill="none" stroke="black" cx="297.597" cy="-117" rx="18" ry="18"/>
<text text-anchor="middle" x="297.597" y="-113.3" font-family="Times New Roman,serif" font-size="14.00">3</text>
</g>
<!-- 2&#45;&gt;3 -->
<g id="edge2" class="edge"><title>2&#45;&gt;3</title>
<path fill="none" stroke="black" d="M181.149,-117C203.387,-117 242.567,-117 269.047,-117"/>
<polygon fill="black" stroke="black" points="269.191,-120.5 279.191,-117 269.191,-113.5 269.191,-120.5"/>
<text text-anchor="middle" x="204.097" y="-120.8" font-family="Times New Roman,serif" font-size="14.00">ε</text>
</g>
<!-- 3&#45;&gt;1 -->
<g id="edge13" class="edge"><title>3&#45;&gt;1</title>
<path fill="none" stroke="black" d="M315.855,-117C336.833,-117 373.312,-117 404.597,-117 404.597,-117 404.597,-117 621.095,-117 638.939,-117 658.412,-112.727 673.957,-108.233"/>
<polygon fill="black" stroke="black" points="675.013,-111.57 683.547,-105.292 672.961,-104.878 675.013,-111.57"/>
<text text-anchor="middle" x="499.597" y="-120.8" font-family="Times New Roman,serif" font-size="14.00">ε</text>
</g>
<!-- 4 -->
<g id="node6" class="node"><title>4</title>
<ellipse fill="none" stroke="black" cx="297.597" cy="-68" rx="18" ry="18"/>
<text text-anchor="middle" x="297.597" y="-64.3" font-family="Times New Roman,serif" font-size="14.00">4</text>
</g>
<!-- 5 -->
<g id="node7" class="node"><title>5</title>
<ellipse fill="none" stroke="black" cx="405.597" cy="-71" rx="18" ry="18"/>
<text text-anchor="middle" x="405.597" y="-67.3" font-family="Times New Roman,serif" font-size="14.00">5</text>
</g>
<!-- 4&#45;&gt;5 -->
<g id="edge3" class="edge"><title>4&#45;&gt;5</title>
<path fill="none" stroke="black" d="M315.627,-68.482C332.219,-68.9516 357.714,-69.6731 377.166,-70.2237"/>
<polygon fill="black" stroke="black" points="377.161,-73.7248 387.256,-70.5092 377.359,-66.7276 377.161,-73.7248"/>
<text text-anchor="middle" x="351.597" y="-73.8" font-family="Times New Roman,serif" font-size="14.00">p</text>
</g>
<!-- 11 -->
<g id="node13" class="node"><title>11</title>
<ellipse fill="none" stroke="black" cx="620.095" cy="-70" rx="19.4965" ry="19.4965"/>
<text text-anchor="middle" x="620.095" y="-66.3" font-family="Times New Roman,serif" font-size="14.00">11</text>
</g>
<!-- 5&#45;&gt;11 -->
<g id="edge9" class="edge"><title>5&#45;&gt;11</title>
<path fill="none" stroke="black" d="M423.627,-70.9199C459.93,-70.749 545.274,-70.3474 590.23,-70.1358"/>
<polygon fill="black" stroke="black" points="590.493,-73.6347 600.476,-70.0876 590.46,-66.6348 590.493,-73.6347"/>
<text text-anchor="middle" x="499.597" y="-73.8" font-family="Times New Roman,serif" font-size="14.00">ε</text>
</g>
<!-- 6 -->
<g id="node8" class="node"><title>6</title>
<ellipse fill="none" stroke="black" cx="243.597" cy="-20" rx="18" ry="18"/>
<text text-anchor="middle" x="243.597" y="-16.3" font-family="Times New Roman,serif" font-size="14.00">6</text>
</g>
<!-- 7 -->
<g id="node9" class="node"><title>7</title>
<ellipse fill="none" stroke="black" cx="351.597" cy="-18" rx="18" ry="18"/>
<text text-anchor="middle" x="351.597" y="-14.3" font-family="Times New Roman,serif" font-size="14.00">7</text>
</g>
<!-- 6&#45;&gt;7 -->
<g id="edge4" class="edge"><title>6&#45;&gt;7</title>
<path fill="none" stroke="black" d="M261.627,-19.6787C278.219,-19.3656 303.714,-18.8846 323.166,-18.5176"/>
<polygon fill="black" stroke="black" points="323.324,-22.0153 333.256,-18.3272 323.192,-15.0165 323.324,-22.0153"/>
<text text-anchor="middle" x="297.597" y="-23.8" font-family="Times New Roman,serif" font-size="14.00">j</text>
</g>
<!-- 8 -->
<g id="node10" class="node"><title>8</title>
<ellipse fill="none" stroke="black" cx="459.597" cy="-23" rx="18" ry="18"/>
<text text-anchor="middle" x="459.597" y="-19.3" font-family="Times New Roman,serif" font-size="14.00">8</text>
</g>
<!-- 7&#45;&gt;8 -->
<g id="edge6" class="edge"><title>7&#45;&gt;8</title>
<path fill="none" stroke="black" d="M369.627,-18.8033C386.317,-19.5906 412.018,-20.8029 431.513,-21.7225"/>
<polygon fill="black" stroke="black" points="431.454,-25.2235 441.608,-22.1987 431.784,-18.2313 431.454,-25.2235"/>
<text text-anchor="middle" x="405.597" y="-25.8" font-family="Times New Roman,serif" font-size="14.00">ε</text>
</g>
<!-- 9 -->
<g id="node11" class="node"><title>9</title>
<ellipse fill="none" stroke="black" cx="539.597" cy="-25" rx="18" ry="18"/>
<text text-anchor="middle" x="539.597" y="-21.3" font-family="Times New Roman,serif" font-size="14.00">9</text>
</g>
<!-- 8&#45;&gt;9 -->
<g id="edge5" class="edge"><title>8&#45;&gt;9</title>
<path fill="none" stroke="black" d="M477.907,-23.4439C487.703,-23.695 500.175,-24.0148 511.262,-24.2991"/>
<polygon fill="black" stroke="black" points="511.248,-27.7998 521.334,-24.5574 511.427,-20.8021 511.248,-27.7998"/>
<text text-anchor="middle" x="499.597" y="-28.8" font-family="Times New Roman,serif" font-size="14.00">p</text>
</g>
<!-- 9&#45;&gt;11 -->
<g id="edge10" class="edge"><title>9&#45;&gt;11</title>
<path fill="none" stroke="black" d="M557.028,-30.4769C564.986,-33.42 574.539,-37.3919 582.597,-42 587.328,-44.706 592.131,-47.9592 596.631,-51.2757"/>
<polygon fill="black" stroke="black" points="594.761,-54.254 604.812,-57.6037 599.043,-48.717 594.761,-54.254"/>
<text text-anchor="middle" x="579.097" y="-45.8" font-family="Times New Roman,serif" font-size="14.00">ε</text>
</g>
<!-- 10&#45;&gt;4 -->
<g id="edge7" class="edge"><title>10&#45;&gt;4</title>
<path fill="none" stroke="black" d="M182.801,-62.8469C205.271,-63.8645 243.166,-65.5805 269,-66.7503"/>
<polygon fill="black" stroke="black" points="269.105,-70.2586 279.253,-67.2146 269.422,-63.2658 269.105,-70.2586"/>
<text text-anchor="middle" x="204.097" y="-66.8" font-family="Times New Roman,serif" font-size="14.00">ε</text>
</g>
<!-- 10&#45;&gt;6 -->
<g id="edge8" class="edge"><title>10&#45;&gt;6</title>
<path fill="none" stroke="black" d="M176.78,-48.1071C183.317,-41.7189 191.762,-34.5635 200.597,-30 205.183,-27.6308 210.342,-25.8126 215.433,-24.4204"/>
<polygon fill="black" stroke="black" points="216.604,-27.744 225.583,-22.121 215.057,-20.917 216.604,-27.744"/>
<text text-anchor="middle" x="204.097" y="-33.8" font-family="Times New Roman,serif" font-size="14.00">ε</text>
</g>
<!-- 11&#45;&gt;1 -->
<g id="edge14" class="edge"><title>11&#45;&gt;1</title>
<path fill="none" stroke="black" d="M638.996,-76.0756C649.112,-79.509 662.022,-83.8906 673.637,-87.8329"/>
<polygon fill="black" stroke="black" points="672.814,-91.2496 683.408,-91.1493 675.064,-84.621 672.814,-91.2496"/>
<text text-anchor="middle" x="661.093" y="-87.8" font-family="Times New Roman,serif" font-size="14.00">ε</text>
</g>
</g>
</svg>
