<?xml version="1.0" encoding="UTF-8" standalone="no"?>
<!DOCTYPE svg PUBLIC "-//W3C//DTD SVG 1.1//EN"
 "http://www.w3.org/Graphics/SVG/1.1/DTD/svg11.dtd">
<!-- Generated by graphviz version 2.38.0 (20140413.2041)
 -->
<!-- Title: dfa Pages: 1 -->
<svg width="352pt" height="150pt"
 viewBox="0.00 0.00 351.60 150.32" xmlns="http://www.w3.org/2000/svg" xmlns:xlink="http://www.w3.org/1999/xlink">
<g id="graph0" class="graph" transform="scale(1 1) rotate(0) translate(4 146.318)">
<title>dfa</title>
<polygon fill="white" stroke="none" points="-4,4 -4,-146.318 347.6,-146.318 347.6,4 -4,4"/>
<!-- __start -->
<!-- 0 -->
<g id="node2" class="node"><title>0</title>
<ellipse fill="none" stroke="black" cx="82.6" cy="-45.3178" rx="18" ry="18"/>
<text text-anchor="middle" x="82.6" y="-41.6178" font-family="Times New Roman,serif" font-size="14.00">0</text>
</g>
<!-- __start&#45;&gt;0 -->
<g id="edge1" class="edge"><title>__start&#45;&gt;0</title>
<path fill="none" stroke="black" d="M3.68496,-45.3178C8.69573,-45.3178 34.008,-45.3178 54.4423,-45.3178"/>
<polygon fill="black" stroke="black" points="54.5501,-48.8179 64.5501,-45.3178 54.5501,-41.8179 54.5501,-48.8179"/>
<text text-anchor="middle" x="34.1" y="-49.1178" font-family="Times New Roman,serif" font-size="14.00">start</text>
</g>
<!-- 1 -->
<g id="node3" class="node"><title>1</title>
<ellipse fill="none" stroke="black" cx="165.6" cy="-100.318" rx="18" ry="18"/>
<ellipse fill="none" stroke="black" cx="165.6" cy="-100.318" rx="22" ry="22"/>
<text text-anchor="middle" x="165.6" y="-96.6178" font-family="Times New Roman,serif" font-size="14.00">1</text>
</g>
<!-- 0&#45;&gt;1 -->
<g id="edge11" class="edge"><title>0&#45;&gt;1</title>
<path fill="none" stroke="black" d="M95.4226,-58.2411C101.854,-64.7912 110.197,-72.5559 118.6,-78.3178 123.745,-81.8455 129.543,-85.0981 135.245,-87.9597"/>
<polygon fill="black" stroke="black" points="134.08,-91.2803 144.617,-92.3861 137.069,-84.9507 134.08,-91.2803"/>
<text text-anchor="middle" x="122.1" y="-85.1178" font-family="Times New Roman,serif" font-size="14.00">e</text>
</g>
<!-- 2 -->
<g id="node4" class="node"><title>2</title>
<ellipse fill="none" stroke="black" cx="325.6" cy="-77.3178" rx="18" ry="18"/>
<text text-anchor="middle" x="325.6" y="-73.6178" font-family="Times New Roman,serif" font-size="14.00">2</text>
</g>
<!-- 0&#45;&gt;2 -->
<g id="edge13" class="edge"><title>0&#45;&gt;2</title>
<path fill="none" stroke="black" d="M98.8151,-36.9631C134.742,-18.4679 226.553,21.4904 289.6,-15.3178 302.615,-22.9159 311.171,-37.3397 316.564,-50.364"/>
<polygon fill="black" stroke="black" points="313.344,-51.7477 320.093,-59.9149 319.91,-49.3216 313.344,-51.7477"/>
<text text-anchor="middle" x="209.1" y="-6.11775" font-family="Times New Roman,serif" font-size="14.00">i</text>
</g>
<!-- 3 -->
<g id="node5" class="node"><title>3</title>
<ellipse fill="none" stroke="black" cx="248.6" cy="-43.3178" rx="18" ry="18"/>
<text text-anchor="middle" x="248.6" y="-39.6178" font-family="Times New Roman,serif" font-size="14.00">3</text>
</g>
<!-- 0&#45;&gt;3 -->
<g id="edge12" class="edge"><title>0&#45;&gt;3</title>
<path fill="none" stroke="black" d="M100.841,-45.1075C129.337,-44.76 186.479,-44.0631 220.443,-43.6489"/>
<polygon fill="black" stroke="black" points="220.634,-47.147 230.59,-43.5252 220.548,-40.1475 220.634,-47.147"/>
<text text-anchor="middle" x="165.6" y="-48.1178" font-family="Times New Roman,serif" font-size="14.00">f</text>
</g>
<!-- 1&#45;&gt;0 -->
<g id="edge2" class="edge"><title>1&#45;&gt;0</title>
<path fill="none" stroke="black" d="M150.118,-84.1931C143.194,-77.1432 134.488,-69.1663 125.6,-63.3178 120.63,-60.0472 114.967,-57.148 109.444,-54.6834"/>
<polygon fill="black" stroke="black" points="110.413,-51.2974 99.833,-50.7298 107.75,-57.7711 110.413,-51.2974"/>
<text text-anchor="middle" x="122.1" y="-67.1178" font-family="Times New Roman,serif" font-size="14.00">e</text>
</g>
<!-- 1&#45;&gt;2 -->
<g id="edge3" class="edge"><title>1&#45;&gt;2</title>
<path fill="none" stroke="black" d="M187.488,-103.537C207.861,-106.071 239.633,-108.406 266.6,-103.318 278.269,-101.116 290.376,-96.1713 300.491,-91.1786"/>
<polygon fill="black" stroke="black" points="302.261,-94.2023 309.499,-86.465 299.016,-88.0001 302.261,-94.2023"/>
<text text-anchor="middle" x="248.6" y="-110.118" font-family="Times New Roman,serif" font-size="14.00">f</text>
</g>
<!-- 1&#45;&gt;3 -->
<g id="edge4" class="edge"><title>1&#45;&gt;3</title>
<path fill="none" stroke="black" d="M181.191,-84.3542C188.136,-77.3368 196.829,-69.3408 205.6,-63.3178 210.718,-59.8032 216.55,-56.5959 222.205,-53.8282"/>
<polygon fill="black" stroke="black" points="223.769,-56.9612 231.398,-49.609 220.85,-50.5992 223.769,-56.9612"/>
<text text-anchor="middle" x="209.1" y="-67.1178" font-family="Times New Roman,serif" font-size="14.00">i</text>
</g>
<!-- 2&#45;&gt;1 -->
<g id="edge8" class="edge"><title>2&#45;&gt;1</title>
<path fill="none" stroke="black" d="M313.503,-91.3742C302.964,-103.377 285.894,-119.582 266.6,-125.318 242.424,-132.504 214.559,-124.201 194.394,-115.285"/>
<polygon fill="black" stroke="black" points="195.7,-112.031 185.163,-110.924 192.709,-118.36 195.7,-112.031"/>
<text text-anchor="middle" x="248.6" y="-131.118" font-family="Times New Roman,serif" font-size="14.00">e</text>
</g>
<!-- 2&#45;&gt;3 -->
<g id="edge9" class="edge"><title>2&#45;&gt;3</title>
<path fill="none" stroke="black" d="M307.294,-78.4133C300.034,-78.2731 291.656,-77.2999 284.6,-74.3178 278.756,-71.8481 273.219,-67.9969 268.345,-63.8381"/>
<polygon fill="black" stroke="black" points="270.504,-61.0629 260.832,-56.738 265.696,-66.1505 270.504,-61.0629"/>
<text text-anchor="middle" x="287.1" y="-79.1178" font-family="Times New Roman,serif" font-size="14.00">f</text>
</g>
<!-- 2&#45;&gt;3 -->
<g id="edge10" class="edge"><title>2&#45;&gt;3</title>
<path fill="none" stroke="black" d="M310.447,-67.1982C304.261,-63.1033 296.788,-58.5824 289.6,-55.3178 285.326,-53.3765 280.655,-51.6496 276.061,-50.1527"/>
<polygon fill="black" stroke="black" points="276.895,-46.7494 266.312,-47.2496 274.898,-53.4582 276.895,-46.7494"/>
<text text-anchor="middle" x="287.1" y="-59.1178" font-family="Times New Roman,serif" font-size="14.00">i</text>
</g>
<!-- 3&#45;&gt;1 -->
<g id="edge5" class="edge"><title>3&#45;&gt;1</title>
<path fill="none" stroke="black" d="M236.218,-56.729C229.782,-63.7593 221.299,-72.1633 212.6,-78.3178 207.507,-81.9208 201.733,-85.2072 196.038,-88.0783"/>
<polygon fill="black" stroke="black" points="194.214,-85.0688 186.663,-92.5007 197.2,-91.3998 194.214,-85.0688"/>
<text text-anchor="middle" x="209.1" y="-86.1178" font-family="Times New Roman,serif" font-size="14.00">e</text>
</g>
<!-- 3&#45;&gt;2 -->
<g id="edge6" class="edge"><title>3&#45;&gt;2</title>
<path fill="none" stroke="black" d="M261.164,-30.2247C269.158,-22.8229 280.034,-16.0157 289.6,-21.3178 301.273,-27.7874 309.567,-39.9521 315.141,-51.295"/>
<polygon fill="black" stroke="black" points="311.958,-52.7517 319.199,-60.4867 318.362,-49.9249 311.958,-52.7517"/>
<text text-anchor="middle" x="287.1" y="-25.1178" font-family="Times New Roman,serif" font-size="14.00">f</text>
</g>
<!-- 3&#45;&gt;3 -->
<g id="edge7" class="edge"><title>3&#45;&gt;3</title>
<path fill="none" stroke="black" d="M241.866,-60.3551C240.492,-70.1757 242.737,-79.3178 248.6,-79.3178 252.265,-79.3178 254.516,-75.7466 255.353,-70.6707"/>
<polygon fill="black" stroke="black" points="258.852,-70.3484 255.334,-60.3551 251.852,-70.3616 258.852,-70.3484"/>
<text text-anchor="middle" x="248.6" y="-83.1178" font-family="Times New Roman,serif" font-size="14.00">i</text>
</g>
</g>
</svg>
