<?xml version="1.0" encoding="UTF-8" standalone="no"?>
<!DOCTYPE svg PUBLIC "-//W3C//DTD SVG 1.1//EN"
 "http://www.w3.org/Graphics/SVG/1.1/DTD/svg11.dtd">
<!-- Generated by graphviz version 2.38.0 (20140413.2041)
 -->
<!-- Title: dfa Pages: 1 -->
<svg width="370pt" height="151pt"
 viewBox="0.00 0.00 369.60 151.08" xmlns="http://www.w3.org/2000/svg" xmlns:xlink="http://www.w3.org/1999/xlink">
<g id="graph0" class="graph" transform="scale(1 1) rotate(0) translate(4 147.081)">
<title>dfa</title>
<polygon fill="white" stroke="none" points="-4,4 -4,-147.081 365.6,-147.081 365.6,4 -4,4"/>
<!-- __start -->
<!-- 0 -->
<g id="node2" class="node"><title>0</title>
<ellipse fill="none" stroke="black" cx="91.6" cy="-46.0811" rx="27" ry="18"/>
<text text-anchor="middle" x="91.6" y="-42.3811" font-family="Times New Roman,serif" font-size="14.00">0</text>
</g>
<!-- __start&#45;&gt;0 -->
<g id="edge1" class="edge"><title>__start&#45;&gt;0</title>
<path fill="none" stroke="black" d="M3.78604,-46.0811C8.86985,-46.0811 32.7092,-46.0811 54.1222,-46.0811"/>
<polygon fill="black" stroke="black" points="54.3463,-49.5812 64.3463,-46.0811 54.3463,-42.5812 54.3463,-49.5812"/>
<text text-anchor="middle" x="34.1" y="-49.8811" font-family="Times New Roman,serif" font-size="14.00">start</text>
</g>
<!-- 1 -->
<g id="node3" class="node"><title>1</title>
<ellipse fill="none" stroke="black" cx="183.6" cy="-101.081" rx="18" ry="18"/>
<ellipse fill="none" stroke="black" cx="183.6" cy="-101.081" rx="22" ry="22"/>
<text text-anchor="middle" x="183.6" y="-97.3811" font-family="Times New Roman,serif" font-size="14.00">1</text>
</g>
<!-- 0&#45;&gt;1 -->
<g id="edge11" class="edge"><title>0&#45;&gt;1</title>
<path fill="none" stroke="black" d="M109.185,-59.7443C117.205,-66.027 127.127,-73.3408 136.6,-79.0811 141.935,-82.3141 147.819,-85.4341 153.544,-88.2585"/>
<polygon fill="black" stroke="black" points="152.372,-91.5761 162.907,-92.7004 155.372,-85.2517 152.372,-91.5761"/>
<text text-anchor="middle" x="140.1" y="-85.8811" font-family="Times New Roman,serif" font-size="14.00">e</text>
</g>
<!-- 2 -->
<g id="node4" class="node"><title>2</title>
<ellipse fill="none" stroke="black" cx="343.6" cy="-78.0811" rx="18" ry="18"/>
<text text-anchor="middle" x="343.6" y="-74.3811" font-family="Times New Roman,serif" font-size="14.00">2</text>
</g>
<!-- 0&#45;&gt;2 -->
<g id="edge13" class="edge"><title>0&#45;&gt;2</title>
<path fill="none" stroke="black" d="M113.213,-35.1679C153.546,-15.4538 244.458,20.7823 307.6,-16.0811 320.615,-23.6793 329.171,-38.103 334.564,-51.1274"/>
<polygon fill="black" stroke="black" points="331.344,-52.5111 338.093,-60.6782 337.91,-50.085 331.344,-52.5111"/>
<text text-anchor="middle" x="227.1" y="-5.8811" font-family="Times New Roman,serif" font-size="14.00">i</text>
</g>
<!-- 3 -->
<g id="node5" class="node"><title>3</title>
<ellipse fill="none" stroke="black" cx="266.6" cy="-44.0811" rx="18" ry="18"/>
<text text-anchor="middle" x="266.6" y="-40.3811" font-family="Times New Roman,serif" font-size="14.00">3</text>
</g>
<!-- 0&#45;&gt;3 -->
<g id="edge12" class="edge"><title>0&#45;&gt;3</title>
<path fill="none" stroke="black" d="M118.875,-45.7773C151.146,-45.4043 205.619,-44.7745 238.336,-44.3963"/>
<polygon fill="black" stroke="black" points="238.575,-47.8939 248.534,-44.2784 238.494,-40.8943 238.575,-47.8939"/>
<text text-anchor="middle" x="183.6" y="-48.8811" font-family="Times New Roman,serif" font-size="14.00">f</text>
</g>
<!-- 1&#45;&gt;0 -->
<g id="edge2" class="edge"><title>1&#45;&gt;0</title>
<path fill="none" stroke="black" d="M168.29,-84.6845C161.402,-77.5797 152.675,-69.635 143.6,-64.0811 138.418,-60.9098 132.598,-58.1918 126.793,-55.9004"/>
<polygon fill="black" stroke="black" points="127.747,-52.5245 117.153,-52.4423 125.384,-59.1134 127.747,-52.5245"/>
<text text-anchor="middle" x="140.1" y="-67.8811" font-family="Times New Roman,serif" font-size="14.00">e</text>
</g>
<!-- 1&#45;&gt;2 -->
<g id="edge3" class="edge"><title>1&#45;&gt;2</title>
<path fill="none" stroke="black" d="M205.488,-104.3C225.861,-106.834 257.633,-109.169 284.6,-104.081 296.269,-101.879 308.376,-96.9346 318.491,-91.9419"/>
<polygon fill="black" stroke="black" points="320.261,-94.9657 327.499,-87.2284 317.016,-88.7634 320.261,-94.9657"/>
<text text-anchor="middle" x="266.6" y="-110.881" font-family="Times New Roman,serif" font-size="14.00">f</text>
</g>
<!-- 1&#45;&gt;3 -->
<g id="edge4" class="edge"><title>1&#45;&gt;3</title>
<path fill="none" stroke="black" d="M199.191,-85.1175C206.136,-78.1001 214.829,-70.1041 223.6,-64.0811 228.718,-60.5665 234.55,-57.3592 240.205,-54.5916"/>
<polygon fill="black" stroke="black" points="241.769,-57.7245 249.398,-50.3723 238.85,-51.3625 241.769,-57.7245"/>
<text text-anchor="middle" x="227.1" y="-67.8811" font-family="Times New Roman,serif" font-size="14.00">i</text>
</g>
<!-- 2&#45;&gt;1 -->
<g id="edge8" class="edge"><title>2&#45;&gt;1</title>
<path fill="none" stroke="black" d="M331.503,-92.1376C320.964,-104.14 303.894,-120.346 284.6,-126.081 260.424,-133.268 232.559,-124.964 212.394,-116.048"/>
<polygon fill="black" stroke="black" points="213.7,-112.794 203.163,-111.687 210.709,-119.123 213.7,-112.794"/>
<text text-anchor="middle" x="266.6" y="-131.881" font-family="Times New Roman,serif" font-size="14.00">e</text>
</g>
<!-- 2&#45;&gt;3 -->
<g id="edge9" class="edge"><title>2&#45;&gt;3</title>
<path fill="none" stroke="black" d="M325.294,-79.1766C318.034,-79.0365 309.656,-78.0632 302.6,-75.0811 296.756,-72.6114 291.219,-68.7603 286.345,-64.6014"/>
<polygon fill="black" stroke="black" points="288.504,-61.8263 278.832,-57.5014 283.696,-66.9138 288.504,-61.8263"/>
<text text-anchor="middle" x="305.1" y="-79.8811" font-family="Times New Roman,serif" font-size="14.00">f</text>
</g>
<!-- 2&#45;&gt;3 -->
<g id="edge10" class="edge"><title>2&#45;&gt;3</title>
<path fill="none" stroke="black" d="M328.447,-67.9616C322.261,-63.8667 314.788,-59.3457 307.6,-56.0811 303.326,-54.1398 298.655,-52.4129 294.061,-50.9161"/>
<polygon fill="black" stroke="black" points="294.895,-47.5128 284.312,-48.0129 292.898,-54.2216 294.895,-47.5128"/>
<text text-anchor="middle" x="305.1" y="-59.8811" font-family="Times New Roman,serif" font-size="14.00">i</text>
</g>
<!-- 3&#45;&gt;1 -->
<g id="edge5" class="edge"><title>3&#45;&gt;1</title>
<path fill="none" stroke="black" d="M254.218,-57.4923C247.782,-64.5227 239.299,-72.9267 230.6,-79.0811 225.507,-82.6841 219.733,-85.9705 214.038,-88.8417"/>
<polygon fill="black" stroke="black" points="212.214,-85.8322 204.663,-93.264 215.2,-92.1631 212.214,-85.8322"/>
<text text-anchor="middle" x="227.1" y="-86.8811" font-family="Times New Roman,serif" font-size="14.00">e</text>
</g>
<!-- 3&#45;&gt;2 -->
<g id="edge6" class="edge"><title>3&#45;&gt;2</title>
<path fill="none" stroke="black" d="M279.164,-30.9881C287.158,-23.5863 298.034,-16.7791 307.6,-22.0811 319.273,-28.5508 327.567,-40.7155 333.141,-52.0583"/>
<polygon fill="black" stroke="black" points="329.958,-53.515 337.199,-61.25 336.362,-50.6882 329.958,-53.515"/>
<text text-anchor="middle" x="305.1" y="-25.8811" font-family="Times New Roman,serif" font-size="14.00">f</text>
</g>
<!-- 3&#45;&gt;3 -->
<g id="edge7" class="edge"><title>3&#45;&gt;3</title>
<path fill="none" stroke="black" d="M259.866,-61.1184C258.492,-70.939 260.737,-80.0811 266.6,-80.0811 270.265,-80.0811 272.516,-76.51 273.353,-71.434"/>
<polygon fill="black" stroke="black" points="276.852,-71.1118 273.334,-61.1184 269.852,-71.125 276.852,-71.1118"/>
<text text-anchor="middle" x="266.6" y="-83.8811" font-family="Times New Roman,serif" font-size="14.00">i</text>
</g>
</g>
</svg>
