<?xml version="1.0" encoding="UTF-8" standalone="no"?>
<!DOCTYPE svg PUBLIC "-//W3C//DTD SVG 1.1//EN"
 "http://www.w3.org/Graphics/SVG/1.1/DTD/svg11.dtd">
<!-- Generated by graphviz version 2.38.0 (20140413.2041)
 -->
<!-- Title: dfa Pages: 1 -->
<svg width="196pt" height="132pt"
 viewBox="0.00 0.00 195.60 132.50" xmlns="http://www.w3.org/2000/svg" xmlns:xlink="http://www.w3.org/1999/xlink">
<g id="graph0" class="graph" transform="scale(1 1) rotate(0) translate(4 128.498)">
<title>dfa</title>
<polygon fill="white" stroke="none" points="-4,4 -4,-128.498 191.6,-128.498 191.6,4 -4,4"/>
<!-- __start -->
<!-- 0 -->
<g id="node2" class="node"><title>0</title>
<ellipse fill="none" stroke="black" cx="82.6" cy="-40.4984" rx="18" ry="18"/>
<text text-anchor="middle" x="82.6" y="-36.7984" font-family="Times New Roman,serif" font-size="14.00">0</text>
</g>
<!-- __start&#45;&gt;0 -->
<g id="edge1" class="edge"><title>__start&#45;&gt;0</title>
<path fill="none" stroke="black" d="M3.68496,-40.4984C8.69573,-40.4984 34.008,-40.4984 54.4423,-40.4984"/>
<polygon fill="black" stroke="black" points="54.5501,-43.9985 64.5501,-40.4984 54.5501,-36.9985 54.5501,-43.9985"/>
<text text-anchor="middle" x="34.1" y="-44.2984" font-family="Times New Roman,serif" font-size="14.00">start</text>
</g>
<!-- 0&#45;&gt;0 -->
<g id="edge6" class="edge"><title>0&#45;&gt;0</title>
<path fill="none" stroke="black" d="M79.1845,-58.2801C78.6041,-67.8133 79.7426,-76.4984 82.6,-76.4984 84.3412,-76.4984 85.4442,-73.2733 85.9088,-68.5965"/>
<polygon fill="black" stroke="black" points="89.4118,-68.3158 86.0155,-58.2801 82.4122,-68.2433 89.4118,-68.3158"/>
<text text-anchor="middle" x="82.6" y="-80.2984" font-family="Times New Roman,serif" font-size="14.00">f</text>
</g>
<!-- 0&#45;&gt;0 -->
<g id="edge7" class="edge"><title>0&#45;&gt;0</title>
<path fill="none" stroke="black" d="M77.0406,-57.6401C73.7703,-75.0833 75.6234,-94.4984 82.6,-94.4984 88.214,-94.4984 90.5104,-81.9267 89.4893,-67.9271"/>
<polygon fill="black" stroke="black" points="92.9127,-67.1088 88.1594,-57.6401 85.9705,-68.0064 92.9127,-67.1088"/>
<text text-anchor="middle" x="82.6" y="-98.2984" font-family="Times New Roman,serif" font-size="14.00">i</text>
</g>
<!-- 1 -->
<g id="node3" class="node"><title>1</title>
<ellipse fill="none" stroke="black" cx="165.6" cy="-40.4984" rx="18" ry="18"/>
<ellipse fill="none" stroke="black" cx="165.6" cy="-40.4984" rx="22" ry="22"/>
<text text-anchor="middle" x="165.6" y="-36.7984" font-family="Times New Roman,serif" font-size="14.00">1</text>
</g>
<!-- 0&#45;&gt;1 -->
<g id="edge5" class="edge"><title>0&#45;&gt;1</title>
<path fill="none" stroke="black" d="M97.9113,-50.3641C104.002,-53.9918 111.363,-57.6606 118.6,-59.4984 125.085,-61.1451 131.856,-60.0571 138.146,-57.7382"/>
<polygon fill="black" stroke="black" points="139.985,-60.74 147.525,-53.2969 136.989,-54.4135 139.985,-60.74"/>
<text text-anchor="middle" x="122.1" y="-63.2984" font-family="Times New Roman,serif" font-size="14.00">e</text>
</g>
<!-- 1&#45;&gt;0 -->
<g id="edge2" class="edge"><title>1&#45;&gt;0</title>
<path fill="none" stroke="black" d="M143.411,-40.4984C133.448,-40.4984 121.449,-40.4984 110.822,-40.4984"/>
<polygon fill="black" stroke="black" points="110.778,-36.9985 100.778,-40.4984 110.778,-43.9985 110.778,-36.9985"/>
<text text-anchor="middle" x="122.1" y="-44.2984" font-family="Times New Roman,serif" font-size="14.00">e</text>
</g>
<!-- 1&#45;&gt;0 -->
<g id="edge3" class="edge"><title>1&#45;&gt;0</title>
<path fill="none" stroke="black" d="M147.525,-27.6998C139.028,-22.8298 128.482,-18.989 118.6,-21.4984 114.642,-22.5034 110.647,-24.056 106.844,-25.8501"/>
<polygon fill="black" stroke="black" points="105.075,-22.8268 97.9113,-30.6326 108.379,-28.9979 105.075,-22.8268"/>
<text text-anchor="middle" x="122.1" y="-25.2984" font-family="Times New Roman,serif" font-size="14.00">f</text>
</g>
<!-- 1&#45;&gt;0 -->
<g id="edge4" class="edge"><title>1&#45;&gt;0</title>
<path fill="none" stroke="black" d="M152.262,-22.8956C145.449,-14.7397 136.216,-5.89558 125.6,-1.49836 114.284,3.18892 104.14,-5.6483 96.6566,-16.0876"/>
<polygon fill="black" stroke="black" points="93.6712,-14.2599 91.2544,-24.5755 99.5765,-18.0185 93.6712,-14.2599"/>
<text text-anchor="middle" x="122.1" y="-5.29836" font-family="Times New Roman,serif" font-size="14.00">i</text>
</g>
</g>
</svg>
