<?xml version="1.0" encoding="UTF-8" standalone="no"?>
<!DOCTYPE svg PUBLIC "-//W3C//DTD SVG 1.1//EN"
 "http://www.w3.org/Graphics/SVG/1.1/DTD/svg11.dtd">
<!-- Generated by graphviz version 2.38.0 (20140413.2041)
 -->
<!-- Title: enfa Pages: 1 -->
<svg width="372pt" height="170pt"
 viewBox="0.00 0.00 371.60 170.08" xmlns="http://www.w3.org/2000/svg" xmlns:xlink="http://www.w3.org/1999/xlink">
<g id="graph0" class="graph" transform="scale(1 1) rotate(0) translate(4 166.078)">
<title>enfa</title>
<polygon fill="white" stroke="none" points="-4,4 -4,-166.078 367.6,-166.078 367.6,4 -4,4"/>
<!-- __start -->
<!-- 0 -->
<g id="node2" class="node"><title>0</title>
<ellipse fill="none" stroke="black" cx="91.6" cy="-62.0781" rx="27" ry="18"/>
<text text-anchor="middle" x="91.6" y="-58.3781" font-family="Times New Roman,serif" font-size="14.00">0</text>
</g>
<!-- __start&#45;&gt;0 -->
<g id="edge1" class="edge"><title>__start&#45;&gt;0</title>
<path fill="none" stroke="black" d="M3.78604,-62.0781C8.86985,-62.0781 32.7092,-62.0781 54.1222,-62.0781"/>
<polygon fill="black" stroke="black" points="54.3463,-65.5782 64.3463,-62.0781 54.3463,-58.5782 54.3463,-65.5782"/>
<text text-anchor="middle" x="34.1" y="-65.8781" font-family="Times New Roman,serif" font-size="14.00">start</text>
</g>
<!-- 1 -->
<g id="node3" class="node"><title>1</title>
<ellipse fill="none" stroke="black" cx="183.6" cy="-140.078" rx="18" ry="18"/>
<ellipse fill="none" stroke="black" cx="183.6" cy="-140.078" rx="22" ry="22"/>
<text text-anchor="middle" x="183.6" y="-136.378" font-family="Times New Roman,serif" font-size="14.00">1</text>
</g>
<!-- 0&#45;&gt;1 -->
<g id="edge3" class="edge"><title>0&#45;&gt;1</title>
<path fill="none" stroke="black" d="M108.69,-76.0229C122.554,-88.0384 142.767,-105.556 158.552,-119.236"/>
<polygon fill="black" stroke="black" points="156.496,-122.087 166.346,-125.991 161.081,-116.797 156.496,-122.087"/>
<text text-anchor="middle" x="140.1" y="-108.878" font-family="Times New Roman,serif" font-size="14.00">v</text>
</g>
<!-- 2 -->
<g id="node4" class="node"><title>2</title>
<ellipse fill="none" stroke="black" cx="266.6" cy="-110.078" rx="18" ry="18"/>
<text text-anchor="middle" x="266.6" y="-106.378" font-family="Times New Roman,serif" font-size="14.00">2</text>
</g>
<!-- 0&#45;&gt;2 -->
<g id="edge2" class="edge"><title>0&#45;&gt;2</title>
<path fill="none" stroke="black" d="M117.02,-68.8535C149.293,-77.8079 205.934,-93.5233 239.179,-102.747"/>
<polygon fill="black" stroke="black" points="238.519,-106.196 249.09,-105.497 240.39,-99.4512 238.519,-106.196"/>
<text text-anchor="middle" x="183.6" y="-96.8781" font-family="Times New Roman,serif" font-size="14.00">v</text>
</g>
<!-- 3 -->
<g id="node5" class="node"><title>3</title>
<ellipse fill="none" stroke="black" cx="345.6" cy="-72.0781" rx="18" ry="18"/>
<text text-anchor="middle" x="345.6" y="-68.3781" font-family="Times New Roman,serif" font-size="14.00">3</text>
</g>
<!-- 0&#45;&gt;3 -->
<g id="edge8" class="edge"><title>0&#45;&gt;3</title>
<path fill="none" stroke="black" d="M118.726,-61.2878C159.561,-60.3388 240.951,-59.5987 309.6,-66.0781 312.178,-66.3214 314.852,-66.6464 317.521,-67.0197"/>
<polygon fill="black" stroke="black" points="317.152,-70.505 327.579,-68.6283 318.257,-63.5928 317.152,-70.505"/>
<text text-anchor="middle" x="227.1" y="-64.8781" font-family="Times New Roman,serif" font-size="14.00">j</text>
</g>
<!-- 1&#45;&gt;2 -->
<g id="edge7" class="edge"><title>1&#45;&gt;2</title>
<path fill="none" stroke="black" d="M204.622,-132.662C215.275,-128.717 228.493,-123.821 239.897,-119.598"/>
<polygon fill="black" stroke="black" points="241.179,-122.855 249.341,-116.1 238.748,-116.291 241.179,-122.855"/>
<text text-anchor="middle" x="227.1" y="-128.878" font-family="Times New Roman,serif" font-size="14.00">ε</text>
</g>
<!-- 2&#45;&gt;3 -->
<g id="edge4" class="edge"><title>2&#45;&gt;3</title>
<path fill="none" stroke="black" d="M281.246,-121.165C289.667,-126.589 300.551,-130.997 309.6,-126.078 320.76,-120.012 328.911,-108.683 334.524,-97.9623"/>
<polygon fill="black" stroke="black" points="337.723,-99.3836 338.815,-88.8451 331.39,-96.4024 337.723,-99.3836"/>
<text text-anchor="middle" x="306.1" y="-131.878" font-family="Times New Roman,serif" font-size="14.00">ε</text>
</g>
<!-- 2&#45;&gt;3 -->
<g id="edge9" class="edge"><title>2&#45;&gt;3</title>
<path fill="none" stroke="black" d="M283.182,-102.388C293.723,-97.1861 307.868,-90.2054 319.927,-84.2546"/>
<polygon fill="black" stroke="black" points="321.623,-87.3207 329.041,-79.7565 318.525,-81.0435 321.623,-87.3207"/>
<text text-anchor="middle" x="306.1" y="-95.8781" font-family="Times New Roman,serif" font-size="14.00">j</text>
</g>
<!-- 3&#45;&gt;0 -->
<g id="edge6" class="edge"><title>3&#45;&gt;0</title>
<path fill="none" stroke="black" d="M336.497,-56.4309C330.401,-46.1185 321.132,-33.0865 309.6,-25.0781 279.564,-4.21874 266.803,-7.24092 230.6,-2.0781 188.021,3.99411 174.773,-5.26178 136.6,-25.0781 129.001,-29.0227 121.555,-34.4782 115.011,-39.9891"/>
<polygon fill="black" stroke="black" points="112.403,-37.6252 107.263,-46.8896 117.058,-42.8527 112.403,-37.6252"/>
<text text-anchor="middle" x="227.1" y="-5.8781" font-family="Times New Roman,serif" font-size="14.00">v</text>
</g>
<!-- 3&#45;&gt;2 -->
<g id="edge5" class="edge"><title>3&#45;&gt;2</title>
<path fill="none" stroke="black" d="M327.592,-69.5633C319.679,-69.1122 310.331,-69.6398 302.6,-73.0781 295.379,-76.2896 288.934,-81.7685 283.604,-87.5401"/>
<polygon fill="black" stroke="black" points="280.764,-85.4812 277.057,-95.4065 286.144,-89.959 280.764,-85.4812"/>
<text text-anchor="middle" x="306.1" y="-76.8781" font-family="Times New Roman,serif" font-size="14.00">j</text>
</g>
</g>
</svg>
