<?xml version="1.0" encoding="UTF-8" standalone="no"?>
<!DOCTYPE svg PUBLIC "-//W3C//DTD SVG 1.1//EN"
 "http://www.w3.org/Graphics/SVG/1.1/DTD/svg11.dtd">
<!-- Generated by graphviz version 2.38.0 (20140413.2041)
 -->
<!-- Title: enfa Pages: 1 -->
<svg width="354pt" height="170pt"
 viewBox="0.00 0.00 353.60 170.21" xmlns="http://www.w3.org/2000/svg" xmlns:xlink="http://www.w3.org/1999/xlink">
<g id="graph0" class="graph" transform="scale(1 1) rotate(0) translate(4 166.212)">
<title>enfa</title>
<polygon fill="white" stroke="none" points="-4,4 -4,-166.212 349.6,-166.212 349.6,4 -4,4"/>
<!-- __start -->
<!-- 0 -->
<g id="node2" class="node"><title>0</title>
<ellipse fill="none" stroke="black" cx="82.6" cy="-62.212" rx="18" ry="18"/>
<text text-anchor="middle" x="82.6" y="-58.512" font-family="Times New Roman,serif" font-size="14.00">0</text>
</g>
<!-- __start&#45;&gt;0 -->
<g id="edge1" class="edge"><title>__start&#45;&gt;0</title>
<path fill="none" stroke="black" d="M3.68496,-62.212C8.69573,-62.212 34.008,-62.212 54.4423,-62.212"/>
<polygon fill="black" stroke="black" points="54.5501,-65.7121 64.5501,-62.212 54.5501,-58.7121 54.5501,-65.7121"/>
<text text-anchor="middle" x="34.1" y="-66.012" font-family="Times New Roman,serif" font-size="14.00">start</text>
</g>
<!-- 1 -->
<g id="node3" class="node"><title>1</title>
<ellipse fill="none" stroke="black" cx="165.6" cy="-140.212" rx="18" ry="18"/>
<ellipse fill="none" stroke="black" cx="165.6" cy="-140.212" rx="22" ry="22"/>
<text text-anchor="middle" x="165.6" y="-136.512" font-family="Times New Roman,serif" font-size="14.00">1</text>
</g>
<!-- 0&#45;&gt;1 -->
<g id="edge3" class="edge"><title>0&#45;&gt;1</title>
<path fill="none" stroke="black" d="M95.3259,-75.1419C102.002,-82.3671 110.606,-91.4515 118.6,-99.212 125.441,-105.853 133.094,-112.84 140.165,-119.126"/>
<polygon fill="black" stroke="black" points="138.295,-122.142 148.114,-126.121 142.919,-116.887 138.295,-122.142"/>
<text text-anchor="middle" x="122.1" y="-108.012" font-family="Times New Roman,serif" font-size="14.00">v</text>
</g>
<!-- 2 -->
<g id="node4" class="node"><title>2</title>
<ellipse fill="none" stroke="black" cx="248.6" cy="-110.212" rx="18" ry="18"/>
<text text-anchor="middle" x="248.6" y="-106.512" font-family="Times New Roman,serif" font-size="14.00">2</text>
</g>
<!-- 0&#45;&gt;2 -->
<g id="edge2" class="edge"><title>0&#45;&gt;2</title>
<path fill="none" stroke="black" d="M100.228,-67.0786C128.714,-75.416 187.068,-92.4954 221.18,-102.479"/>
<polygon fill="black" stroke="black" points="220.348,-105.882 230.928,-105.332 222.314,-99.1643 220.348,-105.882"/>
<text text-anchor="middle" x="165.6" y="-96.012" font-family="Times New Roman,serif" font-size="14.00">v</text>
</g>
<!-- 3 -->
<g id="node5" class="node"><title>3</title>
<ellipse fill="none" stroke="black" cx="327.6" cy="-72.212" rx="18" ry="18"/>
<text text-anchor="middle" x="327.6" y="-68.512" font-family="Times New Roman,serif" font-size="14.00">3</text>
</g>
<!-- 0&#45;&gt;3 -->
<g id="edge8" class="edge"><title>0&#45;&gt;3</title>
<path fill="none" stroke="black" d="M100.635,-61.6744C136.208,-60.7422 220.945,-59.5149 291.6,-66.212 294.178,-66.4563 296.852,-66.782 299.521,-67.1557"/>
<polygon fill="black" stroke="black" points="299.152,-70.641 309.579,-68.7649 300.257,-63.7289 299.152,-70.641"/>
<text text-anchor="middle" x="209.1" y="-65.012" font-family="Times New Roman,serif" font-size="14.00">j</text>
</g>
<!-- 1&#45;&gt;2 -->
<g id="edge7" class="edge"><title>1&#45;&gt;2</title>
<path fill="none" stroke="black" d="M186.622,-132.796C197.275,-128.851 210.493,-123.955 221.897,-119.732"/>
<polygon fill="black" stroke="black" points="223.179,-122.989 231.341,-116.234 220.748,-116.425 223.179,-122.989"/>
<text text-anchor="middle" x="209.1" y="-129.012" font-family="Times New Roman,serif" font-size="14.00">ε</text>
</g>
<!-- 2&#45;&gt;3 -->
<g id="edge4" class="edge"><title>2&#45;&gt;3</title>
<path fill="none" stroke="black" d="M263.246,-121.299C271.667,-126.723 282.551,-131.131 291.6,-126.212 302.76,-120.146 310.911,-108.817 316.524,-98.0962"/>
<polygon fill="black" stroke="black" points="319.723,-99.5174 320.815,-88.979 313.39,-96.5362 319.723,-99.5174"/>
<text text-anchor="middle" x="288.1" y="-132.012" font-family="Times New Roman,serif" font-size="14.00">ε</text>
</g>
<!-- 2&#45;&gt;3 -->
<g id="edge9" class="edge"><title>2&#45;&gt;3</title>
<path fill="none" stroke="black" d="M265.182,-102.522C275.723,-97.32 289.868,-90.3393 301.927,-84.3884"/>
<polygon fill="black" stroke="black" points="303.623,-87.4546 311.041,-79.8904 300.525,-81.1773 303.623,-87.4546"/>
<text text-anchor="middle" x="288.1" y="-96.012" font-family="Times New Roman,serif" font-size="14.00">j</text>
</g>
<!-- 3&#45;&gt;0 -->
<g id="edge6" class="edge"><title>3&#45;&gt;0</title>
<path fill="none" stroke="black" d="M318.497,-56.5648C312.401,-46.2524 303.132,-33.2204 291.6,-25.212 261.564,-4.35262 248.803,-7.3748 212.6,-2.21198 170.021,3.86023 155.583,-3.25359 118.6,-25.212 111.909,-29.1846 105.683,-34.7981 100.392,-40.455"/>
<polygon fill="black" stroke="black" points="97.7144,-38.2001 93.8011,-48.0457 103,-42.7894 97.7144,-38.2001"/>
<text text-anchor="middle" x="209.1" y="-6.01198" font-family="Times New Roman,serif" font-size="14.00">v</text>
</g>
<!-- 3&#45;&gt;2 -->
<g id="edge5" class="edge"><title>3&#45;&gt;2</title>
<path fill="none" stroke="black" d="M309.592,-69.6972C301.679,-69.2461 292.331,-69.7737 284.6,-73.212 277.379,-76.4235 270.934,-81.9024 265.604,-87.674"/>
<polygon fill="black" stroke="black" points="262.764,-85.6151 259.057,-95.5404 268.144,-90.0929 262.764,-85.6151"/>
<text text-anchor="middle" x="288.1" y="-77.012" font-family="Times New Roman,serif" font-size="14.00">j</text>
</g>
</g>
</svg>
