<?xml version="1.0" encoding="UTF-8" standalone="no"?>
<!DOCTYPE svg PUBLIC "-//W3C//DTD SVG 1.1//EN"
 "http://www.w3.org/Graphics/SVG/1.1/DTD/svg11.dtd">
<!-- Generated by graphviz version 2.38.0 (20140413.2041)
 -->
<!-- Title: dfa Pages: 1 -->
<svg width="290pt" height="103pt"
 viewBox="0.00 0.00 289.60 103.00" xmlns="http://www.w3.org/2000/svg" xmlns:xlink="http://www.w3.org/1999/xlink">
<g id="graph0" class="graph" transform="scale(1 1) rotate(0) translate(4 99)">
<title>dfa</title>
<polygon fill="white" stroke="none" points="-4,4 -4,-99 285.6,-99 285.6,4 -4,4"/>
<!-- __start -->
<!-- 0 -->
<g id="node2" class="node"><title>0</title>
<ellipse fill="none" stroke="black" cx="91.6" cy="-34" rx="27" ry="18"/>
<text text-anchor="middle" x="91.6" y="-30.3" font-family="Times New Roman,serif" font-size="14.00">0</text>
</g>
<!-- __start&#45;&gt;0 -->
<g id="edge1" class="edge"><title>__start&#45;&gt;0</title>
<path fill="none" stroke="black" d="M3.78604,-34C8.86985,-34 32.7092,-34 54.1222,-34"/>
<polygon fill="black" stroke="black" points="54.3463,-37.5001 64.3463,-34 54.3463,-30.5001 54.3463,-37.5001"/>
<text text-anchor="middle" x="34.1" y="-37.8" font-family="Times New Roman,serif" font-size="14.00">start</text>
</g>
<!-- 1 -->
<g id="node3" class="node"><title>1</title>
<ellipse fill="none" stroke="black" cx="183.6" cy="-73" rx="18" ry="18"/>
<ellipse fill="none" stroke="black" cx="183.6" cy="-73" rx="22" ry="22"/>
<text text-anchor="middle" x="183.6" y="-69.3" font-family="Times New Roman,serif" font-size="14.00">1</text>
</g>
<!-- 0&#45;&gt;1 -->
<g id="edge2" class="edge"><title>0&#45;&gt;1</title>
<path fill="none" stroke="black" d="M108.075,-48.7262C116.001,-55.4085 126.164,-62.7517 136.6,-67 141.206,-68.8751 146.267,-70.1947 151.294,-71.1177"/>
<polygon fill="black" stroke="black" points="151.029,-74.614 161.412,-72.5062 151.98,-67.679 151.029,-74.614"/>
<text text-anchor="middle" x="140.1" y="-72.8" font-family="Times New Roman,serif" font-size="14.00">v</text>
</g>
<!-- 2 -->
<g id="node4" class="node"><title>2</title>
<ellipse fill="none" stroke="black" cx="263.6" cy="-18" rx="18" ry="18"/>
<text text-anchor="middle" x="263.6" y="-14.3" font-family="Times New Roman,serif" font-size="14.00">2</text>
</g>
<!-- 0&#45;&gt;2 -->
<g id="edge3" class="edge"><title>0&#45;&gt;2</title>
<path fill="none" stroke="black" d="M118.478,-31.2991C131.424,-29.9671 147.336,-28.359 161.6,-27 186.556,-24.6223 215.001,-22.1049 235.331,-20.339"/>
<polygon fill="black" stroke="black" points="235.777,-23.8136 245.438,-19.4649 235.174,-16.8396 235.777,-23.8136"/>
<text text-anchor="middle" x="183.6" y="-30.8" font-family="Times New Roman,serif" font-size="14.00">j</text>
</g>
<!-- 1&#45;&gt;0 -->
<g id="edge4" class="edge"><title>1&#45;&gt;0</title>
<path fill="none" stroke="black" d="M165.376,-60.3669C158.807,-55.984 151.094,-51.3373 143.6,-48 138.463,-45.7121 132.864,-43.7176 127.319,-42.007"/>
<polygon fill="black" stroke="black" points="128.082,-38.5857 117.507,-39.2326 126.178,-45.3216 128.082,-38.5857"/>
<text text-anchor="middle" x="140.1" y="-51.8" font-family="Times New Roman,serif" font-size="14.00">v</text>
</g>
<!-- 1&#45;&gt;2 -->
<g id="edge5" class="edge"><title>1&#45;&gt;2</title>
<path fill="none" stroke="black" d="M201.911,-60.7937C213.179,-52.8483 227.989,-42.4053 240.158,-33.8246"/>
<polygon fill="black" stroke="black" points="242.308,-36.5912 248.463,-27.9681 238.274,-30.8704 242.308,-36.5912"/>
<text text-anchor="middle" x="225.6" y="-48.8" font-family="Times New Roman,serif" font-size="14.00">j</text>
</g>
<!-- 2&#45;&gt;0 -->
<g id="edge6" class="edge"><title>2&#45;&gt;0</title>
<path fill="none" stroke="black" d="M246.392,-12.356C226.345,-6.15322 191.237,2.16408 161.6,-4 147.977,-6.83341 133.744,-12.5032 121.768,-18.1582"/>
<polygon fill="black" stroke="black" points="120.118,-15.0695 112.702,-22.6359 123.218,-21.3458 120.118,-15.0695"/>
<text text-anchor="middle" x="183.6" y="-7.8" font-family="Times New Roman,serif" font-size="14.00">v</text>
</g>
<!-- 2&#45;&gt;2 -->
<g id="edge7" class="edge"><title>2&#45;&gt;2</title>
<path fill="none" stroke="black" d="M256.866,-35.0373C255.492,-44.8579 257.737,-54 263.6,-54 267.265,-54 269.516,-50.4289 270.353,-45.3529"/>
<polygon fill="black" stroke="black" points="273.852,-45.0307 270.334,-35.0373 266.852,-45.0439 273.852,-45.0307"/>
<text text-anchor="middle" x="263.6" y="-57.8" font-family="Times New Roman,serif" font-size="14.00">j</text>
</g>
</g>
</svg>
