<?xml version="1.0" encoding="UTF-8" standalone="no"?>
<!DOCTYPE svg PUBLIC "-//W3C//DTD SVG 1.1//EN"
 "http://www.w3.org/Graphics/SVG/1.1/DTD/svg11.dtd">
<!-- Generated by graphviz version 2.38.0 (20140413.2041)
 -->
<!-- Title: dfa Pages: 1 -->
<svg width="272pt" height="103pt"
 viewBox="0.00 0.00 271.60 103.00" xmlns="http://www.w3.org/2000/svg" xmlns:xlink="http://www.w3.org/1999/xlink">
<g id="graph0" class="graph" transform="scale(1 1) rotate(0) translate(4 99)">
<title>dfa</title>
<polygon fill="white" stroke="none" points="-4,4 -4,-99 267.6,-99 267.6,4 -4,4"/>
<!-- __start -->
<!-- 0 -->
<g id="node2" class="node"><title>0</title>
<ellipse fill="none" stroke="black" cx="82.6" cy="-34" rx="18" ry="18"/>
<text text-anchor="middle" x="82.6" y="-30.3" font-family="Times New Roman,serif" font-size="14.00">0</text>
</g>
<!-- __start&#45;&gt;0 -->
<g id="edge1" class="edge"><title>__start&#45;&gt;0</title>
<path fill="none" stroke="black" d="M3.68496,-34C8.69573,-34 34.008,-34 54.4423,-34"/>
<polygon fill="black" stroke="black" points="54.5501,-37.5001 64.5501,-34 54.5501,-30.5001 54.5501,-37.5001"/>
<text text-anchor="middle" x="34.1" y="-37.8" font-family="Times New Roman,serif" font-size="14.00">start</text>
</g>
<!-- 1 -->
<g id="node3" class="node"><title>1</title>
<ellipse fill="none" stroke="black" cx="165.6" cy="-73" rx="18" ry="18"/>
<ellipse fill="none" stroke="black" cx="165.6" cy="-73" rx="22" ry="22"/>
<text text-anchor="middle" x="165.6" y="-69.3" font-family="Times New Roman,serif" font-size="14.00">1</text>
</g>
<!-- 0&#45;&gt;1 -->
<g id="edge2" class="edge"><title>0&#45;&gt;1</title>
<path fill="none" stroke="black" d="M94.457,-47.7337C100.739,-54.6813 109.243,-62.5624 118.6,-67 123.093,-69.1311 128.096,-70.5832 133.1,-71.5599"/>
<polygon fill="black" stroke="black" points="132.825,-75.0552 143.211,-72.9621 133.787,-68.1216 132.825,-75.0552"/>
<text text-anchor="middle" x="122.1" y="-72.8" font-family="Times New Roman,serif" font-size="14.00">v</text>
</g>
<!-- 2 -->
<g id="node4" class="node"><title>2</title>
<ellipse fill="none" stroke="black" cx="245.6" cy="-18" rx="18" ry="18"/>
<text text-anchor="middle" x="245.6" y="-14.3" font-family="Times New Roman,serif" font-size="14.00">2</text>
</g>
<!-- 0&#45;&gt;2 -->
<g id="edge3" class="edge"><title>0&#45;&gt;2</title>
<path fill="none" stroke="black" d="M100.656,-31.8848C112.656,-30.4272 129.099,-28.4917 143.6,-27 168.538,-24.4347 196.985,-21.9384 217.32,-20.2282"/>
<polygon fill="black" stroke="black" points="217.755,-23.7042 227.43,-19.3865 217.174,-16.7283 217.755,-23.7042"/>
<text text-anchor="middle" x="165.6" y="-30.8" font-family="Times New Roman,serif" font-size="14.00">j</text>
</g>
<!-- 1&#45;&gt;0 -->
<g id="edge4" class="edge"><title>1&#45;&gt;0</title>
<path fill="none" stroke="black" d="M147.275,-60.5846C140.696,-56.2253 133.001,-51.5378 125.6,-48 120.698,-45.6569 115.301,-43.5403 110.056,-41.7039"/>
<polygon fill="black" stroke="black" points="110.92,-38.3042 100.327,-38.5316 108.749,-44.9593 110.92,-38.3042"/>
<text text-anchor="middle" x="122.1" y="-51.8" font-family="Times New Roman,serif" font-size="14.00">v</text>
</g>
<!-- 1&#45;&gt;2 -->
<g id="edge5" class="edge"><title>1&#45;&gt;2</title>
<path fill="none" stroke="black" d="M183.911,-60.7937C195.179,-52.8483 209.989,-42.4053 222.158,-33.8246"/>
<polygon fill="black" stroke="black" points="224.308,-36.5912 230.463,-27.9681 220.274,-30.8704 224.308,-36.5912"/>
<text text-anchor="middle" x="207.6" y="-48.8" font-family="Times New Roman,serif" font-size="14.00">j</text>
</g>
<!-- 2&#45;&gt;0 -->
<g id="edge6" class="edge"><title>2&#45;&gt;0</title>
<path fill="none" stroke="black" d="M228.332,-11.7691C208.225,-4.9382 173.056,4.15977 143.6,-3 130.735,-6.12718 117.545,-12.5272 106.82,-18.7044"/>
<polygon fill="black" stroke="black" points="104.839,-15.8122 98.1001,-23.9875 108.467,-21.7992 104.839,-15.8122"/>
<text text-anchor="middle" x="165.6" y="-6.8" font-family="Times New Roman,serif" font-size="14.00">v</text>
</g>
<!-- 2&#45;&gt;2 -->
<g id="edge7" class="edge"><title>2&#45;&gt;2</title>
<path fill="none" stroke="black" d="M238.866,-35.0373C237.492,-44.8579 239.737,-54 245.6,-54 249.265,-54 251.516,-50.4289 252.353,-45.3529"/>
<polygon fill="black" stroke="black" points="255.852,-45.0307 252.334,-35.0373 248.852,-45.0439 255.852,-45.0307"/>
<text text-anchor="middle" x="245.6" y="-57.8" font-family="Times New Roman,serif" font-size="14.00">j</text>
</g>
</g>
</svg>
