<?xml version="1.0" encoding="UTF-8" standalone="no"?>
<!DOCTYPE svg PUBLIC "-//W3C//DTD SVG 1.1//EN"
 "http://www.w3.org/Graphics/SVG/1.1/DTD/svg11.dtd">
<!-- Generated by graphviz version 2.38.0 (20140413.2041)
 -->
<!-- Title: dfa Pages: 1 -->
<svg width="348pt" height="191pt"
 viewBox="0.00 0.00 348.18 191.11" xmlns="http://www.w3.org/2000/svg" xmlns:xlink="http://www.w3.org/1999/xlink">
<g id="graph0" class="graph" transform="scale(1 1) rotate(0) translate(4 187.11)">
<title>dfa</title>
<polygon fill="white" stroke="none" points="-4,4 -4,-187.11 344.184,-187.11 344.184,4 -4,4"/>
<!-- __start -->
<!-- {0} -->
<g id="node2" class="node"><title>{0}</title>
<ellipse fill="none" stroke="black" cx="88.6479" cy="-71.4134" rx="24.0958" ry="24.0958"/>
<text text-anchor="middle" x="88.6479" y="-67.7134" font-family="Times New Roman,serif" font-size="14.00">{0}</text>
</g>
<!-- __start&#45;&gt;{0} -->
<g id="edge1" class="edge"><title>__start&#45;&gt;{0}</title>
<path fill="none" stroke="black" d="M3.75288,-71.4134C8.82222,-71.4134 33.1893,-71.4134 54.3658,-71.4134"/>
<polygon fill="black" stroke="black" points="54.4068,-74.9135 64.4067,-71.4134 54.4067,-67.9135 54.4068,-74.9135"/>
<text text-anchor="middle" x="34.1" y="-75.2134" font-family="Times New Roman,serif" font-size="14.00">start</text>
</g>
<!-- {1,2,3} -->
<g id="node3" class="node"><title>{1,2,3}</title>
<ellipse fill="none" stroke="black" cx="197.392" cy="-141.413" rx="37.8753" ry="37.8753"/>
<ellipse fill="none" stroke="black" cx="197.392" cy="-141.413" rx="41.8942" ry="41.8942"/>
<text text-anchor="middle" x="197.392" y="-137.713" font-family="Times New Roman,serif" font-size="14.00">{1,2,3}</text>
</g>
<!-- {0}&#45;&gt;{1,2,3} -->
<g id="edge2" class="edge"><title>{0}&#45;&gt;{1,2,3}</title>
<path fill="none" stroke="black" d="M100.715,-92.2193C107.824,-103.655 118.086,-117.155 130.696,-125.413 135.36,-128.469 140.556,-130.941 145.924,-132.941"/>
<polygon fill="black" stroke="black" points="145.107,-136.354 155.698,-136.057 147.233,-129.685 145.107,-136.354"/>
<text text-anchor="middle" x="134.196" y="-133.213" font-family="Times New Roman,serif" font-size="14.00">v</text>
</g>
<!-- {3} -->
<g id="node4" class="node"><title>{3}</title>
<ellipse fill="none" stroke="black" cx="197.392" cy="-57.4134" rx="24.0958" ry="24.0958"/>
<text text-anchor="middle" x="197.392" y="-53.7134" font-family="Times New Roman,serif" font-size="14.00">{3}</text>
</g>
<!-- {0}&#45;&gt;{3} -->
<g id="edge3" class="edge"><title>{0}&#45;&gt;{3}</title>
<path fill="none" stroke="black" d="M112.547,-68.4101C127.321,-66.4724 146.781,-63.9202 163.233,-61.7624"/>
<polygon fill="black" stroke="black" points="164.071,-65.1826 173.531,-60.4118 163.161,-58.242 164.071,-65.1826"/>
<text text-anchor="middle" x="134.196" y="-70.2134" font-family="Times New Roman,serif" font-size="14.00">j</text>
</g>
<!-- {1,2,3}&#45;&gt;{0} -->
<g id="edge4" class="edge"><title>{1,2,3}&#45;&gt;{0}</title>
<path fill="none" stroke="black" d="M161.818,-118.741C147.528,-109.369 131.175,-98.6458 117.653,-89.7786"/>
<polygon fill="black" stroke="black" points="119.508,-86.8095 109.226,-84.2525 115.669,-92.6631 119.508,-86.8095"/>
<text text-anchor="middle" x="134.196" y="-106.213" font-family="Times New Roman,serif" font-size="14.00">v</text>
</g>
<!-- {2,3} -->
<g id="node5" class="node"><title>{2,3}</title>
<ellipse fill="none" stroke="black" cx="309.636" cy="-57.4134" rx="30.5947" ry="30.5947"/>
<text text-anchor="middle" x="309.636" y="-53.7134" font-family="Times New Roman,serif" font-size="14.00">{2,3}</text>
</g>
<!-- {1,2,3}&#45;&gt;{2,3} -->
<g id="edge5" class="edge"><title>{1,2,3}&#45;&gt;{2,3}</title>
<path fill="none" stroke="black" d="M231.171,-116.438C245.602,-105.442 262.494,-92.5717 276.814,-81.6605"/>
<polygon fill="black" stroke="black" points="279.077,-84.3362 284.91,-75.4916 274.835,-78.7683 279.077,-84.3362"/>
<text text-anchor="middle" x="259.089" y="-98.2134" font-family="Times New Roman,serif" font-size="14.00">j</text>
</g>
<!-- {3}&#45;&gt;{0} -->
<g id="edge6" class="edge"><title>{3}&#45;&gt;{0}</title>
<path fill="none" stroke="black" d="M174.534,-49.0026C161.629,-45.2083 145.059,-42.3837 130.696,-46.4134 126.021,-47.7249 121.351,-49.7318 116.924,-52.0502"/>
<polygon fill="black" stroke="black" points="115.12,-49.0509 108.258,-57.1235 118.656,-55.092 115.12,-49.0509"/>
<text text-anchor="middle" x="134.196" y="-50.2134" font-family="Times New Roman,serif" font-size="14.00">v</text>
</g>
<!-- {3}&#45;&gt;{2,3} -->
<g id="edge7" class="edge"><title>{3}&#45;&gt;{2,3}</title>
<path fill="none" stroke="black" d="M221.503,-57.4134C235.177,-57.4134 252.872,-57.4134 268.74,-57.4134"/>
<polygon fill="black" stroke="black" points="268.844,-60.9135 278.844,-57.4134 268.844,-53.9135 268.844,-60.9135"/>
<text text-anchor="middle" x="259.089" y="-61.2134" font-family="Times New Roman,serif" font-size="14.00">j</text>
</g>
<!-- {2,3}&#45;&gt;{0} -->
<g id="edge8" class="edge"><title>{2,3}&#45;&gt;{0}</title>
<path fill="none" stroke="black" d="M286.701,-37.105C273.861,-26.6262 256.737,-14.9124 239.089,-9.4134 203.703,1.61229 190.158,4.22745 155.696,-9.4134 137.773,-16.5076 121.873,-31.02 110.166,-44.2215"/>
<polygon fill="black" stroke="black" points="107.213,-42.2941 103.439,-52.1939 112.563,-46.8085 107.213,-42.2941"/>
<text text-anchor="middle" x="197.392" y="-13.2134" font-family="Times New Roman,serif" font-size="14.00">v</text>
</g>
<!-- {2,3}&#45;&gt;{2,3} -->
<g id="edge9" class="edge"><title>{2,3}&#45;&gt;{2,3}</title>
<path fill="none" stroke="black" d="M300.27,-86.8015C300.069,-97.3559 303.191,-105.961 309.636,-105.961 313.765,-105.961 316.53,-102.429 317.932,-97.1162"/>
<polygon fill="black" stroke="black" points="321.451,-97.1094 319.002,-86.8015 314.489,-96.3868 321.451,-97.1094"/>
<text text-anchor="middle" x="309.636" y="-109.761" font-family="Times New Roman,serif" font-size="14.00">j</text>
</g>
</g>
</svg>
