<?xml version="1.0" encoding="UTF-8" standalone="no"?>
<!DOCTYPE svg PUBLIC "-//W3C//DTD SVG 1.1//EN"
 "http://www.w3.org/Graphics/SVG/1.1/DTD/svg11.dtd">
<!-- Generated by graphviz version 2.38.0 (20140413.2041)
 -->
<!-- Title: dfa Pages: 1 -->
<svg width="354pt" height="191pt"
 viewBox="0.00 0.00 354.09 190.95" xmlns="http://www.w3.org/2000/svg" xmlns:xlink="http://www.w3.org/1999/xlink">
<g id="graph0" class="graph" transform="scale(1 1) rotate(0) translate(4 186.945)">
<title>dfa</title>
<polygon fill="white" stroke="none" points="-4,4 -4,-186.945 350.088,-186.945 350.088,4 -4,4"/>
<!-- __start -->
<!-- {0} -->
<g id="node2" class="node"><title>{0}</title>
<ellipse fill="none" stroke="black" cx="91.6" cy="-71.2488" rx="27" ry="18"/>
<text text-anchor="middle" x="91.6" y="-67.5488" font-family="Times New Roman,serif" font-size="14.00">{0}</text>
</g>
<!-- __start&#45;&gt;{0} -->
<g id="edge1" class="edge"><title>__start&#45;&gt;{0}</title>
<path fill="none" stroke="black" d="M3.78604,-71.2488C8.86985,-71.2488 32.7092,-71.2488 54.1222,-71.2488"/>
<polygon fill="black" stroke="black" points="54.3463,-74.7489 64.3463,-71.2488 54.3463,-67.7489 54.3463,-74.7489"/>
<text text-anchor="middle" x="34.1" y="-75.0488" font-family="Times New Roman,serif" font-size="14.00">start</text>
</g>
<!-- {1,2,3} -->
<g id="node3" class="node"><title>{1,2,3}</title>
<ellipse fill="none" stroke="black" cx="203.297" cy="-141.249" rx="37.8753" ry="37.8753"/>
<ellipse fill="none" stroke="black" cx="203.297" cy="-141.249" rx="41.8942" ry="41.8942"/>
<text text-anchor="middle" x="203.297" y="-137.549" font-family="Times New Roman,serif" font-size="14.00">{1,2,3}</text>
</g>
<!-- {0}&#45;&gt;{1,2,3} -->
<g id="edge2" class="edge"><title>{0}&#45;&gt;{1,2,3}</title>
<path fill="none" stroke="black" d="M102.04,-87.8758C109.792,-100.03 121.874,-115.955 136.6,-125.249 141.315,-128.225 146.543,-130.647 151.93,-132.619"/>
<polygon fill="black" stroke="black" points="151.133,-136.038 161.723,-135.704 153.236,-129.361 151.133,-136.038"/>
<text text-anchor="middle" x="140.1" y="-133.049" font-family="Times New Roman,serif" font-size="14.00">v</text>
</g>
<!-- {3} -->
<g id="node4" class="node"><title>{3}</title>
<ellipse fill="none" stroke="black" cx="203.297" cy="-57.2488" rx="24.0958" ry="24.0958"/>
<text text-anchor="middle" x="203.297" y="-53.5488" font-family="Times New Roman,serif" font-size="14.00">{3}</text>
</g>
<!-- {0}&#45;&gt;{3} -->
<g id="edge3" class="edge"><title>{0}&#45;&gt;{3}</title>
<path fill="none" stroke="black" d="M118.319,-67.9665C133.488,-66.0306 152.844,-63.5603 169.149,-61.4793"/>
<polygon fill="black" stroke="black" points="169.872,-64.9155 179.349,-60.1776 168.986,-57.9718 169.872,-64.9155"/>
<text text-anchor="middle" x="140.1" y="-70.0488" font-family="Times New Roman,serif" font-size="14.00">j</text>
</g>
<!-- {1,2,3}&#45;&gt;{0} -->
<g id="edge4" class="edge"><title>{1,2,3}&#45;&gt;{0}</title>
<path fill="none" stroke="black" d="M167.465,-119.022C152.183,-109.27 134.498,-97.9851 120.155,-88.8324"/>
<polygon fill="black" stroke="black" points="122.02,-85.8708 111.708,-83.4419 118.255,-91.7717 122.02,-85.8708"/>
<text text-anchor="middle" x="140.1" y="-106.049" font-family="Times New Roman,serif" font-size="14.00">v</text>
</g>
<!-- {2,3} -->
<g id="node5" class="node"><title>{2,3}</title>
<ellipse fill="none" stroke="black" cx="315.541" cy="-57.2488" rx="30.5947" ry="30.5947"/>
<text text-anchor="middle" x="315.541" y="-53.5488" font-family="Times New Roman,serif" font-size="14.00">{2,3}</text>
</g>
<!-- {1,2,3}&#45;&gt;{2,3} -->
<g id="edge5" class="edge"><title>{1,2,3}&#45;&gt;{2,3}</title>
<path fill="none" stroke="black" d="M237.075,-116.274C251.507,-105.277 268.398,-92.4071 282.718,-81.496"/>
<polygon fill="black" stroke="black" points="284.981,-84.1716 290.814,-75.327 280.739,-78.6037 284.981,-84.1716"/>
<text text-anchor="middle" x="264.993" y="-98.0488" font-family="Times New Roman,serif" font-size="14.00">j</text>
</g>
<!-- {3}&#45;&gt;{0} -->
<g id="edge6" class="edge"><title>{3}&#45;&gt;{0}</title>
<path fill="none" stroke="black" d="M180.482,-48.9993C167.592,-45.2604 151.023,-42.4375 136.6,-46.2488 130.723,-47.8018 124.809,-50.3415 119.307,-53.221"/>
<polygon fill="black" stroke="black" points="117.442,-50.256 110.516,-58.2737 120.93,-56.325 117.442,-50.256"/>
<text text-anchor="middle" x="140.1" y="-50.0488" font-family="Times New Roman,serif" font-size="14.00">v</text>
</g>
<!-- {3}&#45;&gt;{2,3} -->
<g id="edge7" class="edge"><title>{3}&#45;&gt;{2,3}</title>
<path fill="none" stroke="black" d="M227.407,-57.2488C241.081,-57.2488 258.776,-57.2488 274.644,-57.2488"/>
<polygon fill="black" stroke="black" points="274.748,-60.7489 284.748,-57.2488 274.748,-53.7489 274.748,-60.7489"/>
<text text-anchor="middle" x="264.993" y="-61.0488" font-family="Times New Roman,serif" font-size="14.00">j</text>
</g>
<!-- {2,3}&#45;&gt;{0} -->
<g id="edge8" class="edge"><title>{2,3}&#45;&gt;{0}</title>
<path fill="none" stroke="black" d="M292.605,-36.9405C279.765,-26.4616 262.642,-14.7478 244.993,-9.24884 209.608,1.77685 196.209,4.01587 161.6,-9.24884 141.612,-16.9096 123.78,-33.3285 111.252,-47.346"/>
<polygon fill="black" stroke="black" points="108.346,-45.3601 104.513,-55.2375 113.669,-49.9059 108.346,-45.3601"/>
<text text-anchor="middle" x="203.297" y="-13.0488" font-family="Times New Roman,serif" font-size="14.00">v</text>
</g>
<!-- {2,3}&#45;&gt;{2,3} -->
<g id="edge9" class="edge"><title>{2,3}&#45;&gt;{2,3}</title>
<path fill="none" stroke="black" d="M306.175,-86.637C305.973,-97.1913 309.095,-105.796 315.541,-105.796 319.67,-105.796 322.435,-102.265 323.836,-96.9516"/>
<polygon fill="black" stroke="black" points="327.355,-96.9449 324.906,-86.637 320.393,-96.2222 327.355,-96.9449"/>
<text text-anchor="middle" x="315.541" y="-109.596" font-family="Times New Roman,serif" font-size="14.00">j</text>
</g>
</g>
</svg>
