<?xml version="1.0" encoding="UTF-8" standalone="no"?>
<!DOCTYPE svg PUBLIC "-//W3C//DTD SVG 1.1//EN"
 "http://www.w3.org/Graphics/SVG/1.1/DTD/svg11.dtd">
<!-- Generated by graphviz version 2.38.0 (20140413.2041)
 -->
<!-- Title: enfa Pages: 1 -->
<svg width="283pt" height="89pt"
 viewBox="0.00 0.00 282.60 88.77" xmlns="http://www.w3.org/2000/svg" xmlns:xlink="http://www.w3.org/1999/xlink">
<g id="graph0" class="graph" transform="scale(1 1) rotate(0) translate(4 84.7744)">
<title>enfa</title>
<polygon fill="white" stroke="none" points="-4,4 -4,-84.7744 278.6,-84.7744 278.6,4 -4,4"/>
<!-- __start -->
<!-- 0 -->
<g id="node2" class="node"><title>0</title>
<ellipse fill="none" stroke="black" cx="82.6" cy="-29.7744" rx="18" ry="18"/>
<text text-anchor="middle" x="82.6" y="-26.0744" font-family="Times New Roman,serif" font-size="14.00">0</text>
</g>
<!-- __start&#45;&gt;0 -->
<g id="edge1" class="edge"><title>__start&#45;&gt;0</title>
<path fill="none" stroke="black" d="M3.68496,-29.7744C8.69573,-29.7744 34.008,-29.7744 54.4423,-29.7744"/>
<polygon fill="black" stroke="black" points="54.5501,-33.2745 64.5501,-29.7744 54.5501,-26.2745 54.5501,-33.2745"/>
<text text-anchor="middle" x="34.1" y="-33.5744" font-family="Times New Roman,serif" font-size="14.00">start</text>
</g>
<!-- 0&#45;&gt;0 -->
<g id="edge3" class="edge"><title>0&#45;&gt;0</title>
<path fill="none" stroke="black" d="M75.5688,-46.4384C74.0063,-56.3994 76.35,-65.7744 82.6,-65.7744 86.6039,-65.7744 89.0047,-61.9269 89.8023,-56.5426"/>
<polygon fill="black" stroke="black" points="93.3001,-56.3777 89.6313,-46.4384 86.3011,-56.4963 93.3001,-56.3777"/>
<text text-anchor="middle" x="82.6" y="-69.5744" font-family="Times New Roman,serif" font-size="14.00">l</text>
</g>
<!-- 1 -->
<g id="node3" class="node"><title>1</title>
<ellipse fill="none" stroke="black" cx="169.6" cy="-48.7744" rx="18" ry="18"/>
<ellipse fill="none" stroke="black" cx="169.6" cy="-48.7744" rx="22" ry="22"/>
<text text-anchor="middle" x="169.6" y="-45.0744" font-family="Times New Roman,serif" font-size="14.00">1</text>
</g>
<!-- 0&#45;&gt;1 -->
<g id="edge5" class="edge"><title>0&#45;&gt;1</title>
<path fill="none" stroke="black" d="M93.4784,-44.1174C99.6878,-51.8151 108.438,-60.5651 118.6,-64.7744 125.86,-67.7815 133.901,-66.9483 141.374,-64.5203"/>
<polygon fill="black" stroke="black" points="142.88,-67.6844 150.757,-60.5988 140.18,-61.2258 142.88,-67.6844"/>
<text text-anchor="middle" x="124.1" y="-69.5744" font-family="Times New Roman,serif" font-size="14.00">l</text>
</g>
<!-- 0&#45;&gt;1 -->
<g id="edge8" class="edge"><title>0&#45;&gt;1</title>
<path fill="none" stroke="black" d="M100.393,-33.5281C111.159,-35.9346 125.45,-39.129 138.168,-41.972"/>
<polygon fill="black" stroke="black" points="137.411,-45.3891 147.934,-44.1549 138.938,-38.5577 137.411,-45.3891"/>
<text text-anchor="middle" x="124.1" y="-43.5744" font-family="Times New Roman,serif" font-size="14.00">m</text>
</g>
<!-- 2 -->
<g id="node4" class="node"><title>2</title>
<ellipse fill="none" stroke="black" cx="256.6" cy="-29.7744" rx="18" ry="18"/>
<text text-anchor="middle" x="256.6" y="-26.0744" font-family="Times New Roman,serif" font-size="14.00">2</text>
</g>
<!-- 0&#45;&gt;2 -->
<g id="edge4" class="edge"><title>0&#45;&gt;2</title>
<path fill="none" stroke="black" d="M98.508,-21.1232C111.105,-14.4033 129.879,-5.74398 147.6,-2.77436 179.897,2.63775 190.338,-0.260378 220.6,-12.7744 223.948,-14.1586 227.428,-15.7089 230.84,-17.2949"/>
<polygon fill="black" stroke="black" points="229.573,-20.5696 240.102,-21.7511 232.608,-14.2616 229.573,-20.5696"/>
<text text-anchor="middle" x="169.6" y="-6.57436" font-family="Times New Roman,serif" font-size="14.00">l</text>
</g>
<!-- 1&#45;&gt;0 -->
<g id="edge9" class="edge"><title>1&#45;&gt;0</title>
<path fill="none" stroke="black" d="M153.325,-33.266C146.64,-27.5486 138.334,-21.7451 129.6,-18.7744 122.914,-16.5004 115.529,-16.9957 108.669,-18.6562"/>
<polygon fill="black" stroke="black" points="107.577,-15.3311 99.137,-21.736 109.729,-21.9921 107.577,-15.3311"/>
<text text-anchor="middle" x="124.1" y="-22.5744" font-family="Times New Roman,serif" font-size="14.00">m</text>
</g>
<!-- 1&#45;&gt;2 -->
<g id="edge2" class="edge"><title>1&#45;&gt;2</title>
<path fill="none" stroke="black" d="M188.443,-60.5988C198.101,-65.4805 210.159,-69.0993 220.6,-64.7744 227.428,-61.9462 233.618,-57.0684 238.828,-51.8371"/>
<polygon fill="black" stroke="black" points="241.672,-53.9077 245.722,-44.1174 236.45,-49.2453 241.672,-53.9077"/>
<text text-anchor="middle" x="215.1" y="-69.5744" font-family="Times New Roman,serif" font-size="14.00">l</text>
</g>
<!-- 2&#45;&gt;1 -->
<g id="edge6" class="edge"><title>2&#45;&gt;1</title>
<path fill="none" stroke="black" d="M238.918,-33.5034C228.125,-35.9158 213.756,-39.1278 200.981,-41.9833"/>
<polygon fill="black" stroke="black" points="200.172,-38.5777 191.176,-44.175 201.699,-45.4092 200.172,-38.5777"/>
<text text-anchor="middle" x="215.1" y="-43.5744" font-family="Times New Roman,serif" font-size="14.00">m</text>
</g>
<!-- 2&#45;&gt;1 -->
<g id="edge7" class="edge"><title>2&#45;&gt;1</title>
<path fill="none" stroke="black" d="M240.063,-21.736C231.051,-18.1399 219.551,-15.3899 209.6,-18.7744 204.141,-20.6311 198.849,-23.5943 194.016,-26.9515"/>
<polygon fill="black" stroke="black" points="191.632,-24.3716 185.875,-33.266 195.922,-29.9028 191.632,-24.3716"/>
<text text-anchor="middle" x="215.1" y="-22.5744" font-family="Times New Roman,serif" font-size="14.00">l</text>
</g>
</g>
</svg>
