<?xml version="1.0" encoding="UTF-8" standalone="no"?>
<!DOCTYPE svg PUBLIC "-//W3C//DTD SVG 1.1//EN"
 "http://www.w3.org/Graphics/SVG/1.1/DTD/svg11.dtd">
<!-- Generated by graphviz version 2.38.0 (20140413.2041)
 -->
<!-- Title: dfa Pages: 1 -->
<svg width="283pt" height="189pt"
 viewBox="0.00 0.00 282.60 189.32" xmlns="http://www.w3.org/2000/svg" xmlns:xlink="http://www.w3.org/1999/xlink">
<g id="graph0" class="graph" transform="scale(1 1) rotate(0) translate(4 185.324)">
<title>dfa</title>
<polygon fill="white" stroke="none" points="-4,4 -4,-185.324 278.6,-185.324 278.6,4 -4,4"/>
<!-- __start -->
<!-- 0 -->
<g id="node2" class="node"><title>0</title>
<ellipse fill="none" stroke="black" cx="82.6" cy="-55.3241" rx="18" ry="18"/>
<text text-anchor="middle" x="82.6" y="-51.6241" font-family="Times New Roman,serif" font-size="14.00">0</text>
</g>
<!-- __start&#45;&gt;0 -->
<g id="edge1" class="edge"><title>__start&#45;&gt;0</title>
<path fill="none" stroke="black" d="M3.68496,-55.3241C8.69573,-55.3241 34.008,-55.3241 54.4423,-55.3241"/>
<polygon fill="black" stroke="black" points="54.5501,-58.8242 64.5501,-55.3241 54.5501,-51.8242 54.5501,-58.8242"/>
<text text-anchor="middle" x="34.1" y="-59.1241" font-family="Times New Roman,serif" font-size="14.00">start</text>
</g>
<!-- 1 -->
<g id="node3" class="node"><title>1</title>
<ellipse fill="none" stroke="black" cx="169.6" cy="-93.3241" rx="18" ry="18"/>
<ellipse fill="none" stroke="black" cx="169.6" cy="-93.3241" rx="22" ry="22"/>
<text text-anchor="middle" x="169.6" y="-89.6241" font-family="Times New Roman,serif" font-size="14.00">1</text>
</g>
<!-- 0&#45;&gt;1 -->
<g id="edge2" class="edge"><title>0&#45;&gt;1</title>
<path fill="none" stroke="black" d="M99.5878,-62.4717C110.888,-67.5233 126.351,-74.4362 139.776,-80.4381"/>
<polygon fill="black" stroke="black" points="138.545,-83.7215 149.103,-84.6077 141.402,-77.3311 138.545,-83.7215"/>
<text text-anchor="middle" x="124.1" y="-79.1241" font-family="Times New Roman,serif" font-size="14.00">l</text>
</g>
<!-- 2 -->
<g id="node4" class="node"><title>2</title>
<ellipse fill="none" stroke="black" cx="169.6" cy="-24.3241" rx="18" ry="18"/>
<ellipse fill="none" stroke="black" cx="169.6" cy="-24.3241" rx="22" ry="22"/>
<text text-anchor="middle" x="169.6" y="-20.6241" font-family="Times New Roman,serif" font-size="14.00">2</text>
</g>
<!-- 0&#45;&gt;2 -->
<g id="edge3" class="edge"><title>0&#45;&gt;2</title>
<path fill="none" stroke="black" d="M99.9889,-49.347C111.06,-45.3092 125.992,-39.8636 139.099,-35.0835"/>
<polygon fill="black" stroke="black" points="140.476,-38.3068 148.671,-31.5923 138.077,-31.7305 140.476,-38.3068"/>
<text text-anchor="middle" x="124.1" y="-45.1241" font-family="Times New Roman,serif" font-size="14.00">m</text>
</g>
<!-- 1&#45;&gt;1 -->
<g id="edge4" class="edge"><title>1&#45;&gt;1</title>
<path fill="none" stroke="black" d="M165.539,-115.131C165.153,-124.887 166.506,-133.324 169.6,-133.324 171.534,-133.324 172.787,-130.028 173.361,-125.175"/>
<polygon fill="black" stroke="black" points="176.861,-125.231 173.661,-115.131 169.864,-125.022 176.861,-125.231"/>
<text text-anchor="middle" x="169.6" y="-137.124" font-family="Times New Roman,serif" font-size="14.00">l</text>
</g>
<!-- 1&#45;&gt;1 -->
<g id="edge5" class="edge"><title>1&#45;&gt;1</title>
<path fill="none" stroke="black" d="M162.66,-114.438C159.595,-132.42 161.909,-151.324 169.6,-151.324 175.849,-151.324 178.548,-138.844 177.697,-124.52"/>
<polygon fill="black" stroke="black" points="181.157,-123.974 176.54,-114.438 174.203,-124.772 181.157,-123.974"/>
<text text-anchor="middle" x="169.6" y="-155.124" font-family="Times New Roman,serif" font-size="14.00">m</text>
</g>
<!-- 2&#45;&gt;0 -->
<g id="edge7" class="edge"><title>2&#45;&gt;0</title>
<path fill="none" stroke="black" d="M148.458,-17.94C139.062,-16.0432 127.922,-15.3858 118.6,-19.3241 111.694,-22.2417 105.479,-27.2617 100.269,-32.6424"/>
<polygon fill="black" stroke="black" points="97.2938,-30.7309 93.3915,-40.5809 102.585,-35.3143 97.2938,-30.7309"/>
<text text-anchor="middle" x="124.1" y="-23.1241" font-family="Times New Roman,serif" font-size="14.00">m</text>
</g>
<!-- 3 -->
<g id="node5" class="node"><title>3</title>
<ellipse fill="none" stroke="black" cx="256.6" cy="-24.3241" rx="18" ry="18"/>
<text text-anchor="middle" x="256.6" y="-20.6241" font-family="Times New Roman,serif" font-size="14.00">3</text>
</g>
<!-- 2&#45;&gt;3 -->
<g id="edge6" class="edge"><title>2&#45;&gt;3</title>
<path fill="none" stroke="black" d="M188.893,-35.0433C198.259,-39.2808 209.913,-42.651 220.6,-40.3241 224.101,-39.5619 227.671,-38.4169 231.127,-37.083"/>
<polygon fill="black" stroke="black" points="232.68,-40.2234 240.416,-32.9843 229.854,-33.8191 232.68,-40.2234"/>
<text text-anchor="middle" x="215.1" y="-44.1241" font-family="Times New Roman,serif" font-size="14.00">l</text>
</g>
<!-- 3&#45;&gt;2 -->
<g id="edge8" class="edge"><title>3&#45;&gt;2</title>
<path fill="none" stroke="black" d="M238.529,-22.5666C232.834,-22.0588 226.449,-21.5744 220.6,-21.3241 214.478,-21.0622 207.937,-21.1718 201.673,-21.4683"/>
<polygon fill="black" stroke="black" points="201.272,-17.9865 191.513,-22.1109 201.714,-24.9725 201.272,-17.9865"/>
<text text-anchor="middle" x="215.1" y="-25.1241" font-family="Times New Roman,serif" font-size="14.00">l</text>
</g>
<!-- 3&#45;&gt;2 -->
<g id="edge9" class="edge"><title>3&#45;&gt;2</title>
<path fill="none" stroke="black" d="M242.241,-12.8946C236.076,-8.35228 228.402,-3.65818 220.6,-1.32415 212.178,1.19533 203.352,-1.06652 195.5,-4.99852"/>
<polygon fill="black" stroke="black" points="193.597,-2.05813 186.812,-10.1951 197.191,-8.06549 193.597,-2.05813"/>
<text text-anchor="middle" x="215.1" y="-5.12415" font-family="Times New Roman,serif" font-size="14.00">m</text>
</g>
</g>
</svg>
