<?xml version="1.0" encoding="UTF-8" standalone="no"?>
<!DOCTYPE svg PUBLIC "-//W3C//DTD SVG 1.1//EN"
 "http://www.w3.org/Graphics/SVG/1.1/DTD/svg11.dtd">
<!-- Generated by graphviz version 2.38.0 (20140413.2041)
 -->
<!-- Title: dfa Pages: 1 -->
<svg width="214pt" height="85pt"
 viewBox="0.00 0.00 213.60 85.00" xmlns="http://www.w3.org/2000/svg" xmlns:xlink="http://www.w3.org/1999/xlink">
<g id="graph0" class="graph" transform="scale(1 1) rotate(0) translate(4 81)">
<title>dfa</title>
<polygon fill="white" stroke="none" points="-4,4 -4,-81 209.6,-81 209.6,4 -4,4"/>
<!-- __start -->
<!-- 0 -->
<g id="node2" class="node"><title>0</title>
<ellipse fill="none" stroke="black" cx="91.6" cy="-22" rx="27" ry="18"/>
<text text-anchor="middle" x="91.6" y="-18.3" font-family="Times New Roman,serif" font-size="14.00">0</text>
</g>
<!-- __start&#45;&gt;0 -->
<g id="edge1" class="edge"><title>__start&#45;&gt;0</title>
<path fill="none" stroke="black" d="M3.78604,-22C8.86985,-22 32.7092,-22 54.1222,-22"/>
<polygon fill="black" stroke="black" points="54.3463,-25.5001 64.3463,-22 54.3463,-18.5001 54.3463,-25.5001"/>
<text text-anchor="middle" x="34.1" y="-25.8" font-family="Times New Roman,serif" font-size="14.00">start</text>
</g>
<!-- 1 -->
<g id="node3" class="node"><title>1</title>
<ellipse fill="none" stroke="black" cx="183.6" cy="-22" rx="18" ry="18"/>
<ellipse fill="none" stroke="black" cx="183.6" cy="-22" rx="22" ry="22"/>
<text text-anchor="middle" x="183.6" y="-18.3" font-family="Times New Roman,serif" font-size="14.00">1</text>
</g>
<!-- 0&#45;&gt;1 -->
<g id="edge2" class="edge"><title>0&#45;&gt;1</title>
<path fill="none" stroke="black" d="M118.632,-22C128.833,-22 140.626,-22 151.287,-22"/>
<polygon fill="black" stroke="black" points="151.469,-25.5001 161.469,-22 151.469,-18.5001 151.469,-25.5001"/>
<text text-anchor="middle" x="140.1" y="-25.8" font-family="Times New Roman,serif" font-size="14.00">y</text>
</g>
<!-- 1&#45;&gt;1 -->
<g id="edge3" class="edge"><title>1&#45;&gt;1</title>
<path fill="none" stroke="black" d="M175.917,-42.9908C174.969,-53.0872 177.53,-62 183.6,-62 187.489,-62 189.937,-58.3422 190.946,-53.0587"/>
<polygon fill="black" stroke="black" points="194.446,-53.1023 191.283,-42.9908 187.45,-52.868 194.446,-53.1023"/>
<text text-anchor="middle" x="183.6" y="-65.8" font-family="Times New Roman,serif" font-size="14.00">y</text>
</g>
</g>
</svg>
