<?xml version="1.0" encoding="UTF-8" standalone="no"?>
<!DOCTYPE svg PUBLIC "-//W3C//DTD SVG 1.1//EN"
 "http://www.w3.org/Graphics/SVG/1.1/DTD/svg11.dtd">
<!-- Generated by graphviz version 2.38.0 (20140413.2041)
 -->
<!-- Title: dfa Pages: 1 -->
<svg width="367pt" height="199pt"
 viewBox="0.00 0.00 367.18 198.74" xmlns="http://www.w3.org/2000/svg" xmlns:xlink="http://www.w3.org/1999/xlink">
<g id="graph0" class="graph" transform="scale(1 1) rotate(0) translate(4 194.745)">
<title>dfa</title>
<polygon fill="white" stroke="none" points="-4,4 -4,-194.745 363.184,-194.745 363.184,4 -4,4"/>
<!-- __start -->
<!-- {0} -->
<g id="node2" class="node"><title>{0}</title>
<ellipse fill="none" stroke="black" cx="88.6479" cy="-66.0479" rx="24.0958" ry="24.0958"/>
<text text-anchor="middle" x="88.6479" y="-62.3479" font-family="Times New Roman,serif" font-size="14.00">{0}</text>
</g>
<!-- __start&#45;&gt;{0} -->
<g id="edge1" class="edge"><title>__start&#45;&gt;{0}</title>
<path fill="none" stroke="black" d="M3.75288,-66.0479C8.82222,-66.0479 33.1893,-66.0479 54.3658,-66.0479"/>
<polygon fill="black" stroke="black" points="54.4068,-69.548 64.4067,-66.0479 54.4067,-62.548 54.4068,-69.548"/>
<text text-anchor="middle" x="34.1" y="-69.8479" font-family="Times New Roman,serif" font-size="14.00">start</text>
</g>
<!-- {0,1,2} -->
<g id="node3" class="node"><title>{0,1,2}</title>
<ellipse fill="none" stroke="black" cx="201.392" cy="-116.048" rx="37.8753" ry="37.8753"/>
<ellipse fill="none" stroke="black" cx="201.392" cy="-116.048" rx="41.8942" ry="41.8942"/>
<text text-anchor="middle" x="201.392" y="-112.348" font-family="Times New Roman,serif" font-size="14.00">{0,1,2}</text>
</g>
<!-- {0}&#45;&gt;{0,1,2} -->
<g id="edge2" class="edge"><title>{0}&#45;&gt;{0,1,2}</title>
<path fill="none" stroke="black" d="M110.739,-75.5702C122.9,-81.0608 138.698,-88.1935 153.638,-94.9388"/>
<polygon fill="black" stroke="black" points="152.235,-98.1455 162.789,-99.0706 155.116,-91.7656 152.235,-98.1455"/>
<text text-anchor="middle" x="136.196" y="-93.8479" font-family="Times New Roman,serif" font-size="14.00">l</text>
</g>
<!-- {1} -->
<g id="node4" class="node"><title>{1}</title>
<ellipse fill="none" stroke="black" cx="201.392" cy="-28.0479" rx="24.089" ry="24.089"/>
<ellipse fill="none" stroke="black" cx="201.392" cy="-28.0479" rx="28.0958" ry="28.0958"/>
<text text-anchor="middle" x="201.392" y="-24.3479" font-family="Times New Roman,serif" font-size="14.00">{1}</text>
</g>
<!-- {0}&#45;&gt;{1} -->
<g id="edge3" class="edge"><title>{0}&#45;&gt;{1}</title>
<path fill="none" stroke="black" d="M111.527,-58.5403C126.703,-53.333 147.256,-46.2808 164.773,-40.2701"/>
<polygon fill="black" stroke="black" points="166.349,-43.4295 174.672,-36.8733 164.078,-36.8084 166.349,-43.4295"/>
<text text-anchor="middle" x="136.196" y="-55.8479" font-family="Times New Roman,serif" font-size="14.00">m</text>
</g>
<!-- {0,1,2}&#45;&gt;{0,1,2} -->
<g id="edge4" class="edge"><title>{0,1,2}&#45;&gt;{0,1,2}</title>
<path fill="none" stroke="black" d="M189.466,-156.224C190.042,-167.289 194.017,-175.745 201.392,-175.745 206.232,-175.745 209.608,-172.103 211.52,-166.472"/>
<polygon fill="black" stroke="black" points="215.037,-166.679 213.319,-156.224 208.143,-165.468 215.037,-166.679"/>
<text text-anchor="middle" x="201.392" y="-179.545" font-family="Times New Roman,serif" font-size="14.00">l</text>
</g>
<!-- {0,1} -->
<g id="node5" class="node"><title>{0,1}</title>
<ellipse fill="none" stroke="black" cx="324.636" cy="-110.048" rx="30.5892" ry="30.5892"/>
<ellipse fill="none" stroke="black" cx="324.636" cy="-110.048" rx="34.5946" ry="34.5946"/>
<text text-anchor="middle" x="324.636" y="-106.348" font-family="Times New Roman,serif" font-size="14.00">{0,1}</text>
</g>
<!-- {0,1,2}&#45;&gt;{0,1} -->
<g id="edge5" class="edge"><title>{0,1,2}&#45;&gt;{0,1}</title>
<path fill="none" stroke="black" d="M242.601,-123.157C252.268,-124.018 262.555,-124.232 272.089,-123.048 275.106,-122.673 278.2,-122.18 281.301,-121.605"/>
<polygon fill="black" stroke="black" points="282.08,-125.017 291.145,-119.532 280.638,-118.167 282.08,-125.017"/>
<text text-anchor="middle" x="266.589" y="-126.848" font-family="Times New Roman,serif" font-size="14.00">m</text>
</g>
<!-- {1}&#45;&gt;{0} -->
<g id="edge7" class="edge"><title>{1}&#45;&gt;{0}</title>
<path fill="none" stroke="black" d="M173.394,-24.6277C160.106,-23.9781 144.103,-24.7806 130.696,-30.0479 124.175,-32.6094 117.999,-36.6924 112.511,-41.2048"/>
<polygon fill="black" stroke="black" points="110.071,-38.6921 105.003,-47.9962 114.767,-43.8833 110.071,-38.6921"/>
<text text-anchor="middle" x="136.196" y="-33.8479" font-family="Times New Roman,serif" font-size="14.00">m</text>
</g>
<!-- {2} -->
<g id="node6" class="node"><title>{2}</title>
<ellipse fill="none" stroke="black" cx="324.636" cy="-28.0479" rx="24.0958" ry="24.0958"/>
<text text-anchor="middle" x="324.636" y="-24.3479" font-family="Times New Roman,serif" font-size="14.00">{2}</text>
</g>
<!-- {1}&#45;&gt;{2} -->
<g id="edge6" class="edge"><title>{1}&#45;&gt;{2}</title>
<path fill="none" stroke="black" d="M227.706,-38.5823C240.854,-42.8486 257.237,-46.2999 272.089,-44.0479 278.655,-43.0522 285.537,-41.3815 292.056,-39.4858"/>
<polygon fill="black" stroke="black" points="293.416,-42.7271 301.904,-36.3864 291.314,-36.05 293.416,-42.7271"/>
<text text-anchor="middle" x="266.589" y="-48.8479" font-family="Times New Roman,serif" font-size="14.00">l</text>
</g>
<!-- {0,1}&#45;&gt;{0,1,2} -->
<g id="edge10" class="edge"><title>{0,1}&#45;&gt;{0,1,2}</title>
<path fill="none" stroke="black" d="M290.134,-105.578C284.136,-104.941 277.935,-104.387 272.089,-104.048 265.654,-103.675 258.927,-103.959 252.298,-104.647"/>
<polygon fill="black" stroke="black" points="251.466,-101.227 242.019,-106.025 252.396,-108.165 251.466,-101.227"/>
<text text-anchor="middle" x="266.589" y="-107.848" font-family="Times New Roman,serif" font-size="14.00">l</text>
</g>
<!-- {0,1}&#45;&gt;{0,1} -->
<g id="edge11" class="edge"><title>{0,1}&#45;&gt;{0,1}</title>
<path fill="none" stroke="black" d="M313.761,-142.89C313.761,-153.837 317.386,-162.595 324.636,-162.595 329.394,-162.595 332.591,-158.823 334.226,-153.136"/>
<polygon fill="black" stroke="black" points="337.74,-153.248 335.511,-142.89 330.794,-152.377 337.74,-153.248"/>
<text text-anchor="middle" x="324.636" y="-166.395" font-family="Times New Roman,serif" font-size="14.00">m</text>
</g>
<!-- {2}&#45;&gt;{1} -->
<g id="edge8" class="edge"><title>{2}&#45;&gt;{1}</title>
<path fill="none" stroke="black" d="M300.555,-26.4175C291.663,-25.8647 281.408,-25.3188 272.089,-25.0479 261.557,-24.7416 250.133,-24.99 239.641,-25.4514"/>
<polygon fill="black" stroke="black" points="239.334,-21.9625 229.527,-25.9712 239.694,-28.9533 239.334,-21.9625"/>
<text text-anchor="middle" x="266.589" y="-28.8479" font-family="Times New Roman,serif" font-size="14.00">l</text>
</g>
<!-- {2}&#45;&gt;{1} -->
<g id="edge9" class="edge"><title>{2}&#45;&gt;{1}</title>
<path fill="none" stroke="black" d="M303.19,-17.0684C293.967,-12.7148 282.766,-8.23101 272.089,-6.04787 259.852,-3.54568 246.721,-6.22063 235.192,-10.4612"/>
<polygon fill="black" stroke="black" points="233.827,-7.23825 225.94,-14.3123 236.517,-13.7008 233.827,-7.23825"/>
<text text-anchor="middle" x="266.589" y="-9.84787" font-family="Times New Roman,serif" font-size="14.00">m</text>
</g>
</g>
</svg>
