<?xml version="1.0" encoding="UTF-8" standalone="no"?>
<!DOCTYPE svg PUBLIC "-//W3C//DTD SVG 1.1//EN"
 "http://www.w3.org/Graphics/SVG/1.1/DTD/svg11.dtd">
<!-- Generated by graphviz version 2.38.0 (20140413.2041)
 -->
<!-- Title: dfa Pages: 1 -->
<svg width="283pt" height="114pt"
 viewBox="0.00 0.00 282.60 114.00" xmlns="http://www.w3.org/2000/svg" xmlns:xlink="http://www.w3.org/1999/xlink">
<g id="graph0" class="graph" transform="scale(1 1) rotate(0) translate(4 110)">
<title>dfa</title>
<polygon fill="white" stroke="none" points="-4,4 -4,-110 278.6,-110 278.6,4 -4,4"/>
<!-- __start -->
<!-- 0 -->
<g id="node2" class="node"><title>0</title>
<ellipse fill="none" stroke="black" cx="82.6" cy="-18" rx="18" ry="18"/>
<text text-anchor="middle" x="82.6" y="-14.3" font-family="Times New Roman,serif" font-size="14.00">0</text>
</g>
<!-- __start&#45;&gt;0 -->
<g id="edge1" class="edge"><title>__start&#45;&gt;0</title>
<path fill="none" stroke="black" d="M3.68496,-18C8.69573,-18 34.008,-18 54.4423,-18"/>
<polygon fill="black" stroke="black" points="54.5501,-21.5001 64.5501,-18 54.5501,-14.5001 54.5501,-21.5001"/>
<text text-anchor="middle" x="34.1" y="-21.8" font-family="Times New Roman,serif" font-size="14.00">start</text>
</g>
<!-- 0&#45;&gt;0 -->
<g id="edge2" class="edge"><title>0&#45;&gt;0</title>
<path fill="none" stroke="black" d="M75.5688,-34.6641C74.0063,-44.625 76.35,-54 82.6,-54 86.6039,-54 89.0047,-50.1525 89.8023,-44.7682"/>
<polygon fill="black" stroke="black" points="93.3001,-44.6033 89.6313,-34.6641 86.3011,-44.7219 93.3001,-44.6033"/>
<text text-anchor="middle" x="82.6" y="-57.8" font-family="Times New Roman,serif" font-size="14.00">j</text>
</g>
<!-- 1 -->
<g id="node3" class="node"><title>1</title>
<ellipse fill="none" stroke="black" cx="169.6" cy="-51" rx="18" ry="18"/>
<ellipse fill="none" stroke="black" cx="169.6" cy="-51" rx="22" ry="22"/>
<text text-anchor="middle" x="169.6" y="-47.3" font-family="Times New Roman,serif" font-size="14.00">1</text>
</g>
<!-- 0&#45;&gt;1 -->
<g id="edge3" class="edge"><title>0&#45;&gt;1</title>
<path fill="none" stroke="black" d="M99.5878,-24.207C110.701,-28.5217 125.842,-34.3997 139.11,-39.5509"/>
<polygon fill="black" stroke="black" points="138.205,-42.954 148.794,-43.3105 140.738,-36.4285 138.205,-42.954"/>
<text text-anchor="middle" x="124.1" y="-38.8" font-family="Times New Roman,serif" font-size="14.00">m</text>
</g>
<!-- 1&#45;&gt;1 -->
<g id="edge6" class="edge"><title>1&#45;&gt;1</title>
<path fill="none" stroke="black" d="M161.594,-71.5808C160.486,-81.8447 163.155,-91 169.6,-91 173.729,-91 176.308,-87.2427 177.337,-81.8436"/>
<polygon fill="black" stroke="black" points="180.843,-81.6691 177.606,-71.5808 173.845,-81.4857 180.843,-81.6691"/>
<text text-anchor="middle" x="169.6" y="-94.8" font-family="Times New Roman,serif" font-size="14.00">j</text>
</g>
<!-- 2 -->
<g id="node4" class="node"><title>2</title>
<ellipse fill="none" stroke="black" cx="256.6" cy="-29" rx="18" ry="18"/>
<text text-anchor="middle" x="256.6" y="-25.3" font-family="Times New Roman,serif" font-size="14.00">2</text>
</g>
<!-- 1&#45;&gt;2 -->
<g id="edge7" class="edge"><title>1&#45;&gt;2</title>
<path fill="none" stroke="black" d="M191.805,-49.9115C200.808,-49.0771 211.342,-47.6032 220.6,-45 224.049,-44.0302 227.589,-42.7646 231.03,-41.3697"/>
<polygon fill="black" stroke="black" points="232.601,-44.5017 240.31,-37.2344 229.751,-38.1078 232.601,-44.5017"/>
<text text-anchor="middle" x="215.1" y="-50.8" font-family="Times New Roman,serif" font-size="14.00">m</text>
</g>
<!-- 2&#45;&gt;0 -->
<g id="edge4" class="edge"><title>2&#45;&gt;0</title>
<path fill="none" stroke="black" d="M240.008,-21.345C227.319,-15.5639 208.764,-8.11244 191.6,-5 163.973,0.00966862 132.01,-5.1839 110.064,-10.4193"/>
<polygon fill="black" stroke="black" points="108.982,-7.0832 100.159,-12.9482 110.714,-13.8657 108.982,-7.0832"/>
<text text-anchor="middle" x="169.6" y="-8.8" font-family="Times New Roman,serif" font-size="14.00">j</text>
</g>
<!-- 2&#45;&gt;1 -->
<g id="edge5" class="edge"><title>2&#45;&gt;1</title>
<path fill="none" stroke="black" d="M238.294,-27.4773C229.555,-27.1833 218.869,-27.5558 209.6,-30 205.615,-31.0509 201.589,-32.5822 197.714,-34.3466"/>
<polygon fill="black" stroke="black" points="195.803,-31.3936 188.503,-39.0722 198.998,-37.6219 195.803,-31.3936"/>
<text text-anchor="middle" x="215.1" y="-33.8" font-family="Times New Roman,serif" font-size="14.00">m</text>
</g>
</g>
</svg>
