<?xml version="1.0" encoding="UTF-8" standalone="no"?>
<!DOCTYPE svg PUBLIC "-//W3C//DTD SVG 1.1//EN"
 "http://www.w3.org/Graphics/SVG/1.1/DTD/svg11.dtd">
<!-- Generated by graphviz version 2.38.0 (20140413.2041)
 -->
<!-- Title: dfa Pages: 1 -->
<svg width="284pt" height="92pt"
 viewBox="0.00 0.00 283.60 92.00" xmlns="http://www.w3.org/2000/svg" xmlns:xlink="http://www.w3.org/1999/xlink">
<g id="graph0" class="graph" transform="scale(1 1) rotate(0) translate(4 88)">
<title>dfa</title>
<polygon fill="white" stroke="none" points="-4,4 -4,-88 279.6,-88 279.6,4 -4,4"/>
<!-- __start -->
<!-- 0 -->
<g id="node2" class="node"><title>0</title>
<ellipse fill="none" stroke="black" cx="82.6" cy="-33" rx="18" ry="18"/>
<text text-anchor="middle" x="82.6" y="-29.3" font-family="Times New Roman,serif" font-size="14.00">0</text>
</g>
<!-- __start&#45;&gt;0 -->
<g id="edge1" class="edge"><title>__start&#45;&gt;0</title>
<path fill="none" stroke="black" d="M3.68496,-33C8.69573,-33 34.008,-33 54.4423,-33"/>
<polygon fill="black" stroke="black" points="54.5501,-36.5001 64.5501,-33 54.5501,-29.5001 54.5501,-36.5001"/>
<text text-anchor="middle" x="34.1" y="-36.8" font-family="Times New Roman,serif" font-size="14.00">start</text>
</g>
<!-- 0&#45;&gt;0 -->
<g id="edge2" class="edge"><title>0&#45;&gt;0</title>
<path fill="none" stroke="black" d="M75.5688,-49.6641C74.0063,-59.625 76.35,-69 82.6,-69 86.6039,-69 89.0047,-65.1525 89.8023,-59.7682"/>
<polygon fill="black" stroke="black" points="93.3001,-59.6033 89.6313,-49.6641 86.3011,-59.7219 93.3001,-59.6033"/>
<text text-anchor="middle" x="82.6" y="-72.8" font-family="Times New Roman,serif" font-size="14.00">j</text>
</g>
<!-- 2 -->
<g id="node3" class="node"><title>2</title>
<ellipse fill="none" stroke="black" cx="169.6" cy="-55" rx="18" ry="18"/>
<ellipse fill="none" stroke="black" cx="169.6" cy="-55" rx="22" ry="22"/>
<text text-anchor="middle" x="169.6" y="-51.3" font-family="Times New Roman,serif" font-size="14.00">2</text>
</g>
<!-- 0&#45;&gt;2 -->
<g id="edge3" class="edge"><title>0&#45;&gt;2</title>
<path fill="none" stroke="black" d="M98.8897,-41.2344C104.88,-44.1259 111.911,-47.1192 118.6,-49 124.531,-50.6677 130.985,-51.8719 137.226,-52.7414"/>
<polygon fill="black" stroke="black" points="137.061,-56.2454 147.395,-53.9115 137.861,-49.2913 137.061,-56.2454"/>
<text text-anchor="middle" x="124.1" y="-54.8" font-family="Times New Roman,serif" font-size="14.00">m</text>
</g>
<!-- 2&#45;&gt;0 -->
<g id="edge7" class="edge"><title>2&#45;&gt;0</title>
<path fill="none" stroke="black" d="M152.169,-41.5129C145.568,-36.9188 137.627,-32.3518 129.6,-30 123.597,-28.2413 116.973,-27.836 110.665,-28.1218"/>
<polygon fill="black" stroke="black" points="110.116,-24.6591 100.514,-29.138 110.813,-31.6243 110.116,-24.6591"/>
<text text-anchor="middle" x="124.1" y="-33.8" font-family="Times New Roman,serif" font-size="14.00">m</text>
</g>
<!-- 1 -->
<g id="node4" class="node"><title>1</title>
<ellipse fill="none" stroke="black" cx="253.6" cy="-22" rx="18" ry="18"/>
<ellipse fill="none" stroke="black" cx="253.6" cy="-22" rx="22" ry="22"/>
<text text-anchor="middle" x="253.6" y="-18.3" font-family="Times New Roman,serif" font-size="14.00">1</text>
</g>
<!-- 2&#45;&gt;1 -->
<g id="edge6" class="edge"><title>2&#45;&gt;1</title>
<path fill="none" stroke="black" d="M190.45,-47.0116C200.321,-43.0392 212.444,-38.1605 223.354,-33.7698"/>
<polygon fill="black" stroke="black" points="224.963,-36.8952 232.933,-29.9148 222.349,-30.4013 224.963,-36.8952"/>
<text text-anchor="middle" x="211.6" y="-41.8" font-family="Times New Roman,serif" font-size="14.00">j</text>
</g>
<!-- 1&#45;&gt;0 -->
<g id="edge5" class="edge"><title>1&#45;&gt;0</title>
<path fill="none" stroke="black" d="M232.369,-15.8814C211.149,-10.3068 176.879,-3.69066 147.6,-9 134.325,-11.4073 120.217,-16.4102 108.636,-21.2283"/>
<polygon fill="black" stroke="black" points="106.96,-18.1404 99.1923,-25.345 109.758,-24.5572 106.96,-18.1404"/>
<text text-anchor="middle" x="169.6" y="-12.8" font-family="Times New Roman,serif" font-size="14.00">m</text>
</g>
<!-- 1&#45;&gt;1 -->
<g id="edge4" class="edge"><title>1&#45;&gt;1</title>
<path fill="none" stroke="black" d="M245.917,-42.9908C244.969,-53.0872 247.53,-62 253.6,-62 257.489,-62 259.937,-58.3422 260.946,-53.0587"/>
<polygon fill="black" stroke="black" points="264.446,-53.1023 261.283,-42.9908 257.45,-52.868 264.446,-53.1023"/>
<text text-anchor="middle" x="253.6" y="-65.8" font-family="Times New Roman,serif" font-size="14.00">j</text>
</g>
</g>
</svg>
