<?xml version="1.0" encoding="UTF-8" standalone="no"?>
<!DOCTYPE svg PUBLIC "-//W3C//DTD SVG 1.1//EN"
 "http://www.w3.org/Graphics/SVG/1.1/DTD/svg11.dtd">
<!-- Generated by graphviz version 2.38.0 (20140413.2041)
 -->
<!-- Title: dfa Pages: 1 -->
<svg width="302pt" height="92pt"
 viewBox="0.00 0.00 301.60 92.00" xmlns="http://www.w3.org/2000/svg" xmlns:xlink="http://www.w3.org/1999/xlink">
<g id="graph0" class="graph" transform="scale(1 1) rotate(0) translate(4 88)">
<title>dfa</title>
<polygon fill="white" stroke="none" points="-4,4 -4,-88 297.6,-88 297.6,4 -4,4"/>
<!-- __start -->
<!-- 0 -->
<g id="node2" class="node"><title>0</title>
<ellipse fill="none" stroke="black" cx="91.6" cy="-33" rx="27" ry="18"/>
<text text-anchor="middle" x="91.6" y="-29.3" font-family="Times New Roman,serif" font-size="14.00">0</text>
</g>
<!-- __start&#45;&gt;0 -->
<g id="edge1" class="edge"><title>__start&#45;&gt;0</title>
<path fill="none" stroke="black" d="M3.78604,-33C8.86985,-33 32.7092,-33 54.1222,-33"/>
<polygon fill="black" stroke="black" points="54.3463,-36.5001 64.3463,-33 54.3463,-29.5001 54.3463,-36.5001"/>
<text text-anchor="middle" x="34.1" y="-36.8" font-family="Times New Roman,serif" font-size="14.00">start</text>
</g>
<!-- 0&#45;&gt;0 -->
<g id="edge2" class="edge"><title>0&#45;&gt;0</title>
<path fill="none" stroke="black" d="M82.74,-50.0373C80.9318,-59.8579 83.8852,-69 91.6,-69 96.4218,-69 99.3836,-65.4289 100.485,-60.3529"/>
<polygon fill="black" stroke="black" points="103.985,-60.0286 100.46,-50.0373 96.9848,-60.0459 103.985,-60.0286"/>
<text text-anchor="middle" x="91.6" y="-72.8" font-family="Times New Roman,serif" font-size="14.00">j</text>
</g>
<!-- 2 -->
<g id="node3" class="node"><title>2</title>
<ellipse fill="none" stroke="black" cx="187.6" cy="-55" rx="18" ry="18"/>
<ellipse fill="none" stroke="black" cx="187.6" cy="-55" rx="22" ry="22"/>
<text text-anchor="middle" x="187.6" y="-51.3" font-family="Times New Roman,serif" font-size="14.00">2</text>
</g>
<!-- 0&#45;&gt;2 -->
<g id="edge3" class="edge"><title>0&#45;&gt;2</title>
<path fill="none" stroke="black" d="M115.133,-42.3173C121.933,-44.8217 129.484,-47.3031 136.6,-49 142.593,-50.4291 149.075,-51.5261 155.323,-52.3655"/>
<polygon fill="black" stroke="black" points="155.152,-55.8691 165.489,-53.5482 155.961,-48.916 155.152,-55.8691"/>
<text text-anchor="middle" x="142.1" y="-54.8" font-family="Times New Roman,serif" font-size="14.00">m</text>
</g>
<!-- 2&#45;&gt;0 -->
<g id="edge7" class="edge"><title>2&#45;&gt;0</title>
<path fill="none" stroke="black" d="M170.169,-41.5129C163.568,-36.9188 155.627,-32.3518 147.6,-30 141.337,-28.1649 134.504,-27.5215 127.85,-27.5648"/>
<polygon fill="black" stroke="black" points="127.443,-24.0818 117.65,-28.1256 127.827,-31.0713 127.443,-24.0818"/>
<text text-anchor="middle" x="142.1" y="-33.8" font-family="Times New Roman,serif" font-size="14.00">m</text>
</g>
<!-- 1 -->
<g id="node4" class="node"><title>1</title>
<ellipse fill="none" stroke="black" cx="271.6" cy="-22" rx="18" ry="18"/>
<ellipse fill="none" stroke="black" cx="271.6" cy="-22" rx="22" ry="22"/>
<text text-anchor="middle" x="271.6" y="-18.3" font-family="Times New Roman,serif" font-size="14.00">1</text>
</g>
<!-- 2&#45;&gt;1 -->
<g id="edge6" class="edge"><title>2&#45;&gt;1</title>
<path fill="none" stroke="black" d="M208.45,-47.0116C218.321,-43.0392 230.444,-38.1605 241.354,-33.7698"/>
<polygon fill="black" stroke="black" points="242.963,-36.8952 250.933,-29.9148 240.349,-30.4013 242.963,-36.8952"/>
<text text-anchor="middle" x="229.6" y="-41.8" font-family="Times New Roman,serif" font-size="14.00">j</text>
</g>
<!-- 1&#45;&gt;0 -->
<g id="edge5" class="edge"><title>1&#45;&gt;0</title>
<path fill="none" stroke="black" d="M250.16,-16.5216C238.395,-13.6518 223.276,-10.4411 209.6,-9 190.152,-6.9507 184.909,-5.90727 165.6,-9 151.775,-11.2142 137.018,-15.6463 124.415,-20.1058"/>
<polygon fill="black" stroke="black" points="122.997,-16.8983 114.829,-23.6462 125.422,-23.4648 122.997,-16.8983"/>
<text text-anchor="middle" x="187.6" y="-12.8" font-family="Times New Roman,serif" font-size="14.00">m</text>
</g>
<!-- 1&#45;&gt;1 -->
<g id="edge4" class="edge"><title>1&#45;&gt;1</title>
<path fill="none" stroke="black" d="M263.917,-42.9908C262.969,-53.0872 265.53,-62 271.6,-62 275.489,-62 277.937,-58.3422 278.946,-53.0587"/>
<polygon fill="black" stroke="black" points="282.446,-53.1023 279.283,-42.9908 275.45,-52.868 282.446,-53.1023"/>
<text text-anchor="middle" x="271.6" y="-65.8" font-family="Times New Roman,serif" font-size="14.00">j</text>
</g>
</g>
</svg>
