<?xml version="1.0" encoding="UTF-8" standalone="no"?>
<!DOCTYPE svg PUBLIC "-//W3C//DTD SVG 1.1//EN"
 "http://www.w3.org/Graphics/SVG/1.1/DTD/svg11.dtd">
<!-- Generated by graphviz version 2.38.0 (20140413.2041)
 -->
<!-- Title: dfa Pages: 1 -->
<svg width="287pt" height="107pt"
 viewBox="0.00 0.00 286.60 107.00" xmlns="http://www.w3.org/2000/svg" xmlns:xlink="http://www.w3.org/1999/xlink">
<g id="graph0" class="graph" transform="scale(1 1) rotate(0) translate(4 103)">
<title>dfa</title>
<polygon fill="white" stroke="none" points="-4,4 -4,-103 282.6,-103 282.6,4 -4,4"/>
<!-- __start -->
<!-- 0 -->
<g id="node2" class="node"><title>0</title>
<ellipse fill="none" stroke="black" cx="82.6" cy="-38" rx="18" ry="18"/>
<text text-anchor="middle" x="82.6" y="-34.3" font-family="Times New Roman,serif" font-size="14.00">0</text>
</g>
<!-- __start&#45;&gt;0 -->
<g id="edge1" class="edge"><title>__start&#45;&gt;0</title>
<path fill="none" stroke="black" d="M3.68496,-38C8.69573,-38 34.008,-38 54.4423,-38"/>
<polygon fill="black" stroke="black" points="54.5501,-41.5001 64.5501,-38 54.5501,-34.5001 54.5501,-41.5001"/>
<text text-anchor="middle" x="34.1" y="-41.8" font-family="Times New Roman,serif" font-size="14.00">start</text>
</g>
<!-- 0&#45;&gt;0 -->
<g id="edge3" class="edge"><title>0&#45;&gt;0</title>
<path fill="none" stroke="black" d="M75.5688,-54.6641C74.0063,-64.625 76.35,-74 82.6,-74 86.6039,-74 89.0047,-70.1525 89.8023,-64.7682"/>
<polygon fill="black" stroke="black" points="93.3001,-64.6033 89.6313,-54.6641 86.3011,-64.7219 93.3001,-64.6033"/>
<text text-anchor="middle" x="82.6" y="-77.8" font-family="Times New Roman,serif" font-size="14.00">&#45;</text>
</g>
<!-- 2 -->
<g id="node4" class="node"><title>2</title>
<ellipse fill="none" stroke="black" cx="167.6" cy="-77" rx="18" ry="18"/>
<ellipse fill="none" stroke="black" cx="167.6" cy="-77" rx="22" ry="22"/>
<text text-anchor="middle" x="167.6" y="-73.3" font-family="Times New Roman,serif" font-size="14.00">2</text>
</g>
<!-- 0&#45;&gt;2 -->
<g id="edge2" class="edge"><title>0&#45;&gt;2</title>
<path fill="none" stroke="black" d="M94.4476,-51.7537C100.727,-58.7071 109.231,-66.5874 118.6,-71 123.728,-73.4155 129.489,-74.9743 135.193,-75.9603"/>
<polygon fill="black" stroke="black" points="134.9,-79.4503 145.248,-77.1777 135.741,-72.501 134.9,-79.4503"/>
<text text-anchor="middle" x="123.1" y="-77.8" font-family="Times New Roman,serif" font-size="14.00">+</text>
</g>
<!-- 1 -->
<g id="node3" class="node"><title>1</title>
<ellipse fill="none" stroke="black" cx="256.6" cy="-22" rx="18" ry="18"/>
<ellipse fill="none" stroke="black" cx="256.6" cy="-22" rx="22" ry="22"/>
<text text-anchor="middle" x="256.6" y="-18.3" font-family="Times New Roman,serif" font-size="14.00">1</text>
</g>
<!-- 1&#45;&gt;0 -->
<g id="edge6" class="edge"><title>1&#45;&gt;0</title>
<path fill="none" stroke="black" d="M234.495,-23.5328C212.338,-25.1875 176.495,-27.9928 145.6,-31 134.199,-32.1098 121.637,-33.4972 110.819,-34.7434"/>
<polygon fill="black" stroke="black" points="110.217,-31.29 100.691,-35.9272 111.029,-38.2427 110.217,-31.29"/>
<text text-anchor="middle" x="167.6" y="-34.8" font-family="Times New Roman,serif" font-size="14.00">+</text>
</g>
<!-- 1&#45;&gt;0 -->
<g id="edge7" class="edge"><title>1&#45;&gt;0</title>
<path fill="none" stroke="black" d="M235.52,-15.2603C213.308,-8.77028 176.562,-0.902877 145.6,-8 132.123,-11.0892 118.173,-17.5077 106.925,-23.618"/>
<polygon fill="black" stroke="black" points="105.14,-20.6071 98.1831,-28.5983 108.605,-26.6894 105.14,-20.6071"/>
<text text-anchor="middle" x="167.6" y="-11.8" font-family="Times New Roman,serif" font-size="14.00">&#45;</text>
</g>
<!-- 2&#45;&gt;0 -->
<g id="edge5" class="edge"><title>2&#45;&gt;0</title>
<path fill="none" stroke="black" d="M149.302,-64.5295C142.725,-60.1642 135.025,-55.4871 127.6,-52 122.022,-49.3805 115.826,-47.0717 109.887,-45.1233"/>
<polygon fill="black" stroke="black" points="110.874,-41.7652 100.288,-42.1933 108.83,-48.4603 110.874,-41.7652"/>
<text text-anchor="middle" x="123.1" y="-55.8" font-family="Times New Roman,serif" font-size="14.00">&#45;</text>
</g>
<!-- 2&#45;&gt;1 -->
<g id="edge4" class="edge"><title>2&#45;&gt;1</title>
<path fill="none" stroke="black" d="M186.626,-65.604C198.875,-57.8607 215.283,-47.4874 229.023,-38.8013"/>
<polygon fill="black" stroke="black" points="231.014,-41.6835 237.597,-33.3814 227.274,-35.7667 231.014,-41.6835"/>
<text text-anchor="middle" x="212.1" y="-54.8" font-family="Times New Roman,serif" font-size="14.00">+</text>
</g>
</g>
</svg>
