<?xml version="1.0" encoding="UTF-8" standalone="no"?>
<!DOCTYPE svg PUBLIC "-//W3C//DTD SVG 1.1//EN"
 "http://www.w3.org/Graphics/SVG/1.1/DTD/svg11.dtd">
<!-- Generated by graphviz version 2.38.0 (20140413.2041)
 -->
<!-- Title: dfa Pages: 1 -->
<svg width="194pt" height="118pt"
 viewBox="0.00 0.00 193.60 118.00" xmlns="http://www.w3.org/2000/svg" xmlns:xlink="http://www.w3.org/1999/xlink">
<g id="graph0" class="graph" transform="scale(1 1) rotate(0) translate(4 114)">
<title>dfa</title>
<polygon fill="white" stroke="none" points="-4,4 -4,-114 189.6,-114 189.6,4 -4,4"/>
<!-- __start -->
<!-- 0 -->
<g id="node2" class="node"><title>0</title>
<ellipse fill="none" stroke="black" cx="82.6" cy="-22" rx="18" ry="18"/>
<text text-anchor="middle" x="82.6" y="-18.3" font-family="Times New Roman,serif" font-size="14.00">0</text>
</g>
<!-- __start&#45;&gt;0 -->
<g id="edge1" class="edge"><title>__start&#45;&gt;0</title>
<path fill="none" stroke="black" d="M3.68496,-22C8.69573,-22 34.008,-22 54.4423,-22"/>
<polygon fill="black" stroke="black" points="54.5501,-25.5001 64.5501,-22 54.5501,-18.5001 54.5501,-25.5001"/>
<text text-anchor="middle" x="34.1" y="-25.8" font-family="Times New Roman,serif" font-size="14.00">start</text>
</g>
<!-- 0&#45;&gt;0 -->
<g id="edge2" class="edge"><title>0&#45;&gt;0</title>
<path fill="none" stroke="black" d="M75.8664,-39.0373C74.4922,-48.8579 76.7367,-58 82.6,-58 86.2646,-58 88.5155,-54.4289 89.3529,-49.3529"/>
<polygon fill="black" stroke="black" points="92.8524,-49.0307 89.3336,-39.0373 85.8524,-49.0439 92.8524,-49.0307"/>
<text text-anchor="middle" x="82.6" y="-61.8" font-family="Times New Roman,serif" font-size="14.00">+</text>
</g>
<!-- 1 -->
<g id="node3" class="node"><title>1</title>
<ellipse fill="none" stroke="black" cx="163.6" cy="-22" rx="18" ry="18"/>
<ellipse fill="none" stroke="black" cx="163.6" cy="-22" rx="22" ry="22"/>
<text text-anchor="middle" x="163.6" y="-18.3" font-family="Times New Roman,serif" font-size="14.00">1</text>
</g>
<!-- 0&#45;&gt;1 -->
<g id="edge3" class="edge"><title>0&#45;&gt;1</title>
<path fill="none" stroke="black" d="M100.742,-22C109.727,-22 121.014,-22 131.478,-22"/>
<polygon fill="black" stroke="black" points="131.553,-25.5001 141.553,-22 131.553,-18.5001 131.553,-25.5001"/>
<text text-anchor="middle" x="121.1" y="-25.8" font-family="Times New Roman,serif" font-size="14.00">&#45;</text>
</g>
<!-- 1&#45;&gt;1 -->
<g id="edge4" class="edge"><title>1&#45;&gt;1</title>
<path fill="none" stroke="black" d="M159.724,-43.8066C159.355,-53.5625 160.647,-62 163.6,-62 165.446,-62 166.643,-58.7041 167.19,-53.8504"/>
<polygon fill="black" stroke="black" points="170.69,-53.9021 167.476,-43.8066 163.693,-53.7031 170.69,-53.9021"/>
<text text-anchor="middle" x="163.6" y="-65.8" font-family="Times New Roman,serif" font-size="14.00">+</text>
</g>
<!-- 1&#45;&gt;1 -->
<g id="edge5" class="edge"><title>1&#45;&gt;1</title>
<path fill="none" stroke="black" d="M156.975,-43.1143C154.05,-61.0956 156.258,-80 163.6,-80 169.565,-80 172.141,-67.5201 171.329,-53.1954"/>
<polygon fill="black" stroke="black" points="174.793,-52.6738 170.225,-43.1143 167.834,-53.4359 174.793,-52.6738"/>
<text text-anchor="middle" x="163.6" y="-83.8" font-family="Times New Roman,serif" font-size="14.00">&#45;</text>
</g>
</g>
</svg>
