<?xml version="1.0" encoding="UTF-8" standalone="no"?>
<!DOCTYPE svg PUBLIC "-//W3C//DTD SVG 1.1//EN"
 "http://www.w3.org/Graphics/SVG/1.1/DTD/svg11.dtd">
<!-- Generated by graphviz version 2.38.0 (20140413.2041)
 -->
<!-- Title: dfa Pages: 1 -->
<svg width="305pt" height="107pt"
 viewBox="0.00 0.00 304.60 107.00" xmlns="http://www.w3.org/2000/svg" xmlns:xlink="http://www.w3.org/1999/xlink">
<g id="graph0" class="graph" transform="scale(1 1) rotate(0) translate(4 103)">
<title>dfa</title>
<polygon fill="white" stroke="none" points="-4,4 -4,-103 300.6,-103 300.6,4 -4,4"/>
<!-- __start -->
<!-- 0 -->
<g id="node2" class="node"><title>0</title>
<ellipse fill="none" stroke="black" cx="91.6" cy="-38" rx="27" ry="18"/>
<text text-anchor="middle" x="91.6" y="-34.3" font-family="Times New Roman,serif" font-size="14.00">0</text>
</g>
<!-- __start&#45;&gt;0 -->
<g id="edge1" class="edge"><title>__start&#45;&gt;0</title>
<path fill="none" stroke="black" d="M3.78604,-38C8.86985,-38 32.7092,-38 54.1222,-38"/>
<polygon fill="black" stroke="black" points="54.3463,-41.5001 64.3463,-38 54.3463,-34.5001 54.3463,-41.5001"/>
<text text-anchor="middle" x="34.1" y="-41.8" font-family="Times New Roman,serif" font-size="14.00">start</text>
</g>
<!-- 0&#45;&gt;0 -->
<g id="edge3" class="edge"><title>0&#45;&gt;0</title>
<path fill="none" stroke="black" d="M83.0307,-55.4099C81.4311,-65.0879 84.2875,-74 91.6,-74 96.1703,-74 99,-70.5187 100.089,-65.5449"/>
<polygon fill="black" stroke="black" points="103.59,-65.4374 100.169,-55.4099 96.5901,-65.3818 103.59,-65.4374"/>
<text text-anchor="middle" x="91.6" y="-77.8" font-family="Times New Roman,serif" font-size="14.00">&#45;</text>
</g>
<!-- 2 -->
<g id="node4" class="node"><title>2</title>
<ellipse fill="none" stroke="black" cx="185.6" cy="-77" rx="18" ry="18"/>
<ellipse fill="none" stroke="black" cx="185.6" cy="-77" rx="22" ry="22"/>
<text text-anchor="middle" x="185.6" y="-73.3" font-family="Times New Roman,serif" font-size="14.00">2</text>
</g>
<!-- 0&#45;&gt;2 -->
<g id="edge2" class="edge"><title>0&#45;&gt;2</title>
<path fill="none" stroke="black" d="M108.065,-52.7505C115.988,-59.4386 126.153,-66.7796 136.6,-71 141.856,-73.1233 147.678,-74.5441 153.401,-75.4851"/>
<polygon fill="black" stroke="black" points="153.103,-78.9747 163.453,-76.709 153.949,-72.026 153.103,-78.9747"/>
<text text-anchor="middle" x="141.1" y="-76.8" font-family="Times New Roman,serif" font-size="14.00">+</text>
</g>
<!-- 1 -->
<g id="node3" class="node"><title>1</title>
<ellipse fill="none" stroke="black" cx="274.6" cy="-22" rx="18" ry="18"/>
<ellipse fill="none" stroke="black" cx="274.6" cy="-22" rx="22" ry="22"/>
<text text-anchor="middle" x="274.6" y="-18.3" font-family="Times New Roman,serif" font-size="14.00">1</text>
</g>
<!-- 1&#45;&gt;0 -->
<g id="edge6" class="edge"><title>1&#45;&gt;0</title>
<path fill="none" stroke="black" d="M252.503,-23.6213C230.353,-25.3481 194.515,-28.2115 163.6,-31 152.288,-32.0203 139.971,-33.2077 128.82,-34.3117"/>
<polygon fill="black" stroke="black" points="128.159,-30.8602 118.556,-35.3364 128.855,-37.8256 128.159,-30.8602"/>
<text text-anchor="middle" x="185.6" y="-34.8" font-family="Times New Roman,serif" font-size="14.00">+</text>
</g>
<!-- 1&#45;&gt;0 -->
<g id="edge7" class="edge"><title>1&#45;&gt;0</title>
<path fill="none" stroke="black" d="M253.18,-15.4463C230.985,-9.23975 194.543,-1.73098 163.6,-8 149.526,-10.8514 134.775,-16.5838 122.388,-22.2808"/>
<polygon fill="black" stroke="black" points="120.514,-19.2983 113.019,-26.7864 123.548,-25.6068 120.514,-19.2983"/>
<text text-anchor="middle" x="185.6" y="-11.8" font-family="Times New Roman,serif" font-size="14.00">&#45;</text>
</g>
<!-- 2&#45;&gt;0 -->
<g id="edge5" class="edge"><title>2&#45;&gt;0</title>
<path fill="none" stroke="black" d="M167.393,-64.3276C160.827,-59.9405 153.11,-55.3011 145.6,-52 139.963,-49.5221 133.789,-47.4024 127.711,-45.6181"/>
<polygon fill="black" stroke="black" points="128.248,-42.1385 117.683,-42.928 126.435,-48.8995 128.248,-42.1385"/>
<text text-anchor="middle" x="141.1" y="-55.8" font-family="Times New Roman,serif" font-size="14.00">&#45;</text>
</g>
<!-- 2&#45;&gt;1 -->
<g id="edge4" class="edge"><title>2&#45;&gt;1</title>
<path fill="none" stroke="black" d="M204.626,-65.604C216.875,-57.8607 233.283,-47.4874 247.023,-38.8013"/>
<polygon fill="black" stroke="black" points="249.014,-41.6835 255.597,-33.3814 245.274,-35.7667 249.014,-41.6835"/>
<text text-anchor="middle" x="230.1" y="-54.8" font-family="Times New Roman,serif" font-size="14.00">+</text>
</g>
</g>
</svg>
