<?xml version="1.0" encoding="UTF-8" standalone="no"?>
<!DOCTYPE svg PUBLIC "-//W3C//DTD SVG 1.1//EN"
 "http://www.w3.org/Graphics/SVG/1.1/DTD/svg11.dtd">
<!-- Generated by graphviz version 2.38.0 (20140413.2041)
 -->
<!-- Title: dfa Pages: 1 -->
<svg width="645pt" height="181pt"
 viewBox="0.00 0.00 644.97 180.90" xmlns="http://www.w3.org/2000/svg" xmlns:xlink="http://www.w3.org/1999/xlink">
<g id="graph0" class="graph" transform="scale(1 1) rotate(0) translate(4 176.895)">
<title>dfa</title>
<polygon fill="white" stroke="none" points="-4,4 -4,-176.895 640.97,-176.895 640.97,4 -4,4"/>
<!-- __start -->
<!-- (0,0) -->
<g id="node2" class="node"><title>(0,0)</title>
<ellipse fill="none" stroke="black" cx="92.5475" cy="-81.9475" rx="27.8951" ry="27.8951"/>
<text text-anchor="middle" x="92.5475" y="-78.2475" font-family="Times New Roman,serif" font-size="14.00">(0,0)</text>
</g>
<!-- __start&#45;&gt;(0,0) -->
<g id="edge1" class="edge"><title>__start&#45;&gt;(0,0)</title>
<path fill="none" stroke="black" d="M3.79668,-81.9475C8.92583,-81.9475 32.9428,-81.9475 54.5557,-81.9475"/>
<polygon fill="black" stroke="black" points="54.5589,-85.4476 64.5589,-81.9475 54.5588,-78.4476 54.5589,-85.4476"/>
<text text-anchor="middle" x="34.1" y="-85.7475" font-family="Times New Roman,serif" font-size="14.00">start</text>
</g>
<!-- (2,0) -->
<g id="node5" class="node"><title>(2,0)</title>
<ellipse fill="none" stroke="black" cx="193.443" cy="-81.9475" rx="27.8951" ry="27.8951"/>
<text text-anchor="middle" x="193.443" y="-78.2475" font-family="Times New Roman,serif" font-size="14.00">(2,0)</text>
</g>
<!-- (0,0)&#45;&gt;(2,0) -->
<g id="edge2" class="edge"><title>(0,0)&#45;&gt;(2,0)</title>
<path fill="none" stroke="black" d="M120.571,-81.9475C131.255,-81.9475 143.71,-81.9475 155.222,-81.9475"/>
<polygon fill="black" stroke="black" points="155.452,-85.4476 165.452,-81.9475 155.452,-78.4476 155.452,-85.4476"/>
<text text-anchor="middle" x="142.995" y="-85.7475" font-family="Times New Roman,serif" font-size="14.00">+</text>
</g>
<!-- (0,1) -->
<g id="node6" class="node"><title>(0,1)</title>
<ellipse fill="none" stroke="black" cx="391.233" cy="-91.9475" rx="27.8951" ry="27.8951"/>
<text text-anchor="middle" x="391.233" y="-88.2475" font-family="Times New Roman,serif" font-size="14.00">(0,1)</text>
</g>
<!-- (0,0)&#45;&gt;(0,1) -->
<g id="edge3" class="edge"><title>(0,0)&#45;&gt;(0,1)</title>
<path fill="none" stroke="black" d="M116.097,-97.0833C129.753,-105.323 147.885,-114.685 165.495,-118.948 231.226,-134.859 310.144,-117.176 354.815,-103.875"/>
<polygon fill="black" stroke="black" points="356.078,-107.149 364.608,-100.865 354.021,-100.458 356.078,-107.149"/>
<text text-anchor="middle" x="243.89" y="-127.748" font-family="Times New Roman,serif" font-size="14.00">&#45;</text>
</g>
<!-- (2,1) -->
<g id="node3" class="node"><title>(2,1)</title>
<ellipse fill="none" stroke="black" cx="496.128" cy="-140.948" rx="27.9017" ry="27.9017"/>
<ellipse fill="none" stroke="black" cx="496.128" cy="-140.948" rx="31.8951" ry="31.8951"/>
<text text-anchor="middle" x="496.128" y="-137.248" font-family="Times New Roman,serif" font-size="14.00">(2,1)</text>
</g>
<!-- (1,1) -->
<g id="node4" class="node"><title>(1,1)</title>
<ellipse fill="none" stroke="black" cx="605.023" cy="-75.9475" rx="27.9017" ry="27.9017"/>
<ellipse fill="none" stroke="black" cx="605.023" cy="-75.9475" rx="31.8951" ry="31.8951"/>
<text text-anchor="middle" x="605.023" y="-72.2475" font-family="Times New Roman,serif" font-size="14.00">(1,1)</text>
</g>
<!-- (2,1)&#45;&gt;(1,1) -->
<g id="edge8" class="edge"><title>(2,1)&#45;&gt;(1,1)</title>
<path fill="none" stroke="black" d="M523.826,-124.713C537.346,-116.492 553.942,-106.4 568.522,-97.5346"/>
<polygon fill="black" stroke="black" points="570.568,-100.387 577.294,-92.2004 566.931,-94.4055 570.568,-100.387"/>
<text text-anchor="middle" x="550.575" y="-114.748" font-family="Times New Roman,serif" font-size="14.00">+</text>
</g>
<!-- (2,1)&#45;&gt;(0,1) -->
<g id="edge9" class="edge"><title>(2,1)&#45;&gt;(0,1)</title>
<path fill="none" stroke="black" d="M471.07,-121.089C463.466,-115.56 454.792,-109.974 446.18,-105.948 440.733,-103.401 434.752,-101.266 428.817,-99.4923"/>
<polygon fill="black" stroke="black" points="429.54,-96.0625 418.974,-96.8404 427.719,-102.822 429.54,-96.0625"/>
<text text-anchor="middle" x="441.68" y="-109.748" font-family="Times New Roman,serif" font-size="14.00">&#45;</text>
</g>
<!-- (1,1)&#45;&gt;(0,1) -->
<g id="edge12" class="edge"><title>(1,1)&#45;&gt;(0,1)</title>
<path fill="none" stroke="black" d="M572.898,-77.6582C544.545,-79.286 501.524,-81.93 464.18,-84.9475 452.899,-85.859 440.638,-86.997 429.487,-88.0888"/>
<polygon fill="black" stroke="black" points="428.809,-84.6389 419.205,-89.1124 429.502,-91.6045 428.809,-84.6389"/>
<text text-anchor="middle" x="496.128" y="-88.7475" font-family="Times New Roman,serif" font-size="14.00">+</text>
</g>
<!-- (1,1)&#45;&gt;(0,1) -->
<g id="edge13" class="edge"><title>(1,1)&#45;&gt;(0,1)</title>
<path fill="none" stroke="black" d="M574.037,-67.8507C545.548,-61.3545 501.623,-54.4539 464.18,-61.9475 450.987,-64.588 437.189,-69.7024 425.247,-74.9708"/>
<polygon fill="black" stroke="black" points="423.728,-71.8171 416.114,-79.1848 426.661,-78.1731 423.728,-71.8171"/>
<text text-anchor="middle" x="496.128" y="-65.7475" font-family="Times New Roman,serif" font-size="14.00">&#45;</text>
</g>
<!-- (2,0)&#45;&gt;(0,1) -->
<g id="edge7" class="edge"><title>(2,0)&#45;&gt;(0,1)</title>
<path fill="none" stroke="black" d="M221.666,-83.338C255.858,-85.0843 314.678,-88.0886 353.009,-90.0463"/>
<polygon fill="black" stroke="black" points="353.075,-93.5541 363.24,-90.5689 353.432,-86.5632 353.075,-93.5541"/>
<text text-anchor="middle" x="294.338" y="-92.7475" font-family="Times New Roman,serif" font-size="14.00">&#45;</text>
</g>
<!-- (1,0) -->
<g id="node7" class="node"><title>(1,0)</title>
<ellipse fill="none" stroke="black" cx="294.338" cy="-27.9475" rx="27.8951" ry="27.8951"/>
<text text-anchor="middle" x="294.338" y="-24.2475" font-family="Times New Roman,serif" font-size="14.00">(1,0)</text>
</g>
<!-- (2,0)&#45;&gt;(1,0) -->
<g id="edge6" class="edge"><title>(2,0)&#45;&gt;(1,0)</title>
<path fill="none" stroke="black" d="M218.382,-68.8756C230.923,-62.0281 246.477,-53.5347 260.161,-46.063"/>
<polygon fill="black" stroke="black" points="262.176,-48.9506 269.276,-41.0862 258.821,-42.8068 262.176,-48.9506"/>
<text text-anchor="middle" x="243.89" y="-60.7475" font-family="Times New Roman,serif" font-size="14.00">+</text>
</g>
<!-- (0,1)&#45;&gt;(2,1) -->
<g id="edge4" class="edge"><title>(0,1)&#45;&gt;(2,1)</title>
<path fill="none" stroke="black" d="M413.158,-109.756C420.406,-115.24 428.817,-120.894 437.18,-124.948 442.655,-127.601 448.642,-129.876 454.623,-131.807"/>
<polygon fill="black" stroke="black" points="454.011,-135.275 464.592,-134.738 455.985,-128.56 454.011,-135.275"/>
<text text-anchor="middle" x="441.68" y="-131.748" font-family="Times New Roman,serif" font-size="14.00">+</text>
</g>
<!-- (0,1)&#45;&gt;(0,1) -->
<g id="edge5" class="edge"><title>(0,1)&#45;&gt;(0,1)</title>
<path fill="none" stroke="black" d="M382.268,-118.849C381.869,-129.25 384.858,-137.895 391.233,-137.895 395.317,-137.895 398.011,-134.347 399.315,-129.062"/>
<polygon fill="black" stroke="black" points="402.823,-129.113 400.197,-118.849 395.849,-128.51 402.823,-129.113"/>
<text text-anchor="middle" x="391.233" y="-141.695" font-family="Times New Roman,serif" font-size="14.00">&#45;</text>
</g>
<!-- (1,0)&#45;&gt;(0,0) -->
<g id="edge10" class="edge"><title>(1,0)&#45;&gt;(0,0)</title>
<path fill="none" stroke="black" d="M266.61,-23.7988C240.194,-20.7438 198.989,-18.8205 165.495,-29.9475 149.178,-35.3681 133.419,-45.9398 120.83,-56.1434"/>
<polygon fill="black" stroke="black" points="118.412,-53.6049 113.041,-62.7377 122.935,-58.9473 118.412,-53.6049"/>
<text text-anchor="middle" x="193.443" y="-33.7475" font-family="Times New Roman,serif" font-size="14.00">+</text>
</g>
<!-- (1,0)&#45;&gt;(0,1) -->
<g id="edge11" class="edge"><title>(1,0)&#45;&gt;(0,1)</title>
<path fill="none" stroke="black" d="M317.826,-43.1146C330.145,-51.4229 345.602,-61.8475 359.068,-70.9292"/>
<polygon fill="black" stroke="black" points="357.329,-73.9777 367.576,-76.6675 361.243,-68.1742 357.329,-73.9777"/>
<text text-anchor="middle" x="342.785" y="-65.7475" font-family="Times New Roman,serif" font-size="14.00">&#45;</text>
</g>
</g>
</svg>
