<?xml version="1.0" encoding="UTF-8" standalone="no"?>
<!DOCTYPE svg PUBLIC "-//W3C//DTD SVG 1.1//EN"
 "http://www.w3.org/Graphics/SVG/1.1/DTD/svg11.dtd">
<!-- Generated by graphviz version 2.38.0 (20140413.2041)
 -->
<!-- Title: dfa Pages: 1 -->
<svg width="294pt" height="93pt"
 viewBox="0.00 0.00 293.60 93.00" xmlns="http://www.w3.org/2000/svg" xmlns:xlink="http://www.w3.org/1999/xlink">
<g id="graph0" class="graph" transform="scale(1 1) rotate(0) translate(4 89)">
<title>dfa</title>
<polygon fill="white" stroke="none" points="-4,4 -4,-89 289.6,-89 289.6,4 -4,4"/>
<!-- __start -->
<!-- 0 -->
<g id="node2" class="node"><title>0</title>
<ellipse fill="none" stroke="black" cx="91.6" cy="-34" rx="27" ry="18"/>
<text text-anchor="middle" x="91.6" y="-30.3" font-family="Times New Roman,serif" font-size="14.00">0</text>
</g>
<!-- __start&#45;&gt;0 -->
<g id="edge1" class="edge"><title>__start&#45;&gt;0</title>
<path fill="none" stroke="black" d="M3.78604,-34C8.86985,-34 32.7092,-34 54.1222,-34"/>
<polygon fill="black" stroke="black" points="54.3463,-37.5001 64.3463,-34 54.3463,-30.5001 54.3463,-37.5001"/>
<text text-anchor="middle" x="34.1" y="-37.8" font-family="Times New Roman,serif" font-size="14.00">start</text>
</g>
<!-- 0&#45;&gt;0 -->
<g id="edge2" class="edge"><title>0&#45;&gt;0</title>
<path fill="none" stroke="black" d="M82.74,-51.0373C80.9318,-60.8579 83.8852,-70 91.6,-70 96.4218,-70 99.3836,-66.4289 100.485,-61.3529"/>
<polygon fill="black" stroke="black" points="103.985,-61.0286 100.46,-51.0373 96.9848,-61.0459 103.985,-61.0286"/>
<text text-anchor="middle" x="91.6" y="-73.8" font-family="Times New Roman,serif" font-size="14.00">j</text>
</g>
<!-- 2 -->
<g id="node4" class="node"><title>2</title>
<ellipse fill="none" stroke="black" cx="183.6" cy="-52" rx="18" ry="18"/>
<text text-anchor="middle" x="183.6" y="-48.3" font-family="Times New Roman,serif" font-size="14.00">2</text>
</g>
<!-- 0&#45;&gt;2 -->
<g id="edge3" class="edge"><title>0&#45;&gt;2</title>
<path fill="none" stroke="black" d="M114.606,-43.492C121.52,-46.0666 129.265,-48.5429 136.6,-50 142.627,-51.1974 149.183,-51.856 155.406,-52.1915"/>
<polygon fill="black" stroke="black" points="155.313,-55.6902 165.413,-52.4889 155.521,-48.6932 155.313,-55.6902"/>
<text text-anchor="middle" x="142.1" y="-54.8" font-family="Times New Roman,serif" font-size="14.00">m</text>
</g>
<!-- 1 -->
<g id="node3" class="node"><title>1</title>
<ellipse fill="none" stroke="black" cx="263.6" cy="-22" rx="18" ry="18"/>
<ellipse fill="none" stroke="black" cx="263.6" cy="-22" rx="22" ry="22"/>
<text text-anchor="middle" x="263.6" y="-18.3" font-family="Times New Roman,serif" font-size="14.00">1</text>
</g>
<!-- 1&#45;&gt;0 -->
<g id="edge5" class="edge"><title>1&#45;&gt;0</title>
<path fill="none" stroke="black" d="M242.135,-16.9422C230.362,-14.2929 215.243,-11.3292 201.6,-10 185.675,-8.44851 181.399,-7.46959 165.6,-10 151.775,-12.2142 137.018,-16.6463 124.415,-21.1058"/>
<polygon fill="black" stroke="black" points="122.997,-17.8983 114.829,-24.6462 125.422,-24.4648 122.997,-17.8983"/>
<text text-anchor="middle" x="183.6" y="-13.8" font-family="Times New Roman,serif" font-size="14.00">m</text>
</g>
<!-- 1&#45;&gt;1 -->
<g id="edge4" class="edge"><title>1&#45;&gt;1</title>
<path fill="none" stroke="black" d="M255.917,-42.9908C254.969,-53.0872 257.53,-62 263.6,-62 267.489,-62 269.937,-58.3422 270.946,-53.0587"/>
<polygon fill="black" stroke="black" points="274.446,-53.1023 271.283,-42.9908 267.45,-52.868 274.446,-53.1023"/>
<text text-anchor="middle" x="263.6" y="-65.8" font-family="Times New Roman,serif" font-size="14.00">j</text>
</g>
<!-- 2&#45;&gt;0 -->
<g id="edge7" class="edge"><title>2&#45;&gt;0</title>
<path fill="none" stroke="black" d="M168.763,-41.33C162.63,-37.2506 155.112,-33.0807 147.6,-31 141.371,-29.2746 134.597,-28.6695 128,-28.7133"/>
<polygon fill="black" stroke="black" points="127.683,-25.2251 117.882,-29.2487 128.053,-32.2153 127.683,-25.2251"/>
<text text-anchor="middle" x="142.1" y="-34.8" font-family="Times New Roman,serif" font-size="14.00">m</text>
</g>
<!-- 2&#45;&gt;1 -->
<g id="edge6" class="edge"><title>2&#45;&gt;1</title>
<path fill="none" stroke="black" d="M200.762,-45.784C210.218,-42.1469 222.441,-37.4459 233.519,-33.1849"/>
<polygon fill="black" stroke="black" points="234.785,-36.448 242.862,-29.5915 232.272,-29.9146 234.785,-36.448"/>
<text text-anchor="middle" x="221.6" y="-40.8" font-family="Times New Roman,serif" font-size="14.00">j</text>
</g>
</g>
</svg>
