<?xml version="1.0" encoding="UTF-8" standalone="no"?>
<!DOCTYPE svg PUBLIC "-//W3C//DTD SVG 1.1//EN"
 "http://www.w3.org/Graphics/SVG/1.1/DTD/svg11.dtd">
<!-- Generated by graphviz version 2.38.0 (20140413.2041)
 -->
<!-- Title: dfa Pages: 1 -->
<svg width="301pt" height="114pt"
 viewBox="0.00 0.00 300.60 114.00" xmlns="http://www.w3.org/2000/svg" xmlns:xlink="http://www.w3.org/1999/xlink">
<g id="graph0" class="graph" transform="scale(1 1) rotate(0) translate(4 110)">
<title>dfa</title>
<polygon fill="white" stroke="none" points="-4,4 -4,-110 296.6,-110 296.6,4 -4,4"/>
<!-- __start -->
<!-- 0 -->
<g id="node2" class="node"><title>0</title>
<ellipse fill="none" stroke="black" cx="91.6" cy="-18" rx="27" ry="18"/>
<text text-anchor="middle" x="91.6" y="-14.3" font-family="Times New Roman,serif" font-size="14.00">0</text>
</g>
<!-- __start&#45;&gt;0 -->
<g id="edge1" class="edge"><title>__start&#45;&gt;0</title>
<path fill="none" stroke="black" d="M3.78604,-18C8.86985,-18 32.7092,-18 54.1222,-18"/>
<polygon fill="black" stroke="black" points="54.3463,-21.5001 64.3463,-18 54.3463,-14.5001 54.3463,-21.5001"/>
<text text-anchor="middle" x="34.1" y="-21.8" font-family="Times New Roman,serif" font-size="14.00">start</text>
</g>
<!-- 0&#45;&gt;0 -->
<g id="edge2" class="edge"><title>0&#45;&gt;0</title>
<path fill="none" stroke="black" d="M82.74,-35.0373C80.9318,-44.8579 83.8852,-54 91.6,-54 96.4218,-54 99.3836,-50.4289 100.485,-45.3529"/>
<polygon fill="black" stroke="black" points="103.985,-45.0286 100.46,-35.0373 96.9848,-45.0459 103.985,-45.0286"/>
<text text-anchor="middle" x="91.6" y="-57.8" font-family="Times New Roman,serif" font-size="14.00">j</text>
</g>
<!-- 1 -->
<g id="node3" class="node"><title>1</title>
<ellipse fill="none" stroke="black" cx="187.6" cy="-51" rx="18" ry="18"/>
<ellipse fill="none" stroke="black" cx="187.6" cy="-51" rx="22" ry="22"/>
<text text-anchor="middle" x="187.6" y="-47.3" font-family="Times New Roman,serif" font-size="14.00">1</text>
</g>
<!-- 0&#45;&gt;1 -->
<g id="edge3" class="edge"><title>0&#45;&gt;1</title>
<path fill="none" stroke="black" d="M115.836,-26.1573C128.227,-30.5072 143.608,-35.9069 156.862,-40.5599"/>
<polygon fill="black" stroke="black" points="155.903,-43.9327 166.498,-43.9428 158.222,-37.3279 155.903,-43.9327"/>
<text text-anchor="middle" x="142.1" y="-39.8" font-family="Times New Roman,serif" font-size="14.00">m</text>
</g>
<!-- 1&#45;&gt;1 -->
<g id="edge6" class="edge"><title>1&#45;&gt;1</title>
<path fill="none" stroke="black" d="M179.594,-71.5808C178.486,-81.8447 181.155,-91 187.6,-91 191.729,-91 194.308,-87.2427 195.337,-81.8436"/>
<polygon fill="black" stroke="black" points="198.843,-81.6691 195.606,-71.5808 191.845,-81.4857 198.843,-81.6691"/>
<text text-anchor="middle" x="187.6" y="-94.8" font-family="Times New Roman,serif" font-size="14.00">j</text>
</g>
<!-- 2 -->
<g id="node4" class="node"><title>2</title>
<ellipse fill="none" stroke="black" cx="274.6" cy="-29" rx="18" ry="18"/>
<text text-anchor="middle" x="274.6" y="-25.3" font-family="Times New Roman,serif" font-size="14.00">2</text>
</g>
<!-- 1&#45;&gt;2 -->
<g id="edge7" class="edge"><title>1&#45;&gt;2</title>
<path fill="none" stroke="black" d="M209.805,-49.9115C218.808,-49.0771 229.342,-47.6032 238.6,-45 242.049,-44.0302 245.589,-42.7646 249.03,-41.3697"/>
<polygon fill="black" stroke="black" points="250.601,-44.5017 258.31,-37.2344 247.751,-38.1078 250.601,-44.5017"/>
<text text-anchor="middle" x="233.1" y="-50.8" font-family="Times New Roman,serif" font-size="14.00">m</text>
</g>
<!-- 2&#45;&gt;0 -->
<g id="edge4" class="edge"><title>2&#45;&gt;0</title>
<path fill="none" stroke="black" d="M258.008,-21.345C245.319,-15.5639 226.764,-8.11244 209.6,-5 181.923,0.0188592 150.187,-4.11641 126.757,-9.01345"/>
<polygon fill="black" stroke="black" points="125.936,-5.6107 116.942,-11.2103 127.465,-12.4417 125.936,-5.6107"/>
<text text-anchor="middle" x="187.6" y="-8.8" font-family="Times New Roman,serif" font-size="14.00">j</text>
</g>
<!-- 2&#45;&gt;1 -->
<g id="edge5" class="edge"><title>2&#45;&gt;1</title>
<path fill="none" stroke="black" d="M256.294,-27.4773C247.555,-27.1833 236.869,-27.5558 227.6,-30 223.615,-31.0509 219.589,-32.5822 215.714,-34.3466"/>
<polygon fill="black" stroke="black" points="213.803,-31.3936 206.503,-39.0722 216.998,-37.6219 213.803,-31.3936"/>
<text text-anchor="middle" x="233.1" y="-33.8" font-family="Times New Roman,serif" font-size="14.00">m</text>
</g>
</g>
</svg>
