<?xml version="1.0" encoding="UTF-8" standalone="no"?>
<!DOCTYPE svg PUBLIC "-//W3C//DTD SVG 1.1//EN"
 "http://www.w3.org/Graphics/SVG/1.1/DTD/svg11.dtd">
<!-- Generated by graphviz version 2.38.0 (20140413.2041)
 -->
<!-- Title: dfa Pages: 1 -->
<svg width="276pt" height="93pt"
 viewBox="0.00 0.00 275.60 93.00" xmlns="http://www.w3.org/2000/svg" xmlns:xlink="http://www.w3.org/1999/xlink">
<g id="graph0" class="graph" transform="scale(1 1) rotate(0) translate(4 89)">
<title>dfa</title>
<polygon fill="white" stroke="none" points="-4,4 -4,-89 271.6,-89 271.6,4 -4,4"/>
<!-- __start -->
<!-- 0 -->
<g id="node2" class="node"><title>0</title>
<ellipse fill="none" stroke="black" cx="82.6" cy="-34" rx="18" ry="18"/>
<text text-anchor="middle" x="82.6" y="-30.3" font-family="Times New Roman,serif" font-size="14.00">0</text>
</g>
<!-- __start&#45;&gt;0 -->
<g id="edge1" class="edge"><title>__start&#45;&gt;0</title>
<path fill="none" stroke="black" d="M3.68496,-34C8.69573,-34 34.008,-34 54.4423,-34"/>
<polygon fill="black" stroke="black" points="54.5501,-37.5001 64.5501,-34 54.5501,-30.5001 54.5501,-37.5001"/>
<text text-anchor="middle" x="34.1" y="-37.8" font-family="Times New Roman,serif" font-size="14.00">start</text>
</g>
<!-- 0&#45;&gt;0 -->
<g id="edge2" class="edge"><title>0&#45;&gt;0</title>
<path fill="none" stroke="black" d="M75.5688,-50.6641C74.0063,-60.625 76.35,-70 82.6,-70 86.6039,-70 89.0047,-66.1525 89.8023,-60.7682"/>
<polygon fill="black" stroke="black" points="93.3001,-60.6033 89.6313,-50.6641 86.3011,-60.7219 93.3001,-60.6033"/>
<text text-anchor="middle" x="82.6" y="-73.8" font-family="Times New Roman,serif" font-size="14.00">j</text>
</g>
<!-- 2 -->
<g id="node4" class="node"><title>2</title>
<ellipse fill="none" stroke="black" cx="165.6" cy="-52" rx="18" ry="18"/>
<text text-anchor="middle" x="165.6" y="-48.3" font-family="Times New Roman,serif" font-size="14.00">2</text>
</g>
<!-- 0&#45;&gt;2 -->
<g id="edge3" class="edge"><title>0&#45;&gt;2</title>
<path fill="none" stroke="black" d="M98.8193,-42.5046C104.801,-45.4292 111.844,-48.3746 118.6,-50 124.575,-51.4375 131.109,-52.192 137.328,-52.5441"/>
<polygon fill="black" stroke="black" points="137.255,-56.0433 147.343,-52.8062 137.438,-49.0457 137.255,-56.0433"/>
<text text-anchor="middle" x="124.1" y="-54.8" font-family="Times New Roman,serif" font-size="14.00">m</text>
</g>
<!-- 1 -->
<g id="node3" class="node"><title>1</title>
<ellipse fill="none" stroke="black" cx="245.6" cy="-22" rx="18" ry="18"/>
<ellipse fill="none" stroke="black" cx="245.6" cy="-22" rx="22" ry="22"/>
<text text-anchor="middle" x="245.6" y="-18.3" font-family="Times New Roman,serif" font-size="14.00">1</text>
</g>
<!-- 1&#45;&gt;0 -->
<g id="edge5" class="edge"><title>1&#45;&gt;0</title>
<path fill="none" stroke="black" d="M224.436,-15.9677C204.747,-10.9086 173.98,-5.21635 147.6,-10 134.325,-12.4073 120.217,-17.4102 108.636,-22.2283"/>
<polygon fill="black" stroke="black" points="106.96,-19.1404 99.1923,-26.345 109.758,-25.5572 106.96,-19.1404"/>
<text text-anchor="middle" x="165.6" y="-13.8" font-family="Times New Roman,serif" font-size="14.00">m</text>
</g>
<!-- 1&#45;&gt;1 -->
<g id="edge4" class="edge"><title>1&#45;&gt;1</title>
<path fill="none" stroke="black" d="M237.917,-42.9908C236.969,-53.0872 239.53,-62 245.6,-62 249.489,-62 251.937,-58.3422 252.946,-53.0587"/>
<polygon fill="black" stroke="black" points="256.446,-53.1023 253.283,-42.9908 249.45,-52.868 256.446,-53.1023"/>
<text text-anchor="middle" x="245.6" y="-65.8" font-family="Times New Roman,serif" font-size="14.00">j</text>
</g>
<!-- 2&#45;&gt;0 -->
<g id="edge7" class="edge"><title>2&#45;&gt;0</title>
<path fill="none" stroke="black" d="M150.763,-41.33C144.63,-37.2506 137.112,-33.0807 129.6,-31 123.572,-29.3304 116.937,-28.9598 110.628,-29.2508"/>
<polygon fill="black" stroke="black" points="110.09,-25.7868 100.482,-30.2524 110.777,-32.7529 110.09,-25.7868"/>
<text text-anchor="middle" x="124.1" y="-34.8" font-family="Times New Roman,serif" font-size="14.00">m</text>
</g>
<!-- 2&#45;&gt;1 -->
<g id="edge6" class="edge"><title>2&#45;&gt;1</title>
<path fill="none" stroke="black" d="M182.762,-45.784C192.218,-42.1469 204.441,-37.4459 215.519,-33.1849"/>
<polygon fill="black" stroke="black" points="216.785,-36.448 224.862,-29.5915 214.272,-29.9146 216.785,-36.448"/>
<text text-anchor="middle" x="203.6" y="-40.8" font-family="Times New Roman,serif" font-size="14.00">j</text>
</g>
</g>
</svg>
