<?xml version="1.0" encoding="UTF-8" standalone="no"?>
<!DOCTYPE svg PUBLIC "-//W3C//DTD SVG 1.1//EN"
 "http://www.w3.org/Graphics/SVG/1.1/DTD/svg11.dtd">
<!-- Generated by graphviz version 2.38.0 (20140413.2041)
 -->
<!-- Title: dfa Pages: 1 -->
<svg width="443pt" height="85pt"
 viewBox="0.00 0.00 442.60 85.00" xmlns="http://www.w3.org/2000/svg" xmlns:xlink="http://www.w3.org/1999/xlink">
<g id="graph0" class="graph" transform="scale(1 1) rotate(0) translate(4 81)">
<title>dfa</title>
<polygon fill="white" stroke="none" points="-4,4 -4,-81 438.6,-81 438.6,4 -4,4"/>
<!-- __start -->
<!-- 0 -->
<g id="node2" class="node"><title>0</title>
<ellipse fill="none" stroke="black" cx="82.6" cy="-33" rx="18" ry="18"/>
<text text-anchor="middle" x="82.6" y="-29.3" font-family="Times New Roman,serif" font-size="14.00">0</text>
</g>
<!-- __start&#45;&gt;0 -->
<g id="edge1" class="edge"><title>__start&#45;&gt;0</title>
<path fill="none" stroke="black" d="M3.68496,-33C8.69573,-33 34.008,-33 54.4423,-33"/>
<polygon fill="black" stroke="black" points="54.5501,-36.5001 64.5501,-33 54.5501,-29.5001 54.5501,-36.5001"/>
<text text-anchor="middle" x="34.1" y="-36.8" font-family="Times New Roman,serif" font-size="14.00">start</text>
</g>
<!-- 2 -->
<g id="node4" class="node"><title>2</title>
<ellipse fill="none" stroke="black" cx="165.6" cy="-55" rx="18" ry="18"/>
<ellipse fill="none" stroke="black" cx="165.6" cy="-55" rx="22" ry="22"/>
<text text-anchor="middle" x="165.6" y="-51.3" font-family="Times New Roman,serif" font-size="14.00">2</text>
</g>
<!-- 0&#45;&gt;2 -->
<g id="edge2" class="edge"><title>0&#45;&gt;2</title>
<path fill="none" stroke="black" d="M98.9,-41.1981C104.892,-44.0851 111.921,-47.0848 118.6,-49 123.289,-50.3444 128.333,-51.3885 133.303,-52.1991"/>
<polygon fill="black" stroke="black" points="132.88,-55.6738 143.261,-53.5566 133.826,-48.7379 132.88,-55.6738"/>
<text text-anchor="middle" x="122.1" y="-53.8" font-family="Times New Roman,serif" font-size="14.00">k</text>
</g>
<!-- 3 -->
<g id="node5" class="node"><title>3</title>
<ellipse fill="none" stroke="black" cx="249.6" cy="-22" rx="18" ry="18"/>
<text text-anchor="middle" x="249.6" y="-18.3" font-family="Times New Roman,serif" font-size="14.00">3</text>
</g>
<!-- 0&#45;&gt;3 -->
<g id="edge3" class="edge"><title>0&#45;&gt;3</title>
<path fill="none" stroke="black" d="M98.8949,-24.9926C110.735,-19.267 127.736,-12.0551 143.6,-9 170.14,-3.88893 200.859,-8.94788 222.185,-14.1745"/>
<polygon fill="black" stroke="black" points="221.563,-17.6299 232.125,-16.7898 223.344,-10.8604 221.563,-17.6299"/>
<text text-anchor="middle" x="165.6" y="-12.8" font-family="Times New Roman,serif" font-size="14.00">q</text>
</g>
<!-- 1 -->
<g id="node3" class="node"><title>1</title>
<ellipse fill="none" stroke="black" cx="412.6" cy="-22" rx="18" ry="18"/>
<ellipse fill="none" stroke="black" cx="412.6" cy="-22" rx="22" ry="22"/>
<text text-anchor="middle" x="412.6" y="-18.3" font-family="Times New Roman,serif" font-size="14.00">1</text>
</g>
<!-- 1&#45;&gt;1 -->
<g id="edge9" class="edge"><title>1&#45;&gt;1</title>
<path fill="none" stroke="black" d="M404.917,-42.9908C403.969,-53.0872 406.53,-62 412.6,-62 416.489,-62 418.937,-58.3422 419.946,-53.0587"/>
<polygon fill="black" stroke="black" points="423.446,-53.1023 420.283,-42.9908 416.45,-52.868 423.446,-53.1023"/>
<text text-anchor="middle" x="412.6" y="-65.8" font-family="Times New Roman,serif" font-size="14.00">q</text>
</g>
<!-- 4 -->
<g id="node6" class="node"><title>4</title>
<ellipse fill="none" stroke="black" cx="329.6" cy="-22" rx="18" ry="18"/>
<text text-anchor="middle" x="329.6" y="-18.3" font-family="Times New Roman,serif" font-size="14.00">4</text>
</g>
<!-- 1&#45;&gt;4 -->
<g id="edge8" class="edge"><title>1&#45;&gt;4</title>
<path fill="none" stroke="black" d="M394.525,-9.20141C386.028,-4.3314 375.482,-0.490639 365.6,-3 361.642,-4.00504 357.647,-5.55766 353.844,-7.35171"/>
<polygon fill="black" stroke="black" points="352.075,-4.32845 344.911,-12.1343 355.379,-10.4996 352.075,-4.32845"/>
<text text-anchor="middle" x="369.1" y="-6.8" font-family="Times New Roman,serif" font-size="14.00">k</text>
</g>
<!-- 2&#45;&gt;0 -->
<g id="edge4" class="edge"><title>2&#45;&gt;0</title>
<path fill="none" stroke="black" d="M148.169,-41.5129C141.568,-36.9188 133.627,-32.3518 125.6,-30 120.768,-28.5843 115.496,-28.1475 110.371,-28.2654"/>
<polygon fill="black" stroke="black" points="109.9,-24.793 100.243,-29.1504 110.51,-31.7665 109.9,-24.793"/>
<text text-anchor="middle" x="122.1" y="-33.8" font-family="Times New Roman,serif" font-size="14.00">k</text>
</g>
<!-- 2&#45;&gt;3 -->
<g id="edge5" class="edge"><title>2&#45;&gt;3</title>
<path fill="none" stroke="black" d="M186.45,-47.0116C197.485,-42.5707 211.335,-36.997 223.158,-32.2389"/>
<polygon fill="black" stroke="black" points="224.536,-35.4571 232.506,-28.4767 221.923,-28.9632 224.536,-35.4571"/>
<text text-anchor="middle" x="209.6" y="-41.8" font-family="Times New Roman,serif" font-size="14.00">q</text>
</g>
<!-- 3&#45;&gt;3 -->
<g id="edge10" class="edge"><title>3&#45;&gt;3</title>
<path fill="none" stroke="black" d="M242.569,-38.6641C241.006,-48.625 243.35,-58 249.6,-58 253.604,-58 256.005,-54.1525 256.802,-48.7682"/>
<polygon fill="black" stroke="black" points="260.3,-48.6033 256.631,-38.6641 253.301,-48.7219 260.3,-48.6033"/>
<text text-anchor="middle" x="249.6" y="-61.8" font-family="Times New Roman,serif" font-size="14.00">k</text>
</g>
<!-- 3&#45;&gt;4 -->
<g id="edge11" class="edge"><title>3&#45;&gt;4</title>
<path fill="none" stroke="black" d="M267.911,-22C277.706,-22 290.178,-22 301.265,-22"/>
<polygon fill="black" stroke="black" points="301.338,-25.5001 311.338,-22 301.338,-18.5001 301.338,-25.5001"/>
<text text-anchor="middle" x="289.6" y="-25.8" font-family="Times New Roman,serif" font-size="14.00">q</text>
</g>
<!-- 4&#45;&gt;1 -->
<g id="edge6" class="edge"><title>4&#45;&gt;1</title>
<path fill="none" stroke="black" d="M347.778,-22C357.21,-22 369.201,-22 380.237,-22"/>
<polygon fill="black" stroke="black" points="380.411,-25.5001 390.411,-22 380.411,-18.5001 380.411,-25.5001"/>
<text text-anchor="middle" x="369.1" y="-25.8" font-family="Times New Roman,serif" font-size="14.00">k</text>
</g>
<!-- 4&#45;&gt;4 -->
<g id="edge7" class="edge"><title>4&#45;&gt;4</title>
<path fill="none" stroke="black" d="M322.866,-39.0373C321.492,-48.8579 323.737,-58 329.6,-58 333.265,-58 335.516,-54.4289 336.353,-49.3529"/>
<polygon fill="black" stroke="black" points="339.852,-49.0307 336.334,-39.0373 332.852,-49.0439 339.852,-49.0307"/>
<text text-anchor="middle" x="329.6" y="-61.8" font-family="Times New Roman,serif" font-size="14.00">q</text>
</g>
</g>
</svg>
