<?xml version="1.0" encoding="UTF-8" standalone="no"?>
<!DOCTYPE svg PUBLIC "-//W3C//DTD SVG 1.1//EN"
 "http://www.w3.org/Graphics/SVG/1.1/DTD/svg11.dtd">
<!-- Generated by graphviz version 2.38.0 (20140413.2041)
 -->
<!-- Title: dfa Pages: 1 -->
<svg width="382pt" height="352pt"
 viewBox="0.00 0.00 381.60 351.55" xmlns="http://www.w3.org/2000/svg" xmlns:xlink="http://www.w3.org/1999/xlink">
<g id="graph0" class="graph" transform="scale(1 1) rotate(0) translate(4 347.547)">
<title>dfa</title>
<polygon fill="white" stroke="none" points="-4,4 -4,-347.547 377.6,-347.547 377.6,4 -4,4"/>
<!-- __start -->
<!-- 0 -->
<g id="node2" class="node"><title>0</title>
<ellipse fill="none" stroke="black" cx="86.6" cy="-150.547" rx="18" ry="18"/>
<ellipse fill="none" stroke="black" cx="86.6" cy="-150.547" rx="22" ry="22"/>
<text text-anchor="middle" x="86.6" y="-146.847" font-family="Times New Roman,serif" font-size="14.00">0</text>
</g>
<!-- __start&#45;&gt;0 -->
<g id="edge1" class="edge"><title>__start&#45;&gt;0</title>
<path fill="none" stroke="black" d="M3.72988,-150.547C8.77597,-150.547 33.4162,-150.547 54.3593,-150.547"/>
<polygon fill="black" stroke="black" points="54.5455,-154.047 64.5454,-150.547 54.5454,-147.047 54.5455,-154.047"/>
<text text-anchor="middle" x="34.1" y="-154.347" font-family="Times New Roman,serif" font-size="14.00">start</text>
</g>
<!-- 1 -->
<g id="node3" class="node"><title>1</title>
<ellipse fill="none" stroke="black" cx="177.6" cy="-205.547" rx="18" ry="18"/>
<ellipse fill="none" stroke="black" cx="177.6" cy="-205.547" rx="22" ry="22"/>
<text text-anchor="middle" x="177.6" y="-201.847" font-family="Times New Roman,serif" font-size="14.00">1</text>
</g>
<!-- 0&#45;&gt;1 -->
<g id="edge2" class="edge"><title>0&#45;&gt;1</title>
<path fill="none" stroke="black" d="M103.112,-165.461C109.961,-171.558 118.325,-178.378 126.6,-183.547 133.014,-187.554 140.285,-191.2 147.255,-194.32"/>
<polygon fill="black" stroke="black" points="145.893,-197.544 156.466,-198.234 148.631,-191.102 145.893,-197.544"/>
<text text-anchor="middle" x="132.1" y="-192.347" font-family="Times New Roman,serif" font-size="14.00">m</text>
</g>
<!-- 0&#45;&gt;1 -->
<g id="edge3" class="edge"><title>0&#45;&gt;1</title>
<path fill="none" stroke="black" d="M108.558,-153.8C117.917,-155.893 128.795,-159.249 137.6,-164.547 144.702,-168.821 151.359,-174.731 157.093,-180.735"/>
<polygon fill="black" stroke="black" points="154.555,-183.147 163.827,-188.274 159.776,-178.484 154.555,-183.147"/>
<text text-anchor="middle" x="132.1" y="-168.347" font-family="Times New Roman,serif" font-size="14.00">y</text>
</g>
<!-- 3 -->
<g id="node5" class="node"><title>3</title>
<ellipse fill="none" stroke="black" cx="268.6" cy="-135.547" rx="18" ry="18"/>
<ellipse fill="none" stroke="black" cx="268.6" cy="-135.547" rx="22" ry="22"/>
<text text-anchor="middle" x="268.6" y="-131.847" font-family="Times New Roman,serif" font-size="14.00">3</text>
</g>
<!-- 0&#45;&gt;3 -->
<g id="edge5" class="edge"><title>0&#45;&gt;3</title>
<path fill="none" stroke="black" d="M108.601,-148.797C140.084,-146.174 199.721,-141.204 236.335,-138.153"/>
<polygon fill="black" stroke="black" points="236.78,-141.628 246.455,-137.309 236.199,-134.652 236.78,-141.628"/>
<text text-anchor="middle" x="177.6" y="-148.347" font-family="Times New Roman,serif" font-size="14.00">s</text>
</g>
<!-- 4 -->
<g id="node6" class="node"><title>4</title>
<ellipse fill="none" stroke="black" cx="177.6" cy="-65.5472" rx="18" ry="18"/>
<text text-anchor="middle" x="177.6" y="-61.8472" font-family="Times New Roman,serif" font-size="14.00">4</text>
</g>
<!-- 0&#45;&gt;4 -->
<g id="edge4" class="edge"><title>0&#45;&gt;4</title>
<path fill="none" stroke="black" d="M100.997,-133.651C108.224,-124.918 117.508,-114.289 126.6,-105.547 135.223,-97.2566 145.432,-88.8681 154.369,-81.929"/>
<polygon fill="black" stroke="black" points="156.62,-84.6141 162.455,-75.7706 152.379,-79.0453 156.62,-84.6141"/>
<text text-anchor="middle" x="132.1" y="-109.347" font-family="Times New Roman,serif" font-size="14.00">i</text>
</g>
<!-- 2 -->
<g id="node4" class="node"><title>2</title>
<ellipse fill="none" stroke="black" cx="268.6" cy="-224.547" rx="18" ry="18"/>
<ellipse fill="none" stroke="black" cx="268.6" cy="-224.547" rx="22" ry="22"/>
<text text-anchor="middle" x="268.6" y="-220.847" font-family="Times New Roman,serif" font-size="14.00">2</text>
</g>
<!-- 1&#45;&gt;2 -->
<g id="edge6" class="edge"><title>1&#45;&gt;2</title>
<path fill="none" stroke="black" d="M197.63,-214.819C203.854,-217.451 210.893,-220.015 217.6,-221.547 223.574,-222.912 230.048,-223.753 236.294,-224.255"/>
<polygon fill="black" stroke="black" points="236.284,-227.759 246.461,-224.812 236.667,-220.77 236.284,-227.759"/>
<text text-anchor="middle" x="223.1" y="-226.347" font-family="Times New Roman,serif" font-size="14.00">m</text>
</g>
<!-- 1&#45;&gt;2 -->
<g id="edge7" class="edge"><title>1&#45;&gt;2</title>
<path fill="none" stroke="black" d="M199.321,-201.419C208.432,-200.338 219.18,-200.073 228.6,-202.547 232.829,-203.658 237.083,-205.343 241.146,-207.296"/>
<polygon fill="black" stroke="black" points="239.721,-210.504 250.18,-212.195 243.058,-204.351 239.721,-210.504"/>
<text text-anchor="middle" x="223.1" y="-206.347" font-family="Times New Roman,serif" font-size="14.00">y</text>
</g>
<!-- 1&#45;&gt;3 -->
<g id="edge9" class="edge"><title>1&#45;&gt;3</title>
<path fill="none" stroke="black" d="M195.34,-192.381C208.681,-181.888 227.563,-167.037 242.68,-155.147"/>
<polygon fill="black" stroke="black" points="244.936,-157.826 250.632,-148.893 240.608,-152.324 244.936,-157.826"/>
<text text-anchor="middle" x="223.1" y="-178.347" font-family="Times New Roman,serif" font-size="14.00">s</text>
</g>
<!-- 5 -->
<g id="node7" class="node"><title>5</title>
<ellipse fill="none" stroke="black" cx="355.6" cy="-154.547" rx="18" ry="18"/>
<text text-anchor="middle" x="355.6" y="-150.847" font-family="Times New Roman,serif" font-size="14.00">5</text>
</g>
<!-- 1&#45;&gt;5 -->
<g id="edge8" class="edge"><title>1&#45;&gt;5</title>
<path fill="none" stroke="black" d="M184.069,-226.938C192.393,-254.489 211.154,-301.238 246.6,-321.547 263.568,-331.269 274.487,-332.628 290.6,-321.547 336.201,-290.188 349.327,-221.54 353.094,-182.73"/>
<polygon fill="black" stroke="black" points="356.594,-182.885 353.928,-172.631 349.617,-182.309 356.594,-182.885"/>
<text text-anchor="middle" x="268.6" y="-332.347" font-family="Times New Roman,serif" font-size="14.00">i</text>
</g>
<!-- 2&#45;&gt;2 -->
<g id="edge10" class="edge"><title>2&#45;&gt;2</title>
<path fill="none" stroke="black" d="M264.539,-246.354C264.153,-256.11 265.506,-264.547 268.6,-264.547 270.534,-264.547 271.787,-261.251 272.361,-256.398"/>
<polygon fill="black" stroke="black" points="275.861,-256.454 272.661,-246.354 268.864,-256.245 275.861,-256.454"/>
<text text-anchor="middle" x="268.6" y="-268.347" font-family="Times New Roman,serif" font-size="14.00">m</text>
</g>
<!-- 2&#45;&gt;2 -->
<g id="edge11" class="edge"><title>2&#45;&gt;2</title>
<path fill="none" stroke="black" d="M261.66,-245.662C258.595,-263.643 260.909,-282.547 268.6,-282.547 274.849,-282.547 277.548,-270.067 276.697,-255.743"/>
<polygon fill="black" stroke="black" points="280.157,-255.197 275.54,-245.662 273.203,-255.995 280.157,-255.197"/>
<text text-anchor="middle" x="268.6" y="-286.347" font-family="Times New Roman,serif" font-size="14.00">y</text>
</g>
<!-- 2&#45;&gt;5 -->
<g id="edge12" class="edge"><title>2&#45;&gt;5</title>
<path fill="none" stroke="black" d="M287.892,-213.887C297.682,-207.84 309.722,-199.839 319.6,-191.547 325.334,-186.735 331.103,-181.059 336.256,-175.617"/>
<polygon fill="black" stroke="black" points="339.116,-177.677 343.292,-167.94 333.955,-172.948 339.116,-177.677"/>
<text text-anchor="middle" x="314.1" y="-203.347" font-family="Times New Roman,serif" font-size="14.00">i</text>
</g>
<!-- 2&#45;&gt;5 -->
<g id="edge13" class="edge"><title>2&#45;&gt;5</title>
<path fill="none" stroke="black" d="M290.569,-226.226C300.147,-225.996 311.201,-224.231 319.6,-218.547 332.471,-209.838 341.045,-194.771 346.484,-181.444"/>
<polygon fill="black" stroke="black" points="349.891,-182.32 350.051,-171.726 343.32,-179.907 349.891,-182.32"/>
<text text-anchor="middle" x="314.1" y="-226.347" font-family="Times New Roman,serif" font-size="14.00">s</text>
</g>
<!-- 3&#45;&gt;5 -->
<g id="edge18" class="edge"><title>3&#45;&gt;5</title>
<path fill="none" stroke="black" d="M288.635,-144.798C294.859,-147.429 301.897,-149.998 308.6,-151.547 314.594,-152.933 321.136,-153.757 327.357,-154.232"/>
<polygon fill="black" stroke="black" points="327.205,-157.729 337.369,-154.739 327.558,-150.738 327.205,-157.729"/>
<text text-anchor="middle" x="314.1" y="-156.347" font-family="Times New Roman,serif" font-size="14.00">m</text>
</g>
<!-- 3&#45;&gt;5 -->
<g id="edge19" class="edge"><title>3&#45;&gt;5</title>
<path fill="none" stroke="black" d="M290.38,-131.207C299.501,-130.087 310.241,-129.85 319.6,-132.547 324.065,-133.834 328.511,-135.877 332.661,-138.212"/>
<polygon fill="black" stroke="black" points="330.848,-141.207 341.168,-143.608 334.598,-135.296 330.848,-141.207"/>
<text text-anchor="middle" x="314.1" y="-136.347" font-family="Times New Roman,serif" font-size="14.00">y</text>
</g>
<!-- 3&#45;&gt;5 -->
<g id="edge20" class="edge"><title>3&#45;&gt;5</title>
<path fill="none" stroke="black" d="M284.904,-120.616C294.794,-112.843 307.947,-106.007 319.6,-111.547 328.098,-115.587 335.209,-122.811 340.753,-130.199"/>
<polygon fill="black" stroke="black" points="338.038,-132.432 346.532,-138.765 343.841,-128.518 338.038,-132.432"/>
<text text-anchor="middle" x="314.1" y="-115.347" font-family="Times New Roman,serif" font-size="14.00">i</text>
</g>
<!-- 3&#45;&gt;5 -->
<g id="edge21" class="edge"><title>3&#45;&gt;5</title>
<path fill="none" stroke="black" d="M282.902,-152.579C289.704,-159.899 298.645,-167.655 308.6,-171.547 316.183,-174.512 324.519,-172.89 331.988,-169.694"/>
<polygon fill="black" stroke="black" points="333.638,-172.781 340.862,-165.031 330.382,-166.584 333.638,-172.781"/>
<text text-anchor="middle" x="314.1" y="-176.347" font-family="Times New Roman,serif" font-size="14.00">s</text>
</g>
<!-- 4&#45;&gt;3 -->
<g id="edge17" class="edge"><title>4&#45;&gt;3</title>
<path fill="none" stroke="black" d="M192.506,-76.4847C205.912,-87.0284 226.497,-103.219 242.726,-115.984"/>
<polygon fill="black" stroke="black" points="240.731,-118.867 250.755,-122.298 245.059,-113.365 240.731,-118.867"/>
<text text-anchor="middle" x="223.1" y="-108.347" font-family="Times New Roman,serif" font-size="14.00">s</text>
</g>
<!-- 4&#45;&gt;5 -->
<g id="edge14" class="edge"><title>4&#45;&gt;5</title>
<path fill="none" stroke="black" d="M192.574,-55.2127C205.742,-46.1645 226.411,-33.6842 246.6,-28.5472 265.552,-23.7251 272.065,-22.3123 290.6,-28.5472 330.469,-41.9587 345.641,-93.9188 351.315,-126.78"/>
<polygon fill="black" stroke="black" points="347.862,-127.353 352.842,-136.705 354.78,-126.289 347.862,-127.353"/>
<text text-anchor="middle" x="268.6" y="-32.3472" font-family="Times New Roman,serif" font-size="14.00">m</text>
</g>
<!-- 4&#45;&gt;5 -->
<g id="edge15" class="edge"><title>4&#45;&gt;5</title>
<path fill="none" stroke="black" d="M189.277,-51.4079C201.334,-36.7348 222.448,-14.6791 246.6,-5.54725 264.892,1.36893 272.597,2.08916 290.6,-5.54725 336.482,-25.0092 349.512,-88.8038 353.185,-126.312"/>
<polygon fill="black" stroke="black" points="349.721,-126.901 354.022,-136.584 356.698,-126.332 349.721,-126.901"/>
<text text-anchor="middle" x="268.6" y="-9.34725" font-family="Times New Roman,serif" font-size="14.00">y</text>
</g>
<!-- 4&#45;&gt;5 -->
<g id="edge16" class="edge"><title>4&#45;&gt;5</title>
<path fill="none" stroke="black" d="M196.017,-65.7044C225.095,-66.8803 283.853,-73.2761 319.6,-104.547 327.768,-111.693 335.003,-121.124 340.744,-129.868"/>
<polygon fill="black" stroke="black" points="337.918,-131.953 346.162,-138.608 343.867,-128.264 337.918,-131.953"/>
<text text-anchor="middle" x="268.6" y="-90.3472" font-family="Times New Roman,serif" font-size="14.00">i</text>
</g>
<!-- 5&#45;&gt;5 -->
<g id="edge22" class="edge"><title>5&#45;&gt;5</title>
<path fill="none" stroke="black" d="M353.791,-172.7C353.513,-182.086 354.116,-190.547 355.6,-190.547 356.505,-190.547 357.082,-187.405 357.332,-182.827"/>
<polygon fill="black" stroke="black" points="360.833,-182.726 357.409,-172.7 353.833,-182.673 360.833,-182.726"/>
<text text-anchor="middle" x="355.6" y="-194.347" font-family="Times New Roman,serif" font-size="14.00">m</text>
</g>
<!-- 5&#45;&gt;5 -->
<g id="edge23" class="edge"><title>5&#45;&gt;5</title>
<path fill="none" stroke="black" d="M352.594,-172.525C350.985,-189.747 351.987,-208.547 355.6,-208.547 358.508,-208.547 359.724,-196.374 359.25,-182.645"/>
<polygon fill="black" stroke="black" points="362.734,-182.283 358.606,-172.525 355.749,-182.728 362.734,-182.283"/>
<text text-anchor="middle" x="355.6" y="-212.347" font-family="Times New Roman,serif" font-size="14.00">y</text>
</g>
<!-- 5&#45;&gt;5 -->
<g id="edge24" class="edge"><title>5&#45;&gt;5</title>
<path fill="none" stroke="black" d="M351.855,-172.263C348.434,-196.662 349.682,-226.547 355.6,-226.547 360.709,-226.547 362.338,-204.275 360.486,-182.487"/>
<polygon fill="black" stroke="black" points="363.933,-181.813 359.345,-172.263 356.976,-182.589 363.933,-181.813"/>
<text text-anchor="middle" x="355.6" y="-230.347" font-family="Times New Roman,serif" font-size="14.00">i</text>
</g>
<!-- 5&#45;&gt;5 -->
<g id="edge25" class="edge"><title>5&#45;&gt;5</title>
<path fill="none" stroke="black" d="M351.33,-172.218C345.895,-203.4 347.319,-244.547 355.6,-244.547 363.008,-244.547 364.928,-211.622 361.361,-182.357"/>
<polygon fill="black" stroke="black" points="364.788,-181.602 359.87,-172.218 357.862,-182.621 364.788,-181.602"/>
<text text-anchor="middle" x="355.6" y="-248.347" font-family="Times New Roman,serif" font-size="14.00">s</text>
</g>
</g>
</svg>
