<?xml version="1.0" encoding="UTF-8" standalone="no"?>
<!DOCTYPE svg PUBLIC "-//W3C//DTD SVG 1.1//EN"
 "http://www.w3.org/Graphics/SVG/1.1/DTD/svg11.dtd">
<!-- Generated by graphviz version 2.38.0 (20140413.2041)
 -->
<!-- Title: enfa Pages: 1 -->
<svg width="1112pt" height="382pt"
 viewBox="0.00 0.00 1111.56 382.50" xmlns="http://www.w3.org/2000/svg" xmlns:xlink="http://www.w3.org/1999/xlink">
<g id="graph0" class="graph" transform="scale(1 1) rotate(0) translate(4 378.498)">
<title>enfa</title>
<polygon fill="white" stroke="none" points="-4,4 -4,-378.498 1107.56,-378.498 1107.56,4 -4,4"/>
<!-- __start -->
<!-- 0 -->
<g id="node2" class="node"><title>0</title>
<ellipse fill="none" stroke="black" cx="82.6" cy="-196.498" rx="18" ry="18"/>
<text text-anchor="middle" x="82.6" y="-192.798" font-family="Times New Roman,serif" font-size="14.00">0</text>
</g>
<!-- __start&#45;&gt;0 -->
<g id="edge1" class="edge"><title>__start&#45;&gt;0</title>
<path fill="none" stroke="black" d="M3.68496,-196.498C8.69573,-196.498 34.008,-196.498 54.4423,-196.498"/>
<polygon fill="black" stroke="black" points="54.5501,-199.998 64.5501,-196.498 54.5501,-192.998 54.5501,-199.998"/>
<text text-anchor="middle" x="34.1" y="-200.298" font-family="Times New Roman,serif" font-size="14.00">start</text>
</g>
<!-- 8 -->
<g id="node10" class="node"><title>8</title>
<ellipse fill="none" stroke="black" cx="163.098" cy="-222.498" rx="18" ry="18"/>
<text text-anchor="middle" x="163.098" y="-218.798" font-family="Times New Roman,serif" font-size="14.00">8</text>
</g>
<!-- 0&#45;&gt;8 -->
<g id="edge30" class="edge"><title>0&#45;&gt;8</title>
<path fill="none" stroke="black" d="M99.8649,-201.885C110.39,-205.372 124.32,-209.985 136.332,-213.964"/>
<polygon fill="black" stroke="black" points="135.261,-217.296 145.854,-217.118 137.462,-210.651 135.261,-217.296"/>
<text text-anchor="middle" x="122.1" y="-214.298" font-family="Times New Roman,serif" font-size="14.00">ε</text>
</g>
<!-- 22 -->
<g id="node24" class="node"><title>22</title>
<ellipse fill="none" stroke="black" cx="163.098" cy="-167.498" rx="19.4965" ry="19.4965"/>
<text text-anchor="middle" x="163.098" y="-163.798" font-family="Times New Roman,serif" font-size="14.00">22</text>
</g>
<!-- 0&#45;&gt;22 -->
<g id="edge31" class="edge"><title>0&#45;&gt;22</title>
<path fill="none" stroke="black" d="M99.8649,-190.489C109.937,-186.768 123.128,-181.895 134.772,-177.593"/>
<polygon fill="black" stroke="black" points="136.322,-180.752 144.489,-174.004 133.896,-174.186 136.322,-180.752"/>
<text text-anchor="middle" x="122.1" y="-187.298" font-family="Times New Roman,serif" font-size="14.00">ε</text>
</g>
<!-- 1 -->
<g id="node3" class="node"><title>1</title>
<ellipse fill="none" stroke="black" cx="1081.56" cy="-200.498" rx="18" ry="18"/>
<ellipse fill="none" stroke="black" cx="1081.56" cy="-200.498" rx="22" ry="22"/>
<text text-anchor="middle" x="1081.56" y="-196.798" font-family="Times New Roman,serif" font-size="14.00">1</text>
</g>
<!-- 2 -->
<g id="node4" class="node"><title>2</title>
<ellipse fill="none" stroke="black" cx="359.088" cy="-356.498" rx="18" ry="18"/>
<text text-anchor="middle" x="359.088" y="-352.798" font-family="Times New Roman,serif" font-size="14.00">2</text>
</g>
<!-- 3 -->
<g id="node5" class="node"><title>3</title>
<ellipse fill="none" stroke="black" cx="473.081" cy="-356.498" rx="18" ry="18"/>
<text text-anchor="middle" x="473.081" y="-352.798" font-family="Times New Roman,serif" font-size="14.00">3</text>
</g>
<!-- 2&#45;&gt;3 -->
<g id="edge2" class="edge"><title>2&#45;&gt;3</title>
<path fill="none" stroke="black" d="M377.097,-356.498C395.022,-356.498 423.529,-356.498 444.641,-356.498"/>
<polygon fill="black" stroke="black" points="444.912,-359.998 454.912,-356.498 444.912,-352.998 444.912,-359.998"/>
<text text-anchor="middle" x="416.084" y="-360.298" font-family="Times New Roman,serif" font-size="14.00">m</text>
</g>
<!-- 7 -->
<g id="node9" class="node"><title>7</title>
<ellipse fill="none" stroke="black" cx="587.074" cy="-279.498" rx="18" ry="18"/>
<text text-anchor="middle" x="587.074" y="-275.798" font-family="Times New Roman,serif" font-size="14.00">7</text>
</g>
<!-- 3&#45;&gt;7 -->
<g id="edge6" class="edge"><title>3&#45;&gt;7</title>
<path fill="none" stroke="black" d="M489.764,-348.923C505.501,-341.015 530.13,-327.792 549.576,-313.498 555.389,-309.225 561.284,-304.132 566.592,-299.206"/>
<polygon fill="black" stroke="black" points="569.078,-301.671 573.871,-292.222 564.232,-296.62 569.078,-301.671"/>
<text text-anchor="middle" x="530.078" y="-341.298" font-family="Times New Roman,serif" font-size="14.00">ε</text>
</g>
<!-- 4 -->
<g id="node6" class="node"><title>4</title>
<ellipse fill="none" stroke="black" cx="359.088" cy="-302.498" rx="18" ry="18"/>
<text text-anchor="middle" x="359.088" y="-298.798" font-family="Times New Roman,serif" font-size="14.00">4</text>
</g>
<!-- 5 -->
<g id="node7" class="node"><title>5</title>
<ellipse fill="none" stroke="black" cx="473.081" cy="-302.498" rx="18" ry="18"/>
<text text-anchor="middle" x="473.081" y="-298.798" font-family="Times New Roman,serif" font-size="14.00">5</text>
</g>
<!-- 4&#45;&gt;5 -->
<g id="edge3" class="edge"><title>4&#45;&gt;5</title>
<path fill="none" stroke="black" d="M377.097,-302.498C395.022,-302.498 423.529,-302.498 444.641,-302.498"/>
<polygon fill="black" stroke="black" points="444.912,-305.998 454.912,-302.498 444.912,-298.998 444.912,-305.998"/>
<text text-anchor="middle" x="416.084" y="-306.298" font-family="Times New Roman,serif" font-size="14.00">y</text>
</g>
<!-- 5&#45;&gt;7 -->
<g id="edge7" class="edge"><title>5&#45;&gt;7</title>
<path fill="none" stroke="black" d="M491.09,-299.005C509.202,-295.285 538.117,-289.347 559.292,-284.999"/>
<polygon fill="black" stroke="black" points="560.18,-288.389 569.272,-282.949 558.772,-281.532 560.18,-288.389"/>
<text text-anchor="middle" x="530.078" y="-298.298" font-family="Times New Roman,serif" font-size="14.00">ε</text>
</g>
<!-- 6 -->
<g id="node8" class="node"><title>6</title>
<ellipse fill="none" stroke="black" cx="245.095" cy="-279.498" rx="18" ry="18"/>
<text text-anchor="middle" x="245.095" y="-275.798" font-family="Times New Roman,serif" font-size="14.00">6</text>
</g>
<!-- 6&#45;&gt;2 -->
<g id="edge4" class="edge"><title>6&#45;&gt;2</title>
<path fill="none" stroke="black" d="M257.888,-292.325C264.714,-299.346 273.695,-307.927 282.593,-314.498 298.429,-326.192 317.871,-336.935 333.059,-344.629"/>
<polygon fill="black" stroke="black" points="331.83,-347.925 342.345,-349.223 334.934,-341.651 331.83,-347.925"/>
<text text-anchor="middle" x="302.091" y="-343.298" font-family="Times New Roman,serif" font-size="14.00">ε</text>
</g>
<!-- 6&#45;&gt;4 -->
<g id="edge5" class="edge"><title>6&#45;&gt;4</title>
<path fill="none" stroke="black" d="M263.104,-282.991C281.216,-286.711 310.131,-292.649 331.306,-296.998"/>
<polygon fill="black" stroke="black" points="330.786,-300.464 341.285,-299.048 332.194,-293.607 330.786,-300.464"/>
<text text-anchor="middle" x="302.091" y="-299.298" font-family="Times New Roman,serif" font-size="14.00">ε</text>
</g>
<!-- 7&#45;&gt;6 -->
<g id="edge10" class="edge"><title>7&#45;&gt;6</title>
<path fill="none" stroke="black" d="M568.849,-278.54C550.096,-277.549 519.218,-276.068 492.579,-275.498 424.599,-274.045 407.569,-274.045 339.59,-275.498 317.322,-275.974 292.091,-277.088 273.457,-278.019"/>
<polygon fill="black" stroke="black" points="273.127,-274.531 263.32,-278.54 273.486,-281.522 273.127,-274.531"/>
<text text-anchor="middle" x="416.084" y="-279.298" font-family="Times New Roman,serif" font-size="14.00">ε</text>
</g>
<!-- 9 -->
<g id="node11" class="node"><title>9</title>
<ellipse fill="none" stroke="black" cx="669.071" cy="-219.498" rx="18" ry="18"/>
<text text-anchor="middle" x="669.071" y="-215.798" font-family="Times New Roman,serif" font-size="14.00">9</text>
</g>
<!-- 7&#45;&gt;9 -->
<g id="edge11" class="edge"><title>7&#45;&gt;9</title>
<path fill="none" stroke="black" d="M602.008,-269.047C614.168,-259.927 632.019,-246.538 646.1,-235.977"/>
<polygon fill="black" stroke="black" points="648.396,-238.63 654.296,-229.83 644.196,-233.03 648.396,-238.63"/>
<text text-anchor="middle" x="628.072" y="-255.298" font-family="Times New Roman,serif" font-size="14.00">ε</text>
</g>
<!-- 8&#45;&gt;6 -->
<g id="edge8" class="edge"><title>8&#45;&gt;6</title>
<path fill="none" stroke="black" d="M178.4,-232.689C190.345,-241.2 207.591,-253.488 221.416,-263.339"/>
<polygon fill="black" stroke="black" points="219.742,-266.444 229.917,-269.396 223.804,-260.743 219.742,-266.444"/>
<text text-anchor="middle" x="204.097" y="-257.298" font-family="Times New Roman,serif" font-size="14.00">ε</text>
</g>
<!-- 8&#45;&gt;9 -->
<g id="edge9" class="edge"><title>8&#45;&gt;9</title>
<path fill="none" stroke="black" d="M181.251,-221.144C197.442,-219.984 222.402,-218.498 244.095,-218.498 244.095,-218.498 244.095,-218.498 588.074,-218.498 605.51,-218.498 625.081,-218.739 640.501,-218.984"/>
<polygon fill="black" stroke="black" points="640.848,-222.49 650.906,-219.16 640.967,-215.491 640.848,-222.49"/>
<text text-anchor="middle" x="416.084" y="-222.298" font-family="Times New Roman,serif" font-size="14.00">ε</text>
</g>
<!-- 9&#45;&gt;1 -->
<g id="edge32" class="edge"><title>9&#45;&gt;1</title>
<path fill="none" stroke="black" d="M687.236,-219.498C703.435,-219.498 728.401,-219.498 750.067,-219.498 750.067,-219.498 750.067,-219.498 998.057,-219.498 1015.9,-219.498 1035.37,-215.225 1050.92,-210.732"/>
<polygon fill="black" stroke="black" points="1051.98,-214.069 1060.51,-207.79 1049.92,-207.376 1051.98,-214.069"/>
<text text-anchor="middle" x="874.062" y="-223.298" font-family="Times New Roman,serif" font-size="14.00">ε</text>
</g>
<!-- 10 -->
<g id="node12" class="node"><title>10</title>
<ellipse fill="none" stroke="black" cx="302.091" cy="-172.498" rx="19.4965" ry="19.4965"/>
<text text-anchor="middle" x="302.091" y="-168.798" font-family="Times New Roman,serif" font-size="14.00">10</text>
</g>
<!-- 11 -->
<g id="node13" class="node"><title>11</title>
<ellipse fill="none" stroke="black" cx="416.084" cy="-173.498" rx="19.4965" ry="19.4965"/>
<text text-anchor="middle" x="416.084" y="-169.798" font-family="Times New Roman,serif" font-size="14.00">11</text>
</g>
<!-- 10&#45;&gt;11 -->
<g id="edge12" class="edge"><title>10&#45;&gt;11</title>
<path fill="none" stroke="black" d="M321.836,-172.666C339.36,-172.822 365.792,-173.058 386.045,-173.239"/>
<polygon fill="black" stroke="black" points="386.247,-176.741 396.278,-173.33 386.31,-169.741 386.247,-176.741"/>
<text text-anchor="middle" x="359.088" y="-177.298" font-family="Times New Roman,serif" font-size="14.00">ε</text>
</g>
<!-- 23 -->
<g id="node25" class="node"><title>23</title>
<ellipse fill="none" stroke="black" cx="833.064" cy="-172.498" rx="19.4965" ry="19.4965"/>
<text text-anchor="middle" x="833.064" y="-168.798" font-family="Times New Roman,serif" font-size="14.00">23</text>
</g>
<!-- 11&#45;&gt;23 -->
<g id="edge26" class="edge"><title>11&#45;&gt;23</title>
<path fill="none" stroke="black" d="M435.711,-173.498C457.936,-173.498 496.218,-173.498 529.078,-173.498 529.078,-173.498 529.078,-173.498 752.067,-173.498 768.944,-173.498 787.822,-173.273 802.999,-173.036"/>
<polygon fill="black" stroke="black" points="803.374,-176.531 813.315,-172.865 803.258,-169.532 803.374,-176.531"/>
<text text-anchor="middle" x="628.072" y="-177.298" font-family="Times New Roman,serif" font-size="14.00">ε</text>
</g>
<!-- 12 -->
<g id="node14" class="node"><title>12</title>
<ellipse fill="none" stroke="black" cx="359.088" cy="-119.498" rx="19.4965" ry="19.4965"/>
<text text-anchor="middle" x="359.088" y="-115.798" font-family="Times New Roman,serif" font-size="14.00">12</text>
</g>
<!-- 13 -->
<g id="node15" class="node"><title>13</title>
<ellipse fill="none" stroke="black" cx="530.078" cy="-123.498" rx="19.4965" ry="19.4965"/>
<text text-anchor="middle" x="530.078" y="-119.798" font-family="Times New Roman,serif" font-size="14.00">13</text>
</g>
<!-- 12&#45;&gt;13 -->
<g id="edge13" class="edge"><title>12&#45;&gt;13</title>
<path fill="none" stroke="black" d="M378.818,-119.942C408.207,-120.637 465.374,-121.99 500.099,-122.812"/>
<polygon fill="black" stroke="black" points="500.441,-126.321 510.521,-123.059 500.606,-119.323 500.441,-126.321"/>
<text text-anchor="middle" x="416.084" y="-125.298" font-family="Times New Roman,serif" font-size="14.00">y</text>
</g>
<!-- 21 -->
<g id="node23" class="node"><title>21</title>
<ellipse fill="none" stroke="black" cx="751.067" cy="-123.498" rx="19.4965" ry="19.4965"/>
<text text-anchor="middle" x="751.067" y="-119.798" font-family="Times New Roman,serif" font-size="14.00">21</text>
</g>
<!-- 13&#45;&gt;21 -->
<g id="edge22" class="edge"><title>13&#45;&gt;21</title>
<path fill="none" stroke="black" d="M549.748,-123.498C588.051,-123.498 675.737,-123.498 721.335,-123.498"/>
<polygon fill="black" stroke="black" points="721.443,-126.998 731.443,-123.498 721.443,-119.998 721.443,-126.998"/>
<text text-anchor="middle" x="628.072" y="-127.298" font-family="Times New Roman,serif" font-size="14.00">ε</text>
</g>
<!-- 14 -->
<g id="node16" class="node"><title>14</title>
<ellipse fill="none" stroke="black" cx="473.081" cy="-76.4983" rx="19.4965" ry="19.4965"/>
<text text-anchor="middle" x="473.081" y="-72.7983" font-family="Times New Roman,serif" font-size="14.00">14</text>
</g>
<!-- 15 -->
<g id="node17" class="node"><title>15</title>
<ellipse fill="none" stroke="black" cx="587.074" cy="-76.4983" rx="19.4965" ry="19.4965"/>
<text text-anchor="middle" x="587.074" y="-72.7983" font-family="Times New Roman,serif" font-size="14.00">15</text>
</g>
<!-- 14&#45;&gt;15 -->
<g id="edge14" class="edge"><title>14&#45;&gt;15</title>
<path fill="none" stroke="black" d="M492.826,-76.4983C510.35,-76.4983 536.782,-76.4983 557.034,-76.4983"/>
<polygon fill="black" stroke="black" points="557.268,-79.9984 567.268,-76.4983 557.268,-72.9984 557.268,-79.9984"/>
<text text-anchor="middle" x="530.078" y="-80.2983" font-family="Times New Roman,serif" font-size="14.00">m</text>
</g>
<!-- 19 -->
<g id="node21" class="node"><title>19</title>
<ellipse fill="none" stroke="black" cx="669.071" cy="-76.4983" rx="19.4965" ry="19.4965"/>
<text text-anchor="middle" x="669.071" y="-72.7983" font-family="Times New Roman,serif" font-size="14.00">19</text>
</g>
<!-- 15&#45;&gt;19 -->
<g id="edge18" class="edge"><title>15&#45;&gt;19</title>
<path fill="none" stroke="black" d="M606.628,-76.4983C616.251,-76.4983 628.226,-76.4983 639.042,-76.4983"/>
<polygon fill="black" stroke="black" points="639.34,-79.9984 649.34,-76.4983 639.34,-72.9984 639.34,-79.9984"/>
<text text-anchor="middle" x="628.072" y="-80.2983" font-family="Times New Roman,serif" font-size="14.00">ε</text>
</g>
<!-- 16 -->
<g id="node18" class="node"><title>16</title>
<ellipse fill="none" stroke="black" cx="473.081" cy="-19.4983" rx="19.4965" ry="19.4965"/>
<text text-anchor="middle" x="473.081" y="-15.7983" font-family="Times New Roman,serif" font-size="14.00">16</text>
</g>
<!-- 17 -->
<g id="node19" class="node"><title>17</title>
<ellipse fill="none" stroke="black" cx="587.074" cy="-19.4983" rx="19.4965" ry="19.4965"/>
<text text-anchor="middle" x="587.074" y="-15.7983" font-family="Times New Roman,serif" font-size="14.00">17</text>
</g>
<!-- 16&#45;&gt;17 -->
<g id="edge15" class="edge"><title>16&#45;&gt;17</title>
<path fill="none" stroke="black" d="M492.826,-19.4983C510.35,-19.4983 536.782,-19.4983 557.034,-19.4983"/>
<polygon fill="black" stroke="black" points="557.268,-22.9984 567.268,-19.4983 557.268,-15.9984 557.268,-22.9984"/>
<text text-anchor="middle" x="530.078" y="-23.2983" font-family="Times New Roman,serif" font-size="14.00">i</text>
</g>
<!-- 17&#45;&gt;19 -->
<g id="edge19" class="edge"><title>17&#45;&gt;19</title>
<path fill="none" stroke="black" d="M603.498,-30.4884C615.118,-38.7682 631.256,-50.2671 644.492,-59.6978"/>
<polygon fill="black" stroke="black" points="642.519,-62.5893 652.694,-65.5418 646.581,-56.8884 642.519,-62.5893"/>
<text text-anchor="middle" x="628.072" y="-54.2983" font-family="Times New Roman,serif" font-size="14.00">ε</text>
</g>
<!-- 18 -->
<g id="node20" class="node"><title>18</title>
<ellipse fill="none" stroke="black" cx="359.088" cy="-62.4983" rx="19.4965" ry="19.4965"/>
<text text-anchor="middle" x="359.088" y="-58.7983" font-family="Times New Roman,serif" font-size="14.00">18</text>
</g>
<!-- 18&#45;&gt;14 -->
<g id="edge16" class="edge"><title>18&#45;&gt;14</title>
<path fill="none" stroke="black" d="M378.581,-64.8101C396.252,-67.019 423.143,-70.3807 443.558,-72.9327"/>
<polygon fill="black" stroke="black" points="443.203,-76.4155 453.56,-74.183 444.072,-69.4695 443.203,-76.4155"/>
<text text-anchor="middle" x="416.084" y="-76.2983" font-family="Times New Roman,serif" font-size="14.00">ε</text>
</g>
<!-- 18&#45;&gt;16 -->
<g id="edge17" class="edge"><title>18&#45;&gt;16</title>
<path fill="none" stroke="black" d="M377.587,-55.7795C395.668,-48.8373 424.128,-37.9099 445.093,-29.8603"/>
<polygon fill="black" stroke="black" points="446.624,-33.0217 454.705,-26.1698 444.115,-26.4869 446.624,-33.0217"/>
<text text-anchor="middle" x="416.084" y="-51.2983" font-family="Times New Roman,serif" font-size="14.00">ε</text>
</g>
<!-- 19&#45;&gt;21 -->
<g id="edge23" class="edge"><title>19&#45;&gt;21</title>
<path fill="none" stroke="black" d="M687.962,-82.6074C696.035,-85.6868 705.539,-89.7731 713.569,-94.4983 718.451,-97.3714 723.393,-100.842 727.996,-104.367"/>
<polygon fill="black" stroke="black" points="725.841,-107.126 735.83,-110.657 730.223,-101.667 725.841,-107.126"/>
<text text-anchor="middle" x="710.069" y="-98.2983" font-family="Times New Roman,serif" font-size="14.00">ε</text>
</g>
<!-- 20 -->
<g id="node22" class="node"><title>20</title>
<ellipse fill="none" stroke="black" cx="245.095" cy="-119.498" rx="19.4965" ry="19.4965"/>
<text text-anchor="middle" x="245.095" y="-115.798" font-family="Times New Roman,serif" font-size="14.00">20</text>
</g>
<!-- 20&#45;&gt;12 -->
<g id="edge20" class="edge"><title>20&#45;&gt;12</title>
<path fill="none" stroke="black" d="M264.84,-119.498C282.364,-119.498 308.795,-119.498 329.048,-119.498"/>
<polygon fill="black" stroke="black" points="329.282,-122.998 339.282,-119.498 329.282,-115.998 329.282,-122.998"/>
<text text-anchor="middle" x="302.091" y="-123.298" font-family="Times New Roman,serif" font-size="14.00">ε</text>
</g>
<!-- 20&#45;&gt;18 -->
<g id="edge21" class="edge"><title>20&#45;&gt;18</title>
<path fill="none" stroke="black" d="M262.786,-110.748C268.995,-107.509 276.107,-103.819 282.593,-100.498 299.093,-92.0513 317.693,-82.6875 332.302,-75.3687"/>
<polygon fill="black" stroke="black" points="333.886,-78.4895 341.263,-70.8847 330.754,-72.2294 333.886,-78.4895"/>
<text text-anchor="middle" x="302.091" y="-104.298" font-family="Times New Roman,serif" font-size="14.00">ε</text>
</g>
<!-- 21&#45;&gt;23 -->
<g id="edge27" class="edge"><title>21&#45;&gt;23</title>
<path fill="none" stroke="black" d="M769.435,-130.893C777.575,-134.606 787.283,-139.397 795.565,-144.498 800.206,-147.357 804.967,-150.682 809.453,-154.02"/>
<polygon fill="black" stroke="black" points="807.585,-157 817.64,-160.34 811.863,-151.459 807.585,-157"/>
<text text-anchor="middle" x="792.065" y="-148.298" font-family="Times New Roman,serif" font-size="14.00">ε</text>
</g>
<!-- 22&#45;&gt;10 -->
<g id="edge24" class="edge"><title>22&#45;&gt;10</title>
<path fill="none" stroke="black" d="M182.859,-168.183C205.917,-169.025 245.287,-170.462 272.212,-171.444"/>
<polygon fill="black" stroke="black" points="272.436,-174.955 282.557,-171.822 272.691,-167.959 272.436,-174.955"/>
<text text-anchor="middle" x="204.097" y="-173.298" font-family="Times New Roman,serif" font-size="14.00">ε</text>
</g>
<!-- 22&#45;&gt;20 -->
<g id="edge25" class="edge"><title>22&#45;&gt;20</title>
<path fill="none" stroke="black" d="M176.799,-153.019C183.34,-146.298 191.783,-138.67 200.597,-133.498 205.35,-130.709 210.726,-128.403 216.038,-126.522"/>
<polygon fill="black" stroke="black" points="217.488,-129.737 225.991,-123.417 215.403,-123.054 217.488,-129.737"/>
<text text-anchor="middle" x="204.097" y="-137.298" font-family="Times New Roman,serif" font-size="14.00">ε</text>
</g>
<!-- 24 -->
<g id="node26" class="node"><title>24</title>
<ellipse fill="none" stroke="black" cx="915.06" cy="-172.498" rx="19.4965" ry="19.4965"/>
<text text-anchor="middle" x="915.06" y="-168.798" font-family="Times New Roman,serif" font-size="14.00">24</text>
</g>
<!-- 23&#45;&gt;24 -->
<g id="edge29" class="edge"><title>23&#45;&gt;24</title>
<path fill="none" stroke="black" d="M852.618,-172.498C862.241,-172.498 874.216,-172.498 885.031,-172.498"/>
<polygon fill="black" stroke="black" points="885.33,-175.998 895.33,-172.498 885.33,-168.998 885.33,-175.998"/>
<text text-anchor="middle" x="874.062" y="-176.298" font-family="Times New Roman,serif" font-size="14.00">ε</text>
</g>
<!-- 25 -->
<g id="node27" class="node"><title>25</title>
<ellipse fill="none" stroke="black" cx="997.057" cy="-172.498" rx="19.4965" ry="19.4965"/>
<text text-anchor="middle" x="997.057" y="-168.798" font-family="Times New Roman,serif" font-size="14.00">25</text>
</g>
<!-- 24&#45;&gt;25 -->
<g id="edge28" class="edge"><title>24&#45;&gt;25</title>
<path fill="none" stroke="black" d="M934.614,-172.498C944.238,-172.498 956.212,-172.498 967.028,-172.498"/>
<polygon fill="black" stroke="black" points="967.326,-175.998 977.326,-172.498 967.326,-168.998 967.326,-175.998"/>
<text text-anchor="middle" x="956.058" y="-176.298" font-family="Times New Roman,serif" font-size="14.00">s</text>
</g>
<!-- 25&#45;&gt;1 -->
<g id="edge33" class="edge"><title>25&#45;&gt;1</title>
<path fill="none" stroke="black" d="M1015.96,-178.574C1026.07,-182.007 1038.98,-186.389 1050.6,-190.331"/>
<polygon fill="black" stroke="black" points="1049.78,-193.748 1060.37,-193.648 1052.03,-187.119 1049.78,-193.748"/>
<text text-anchor="middle" x="1038.06" y="-190.298" font-family="Times New Roman,serif" font-size="14.00">ε</text>
</g>
</g>
</svg>
