<?xml version="1.0" encoding="UTF-8" standalone="no"?>
<!DOCTYPE svg PUBLIC "-//W3C//DTD SVG 1.1//EN"
 "http://www.w3.org/Graphics/SVG/1.1/DTD/svg11.dtd">
<!-- Generated by graphviz version 2.38.0 (20140413.2041)
 -->
<!-- Title: dfa Pages: 1 -->
<svg width="1196pt" height="706pt"
 viewBox="0.00 0.00 1195.82 706.28" xmlns="http://www.w3.org/2000/svg" xmlns:xlink="http://www.w3.org/1999/xlink">
<g id="graph0" class="graph" transform="scale(1 1) rotate(0) translate(4 702.284)">
<title>dfa</title>
<polygon fill="white" stroke="none" points="-4,4 -4,-702.284 1191.82,-702.284 1191.82,4 -4,4"/>
<!-- __start -->
<!-- {0,1,10,11,12,14,16,18,2,20,22,23,24,4,6,8,9} -->
<g id="node2" class="node"><title>{0,1,10,11,12,14,16,18,2,20,22,23,24,4,6,8,9}</title>
<ellipse fill="none" stroke="black" cx="245.384" cy="-220.443" rx="176.574" ry="176.574"/>
<ellipse fill="none" stroke="black" cx="245.384" cy="-220.443" rx="180.569" ry="180.569"/>
<text text-anchor="middle" x="245.384" y="-216.743" font-family="Times New Roman,serif" font-size="14.00">{0,1,10,11,12,14,16,18,2,20,22,23,24,4,6,8,9}</text>
</g>
<!-- __start&#45;&gt;{0,1,10,11,12,14,16,18,2,20,22,23,24,4,6,8,9} -->
<g id="edge1" class="edge"><title>__start&#45;&gt;{0,1,10,11,12,14,16,18,2,20,22,23,24,4,6,8,9}</title>
<path fill="none" stroke="black" d="M3.87709,-220.443C8.55548,-220.443 28.0531,-220.443 54.0767,-220.443"/>
<polygon fill="black" stroke="black" points="54.3528,-223.944 64.3528,-220.443 54.3527,-216.944 54.3528,-223.944"/>
<text text-anchor="middle" x="34.1" y="-224.243" font-family="Times New Roman,serif" font-size="14.00">start</text>
</g>
<!-- {1,15,19,2,21,23,24,3,4,6,7,9} -->
<g id="node3" class="node"><title>{1,15,19,2,21,23,24,3,4,6,7,9}</title>
<ellipse fill="none" stroke="black" cx="598.058" cy="-327.443" rx="120.782" ry="120.782"/>
<ellipse fill="none" stroke="black" cx="598.058" cy="-327.443" rx="124.779" ry="124.779"/>
<text text-anchor="middle" x="598.058" y="-323.743" font-family="Times New Roman,serif" font-size="14.00">{1,15,19,2,21,23,24,3,4,6,7,9}</text>
</g>
<!-- {0,1,10,11,12,14,16,18,2,20,22,23,24,4,6,8,9}&#45;&gt;{1,15,19,2,21,23,24,3,4,6,7,9} -->
<g id="edge2" class="edge"><title>{0,1,10,11,12,14,16,18,2,20,22,23,24,4,6,8,9}&#45;&gt;{1,15,19,2,21,23,24,3,4,6,7,9}</title>
<path fill="none" stroke="black" d="M418.639,-273.003C435.58,-278.172 452.559,-283.353 468.944,-288.352"/>
<polygon fill="black" stroke="black" points="467.931,-291.703 478.517,-291.274 469.974,-285.007 467.931,-291.703"/>
<text text-anchor="middle" x="449.669" y="-288.243" font-family="Times New Roman,serif" font-size="14.00">m</text>
</g>
<!-- {1,13,2,21,23,24,4,5,6,7,9} -->
<g id="node5" class="node"><title>{1,13,2,21,23,24,4,5,6,7,9}</title>
<ellipse fill="none" stroke="black" cx="598.058" cy="-584.443" rx="109.686" ry="109.686"/>
<ellipse fill="none" stroke="black" cx="598.058" cy="-584.443" rx="113.681" ry="113.681"/>
<text text-anchor="middle" x="598.058" y="-580.743" font-family="Times New Roman,serif" font-size="14.00">{1,13,2,21,23,24,4,5,6,7,9}</text>
</g>
<!-- {0,1,10,11,12,14,16,18,2,20,22,23,24,4,6,8,9}&#45;&gt;{1,13,2,21,23,24,4,5,6,7,9} -->
<g id="edge3" class="edge"><title>{0,1,10,11,12,14,16,18,2,20,22,23,24,4,6,8,9}&#45;&gt;{1,13,2,21,23,24,4,5,6,7,9}</title>
<path fill="none" stroke="black" d="M369.167,-352.544C402.657,-388.129 439.103,-426.453 473.169,-461.443 484.745,-473.334 497.037,-485.765 509.209,-497.961"/>
<polygon fill="black" stroke="black" points="506.809,-500.512 516.355,-505.109 511.76,-495.563 506.809,-500.512"/>
<text text-anchor="middle" x="449.669" y="-446.243" font-family="Times New Roman,serif" font-size="14.00">y</text>
</g>
<!-- {1,25} -->
<g id="node6" class="node"><title>{1,25}</title>
<ellipse fill="none" stroke="black" cx="1032.83" cy="-190.443" rx="35.1841" ry="35.1841"/>
<ellipse fill="none" stroke="black" cx="1032.83" cy="-190.443" rx="39.194" ry="39.194"/>
<text text-anchor="middle" x="1032.83" y="-186.743" font-family="Times New Roman,serif" font-size="14.00">{1,25}</text>
</g>
<!-- {0,1,10,11,12,14,16,18,2,20,22,23,24,4,6,8,9}&#45;&gt;{1,25} -->
<g id="edge5" class="edge"><title>{0,1,10,11,12,14,16,18,2,20,22,23,24,4,6,8,9}&#45;&gt;{1,25}</title>
<path fill="none" stroke="black" d="M424.789,-197.283C441.124,-195.743 457.438,-194.419 473.169,-193.443 661.607,-181.758 886.48,-186.109 983.429,-188.865"/>
<polygon fill="black" stroke="black" points="983.411,-192.366 993.509,-189.159 983.615,-185.369 983.411,-192.366"/>
<text text-anchor="middle" x="746.447" y="-190.243" font-family="Times New Roman,serif" font-size="14.00">s</text>
</g>
<!-- {17,19,21,23,24} -->
<g id="node8" class="node"><title>{17,19,21,23,24}</title>
<ellipse fill="none" stroke="black" cx="843.391" cy="-73.4435" rx="73.387" ry="73.387"/>
<text text-anchor="middle" x="843.391" y="-69.7435" font-family="Times New Roman,serif" font-size="14.00">{17,19,21,23,24}</text>
</g>
<!-- {0,1,10,11,12,14,16,18,2,20,22,23,24,4,6,8,9}&#45;&gt;{17,19,21,23,24} -->
<g id="edge4" class="edge"><title>{0,1,10,11,12,14,16,18,2,20,22,23,24,4,6,8,9}&#45;&gt;{17,19,21,23,24}</title>
<path fill="none" stroke="black" d="M416.579,-161.589C435.57,-155.789 454.714,-150.274 473.169,-145.443 570.972,-119.845 685.499,-98.8785 760.763,-86.3017"/>
<polygon fill="black" stroke="black" points="761.367,-89.7495 770.658,-84.6588 760.22,-82.8441 761.367,-89.7495"/>
<text text-anchor="middle" x="598.058" y="-149.243" font-family="Times New Roman,serif" font-size="14.00">i</text>
</g>
<!-- {1,2,3,4,6,7,9} -->
<g id="node4" class="node"><title>{1,2,3,4,6,7,9}</title>
<ellipse fill="none" stroke="black" cx="843.391" cy="-462.443" rx="64.9888" ry="64.9888"/>
<ellipse fill="none" stroke="black" cx="843.391" cy="-462.443" rx="68.9885" ry="68.9885"/>
<text text-anchor="middle" x="843.391" y="-458.743" font-family="Times New Roman,serif" font-size="14.00">{1,2,3,4,6,7,9}</text>
</g>
<!-- {1,15,19,2,21,23,24,3,4,6,7,9}&#45;&gt;{1,2,3,4,6,7,9} -->
<g id="edge6" class="edge"><title>{1,15,19,2,21,23,24,3,4,6,7,9}&#45;&gt;{1,2,3,4,6,7,9}</title>
<path fill="none" stroke="black" d="M707.559,-387.639C730.08,-400.134 753.21,-412.967 773.814,-424.397"/>
<polygon fill="black" stroke="black" points="772.342,-427.583 782.784,-429.374 775.738,-421.462 772.342,-427.583"/>
<text text-anchor="middle" x="746.447" y="-415.243" font-family="Times New Roman,serif" font-size="14.00">m</text>
</g>
<!-- {1,15,19,2,21,23,24,3,4,6,7,9}&#45;&gt;{1,25} -->
<g id="edge9" class="edge"><title>{1,15,19,2,21,23,24,3,4,6,7,9}&#45;&gt;{1,25}</title>
<path fill="none" stroke="black" d="M707.747,-267.33C718.939,-261.249 730.158,-255.198 740.947,-249.443 753.751,-242.614 756.182,-239.034 769.947,-234.443 842.109,-210.377 930.041,-199.055 983.436,-194.047"/>
<polygon fill="black" stroke="black" points="983.994,-197.511 993.64,-193.128 983.366,-190.539 983.994,-197.511"/>
<text text-anchor="middle" x="843.391" y="-238.243" font-family="Times New Roman,serif" font-size="14.00">s</text>
</g>
<!-- {1,2,4,5,6,7,9} -->
<g id="node7" class="node"><title>{1,2,4,5,6,7,9}</title>
<ellipse fill="none" stroke="black" cx="1032.83" cy="-360.443" rx="64.9888" ry="64.9888"/>
<ellipse fill="none" stroke="black" cx="1032.83" cy="-360.443" rx="68.9885" ry="68.9885"/>
<text text-anchor="middle" x="1032.83" y="-356.743" font-family="Times New Roman,serif" font-size="14.00">{1,2,4,5,6,7,9}</text>
</g>
<!-- {1,15,19,2,21,23,24,3,4,6,7,9}&#45;&gt;{1,2,4,5,6,7,9} -->
<g id="edge7" class="edge"><title>{1,15,19,2,21,23,24,3,4,6,7,9}&#45;&gt;{1,2,4,5,6,7,9}</title>
<path fill="none" stroke="black" d="M722.734,-316.298C781.818,-313.412 853.334,-313.479 916.834,-323.443 930.505,-325.589 944.769,-329.086 958.411,-333.096"/>
<polygon fill="black" stroke="black" points="957.631,-336.518 968.217,-336.095 959.678,-329.824 957.631,-336.518"/>
<text text-anchor="middle" x="843.391" y="-327.243" font-family="Times New Roman,serif" font-size="14.00">y</text>
</g>
<!-- {} -->
<g id="node9" class="node"><title>{}</title>
<ellipse fill="none" stroke="black" cx="1168.32" cy="-258.443" rx="19.4965" ry="19.4965"/>
<text text-anchor="middle" x="1168.32" y="-254.743" font-family="Times New Roman,serif" font-size="14.00">{}</text>
</g>
<!-- {1,15,19,2,21,23,24,3,4,6,7,9}&#45;&gt;{} -->
<g id="edge8" class="edge"><title>{1,15,19,2,21,23,24,3,4,6,7,9}&#45;&gt;{}</title>
<path fill="none" stroke="black" d="M722.296,-312.074C792.977,-303.301 883.38,-292.151 963.834,-282.443 1026.27,-274.91 1099.52,-266.336 1138.87,-261.751"/>
<polygon fill="black" stroke="black" points="1139.27,-265.228 1148.8,-260.594 1138.46,-258.274 1139.27,-265.228"/>
<text text-anchor="middle" x="940.334" y="-290.243" font-family="Times New Roman,serif" font-size="14.00">i</text>
</g>
<!-- {1,2,3,4,6,7,9}&#45;&gt;{1,2,3,4,6,7,9} -->
<g id="edge10" class="edge"><title>{1,2,3,4,6,7,9}&#45;&gt;{1,2,3,4,6,7,9}</title>
<path fill="none" stroke="black" d="M826.516,-529.558C828.766,-541.282 834.391,-549.438 843.391,-549.438 849.578,-549.438 854.17,-545.583 857.168,-539.364"/>
<polygon fill="black" stroke="black" points="860.59,-540.148 860.266,-529.558 853.915,-538.039 860.59,-540.148"/>
<text text-anchor="middle" x="843.391" y="-553.238" font-family="Times New Roman,serif" font-size="14.00">m</text>
</g>
<!-- {1,2,3,4,6,7,9}&#45;&gt;{1,2,4,5,6,7,9} -->
<g id="edge11" class="edge"><title>{1,2,3,4,6,7,9}&#45;&gt;{1,2,4,5,6,7,9}</title>
<path fill="none" stroke="black" d="M904.471,-429.749C923.051,-419.638 943.665,-408.42 962.801,-398.007"/>
<polygon fill="black" stroke="black" points="964.656,-400.982 971.767,-393.128 961.311,-394.833 964.656,-400.982"/>
<text text-anchor="middle" x="940.334" y="-415.243" font-family="Times New Roman,serif" font-size="14.00">y</text>
</g>
<!-- {1,2,3,4,6,7,9}&#45;&gt;{} -->
<g id="edge12" class="edge"><title>{1,2,3,4,6,7,9}&#45;&gt;{}</title>
<path fill="none" stroke="black" d="M908.597,-485.233C965.053,-500.869 1046.61,-512.231 1101.82,-471.443 1159.68,-428.701 1168.05,-335.682 1168.29,-287.969"/>
<polygon fill="black" stroke="black" points="1171.79,-287.938 1168.22,-277.962 1164.79,-287.985 1171.79,-287.938"/>
<text text-anchor="middle" x="1032.83" y="-503.243" font-family="Times New Roman,serif" font-size="14.00">i</text>
</g>
<!-- {1,2,3,4,6,7,9}&#45;&gt;{} -->
<g id="edge13" class="edge"><title>{1,2,3,4,6,7,9}&#45;&gt;{}</title>
<path fill="none" stroke="black" d="M902.647,-497.932C957.652,-526.415 1040.61,-555.982 1101.82,-518.443 1141.21,-494.29 1158.9,-351.252 1164.85,-288.232"/>
<polygon fill="black" stroke="black" points="1168.35,-288.412 1165.77,-278.136 1161.38,-287.778 1168.35,-288.412"/>
<text text-anchor="middle" x="1032.83" y="-539.243" font-family="Times New Roman,serif" font-size="14.00">s</text>
</g>
<!-- {1,13,2,21,23,24,4,5,6,7,9}&#45;&gt;{1,2,3,4,6,7,9} -->
<g id="edge14" class="edge"><title>{1,13,2,21,23,24,4,5,6,7,9}&#45;&gt;{1,2,3,4,6,7,9}</title>
<path fill="none" stroke="black" d="M700.139,-533.764C724.354,-521.623 749.69,-508.921 772.158,-497.656"/>
<polygon fill="black" stroke="black" points="773.9,-500.698 781.271,-493.087 770.763,-494.44 773.9,-500.698"/>
<text text-anchor="middle" x="746.447" y="-516.243" font-family="Times New Roman,serif" font-size="14.00">m</text>
</g>
<!-- {1,13,2,21,23,24,4,5,6,7,9}&#45;&gt;{1,25} -->
<g id="edge17" class="edge"><title>{1,13,2,21,23,24,4,5,6,7,9}&#45;&gt;{1,25}</title>
<path fill="none" stroke="black" d="M682.997,-508.452C697.203,-493.6 711.152,-477.599 722.947,-461.443 750.022,-424.36 733.485,-397.349 769.947,-369.443 822.932,-328.893 860.273,-373.835 916.834,-338.443 922.62,-334.823 970.234,-272.353 1002.35,-229.743"/>
<polygon fill="black" stroke="black" points="1005.33,-231.603 1008.55,-221.509 999.74,-227.392 1005.33,-231.603"/>
<text text-anchor="middle" x="843.391" y="-373.243" font-family="Times New Roman,serif" font-size="14.00">s</text>
</g>
<!-- {1,13,2,21,23,24,4,5,6,7,9}&#45;&gt;{1,2,4,5,6,7,9} -->
<g id="edge15" class="edge"><title>{1,13,2,21,23,24,4,5,6,7,9}&#45;&gt;{1,2,4,5,6,7,9}</title>
<path fill="none" stroke="black" d="M709.498,-608.087C775.1,-615.85 856.907,-613.918 916.834,-573.443 959.54,-544.6 939.503,-512.872 963.834,-467.443 971.165,-453.756 979.619,-439.487 988.021,-425.995"/>
<polygon fill="black" stroke="black" points="991.157,-427.584 993.522,-417.256 985.233,-423.855 991.157,-427.584"/>
<text text-anchor="middle" x="843.391" y="-615.243" font-family="Times New Roman,serif" font-size="14.00">y</text>
</g>
<!-- {1,13,2,21,23,24,4,5,6,7,9}&#45;&gt;{} -->
<g id="edge16" class="edge"><title>{1,13,2,21,23,24,4,5,6,7,9}&#45;&gt;{}</title>
<path fill="none" stroke="black" d="M707.604,-616.287C718.824,-619.205 730.089,-621.984 740.947,-624.443 900.289,-660.537 981.854,-665.349 1101.82,-554.443 1122.99,-534.879 1122.09,-523.908 1130.82,-496.443 1153.93,-423.79 1162.64,-333.862 1165.73,-288.147"/>
<polygon fill="black" stroke="black" points="1169.24,-288.238 1166.38,-278.036 1162.25,-287.794 1169.24,-288.238"/>
<text text-anchor="middle" x="940.334" y="-648.243" font-family="Times New Roman,serif" font-size="14.00">i</text>
</g>
<!-- {1,25}&#45;&gt;{} -->
<g id="edge22" class="edge"><title>{1,25}&#45;&gt;{}</title>
<path fill="none" stroke="black" d="M1071.56,-197.994C1090.3,-202.836 1112.75,-210.341 1130.82,-221.443 1137.12,-225.314 1143.13,-230.5 1148.39,-235.761"/>
<polygon fill="black" stroke="black" points="1146.12,-238.456 1155.5,-243.379 1151.24,-233.68 1146.12,-238.456"/>
<text text-anchor="middle" x="1125.32" y="-225.243" font-family="Times New Roman,serif" font-size="14.00">m</text>
</g>
<!-- {1,25}&#45;&gt;{} -->
<g id="edge23" class="edge"><title>{1,25}&#45;&gt;{}</title>
<path fill="none" stroke="black" d="M1071.79,-185.296C1090.81,-184.585 1113.43,-186.734 1130.82,-197.443 1143.01,-204.948 1151.65,-218.175 1157.45,-230.398"/>
<polygon fill="black" stroke="black" points="1154.35,-232.047 1161.51,-239.857 1160.78,-229.287 1154.35,-232.047"/>
<text text-anchor="middle" x="1125.32" y="-201.243" font-family="Times New Roman,serif" font-size="14.00">y</text>
</g>
<!-- {1,25}&#45;&gt;{} -->
<g id="edge24" class="edge"><title>{1,25}&#45;&gt;{}</title>
<path fill="none" stroke="black" d="M1068.16,-173.623C1087.93,-166.527 1112.41,-162.37 1130.82,-174.443 1149.11,-186.436 1158.28,-209.787 1162.85,-228.831"/>
<polygon fill="black" stroke="black" points="1159.48,-229.795 1164.95,-238.868 1166.33,-228.364 1159.48,-229.795"/>
<text text-anchor="middle" x="1125.32" y="-178.243" font-family="Times New Roman,serif" font-size="14.00">i</text>
</g>
<!-- {1,25}&#45;&gt;{} -->
<g id="edge25" class="edge"><title>{1,25}&#45;&gt;{}</title>
<path fill="none" stroke="black" d="M1067.49,-209.029C1083.27,-217.591 1102.4,-227.756 1119.82,-236.443 1126.49,-239.767 1133.76,-243.218 1140.56,-246.373"/>
<polygon fill="black" stroke="black" points="1139.51,-249.745 1150.06,-250.737 1142.43,-243.383 1139.51,-249.745"/>
<text text-anchor="middle" x="1125.32" y="-246.243" font-family="Times New Roman,serif" font-size="14.00">s</text>
</g>
<!-- {1,2,4,5,6,7,9}&#45;&gt;{1,2,3,4,6,7,9} -->
<g id="edge26" class="edge"><title>{1,2,4,5,6,7,9}&#45;&gt;{1,2,3,4,6,7,9}</title>
<path fill="none" stroke="black" d="M981.323,-406.754C970.175,-415.452 958.035,-423.867 945.834,-430.443 937.776,-434.787 929.035,-438.648 920.178,-442.051"/>
<polygon fill="black" stroke="black" points="918.742,-438.849 910.548,-445.565 921.142,-445.425 918.742,-438.849"/>
<text text-anchor="middle" x="940.334" y="-440.243" font-family="Times New Roman,serif" font-size="14.00">m</text>
</g>
<!-- {1,2,4,5,6,7,9}&#45;&gt;{1,2,4,5,6,7,9} -->
<g id="edge27" class="edge"><title>{1,2,4,5,6,7,9}&#45;&gt;{1,2,4,5,6,7,9}</title>
<path fill="none" stroke="black" d="M1016.66,-427.558C1018.81,-439.282 1024.2,-447.438 1032.83,-447.438 1038.76,-447.438 1043.16,-443.583 1046.03,-437.364"/>
<polygon fill="black" stroke="black" points="1049.45,-438.143 1049,-427.558 1042.75,-436.115 1049.45,-438.143"/>
<text text-anchor="middle" x="1032.83" y="-451.238" font-family="Times New Roman,serif" font-size="14.00">y</text>
</g>
<!-- {1,2,4,5,6,7,9}&#45;&gt;{} -->
<g id="edge28" class="edge"><title>{1,2,4,5,6,7,9}&#45;&gt;{}</title>
<path fill="none" stroke="black" d="M1093.5,-327.464C1106.33,-319.318 1119.43,-310.128 1130.82,-300.443 1137.34,-294.9 1143.72,-288.163 1149.27,-281.723"/>
<polygon fill="black" stroke="black" points="1152.13,-283.767 1155.82,-273.836 1146.74,-279.297 1152.13,-283.767"/>
<text text-anchor="middle" x="1125.32" y="-312.243" font-family="Times New Roman,serif" font-size="14.00">i</text>
</g>
<!-- {1,2,4,5,6,7,9}&#45;&gt;{} -->
<g id="edge29" class="edge"><title>{1,2,4,5,6,7,9}&#45;&gt;{}</title>
<path fill="none" stroke="black" d="M1100.3,-345.377C1111.28,-340.855 1121.96,-335.003 1130.82,-327.443 1143.35,-316.759 1152.21,-300.672 1158.06,-286.719"/>
<polygon fill="black" stroke="black" points="1161.46,-287.633 1161.8,-277.044 1154.93,-285.111 1161.46,-287.633"/>
<text text-anchor="middle" x="1125.32" y="-338.243" font-family="Times New Roman,serif" font-size="14.00">s</text>
</g>
<!-- {17,19,21,23,24}&#45;&gt;{1,25} -->
<g id="edge21" class="edge"><title>{17,19,21,23,24}&#45;&gt;{1,25}</title>
<path fill="none" stroke="black" d="M906.024,-111.916C933.773,-129.237 965.79,-149.222 990.58,-164.696"/>
<polygon fill="black" stroke="black" points="989.028,-167.853 999.365,-170.179 992.735,-161.915 989.028,-167.853"/>
<text text-anchor="middle" x="940.334" y="-140.243" font-family="Times New Roman,serif" font-size="14.00">s</text>
</g>
<!-- {17,19,21,23,24}&#45;&gt;{} -->
<g id="edge18" class="edge"><title>{17,19,21,23,24}&#45;&gt;{}</title>
<path fill="none" stroke="black" d="M915.887,-61.4332C968.765,-55.4495 1041.72,-53.3724 1101.82,-74.4435 1117.35,-79.8861 1122.06,-83.5198 1130.82,-97.4435 1156.37,-138.048 1164.11,-194.385 1166.41,-228.521"/>
<polygon fill="black" stroke="black" points="1162.93,-228.986 1166.98,-238.776 1169.92,-228.597 1162.93,-228.986"/>
<text text-anchor="middle" x="1032.83" y="-79.2435" font-family="Times New Roman,serif" font-size="14.00">m</text>
</g>
<!-- {17,19,21,23,24}&#45;&gt;{} -->
<g id="edge19" class="edge"><title>{17,19,21,23,24}&#45;&gt;{}</title>
<path fill="none" stroke="black" d="M910.8,-43.7466C965.128,-24.1392 1042.41,-7.26858 1101.82,-38.4435 1121.91,-48.9838 1121.92,-59.5791 1130.82,-80.4435 1151.91,-129.878 1161.1,-192.353 1164.88,-228.616"/>
<polygon fill="black" stroke="black" points="1161.44,-229.37 1165.89,-238.985 1168.41,-228.693 1161.44,-229.37"/>
<text text-anchor="middle" x="1032.83" y="-43.2435" font-family="Times New Roman,serif" font-size="14.00">y</text>
</g>
<!-- {17,19,21,23,24}&#45;&gt;{} -->
<g id="edge20" class="edge"><title>{17,19,21,23,24}&#45;&gt;{}</title>
<path fill="none" stroke="black" d="M916.253,-82.713C981.356,-92.1421 1071.58,-108.096 1101.82,-127.443 1137.23,-150.094 1154.22,-198.118 1161.82,-229.3"/>
<polygon fill="black" stroke="black" points="1158.43,-230.185 1164.04,-239.168 1165.26,-228.643 1158.43,-230.185"/>
<text text-anchor="middle" x="1032.83" y="-131.243" font-family="Times New Roman,serif" font-size="14.00">i</text>
</g>
<!-- {}&#45;&gt;{} -->
<g id="edge30" class="edge"><title>{}&#45;&gt;{}</title>
<path fill="none" stroke="black" d="M1166.4,-278.121C1166.16,-287.586 1166.8,-295.942 1168.32,-295.942 1169.25,-295.942 1169.84,-292.839 1170.12,-288.273"/>
<polygon fill="black" stroke="black" points="1173.62,-288.163 1170.24,-278.121 1166.62,-288.078 1173.62,-288.163"/>
<text text-anchor="middle" x="1168.32" y="-299.742" font-family="Times New Roman,serif" font-size="14.00">m</text>
</g>
<!-- {}&#45;&gt;{} -->
<g id="edge31" class="edge"><title>{}&#45;&gt;{}</title>
<path fill="none" stroke="black" d="M1165.08,-277.783C1163.51,-295.241 1164.59,-313.942 1168.32,-313.942 1171.32,-313.942 1172.61,-301.833 1172.18,-288.006"/>
<polygon fill="black" stroke="black" points="1175.66,-287.553 1171.56,-277.783 1168.67,-287.976 1175.66,-287.553"/>
<text text-anchor="middle" x="1168.32" y="-317.742" font-family="Times New Roman,serif" font-size="14.00">y</text>
</g>
<!-- {}&#45;&gt;{} -->
<g id="edge32" class="edge"><title>{}&#45;&gt;{}</title>
<path fill="none" stroke="black" d="M1164.23,-277.641C1160.84,-302.334 1162.2,-331.942 1168.32,-331.942 1173.63,-331.942 1175.36,-309.676 1173.51,-287.659"/>
<polygon fill="black" stroke="black" points="1176.98,-287.198 1172.41,-277.641 1170.02,-287.963 1176.98,-287.198"/>
<text text-anchor="middle" x="1168.32" y="-335.742" font-family="Times New Roman,serif" font-size="14.00">i</text>
</g>
<!-- {}&#45;&gt;{} -->
<g id="edge33" class="edge"><title>{}&#45;&gt;{}</title>
<path fill="none" stroke="black" d="M1163.6,-277.76C1158.17,-309.285 1159.75,-349.942 1168.32,-349.942 1175.99,-349.942 1178.06,-317.409 1174.53,-287.981"/>
<polygon fill="black" stroke="black" points="1177.94,-287.154 1173.04,-277.76 1171.01,-288.159 1177.94,-287.154"/>
<text text-anchor="middle" x="1168.32" y="-353.742" font-family="Times New Roman,serif" font-size="14.00">s</text>
</g>
</g>
</svg>
