<?xml version="1.0" encoding="UTF-8" standalone="no"?>
<!DOCTYPE svg PUBLIC "-//W3C//DTD SVG 1.1//EN"
 "http://www.w3.org/Graphics/SVG/1.1/DTD/svg11.dtd">
<!-- Generated by graphviz version 2.38.0 (20140413.2041)
 -->
<!-- Title: dfa Pages: 1 -->
<svg width="214pt" height="83pt"
 viewBox="0.00 0.00 213.60 83.19" xmlns="http://www.w3.org/2000/svg" xmlns:xlink="http://www.w3.org/1999/xlink">
<g id="graph0" class="graph" transform="scale(1 1) rotate(0) translate(4 79.1873)">
<title>dfa</title>
<polygon fill="white" stroke="none" points="-4,4 -4,-79.1873 209.6,-79.1873 209.6,4 -4,4"/>
<!-- __start -->
<!-- 0 -->
<g id="node2" class="node"><title>0</title>
<ellipse fill="none" stroke="black" cx="91.6" cy="-24.1873" rx="27" ry="18"/>
<text text-anchor="middle" x="91.6" y="-20.4873" font-family="Times New Roman,serif" font-size="14.00">0</text>
</g>
<!-- __start&#45;&gt;0 -->
<g id="edge1" class="edge"><title>__start&#45;&gt;0</title>
<path fill="none" stroke="black" d="M3.78604,-24.1873C8.86985,-24.1873 32.7092,-24.1873 54.1222,-24.1873"/>
<polygon fill="black" stroke="black" points="54.3463,-27.6874 64.3463,-24.1873 54.3463,-20.6874 54.3463,-27.6874"/>
<text text-anchor="middle" x="34.1" y="-27.9873" font-family="Times New Roman,serif" font-size="14.00">start</text>
</g>
<!-- 0&#45;&gt;0 -->
<g id="edge2" class="edge"><title>0&#45;&gt;0</title>
<path fill="none" stroke="black" d="M83.0307,-41.5972C81.4311,-51.2752 84.2875,-60.1873 91.6,-60.1873 96.1703,-60.1873 99,-56.706 100.089,-51.7322"/>
<polygon fill="black" stroke="black" points="103.59,-51.6247 100.169,-41.5972 96.5901,-51.5691 103.59,-51.6247"/>
<text text-anchor="middle" x="91.6" y="-63.9873" font-family="Times New Roman,serif" font-size="14.00">c</text>
</g>
<!-- 1 -->
<g id="node3" class="node"><title>1</title>
<ellipse fill="none" stroke="black" cx="183.6" cy="-24.1873" rx="18" ry="18"/>
<ellipse fill="none" stroke="black" cx="183.6" cy="-24.1873" rx="22" ry="22"/>
<text text-anchor="middle" x="183.6" y="-20.4873" font-family="Times New Roman,serif" font-size="14.00">1</text>
</g>
<!-- 0&#45;&gt;1 -->
<g id="edge3" class="edge"><title>0&#45;&gt;1</title>
<path fill="none" stroke="black" d="M113.177,-35.5878C122.367,-39.3865 133.403,-42.1977 143.6,-40.1873 147.08,-39.5012 150.641,-38.5013 154.126,-37.3311"/>
<polygon fill="black" stroke="black" points="155.531,-40.5412 163.622,-33.7012 153.031,-34.0027 155.531,-40.5412"/>
<text text-anchor="middle" x="140.1" y="-43.9873" font-family="Times New Roman,serif" font-size="14.00">g</text>
</g>
<!-- 1&#45;&gt;0 -->
<g id="edge4" class="edge"><title>1&#45;&gt;0</title>
<path fill="none" stroke="black" d="M161.567,-22.272C155.752,-21.8235 149.436,-21.4114 143.6,-21.1873 138.759,-21.0014 133.661,-21.0314 128.638,-21.1936"/>
<polygon fill="black" stroke="black" points="128.353,-17.7032 118.535,-21.6856 128.694,-24.695 128.353,-17.7032"/>
<text text-anchor="middle" x="140.1" y="-24.9873" font-family="Times New Roman,serif" font-size="14.00">c</text>
</g>
<!-- 1&#45;&gt;0 -->
<g id="edge5" class="edge"><title>1&#45;&gt;0</title>
<path fill="none" stroke="black" d="M165.251,-11.2795C158.793,-7.21907 151.183,-3.25684 143.6,-1.18729 134.979,1.16536 125.968,-1.14342 117.96,-5.06707"/>
<polygon fill="black" stroke="black" points="115.979,-2.17073 109.105,-10.2324 119.506,-8.21739 115.979,-2.17073"/>
<text text-anchor="middle" x="140.1" y="-4.98729" font-family="Times New Roman,serif" font-size="14.00">g</text>
</g>
</g>
</svg>
