<?xml version="1.0" encoding="UTF-8" standalone="no"?>
<!DOCTYPE svg PUBLIC "-//W3C//DTD SVG 1.1//EN"
 "http://www.w3.org/Graphics/SVG/1.1/DTD/svg11.dtd">
<!-- Generated by graphviz version 2.38.0 (20140413.2041)
 -->
<!-- Title: enfa Pages: 1 -->
<svg width="348pt" height="159pt"
 viewBox="0.00 0.00 347.60 159.00" xmlns="http://www.w3.org/2000/svg" xmlns:xlink="http://www.w3.org/1999/xlink">
<g id="graph0" class="graph" transform="scale(1 1) rotate(0) translate(4 155)">
<title>enfa</title>
<polygon fill="white" stroke="none" points="-4,4 -4,-155 343.6,-155 343.6,4 -4,4"/>
<!-- __start -->
<!-- 0 -->
<g id="node2" class="node"><title>0</title>
<ellipse fill="none" stroke="black" cx="82.6" cy="-41" rx="18" ry="18"/>
<text text-anchor="middle" x="82.6" y="-37.3" font-family="Times New Roman,serif" font-size="14.00">0</text>
</g>
<!-- __start&#45;&gt;0 -->
<g id="edge1" class="edge"><title>__start&#45;&gt;0</title>
<path fill="none" stroke="black" d="M3.68496,-41C8.69573,-41 34.008,-41 54.4423,-41"/>
<polygon fill="black" stroke="black" points="54.5501,-44.5001 64.5501,-41 54.5501,-37.5001 54.5501,-44.5001"/>
<text text-anchor="middle" x="34.1" y="-44.8" font-family="Times New Roman,serif" font-size="14.00">start</text>
</g>
<!-- 1 -->
<g id="node3" class="node"><title>1</title>
<ellipse fill="none" stroke="black" cx="162.6" cy="-96" rx="18" ry="18"/>
<ellipse fill="none" stroke="black" cx="162.6" cy="-96" rx="22" ry="22"/>
<text text-anchor="middle" x="162.6" y="-92.3" font-family="Times New Roman,serif" font-size="14.00">1</text>
</g>
<!-- 0&#45;&gt;1 -->
<g id="edge3" class="edge"><title>0&#45;&gt;1</title>
<path fill="none" stroke="black" d="M97.9064,-51.0878C108.484,-58.5462 123.178,-68.9073 135.787,-77.7986"/>
<polygon fill="black" stroke="black" points="133.918,-80.7631 144.107,-83.6655 137.952,-75.0423 133.918,-80.7631"/>
<text text-anchor="middle" x="120.6" y="-71.8" font-family="Times New Roman,serif" font-size="14.00">j</text>
</g>
<!-- 3 -->
<g id="node5" class="node"><title>3</title>
<ellipse fill="none" stroke="black" cx="245.6" cy="-57" rx="18" ry="18"/>
<text text-anchor="middle" x="245.6" y="-53.3" font-family="Times New Roman,serif" font-size="14.00">3</text>
</g>
<!-- 0&#45;&gt;3 -->
<g id="edge6" class="edge"><title>0&#45;&gt;3</title>
<path fill="none" stroke="black" d="M100.77,-42.3865C120.877,-44.0434 155.18,-46.9736 184.6,-50 195.362,-51.1071 207.194,-52.4587 217.486,-53.6779"/>
<polygon fill="black" stroke="black" points="217.199,-57.1684 227.544,-54.8848 218.033,-50.2183 217.199,-57.1684"/>
<text text-anchor="middle" x="162.6" y="-53.8" font-family="Times New Roman,serif" font-size="14.00">z</text>
</g>
<!-- 1&#45;&gt;1 -->
<g id="edge4" class="edge"><title>1&#45;&gt;1</title>
<path fill="none" stroke="black" d="M154.917,-116.991C153.969,-127.087 156.53,-136 162.6,-136 166.489,-136 168.937,-132.342 169.946,-127.059"/>
<polygon fill="black" stroke="black" points="173.446,-127.102 170.283,-116.991 166.45,-126.868 173.446,-127.102"/>
<text text-anchor="middle" x="162.6" y="-139.8" font-family="Times New Roman,serif" font-size="14.00">z</text>
</g>
<!-- 1&#45;&gt;3 -->
<g id="edge5" class="edge"><title>1&#45;&gt;3</title>
<path fill="none" stroke="black" d="M184.989,-95.9621C193.021,-95.2524 202.032,-93.5892 209.6,-90 215.74,-87.0878 221.514,-82.6927 226.532,-78.0516"/>
<polygon fill="black" stroke="black" points="229.217,-80.3134 233.743,-70.7337 224.231,-75.4003 229.217,-80.3134"/>
<text text-anchor="middle" x="206.1" y="-95.8" font-family="Times New Roman,serif" font-size="14.00">ε</text>
</g>
<!-- 2 -->
<g id="node4" class="node"><title>2</title>
<ellipse fill="none" stroke="black" cx="321.6" cy="-18" rx="18" ry="18"/>
<text text-anchor="middle" x="321.6" y="-14.3" font-family="Times New Roman,serif" font-size="14.00">2</text>
</g>
<!-- 2&#45;&gt;0 -->
<g id="edge2" class="edge"><title>2&#45;&gt;0</title>
<path fill="none" stroke="black" d="M303.392,-19.67C262.67,-23.6219 160.13,-33.573 110.86,-38.3545"/>
<polygon fill="black" stroke="black" points="110.26,-34.8962 100.644,-39.3459 110.936,-41.8635 110.26,-34.8962"/>
<text text-anchor="middle" x="206.1" y="-32.8" font-family="Times New Roman,serif" font-size="14.00">ε</text>
</g>
<!-- 2&#45;&gt;2 -->
<g id="edge9" class="edge"><title>2&#45;&gt;2</title>
<path fill="none" stroke="black" d="M314.866,-35.0373C313.492,-44.8579 315.737,-54 321.6,-54 325.265,-54 327.516,-50.4289 328.353,-45.3529"/>
<polygon fill="black" stroke="black" points="331.852,-45.0307 328.334,-35.0373 324.852,-45.0439 331.852,-45.0307"/>
<text text-anchor="middle" x="321.6" y="-57.8" font-family="Times New Roman,serif" font-size="14.00">j</text>
</g>
<!-- 3&#45;&gt;1 -->
<g id="edge8" class="edge"><title>3&#45;&gt;1</title>
<path fill="none" stroke="black" d="M227.873,-61.5316C220.022,-63.9199 210.644,-67.1549 202.6,-71 198.205,-73.1006 193.708,-75.6065 189.401,-78.2083"/>
<polygon fill="black" stroke="black" points="187.495,-75.2728 180.925,-83.5846 191.244,-81.184 187.495,-75.2728"/>
<text text-anchor="middle" x="206.1" y="-74.8" font-family="Times New Roman,serif" font-size="14.00">z</text>
</g>
<!-- 3&#45;&gt;2 -->
<g id="edge7" class="edge"><title>3&#45;&gt;2</title>
<path fill="none" stroke="black" d="M261.933,-48.9192C271.855,-43.69 284.987,-36.7692 296.31,-30.8013"/>
<polygon fill="black" stroke="black" points="298.072,-33.8292 305.287,-26.0705 294.808,-27.6366 298.072,-33.8292"/>
<text text-anchor="middle" x="283.6" y="-40.8" font-family="Times New Roman,serif" font-size="14.00">j</text>
</g>
</g>
</svg>
