<?xml version="1.0" encoding="UTF-8" standalone="no"?>
<!DOCTYPE svg PUBLIC "-//W3C//DTD SVG 1.1//EN"
 "http://www.w3.org/Graphics/SVG/1.1/DTD/svg11.dtd">
<!-- Generated by graphviz version 2.38.0 (20140413.2041)
 -->
<!-- Title: enfa Pages: 1 -->
<svg width="366pt" height="159pt"
 viewBox="0.00 0.00 365.60 159.00" xmlns="http://www.w3.org/2000/svg" xmlns:xlink="http://www.w3.org/1999/xlink">
<g id="graph0" class="graph" transform="scale(1 1) rotate(0) translate(4 155)">
<title>enfa</title>
<polygon fill="white" stroke="none" points="-4,4 -4,-155 361.6,-155 361.6,4 -4,4"/>
<!-- __start -->
<!-- 0 -->
<g id="node2" class="node"><title>0</title>
<ellipse fill="none" stroke="black" cx="91.6" cy="-41" rx="27" ry="18"/>
<text text-anchor="middle" x="91.6" y="-37.3" font-family="Times New Roman,serif" font-size="14.00">0</text>
</g>
<!-- __start&#45;&gt;0 -->
<g id="edge1" class="edge"><title>__start&#45;&gt;0</title>
<path fill="none" stroke="black" d="M3.78604,-41C8.86985,-41 32.7092,-41 54.1222,-41"/>
<polygon fill="black" stroke="black" points="54.3463,-44.5001 64.3463,-41 54.3463,-37.5001 54.3463,-44.5001"/>
<text text-anchor="middle" x="34.1" y="-44.8" font-family="Times New Roman,serif" font-size="14.00">start</text>
</g>
<!-- 1 -->
<g id="node3" class="node"><title>1</title>
<ellipse fill="none" stroke="black" cx="180.6" cy="-96" rx="18" ry="18"/>
<ellipse fill="none" stroke="black" cx="180.6" cy="-96" rx="22" ry="22"/>
<text text-anchor="middle" x="180.6" y="-92.3" font-family="Times New Roman,serif" font-size="14.00">1</text>
</g>
<!-- 0&#45;&gt;1 -->
<g id="edge3" class="edge"><title>0&#45;&gt;1</title>
<path fill="none" stroke="black" d="M111.908,-53.2063C123.948,-60.8175 139.612,-70.7204 152.84,-79.0828"/>
<polygon fill="black" stroke="black" points="151.211,-82.1937 161.534,-84.5789 154.952,-76.2769 151.211,-82.1937"/>
<text text-anchor="middle" x="138.6" y="-73.8" font-family="Times New Roman,serif" font-size="14.00">j</text>
</g>
<!-- 3 -->
<g id="node5" class="node"><title>3</title>
<ellipse fill="none" stroke="black" cx="263.6" cy="-57" rx="18" ry="18"/>
<text text-anchor="middle" x="263.6" y="-53.3" font-family="Times New Roman,serif" font-size="14.00">3</text>
</g>
<!-- 0&#45;&gt;3 -->
<g id="edge6" class="edge"><title>0&#45;&gt;3</title>
<path fill="none" stroke="black" d="M118.849,-42.8918C141.149,-44.5602 173.999,-47.1624 202.6,-50 213.366,-51.0682 225.199,-52.4122 235.49,-53.6363"/>
<polygon fill="black" stroke="black" points="235.2,-57.1266 245.548,-54.8519 236.04,-50.1771 235.2,-57.1266"/>
<text text-anchor="middle" x="180.6" y="-53.8" font-family="Times New Roman,serif" font-size="14.00">z</text>
</g>
<!-- 1&#45;&gt;1 -->
<g id="edge4" class="edge"><title>1&#45;&gt;1</title>
<path fill="none" stroke="black" d="M172.917,-116.991C171.969,-127.087 174.53,-136 180.6,-136 184.489,-136 186.937,-132.342 187.946,-127.059"/>
<polygon fill="black" stroke="black" points="191.446,-127.102 188.283,-116.991 184.45,-126.868 191.446,-127.102"/>
<text text-anchor="middle" x="180.6" y="-139.8" font-family="Times New Roman,serif" font-size="14.00">z</text>
</g>
<!-- 1&#45;&gt;3 -->
<g id="edge5" class="edge"><title>1&#45;&gt;3</title>
<path fill="none" stroke="black" d="M202.989,-95.9621C211.021,-95.2524 220.032,-93.5892 227.6,-90 233.74,-87.0878 239.514,-82.6927 244.532,-78.0516"/>
<polygon fill="black" stroke="black" points="247.217,-80.3134 251.743,-70.7337 242.231,-75.4003 247.217,-80.3134"/>
<text text-anchor="middle" x="224.1" y="-95.8" font-family="Times New Roman,serif" font-size="14.00">ε</text>
</g>
<!-- 2 -->
<g id="node4" class="node"><title>2</title>
<ellipse fill="none" stroke="black" cx="339.6" cy="-18" rx="18" ry="18"/>
<text text-anchor="middle" x="339.6" y="-14.3" font-family="Times New Roman,serif" font-size="14.00">2</text>
</g>
<!-- 2&#45;&gt;0 -->
<g id="edge2" class="edge"><title>2&#45;&gt;0</title>
<path fill="none" stroke="black" d="M321.583,-19.591C281.884,-23.3027 182.44,-32.6003 128.592,-37.6349"/>
<polygon fill="black" stroke="black" points="128.092,-34.1663 118.461,-38.5821 128.744,-41.1359 128.092,-34.1663"/>
<text text-anchor="middle" x="224.1" y="-31.8" font-family="Times New Roman,serif" font-size="14.00">ε</text>
</g>
<!-- 2&#45;&gt;2 -->
<g id="edge9" class="edge"><title>2&#45;&gt;2</title>
<path fill="none" stroke="black" d="M332.866,-35.0373C331.492,-44.8579 333.737,-54 339.6,-54 343.265,-54 345.516,-50.4289 346.353,-45.3529"/>
<polygon fill="black" stroke="black" points="349.852,-45.0307 346.334,-35.0373 342.852,-45.0439 349.852,-45.0307"/>
<text text-anchor="middle" x="339.6" y="-57.8" font-family="Times New Roman,serif" font-size="14.00">j</text>
</g>
<!-- 3&#45;&gt;1 -->
<g id="edge8" class="edge"><title>3&#45;&gt;1</title>
<path fill="none" stroke="black" d="M245.873,-61.5316C238.022,-63.9199 228.644,-67.1549 220.6,-71 216.205,-73.1006 211.708,-75.6065 207.401,-78.2083"/>
<polygon fill="black" stroke="black" points="205.495,-75.2728 198.925,-83.5846 209.244,-81.184 205.495,-75.2728"/>
<text text-anchor="middle" x="224.1" y="-74.8" font-family="Times New Roman,serif" font-size="14.00">z</text>
</g>
<!-- 3&#45;&gt;2 -->
<g id="edge7" class="edge"><title>3&#45;&gt;2</title>
<path fill="none" stroke="black" d="M279.933,-48.9192C289.855,-43.69 302.987,-36.7692 314.31,-30.8013"/>
<polygon fill="black" stroke="black" points="316.072,-33.8292 323.287,-26.0705 312.808,-27.6366 316.072,-33.8292"/>
<text text-anchor="middle" x="301.6" y="-40.8" font-family="Times New Roman,serif" font-size="14.00">j</text>
</g>
</g>
</svg>
