<?xml version="1.0" encoding="UTF-8" standalone="no"?>
<!DOCTYPE svg PUBLIC "-//W3C//DTD SVG 1.1//EN"
 "http://www.w3.org/Graphics/SVG/1.1/DTD/svg11.dtd">
<!-- Generated by graphviz version 2.38.0 (20140413.2041)
 -->
<!-- Title: dfa Pages: 1 -->
<svg width="377pt" height="179pt"
 viewBox="0.00 0.00 376.60 179.00" xmlns="http://www.w3.org/2000/svg" xmlns:xlink="http://www.w3.org/1999/xlink">
<g id="graph0" class="graph" transform="scale(1 1) rotate(0) translate(4 175)">
<title>dfa</title>
<polygon fill="white" stroke="none" points="-4,4 -4,-175 372.6,-175 372.6,4 -4,4"/>
<!-- __start -->
<!-- 0 -->
<g id="node2" class="node"><title>0</title>
<ellipse fill="none" stroke="black" cx="91.6" cy="-153" rx="27" ry="18"/>
<text text-anchor="middle" x="91.6" y="-149.3" font-family="Times New Roman,serif" font-size="14.00">0</text>
</g>
<!-- __start&#45;&gt;0 -->
<g id="edge1" class="edge"><title>__start&#45;&gt;0</title>
<path fill="none" stroke="black" d="M3.78604,-153C8.86985,-153 32.7092,-153 54.1222,-153"/>
<polygon fill="black" stroke="black" points="54.3463,-156.5 64.3463,-153 54.3463,-149.5 54.3463,-156.5"/>
<text text-anchor="middle" x="34.1" y="-156.8" font-family="Times New Roman,serif" font-size="14.00">start</text>
</g>
<!-- 1 -->
<g id="node3" class="node"><title>1</title>
<ellipse fill="none" stroke="black" cx="180.6" cy="-93" rx="18" ry="18"/>
<ellipse fill="none" stroke="black" cx="180.6" cy="-93" rx="22" ry="22"/>
<text text-anchor="middle" x="180.6" y="-89.3" font-family="Times New Roman,serif" font-size="14.00">1</text>
</g>
<!-- 0&#45;&gt;1 -->
<g id="edge2" class="edge"><title>0&#45;&gt;1</title>
<path fill="none" stroke="black" d="M111.05,-140.276C123.407,-131.754 139.855,-120.41 153.542,-110.971"/>
<polygon fill="black" stroke="black" points="155.821,-113.651 162.066,-105.092 151.847,-107.888 155.821,-113.651"/>
<text text-anchor="middle" x="138.6" y="-124.8" font-family="Times New Roman,serif" font-size="14.00">j</text>
</g>
<!-- 3 -->
<g id="node5" class="node"><title>3</title>
<ellipse fill="none" stroke="black" cx="346.6" cy="-122" rx="18" ry="18"/>
<text text-anchor="middle" x="346.6" y="-118.3" font-family="Times New Roman,serif" font-size="14.00">3</text>
</g>
<!-- 0&#45;&gt;3 -->
<g id="edge3" class="edge"><title>0&#45;&gt;3</title>
<path fill="none" stroke="black" d="M118.601,-154.94C130.746,-155.753 145.405,-156.601 158.6,-157 178.147,-157.592 183.185,-159.341 202.6,-157 244.184,-151.985 291.127,-139.049 319.528,-130.387"/>
<polygon fill="black" stroke="black" points="320.596,-133.72 329.108,-127.412 318.52,-127.035 320.596,-133.72"/>
<text text-anchor="middle" x="224.1" y="-157.8" font-family="Times New Roman,serif" font-size="14.00">z</text>
</g>
<!-- 1&#45;&gt;1 -->
<g id="edge5" class="edge"><title>1&#45;&gt;1</title>
<path fill="none" stroke="black" d="M172.917,-113.991C171.969,-124.087 174.53,-133 180.6,-133 184.489,-133 186.937,-129.342 187.946,-124.059"/>
<polygon fill="black" stroke="black" points="191.446,-124.102 188.283,-113.991 184.45,-123.868 191.446,-124.102"/>
<text text-anchor="middle" x="180.6" y="-136.8" font-family="Times New Roman,serif" font-size="14.00">z</text>
</g>
<!-- 4 -->
<g id="node6" class="node"><title>4</title>
<ellipse fill="none" stroke="black" cx="263.6" cy="-75" rx="18" ry="18"/>
<text text-anchor="middle" x="263.6" y="-71.3" font-family="Times New Roman,serif" font-size="14.00">4</text>
</g>
<!-- 1&#45;&gt;4 -->
<g id="edge4" class="edge"><title>1&#45;&gt;4</title>
<path fill="none" stroke="black" d="M202.46,-88.3646C212.69,-86.0911 225.126,-83.3275 236.029,-80.9046"/>
<polygon fill="black" stroke="black" points="236.888,-84.2993 245.89,-78.7132 235.369,-77.466 236.888,-84.2993"/>
<text text-anchor="middle" x="224.1" y="-87.8" font-family="Times New Roman,serif" font-size="14.00">j</text>
</g>
<!-- 2 -->
<g id="node4" class="node"><title>2</title>
<ellipse fill="none" stroke="black" cx="346.6" cy="-22" rx="18" ry="18"/>
<ellipse fill="none" stroke="black" cx="346.6" cy="-22" rx="22" ry="22"/>
<text text-anchor="middle" x="346.6" y="-18.3" font-family="Times New Roman,serif" font-size="14.00">2</text>
</g>
<!-- 2&#45;&gt;1 -->
<g id="edge9" class="edge"><title>2&#45;&gt;1</title>
<path fill="none" stroke="black" d="M324.274,-20.5401C303.293,-19.9577 270.827,-21.389 245.6,-33 228.299,-40.9628 212.63,-55.4624 201.126,-68.2128"/>
<polygon fill="black" stroke="black" points="198.415,-65.9971 194.524,-75.8517 203.711,-70.5743 198.415,-65.9971"/>
<text text-anchor="middle" x="263.6" y="-36.8" font-family="Times New Roman,serif" font-size="14.00">z</text>
</g>
<!-- 2&#45;&gt;2 -->
<g id="edge8" class="edge"><title>2&#45;&gt;2</title>
<path fill="none" stroke="black" d="M338.917,-42.9908C337.969,-53.0872 340.53,-62 346.6,-62 350.489,-62 352.937,-58.3422 353.946,-53.0587"/>
<polygon fill="black" stroke="black" points="357.446,-53.1023 354.283,-42.9908 350.45,-52.868 357.446,-53.1023"/>
<text text-anchor="middle" x="346.6" y="-65.8" font-family="Times New Roman,serif" font-size="14.00">j</text>
</g>
<!-- 3&#45;&gt;1 -->
<g id="edge11" class="edge"><title>3&#45;&gt;1</title>
<path fill="none" stroke="black" d="M328.526,-120.42C319.847,-119.546 309.143,-118.363 299.6,-117 264.3,-111.959 255.451,-110.545 220.6,-103 217.782,-102.39 214.859,-101.717 211.939,-101.017"/>
<polygon fill="black" stroke="black" points="212.725,-97.6057 202.176,-98.5859 211.034,-104.398 212.725,-97.6057"/>
<text text-anchor="middle" x="263.6" y="-117.8" font-family="Times New Roman,serif" font-size="14.00">z</text>
</g>
<!-- 3&#45;&gt;4 -->
<g id="edge10" class="edge"><title>3&#45;&gt;4</title>
<path fill="none" stroke="black" d="M337.267,-106.571C330.547,-95.8612 320.015,-82.409 306.6,-76 302.067,-73.8345 296.933,-72.7618 291.85,-72.3507"/>
<polygon fill="black" stroke="black" points="291.713,-68.85 281.695,-72.2978 291.676,-75.8499 291.713,-68.85"/>
<text text-anchor="middle" x="303.1" y="-79.8" font-family="Times New Roman,serif" font-size="14.00">j</text>
</g>
<!-- 4&#45;&gt;2 -->
<g id="edge6" class="edge"><title>4&#45;&gt;2</title>
<path fill="none" stroke="black" d="M279.081,-65.5247C290.28,-58.1973 306.081,-47.8584 319.472,-39.0958"/>
<polygon fill="black" stroke="black" points="321.401,-42.0167 327.852,-33.6126 317.568,-36.1592 321.401,-42.0167"/>
<text text-anchor="middle" x="303.1" y="-54.8" font-family="Times New Roman,serif" font-size="14.00">j</text>
</g>
<!-- 4&#45;&gt;3 -->
<g id="edge7" class="edge"><title>4&#45;&gt;3</title>
<path fill="none" stroke="black" d="M279.457,-83.6205C291.257,-90.4677 307.992,-100.178 321.675,-108.118"/>
<polygon fill="black" stroke="black" points="320.157,-111.283 330.563,-113.275 323.67,-105.229 320.157,-111.283"/>
<text text-anchor="middle" x="303.1" y="-101.8" font-family="Times New Roman,serif" font-size="14.00">z</text>
</g>
</g>
</svg>
