<?xml version="1.0" encoding="UTF-8" standalone="no"?>
<!DOCTYPE svg PUBLIC "-//W3C//DTD SVG 1.1//EN"
 "http://www.w3.org/Graphics/SVG/1.1/DTD/svg11.dtd">
<!-- Generated by graphviz version 2.38.0 (20140413.2041)
 -->
<!-- Title: dfa Pages: 1 -->
<svg width="479pt" height="219pt"
 viewBox="0.00 0.00 479.18 219.20" xmlns="http://www.w3.org/2000/svg" xmlns:xlink="http://www.w3.org/1999/xlink">
<g id="graph0" class="graph" transform="scale(1 1) rotate(0) translate(4 215.196)">
<title>dfa</title>
<polygon fill="white" stroke="none" points="-4,4 -4,-215.196 475.181,-215.196 475.181,4 -4,4"/>
<!-- __start -->
<!-- {0} -->
<g id="node2" class="node"><title>{0}</title>
<ellipse fill="none" stroke="black" cx="91.6" cy="-189.196" rx="27" ry="18"/>
<text text-anchor="middle" x="91.6" y="-185.496" font-family="Times New Roman,serif" font-size="14.00">{0}</text>
</g>
<!-- __start&#45;&gt;{0} -->
<g id="edge1" class="edge"><title>__start&#45;&gt;{0}</title>
<path fill="none" stroke="black" d="M3.78604,-189.196C8.86985,-189.196 32.7092,-189.196 54.1222,-189.196"/>
<polygon fill="black" stroke="black" points="54.3463,-192.696 64.3463,-189.196 54.3463,-185.696 54.3463,-192.696"/>
<text text-anchor="middle" x="34.1" y="-192.996" font-family="Times New Roman,serif" font-size="14.00">start</text>
</g>
<!-- {1,3} -->
<g id="node3" class="node"><title>{1,3}</title>
<ellipse fill="none" stroke="black" cx="193.147" cy="-119.196" rx="30.5892" ry="30.5892"/>
<ellipse fill="none" stroke="black" cx="193.147" cy="-119.196" rx="34.5946" ry="34.5946"/>
<text text-anchor="middle" x="193.147" y="-115.496" font-family="Times New Roman,serif" font-size="14.00">{1,3}</text>
</g>
<!-- {0}&#45;&gt;{1,3} -->
<g id="edge2" class="edge"><title>{0}&#45;&gt;{1,3}</title>
<path fill="none" stroke="black" d="M110.859,-176.357C123.456,-167.499 140.629,-155.423 155.946,-144.652"/>
<polygon fill="black" stroke="black" points="158.057,-147.447 164.223,-138.832 154.03,-141.721 158.057,-147.447"/>
<text text-anchor="middle" x="138.6" y="-160.996" font-family="Times New Roman,serif" font-size="14.00">j</text>
</g>
<!-- {3} -->
<g id="node5" class="node"><title>{3}</title>
<ellipse fill="none" stroke="black" cx="422.985" cy="-175.196" rx="24.0958" ry="24.0958"/>
<text text-anchor="middle" x="422.985" y="-171.496" font-family="Times New Roman,serif" font-size="14.00">{3}</text>
</g>
<!-- {0}&#45;&gt;{3} -->
<g id="edge3" class="edge"><title>{0}&#45;&gt;{3}</title>
<path fill="none" stroke="black" d="M118.251,-192.554C130.45,-193.987 145.252,-195.49 158.6,-196.196 241.605,-200.586 339.065,-188.24 388.929,-180.651"/>
<polygon fill="black" stroke="black" points="389.77,-184.062 399.113,-179.065 388.693,-177.145 389.77,-184.062"/>
<text text-anchor="middle" x="249.195" y="-199.996" font-family="Times New Roman,serif" font-size="14.00">z</text>
</g>
<!-- {1,3}&#45;&gt;{1,3} -->
<g id="edge5" class="edge"><title>{1,3}&#45;&gt;{1,3}</title>
<path fill="none" stroke="black" d="M183.023,-152.294C183.075,-163.122 186.45,-171.743 193.147,-171.743 197.542,-171.743 200.507,-168.03 202.04,-162.418"/>
<polygon fill="black" stroke="black" points="205.538,-162.644 203.272,-152.294 198.589,-161.798 205.538,-162.644"/>
<text text-anchor="middle" x="193.147" y="-175.543" font-family="Times New Roman,serif" font-size="14.00">z</text>
</g>
<!-- {0,2} -->
<g id="node6" class="node"><title>{0,2}</title>
<ellipse fill="none" stroke="black" cx="301.242" cy="-111.196" rx="30.5947" ry="30.5947"/>
<text text-anchor="middle" x="301.242" y="-107.496" font-family="Times New Roman,serif" font-size="14.00">{0,2}</text>
</g>
<!-- {1,3}&#45;&gt;{0,2} -->
<g id="edge4" class="edge"><title>{1,3}&#45;&gt;{0,2}</title>
<path fill="none" stroke="black" d="M227.716,-116.665C238.113,-115.881 249.67,-115.009 260.447,-114.197"/>
<polygon fill="black" stroke="black" points="260.768,-117.683 270.477,-113.44 260.242,-110.702 260.768,-117.683"/>
<text text-anchor="middle" x="249.195" y="-118.996" font-family="Times New Roman,serif" font-size="14.00">j</text>
</g>
<!-- {0,1,2,3} -->
<g id="node4" class="node"><title>{0,1,2,3}</title>
<ellipse fill="none" stroke="black" cx="422.985" cy="-48.1961" rx="44.3766" ry="44.3766"/>
<ellipse fill="none" stroke="black" cx="422.985" cy="-48.1961" rx="48.393" ry="48.393"/>
<text text-anchor="middle" x="422.985" y="-44.4961" font-family="Times New Roman,serif" font-size="14.00">{0,1,2,3}</text>
</g>
<!-- {0,1,2,3}&#45;&gt;{1,3} -->
<g id="edge9" class="edge"><title>{0,1,2,3}&#45;&gt;{1,3}</title>
<path fill="none" stroke="black" d="M374.72,-43.2464C344.053,-41.8105 303.791,-43.3317 270.695,-56.1961 253.529,-62.8682 237.34,-74.9688 224.311,-86.7944"/>
<polygon fill="black" stroke="black" points="221.886,-84.2705 217.02,-93.6823 226.693,-89.3587 221.886,-84.2705"/>
<text text-anchor="middle" x="301.242" y="-59.9961" font-family="Times New Roman,serif" font-size="14.00">z</text>
</g>
<!-- {0,1,2,3}&#45;&gt;{0,1,2,3} -->
<g id="edge8" class="edge"><title>{0,1,2,3}&#45;&gt;{0,1,2,3}</title>
<path fill="none" stroke="black" d="M410.46,-94.8981C411.439,-106.095 415.614,-114.392 422.985,-114.392 427.938,-114.392 431.447,-110.647 433.514,-104.793"/>
<polygon fill="black" stroke="black" points="436.964,-105.393 435.51,-94.8981 430.102,-104.009 436.964,-105.393"/>
<text text-anchor="middle" x="422.985" y="-118.192" font-family="Times New Roman,serif" font-size="14.00">j</text>
</g>
<!-- {3}&#45;&gt;{1,3} -->
<g id="edge11" class="edge"><title>{3}&#45;&gt;{1,3}</title>
<path fill="none" stroke="black" d="M398.805,-173.251C368.794,-170.342 315.081,-163.798 270.695,-151.196 258.462,-147.723 245.563,-142.84 233.912,-137.932"/>
<polygon fill="black" stroke="black" points="235.028,-134.601 224.461,-133.834 232.244,-141.023 235.028,-134.601"/>
<text text-anchor="middle" x="301.242" y="-168.996" font-family="Times New Roman,serif" font-size="14.00">z</text>
</g>
<!-- {3}&#45;&gt;{0,2} -->
<g id="edge10" class="edge"><title>{3}&#45;&gt;{0,2}</title>
<path fill="none" stroke="black" d="M403.09,-161.398C394.246,-154.687 383.719,-146.328 374.789,-138.196 366.189,-130.364 367.112,-124.557 356.789,-119.196 352.182,-116.804 347.079,-115.066 341.897,-113.812"/>
<polygon fill="black" stroke="black" points="342.416,-110.349 331.944,-111.955 341.132,-117.23 342.416,-110.349"/>
<text text-anchor="middle" x="353.289" y="-122.996" font-family="Times New Roman,serif" font-size="14.00">j</text>
</g>
<!-- {0,2}&#45;&gt;{0,1,2,3} -->
<g id="edge6" class="edge"><title>{0,2}&#45;&gt;{0,1,2,3}</title>
<path fill="none" stroke="black" d="M324.919,-91.1972C332.479,-85.1884 341.177,-78.9398 349.789,-74.1961 355.303,-71.159 361.24,-68.3574 367.258,-65.8077"/>
<polygon fill="black" stroke="black" points="368.75,-68.9802 376.73,-62.0107 366.146,-62.4828 368.75,-68.9802"/>
<text text-anchor="middle" x="353.289" y="-77.9961" font-family="Times New Roman,serif" font-size="14.00">j</text>
</g>
<!-- {0,2}&#45;&gt;{3} -->
<g id="edge7" class="edge"><title>{0,2}&#45;&gt;{3}</title>
<path fill="none" stroke="black" d="M328.52,-125.241C347.334,-135.297 372.691,-148.85 392.247,-159.302"/>
<polygon fill="black" stroke="black" points="390.858,-162.528 401.327,-164.155 394.158,-156.354 390.858,-162.528"/>
<text text-anchor="middle" x="353.289" y="-143.996" font-family="Times New Roman,serif" font-size="14.00">z</text>
</g>
</g>
</svg>
