<?xml version="1.0" encoding="UTF-8" standalone="no"?>
<!DOCTYPE svg PUBLIC "-//W3C//DTD SVG 1.1//EN"
 "http://www.w3.org/Graphics/SVG/1.1/DTD/svg11.dtd">
<!-- Generated by graphviz version 2.38.0 (20140413.2041)
 -->
<!-- Title: dfa Pages: 1 -->
<svg width="473pt" height="221pt"
 viewBox="0.00 0.00 473.28 221.24" xmlns="http://www.w3.org/2000/svg" xmlns:xlink="http://www.w3.org/1999/xlink">
<g id="graph0" class="graph" transform="scale(1 1) rotate(0) translate(4 217.244)">
<title>dfa</title>
<polygon fill="white" stroke="none" points="-4,4 -4,-217.244 469.277,-217.244 469.277,4 -4,4"/>
<!-- __start -->
<!-- {0} -->
<g id="node2" class="node"><title>{0}</title>
<ellipse fill="none" stroke="black" cx="88.6479" cy="-189.196" rx="24.0958" ry="24.0958"/>
<text text-anchor="middle" x="88.6479" y="-185.496" font-family="Times New Roman,serif" font-size="14.00">{0}</text>
</g>
<!-- __start&#45;&gt;{0} -->
<g id="edge1" class="edge"><title>__start&#45;&gt;{0}</title>
<path fill="none" stroke="black" d="M3.75288,-189.196C8.82222,-189.196 33.1893,-189.196 54.3658,-189.196"/>
<polygon fill="black" stroke="black" points="54.4068,-192.696 64.4067,-189.196 54.4067,-185.696 54.4068,-192.696"/>
<text text-anchor="middle" x="34.1" y="-192.996" font-family="Times New Roman,serif" font-size="14.00">start</text>
</g>
<!-- {1,3} -->
<g id="node3" class="node"><title>{1,3}</title>
<ellipse fill="none" stroke="black" cx="187.243" cy="-119.196" rx="30.5892" ry="30.5892"/>
<ellipse fill="none" stroke="black" cx="187.243" cy="-119.196" rx="34.5946" ry="34.5946"/>
<text text-anchor="middle" x="187.243" y="-115.496" font-family="Times New Roman,serif" font-size="14.00">{1,3}</text>
</g>
<!-- {0}&#45;&gt;{1,3} -->
<g id="edge2" class="edge"><title>{0}&#45;&gt;{1,3}</title>
<path fill="none" stroke="black" d="M108.732,-175.366C120.682,-166.706 136.454,-155.277 150.65,-144.99"/>
<polygon fill="black" stroke="black" points="152.741,-147.796 158.785,-139.094 148.634,-142.128 152.741,-147.796"/>
<text text-anchor="middle" x="132.696" y="-162.996" font-family="Times New Roman,serif" font-size="14.00">j</text>
</g>
<!-- {3} -->
<g id="node5" class="node"><title>{3}</title>
<ellipse fill="none" stroke="black" cx="417.081" cy="-175.196" rx="24.0958" ry="24.0958"/>
<text text-anchor="middle" x="417.081" y="-171.496" font-family="Times New Roman,serif" font-size="14.00">{3}</text>
</g>
<!-- {0}&#45;&gt;{3} -->
<g id="edge3" class="edge"><title>{0}&#45;&gt;{3}</title>
<path fill="none" stroke="black" d="M112.655,-192.369C124.577,-193.856 139.39,-195.46 152.696,-196.196 235.69,-200.789 333.155,-188.359 383.022,-180.703"/>
<polygon fill="black" stroke="black" points="383.871,-184.113 393.206,-179.103 382.784,-177.197 383.871,-184.113"/>
<text text-anchor="middle" x="243.29" y="-199.996" font-family="Times New Roman,serif" font-size="14.00">z</text>
</g>
<!-- {1,3}&#45;&gt;{1,3} -->
<g id="edge5" class="edge"><title>{1,3}&#45;&gt;{1,3}</title>
<path fill="none" stroke="black" d="M177.119,-152.294C177.171,-163.122 180.546,-171.743 187.243,-171.743 191.638,-171.743 194.602,-168.03 196.136,-162.418"/>
<polygon fill="black" stroke="black" points="199.634,-162.644 197.367,-152.294 192.685,-161.798 199.634,-162.644"/>
<text text-anchor="middle" x="187.243" y="-175.543" font-family="Times New Roman,serif" font-size="14.00">z</text>
</g>
<!-- {0,2} -->
<g id="node6" class="node"><title>{0,2}</title>
<ellipse fill="none" stroke="black" cx="295.338" cy="-111.196" rx="30.5947" ry="30.5947"/>
<text text-anchor="middle" x="295.338" y="-107.496" font-family="Times New Roman,serif" font-size="14.00">{0,2}</text>
</g>
<!-- {1,3}&#45;&gt;{0,2} -->
<g id="edge4" class="edge"><title>{1,3}&#45;&gt;{0,2}</title>
<path fill="none" stroke="black" d="M221.812,-116.665C232.209,-115.881 243.766,-115.009 254.542,-114.197"/>
<polygon fill="black" stroke="black" points="254.864,-117.683 264.573,-113.44 254.338,-110.702 254.864,-117.683"/>
<text text-anchor="middle" x="243.29" y="-118.996" font-family="Times New Roman,serif" font-size="14.00">j</text>
</g>
<!-- {0,1,2,3} -->
<g id="node4" class="node"><title>{0,1,2,3}</title>
<ellipse fill="none" stroke="black" cx="417.081" cy="-48.1961" rx="44.3766" ry="44.3766"/>
<ellipse fill="none" stroke="black" cx="417.081" cy="-48.1961" rx="48.393" ry="48.393"/>
<text text-anchor="middle" x="417.081" y="-44.4961" font-family="Times New Roman,serif" font-size="14.00">{0,1,2,3}</text>
</g>
<!-- {0,1,2,3}&#45;&gt;{1,3} -->
<g id="edge9" class="edge"><title>{0,1,2,3}&#45;&gt;{1,3}</title>
<path fill="none" stroke="black" d="M368.816,-43.2464C338.149,-41.8105 297.886,-43.3317 264.79,-56.1961 247.625,-62.8682 231.436,-74.9688 218.406,-86.7944"/>
<polygon fill="black" stroke="black" points="215.981,-84.2705 211.116,-93.6823 220.789,-89.3587 215.981,-84.2705"/>
<text text-anchor="middle" x="295.338" y="-59.9961" font-family="Times New Roman,serif" font-size="14.00">z</text>
</g>
<!-- {0,1,2,3}&#45;&gt;{0,1,2,3} -->
<g id="edge8" class="edge"><title>{0,1,2,3}&#45;&gt;{0,1,2,3}</title>
<path fill="none" stroke="black" d="M404.556,-94.8981C405.535,-106.095 409.71,-114.392 417.081,-114.392 422.033,-114.392 425.543,-110.647 427.61,-104.793"/>
<polygon fill="black" stroke="black" points="431.06,-105.393 429.606,-94.8981 424.198,-104.009 431.06,-105.393"/>
<text text-anchor="middle" x="417.081" y="-118.192" font-family="Times New Roman,serif" font-size="14.00">j</text>
</g>
<!-- {3}&#45;&gt;{1,3} -->
<g id="edge11" class="edge"><title>{3}&#45;&gt;{1,3}</title>
<path fill="none" stroke="black" d="M392.9,-173.251C362.89,-170.342 309.177,-163.798 264.79,-151.196 252.558,-147.723 239.659,-142.84 228.008,-137.932"/>
<polygon fill="black" stroke="black" points="229.124,-134.601 218.557,-133.834 226.339,-141.023 229.124,-134.601"/>
<text text-anchor="middle" x="295.338" y="-168.996" font-family="Times New Roman,serif" font-size="14.00">z</text>
</g>
<!-- {3}&#45;&gt;{0,2} -->
<g id="edge10" class="edge"><title>{3}&#45;&gt;{0,2}</title>
<path fill="none" stroke="black" d="M397.186,-161.398C388.342,-154.687 377.815,-146.328 368.885,-138.196 360.284,-130.364 361.208,-124.557 350.885,-119.196 346.278,-116.804 341.175,-115.066 335.993,-113.812"/>
<polygon fill="black" stroke="black" points="336.512,-110.349 326.039,-111.955 335.228,-117.23 336.512,-110.349"/>
<text text-anchor="middle" x="347.385" y="-122.996" font-family="Times New Roman,serif" font-size="14.00">j</text>
</g>
<!-- {0,2}&#45;&gt;{0,1,2,3} -->
<g id="edge6" class="edge"><title>{0,2}&#45;&gt;{0,1,2,3}</title>
<path fill="none" stroke="black" d="M319.015,-91.1972C326.575,-85.1884 335.273,-78.9398 343.885,-74.1961 349.398,-71.159 355.336,-68.3574 361.354,-65.8077"/>
<polygon fill="black" stroke="black" points="362.846,-68.9802 370.826,-62.0107 360.242,-62.4828 362.846,-68.9802"/>
<text text-anchor="middle" x="347.385" y="-77.9961" font-family="Times New Roman,serif" font-size="14.00">j</text>
</g>
<!-- {0,2}&#45;&gt;{3} -->
<g id="edge7" class="edge"><title>{0,2}&#45;&gt;{3}</title>
<path fill="none" stroke="black" d="M322.616,-125.241C341.43,-135.297 366.787,-148.85 386.343,-159.302"/>
<polygon fill="black" stroke="black" points="384.954,-162.528 395.423,-164.155 388.253,-156.354 384.954,-162.528"/>
<text text-anchor="middle" x="347.385" y="-143.996" font-family="Times New Roman,serif" font-size="14.00">z</text>
</g>
</g>
</svg>
