<?xml version="1.0" encoding="UTF-8" standalone="no"?>
<!DOCTYPE svg PUBLIC "-//W3C//DTD SVG 1.1//EN"
 "http://www.w3.org/Graphics/SVG/1.1/DTD/svg11.dtd">
<!-- Generated by graphviz version 2.38.0 (20140413.2041)
 -->
<!-- Title: enfa Pages: 1 -->
<svg width="277pt" height="121pt"
 viewBox="0.00 0.00 276.60 121.00" xmlns="http://www.w3.org/2000/svg" xmlns:xlink="http://www.w3.org/1999/xlink">
<g id="graph0" class="graph" transform="scale(1 1) rotate(0) translate(4 117)">
<title>enfa</title>
<polygon fill="white" stroke="none" points="-4,4 -4,-117 272.6,-117 272.6,4 -4,4"/>
<!-- __start -->
<!-- 0 -->
<g id="node2" class="node"><title>0</title>
<ellipse fill="none" stroke="black" cx="82.6" cy="-57" rx="18" ry="18"/>
<text text-anchor="middle" x="82.6" y="-53.3" font-family="Times New Roman,serif" font-size="14.00">0</text>
</g>
<!-- __start&#45;&gt;0 -->
<g id="edge1" class="edge"><title>__start&#45;&gt;0</title>
<path fill="none" stroke="black" d="M3.68496,-57C8.69573,-57 34.008,-57 54.4423,-57"/>
<polygon fill="black" stroke="black" points="54.5501,-60.5001 64.5501,-57 54.5501,-53.5001 54.5501,-60.5001"/>
<text text-anchor="middle" x="34.1" y="-60.8" font-family="Times New Roman,serif" font-size="14.00">start</text>
</g>
<!-- 1 -->
<g id="node3" class="node"><title>1</title>
<ellipse fill="none" stroke="black" cx="166.6" cy="-91" rx="18" ry="18"/>
<ellipse fill="none" stroke="black" cx="166.6" cy="-91" rx="22" ry="22"/>
<text text-anchor="middle" x="166.6" y="-87.3" font-family="Times New Roman,serif" font-size="14.00">1</text>
</g>
<!-- 0&#45;&gt;1 -->
<g id="edge6" class="edge"><title>0&#45;&gt;1</title>
<path fill="none" stroke="black" d="M93.4784,-71.343C99.6878,-79.0407 108.438,-87.7907 118.6,-92 123.562,-94.0555 129.08,-94.9881 134.538,-95.2392"/>
<polygon fill="black" stroke="black" points="134.887,-98.7321 144.802,-94.9985 134.723,-91.734 134.887,-98.7321"/>
<text text-anchor="middle" x="122.6" y="-97.8" font-family="Times New Roman,serif" font-size="14.00">h</text>
</g>
<!-- 2 -->
<g id="node4" class="node"><title>2</title>
<ellipse fill="none" stroke="black" cx="166.6" cy="-22" rx="18" ry="18"/>
<ellipse fill="none" stroke="black" cx="166.6" cy="-22" rx="22" ry="22"/>
<text text-anchor="middle" x="166.6" y="-18.3" font-family="Times New Roman,serif" font-size="14.00">2</text>
</g>
<!-- 0&#45;&gt;2 -->
<g id="edge5" class="edge"><title>0&#45;&gt;2</title>
<path fill="none" stroke="black" d="M99.4104,-50.2516C110.017,-45.7244 124.296,-39.6298 136.876,-34.2602"/>
<polygon fill="black" stroke="black" points="138.253,-37.4781 146.076,-30.3334 135.505,-31.04 138.253,-37.4781"/>
<text text-anchor="middle" x="122.6" y="-44.8" font-family="Times New Roman,serif" font-size="14.00">h</text>
</g>
<!-- 1&#45;&gt;0 -->
<g id="edge2" class="edge"><title>1&#45;&gt;0</title>
<path fill="none" stroke="black" d="M146.076,-82.9047C134.934,-78.2847 120.843,-72.4421 108.864,-67.4755"/>
<polygon fill="black" stroke="black" points="109.988,-64.1527 99.4104,-63.5555 107.307,-70.6189 109.988,-64.1527"/>
<text text-anchor="middle" x="122.6" y="-77.8" font-family="Times New Roman,serif" font-size="14.00">o</text>
</g>
<!-- 3 -->
<g id="node5" class="node"><title>3</title>
<ellipse fill="none" stroke="black" cx="250.6" cy="-91" rx="18" ry="18"/>
<text text-anchor="middle" x="250.6" y="-87.3" font-family="Times New Roman,serif" font-size="14.00">3</text>
</g>
<!-- 1&#45;&gt;3 -->
<g id="edge3" class="edge"><title>1&#45;&gt;3</title>
<path fill="none" stroke="black" d="M188.717,-91C198.896,-91 211.232,-91 222.131,-91"/>
<polygon fill="black" stroke="black" points="222.418,-94.5001 232.418,-91 222.418,-87.5001 222.418,-94.5001"/>
<text text-anchor="middle" x="210.6" y="-94.8" font-family="Times New Roman,serif" font-size="14.00">o</text>
</g>
<!-- 1&#45;&gt;3 -->
<g id="edge4" class="edge"><title>1&#45;&gt;3</title>
<path fill="none" stroke="black" d="M185.073,-78.1607C193.762,-73.2811 204.534,-69.444 214.6,-72 218.558,-73.005 222.553,-74.5577 226.356,-76.3517"/>
<polygon fill="black" stroke="black" points="224.821,-79.4996 235.289,-81.1343 228.125,-73.3284 224.821,-79.4996"/>
<text text-anchor="middle" x="210.6" y="-75.8" font-family="Times New Roman,serif" font-size="14.00">h</text>
</g>
<!-- 2&#45;&gt;0 -->
<g id="edge7" class="edge"><title>2&#45;&gt;0</title>
<path fill="none" stroke="black" d="M144.76,-17.2699C136.332,-16.3226 126.701,-16.5117 118.6,-20 111.342,-23.1253 104.885,-28.5782 99.5557,-34.3525"/>
<polygon fill="black" stroke="black" points="96.7063,-32.3055 93.017,-42.2373 102.095,-36.7739 96.7063,-32.3055"/>
<text text-anchor="middle" x="122.6" y="-23.8" font-family="Times New Roman,serif" font-size="14.00">h</text>
</g>
</g>
</svg>
