<?xml version="1.0" encoding="UTF-8" standalone="no"?>
<!DOCTYPE svg PUBLIC "-//W3C//DTD SVG 1.1//EN"
 "http://www.w3.org/Graphics/SVG/1.1/DTD/svg11.dtd">
<!-- Generated by graphviz version 2.38.0 (20140413.2041)
 -->
<!-- Title: enfa Pages: 1 -->
<svg width="295pt" height="121pt"
 viewBox="0.00 0.00 294.60 121.00" xmlns="http://www.w3.org/2000/svg" xmlns:xlink="http://www.w3.org/1999/xlink">
<g id="graph0" class="graph" transform="scale(1 1) rotate(0) translate(4 117)">
<title>enfa</title>
<polygon fill="white" stroke="none" points="-4,4 -4,-117 290.6,-117 290.6,4 -4,4"/>
<!-- __start -->
<!-- 0 -->
<g id="node2" class="node"><title>0</title>
<ellipse fill="none" stroke="black" cx="91.6" cy="-57" rx="27" ry="18"/>
<text text-anchor="middle" x="91.6" y="-53.3" font-family="Times New Roman,serif" font-size="14.00">0</text>
</g>
<!-- __start&#45;&gt;0 -->
<g id="edge1" class="edge"><title>__start&#45;&gt;0</title>
<path fill="none" stroke="black" d="M3.78604,-57C8.86985,-57 32.7092,-57 54.1222,-57"/>
<polygon fill="black" stroke="black" points="54.3463,-60.5001 64.3463,-57 54.3463,-53.5001 54.3463,-60.5001"/>
<text text-anchor="middle" x="34.1" y="-60.8" font-family="Times New Roman,serif" font-size="14.00">start</text>
</g>
<!-- 1 -->
<g id="node3" class="node"><title>1</title>
<ellipse fill="none" stroke="black" cx="184.6" cy="-91" rx="18" ry="18"/>
<ellipse fill="none" stroke="black" cx="184.6" cy="-91" rx="22" ry="22"/>
<text text-anchor="middle" x="184.6" y="-87.3" font-family="Times New Roman,serif" font-size="14.00">1</text>
</g>
<!-- 0&#45;&gt;1 -->
<g id="edge6" class="edge"><title>0&#45;&gt;1</title>
<path fill="none" stroke="black" d="M106.517,-72.1372C114.493,-79.6731 125.173,-88.0095 136.6,-92 141.577,-93.7381 147.035,-94.5354 152.414,-94.7561"/>
<polygon fill="black" stroke="black" points="152.581,-98.2536 162.513,-94.5654 152.449,-91.2549 152.581,-98.2536"/>
<text text-anchor="middle" x="140.6" y="-96.8" font-family="Times New Roman,serif" font-size="14.00">h</text>
</g>
<!-- 2 -->
<g id="node4" class="node"><title>2</title>
<ellipse fill="none" stroke="black" cx="184.6" cy="-22" rx="18" ry="18"/>
<ellipse fill="none" stroke="black" cx="184.6" cy="-22" rx="22" ry="22"/>
<text text-anchor="middle" x="184.6" y="-18.3" font-family="Times New Roman,serif" font-size="14.00">2</text>
</g>
<!-- 0&#45;&gt;2 -->
<g id="edge5" class="edge"><title>0&#45;&gt;2</title>
<path fill="none" stroke="black" d="M115.563,-48.168C127.279,-43.6619 141.662,-38.1299 154.181,-33.3149"/>
<polygon fill="black" stroke="black" points="155.658,-36.4969 163.735,-29.6403 153.145,-29.9635 155.658,-36.4969"/>
<text text-anchor="middle" x="140.6" y="-42.8" font-family="Times New Roman,serif" font-size="14.00">h</text>
</g>
<!-- 1&#45;&gt;0 -->
<g id="edge2" class="edge"><title>1&#45;&gt;0</title>
<path fill="none" stroke="black" d="M163.735,-83.5779C152.426,-79.3524 137.98,-73.955 125.064,-69.1294"/>
<polygon fill="black" stroke="black" points="126.156,-65.801 115.563,-65.5796 123.706,-72.3583 126.156,-65.801"/>
<text text-anchor="middle" x="140.6" y="-79.8" font-family="Times New Roman,serif" font-size="14.00">o</text>
</g>
<!-- 3 -->
<g id="node5" class="node"><title>3</title>
<ellipse fill="none" stroke="black" cx="268.6" cy="-91" rx="18" ry="18"/>
<text text-anchor="middle" x="268.6" y="-87.3" font-family="Times New Roman,serif" font-size="14.00">3</text>
</g>
<!-- 1&#45;&gt;3 -->
<g id="edge3" class="edge"><title>1&#45;&gt;3</title>
<path fill="none" stroke="black" d="M206.717,-91C216.896,-91 229.232,-91 240.131,-91"/>
<polygon fill="black" stroke="black" points="240.418,-94.5001 250.418,-91 240.418,-87.5001 240.418,-94.5001"/>
<text text-anchor="middle" x="228.6" y="-94.8" font-family="Times New Roman,serif" font-size="14.00">o</text>
</g>
<!-- 1&#45;&gt;3 -->
<g id="edge4" class="edge"><title>1&#45;&gt;3</title>
<path fill="none" stroke="black" d="M203.073,-78.1607C211.762,-73.2811 222.534,-69.444 232.6,-72 236.558,-73.005 240.553,-74.5577 244.356,-76.3517"/>
<polygon fill="black" stroke="black" points="242.821,-79.4996 253.289,-81.1343 246.125,-73.3284 242.821,-79.4996"/>
<text text-anchor="middle" x="228.6" y="-75.8" font-family="Times New Roman,serif" font-size="14.00">h</text>
</g>
<!-- 2&#45;&gt;0 -->
<g id="edge7" class="edge"><title>2&#45;&gt;0</title>
<path fill="none" stroke="black" d="M162.928,-16.3894C154.526,-15.0844 144.869,-14.8627 136.6,-18 127.682,-21.3833 119.413,-27.4923 112.506,-33.8866"/>
<polygon fill="black" stroke="black" points="109.63,-31.8158 105.068,-41.3779 114.597,-36.7481 109.63,-31.8158"/>
<text text-anchor="middle" x="140.6" y="-21.8" font-family="Times New Roman,serif" font-size="14.00">h</text>
</g>
</g>
</svg>
