<?xml version="1.0" encoding="UTF-8" standalone="no"?>
<!DOCTYPE svg PUBLIC "-//W3C//DTD SVG 1.1//EN"
 "http://www.w3.org/Graphics/SVG/1.1/DTD/svg11.dtd">
<!-- Generated by graphviz version 2.38.0 (20140413.2041)
 -->
<!-- Title: dfa Pages: 1 -->
<svg width="215pt" height="172pt"
 viewBox="0.00 0.00 214.60 172.00" xmlns="http://www.w3.org/2000/svg" xmlns:xlink="http://www.w3.org/1999/xlink">
<g id="graph0" class="graph" transform="scale(1 1) rotate(0) translate(4 168)">
<title>dfa</title>
<polygon fill="white" stroke="none" points="-4,4 -4,-168 210.6,-168 210.6,4 -4,4"/>
<!-- __start -->
<!-- 0 -->
<g id="node2" class="node"><title>0</title>
<ellipse fill="none" stroke="black" cx="91.6" cy="-104" rx="27" ry="18"/>
<text text-anchor="middle" x="91.6" y="-100.3" font-family="Times New Roman,serif" font-size="14.00">0</text>
</g>
<!-- __start&#45;&gt;0 -->
<g id="edge1" class="edge"><title>__start&#45;&gt;0</title>
<path fill="none" stroke="black" d="M3.78604,-104C8.86985,-104 32.7092,-104 54.1222,-104"/>
<polygon fill="black" stroke="black" points="54.3463,-107.5 64.3463,-104 54.3463,-100.5 54.3463,-107.5"/>
<text text-anchor="middle" x="34.1" y="-107.8" font-family="Times New Roman,serif" font-size="14.00">start</text>
</g>
<!-- 1 -->
<g id="node3" class="node"><title>1</title>
<ellipse fill="none" stroke="black" cx="184.6" cy="-142" rx="18" ry="18"/>
<ellipse fill="none" stroke="black" cx="184.6" cy="-142" rx="22" ry="22"/>
<text text-anchor="middle" x="184.6" y="-138.3" font-family="Times New Roman,serif" font-size="14.00">1</text>
</g>
<!-- 0&#45;&gt;1 -->
<g id="edge3" class="edge"><title>0&#45;&gt;1</title>
<path fill="none" stroke="black" d="M107.012,-119.21C114.975,-126.568 125.488,-134.718 136.6,-139 141.528,-140.899 146.962,-142.031 152.332,-142.662"/>
<polygon fill="black" stroke="black" points="152.222,-146.162 162.431,-143.327 152.682,-139.177 152.222,-146.162"/>
<text text-anchor="middle" x="140.6" y="-144.8" font-family="Times New Roman,serif" font-size="14.00">h</text>
</g>
<!-- 2 -->
<g id="node4" class="node"><title>2</title>
<ellipse fill="none" stroke="black" cx="184.6" cy="-18" rx="18" ry="18"/>
<text text-anchor="middle" x="184.6" y="-14.3" font-family="Times New Roman,serif" font-size="14.00">2</text>
</g>
<!-- 0&#45;&gt;2 -->
<g id="edge2" class="edge"><title>0&#45;&gt;2</title>
<path fill="none" stroke="black" d="M108.037,-89.4113C123.289,-74.9972 146.699,-52.8736 163.418,-37.0731"/>
<polygon fill="black" stroke="black" points="166.159,-39.2983 171.023,-29.886 161.351,-34.2108 166.159,-39.2983"/>
<text text-anchor="middle" x="140.6" y="-64.8" font-family="Times New Roman,serif" font-size="14.00">o</text>
</g>
<!-- 1&#45;&gt;0 -->
<g id="edge6" class="edge"><title>1&#45;&gt;0</title>
<path fill="none" stroke="black" d="M165.368,-130.642C158.955,-126.938 151.599,-123.009 144.6,-120 138.985,-117.586 132.887,-115.37 126.908,-113.407"/>
<polygon fill="black" stroke="black" points="127.654,-109.973 117.066,-110.35 125.578,-116.658 127.654,-109.973"/>
<text text-anchor="middle" x="140.6" y="-123.8" font-family="Times New Roman,serif" font-size="14.00">o</text>
</g>
<!-- 1&#45;&gt;0 -->
<g id="edge7" class="edge"><title>1&#45;&gt;0</title>
<path fill="none" stroke="black" d="M172.393,-123.111C165.654,-113.679 156.143,-103.193 144.6,-98 138.972,-95.468 132.671,-94.7014 126.45,-94.9419"/>
<polygon fill="black" stroke="black" points="125.705,-91.5058 116.189,-96.1633 126.533,-98.4567 125.705,-91.5058"/>
<text text-anchor="middle" x="140.6" y="-101.8" font-family="Times New Roman,serif" font-size="14.00">h</text>
</g>
<!-- 2&#45;&gt;2 -->
<g id="edge4" class="edge"><title>2&#45;&gt;2</title>
<path fill="none" stroke="black" d="M180.645,-35.7817C179.973,-45.3149 181.291,-54 184.6,-54 186.616,-54 187.893,-50.7749 188.431,-46.0981"/>
<polygon fill="black" stroke="black" points="191.935,-45.823 188.555,-35.7817 184.935,-45.7391 191.935,-45.823"/>
<text text-anchor="middle" x="184.6" y="-57.8" font-family="Times New Roman,serif" font-size="14.00">o</text>
</g>
<!-- 2&#45;&gt;2 -->
<g id="edge5" class="edge"><title>2&#45;&gt;2</title>
<path fill="none" stroke="black" d="M178.224,-34.8636C174.353,-52.3779 176.479,-72 184.6,-72 191.198,-72 193.839,-59.0463 192.521,-44.7944"/>
<polygon fill="black" stroke="black" points="195.972,-44.2068 190.976,-34.8636 189.055,-45.2827 195.972,-44.2068"/>
<text text-anchor="middle" x="184.6" y="-75.8" font-family="Times New Roman,serif" font-size="14.00">h</text>
</g>
</g>
</svg>
