<?xml version="1.0" encoding="UTF-8" standalone="no"?>
<!DOCTYPE svg PUBLIC "-//W3C//DTD SVG 1.1//EN"
 "http://www.w3.org/Graphics/SVG/1.1/DTD/svg11.dtd">
<!-- Generated by graphviz version 2.38.0 (20140413.2041)
 -->
<!-- Title: dfa Pages: 1 -->
<svg width="197pt" height="172pt"
 viewBox="0.00 0.00 196.60 172.00" xmlns="http://www.w3.org/2000/svg" xmlns:xlink="http://www.w3.org/1999/xlink">
<g id="graph0" class="graph" transform="scale(1 1) rotate(0) translate(4 168)">
<title>dfa</title>
<polygon fill="white" stroke="none" points="-4,4 -4,-168 192.6,-168 192.6,4 -4,4"/>
<!-- __start -->
<!-- 0 -->
<g id="node2" class="node"><title>0</title>
<ellipse fill="none" stroke="black" cx="82.6" cy="-104" rx="18" ry="18"/>
<text text-anchor="middle" x="82.6" y="-100.3" font-family="Times New Roman,serif" font-size="14.00">0</text>
</g>
<!-- __start&#45;&gt;0 -->
<g id="edge1" class="edge"><title>__start&#45;&gt;0</title>
<path fill="none" stroke="black" d="M3.68496,-104C8.69573,-104 34.008,-104 54.4423,-104"/>
<polygon fill="black" stroke="black" points="54.5501,-107.5 64.5501,-104 54.5501,-100.5 54.5501,-107.5"/>
<text text-anchor="middle" x="34.1" y="-107.8" font-family="Times New Roman,serif" font-size="14.00">start</text>
</g>
<!-- 1 -->
<g id="node3" class="node"><title>1</title>
<ellipse fill="none" stroke="black" cx="166.6" cy="-142" rx="18" ry="18"/>
<ellipse fill="none" stroke="black" cx="166.6" cy="-142" rx="22" ry="22"/>
<text text-anchor="middle" x="166.6" y="-138.3" font-family="Times New Roman,serif" font-size="14.00">1</text>
</g>
<!-- 0&#45;&gt;1 -->
<g id="edge3" class="edge"><title>0&#45;&gt;1</title>
<path fill="none" stroke="black" d="M93.8774,-118.46C100.101,-125.991 108.734,-134.54 118.6,-139 123.412,-141.176 128.789,-142.444 134.138,-143.125"/>
<polygon fill="black" stroke="black" points="134.026,-146.625 144.235,-143.794 134.488,-139.641 134.026,-146.625"/>
<text text-anchor="middle" x="122.6" y="-144.8" font-family="Times New Roman,serif" font-size="14.00">h</text>
</g>
<!-- 2 -->
<g id="node4" class="node"><title>2</title>
<ellipse fill="none" stroke="black" cx="166.6" cy="-18" rx="18" ry="18"/>
<text text-anchor="middle" x="166.6" y="-14.3" font-family="Times New Roman,serif" font-size="14.00">2</text>
</g>
<!-- 0&#45;&gt;2 -->
<g id="edge2" class="edge"><title>0&#45;&gt;2</title>
<path fill="none" stroke="black" d="M95.6994,-91.3104C109.023,-77.3372 130.63,-54.6756 146.299,-38.2429"/>
<polygon fill="black" stroke="black" points="149.083,-40.3943 153.451,-30.7417 144.017,-35.5638 149.083,-40.3943"/>
<text text-anchor="middle" x="122.6" y="-69.8" font-family="Times New Roman,serif" font-size="14.00">o</text>
</g>
<!-- 1&#45;&gt;0 -->
<g id="edge6" class="edge"><title>1&#45;&gt;0</title>
<path fill="none" stroke="black" d="M147.266,-130.872C140.844,-127.186 133.509,-123.21 126.6,-120 121.272,-117.525 115.446,-115.148 109.85,-113.018"/>
<polygon fill="black" stroke="black" points="110.777,-109.631 100.183,-109.483 108.373,-116.205 110.777,-109.631"/>
<text text-anchor="middle" x="122.6" y="-123.8" font-family="Times New Roman,serif" font-size="14.00">o</text>
</g>
<!-- 1&#45;&gt;0 -->
<g id="edge7" class="edge"><title>1&#45;&gt;0</title>
<path fill="none" stroke="black" d="M152.889,-124.506C144.23,-113.182 133.183,-100.006 126.6,-97 121.268,-94.5652 115.223,-94.2461 109.386,-94.9849"/>
<polygon fill="black" stroke="black" points="108.304,-91.6401 99.3027,-97.2288 109.824,-98.473 108.304,-91.6401"/>
<text text-anchor="middle" x="122.6" y="-100.8" font-family="Times New Roman,serif" font-size="14.00">h</text>
</g>
<!-- 2&#45;&gt;2 -->
<g id="edge4" class="edge"><title>2&#45;&gt;2</title>
<path fill="none" stroke="black" d="M162.645,-35.7817C161.973,-45.3149 163.291,-54 166.6,-54 168.616,-54 169.893,-50.7749 170.431,-46.0981"/>
<polygon fill="black" stroke="black" points="173.935,-45.823 170.555,-35.7817 166.935,-45.7391 173.935,-45.823"/>
<text text-anchor="middle" x="166.6" y="-57.8" font-family="Times New Roman,serif" font-size="14.00">o</text>
</g>
<!-- 2&#45;&gt;2 -->
<g id="edge5" class="edge"><title>2&#45;&gt;2</title>
<path fill="none" stroke="black" d="M160.224,-34.8636C156.353,-52.3779 158.479,-72 166.6,-72 173.198,-72 175.839,-59.0463 174.521,-44.7944"/>
<polygon fill="black" stroke="black" points="177.972,-44.2068 172.976,-34.8636 171.055,-45.2827 177.972,-44.2068"/>
<text text-anchor="middle" x="166.6" y="-75.8" font-family="Times New Roman,serif" font-size="14.00">h</text>
</g>
</g>
</svg>
