<?xml version="1.0" encoding="UTF-8" standalone="no"?>
<!DOCTYPE svg PUBLIC "-//W3C//DTD SVG 1.1//EN"
 "http://www.w3.org/Graphics/SVG/1.1/DTD/svg11.dtd">
<!-- Generated by graphviz version 2.38.0 (20140413.2041)
 -->
<!-- Title: dfa Pages: 1 -->
<svg width="421pt" height="118pt"
 viewBox="0.00 0.00 420.88 117.55" xmlns="http://www.w3.org/2000/svg" xmlns:xlink="http://www.w3.org/1999/xlink">
<g id="graph0" class="graph" transform="scale(1 1) rotate(0) translate(4 113.546)">
<title>dfa</title>
<polygon fill="white" stroke="none" points="-4,4 -4,-113.546 416.881,-113.546 416.881,4 -4,4"/>
<!-- __start -->
<!-- {0} -->
<g id="node2" class="node"><title>{0}</title>
<ellipse fill="none" stroke="black" cx="88.6479" cy="-24.0479" rx="24.0958" ry="24.0958"/>
<text text-anchor="middle" x="88.6479" y="-20.3479" font-family="Times New Roman,serif" font-size="14.00">{0}</text>
</g>
<!-- __start&#45;&gt;{0} -->
<g id="edge1" class="edge"><title>__start&#45;&gt;{0}</title>
<path fill="none" stroke="black" d="M3.75288,-24.0479C8.82222,-24.0479 33.1893,-24.0479 54.3658,-24.0479"/>
<polygon fill="black" stroke="black" points="54.4068,-27.548 64.4067,-24.0479 54.4067,-20.548 54.4068,-27.548"/>
<text text-anchor="middle" x="34.1" y="-27.8479" font-family="Times New Roman,serif" font-size="14.00">start</text>
</g>
<!-- {1,2} -->
<g id="node3" class="node"><title>{1,2}</title>
<ellipse fill="none" stroke="black" cx="190.243" cy="-68.0479" rx="30.5892" ry="30.5892"/>
<ellipse fill="none" stroke="black" cx="190.243" cy="-68.0479" rx="34.5946" ry="34.5946"/>
<text text-anchor="middle" x="190.243" y="-64.3479" font-family="Times New Roman,serif" font-size="14.00">{1,2}</text>
</g>
<!-- {0}&#45;&gt;{1,2} -->
<g id="edge3" class="edge"><title>{0}&#45;&gt;{1,2}</title>
<path fill="none" stroke="black" d="M111.259,-33.5952C122.307,-38.4764 136.116,-44.5771 149.031,-50.2829"/>
<polygon fill="black" stroke="black" points="147.664,-53.505 158.225,-54.3446 150.493,-47.102 147.664,-53.505"/>
<text text-anchor="middle" x="134.196" y="-48.8479" font-family="Times New Roman,serif" font-size="14.00">h</text>
</g>
<!-- {} -->
<g id="node4" class="node"><title>{}</title>
<ellipse fill="none" stroke="black" cx="393.383" cy="-24.0479" rx="19.4965" ry="19.4965"/>
<text text-anchor="middle" x="393.383" y="-20.3479" font-family="Times New Roman,serif" font-size="14.00">{}</text>
</g>
<!-- {0}&#45;&gt;{} -->
<g id="edge2" class="edge"><title>{0}&#45;&gt;{}</title>
<path fill="none" stroke="black" d="M112.9,-24.0479C167.514,-24.0479 303.859,-24.0479 363.588,-24.0479"/>
<polygon fill="black" stroke="black" points="363.812,-27.548 373.812,-24.0479 363.812,-20.548 363.812,-27.548"/>
<text text-anchor="middle" x="246.79" y="-27.8479" font-family="Times New Roman,serif" font-size="14.00">o</text>
</g>
<!-- {0,3} -->
<g id="node5" class="node"><title>{0,3}</title>
<ellipse fill="none" stroke="black" cx="299.338" cy="-66.0479" rx="30.5947" ry="30.5947"/>
<text text-anchor="middle" x="299.338" y="-62.3479" font-family="Times New Roman,serif" font-size="14.00">{0,3}</text>
</g>
<!-- {1,2}&#45;&gt;{0,3} -->
<g id="edge6" class="edge"><title>{1,2}&#45;&gt;{0,3}</title>
<path fill="none" stroke="black" d="M219.543,-86.6257C229.277,-90.9463 240.354,-93.6244 250.79,-91.0479 255.187,-89.9624 259.627,-88.3891 263.935,-86.5521"/>
<polygon fill="black" stroke="black" points="265.563,-89.6539 273.089,-82.1965 262.555,-83.333 265.563,-89.6539"/>
<text text-anchor="middle" x="246.79" y="-94.8479" font-family="Times New Roman,serif" font-size="14.00">o</text>
</g>
<!-- {1,2}&#45;&gt;{0,3} -->
<g id="edge7" class="edge"><title>{1,2}&#45;&gt;{0,3}</title>
<path fill="none" stroke="black" d="M224.835,-67.4205C235.433,-67.2226 247.249,-67.0019 258.254,-66.7964"/>
<polygon fill="black" stroke="black" points="258.557,-70.2915 268.49,-66.6053 258.427,-63.2927 258.557,-70.2915"/>
<text text-anchor="middle" x="246.79" y="-70.8479" font-family="Times New Roman,serif" font-size="14.00">h</text>
</g>
<!-- {}&#45;&gt;{} -->
<g id="edge4" class="edge"><title>{}&#45;&gt;{}</title>
<path fill="none" stroke="black" d="M389.744,-43.3415C389.24,-52.9635 390.453,-61.5461 393.383,-61.5461 395.168,-61.5461 396.316,-58.3591 396.827,-53.6919"/>
<polygon fill="black" stroke="black" points="400.333,-53.4059 397.022,-43.3415 393.334,-53.2735 400.333,-53.4059"/>
<text text-anchor="middle" x="393.383" y="-65.3461" font-family="Times New Roman,serif" font-size="14.00">o</text>
</g>
<!-- {}&#45;&gt;{} -->
<g id="edge5" class="edge"><title>{}&#45;&gt;{}</title>
<path fill="none" stroke="black" d="M387.319,-42.8121C384.174,-60.4325 386.196,-79.5461 393.383,-79.5461 399.223,-79.5461 401.652,-66.9281 400.672,-52.7452"/>
<polygon fill="black" stroke="black" points="404.144,-52.3089 399.448,-42.8121 397.197,-53.1651 404.144,-52.3089"/>
<text text-anchor="middle" x="393.383" y="-83.3461" font-family="Times New Roman,serif" font-size="14.00">h</text>
</g>
<!-- {0,3}&#45;&gt;{1,2} -->
<g id="edge9" class="edge"><title>{0,3}&#45;&gt;{1,2}</title>
<path fill="none" stroke="black" d="M272.46,-51.186C263.243,-47.5103 252.692,-45.1082 242.79,-47.0479 238.953,-47.7996 235.04,-48.8384 231.172,-50.0548"/>
<polygon fill="black" stroke="black" points="229.989,-46.7607 221.718,-53.3818 232.313,-53.3637 229.989,-46.7607"/>
<text text-anchor="middle" x="246.79" y="-50.8479" font-family="Times New Roman,serif" font-size="14.00">h</text>
</g>
<!-- {0,3}&#45;&gt;{} -->
<g id="edge8" class="edge"><title>{0,3}&#45;&gt;{}</title>
<path fill="none" stroke="black" d="M327.456,-53.6736C339.675,-48.0985 354.045,-41.5415 366.155,-36.0155"/>
<polygon fill="black" stroke="black" points="367.655,-39.1786 375.299,-31.8432 364.749,-32.8103 367.655,-39.1786"/>
<text text-anchor="middle" x="351.885" y="-47.8479" font-family="Times New Roman,serif" font-size="14.00">o</text>
</g>
</g>
</svg>
