<?xml version="1.0" encoding="UTF-8" standalone="no"?>
<!DOCTYPE svg PUBLIC "-//W3C//DTD SVG 1.1//EN"
 "http://www.w3.org/Graphics/SVG/1.1/DTD/svg11.dtd">
<!-- Generated by graphviz version 2.38.0 (20140413.2041)
 -->
<!-- Title: dfa Pages: 1 -->
<svg width="427pt" height="113pt"
 viewBox="0.00 0.00 426.79 113.00" xmlns="http://www.w3.org/2000/svg" xmlns:xlink="http://www.w3.org/1999/xlink">
<g id="graph0" class="graph" transform="scale(1 1) rotate(0) translate(4 108.997)">
<title>dfa</title>
<polygon fill="white" stroke="none" points="-4,4 -4,-108.997 422.786,-108.997 422.786,4 -4,4"/>
<!-- __start -->
<!-- {0} -->
<g id="node2" class="node"><title>{0}</title>
<ellipse fill="none" stroke="black" cx="91.6" cy="-19.4983" rx="27" ry="18"/>
<text text-anchor="middle" x="91.6" y="-15.7983" font-family="Times New Roman,serif" font-size="14.00">{0}</text>
</g>
<!-- __start&#45;&gt;{0} -->
<g id="edge1" class="edge"><title>__start&#45;&gt;{0}</title>
<path fill="none" stroke="black" d="M3.78604,-19.4983C8.86985,-19.4983 32.7092,-19.4983 54.1222,-19.4983"/>
<polygon fill="black" stroke="black" points="54.3463,-22.9984 64.3463,-19.4983 54.3463,-15.9984 54.3463,-22.9984"/>
<text text-anchor="middle" x="34.1" y="-23.2983" font-family="Times New Roman,serif" font-size="14.00">start</text>
</g>
<!-- {1,2} -->
<g id="node3" class="node"><title>{1,2}</title>
<ellipse fill="none" stroke="black" cx="196.147" cy="-63.4983" rx="30.5892" ry="30.5892"/>
<ellipse fill="none" stroke="black" cx="196.147" cy="-63.4983" rx="34.5946" ry="34.5946"/>
<text text-anchor="middle" x="196.147" y="-59.7983" font-family="Times New Roman,serif" font-size="14.00">{1,2}</text>
</g>
<!-- {0}&#45;&gt;{1,2} -->
<g id="edge3" class="edge"><title>{0}&#45;&gt;{1,2}</title>
<path fill="none" stroke="black" d="M114.599,-28.9374C126.362,-33.9845 141.216,-40.358 154.955,-46.2531"/>
<polygon fill="black" stroke="black" points="153.668,-49.5091 164.237,-50.2358 156.428,-43.0762 153.668,-49.5091"/>
<text text-anchor="middle" x="140.1" y="-44.2983" font-family="Times New Roman,serif" font-size="14.00">h</text>
</g>
<!-- {} -->
<g id="node4" class="node"><title>{}</title>
<ellipse fill="none" stroke="black" cx="399.287" cy="-19.4983" rx="19.4965" ry="19.4965"/>
<text text-anchor="middle" x="399.287" y="-15.7983" font-family="Times New Roman,serif" font-size="14.00">{}</text>
</g>
<!-- {0}&#45;&gt;{} -->
<g id="edge2" class="edge"><title>{0}&#45;&gt;{}</title>
<path fill="none" stroke="black" d="M118.663,-19.4983C175.478,-19.4983 310.135,-19.4983 369.419,-19.4983"/>
<polygon fill="black" stroke="black" points="369.575,-22.9984 379.575,-19.4983 369.575,-15.9984 369.575,-22.9984"/>
<text text-anchor="middle" x="252.695" y="-23.2983" font-family="Times New Roman,serif" font-size="14.00">o</text>
</g>
<!-- {0,3} -->
<g id="node5" class="node"><title>{0,3}</title>
<ellipse fill="none" stroke="black" cx="305.242" cy="-61.4983" rx="30.5947" ry="30.5947"/>
<text text-anchor="middle" x="305.242" y="-57.7983" font-family="Times New Roman,serif" font-size="14.00">{0,3}</text>
</g>
<!-- {1,2}&#45;&gt;{0,3} -->
<g id="edge6" class="edge"><title>{1,2}&#45;&gt;{0,3}</title>
<path fill="none" stroke="black" d="M225.448,-82.0761C235.181,-86.3967 246.258,-89.0748 256.695,-86.4983 261.092,-85.4128 265.531,-83.8395 269.84,-82.0025"/>
<polygon fill="black" stroke="black" points="271.467,-85.1043 278.993,-77.6469 268.459,-78.7834 271.467,-85.1043"/>
<text text-anchor="middle" x="252.695" y="-90.2983" font-family="Times New Roman,serif" font-size="14.00">o</text>
</g>
<!-- {1,2}&#45;&gt;{0,3} -->
<g id="edge7" class="edge"><title>{1,2}&#45;&gt;{0,3}</title>
<path fill="none" stroke="black" d="M230.739,-62.8709C241.338,-62.673 253.154,-62.4523 264.158,-62.2468"/>
<polygon fill="black" stroke="black" points="264.462,-65.7419 274.394,-62.0557 264.331,-58.7431 264.462,-65.7419"/>
<text text-anchor="middle" x="252.695" y="-66.2983" font-family="Times New Roman,serif" font-size="14.00">h</text>
</g>
<!-- {}&#45;&gt;{} -->
<g id="edge4" class="edge"><title>{}&#45;&gt;{}</title>
<path fill="none" stroke="black" d="M395.648,-38.7919C395.145,-48.4139 396.358,-56.9965 399.287,-56.9965 401.073,-56.9965 402.221,-53.8095 402.731,-49.1423"/>
<polygon fill="black" stroke="black" points="406.237,-48.8563 402.927,-38.7919 399.238,-48.7239 406.237,-48.8563"/>
<text text-anchor="middle" x="399.287" y="-60.7965" font-family="Times New Roman,serif" font-size="14.00">o</text>
</g>
<!-- {}&#45;&gt;{} -->
<g id="edge5" class="edge"><title>{}&#45;&gt;{}</title>
<path fill="none" stroke="black" d="M393.223,-38.2625C390.078,-55.8829 392.1,-74.9965 399.287,-74.9965 405.127,-74.9965 407.557,-62.3785 406.576,-48.1956"/>
<polygon fill="black" stroke="black" points="410.049,-47.7594 405.352,-38.2625 403.101,-48.6155 410.049,-47.7594"/>
<text text-anchor="middle" x="399.287" y="-78.7965" font-family="Times New Roman,serif" font-size="14.00">h</text>
</g>
<!-- {0,3}&#45;&gt;{1,2} -->
<g id="edge9" class="edge"><title>{0,3}&#45;&gt;{1,2}</title>
<path fill="none" stroke="black" d="M278.364,-46.6364C269.147,-42.9607 258.597,-40.5586 248.695,-42.4983 244.857,-43.25 240.944,-44.2888 237.077,-45.5052"/>
<polygon fill="black" stroke="black" points="235.894,-42.2111 227.623,-48.8322 238.217,-48.8141 235.894,-42.2111"/>
<text text-anchor="middle" x="252.695" y="-46.2983" font-family="Times New Roman,serif" font-size="14.00">h</text>
</g>
<!-- {0,3}&#45;&gt;{} -->
<g id="edge8" class="edge"><title>{0,3}&#45;&gt;{}</title>
<path fill="none" stroke="black" d="M333.361,-49.124C345.579,-43.5489 359.949,-36.9919 372.06,-31.4659"/>
<polygon fill="black" stroke="black" points="373.559,-34.629 381.204,-27.2936 370.653,-28.2607 373.559,-34.629"/>
<text text-anchor="middle" x="357.789" y="-43.2983" font-family="Times New Roman,serif" font-size="14.00">o</text>
</g>
</g>
</svg>
