<?xml version="1.0" encoding="UTF-8" standalone="no"?>
<!DOCTYPE svg PUBLIC "-//W3C//DTD SVG 1.1//EN"
 "http://www.w3.org/Graphics/SVG/1.1/DTD/svg11.dtd">
<!-- Generated by graphviz version 2.38.0 (20140413.2041)
 -->
<!-- Title: dfa Pages: 1 -->
<svg width="353pt" height="102pt"
 viewBox="0.00 0.00 352.60 101.55" xmlns="http://www.w3.org/2000/svg" xmlns:xlink="http://www.w3.org/1999/xlink">
<g id="graph0" class="graph" transform="scale(1 1) rotate(0) translate(4 97.5502)">
<title>dfa</title>
<polygon fill="white" stroke="none" points="-4,4 -4,-97.5502 348.6,-97.5502 348.6,4 -4,4"/>
<!-- __start -->
<!-- 0 -->
<g id="node2" class="node"><title>0</title>
<ellipse fill="none" stroke="black" cx="82.6" cy="-50.5502" rx="18" ry="18"/>
<text text-anchor="middle" x="82.6" y="-46.8502" font-family="Times New Roman,serif" font-size="14.00">0</text>
</g>
<!-- __start&#45;&gt;0 -->
<g id="edge1" class="edge"><title>__start&#45;&gt;0</title>
<path fill="none" stroke="black" d="M3.68496,-50.5502C8.69573,-50.5502 34.008,-50.5502 54.4423,-50.5502"/>
<polygon fill="black" stroke="black" points="54.5501,-54.0503 64.5501,-50.5502 54.5501,-47.0503 54.5501,-54.0503"/>
<text text-anchor="middle" x="34.1" y="-54.3502" font-family="Times New Roman,serif" font-size="14.00">start</text>
</g>
<!-- 2 -->
<g id="node4" class="node"><title>2</title>
<ellipse fill="none" stroke="black" cx="158.6" cy="-68.5502" rx="18" ry="18"/>
<text text-anchor="middle" x="158.6" y="-64.8502" font-family="Times New Roman,serif" font-size="14.00">2</text>
</g>
<!-- 0&#45;&gt;2 -->
<g id="edge2" class="edge"><title>0&#45;&gt;2</title>
<path fill="none" stroke="black" d="M98.826,-59.027C104.809,-61.9482 111.851,-64.8985 118.6,-66.5502 122.308,-67.4578 126.272,-68.0628 130.2,-68.4545"/>
<polygon fill="black" stroke="black" points="130.122,-71.956 140.312,-69.0545 130.537,-64.9683 130.122,-71.956"/>
<text text-anchor="middle" x="120.6" y="-70.3502" font-family="Times New Roman,serif" font-size="14.00">t</text>
</g>
<!-- 3 -->
<g id="node5" class="node"><title>3</title>
<ellipse fill="none" stroke="black" cx="238.6" cy="-38.5502" rx="18" ry="18"/>
<text text-anchor="middle" x="238.6" y="-34.8502" font-family="Times New Roman,serif" font-size="14.00">3</text>
</g>
<!-- 0&#45;&gt;3 -->
<g id="edge3" class="edge"><title>0&#45;&gt;3</title>
<path fill="none" stroke="black" d="M99.0278,-42.0656C110.2,-36.4246 125.865,-29.5258 140.6,-26.5502 164.427,-21.7385 191.962,-26.0696 211.594,-30.8178"/>
<polygon fill="black" stroke="black" points="210.785,-34.224 221.345,-33.3677 212.556,-27.4517 210.785,-34.224"/>
<text text-anchor="middle" x="158.6" y="-30.3502" font-family="Times New Roman,serif" font-size="14.00">p</text>
</g>
<!-- 1 -->
<g id="node3" class="node"><title>1</title>
<ellipse fill="none" stroke="black" cx="322.6" cy="-38.5502" rx="18" ry="18"/>
<ellipse fill="none" stroke="black" cx="322.6" cy="-38.5502" rx="22" ry="22"/>
<text text-anchor="middle" x="322.6" y="-34.8502" font-family="Times New Roman,serif" font-size="14.00">1</text>
</g>
<!-- 1&#45;&gt;1 -->
<g id="edge9" class="edge"><title>1&#45;&gt;1</title>
<path fill="none" stroke="black" d="M314.594,-59.131C313.486,-69.395 316.155,-78.5502 322.6,-78.5502 326.729,-78.5502 329.308,-74.7929 330.337,-69.3938"/>
<polygon fill="black" stroke="black" points="333.843,-69.2193 330.606,-59.131 326.845,-69.0359 333.843,-69.2193"/>
<text text-anchor="middle" x="322.6" y="-82.3502" font-family="Times New Roman,serif" font-size="14.00">p</text>
</g>
<!-- 1&#45;&gt;3 -->
<g id="edge8" class="edge"><title>1&#45;&gt;3</title>
<path fill="none" stroke="black" d="M300.553,-36.2489C292.445,-35.6138 283.096,-35.1868 274.6,-35.5502 272.041,-35.6597 269.379,-35.814 266.718,-35.9955"/>
<polygon fill="black" stroke="black" points="266.363,-32.5126 256.671,-36.7927 266.917,-39.4906 266.363,-32.5126"/>
<text text-anchor="middle" x="278.6" y="-39.3502" font-family="Times New Roman,serif" font-size="14.00">t</text>
</g>
<!-- 2&#45;&gt;0 -->
<g id="edge4" class="edge"><title>2&#45;&gt;0</title>
<path fill="none" stroke="black" d="M143.763,-57.8803C137.63,-53.8008 130.112,-49.6309 122.6,-47.5502 118.845,-46.5102 114.814,-46.087 110.82,-46.0565"/>
<polygon fill="black" stroke="black" points="110.292,-42.5837 100.546,-46.7386 110.756,-49.5683 110.292,-42.5837"/>
<text text-anchor="middle" x="120.6" y="-51.3502" font-family="Times New Roman,serif" font-size="14.00">t</text>
</g>
<!-- 2&#45;&gt;3 -->
<g id="edge5" class="edge"><title>2&#45;&gt;3</title>
<path fill="none" stroke="black" d="M175.762,-62.3342C186.22,-58.3118 200.062,-52.9881 211.997,-48.3974"/>
<polygon fill="black" stroke="black" points="213.382,-51.6149 221.459,-44.7583 210.869,-45.0814 213.382,-51.6149"/>
<text text-anchor="middle" x="198.6" y="-57.3502" font-family="Times New Roman,serif" font-size="14.00">p</text>
</g>
<!-- 3&#45;&gt;1 -->
<g id="edge6" class="edge"><title>3&#45;&gt;1</title>
<path fill="none" stroke="black" d="M254.784,-47.2104C260.761,-50.1541 267.811,-53.0719 274.6,-54.5502 280.751,-55.8895 287.217,-55.1625 293.319,-53.4391"/>
<polygon fill="black" stroke="black" points="294.973,-56.5579 303.122,-49.7871 292.53,-49.9982 294.973,-56.5579"/>
<text text-anchor="middle" x="278.6" y="-58.3502" font-family="Times New Roman,serif" font-size="14.00">t</text>
</g>
<!-- 3&#45;&gt;1 -->
<g id="edge7" class="edge"><title>3&#45;&gt;1</title>
<path fill="none" stroke="black" d="M247.93,-22.9332C255.813,-10.4619 268.513,4.06899 282.6,-1.55023 289.633,-4.35544 296.125,-9.09836 301.712,-14.2692"/>
<polygon fill="black" stroke="black" points="299.24,-16.7472 308.737,-21.4437 304.242,-11.8498 299.24,-16.7472"/>
<text text-anchor="middle" x="278.6" y="-5.35023" font-family="Times New Roman,serif" font-size="14.00">p</text>
</g>
</g>
</svg>
