<?xml version="1.0" encoding="UTF-8" standalone="no"?>
<!DOCTYPE svg PUBLIC "-//W3C//DTD SVG 1.1//EN"
 "http://www.w3.org/Graphics/SVG/1.1/DTD/svg11.dtd">
<!-- Generated by graphviz version 2.38.0 (20140413.2041)
 -->
<!-- Title: dfa Pages: 1 -->
<svg width="371pt" height="102pt"
 viewBox="0.00 0.00 370.60 101.55" xmlns="http://www.w3.org/2000/svg" xmlns:xlink="http://www.w3.org/1999/xlink">
<g id="graph0" class="graph" transform="scale(1 1) rotate(0) translate(4 97.5502)">
<title>dfa</title>
<polygon fill="white" stroke="none" points="-4,4 -4,-97.5502 366.6,-97.5502 366.6,4 -4,4"/>
<!-- __start -->
<!-- 0 -->
<g id="node2" class="node"><title>0</title>
<ellipse fill="none" stroke="black" cx="91.6" cy="-50.5502" rx="27" ry="18"/>
<text text-anchor="middle" x="91.6" y="-46.8502" font-family="Times New Roman,serif" font-size="14.00">0</text>
</g>
<!-- __start&#45;&gt;0 -->
<g id="edge1" class="edge"><title>__start&#45;&gt;0</title>
<path fill="none" stroke="black" d="M3.78604,-50.5502C8.86985,-50.5502 32.7092,-50.5502 54.1222,-50.5502"/>
<polygon fill="black" stroke="black" points="54.3463,-54.0503 64.3463,-50.5502 54.3463,-47.0503 54.3463,-54.0503"/>
<text text-anchor="middle" x="34.1" y="-54.3502" font-family="Times New Roman,serif" font-size="14.00">start</text>
</g>
<!-- 2 -->
<g id="node4" class="node"><title>2</title>
<ellipse fill="none" stroke="black" cx="176.6" cy="-68.5502" rx="18" ry="18"/>
<text text-anchor="middle" x="176.6" y="-64.8502" font-family="Times New Roman,serif" font-size="14.00">2</text>
</g>
<!-- 0&#45;&gt;2 -->
<g id="edge2" class="edge"><title>0&#45;&gt;2</title>
<path fill="none" stroke="black" d="M114.613,-60.0071C121.527,-62.5803 129.271,-65.0646 136.6,-66.5502 140.342,-67.3087 144.324,-67.8303 148.261,-68.1825"/>
<polygon fill="black" stroke="black" points="148.192,-71.6842 158.376,-68.7655 148.594,-64.6958 148.192,-71.6842"/>
<text text-anchor="middle" x="138.6" y="-70.3502" font-family="Times New Roman,serif" font-size="14.00">t</text>
</g>
<!-- 3 -->
<g id="node5" class="node"><title>3</title>
<ellipse fill="none" stroke="black" cx="256.6" cy="-38.5502" rx="18" ry="18"/>
<text text-anchor="middle" x="256.6" y="-34.8502" font-family="Times New Roman,serif" font-size="14.00">3</text>
</g>
<!-- 0&#45;&gt;3 -->
<g id="edge3" class="edge"><title>0&#45;&gt;3</title>
<path fill="none" stroke="black" d="M114.37,-40.4561C126.988,-35.1644 143.351,-29.2368 158.6,-26.5502 182.398,-22.3576 209.735,-26.5428 229.31,-31.0824"/>
<polygon fill="black" stroke="black" points="228.496,-34.4866 239.047,-33.5178 230.195,-27.6958 228.496,-34.4866"/>
<text text-anchor="middle" x="176.6" y="-30.3502" font-family="Times New Roman,serif" font-size="14.00">p</text>
</g>
<!-- 1 -->
<g id="node3" class="node"><title>1</title>
<ellipse fill="none" stroke="black" cx="340.6" cy="-38.5502" rx="18" ry="18"/>
<ellipse fill="none" stroke="black" cx="340.6" cy="-38.5502" rx="22" ry="22"/>
<text text-anchor="middle" x="340.6" y="-34.8502" font-family="Times New Roman,serif" font-size="14.00">1</text>
</g>
<!-- 1&#45;&gt;1 -->
<g id="edge9" class="edge"><title>1&#45;&gt;1</title>
<path fill="none" stroke="black" d="M332.594,-59.131C331.486,-69.395 334.155,-78.5502 340.6,-78.5502 344.729,-78.5502 347.308,-74.7929 348.337,-69.3938"/>
<polygon fill="black" stroke="black" points="351.843,-69.2193 348.606,-59.131 344.845,-69.0359 351.843,-69.2193"/>
<text text-anchor="middle" x="340.6" y="-82.3502" font-family="Times New Roman,serif" font-size="14.00">p</text>
</g>
<!-- 1&#45;&gt;3 -->
<g id="edge8" class="edge"><title>1&#45;&gt;3</title>
<path fill="none" stroke="black" d="M318.553,-36.2489C310.445,-35.6138 301.096,-35.1868 292.6,-35.5502 290.041,-35.6597 287.379,-35.814 284.718,-35.9955"/>
<polygon fill="black" stroke="black" points="284.363,-32.5126 274.671,-36.7927 284.917,-39.4906 284.363,-32.5126"/>
<text text-anchor="middle" x="296.6" y="-39.3502" font-family="Times New Roman,serif" font-size="14.00">t</text>
</g>
<!-- 2&#45;&gt;0 -->
<g id="edge4" class="edge"><title>2&#45;&gt;0</title>
<path fill="none" stroke="black" d="M161.763,-57.8803C155.63,-53.8008 148.112,-49.6309 140.6,-47.5502 136.526,-46.4219 132.187,-45.8572 127.846,-45.6772"/>
<polygon fill="black" stroke="black" points="127.769,-42.178 117.838,-45.8716 127.905,-49.1766 127.769,-42.178"/>
<text text-anchor="middle" x="138.6" y="-51.3502" font-family="Times New Roman,serif" font-size="14.00">t</text>
</g>
<!-- 2&#45;&gt;3 -->
<g id="edge5" class="edge"><title>2&#45;&gt;3</title>
<path fill="none" stroke="black" d="M193.762,-62.3342C204.22,-58.3118 218.062,-52.9881 229.997,-48.3974"/>
<polygon fill="black" stroke="black" points="231.382,-51.6149 239.459,-44.7583 228.869,-45.0814 231.382,-51.6149"/>
<text text-anchor="middle" x="216.6" y="-57.3502" font-family="Times New Roman,serif" font-size="14.00">p</text>
</g>
<!-- 3&#45;&gt;1 -->
<g id="edge6" class="edge"><title>3&#45;&gt;1</title>
<path fill="none" stroke="black" d="M272.784,-47.2104C278.761,-50.1541 285.811,-53.0719 292.6,-54.5502 298.751,-55.8895 305.217,-55.1625 311.319,-53.4391"/>
<polygon fill="black" stroke="black" points="312.973,-56.5579 321.122,-49.7871 310.53,-49.9982 312.973,-56.5579"/>
<text text-anchor="middle" x="296.6" y="-58.3502" font-family="Times New Roman,serif" font-size="14.00">t</text>
</g>
<!-- 3&#45;&gt;1 -->
<g id="edge7" class="edge"><title>3&#45;&gt;1</title>
<path fill="none" stroke="black" d="M265.93,-22.9332C273.813,-10.4619 286.513,4.06899 300.6,-1.55023 307.633,-4.35544 314.125,-9.09836 319.712,-14.2692"/>
<polygon fill="black" stroke="black" points="317.24,-16.7472 326.737,-21.4437 322.242,-11.8498 317.24,-16.7472"/>
<text text-anchor="middle" x="296.6" y="-5.35023" font-family="Times New Roman,serif" font-size="14.00">p</text>
</g>
</g>
</svg>
