<?xml version="1.0" encoding="UTF-8" standalone="no"?>
<!DOCTYPE svg PUBLIC "-//W3C//DTD SVG 1.1//EN"
 "http://www.w3.org/Graphics/SVG/1.1/DTD/svg11.dtd">
<!-- Generated by graphviz version 2.38.0 (20140413.2041)
 -->
<!-- Title: dfa Pages: 1 -->
<svg width="357pt" height="87pt"
 viewBox="0.00 0.00 356.60 87.21" xmlns="http://www.w3.org/2000/svg" xmlns:xlink="http://www.w3.org/1999/xlink">
<g id="graph0" class="graph" transform="scale(1 1) rotate(0) translate(4 83.2124)">
<title>dfa</title>
<polygon fill="white" stroke="none" points="-4,4 -4,-83.2124 352.6,-83.2124 352.6,4 -4,4"/>
<!-- __start -->
<!-- 0 -->
<g id="node2" class="node"><title>0</title>
<ellipse fill="none" stroke="black" cx="82.6" cy="-24.2124" rx="18" ry="18"/>
<text text-anchor="middle" x="82.6" y="-20.5124" font-family="Times New Roman,serif" font-size="14.00">0</text>
</g>
<!-- __start&#45;&gt;0 -->
<g id="edge1" class="edge"><title>__start&#45;&gt;0</title>
<path fill="none" stroke="black" d="M3.68496,-24.2124C8.69573,-24.2124 34.008,-24.2124 54.4423,-24.2124"/>
<polygon fill="black" stroke="black" points="54.5501,-27.7125 64.5501,-24.2124 54.5501,-20.7125 54.5501,-27.7125"/>
<text text-anchor="middle" x="34.1" y="-28.0124" font-family="Times New Roman,serif" font-size="14.00">start</text>
</g>
<!-- 0&#45;&gt;0 -->
<g id="edge2" class="edge"><title>0&#45;&gt;0</title>
<path fill="none" stroke="black" d="M75.5688,-40.8765C74.0063,-50.8374 76.35,-60.2124 82.6,-60.2124 86.6039,-60.2124 89.0047,-56.3649 89.8023,-50.9807"/>
<polygon fill="black" stroke="black" points="93.3001,-50.8158 89.6313,-40.8765 86.3011,-50.9343 93.3001,-50.8158"/>
<text text-anchor="middle" x="82.6" y="-64.0124" font-family="Times New Roman,serif" font-size="14.00">t</text>
</g>
<!-- 3 -->
<g id="node4" class="node"><title>3</title>
<ellipse fill="none" stroke="black" cx="162.6" cy="-24.2124" rx="18" ry="18"/>
<text text-anchor="middle" x="162.6" y="-20.5124" font-family="Times New Roman,serif" font-size="14.00">3</text>
</g>
<!-- 0&#45;&gt;3 -->
<g id="edge3" class="edge"><title>0&#45;&gt;3</title>
<path fill="none" stroke="black" d="M100.911,-24.2124C110.706,-24.2124 123.178,-24.2124 134.265,-24.2124"/>
<polygon fill="black" stroke="black" points="134.338,-27.7125 144.338,-24.2124 134.338,-20.7125 134.338,-27.7125"/>
<text text-anchor="middle" x="122.6" y="-28.0124" font-family="Times New Roman,serif" font-size="14.00">p</text>
</g>
<!-- 1 -->
<g id="node3" class="node"><title>1</title>
<ellipse fill="none" stroke="black" cx="246.6" cy="-24.2124" rx="18" ry="18"/>
<ellipse fill="none" stroke="black" cx="246.6" cy="-24.2124" rx="22" ry="22"/>
<text text-anchor="middle" x="246.6" y="-20.5124" font-family="Times New Roman,serif" font-size="14.00">1</text>
</g>
<!-- 1&#45;&gt;1 -->
<g id="edge5" class="edge"><title>1&#45;&gt;1</title>
<path fill="none" stroke="black" d="M238.594,-44.7932C237.486,-55.0572 240.155,-64.2124 246.6,-64.2124 250.729,-64.2124 253.308,-60.4551 254.337,-55.056"/>
<polygon fill="black" stroke="black" points="257.843,-54.8815 254.606,-44.7932 250.845,-54.6981 257.843,-54.8815"/>
<text text-anchor="middle" x="246.6" y="-68.0124" font-family="Times New Roman,serif" font-size="14.00">p</text>
</g>
<!-- 4 -->
<g id="node5" class="node"><title>4</title>
<ellipse fill="none" stroke="black" cx="330.6" cy="-24.2124" rx="18" ry="18"/>
<text text-anchor="middle" x="330.6" y="-20.5124" font-family="Times New Roman,serif" font-size="14.00">4</text>
</g>
<!-- 1&#45;&gt;4 -->
<g id="edge4" class="edge"><title>1&#45;&gt;4</title>
<path fill="none" stroke="black" d="M266.078,-35.4494C274.628,-39.3588 284.999,-42.303 294.6,-40.2124 298.101,-39.4502 301.671,-38.3052 305.127,-36.9713"/>
<polygon fill="black" stroke="black" points="306.68,-40.1116 314.416,-32.8726 303.854,-33.7073 306.68,-40.1116"/>
<text text-anchor="middle" x="290.6" y="-44.0124" font-family="Times New Roman,serif" font-size="14.00">t</text>
</g>
<!-- 3&#45;&gt;1 -->
<g id="edge6" class="edge"><title>3&#45;&gt;1</title>
<path fill="none" stroke="black" d="M180.99,-24.2124C190.708,-24.2124 203.111,-24.2124 214.447,-24.2124"/>
<polygon fill="black" stroke="black" points="214.45,-27.7125 224.45,-24.2124 214.45,-20.7125 214.45,-27.7125"/>
<text text-anchor="middle" x="202.6" y="-28.0124" font-family="Times New Roman,serif" font-size="14.00">t</text>
</g>
<!-- 3&#45;&gt;1 -->
<g id="edge7" class="edge"><title>3&#45;&gt;1</title>
<path fill="none" stroke="black" d="M177.911,-14.3467C184.002,-10.719 191.363,-7.05021 198.6,-5.21243 205.363,-3.4951 212.445,-4.66373 219,-7.09552"/>
<polygon fill="black" stroke="black" points="217.587,-10.2986 228.127,-11.3732 220.557,-3.9602 217.587,-10.2986"/>
<text text-anchor="middle" x="202.6" y="-9.01243" font-family="Times New Roman,serif" font-size="14.00">p</text>
</g>
<!-- 4&#45;&gt;1 -->
<g id="edge8" class="edge"><title>4&#45;&gt;1</title>
<path fill="none" stroke="black" d="M312.529,-22.4549C306.834,-21.9471 300.449,-21.4627 294.6,-21.2124 289.556,-20.9966 284.21,-21.0595 279.003,-21.2791"/>
<polygon fill="black" stroke="black" points="278.415,-17.8084 268.647,-21.9111 278.841,-24.7954 278.415,-17.8084"/>
<text text-anchor="middle" x="290.6" y="-25.0124" font-family="Times New Roman,serif" font-size="14.00">t</text>
</g>
<!-- 4&#45;&gt;1 -->
<g id="edge9" class="edge"><title>4&#45;&gt;1</title>
<path fill="none" stroke="black" d="M316.241,-12.7829C310.076,-8.24056 302.402,-3.54646 294.6,-1.21243 287.18,1.00722 279.49,-0.802014 272.533,-4.20298"/>
<polygon fill="black" stroke="black" points="270.346,-1.43453 263.593,-9.5984 273.963,-7.42759 270.346,-1.43453"/>
<text text-anchor="middle" x="290.6" y="-5.01243" font-family="Times New Roman,serif" font-size="14.00">p</text>
</g>
</g>
</svg>
