<?xml version="1.0" encoding="UTF-8" standalone="no"?>
<!DOCTYPE svg PUBLIC "-//W3C//DTD SVG 1.1//EN"
 "http://www.w3.org/Graphics/SVG/1.1/DTD/svg11.dtd">
<!-- Generated by graphviz version 2.38.0 (20140413.2041)
 -->
<!-- Title: dfa Pages: 1 -->
<svg width="281pt" height="99pt"
 viewBox="0.00 0.00 280.60 98.66" xmlns="http://www.w3.org/2000/svg" xmlns:xlink="http://www.w3.org/1999/xlink">
<g id="graph0" class="graph" transform="scale(1 1) rotate(0) translate(4 94.6647)">
<title>dfa</title>
<polygon fill="white" stroke="none" points="-4,4 -4,-94.6647 276.6,-94.6647 276.6,4 -4,4"/>
<!-- __start -->
<!-- 0 -->
<g id="node2" class="node"><title>0</title>
<ellipse fill="none" stroke="black" cx="82.6" cy="-39.6647" rx="18" ry="18"/>
<text text-anchor="middle" x="82.6" y="-35.9647" font-family="Times New Roman,serif" font-size="14.00">0</text>
</g>
<!-- __start&#45;&gt;0 -->
<g id="edge1" class="edge"><title>__start&#45;&gt;0</title>
<path fill="none" stroke="black" d="M3.68496,-39.6647C8.69573,-39.6647 34.008,-39.6647 54.4423,-39.6647"/>
<polygon fill="black" stroke="black" points="54.5501,-43.1648 64.5501,-39.6647 54.5501,-36.1648 54.5501,-43.1648"/>
<text text-anchor="middle" x="34.1" y="-43.4647" font-family="Times New Roman,serif" font-size="14.00">start</text>
</g>
<!-- 1 -->
<g id="node3" class="node"><title>1</title>
<ellipse fill="none" stroke="black" cx="168.6" cy="-39.6647" rx="18" ry="18"/>
<ellipse fill="none" stroke="black" cx="168.6" cy="-39.6647" rx="22" ry="22"/>
<text text-anchor="middle" x="168.6" y="-35.9647" font-family="Times New Roman,serif" font-size="14.00">1</text>
</g>
<!-- 0&#45;&gt;1 -->
<g id="edge6" class="edge"><title>0&#45;&gt;1</title>
<path fill="none" stroke="black" d="M101.005,-39.6647C111.189,-39.6647 124.351,-39.6647 136.282,-39.6647"/>
<polygon fill="black" stroke="black" points="136.344,-43.1648 146.344,-39.6647 136.344,-36.1648 136.344,-43.1648"/>
<text text-anchor="middle" x="123.6" y="-43.4647" font-family="Times New Roman,serif" font-size="14.00">c</text>
</g>
<!-- 0&#45;&gt;1 -->
<g id="edge7" class="edge"><title>0&#45;&gt;1</title>
<path fill="none" stroke="black" d="M97.9113,-29.799C104.002,-26.1712 111.363,-22.5025 118.6,-20.6647 126.017,-18.7812 133.834,-20.1715 140.993,-22.8925"/>
<polygon fill="black" stroke="black" points="139.708,-26.156 150.247,-27.2453 142.688,-19.8218 139.708,-26.156"/>
<text text-anchor="middle" x="123.6" y="-24.4647" font-family="Times New Roman,serif" font-size="14.00">w</text>
</g>
<!-- 2 -->
<g id="node4" class="node"><title>2</title>
<ellipse fill="none" stroke="black" cx="254.6" cy="-39.6647" rx="18" ry="18"/>
<text text-anchor="middle" x="254.6" y="-35.9647" font-family="Times New Roman,serif" font-size="14.00">2</text>
</g>
<!-- 1&#45;&gt;2 -->
<g id="edge4" class="edge"><title>1&#45;&gt;2</title>
<path fill="none" stroke="black" d="M183.346,-56.601C190.121,-63.6096 198.915,-70.9559 208.6,-74.6647 219.466,-78.8256 229.842,-71.7837 237.887,-62.9508"/>
<polygon fill="black" stroke="black" points="240.77,-64.9502 244.31,-54.9641 235.316,-60.5633 240.77,-64.9502"/>
<text text-anchor="middle" x="213.6" y="-79.4647" font-family="Times New Roman,serif" font-size="14.00">c</text>
</g>
<!-- 1&#45;&gt;2 -->
<g id="edge5" class="edge"><title>1&#45;&gt;2</title>
<path fill="none" stroke="black" d="M190.797,-39.6647C201.478,-39.6647 214.56,-39.6647 226.015,-39.6647"/>
<polygon fill="black" stroke="black" points="226.367,-43.1648 236.367,-39.6647 226.367,-36.1648 226.367,-43.1648"/>
<text text-anchor="middle" x="213.6" y="-43.4647" font-family="Times New Roman,serif" font-size="14.00">w</text>
</g>
<!-- 2&#45;&gt;1 -->
<g id="edge2" class="edge"><title>2&#45;&gt;1</title>
<path fill="none" stroke="black" d="M238.883,-30.1224C232.85,-26.7477 225.64,-23.3688 218.6,-21.6647 211.498,-19.9455 204.01,-21.0946 197.082,-23.4758"/>
<polygon fill="black" stroke="black" points="195.226,-20.4657 187.444,-27.6556 198.011,-26.8877 195.226,-20.4657"/>
<text text-anchor="middle" x="213.6" y="-25.4647" font-family="Times New Roman,serif" font-size="14.00">c</text>
</g>
<!-- 2&#45;&gt;1 -->
<g id="edge3" class="edge"><title>2&#45;&gt;1</title>
<path fill="none" stroke="black" d="M245.129,-24.0491C236.854,-11.0813 223.377,4.34391 208.6,-1.66468 201.496,-4.55345 194.978,-9.4274 189.388,-14.7382"/>
<polygon fill="black" stroke="black" points="186.733,-12.4501 182.372,-22.1057 191.803,-17.2773 186.733,-12.4501"/>
<text text-anchor="middle" x="213.6" y="-5.46468" font-family="Times New Roman,serif" font-size="14.00">w</text>
</g>
</g>
</svg>
