<?xml version="1.0" encoding="UTF-8" standalone="no"?>
<!DOCTYPE svg PUBLIC "-//W3C//DTD SVG 1.1//EN"
 "http://www.w3.org/Graphics/SVG/1.1/DTD/svg11.dtd">
<!-- Generated by graphviz version 2.38.0 (20140413.2041)
 -->
<!-- Title: dfa Pages: 1 -->
<svg width="199pt" height="178pt"
 viewBox="0.00 0.00 198.60 178.00" xmlns="http://www.w3.org/2000/svg" xmlns:xlink="http://www.w3.org/1999/xlink">
<g id="graph0" class="graph" transform="scale(1 1) rotate(0) translate(4 174)">
<title>dfa</title>
<polygon fill="white" stroke="none" points="-4,4 -4,-174 194.6,-174 194.6,4 -4,4"/>
<!-- __start -->
<!-- 0 -->
<g id="node2" class="node"><title>0</title>
<ellipse fill="none" stroke="black" cx="82.6" cy="-79" rx="18" ry="18"/>
<text text-anchor="middle" x="82.6" y="-75.3" font-family="Times New Roman,serif" font-size="14.00">0</text>
</g>
<!-- __start&#45;&gt;0 -->
<g id="edge1" class="edge"><title>__start&#45;&gt;0</title>
<path fill="none" stroke="black" d="M3.68496,-79C8.69573,-79 34.008,-79 54.4423,-79"/>
<polygon fill="black" stroke="black" points="54.5501,-82.5001 64.5501,-79 54.5501,-75.5001 54.5501,-82.5001"/>
<text text-anchor="middle" x="34.1" y="-82.8" font-family="Times New Roman,serif" font-size="14.00">start</text>
</g>
<!-- 2 -->
<g id="node3" class="node"><title>2</title>
<ellipse fill="none" stroke="black" cx="168.6" cy="-136" rx="18" ry="18"/>
<ellipse fill="none" stroke="black" cx="168.6" cy="-136" rx="22" ry="22"/>
<text text-anchor="middle" x="168.6" y="-132.3" font-family="Times New Roman,serif" font-size="14.00">2</text>
</g>
<!-- 0&#45;&gt;2 -->
<g id="edge2" class="edge"><title>0&#45;&gt;2</title>
<path fill="none" stroke="black" d="M86.571,-96.7169C90.544,-114.179 99.4503,-139.944 118.6,-152 125.416,-156.291 133.496,-155.587 141.108,-152.87"/>
<polygon fill="black" stroke="black" points="142.77,-155.958 150.37,-148.577 139.826,-149.607 142.77,-155.958"/>
<text text-anchor="middle" x="123.6" y="-158.8" font-family="Times New Roman,serif" font-size="14.00">c</text>
</g>
<!-- 1 -->
<g id="node4" class="node"><title>1</title>
<ellipse fill="none" stroke="black" cx="168.6" cy="-22" rx="18" ry="18"/>
<ellipse fill="none" stroke="black" cx="168.6" cy="-22" rx="22" ry="22"/>
<text text-anchor="middle" x="168.6" y="-18.3" font-family="Times New Roman,serif" font-size="14.00">1</text>
</g>
<!-- 0&#45;&gt;1 -->
<g id="edge3" class="edge"><title>0&#45;&gt;1</title>
<path fill="none" stroke="black" d="M97.8495,-69.3307C109.788,-61.2293 127.142,-49.4535 141.553,-39.6747"/>
<polygon fill="black" stroke="black" points="143.761,-42.4061 150.071,-33.8949 139.831,-36.6137 143.761,-42.4061"/>
<text text-anchor="middle" x="123.6" y="-56.8" font-family="Times New Roman,serif" font-size="14.00">w</text>
</g>
<!-- 2&#45;&gt;0 -->
<g id="edge6" class="edge"><title>2&#45;&gt;0</title>
<path fill="none" stroke="black" d="M147.655,-128.967C138.401,-125.234 127.505,-120.141 118.6,-114 112.706,-109.936 106.942,-104.81 101.846,-99.7439"/>
<polygon fill="black" stroke="black" points="104.361,-97.3094 94.9233,-92.4952 99.299,-102.144 104.361,-97.3094"/>
<text text-anchor="middle" x="123.6" y="-122.8" font-family="Times New Roman,serif" font-size="14.00">c</text>
</g>
<!-- 2&#45;&gt;0 -->
<g id="edge7" class="edge"><title>2&#45;&gt;0</title>
<path fill="none" stroke="black" d="M154.295,-118.607C147.367,-110.518 138.322,-101.314 128.6,-95 122.941,-91.3249 116.333,-88.3695 109.951,-86.0477"/>
<polygon fill="black" stroke="black" points="110.869,-82.6659 100.277,-82.9081 108.708,-89.3241 110.869,-82.6659"/>
<text text-anchor="middle" x="123.6" y="-98.8" font-family="Times New Roman,serif" font-size="14.00">w</text>
</g>
<!-- 1&#45;&gt;0 -->
<g id="edge4" class="edge"><title>1&#45;&gt;0</title>
<path fill="none" stroke="black" d="M146.314,-21.37C137.204,-21.9916 126.8,-23.9613 118.6,-29 108.985,-34.9078 101.313,-44.5536 95.6308,-53.8048"/>
<polygon fill="black" stroke="black" points="92.4423,-52.3355 90.6139,-62.7714 98.5511,-55.7535 92.4423,-52.3355"/>
<text text-anchor="middle" x="123.6" y="-32.8" font-family="Times New Roman,serif" font-size="14.00">c</text>
</g>
<!-- 1&#45;&gt;0 -->
<g id="edge5" class="edge"><title>1&#45;&gt;0</title>
<path fill="none" stroke="black" d="M150.403,-8.8754C140.587,-3.08386 128.337,1.16614 118.6,-5 102.492,-15.2002 93.6548,-35.0319 88.8916,-51.5992"/>
<polygon fill="black" stroke="black" points="85.4773,-50.825 86.4237,-61.3775 92.2645,-52.5381 85.4773,-50.825"/>
<text text-anchor="middle" x="123.6" y="-8.8" font-family="Times New Roman,serif" font-size="14.00">w</text>
</g>
</g>
</svg>
