<?xml version="1.0" encoding="UTF-8" standalone="no"?>
<!DOCTYPE svg PUBLIC "-//W3C//DTD SVG 1.1//EN"
 "http://www.w3.org/Graphics/SVG/1.1/DTD/svg11.dtd">
<!-- Generated by graphviz version 2.38.0 (20140413.2041)
 -->
<!-- Title: dfa Pages: 1 -->
<svg width="217pt" height="177pt"
 viewBox="0.00 0.00 216.60 177.00" xmlns="http://www.w3.org/2000/svg" xmlns:xlink="http://www.w3.org/1999/xlink">
<g id="graph0" class="graph" transform="scale(1 1) rotate(0) translate(4 173)">
<title>dfa</title>
<polygon fill="white" stroke="none" points="-4,4 -4,-173 212.6,-173 212.6,4 -4,4"/>
<!-- __start -->
<!-- 0 -->
<g id="node2" class="node"><title>0</title>
<ellipse fill="none" stroke="black" cx="91.6" cy="-79" rx="27" ry="18"/>
<text text-anchor="middle" x="91.6" y="-75.3" font-family="Times New Roman,serif" font-size="14.00">0</text>
</g>
<!-- __start&#45;&gt;0 -->
<g id="edge1" class="edge"><title>__start&#45;&gt;0</title>
<path fill="none" stroke="black" d="M3.78604,-79C8.86985,-79 32.7092,-79 54.1222,-79"/>
<polygon fill="black" stroke="black" points="54.3463,-82.5001 64.3463,-79 54.3463,-75.5001 54.3463,-82.5001"/>
<text text-anchor="middle" x="34.1" y="-82.8" font-family="Times New Roman,serif" font-size="14.00">start</text>
</g>
<!-- 2 -->
<g id="node3" class="node"><title>2</title>
<ellipse fill="none" stroke="black" cx="186.6" cy="-136" rx="18" ry="18"/>
<ellipse fill="none" stroke="black" cx="186.6" cy="-136" rx="22" ry="22"/>
<text text-anchor="middle" x="186.6" y="-132.3" font-family="Times New Roman,serif" font-size="14.00">2</text>
</g>
<!-- 0&#45;&gt;2 -->
<g id="edge2" class="edge"><title>0&#45;&gt;2</title>
<path fill="none" stroke="black" d="M97.7108,-96.8567C103.801,-114.43 115.856,-140.283 136.6,-152 143.503,-155.899 151.497,-155.184 158.999,-152.58"/>
<polygon fill="black" stroke="black" points="160.436,-155.771 168.121,-148.478 157.565,-149.387 160.436,-155.771"/>
<text text-anchor="middle" x="141.6" y="-157.8" font-family="Times New Roman,serif" font-size="14.00">c</text>
</g>
<!-- 1 -->
<g id="node4" class="node"><title>1</title>
<ellipse fill="none" stroke="black" cx="186.6" cy="-22" rx="18" ry="18"/>
<ellipse fill="none" stroke="black" cx="186.6" cy="-22" rx="22" ry="22"/>
<text text-anchor="middle" x="186.6" y="-18.3" font-family="Times New Roman,serif" font-size="14.00">1</text>
</g>
<!-- 0&#45;&gt;1 -->
<g id="edge3" class="edge"><title>0&#45;&gt;1</title>
<path fill="none" stroke="black" d="M112.323,-66.9118C125.834,-58.6306 143.921,-47.5451 158.745,-38.4598"/>
<polygon fill="black" stroke="black" points="160.785,-41.3141 167.482,-33.1043 157.127,-35.3459 160.785,-41.3141"/>
<text text-anchor="middle" x="141.6" y="-53.8" font-family="Times New Roman,serif" font-size="14.00">w</text>
</g>
<!-- 2&#45;&gt;0 -->
<g id="edge6" class="edge"><title>2&#45;&gt;0</title>
<path fill="none" stroke="black" d="M165.477,-128.306C156.389,-124.497 145.68,-119.529 136.6,-114 129.837,-109.881 122.941,-104.858 116.677,-99.9178"/>
<polygon fill="black" stroke="black" points="118.558,-96.935 108.597,-93.3242 114.132,-102.358 118.558,-96.935"/>
<text text-anchor="middle" x="141.6" y="-122.8" font-family="Times New Roman,serif" font-size="14.00">c</text>
</g>
<!-- 2&#45;&gt;0 -->
<g id="edge7" class="edge"><title>2&#45;&gt;0</title>
<path fill="none" stroke="black" d="M172.788,-118.791C165.853,-110.547 156.655,-101.154 146.6,-95 140.908,-91.5163 134.413,-88.7529 127.948,-86.5734"/>
<polygon fill="black" stroke="black" points="128.514,-83.0909 117.932,-83.6093 126.527,-89.8032 128.514,-83.0909"/>
<text text-anchor="middle" x="141.6" y="-98.8" font-family="Times New Roman,serif" font-size="14.00">w</text>
</g>
<!-- 1&#45;&gt;0 -->
<g id="edge4" class="edge"><title>1&#45;&gt;0</title>
<path fill="none" stroke="black" d="M164.568,-21.2683C155.505,-21.7656 145.068,-23.4791 136.6,-28 125.27,-34.0489 115.564,-44.2944 108.172,-54.0224"/>
<polygon fill="black" stroke="black" points="105.218,-52.1373 102.291,-62.3195 110.929,-56.1856 105.218,-52.1373"/>
<text text-anchor="middle" x="141.6" y="-31.8" font-family="Times New Roman,serif" font-size="14.00">c</text>
</g>
<!-- 1&#45;&gt;0 -->
<g id="edge5" class="edge"><title>1&#45;&gt;0</title>
<path fill="none" stroke="black" d="M168.614,-9.22604C158.868,-3.55138 146.618,0.698618 136.6,-5 119.171,-14.9143 107.925,-34.7598 101.169,-51.4049"/>
<polygon fill="black" stroke="black" points="97.7184,-50.6448 97.5275,-61.2379 104.283,-53.0759 97.7184,-50.6448"/>
<text text-anchor="middle" x="141.6" y="-8.8" font-family="Times New Roman,serif" font-size="14.00">w</text>
</g>
</g>
</svg>
