<?xml version="1.0" encoding="UTF-8" standalone="no"?>
<!DOCTYPE svg PUBLIC "-//W3C//DTD SVG 1.1//EN"
 "http://www.w3.org/Graphics/SVG/1.1/DTD/svg11.dtd">
<!-- Generated by graphviz version 2.38.0 (20140413.2041)
 -->
<!-- Title: dfa Pages: 1 -->
<svg width="299pt" height="99pt"
 viewBox="0.00 0.00 298.60 98.66" xmlns="http://www.w3.org/2000/svg" xmlns:xlink="http://www.w3.org/1999/xlink">
<g id="graph0" class="graph" transform="scale(1 1) rotate(0) translate(4 94.6647)">
<title>dfa</title>
<polygon fill="white" stroke="none" points="-4,4 -4,-94.6647 294.6,-94.6647 294.6,4 -4,4"/>
<!-- __start -->
<!-- 0 -->
<g id="node2" class="node"><title>0</title>
<ellipse fill="none" stroke="black" cx="91.6" cy="-39.6647" rx="27" ry="18"/>
<text text-anchor="middle" x="91.6" y="-35.9647" font-family="Times New Roman,serif" font-size="14.00">0</text>
</g>
<!-- __start&#45;&gt;0 -->
<g id="edge1" class="edge"><title>__start&#45;&gt;0</title>
<path fill="none" stroke="black" d="M3.78604,-39.6647C8.86985,-39.6647 32.7092,-39.6647 54.1222,-39.6647"/>
<polygon fill="black" stroke="black" points="54.3463,-43.1648 64.3463,-39.6647 54.3463,-36.1648 54.3463,-43.1648"/>
<text text-anchor="middle" x="34.1" y="-43.4647" font-family="Times New Roman,serif" font-size="14.00">start</text>
</g>
<!-- 1 -->
<g id="node3" class="node"><title>1</title>
<ellipse fill="none" stroke="black" cx="186.6" cy="-39.6647" rx="18" ry="18"/>
<ellipse fill="none" stroke="black" cx="186.6" cy="-39.6647" rx="22" ry="22"/>
<text text-anchor="middle" x="186.6" y="-35.9647" font-family="Times New Roman,serif" font-size="14.00">1</text>
</g>
<!-- 0&#45;&gt;1 -->
<g id="edge6" class="edge"><title>0&#45;&gt;1</title>
<path fill="none" stroke="black" d="M119.001,-39.6647C130.02,-39.6647 142.903,-39.6647 154.387,-39.6647"/>
<polygon fill="black" stroke="black" points="154.446,-43.1648 164.446,-39.6647 154.446,-36.1648 154.446,-43.1648"/>
<text text-anchor="middle" x="141.6" y="-43.4647" font-family="Times New Roman,serif" font-size="14.00">c</text>
</g>
<!-- 0&#45;&gt;1 -->
<g id="edge7" class="edge"><title>0&#45;&gt;1</title>
<path fill="none" stroke="black" d="M111.786,-27.2575C121.967,-22.1272 134.785,-17.9398 146.6,-20.6647 150.343,-21.5279 154.142,-22.8013 157.827,-24.2871"/>
<polygon fill="black" stroke="black" points="156.647,-27.5963 167.196,-28.5806 159.563,-21.2327 156.647,-27.5963"/>
<text text-anchor="middle" x="141.6" y="-24.4647" font-family="Times New Roman,serif" font-size="14.00">w</text>
</g>
<!-- 2 -->
<g id="node4" class="node"><title>2</title>
<ellipse fill="none" stroke="black" cx="272.6" cy="-39.6647" rx="18" ry="18"/>
<text text-anchor="middle" x="272.6" y="-35.9647" font-family="Times New Roman,serif" font-size="14.00">2</text>
</g>
<!-- 1&#45;&gt;2 -->
<g id="edge4" class="edge"><title>1&#45;&gt;2</title>
<path fill="none" stroke="black" d="M201.346,-56.601C208.121,-63.6096 216.915,-70.9559 226.6,-74.6647 237.466,-78.8256 247.842,-71.7837 255.887,-62.9508"/>
<polygon fill="black" stroke="black" points="258.77,-64.9502 262.31,-54.9641 253.316,-60.5633 258.77,-64.9502"/>
<text text-anchor="middle" x="231.6" y="-79.4647" font-family="Times New Roman,serif" font-size="14.00">c</text>
</g>
<!-- 1&#45;&gt;2 -->
<g id="edge5" class="edge"><title>1&#45;&gt;2</title>
<path fill="none" stroke="black" d="M208.797,-39.6647C219.478,-39.6647 232.56,-39.6647 244.015,-39.6647"/>
<polygon fill="black" stroke="black" points="244.367,-43.1648 254.367,-39.6647 244.367,-36.1648 244.367,-43.1648"/>
<text text-anchor="middle" x="231.6" y="-43.4647" font-family="Times New Roman,serif" font-size="14.00">w</text>
</g>
<!-- 2&#45;&gt;1 -->
<g id="edge2" class="edge"><title>2&#45;&gt;1</title>
<path fill="none" stroke="black" d="M256.883,-30.1224C250.85,-26.7477 243.64,-23.3688 236.6,-21.6647 229.498,-19.9455 222.01,-21.0946 215.082,-23.4758"/>
<polygon fill="black" stroke="black" points="213.226,-20.4657 205.444,-27.6556 216.011,-26.8877 213.226,-20.4657"/>
<text text-anchor="middle" x="231.6" y="-25.4647" font-family="Times New Roman,serif" font-size="14.00">c</text>
</g>
<!-- 2&#45;&gt;1 -->
<g id="edge3" class="edge"><title>2&#45;&gt;1</title>
<path fill="none" stroke="black" d="M263.129,-24.0491C254.854,-11.0813 241.377,4.34391 226.6,-1.66468 219.496,-4.55345 212.978,-9.4274 207.388,-14.7382"/>
<polygon fill="black" stroke="black" points="204.733,-12.4501 200.372,-22.1057 209.803,-17.2773 204.733,-12.4501"/>
<text text-anchor="middle" x="231.6" y="-5.46468" font-family="Times New Roman,serif" font-size="14.00">w</text>
</g>
</g>
</svg>
