<?xml version="1.0" encoding="UTF-8" standalone="no"?>
<!DOCTYPE svg PUBLIC "-//W3C//DTD SVG 1.1//EN"
 "http://www.w3.org/Graphics/SVG/1.1/DTD/svg11.dtd">
<!-- Generated by graphviz version 2.38.0 (20140413.2041)
 -->
<!-- Title: enfa Pages: 1 -->
<svg width="357pt" height="75pt"
 viewBox="0.00 0.00 356.60 75.00" xmlns="http://www.w3.org/2000/svg" xmlns:xlink="http://www.w3.org/1999/xlink">
<g id="graph0" class="graph" transform="scale(1 1) rotate(0) translate(4 71)">
<title>enfa</title>
<polygon fill="white" stroke="none" points="-4,4 -4,-71 352.6,-71 352.6,4 -4,4"/>
<!-- __start -->
<!-- 0 -->
<g id="node2" class="node"><title>0</title>
<ellipse fill="none" stroke="black" cx="82.6" cy="-18" rx="18" ry="18"/>
<text text-anchor="middle" x="82.6" y="-14.3" font-family="Times New Roman,serif" font-size="14.00">0</text>
</g>
<!-- __start&#45;&gt;0 -->
<g id="edge1" class="edge"><title>__start&#45;&gt;0</title>
<path fill="none" stroke="black" d="M3.68496,-18C8.69573,-18 34.008,-18 54.4423,-18"/>
<polygon fill="black" stroke="black" points="54.5501,-21.5001 64.5501,-18 54.5501,-14.5001 54.5501,-21.5001"/>
<text text-anchor="middle" x="34.1" y="-21.8" font-family="Times New Roman,serif" font-size="14.00">start</text>
</g>
<!-- 1 -->
<g id="node3" class="node"><title>1</title>
<ellipse fill="none" stroke="black" cx="166.6" cy="-45" rx="18" ry="18"/>
<ellipse fill="none" stroke="black" cx="166.6" cy="-45" rx="22" ry="22"/>
<text text-anchor="middle" x="166.6" y="-41.3" font-family="Times New Roman,serif" font-size="14.00">1</text>
</g>
<!-- 0&#45;&gt;1 -->
<g id="edge7" class="edge"><title>0&#45;&gt;1</title>
<path fill="none" stroke="black" d="M99.0103,-25.8469C105.016,-28.6907 112.025,-31.7527 118.6,-34 123.722,-35.7507 129.252,-37.3182 134.657,-38.6836"/>
<polygon fill="black" stroke="black" points="134.223,-42.1769 144.759,-41.055 135.823,-35.3621 134.223,-42.1769"/>
<text text-anchor="middle" x="122.6" y="-39.8" font-family="Times New Roman,serif" font-size="14.00">b</text>
</g>
<!-- 1&#45;&gt;0 -->
<g id="edge4" class="edge"><title>1&#45;&gt;0</title>
<path fill="none" stroke="black" d="M149.216,-31.0798C142.621,-26.3149 134.671,-21.5465 126.6,-19 121.695,-17.4525 116.317,-16.6653 111.075,-16.3413"/>
<polygon fill="black" stroke="black" points="110.739,-12.8376 100.703,-16.2317 110.665,-19.8373 110.739,-12.8376"/>
<text text-anchor="middle" x="122.6" y="-22.8" font-family="Times New Roman,serif" font-size="14.00">b</text>
</g>
<!-- 2 -->
<g id="node4" class="node"><title>2</title>
<ellipse fill="none" stroke="black" cx="250.6" cy="-45" rx="18" ry="18"/>
<text text-anchor="middle" x="250.6" y="-41.3" font-family="Times New Roman,serif" font-size="14.00">2</text>
</g>
<!-- 1&#45;&gt;2 -->
<g id="edge5" class="edge"><title>1&#45;&gt;2</title>
<path fill="none" stroke="black" d="M188.717,-45C198.896,-45 211.232,-45 222.131,-45"/>
<polygon fill="black" stroke="black" points="222.418,-48.5001 232.418,-45 222.418,-41.5001 222.418,-48.5001"/>
<text text-anchor="middle" x="210.6" y="-48.8" font-family="Times New Roman,serif" font-size="14.00">b</text>
</g>
<!-- 3 -->
<g id="node5" class="node"><title>3</title>
<ellipse fill="none" stroke="black" cx="330.6" cy="-18" rx="18" ry="18"/>
<text text-anchor="middle" x="330.6" y="-14.3" font-family="Times New Roman,serif" font-size="14.00">3</text>
</g>
<!-- 2&#45;&gt;3 -->
<g id="edge2" class="edge"><title>2&#45;&gt;3</title>
<path fill="none" stroke="black" d="M268.553,-41.4004C276.553,-39.5153 286.172,-36.9776 294.6,-34 297.978,-32.8065 301.477,-31.4109 304.897,-29.9504"/>
<polygon fill="black" stroke="black" points="306.485,-33.074 314.165,-25.7756 303.61,-26.6917 306.485,-33.074"/>
<text text-anchor="middle" x="290.6" y="-39.8" font-family="Times New Roman,serif" font-size="14.00">ε</text>
</g>
<!-- 2&#45;&gt;3 -->
<g id="edge3" class="edge"><title>2&#45;&gt;3</title>
<path fill="none" stroke="black" d="M262.803,-31.7305C269.065,-25.3596 277.443,-18.3875 286.6,-15 291.647,-13.1331 297.251,-12.5516 302.701,-12.6808"/>
<polygon fill="black" stroke="black" points="302.516,-16.179 312.805,-13.6538 303.187,-9.21126 302.516,-16.179"/>
<text text-anchor="middle" x="290.6" y="-18.8" font-family="Times New Roman,serif" font-size="14.00">b</text>
</g>
<!-- 3&#45;&gt;0 -->
<g id="edge6" class="edge"><title>3&#45;&gt;0</title>
<path fill="none" stroke="black" d="M313.031,-12.8288C307.259,-11.2715 300.7,-9.77173 294.6,-9 291.073,-8.55373 290.155,-8.95768 286.6,-9 211.917,-9.88895 193.032,-6.81911 118.6,-13 116.031,-13.2133 113.363,-13.4913 110.697,-13.8068"/>
<polygon fill="black" stroke="black" points="110.091,-10.3567 100.644,-15.1535 111.02,-17.2947 110.091,-10.3567"/>
<text text-anchor="middle" x="210.6" y="-12.8" font-family="Times New Roman,serif" font-size="14.00">ε</text>
</g>
</g>
</svg>
