<?xml version="1.0" encoding="UTF-8" standalone="no"?>
<!DOCTYPE svg PUBLIC "-//W3C//DTD SVG 1.1//EN"
 "http://www.w3.org/Graphics/SVG/1.1/DTD/svg11.dtd">
<!-- Generated by graphviz version 2.38.0 (20140413.2041)
 -->
<!-- Title: dfa Pages: 1 -->
<svg width="275pt" height="147pt"
 viewBox="0.00 0.00 274.60 147.00" xmlns="http://www.w3.org/2000/svg" xmlns:xlink="http://www.w3.org/1999/xlink">
<g id="graph0" class="graph" transform="scale(1 1) rotate(0) translate(4 143)">
<title>dfa</title>
<polygon fill="white" stroke="none" points="-4,4 -4,-143 270.6,-143 270.6,4 -4,4"/>
<!-- __start -->
<!-- 0 -->
<g id="node2" class="node"><title>0</title>
<ellipse fill="none" stroke="black" cx="82.6" cy="-18" rx="18" ry="18"/>
<text text-anchor="middle" x="82.6" y="-14.3" font-family="Times New Roman,serif" font-size="14.00">0</text>
</g>
<!-- __start&#45;&gt;0 -->
<g id="edge1" class="edge"><title>__start&#45;&gt;0</title>
<path fill="none" stroke="black" d="M3.68496,-18C8.69573,-18 34.008,-18 54.4423,-18"/>
<polygon fill="black" stroke="black" points="54.5501,-21.5001 64.5501,-18 54.5501,-14.5001 54.5501,-21.5001"/>
<text text-anchor="middle" x="34.1" y="-21.8" font-family="Times New Roman,serif" font-size="14.00">start</text>
</g>
<!-- 0&#45;&gt;0 -->
<g id="edge3" class="edge"><title>0&#45;&gt;0</title>
<path fill="none" stroke="black" d="M79.1845,-35.7817C78.6041,-45.3149 79.7426,-54 82.6,-54 84.3412,-54 85.4442,-50.7749 85.9088,-46.0981"/>
<polygon fill="black" stroke="black" points="89.4118,-45.8174 86.0155,-35.7817 82.4122,-45.745 89.4118,-45.8174"/>
<text text-anchor="middle" x="82.6" y="-57.8" font-family="Times New Roman,serif" font-size="14.00">r</text>
</g>
<!-- 0&#45;&gt;0 -->
<g id="edge4" class="edge"><title>0&#45;&gt;0</title>
<path fill="none" stroke="black" d="M77.0406,-35.1418C73.7703,-52.585 75.6234,-72 82.6,-72 88.214,-72 90.5104,-59.4283 89.4893,-45.4287"/>
<polygon fill="black" stroke="black" points="92.9127,-44.6105 88.1594,-35.1418 85.9705,-45.508 92.9127,-44.6105"/>
<text text-anchor="middle" x="82.6" y="-75.8" font-family="Times New Roman,serif" font-size="14.00">n</text>
</g>
<!-- 1 -->
<g id="node3" class="node"><title>1</title>
<ellipse fill="none" stroke="black" cx="165.6" cy="-51" rx="18" ry="18"/>
<ellipse fill="none" stroke="black" cx="165.6" cy="-51" rx="22" ry="22"/>
<text text-anchor="middle" x="165.6" y="-47.3" font-family="Times New Roman,serif" font-size="14.00">1</text>
</g>
<!-- 0&#45;&gt;1 -->
<g id="edge2" class="edge"><title>0&#45;&gt;1</title>
<path fill="none" stroke="black" d="M99.603,-24.5197C109.862,-28.6994 123.481,-34.2476 135.601,-39.1854"/>
<polygon fill="black" stroke="black" points="134.325,-42.445 144.907,-42.9767 136.966,-35.9624 134.325,-42.445"/>
<text text-anchor="middle" x="122.1" y="-37.8" font-family="Times New Roman,serif" font-size="14.00">y</text>
</g>
<!-- 1&#45;&gt;1 -->
<g id="edge6" class="edge"><title>1&#45;&gt;1</title>
<path fill="none" stroke="black" d="M161.724,-72.8066C161.355,-82.5625 162.647,-91 165.6,-91 167.446,-91 168.643,-87.7041 169.19,-82.8504"/>
<polygon fill="black" stroke="black" points="172.69,-82.9021 169.476,-72.8066 165.693,-82.7031 172.69,-82.9021"/>
<text text-anchor="middle" x="165.6" y="-94.8" font-family="Times New Roman,serif" font-size="14.00">r</text>
</g>
<!-- 1&#45;&gt;1 -->
<g id="edge7" class="edge"><title>1&#45;&gt;1</title>
<path fill="none" stroke="black" d="M158.975,-72.1143C156.05,-90.0956 158.258,-109 165.6,-109 171.565,-109 174.141,-96.5201 173.329,-82.1954"/>
<polygon fill="black" stroke="black" points="176.793,-81.6738 172.225,-72.1143 169.834,-82.4359 176.793,-81.6738"/>
<text text-anchor="middle" x="165.6" y="-112.8" font-family="Times New Roman,serif" font-size="14.00">n</text>
</g>
<!-- 2 -->
<g id="node4" class="node"><title>2</title>
<ellipse fill="none" stroke="black" cx="248.6" cy="-29" rx="18" ry="18"/>
<text text-anchor="middle" x="248.6" y="-25.3" font-family="Times New Roman,serif" font-size="14.00">2</text>
</g>
<!-- 1&#45;&gt;2 -->
<g id="edge5" class="edge"><title>1&#45;&gt;2</title>
<path fill="none" stroke="black" d="M187.939,-49.5566C195.797,-48.6767 204.703,-47.2642 212.6,-45 216.044,-44.0125 219.581,-42.7366 223.021,-41.3366"/>
<polygon fill="black" stroke="black" points="224.593,-44.4678 232.3,-37.1981 221.741,-38.0748 224.593,-44.4678"/>
<text text-anchor="middle" x="209.1" y="-49.8" font-family="Times New Roman,serif" font-size="14.00">y</text>
</g>
<!-- 2&#45;&gt;0 -->
<g id="edge9" class="edge"><title>2&#45;&gt;0</title>
<path fill="none" stroke="black" d="M232.305,-20.9926C220.465,-15.267 203.464,-8.05513 187.6,-5 161.309,0.0631285 130.883,-4.98865 109.761,-10.2005"/>
<polygon fill="black" stroke="black" points="108.688,-6.86415 99.917,-12.8079 110.48,-13.6308 108.688,-6.86415"/>
<text text-anchor="middle" x="165.6" y="-8.8" font-family="Times New Roman,serif" font-size="14.00">r</text>
</g>
<!-- 2&#45;&gt;1 -->
<g id="edge8" class="edge"><title>2&#45;&gt;1</title>
<path fill="none" stroke="black" d="M230.957,-25.1504C223.124,-24.0081 213.738,-23.6157 205.6,-26 200.834,-27.3964 196.098,-29.5737 191.655,-32.074"/>
<polygon fill="black" stroke="black" points="189.622,-29.2181 183.031,-37.5129 193.356,-35.139 189.622,-29.2181"/>
<text text-anchor="middle" x="209.1" y="-29.8" font-family="Times New Roman,serif" font-size="14.00">y</text>
</g>
<!-- 2&#45;&gt;2 -->
<g id="edge10" class="edge"><title>2&#45;&gt;2</title>
<path fill="none" stroke="black" d="M241.866,-46.0373C240.492,-55.8579 242.737,-65 248.6,-65 252.265,-65 254.516,-61.4289 255.353,-56.3529"/>
<polygon fill="black" stroke="black" points="258.852,-56.0307 255.334,-46.0373 251.852,-56.0439 258.852,-56.0307"/>
<text text-anchor="middle" x="248.6" y="-68.8" font-family="Times New Roman,serif" font-size="14.00">n</text>
</g>
</g>
</svg>
