<?xml version="1.0" encoding="UTF-8" standalone="no"?>
<!DOCTYPE svg PUBLIC "-//W3C//DTD SVG 1.1//EN"
 "http://www.w3.org/Graphics/SVG/1.1/DTD/svg11.dtd">
<!-- Generated by graphviz version 2.38.0 (20140413.2041)
 -->
<!-- Title: dfa Pages: 1 -->
<svg width="293pt" height="147pt"
 viewBox="0.00 0.00 292.60 147.00" xmlns="http://www.w3.org/2000/svg" xmlns:xlink="http://www.w3.org/1999/xlink">
<g id="graph0" class="graph" transform="scale(1 1) rotate(0) translate(4 143)">
<title>dfa</title>
<polygon fill="white" stroke="none" points="-4,4 -4,-143 288.6,-143 288.6,4 -4,4"/>
<!-- __start -->
<!-- 0 -->
<g id="node2" class="node"><title>0</title>
<ellipse fill="none" stroke="black" cx="91.6" cy="-18" rx="27" ry="18"/>
<text text-anchor="middle" x="91.6" y="-14.3" font-family="Times New Roman,serif" font-size="14.00">0</text>
</g>
<!-- __start&#45;&gt;0 -->
<g id="edge1" class="edge"><title>__start&#45;&gt;0</title>
<path fill="none" stroke="black" d="M3.78604,-18C8.86985,-18 32.7092,-18 54.1222,-18"/>
<polygon fill="black" stroke="black" points="54.3463,-21.5001 64.3463,-18 54.3463,-14.5001 54.3463,-21.5001"/>
<text text-anchor="middle" x="34.1" y="-21.8" font-family="Times New Roman,serif" font-size="14.00">start</text>
</g>
<!-- 0&#45;&gt;0 -->
<g id="edge3" class="edge"><title>0&#45;&gt;0</title>
<path fill="none" stroke="black" d="M87.2857,-35.7817C86.5525,-45.3149 87.9906,-54 91.6,-54 93.7995,-54 95.1927,-50.7749 95.7796,-46.0981"/>
<polygon fill="black" stroke="black" points="99.2833,-45.8266 95.9143,-35.7817 92.2839,-45.7351 99.2833,-45.8266"/>
<text text-anchor="middle" x="91.6" y="-57.8" font-family="Times New Roman,serif" font-size="14.00">r</text>
</g>
<!-- 0&#45;&gt;0 -->
<g id="edge4" class="edge"><title>0&#45;&gt;0</title>
<path fill="none" stroke="black" d="M84.5122,-35.4203C80.4718,-52.791 82.8344,-72 91.6,-72 98.6536,-72 101.561,-59.5617 100.322,-45.652"/>
<polygon fill="black" stroke="black" points="103.722,-44.7428 98.6878,-35.4203 96.8094,-45.8472 103.722,-44.7428"/>
<text text-anchor="middle" x="91.6" y="-75.8" font-family="Times New Roman,serif" font-size="14.00">n</text>
</g>
<!-- 1 -->
<g id="node3" class="node"><title>1</title>
<ellipse fill="none" stroke="black" cx="183.6" cy="-51" rx="18" ry="18"/>
<ellipse fill="none" stroke="black" cx="183.6" cy="-51" rx="22" ry="22"/>
<text text-anchor="middle" x="183.6" y="-47.3" font-family="Times New Roman,serif" font-size="14.00">1</text>
</g>
<!-- 0&#45;&gt;1 -->
<g id="edge2" class="edge"><title>0&#45;&gt;1</title>
<path fill="none" stroke="black" d="M115.777,-26.4983C127.089,-30.646 140.828,-35.6836 152.9,-40.1099"/>
<polygon fill="black" stroke="black" points="151.964,-43.4947 162.558,-43.6513 154.374,-36.9226 151.964,-43.4947"/>
<text text-anchor="middle" x="140.1" y="-39.8" font-family="Times New Roman,serif" font-size="14.00">y</text>
</g>
<!-- 1&#45;&gt;1 -->
<g id="edge6" class="edge"><title>1&#45;&gt;1</title>
<path fill="none" stroke="black" d="M179.724,-72.8066C179.355,-82.5625 180.647,-91 183.6,-91 185.446,-91 186.643,-87.7041 187.19,-82.8504"/>
<polygon fill="black" stroke="black" points="190.69,-82.9021 187.476,-72.8066 183.693,-82.7031 190.69,-82.9021"/>
<text text-anchor="middle" x="183.6" y="-94.8" font-family="Times New Roman,serif" font-size="14.00">r</text>
</g>
<!-- 1&#45;&gt;1 -->
<g id="edge7" class="edge"><title>1&#45;&gt;1</title>
<path fill="none" stroke="black" d="M176.975,-72.1143C174.05,-90.0956 176.258,-109 183.6,-109 189.565,-109 192.141,-96.5201 191.329,-82.1954"/>
<polygon fill="black" stroke="black" points="194.793,-81.6738 190.225,-72.1143 187.834,-82.4359 194.793,-81.6738"/>
<text text-anchor="middle" x="183.6" y="-112.8" font-family="Times New Roman,serif" font-size="14.00">n</text>
</g>
<!-- 2 -->
<g id="node4" class="node"><title>2</title>
<ellipse fill="none" stroke="black" cx="266.6" cy="-29" rx="18" ry="18"/>
<text text-anchor="middle" x="266.6" y="-25.3" font-family="Times New Roman,serif" font-size="14.00">2</text>
</g>
<!-- 1&#45;&gt;2 -->
<g id="edge5" class="edge"><title>1&#45;&gt;2</title>
<path fill="none" stroke="black" d="M205.939,-49.5566C213.797,-48.6767 222.703,-47.2642 230.6,-45 234.044,-44.0125 237.581,-42.7366 241.021,-41.3366"/>
<polygon fill="black" stroke="black" points="242.593,-44.4678 250.3,-37.1981 239.741,-38.0748 242.593,-44.4678"/>
<text text-anchor="middle" x="227.1" y="-49.8" font-family="Times New Roman,serif" font-size="14.00">y</text>
</g>
<!-- 2&#45;&gt;0 -->
<g id="edge9" class="edge"><title>2&#45;&gt;0</title>
<path fill="none" stroke="black" d="M250.305,-20.9926C238.465,-15.267 221.464,-8.05513 205.6,-5 179.199,0.0843162 148.919,-3.91631 126.352,-8.77665"/>
<polygon fill="black" stroke="black" points="125.522,-5.37624 116.568,-11.0407 127.1,-12.196 125.522,-5.37624"/>
<text text-anchor="middle" x="183.6" y="-8.8" font-family="Times New Roman,serif" font-size="14.00">r</text>
</g>
<!-- 2&#45;&gt;1 -->
<g id="edge8" class="edge"><title>2&#45;&gt;1</title>
<path fill="none" stroke="black" d="M248.957,-25.1504C241.124,-24.0081 231.738,-23.6157 223.6,-26 218.834,-27.3964 214.098,-29.5737 209.655,-32.074"/>
<polygon fill="black" stroke="black" points="207.622,-29.2181 201.031,-37.5129 211.356,-35.139 207.622,-29.2181"/>
<text text-anchor="middle" x="227.1" y="-29.8" font-family="Times New Roman,serif" font-size="14.00">y</text>
</g>
<!-- 2&#45;&gt;2 -->
<g id="edge10" class="edge"><title>2&#45;&gt;2</title>
<path fill="none" stroke="black" d="M259.866,-46.0373C258.492,-55.8579 260.737,-65 266.6,-65 270.265,-65 272.516,-61.4289 273.353,-56.3529"/>
<polygon fill="black" stroke="black" points="276.852,-56.0307 273.334,-46.0373 269.852,-56.0439 276.852,-56.0307"/>
<text text-anchor="middle" x="266.6" y="-68.8" font-family="Times New Roman,serif" font-size="14.00">n</text>
</g>
</g>
</svg>
