<?xml version="1.0" encoding="UTF-8" standalone="no"?>
<!DOCTYPE svg PUBLIC "-//W3C//DTD SVG 1.1//EN"
 "http://www.w3.org/Graphics/SVG/1.1/DTD/svg11.dtd">
<!-- Generated by graphviz version 2.38.0 (20140413.2041)
 -->
<!-- Title: dfa Pages: 1 -->
<svg width="196pt" height="118pt"
 viewBox="0.00 0.00 195.60 118.00" xmlns="http://www.w3.org/2000/svg" xmlns:xlink="http://www.w3.org/1999/xlink">
<g id="graph0" class="graph" transform="scale(1 1) rotate(0) translate(4 114)">
<title>dfa</title>
<polygon fill="white" stroke="none" points="-4,4 -4,-114 191.6,-114 191.6,4 -4,4"/>
<!-- __start -->
<!-- 0 -->
<g id="node2" class="node"><title>0</title>
<ellipse fill="none" stroke="black" cx="82.6" cy="-22" rx="18" ry="18"/>
<text text-anchor="middle" x="82.6" y="-18.3" font-family="Times New Roman,serif" font-size="14.00">0</text>
</g>
<!-- __start&#45;&gt;0 -->
<g id="edge1" class="edge"><title>__start&#45;&gt;0</title>
<path fill="none" stroke="black" d="M3.68496,-22C8.69573,-22 34.008,-22 54.4423,-22"/>
<polygon fill="black" stroke="black" points="54.5501,-25.5001 64.5501,-22 54.5501,-18.5001 54.5501,-25.5001"/>
<text text-anchor="middle" x="34.1" y="-25.8" font-family="Times New Roman,serif" font-size="14.00">start</text>
</g>
<!-- 0&#45;&gt;0 -->
<g id="edge3" class="edge"><title>0&#45;&gt;0</title>
<path fill="none" stroke="black" d="M79.1845,-39.7817C78.6041,-49.3149 79.7426,-58 82.6,-58 84.3412,-58 85.4442,-54.7749 85.9088,-50.0981"/>
<polygon fill="black" stroke="black" points="89.4118,-49.8174 86.0155,-39.7817 82.4122,-49.745 89.4118,-49.8174"/>
<text text-anchor="middle" x="82.6" y="-61.8" font-family="Times New Roman,serif" font-size="14.00">r</text>
</g>
<!-- 0&#45;&gt;0 -->
<g id="edge4" class="edge"><title>0&#45;&gt;0</title>
<path fill="none" stroke="black" d="M77.0406,-39.1418C73.7703,-56.585 75.6234,-76 82.6,-76 88.214,-76 90.5104,-63.4283 89.4893,-49.4287"/>
<polygon fill="black" stroke="black" points="92.9127,-48.6105 88.1594,-39.1418 85.9705,-49.508 92.9127,-48.6105"/>
<text text-anchor="middle" x="82.6" y="-79.8" font-family="Times New Roman,serif" font-size="14.00">n</text>
</g>
<!-- 1 -->
<g id="node3" class="node"><title>1</title>
<ellipse fill="none" stroke="black" cx="165.6" cy="-22" rx="18" ry="18"/>
<ellipse fill="none" stroke="black" cx="165.6" cy="-22" rx="22" ry="22"/>
<text text-anchor="middle" x="165.6" y="-18.3" font-family="Times New Roman,serif" font-size="14.00">1</text>
</g>
<!-- 0&#45;&gt;1 -->
<g id="edge2" class="edge"><title>0&#45;&gt;1</title>
<path fill="none" stroke="black" d="M100.778,-22C110.21,-22 122.201,-22 133.237,-22"/>
<polygon fill="black" stroke="black" points="133.411,-25.5001 143.411,-22 133.411,-18.5001 133.411,-25.5001"/>
<text text-anchor="middle" x="122.1" y="-25.8" font-family="Times New Roman,serif" font-size="14.00">y</text>
</g>
<!-- 1&#45;&gt;0 -->
<g id="edge5" class="edge"><title>1&#45;&gt;0</title>
<path fill="none" stroke="black" d="M147.525,-9.20141C139.028,-4.3314 128.482,-0.490639 118.6,-3 114.642,-4.00504 110.647,-5.55766 106.844,-7.35171"/>
<polygon fill="black" stroke="black" points="105.075,-4.32845 97.9113,-12.1343 108.379,-10.4996 105.075,-4.32845"/>
<text text-anchor="middle" x="122.1" y="-6.8" font-family="Times New Roman,serif" font-size="14.00">y</text>
</g>
<!-- 1&#45;&gt;1 -->
<g id="edge6" class="edge"><title>1&#45;&gt;1</title>
<path fill="none" stroke="black" d="M161.724,-43.8066C161.355,-53.5625 162.647,-62 165.6,-62 167.446,-62 168.643,-58.7041 169.19,-53.8504"/>
<polygon fill="black" stroke="black" points="172.69,-53.9021 169.476,-43.8066 165.693,-53.7031 172.69,-53.9021"/>
<text text-anchor="middle" x="165.6" y="-65.8" font-family="Times New Roman,serif" font-size="14.00">r</text>
</g>
<!-- 1&#45;&gt;1 -->
<g id="edge7" class="edge"><title>1&#45;&gt;1</title>
<path fill="none" stroke="black" d="M158.975,-43.1143C156.05,-61.0956 158.258,-80 165.6,-80 171.565,-80 174.141,-67.5201 173.329,-53.1954"/>
<polygon fill="black" stroke="black" points="176.793,-52.6738 172.225,-43.1143 169.834,-53.4359 176.793,-52.6738"/>
<text text-anchor="middle" x="165.6" y="-83.8" font-family="Times New Roman,serif" font-size="14.00">n</text>
</g>
</g>
</svg>
