<?xml version="1.0" encoding="UTF-8" standalone="no"?>
<!DOCTYPE svg PUBLIC "-//W3C//DTD SVG 1.1//EN"
 "http://www.w3.org/Graphics/SVG/1.1/DTD/svg11.dtd">
<!-- Generated by graphviz version 2.38.0 (20140413.2041)
 -->
<!-- Title: dfa Pages: 1 -->
<svg width="214pt" height="118pt"
 viewBox="0.00 0.00 213.60 118.00" xmlns="http://www.w3.org/2000/svg" xmlns:xlink="http://www.w3.org/1999/xlink">
<g id="graph0" class="graph" transform="scale(1 1) rotate(0) translate(4 114)">
<title>dfa</title>
<polygon fill="white" stroke="none" points="-4,4 -4,-114 209.6,-114 209.6,4 -4,4"/>
<!-- __start -->
<!-- 0 -->
<g id="node2" class="node"><title>0</title>
<ellipse fill="none" stroke="black" cx="91.6" cy="-22" rx="27" ry="18"/>
<text text-anchor="middle" x="91.6" y="-18.3" font-family="Times New Roman,serif" font-size="14.00">0</text>
</g>
<!-- __start&#45;&gt;0 -->
<g id="edge1" class="edge"><title>__start&#45;&gt;0</title>
<path fill="none" stroke="black" d="M3.78604,-22C8.86985,-22 32.7092,-22 54.1222,-22"/>
<polygon fill="black" stroke="black" points="54.3463,-25.5001 64.3463,-22 54.3463,-18.5001 54.3463,-25.5001"/>
<text text-anchor="middle" x="34.1" y="-25.8" font-family="Times New Roman,serif" font-size="14.00">start</text>
</g>
<!-- 0&#45;&gt;0 -->
<g id="edge3" class="edge"><title>0&#45;&gt;0</title>
<path fill="none" stroke="black" d="M87.2857,-39.7817C86.5525,-49.3149 87.9906,-58 91.6,-58 93.7995,-58 95.1927,-54.7749 95.7796,-50.0981"/>
<polygon fill="black" stroke="black" points="99.2833,-49.8266 95.9143,-39.7817 92.2839,-49.7351 99.2833,-49.8266"/>
<text text-anchor="middle" x="91.6" y="-61.8" font-family="Times New Roman,serif" font-size="14.00">r</text>
</g>
<!-- 0&#45;&gt;0 -->
<g id="edge4" class="edge"><title>0&#45;&gt;0</title>
<path fill="none" stroke="black" d="M84.5122,-39.4203C80.4718,-56.791 82.8344,-76 91.6,-76 98.6536,-76 101.561,-63.5617 100.322,-49.652"/>
<polygon fill="black" stroke="black" points="103.722,-48.7428 98.6878,-39.4203 96.8094,-49.8472 103.722,-48.7428"/>
<text text-anchor="middle" x="91.6" y="-79.8" font-family="Times New Roman,serif" font-size="14.00">n</text>
</g>
<!-- 1 -->
<g id="node3" class="node"><title>1</title>
<ellipse fill="none" stroke="black" cx="183.6" cy="-22" rx="18" ry="18"/>
<ellipse fill="none" stroke="black" cx="183.6" cy="-22" rx="22" ry="22"/>
<text text-anchor="middle" x="183.6" y="-18.3" font-family="Times New Roman,serif" font-size="14.00">1</text>
</g>
<!-- 0&#45;&gt;1 -->
<g id="edge2" class="edge"><title>0&#45;&gt;1</title>
<path fill="none" stroke="black" d="M118.632,-22C128.833,-22 140.626,-22 151.287,-22"/>
<polygon fill="black" stroke="black" points="151.469,-25.5001 161.469,-22 151.469,-18.5001 151.469,-25.5001"/>
<text text-anchor="middle" x="140.1" y="-25.8" font-family="Times New Roman,serif" font-size="14.00">y</text>
</g>
<!-- 1&#45;&gt;0 -->
<g id="edge5" class="edge"><title>1&#45;&gt;0</title>
<path fill="none" stroke="black" d="M164.196,-10.9159C157.891,-7.703 150.645,-4.6249 143.6,-3 136.004,-1.24817 128.008,-2.5987 120.657,-5.23395"/>
<polygon fill="black" stroke="black" points="118.859,-2.20268 111.133,-9.4531 121.694,-8.60281 118.859,-2.20268"/>
<text text-anchor="middle" x="140.1" y="-6.8" font-family="Times New Roman,serif" font-size="14.00">y</text>
</g>
<!-- 1&#45;&gt;1 -->
<g id="edge6" class="edge"><title>1&#45;&gt;1</title>
<path fill="none" stroke="black" d="M179.724,-43.8066C179.355,-53.5625 180.647,-62 183.6,-62 185.446,-62 186.643,-58.7041 187.19,-53.8504"/>
<polygon fill="black" stroke="black" points="190.69,-53.9021 187.476,-43.8066 183.693,-53.7031 190.69,-53.9021"/>
<text text-anchor="middle" x="183.6" y="-65.8" font-family="Times New Roman,serif" font-size="14.00">r</text>
</g>
<!-- 1&#45;&gt;1 -->
<g id="edge7" class="edge"><title>1&#45;&gt;1</title>
<path fill="none" stroke="black" d="M176.975,-43.1143C174.05,-61.0956 176.258,-80 183.6,-80 189.565,-80 192.141,-67.5201 191.329,-53.1954"/>
<polygon fill="black" stroke="black" points="194.793,-52.6738 190.225,-43.1143 187.834,-53.4359 194.793,-52.6738"/>
<text text-anchor="middle" x="183.6" y="-83.8" font-family="Times New Roman,serif" font-size="14.00">n</text>
</g>
</g>
</svg>
