<?xml version="1.0" encoding="UTF-8" standalone="no"?>
<!DOCTYPE svg PUBLIC "-//W3C//DTD SVG 1.1//EN"
 "http://www.w3.org/Graphics/SVG/1.1/DTD/svg11.dtd">
<!-- Generated by graphviz version 2.38.0 (20140413.2041)
 -->
<!-- Title: dfa Pages: 1 -->
<svg width="532pt" height="258pt"
 viewBox="0.00 0.00 531.60 257.54" xmlns="http://www.w3.org/2000/svg" xmlns:xlink="http://www.w3.org/1999/xlink">
<g id="graph0" class="graph" transform="scale(1 1) rotate(0) translate(4 253.545)">
<title>dfa</title>
<polygon fill="white" stroke="none" points="-4,4 -4,-253.545 527.6,-253.545 527.6,4 -4,4"/>
<!-- __start -->
<!-- 0 -->
<g id="node2" class="node"><title>0</title>
<ellipse fill="none" stroke="black" cx="82.6" cy="-196.545" rx="18" ry="18"/>
<text text-anchor="middle" x="82.6" y="-192.845" font-family="Times New Roman,serif" font-size="14.00">0</text>
</g>
<!-- __start&#45;&gt;0 -->
<g id="edge1" class="edge"><title>__start&#45;&gt;0</title>
<path fill="none" stroke="black" d="M3.68496,-196.545C8.69573,-196.545 34.008,-196.545 54.4423,-196.545"/>
<polygon fill="black" stroke="black" points="54.5501,-200.045 64.5501,-196.545 54.5501,-193.045 54.5501,-200.045"/>
<text text-anchor="middle" x="34.1" y="-200.345" font-family="Times New Roman,serif" font-size="14.00">start</text>
</g>
<!-- 1 -->
<g id="node3" class="node"><title>1</title>
<ellipse fill="none" stroke="black" cx="165.6" cy="-122.545" rx="18" ry="18"/>
<ellipse fill="none" stroke="black" cx="165.6" cy="-122.545" rx="22" ry="22"/>
<text text-anchor="middle" x="165.6" y="-118.845" font-family="Times New Roman,serif" font-size="14.00">1</text>
</g>
<!-- 0&#45;&gt;1 -->
<g id="edge2" class="edge"><title>0&#45;&gt;1</title>
<path fill="none" stroke="black" d="M96.6141,-184.655C108.613,-173.693 126.707,-157.163 141.212,-143.912"/>
<polygon fill="black" stroke="black" points="143.818,-146.272 148.84,-136.943 139.096,-141.104 143.818,-146.272"/>
<text text-anchor="middle" x="122.1" y="-167.345" font-family="Times New Roman,serif" font-size="14.00">k</text>
</g>
<!-- 3 -->
<g id="node5" class="node"><title>3</title>
<ellipse fill="none" stroke="black" cx="333.6" cy="-151.545" rx="18" ry="18"/>
<ellipse fill="none" stroke="black" cx="333.6" cy="-151.545" rx="22" ry="22"/>
<text text-anchor="middle" x="333.6" y="-147.845" font-family="Times New Roman,serif" font-size="14.00">3</text>
</g>
<!-- 0&#45;&gt;3 -->
<g id="edge4" class="edge"><title>0&#45;&gt;3</title>
<path fill="none" stroke="black" d="M100.715,-193.452C142.227,-185.949 248.74,-166.7 301.72,-157.126"/>
<polygon fill="black" stroke="black" points="302.348,-160.569 311.567,-155.346 301.104,-153.68 302.348,-160.569"/>
<text text-anchor="middle" x="209.6" y="-177.345" font-family="Times New Roman,serif" font-size="14.00">i</text>
</g>
<!-- 4 -->
<g id="node6" class="node"><title>4</title>
<ellipse fill="none" stroke="black" cx="505.6" cy="-75.5447" rx="18" ry="18"/>
<text text-anchor="middle" x="505.6" y="-71.8447" font-family="Times New Roman,serif" font-size="14.00">4</text>
</g>
<!-- 0&#45;&gt;4 -->
<g id="edge3" class="edge"><title>0&#45;&gt;4</title>
<path fill="none" stroke="black" d="M97.0339,-207.332C112.412,-218.567 138.815,-234.545 164.6,-234.545 164.6,-234.545 164.6,-234.545 422.6,-234.545 480.826,-234.545 497.748,-149.277 502.635,-103.626"/>
<polygon fill="black" stroke="black" points="506.138,-103.76 503.594,-93.475 499.169,-103.102 506.138,-103.76"/>
<text text-anchor="middle" x="289.6" y="-238.345" font-family="Times New Roman,serif" font-size="14.00">d</text>
</g>
<!-- 2 -->
<g id="node4" class="node"><title>2</title>
<ellipse fill="none" stroke="black" cx="421.6" cy="-31.5447" rx="18" ry="18"/>
<ellipse fill="none" stroke="black" cx="421.6" cy="-31.5447" rx="22" ry="22"/>
<text text-anchor="middle" x="421.6" y="-27.8447" font-family="Times New Roman,serif" font-size="14.00">2</text>
</g>
<!-- 1&#45;&gt;2 -->
<g id="edge5" class="edge"><title>1&#45;&gt;2</title>
<path fill="none" stroke="black" d="M181.314,-107.075C193.708,-94.836 212.438,-78.1032 231.6,-67.5447 281.981,-39.7841 350.106,-33.0817 389.304,-31.6682"/>
<polygon fill="black" stroke="black" points="389.418,-35.1665 399.32,-31.4006 389.231,-28.169 389.418,-35.1665"/>
<text text-anchor="middle" x="289.6" y="-50.3447" font-family="Times New Roman,serif" font-size="14.00">k</text>
</g>
<!-- 1&#45;&gt;3 -->
<g id="edge7" class="edge"><title>1&#45;&gt;3</title>
<path fill="none" stroke="black" d="M187.624,-126.218C216.437,-131.251 268.399,-140.329 301.658,-146.139"/>
<polygon fill="black" stroke="black" points="301.294,-149.628 311.747,-147.902 302.498,-142.733 301.294,-149.628"/>
<text text-anchor="middle" x="249.6" y="-143.345" font-family="Times New Roman,serif" font-size="14.00">i</text>
</g>
<!-- 5 -->
<g id="node7" class="node"><title>5</title>
<ellipse fill="none" stroke="black" cx="249.6" cy="-94.5447" rx="18" ry="18"/>
<text text-anchor="middle" x="249.6" y="-90.8447" font-family="Times New Roman,serif" font-size="14.00">5</text>
</g>
<!-- 1&#45;&gt;5 -->
<g id="edge6" class="edge"><title>1&#45;&gt;5</title>
<path fill="none" stroke="black" d="M186.87,-115.623C197.727,-111.916 211.217,-107.31 222.815,-103.349"/>
<polygon fill="black" stroke="black" points="224.073,-106.618 232.406,-100.075 221.811,-99.9938 224.073,-106.618"/>
<text text-anchor="middle" x="209.6" y="-112.345" font-family="Times New Roman,serif" font-size="14.00">d</text>
</g>
<!-- 2&#45;&gt;4 -->
<g id="edge8" class="edge"><title>2&#45;&gt;4</title>
<path fill="none" stroke="black" d="M442.252,-22.7984C451.04,-20.2122 461.271,-19.1108 469.6,-23.5447 480.264,-29.2217 488.261,-39.7539 493.899,-49.8628"/>
<polygon fill="black" stroke="black" points="490.808,-51.508 498.422,-58.876 497.065,-48.3684 490.808,-51.508"/>
<text text-anchor="middle" x="465.6" y="-27.3447" font-family="Times New Roman,serif" font-size="14.00">k</text>
</g>
<!-- 2&#45;&gt;4 -->
<g id="edge9" class="edge"><title>2&#45;&gt;4</title>
<path fill="none" stroke="black" d="M435.808,-14.6728C445.249,-4.73692 458.24,4.60661 469.6,-2.54475 485.309,-12.4341 494.125,-31.5488 498.979,-47.738"/>
<polygon fill="black" stroke="black" points="495.703,-49.0451 501.629,-57.8278 502.474,-47.2667 495.703,-49.0451"/>
<text text-anchor="middle" x="465.6" y="-6.34475" font-family="Times New Roman,serif" font-size="14.00">d</text>
</g>
<!-- 2&#45;&gt;4 -->
<g id="edge10" class="edge"><title>2&#45;&gt;4</title>
<path fill="none" stroke="black" d="M441.207,-41.529C452.805,-47.7521 467.851,-55.8256 480.374,-62.5453"/>
<polygon fill="black" stroke="black" points="478.893,-65.7228 489.36,-67.367 482.203,-59.5547 478.893,-65.7228"/>
<text text-anchor="middle" x="465.6" y="-60.3447" font-family="Times New Roman,serif" font-size="14.00">i</text>
</g>
<!-- 3&#45;&gt;2 -->
<g id="edge14" class="edge"><title>3&#45;&gt;2</title>
<path fill="none" stroke="black" d="M351.147,-138.111C360.808,-129.716 372.791,-118.295 381.6,-106.545 392.043,-92.6154 401.182,-75.4911 407.983,-61.1238"/>
<polygon fill="black" stroke="black" points="411.322,-62.2399 412.305,-51.6909 404.958,-59.324 411.322,-62.2399"/>
<text text-anchor="middle" x="377.6" y="-119.345" font-family="Times New Roman,serif" font-size="14.00">k</text>
</g>
<!-- 3&#45;&gt;3 -->
<g id="edge16" class="edge"><title>3&#45;&gt;3</title>
<path fill="none" stroke="black" d="M325.594,-172.126C324.486,-182.389 327.155,-191.545 333.6,-191.545 337.729,-191.545 340.308,-187.787 341.337,-182.388"/>
<polygon fill="black" stroke="black" points="344.843,-182.214 341.606,-172.126 337.845,-182.03 344.843,-182.214"/>
<text text-anchor="middle" x="333.6" y="-195.345" font-family="Times New Roman,serif" font-size="14.00">i</text>
</g>
<!-- 3&#45;&gt;4 -->
<g id="edge15" class="edge"><title>3&#45;&gt;4</title>
<path fill="none" stroke="black" d="M355.231,-146.814C382.575,-140.008 431.77,-125.878 469.6,-104.545 474.669,-101.686 479.723,-98.0676 484.348,-94.3645"/>
<polygon fill="black" stroke="black" points="486.773,-96.8972 492.124,-87.7531 482.238,-91.5643 486.773,-96.8972"/>
<text text-anchor="middle" x="421.6" y="-137.345" font-family="Times New Roman,serif" font-size="14.00">d</text>
</g>
<!-- 4&#45;&gt;4 -->
<g id="edge11" class="edge"><title>4&#45;&gt;4</title>
<path fill="none" stroke="black" d="M503.188,-93.6975C502.817,-103.084 503.621,-111.545 505.6,-111.545 506.806,-111.545 507.576,-108.403 507.909,-103.824"/>
<polygon fill="black" stroke="black" points="511.41,-103.733 508.012,-93.6975 504.41,-103.661 511.41,-103.733"/>
<text text-anchor="middle" x="505.6" y="-115.345" font-family="Times New Roman,serif" font-size="14.00">k</text>
</g>
<!-- 4&#45;&gt;4 -->
<g id="edge12" class="edge"><title>4&#45;&gt;4</title>
<path fill="none" stroke="black" d="M501.627,-93.2439C499.432,-110.541 500.756,-129.545 505.6,-129.545 509.498,-129.545 511.117,-117.239 510.457,-103.42"/>
<polygon fill="black" stroke="black" points="513.925,-102.904 509.573,-93.2439 506.951,-103.509 513.925,-102.904"/>
<text text-anchor="middle" x="505.6" y="-133.345" font-family="Times New Roman,serif" font-size="14.00">d</text>
</g>
<!-- 4&#45;&gt;4 -->
<g id="edge13" class="edge"><title>4&#45;&gt;4</title>
<path fill="none" stroke="black" d="M500.675,-92.8981C496.029,-117.362 497.67,-147.545 505.6,-147.545 512.477,-147.545 514.624,-124.847 512.044,-102.864"/>
<polygon fill="black" stroke="black" points="515.492,-102.257 510.525,-92.8981 508.571,-103.311 515.492,-102.257"/>
<text text-anchor="middle" x="505.6" y="-151.345" font-family="Times New Roman,serif" font-size="14.00">i</text>
</g>
<!-- 5&#45;&gt;2 -->
<g id="edge17" class="edge"><title>5&#45;&gt;2</title>
<path fill="none" stroke="black" d="M265.182,-85.4295C277.261,-78.1826 295.066,-68.1916 311.6,-61.5447 337.225,-51.2431 367.612,-43.2024 389.784,-38.0496"/>
<polygon fill="black" stroke="black" points="390.666,-41.4387 399.649,-35.8212 389.123,-34.6108 390.666,-41.4387"/>
<text text-anchor="middle" x="333.6" y="-65.3447" font-family="Times New Roman,serif" font-size="14.00">k</text>
</g>
<!-- 5&#45;&gt;3 -->
<g id="edge19" class="edge"><title>5&#45;&gt;3</title>
<path fill="none" stroke="black" d="M264.883,-104.473C276.326,-112.428 292.687,-123.8 306.46,-133.374"/>
<polygon fill="black" stroke="black" points="304.85,-136.518 315.059,-139.352 308.846,-130.77 304.85,-136.518"/>
<text text-anchor="middle" x="289.6" y="-126.345" font-family="Times New Roman,serif" font-size="14.00">i</text>
</g>
<!-- 5&#45;&gt;4 -->
<g id="edge18" class="edge"><title>5&#45;&gt;4</title>
<path fill="none" stroke="black" d="M267.66,-93.2686C310.859,-90.0372 424.854,-81.51 477.385,-77.5805"/>
<polygon fill="black" stroke="black" points="477.903,-81.0516 487.614,-76.8153 477.381,-74.0711 477.903,-81.0516"/>
<text text-anchor="middle" x="377.6" y="-88.3447" font-family="Times New Roman,serif" font-size="14.00">d</text>
</g>
</g>
</svg>
