<?xml version="1.0" encoding="UTF-8" standalone="no"?>
<!DOCTYPE svg PUBLIC "-//W3C//DTD SVG 1.1//EN"
 "http://www.w3.org/Graphics/SVG/1.1/DTD/svg11.dtd">
<!-- Generated by graphviz version 2.38.0 (20140413.2041)
 -->
<!-- Title: enfa Pages: 1 -->
<svg width="1175pt" height="166pt"
 viewBox="0.00 0.00 1174.57 166.00" xmlns="http://www.w3.org/2000/svg" xmlns:xlink="http://www.w3.org/1999/xlink">
<g id="graph0" class="graph" transform="scale(1 1) rotate(0) translate(4 162)">
<title>enfa</title>
<polygon fill="white" stroke="none" points="-4,4 -4,-162 1170.57,-162 1170.57,4 -4,4"/>
<!-- __start -->
<!-- 0 -->
<g id="node2" class="node"><title>0</title>
<ellipse fill="none" stroke="black" cx="82.6" cy="-100" rx="18" ry="18"/>
<text text-anchor="middle" x="82.6" y="-96.3" font-family="Times New Roman,serif" font-size="14.00">0</text>
</g>
<!-- __start&#45;&gt;0 -->
<g id="edge1" class="edge"><title>__start&#45;&gt;0</title>
<path fill="none" stroke="black" d="M3.68496,-100C8.69573,-100 34.008,-100 54.4423,-100"/>
<polygon fill="black" stroke="black" points="54.5501,-103.5 64.5501,-100 54.5501,-96.5001 54.5501,-103.5"/>
<text text-anchor="middle" x="34.1" y="-103.8" font-family="Times New Roman,serif" font-size="14.00">start</text>
</g>
<!-- 2 -->
<g id="node4" class="node"><title>2</title>
<ellipse fill="none" stroke="black" cx="163.098" cy="-126" rx="18" ry="18"/>
<text text-anchor="middle" x="163.098" y="-122.3" font-family="Times New Roman,serif" font-size="14.00">2</text>
</g>
<!-- 0&#45;&gt;2 -->
<g id="edge11" class="edge"><title>0&#45;&gt;2</title>
<path fill="none" stroke="black" d="M99.8649,-105.387C110.39,-108.873 124.32,-113.487 136.332,-117.466"/>
<polygon fill="black" stroke="black" points="135.261,-120.798 145.854,-120.62 137.462,-114.153 135.261,-120.798"/>
<text text-anchor="middle" x="122.1" y="-117.8" font-family="Times New Roman,serif" font-size="14.00">ε</text>
</g>
<!-- 10 -->
<g id="node12" class="node"><title>10</title>
<ellipse fill="none" stroke="black" cx="163.098" cy="-71" rx="19.4965" ry="19.4965"/>
<text text-anchor="middle" x="163.098" y="-67.3" font-family="Times New Roman,serif" font-size="14.00">10</text>
</g>
<!-- 0&#45;&gt;10 -->
<g id="edge12" class="edge"><title>0&#45;&gt;10</title>
<path fill="none" stroke="black" d="M99.8649,-93.9912C109.937,-90.27 123.128,-85.3968 134.772,-81.0952"/>
<polygon fill="black" stroke="black" points="136.322,-84.254 144.489,-77.5053 133.896,-77.6877 136.322,-84.254"/>
<text text-anchor="middle" x="122.1" y="-90.8" font-family="Times New Roman,serif" font-size="14.00">ε</text>
</g>
<!-- 1 -->
<g id="node3" class="node"><title>1</title>
<ellipse fill="none" stroke="black" cx="1144.57" cy="-110" rx="18" ry="18"/>
<ellipse fill="none" stroke="black" cx="1144.57" cy="-110" rx="22" ry="22"/>
<text text-anchor="middle" x="1144.57" y="-106.3" font-family="Times New Roman,serif" font-size="14.00">1</text>
</g>
<!-- 3 -->
<g id="node5" class="node"><title>3</title>
<ellipse fill="none" stroke="black" cx="243.597" cy="-126" rx="18" ry="18"/>
<text text-anchor="middle" x="243.597" y="-122.3" font-family="Times New Roman,serif" font-size="14.00">3</text>
</g>
<!-- 2&#45;&gt;3 -->
<g id="edge2" class="edge"><title>2&#45;&gt;3</title>
<path fill="none" stroke="black" d="M181.131,-126C191.041,-126 203.768,-126 215.068,-126"/>
<polygon fill="black" stroke="black" points="215.326,-129.5 225.326,-126 215.326,-122.5 215.326,-129.5"/>
<text text-anchor="middle" x="204.097" y="-129.8" font-family="Times New Roman,serif" font-size="14.00">k</text>
</g>
<!-- 4 -->
<g id="node6" class="node"><title>4</title>
<ellipse fill="none" stroke="black" cx="322.597" cy="-126" rx="18" ry="18"/>
<text text-anchor="middle" x="322.597" y="-122.3" font-family="Times New Roman,serif" font-size="14.00">4</text>
</g>
<!-- 3&#45;&gt;4 -->
<g id="edge4" class="edge"><title>3&#45;&gt;4</title>
<path fill="none" stroke="black" d="M261.685,-126C271.255,-126 283.414,-126 294.273,-126"/>
<polygon fill="black" stroke="black" points="294.556,-129.5 304.556,-126 294.555,-122.5 294.556,-129.5"/>
<text text-anchor="middle" x="283.097" y="-129.8" font-family="Times New Roman,serif" font-size="14.00">ε</text>
</g>
<!-- 5 -->
<g id="node7" class="node"><title>5</title>
<ellipse fill="none" stroke="black" cx="404.095" cy="-126" rx="18" ry="18"/>
<text text-anchor="middle" x="404.095" y="-122.3" font-family="Times New Roman,serif" font-size="14.00">5</text>
</g>
<!-- 4&#45;&gt;5 -->
<g id="edge3" class="edge"><title>4&#45;&gt;5</title>
<path fill="none" stroke="black" d="M340.846,-126C351.056,-126 364.218,-126 375.807,-126"/>
<polygon fill="black" stroke="black" points="375.879,-129.5 385.879,-126 375.878,-122.5 375.879,-129.5"/>
<text text-anchor="middle" x="362.597" y="-129.8" font-family="Times New Roman,serif" font-size="14.00">d</text>
</g>
<!-- 12 -->
<g id="node14" class="node"><title>12</title>
<ellipse fill="none" stroke="black" cx="486.091" cy="-100" rx="19.4965" ry="19.4965"/>
<text text-anchor="middle" x="486.091" y="-96.3" font-family="Times New Roman,serif" font-size="14.00">12</text>
</g>
<!-- 5&#45;&gt;12 -->
<g id="edge13" class="edge"><title>5&#45;&gt;12</title>
<path fill="none" stroke="black" d="M421.67,-120.613C432.11,-117.22 445.837,-112.758 457.85,-108.854"/>
<polygon fill="black" stroke="black" points="458.999,-112.161 467.427,-105.741 456.835,-105.503 458.999,-112.161"/>
<text text-anchor="middle" x="445.093" y="-117.8" font-family="Times New Roman,serif" font-size="14.00">ε</text>
</g>
<!-- 6 -->
<g id="node8" class="node"><title>6</title>
<ellipse fill="none" stroke="black" cx="243.597" cy="-72" rx="18" ry="18"/>
<text text-anchor="middle" x="243.597" y="-68.3" font-family="Times New Roman,serif" font-size="14.00">6</text>
</g>
<!-- 7 -->
<g id="node9" class="node"><title>7</title>
<ellipse fill="none" stroke="black" cx="322.597" cy="-72" rx="18" ry="18"/>
<text text-anchor="middle" x="322.597" y="-68.3" font-family="Times New Roman,serif" font-size="14.00">7</text>
</g>
<!-- 6&#45;&gt;7 -->
<g id="edge5" class="edge"><title>6&#45;&gt;7</title>
<path fill="none" stroke="black" d="M261.685,-72C271.255,-72 283.414,-72 294.273,-72"/>
<polygon fill="black" stroke="black" points="294.556,-75.5001 304.556,-72 294.555,-68.5001 294.556,-75.5001"/>
<text text-anchor="middle" x="283.097" y="-75.8" font-family="Times New Roman,serif" font-size="14.00">ε</text>
</g>
<!-- 11 -->
<g id="node13" class="node"><title>11</title>
<ellipse fill="none" stroke="black" cx="404.095" cy="-71" rx="19.4965" ry="19.4965"/>
<text text-anchor="middle" x="404.095" y="-67.3" font-family="Times New Roman,serif" font-size="14.00">11</text>
</g>
<!-- 7&#45;&gt;11 -->
<g id="edge9" class="edge"><title>7&#45;&gt;11</title>
<path fill="none" stroke="black" d="M340.846,-71.783C350.605,-71.6603 363.062,-71.5036 374.265,-71.3626"/>
<polygon fill="black" stroke="black" points="374.537,-74.8596 384.492,-71.234 374.449,-67.8602 374.537,-74.8596"/>
<text text-anchor="middle" x="362.597" y="-75.8" font-family="Times New Roman,serif" font-size="14.00">ε</text>
</g>
<!-- 8 -->
<g id="node10" class="node"><title>8</title>
<ellipse fill="none" stroke="black" cx="243.597" cy="-18" rx="18" ry="18"/>
<text text-anchor="middle" x="243.597" y="-14.3" font-family="Times New Roman,serif" font-size="14.00">8</text>
</g>
<!-- 9 -->
<g id="node11" class="node"><title>9</title>
<ellipse fill="none" stroke="black" cx="322.597" cy="-18" rx="18" ry="18"/>
<text text-anchor="middle" x="322.597" y="-14.3" font-family="Times New Roman,serif" font-size="14.00">9</text>
</g>
<!-- 8&#45;&gt;9 -->
<g id="edge6" class="edge"><title>8&#45;&gt;9</title>
<path fill="none" stroke="black" d="M261.685,-18C271.255,-18 283.414,-18 294.273,-18"/>
<polygon fill="black" stroke="black" points="294.556,-21.5001 304.556,-18 294.555,-14.5001 294.556,-21.5001"/>
<text text-anchor="middle" x="283.097" y="-21.8" font-family="Times New Roman,serif" font-size="14.00">k</text>
</g>
<!-- 9&#45;&gt;11 -->
<g id="edge10" class="edge"><title>9&#45;&gt;11</title>
<path fill="none" stroke="black" d="M338.178,-27.721C349.541,-35.2966 365.566,-45.9801 378.85,-54.8368"/>
<polygon fill="black" stroke="black" points="377.257,-57.9809 387.519,-60.6158 381.14,-52.1565 377.257,-57.9809"/>
<text text-anchor="middle" x="362.597" y="-50.8" font-family="Times New Roman,serif" font-size="14.00">ε</text>
</g>
<!-- 10&#45;&gt;6 -->
<g id="edge7" class="edge"><title>10&#45;&gt;6</title>
<path fill="none" stroke="black" d="M182.701,-71.237C192.426,-71.3609 204.515,-71.5149 215.281,-71.652"/>
<polygon fill="black" stroke="black" points="215.424,-75.154 225.468,-71.7818 215.514,-68.1546 215.424,-75.154"/>
<text text-anchor="middle" x="204.097" y="-75.8" font-family="Times New Roman,serif" font-size="14.00">ε</text>
</g>
<!-- 10&#45;&gt;8 -->
<g id="edge8" class="edge"><title>10&#45;&gt;8</title>
<path fill="none" stroke="black" d="M179.607,-60.5289C191.079,-52.7834 206.885,-42.1114 219.794,-33.3958"/>
<polygon fill="black" stroke="black" points="221.849,-36.231 228.179,-27.7345 217.932,-30.4295 221.849,-36.231"/>
<text text-anchor="middle" x="204.097" y="-50.8" font-family="Times New Roman,serif" font-size="14.00">ε</text>
</g>
<!-- 11&#45;&gt;12 -->
<g id="edge14" class="edge"><title>11&#45;&gt;12</title>
<path fill="none" stroke="black" d="M422.849,-77.436C433.102,-81.153 446.215,-85.9066 457.758,-90.0913"/>
<polygon fill="black" stroke="black" points="456.793,-93.4642 467.387,-93.582 459.179,-86.8833 456.793,-93.4642"/>
<text text-anchor="middle" x="445.093" y="-90.8" font-family="Times New Roman,serif" font-size="14.00">ε</text>
</g>
<!-- 15 -->
<g id="node17" class="node"><title>15</title>
<ellipse fill="none" stroke="black" cx="568.088" cy="-100" rx="19.4965" ry="19.4965"/>
<text text-anchor="middle" x="568.088" y="-96.3" font-family="Times New Roman,serif" font-size="14.00">15</text>
</g>
<!-- 12&#45;&gt;15 -->
<g id="edge27" class="edge"><title>12&#45;&gt;15</title>
<path fill="none" stroke="black" d="M505.645,-100C515.269,-100 527.244,-100 538.059,-100"/>
<polygon fill="black" stroke="black" points="538.358,-103.5 548.358,-100 538.357,-96.5001 538.358,-103.5"/>
<text text-anchor="middle" x="527.09" y="-103.8" font-family="Times New Roman,serif" font-size="14.00">ε</text>
</g>
<!-- 13 -->
<g id="node15" class="node"><title>13</title>
<ellipse fill="none" stroke="black" cx="650.084" cy="-131" rx="19.4965" ry="19.4965"/>
<text text-anchor="middle" x="650.084" y="-127.3" font-family="Times New Roman,serif" font-size="14.00">13</text>
</g>
<!-- 14 -->
<g id="node16" class="node"><title>14</title>
<ellipse fill="none" stroke="black" cx="732.081" cy="-131" rx="19.4965" ry="19.4965"/>
<text text-anchor="middle" x="732.081" y="-127.3" font-family="Times New Roman,serif" font-size="14.00">14</text>
</g>
<!-- 13&#45;&gt;14 -->
<g id="edge15" class="edge"><title>13&#45;&gt;14</title>
<path fill="none" stroke="black" d="M668.279,-138.594C676.211,-141.255 685.798,-143.295 694.583,-142 697.529,-141.566 700.567,-140.944 703.574,-140.215"/>
<polygon fill="black" stroke="black" points="704.812,-143.503 713.497,-137.434 702.923,-136.762 704.812,-143.503"/>
<text text-anchor="middle" x="691.083" y="-146.8" font-family="Times New Roman,serif" font-size="14.00">i</text>
</g>
<!-- 14&#45;&gt;13 -->
<g id="edge18" class="edge"><title>14&#45;&gt;13</title>
<path fill="none" stroke="black" d="M713.015,-126.233C707.176,-124.91 700.645,-123.657 694.583,-123 689.506,-122.45 684.132,-122.726 678.957,-123.435"/>
<polygon fill="black" stroke="black" points="677.943,-120.065 668.775,-125.375 679.253,-126.942 677.943,-120.065"/>
<text text-anchor="middle" x="691.083" y="-126.8" font-family="Times New Roman,serif" font-size="14.00">ε</text>
</g>
<!-- 16 -->
<g id="node18" class="node"><title>16</title>
<ellipse fill="none" stroke="black" cx="814.078" cy="-104" rx="19.4965" ry="19.4965"/>
<text text-anchor="middle" x="814.078" y="-100.3" font-family="Times New Roman,serif" font-size="14.00">16</text>
</g>
<!-- 14&#45;&gt;16 -->
<g id="edge19" class="edge"><title>14&#45;&gt;16</title>
<path fill="none" stroke="black" d="M750.835,-125.008C761.088,-121.547 774.201,-117.121 785.744,-113.225"/>
<polygon fill="black" stroke="black" points="787.018,-116.49 795.373,-109.975 784.779,-109.857 787.018,-116.49"/>
<text text-anchor="middle" x="773.079" y="-122.8" font-family="Times New Roman,serif" font-size="14.00">ε</text>
</g>
<!-- 15&#45;&gt;13 -->
<g id="edge16" class="edge"><title>15&#45;&gt;13</title>
<path fill="none" stroke="black" d="M586.446,-106.727C596.929,-110.789 610.505,-116.05 622.338,-120.635"/>
<polygon fill="black" stroke="black" points="621.171,-123.937 631.76,-124.287 623.701,-117.41 621.171,-123.937"/>
<text text-anchor="middle" x="609.086" y="-120.8" font-family="Times New Roman,serif" font-size="14.00">ε</text>
</g>
<!-- 15&#45;&gt;16 -->
<g id="edge17" class="edge"><title>15&#45;&gt;16</title>
<path fill="none" stroke="black" d="M587.828,-100.307C630.14,-101.001 733.322,-102.692 784.009,-103.523"/>
<polygon fill="black" stroke="black" points="784.217,-107.027 794.273,-103.692 784.332,-100.028 784.217,-107.027"/>
<text text-anchor="middle" x="691.083" y="-106.8" font-family="Times New Roman,serif" font-size="14.00">ε</text>
</g>
<!-- 21 -->
<g id="node23" class="node"><title>21</title>
<ellipse fill="none" stroke="black" cx="896.074" cy="-104" rx="19.4965" ry="19.4965"/>
<text text-anchor="middle" x="896.074" y="-100.3" font-family="Times New Roman,serif" font-size="14.00">21</text>
</g>
<!-- 16&#45;&gt;21 -->
<g id="edge26" class="edge"><title>16&#45;&gt;21</title>
<path fill="none" stroke="black" d="M833.631,-104C843.255,-104 855.23,-104 866.045,-104"/>
<polygon fill="black" stroke="black" points="866.344,-107.5 876.344,-104 866.344,-100.5 866.344,-107.5"/>
<text text-anchor="middle" x="855.076" y="-107.8" font-family="Times New Roman,serif" font-size="14.00">ε</text>
</g>
<!-- 17 -->
<g id="node19" class="node"><title>17</title>
<ellipse fill="none" stroke="black" cx="978.071" cy="-137" rx="19.4965" ry="19.4965"/>
<text text-anchor="middle" x="978.071" y="-133.3" font-family="Times New Roman,serif" font-size="14.00">17</text>
</g>
<!-- 18 -->
<g id="node20" class="node"><title>18</title>
<ellipse fill="none" stroke="black" cx="1060.07" cy="-137" rx="19.4965" ry="19.4965"/>
<text text-anchor="middle" x="1060.07" y="-133.3" font-family="Times New Roman,serif" font-size="14.00">18</text>
</g>
<!-- 17&#45;&gt;18 -->
<g id="edge20" class="edge"><title>17&#45;&gt;18</title>
<path fill="none" stroke="black" d="M997.624,-137C1007.25,-137 1019.22,-137 1030.04,-137"/>
<polygon fill="black" stroke="black" points="1030.34,-140.5 1040.34,-137 1030.34,-133.5 1030.34,-140.5"/>
<text text-anchor="middle" x="1019.07" y="-140.8" font-family="Times New Roman,serif" font-size="14.00">k</text>
</g>
<!-- 18&#45;&gt;1 -->
<g id="edge24" class="edge"><title>18&#45;&gt;1</title>
<path fill="none" stroke="black" d="M1078.97,-131.141C1089.08,-127.831 1101.99,-123.605 1113.61,-119.804"/>
<polygon fill="black" stroke="black" points="1114.97,-123.043 1123.38,-116.606 1112.79,-116.39 1114.97,-123.043"/>
<text text-anchor="middle" x="1101.07" y="-128.8" font-family="Times New Roman,serif" font-size="14.00">ε</text>
</g>
<!-- 19 -->
<g id="node21" class="node"><title>19</title>
<ellipse fill="none" stroke="black" cx="978.071" cy="-80" rx="19.4965" ry="19.4965"/>
<text text-anchor="middle" x="978.071" y="-76.3" font-family="Times New Roman,serif" font-size="14.00">19</text>
</g>
<!-- 20 -->
<g id="node22" class="node"><title>20</title>
<ellipse fill="none" stroke="black" cx="1060.07" cy="-80" rx="19.4965" ry="19.4965"/>
<text text-anchor="middle" x="1060.07" y="-76.3" font-family="Times New Roman,serif" font-size="14.00">20</text>
</g>
<!-- 19&#45;&gt;20 -->
<g id="edge21" class="edge"><title>19&#45;&gt;20</title>
<path fill="none" stroke="black" d="M997.624,-80C1007.25,-80 1019.22,-80 1030.04,-80"/>
<polygon fill="black" stroke="black" points="1030.34,-83.5001 1040.34,-80 1030.34,-76.5001 1030.34,-83.5001"/>
<text text-anchor="middle" x="1019.07" y="-83.8" font-family="Times New Roman,serif" font-size="14.00">i</text>
</g>
<!-- 20&#45;&gt;1 -->
<g id="edge25" class="edge"><title>20&#45;&gt;1</title>
<path fill="none" stroke="black" d="M1078.56,-86.3622C1088.84,-90.0978 1102.09,-94.9175 1113.95,-99.2295"/>
<polygon fill="black" stroke="black" points="1112.89,-102.569 1123.48,-102.697 1115.28,-95.9903 1112.89,-102.569"/>
<text text-anchor="middle" x="1101.07" y="-98.8" font-family="Times New Roman,serif" font-size="14.00">ε</text>
</g>
<!-- 21&#45;&gt;17 -->
<g id="edge22" class="edge"><title>21&#45;&gt;17</title>
<path fill="none" stroke="black" d="M914.432,-111.161C924.915,-115.485 938.491,-121.085 950.324,-125.966"/>
<polygon fill="black" stroke="black" points="949.167,-129.275 959.746,-129.853 951.837,-122.804 949.167,-129.275"/>
<text text-anchor="middle" x="937.072" y="-125.8" font-family="Times New Roman,serif" font-size="14.00">ε</text>
</g>
<!-- 21&#45;&gt;19 -->
<g id="edge23" class="edge"><title>21&#45;&gt;19</title>
<path fill="none" stroke="black" d="M915.227,-98.554C925.321,-95.5257 938.092,-91.694 949.405,-88.3"/>
<polygon fill="black" stroke="black" points="950.693,-91.5678 959.266,-85.3417 948.682,-84.863 950.693,-91.5678"/>
<text text-anchor="middle" x="937.072" y="-96.8" font-family="Times New Roman,serif" font-size="14.00">ε</text>
</g>
</g>
</svg>
