<?xml version="1.0" encoding="UTF-8" standalone="no"?>
<!DOCTYPE svg PUBLIC "-//W3C//DTD SVG 1.1//EN"
 "http://www.w3.org/Graphics/SVG/1.1/DTD/svg11.dtd">
<!-- Generated by graphviz version 2.38.0 (20140413.2041)
 -->
<!-- Title: dfa Pages: 1 -->
<svg width="1431pt" height="490pt"
 viewBox="0.00 0.00 1430.90 489.67" xmlns="http://www.w3.org/2000/svg" xmlns:xlink="http://www.w3.org/1999/xlink">
<g id="graph0" class="graph" transform="scale(1 1) rotate(0) translate(4 485.674)">
<title>dfa</title>
<polygon fill="white" stroke="none" points="-4,4 -4,-485.674 1426.9,-485.674 1426.9,4 -4,4"/>
<!-- __start -->
<!-- {0,10,11,12,13,15,16,17,19,2,21,6,7,8} -->
<g id="node2" class="node"><title>{0,10,11,12,13,15,16,17,19,2,21,6,7,8}</title>
<ellipse fill="none" stroke="black" cx="216.687" cy="-329.587" rx="152.173" ry="152.173"/>
<text text-anchor="middle" x="216.687" y="-325.887" font-family="Times New Roman,serif" font-size="14.00">{0,10,11,12,13,15,16,17,19,2,21,6,7,8}</text>
</g>
<!-- __start&#45;&gt;{0,10,11,12,13,15,16,17,19,2,21,6,7,8} -->
<g id="edge1" class="edge"><title>__start&#45;&gt;{0,10,11,12,13,15,16,17,19,2,21,6,7,8}</title>
<path fill="none" stroke="black" d="M3.74914,-329.587C8.23085,-329.587 28.1453,-329.587 54.1036,-329.587"/>
<polygon fill="black" stroke="black" points="54.3287,-333.087 64.3287,-329.587 54.3287,-326.087 54.3287,-333.087"/>
<text text-anchor="middle" x="34.1" y="-333.387" font-family="Times New Roman,serif" font-size="14.00">start</text>
</g>
<!-- {1,11,12,13,15,16,17,18,19,21,3,4,9} -->
<g id="node3" class="node"><title>{1,11,12,13,15,16,17,18,19,21,3,4,9}</title>
<ellipse fill="none" stroke="black" cx="561.36" cy="-149.587" rx="145.672" ry="145.672"/>
<ellipse fill="none" stroke="black" cx="561.36" cy="-149.587" rx="149.674" ry="149.674"/>
<text text-anchor="middle" x="561.36" y="-145.887" font-family="Times New Roman,serif" font-size="14.00">{1,11,12,13,15,16,17,18,19,21,3,4,9}</text>
</g>
<!-- {0,10,11,12,13,15,16,17,19,2,21,6,7,8}&#45;&gt;{1,11,12,13,15,16,17,18,19,21,3,4,9} -->
<g id="edge2" class="edge"><title>{0,10,11,12,13,15,16,17,19,2,21,6,7,8}&#45;&gt;{1,11,12,13,15,16,17,18,19,21,3,4,9}</title>
<path fill="none" stroke="black" d="M351.645,-259.221C373.934,-247.513 397.11,-235.339 419.563,-223.545"/>
<polygon fill="black" stroke="black" points="421.237,-226.619 428.463,-218.87 417.982,-220.422 421.237,-226.619"/>
<text text-anchor="middle" x="390.273" y="-243.387" font-family="Times New Roman,serif" font-size="14.00">k</text>
</g>
<!-- {1,13,14,16,17,19,20,21} -->
<g id="node5" class="node"><title>{1,13,14,16,17,19,20,21}</title>
<ellipse fill="none" stroke="black" cx="1111.02" cy="-282.587" rx="102.875" ry="102.875"/>
<ellipse fill="none" stroke="black" cx="1111.02" cy="-282.587" rx="106.882" ry="106.882"/>
<text text-anchor="middle" x="1111.02" y="-278.887" font-family="Times New Roman,serif" font-size="14.00">{1,13,14,16,17,19,20,21}</text>
</g>
<!-- {0,10,11,12,13,15,16,17,19,2,21,6,7,8}&#45;&gt;{1,13,14,16,17,19,20,21} -->
<g id="edge4" class="edge"><title>{0,10,11,12,13,15,16,17,19,2,21,6,7,8}&#45;&gt;{1,13,14,16,17,19,20,21}</title>
<path fill="none" stroke="black" d="M368.837,-331.108C519.168,-331.211 756.214,-327.562 960.329,-307.587 971.904,-306.454 983.937,-304.969 995.927,-303.286"/>
<polygon fill="black" stroke="black" points="996.583,-306.728 1005.98,-301.83 995.579,-299.8 996.583,-306.728"/>
<text text-anchor="middle" x="732.947" y="-326.387" font-family="Times New Roman,serif" font-size="14.00">i</text>
</g>
<!-- {} -->
<g id="node6" class="node"><title>{}</title>
<ellipse fill="none" stroke="black" cx="1403.4" cy="-132.587" rx="19.4965" ry="19.4965"/>
<text text-anchor="middle" x="1403.4" y="-128.887" font-family="Times New Roman,serif" font-size="14.00">{}</text>
</g>
<!-- {0,10,11,12,13,15,16,17,19,2,21,6,7,8}&#45;&gt;{} -->
<g id="edge3" class="edge"><title>{0,10,11,12,13,15,16,17,19,2,21,6,7,8}&#45;&gt;{}</title>
<path fill="none" stroke="black" d="M351.449,-400.323C413.28,-426.802 488.751,-450.587 560.36,-450.587 560.36,-450.587 560.36,-450.587 1301.81,-450.587 1361.95,-450.587 1390.72,-241.203 1399.44,-162.242"/>
<polygon fill="black" stroke="black" points="1402.95,-162.317 1400.53,-152.001 1395.99,-161.571 1402.95,-162.317"/>
<text text-anchor="middle" x="982.329" y="-454.387" font-family="Times New Roman,serif" font-size="14.00">d</text>
</g>
<!-- {1,18} -->
<g id="node4" class="node"><title>{1,18}</title>
<ellipse fill="none" stroke="black" cx="1300.81" cy="-80.5871" rx="35.1841" ry="35.1841"/>
<ellipse fill="none" stroke="black" cx="1300.81" cy="-80.5871" rx="39.194" ry="39.194"/>
<text text-anchor="middle" x="1300.81" y="-76.8871" font-family="Times New Roman,serif" font-size="14.00">{1,18}</text>
</g>
<!-- {1,11,12,13,15,16,17,18,19,21,3,4,9}&#45;&gt;{1,18} -->
<g id="edge5" class="edge"><title>{1,11,12,13,15,16,17,18,19,21,3,4,9}&#45;&gt;{1,18}</title>
<path fill="none" stroke="black" d="M684.383,-64.4804C706.935,-52.5617 730.963,-42.1535 754.947,-35.5871 934.435,13.554 1158.58,-38.9706 1253.71,-66.2601"/>
<polygon fill="black" stroke="black" points="1252.73,-69.622 1263.31,-69.0569 1254.69,-62.901 1252.73,-69.622"/>
<text text-anchor="middle" x="982.329" y="-21.3871" font-family="Times New Roman,serif" font-size="14.00">k</text>
</g>
<!-- {1,11,12,13,15,16,17,18,19,21,3,4,9}&#45;&gt;{1,13,14,16,17,19,20,21} -->
<g id="edge7" class="edge"><title>{1,11,12,13,15,16,17,18,19,21,3,4,9}&#45;&gt;{1,13,14,16,17,19,20,21}</title>
<path fill="none" stroke="black" d="M686.875,-231.388C708.812,-242.645 731.991,-252.691 754.947,-259.587 832.341,-282.836 923.356,-288.33 993.861,-288.144"/>
<polygon fill="black" stroke="black" points="994.134,-291.643 1004.11,-288.077 994.088,-284.643 994.134,-291.643"/>
<text text-anchor="middle" x="857.638" y="-292.387" font-family="Times New Roman,serif" font-size="14.00">i</text>
</g>
<!-- {12,13,15,16,17,19,21,5} -->
<g id="node7" class="node"><title>{12,13,15,16,17,19,21,5}</title>
<ellipse fill="none" stroke="black" cx="857.638" cy="-147.587" rx="102.882" ry="102.882"/>
<text text-anchor="middle" x="857.638" y="-143.887" font-family="Times New Roman,serif" font-size="14.00">{12,13,15,16,17,19,21,5}</text>
</g>
<!-- {1,11,12,13,15,16,17,18,19,21,3,4,9}&#45;&gt;{12,13,15,16,17,19,21,5} -->
<g id="edge6" class="edge"><title>{1,11,12,13,15,16,17,18,19,21,3,4,9}&#45;&gt;{12,13,15,16,17,19,21,5}</title>
<path fill="none" stroke="black" d="M711.223,-148.575C722.351,-148.5 733.465,-148.424 744.311,-148.35"/>
<polygon fill="black" stroke="black" points="744.644,-151.848 754.62,-148.28 744.597,-144.849 744.644,-151.848"/>
<text text-anchor="middle" x="732.947" y="-152.387" font-family="Times New Roman,serif" font-size="14.00">d</text>
</g>
<!-- {1,18}&#45;&gt;{} -->
<g id="edge8" class="edge"><title>{1,18}&#45;&gt;{}</title>
<path fill="none" stroke="black" d="M1339.5,-74.7587C1348.55,-74.903 1357.91,-76.4296 1365.9,-80.5871 1376.39,-86.0401 1384.5,-96.0429 1390.38,-105.83"/>
<polygon fill="black" stroke="black" points="1387.3,-107.504 1395.15,-114.62 1393.45,-104.162 1387.3,-107.504"/>
<text text-anchor="middle" x="1361.9" y="-84.3871" font-family="Times New Roman,serif" font-size="14.00">k</text>
</g>
<!-- {1,18}&#45;&gt;{} -->
<g id="edge9" class="edge"><title>{1,18}&#45;&gt;{}</title>
<path fill="none" stroke="black" d="M1333.4,-58.973C1344.19,-54.3334 1356.01,-52.4367 1365.9,-58.5871 1381.82,-68.4843 1391,-87.5956 1396.17,-103.917"/>
<polygon fill="black" stroke="black" points="1392.82,-104.932 1398.9,-113.611 1399.56,-103.037 1392.82,-104.932"/>
<text text-anchor="middle" x="1361.9" y="-62.3871" font-family="Times New Roman,serif" font-size="14.00">d</text>
</g>
<!-- {1,18}&#45;&gt;{} -->
<g id="edge10" class="edge"><title>{1,18}&#45;&gt;{}</title>
<path fill="none" stroke="black" d="M1335.86,-98.1919C1349.22,-105.095 1364.28,-112.882 1376.7,-119.299"/>
<polygon fill="black" stroke="black" points="1375.11,-122.419 1385.6,-123.902 1378.32,-116.201 1375.11,-122.419"/>
<text text-anchor="middle" x="1361.9" y="-117.387" font-family="Times New Roman,serif" font-size="14.00">i</text>
</g>
<!-- {1,13,14,16,17,19,20,21}&#45;&gt;{1,18} -->
<g id="edge14" class="edge"><title>{1,13,14,16,17,19,20,21}&#45;&gt;{1,18}</title>
<path fill="none" stroke="black" d="M1194.69,-215.913C1211.73,-200.522 1228.96,-183.636 1243.71,-166.587 1255.21,-153.303 1266.16,-137.502 1275.29,-123.091"/>
<polygon fill="black" stroke="black" points="1278.43,-124.675 1280.73,-114.333 1272.48,-120.982 1278.43,-124.675"/>
<text text-anchor="middle" x="1239.71" y="-178.387" font-family="Times New Roman,serif" font-size="14.00">k</text>
</g>
<!-- {1,13,14,16,17,19,20,21}&#45;&gt;{1,13,14,16,17,19,20,21} -->
<g id="edge16" class="edge"><title>{1,13,14,16,17,19,20,21}&#45;&gt;{1,13,14,16,17,19,20,21}</title>
<path fill="none" stroke="black" d="M1090.68,-387.654C1094.49,-399.561 1101.27,-407.278 1111.02,-407.278 1117.88,-407.278 1123.26,-403.463 1127.18,-397.058"/>
<polygon fill="black" stroke="black" points="1130.5,-398.213 1131.36,-387.654 1124.1,-395.372 1130.5,-398.213"/>
<text text-anchor="middle" x="1111.02" y="-411.078" font-family="Times New Roman,serif" font-size="14.00">i</text>
</g>
<!-- {1,13,14,16,17,19,20,21}&#45;&gt;{} -->
<g id="edge15" class="edge"><title>{1,13,14,16,17,19,20,21}&#45;&gt;{}</title>
<path fill="none" stroke="black" d="M1209.98,-242.153C1258.29,-220.666 1316.62,-192.357 1365.9,-161.587 1370.71,-158.587 1375.62,-155.059 1380.21,-151.517"/>
<polygon fill="black" stroke="black" points="1382.43,-154.22 1388.05,-145.235 1378.06,-148.757 1382.43,-154.22"/>
<text text-anchor="middle" x="1300.81" y="-221.387" font-family="Times New Roman,serif" font-size="14.00">d</text>
</g>
<!-- {}&#45;&gt;{} -->
<g id="edge11" class="edge"><title>{}&#45;&gt;{}</title>
<path fill="none" stroke="black" d="M1400.96,-152.265C1400.66,-161.73 1401.48,-170.085 1403.4,-170.085 1404.58,-170.085 1405.34,-166.983 1405.68,-162.417"/>
<polygon fill="black" stroke="black" points="1409.19,-162.318 1405.84,-152.265 1402.19,-162.21 1409.19,-162.318"/>
<text text-anchor="middle" x="1403.4" y="-173.885" font-family="Times New Roman,serif" font-size="14.00">k</text>
</g>
<!-- {}&#45;&gt;{} -->
<g id="edge12" class="edge"><title>{}&#45;&gt;{}</title>
<path fill="none" stroke="black" d="M1399.29,-151.926C1397.29,-169.385 1398.66,-188.085 1403.4,-188.085 1407.22,-188.085 1408.85,-175.976 1408.3,-162.15"/>
<polygon fill="black" stroke="black" points="1411.77,-161.629 1407.51,-151.926 1404.79,-162.165 1411.77,-161.629"/>
<text text-anchor="middle" x="1403.4" y="-191.885" font-family="Times New Roman,serif" font-size="14.00">d</text>
</g>
<!-- {}&#45;&gt;{} -->
<g id="edge13" class="edge"><title>{}&#45;&gt;{}</title>
<path fill="none" stroke="black" d="M1398.28,-151.412C1393.88,-176.179 1395.59,-206.085 1403.4,-206.085 1410.18,-206.085 1412.36,-183.595 1409.96,-161.47"/>
<polygon fill="black" stroke="black" points="1413.4,-160.821 1408.53,-151.412 1406.47,-161.805 1413.4,-160.821"/>
<text text-anchor="middle" x="1403.4" y="-209.885" font-family="Times New Roman,serif" font-size="14.00">i</text>
</g>
<!-- {12,13,15,16,17,19,21,5}&#45;&gt;{1,18} -->
<g id="edge17" class="edge"><title>{12,13,15,16,17,19,21,5}&#45;&gt;{1,18}</title>
<path fill="none" stroke="black" d="M958.397,-126.788C973.748,-123.861 989.44,-121.023 1004.33,-118.587 1091.24,-104.366 1193.26,-92.251 1251.84,-85.7323"/>
<polygon fill="black" stroke="black" points="1252.35,-89.1969 1261.91,-84.6194 1251.58,-82.2393 1252.35,-89.1969"/>
<text text-anchor="middle" x="1111.02" y="-122.387" font-family="Times New Roman,serif" font-size="14.00">k</text>
</g>
<!-- {12,13,15,16,17,19,21,5}&#45;&gt;{1,13,14,16,17,19,20,21} -->
<g id="edge19" class="edge"><title>{12,13,15,16,17,19,21,5}&#45;&gt;{1,13,14,16,17,19,20,21}</title>
<path fill="none" stroke="black" d="M948.683,-195.944C967.863,-206.245 988.252,-217.194 1007.85,-227.718"/>
<polygon fill="black" stroke="black" points="1006.32,-230.872 1016.79,-232.52 1009.64,-224.705 1006.32,-230.872"/>
<text text-anchor="middle" x="982.329" y="-219.387" font-family="Times New Roman,serif" font-size="14.00">i</text>
</g>
<!-- {12,13,15,16,17,19,21,5}&#45;&gt;{} -->
<g id="edge18" class="edge"><title>{12,13,15,16,17,19,21,5}&#45;&gt;{}</title>
<path fill="none" stroke="black" d="M960.597,-144.774C1087.51,-141.273 1296.88,-135.498 1373.32,-133.389"/>
<polygon fill="black" stroke="black" points="1373.7,-136.88 1383.6,-133.106 1373.51,-129.883 1373.7,-136.88"/>
<text text-anchor="middle" x="1239.71" y="-141.387" font-family="Times New Roman,serif" font-size="14.00">d</text>
</g>
</g>
</svg>
