<?xml version="1.0" encoding="UTF-8" standalone="no"?>
<!DOCTYPE svg PUBLIC "-//W3C//DTD SVG 1.1//EN"
 "http://www.w3.org/Graphics/SVG/1.1/DTD/svg11.dtd">
<!-- Generated by graphviz version 2.38.0 (20140413.2041)
 -->
<!-- Title: enfa Pages: 1 -->
<svg width="275pt" height="106pt"
 viewBox="0.00 0.00 274.60 106.24" xmlns="http://www.w3.org/2000/svg" xmlns:xlink="http://www.w3.org/1999/xlink">
<g id="graph0" class="graph" transform="scale(1 1) rotate(0) translate(4 102.24)">
<title>enfa</title>
<polygon fill="white" stroke="none" points="-4,4 -4,-102.24 270.6,-102.24 270.6,4 -4,4"/>
<!-- __start -->
<!-- 0 -->
<g id="node2" class="node"><title>0</title>
<ellipse fill="none" stroke="black" cx="82.6" cy="-21.2402" rx="18" ry="18"/>
<text text-anchor="middle" x="82.6" y="-17.5402" font-family="Times New Roman,serif" font-size="14.00">0</text>
</g>
<!-- __start&#45;&gt;0 -->
<g id="edge1" class="edge"><title>__start&#45;&gt;0</title>
<path fill="none" stroke="black" d="M3.68496,-21.2402C8.69573,-21.2402 34.008,-21.2402 54.4423,-21.2402"/>
<polygon fill="black" stroke="black" points="54.5501,-24.7403 64.5501,-21.2402 54.5501,-17.7403 54.5501,-24.7403"/>
<text text-anchor="middle" x="34.1" y="-25.0402" font-family="Times New Roman,serif" font-size="14.00">start</text>
</g>
<!-- 1 -->
<g id="node3" class="node"><title>1</title>
<ellipse fill="none" stroke="black" cx="165.6" cy="-76.2402" rx="18" ry="18"/>
<ellipse fill="none" stroke="black" cx="165.6" cy="-76.2402" rx="22" ry="22"/>
<text text-anchor="middle" x="165.6" y="-72.5402" font-family="Times New Roman,serif" font-size="14.00">1</text>
</g>
<!-- 0&#45;&gt;1 -->
<g id="edge2" class="edge"><title>0&#45;&gt;1</title>
<path fill="none" stroke="black" d="M98.0812,-31.0731C109.28,-38.6769 125.081,-49.406 138.472,-58.4992"/>
<polygon fill="black" stroke="black" points="136.613,-61.4673 146.852,-64.1893 140.545,-55.6762 136.613,-61.4673"/>
<text text-anchor="middle" x="122.1" y="-52.0402" font-family="Times New Roman,serif" font-size="14.00">u</text>
</g>
<!-- 2 -->
<g id="node4" class="node"><title>2</title>
<ellipse fill="none" stroke="black" cx="248.6" cy="-21.2402" rx="18" ry="18"/>
<text text-anchor="middle" x="248.6" y="-17.5402" font-family="Times New Roman,serif" font-size="14.00">2</text>
</g>
<!-- 0&#45;&gt;2 -->
<g id="edge3" class="edge"><title>0&#45;&gt;2</title>
<path fill="none" stroke="black" d="M100.841,-21.2402C129.337,-21.2402 186.479,-21.2402 220.443,-21.2402"/>
<polygon fill="black" stroke="black" points="220.59,-24.7403 230.59,-21.2402 220.59,-17.7403 220.59,-24.7403"/>
<text text-anchor="middle" x="165.6" y="-25.0402" font-family="Times New Roman,serif" font-size="14.00">u</text>
</g>
<!-- 1&#45;&gt;2 -->
<g id="edge4" class="edge"><title>1&#45;&gt;2</title>
<path fill="none" stroke="black" d="M184.176,-64.306C196.122,-56.1943 212.036,-45.3884 224.935,-36.6303"/>
<polygon fill="black" stroke="black" points="226.99,-39.4655 233.297,-30.9524 223.057,-33.6743 226.99,-39.4655"/>
<text text-anchor="middle" x="209.1" y="-52.0402" font-family="Times New Roman,serif" font-size="14.00">u</text>
</g>
<!-- 2&#45;&gt;0 -->
<g id="edge5" class="edge"><title>2&#45;&gt;0</title>
<path fill="none" stroke="black" d="M231.624,-14.7024C219.717,-10.1967 202.934,-4.60998 187.6,-2.24016 168.274,0.746719 162.926,0.746719 143.6,-2.24016 131.98,-4.03604 119.527,-7.6793 108.995,-11.2995"/>
<polygon fill="black" stroke="black" points="107.792,-8.01288 99.5757,-14.7024 110.17,-14.5965 107.792,-8.01288"/>
<text text-anchor="middle" x="165.6" y="-6.04016" font-family="Times New Roman,serif" font-size="14.00">u</text>
</g>
</g>
</svg>
