<?xml version="1.0" encoding="UTF-8" standalone="no"?>
<!DOCTYPE svg PUBLIC "-//W3C//DTD SVG 1.1//EN"
 "http://www.w3.org/Graphics/SVG/1.1/DTD/svg11.dtd">
<!-- Generated by graphviz version 2.38.0 (20140413.2041)
 -->
<!-- Title: dfa Pages: 1 -->
<svg width="370pt" height="152pt"
 viewBox="0.00 0.00 369.60 152.00" xmlns="http://www.w3.org/2000/svg" xmlns:xlink="http://www.w3.org/1999/xlink">
<g id="graph0" class="graph" transform="scale(1 1) rotate(0) translate(4 148)">
<title>dfa</title>
<polygon fill="white" stroke="none" points="-4,4 -4,-148 365.6,-148 365.6,4 -4,4"/>
<!-- __start -->
<!-- 0 -->
<g id="node2" class="node"><title>0</title>
<ellipse fill="none" stroke="black" cx="86.6" cy="-55" rx="18" ry="18"/>
<ellipse fill="none" stroke="black" cx="86.6" cy="-55" rx="22" ry="22"/>
<text text-anchor="middle" x="86.6" y="-51.3" font-family="Times New Roman,serif" font-size="14.00">0</text>
</g>
<!-- __start&#45;&gt;0 -->
<g id="edge1" class="edge"><title>__start&#45;&gt;0</title>
<path fill="none" stroke="black" d="M3.72988,-55C8.77597,-55 33.4162,-55 54.3593,-55"/>
<polygon fill="black" stroke="black" points="54.5455,-58.5001 64.5454,-55 54.5454,-51.5001 54.5455,-58.5001"/>
<text text-anchor="middle" x="34.1" y="-58.8" font-family="Times New Roman,serif" font-size="14.00">start</text>
</g>
<!-- 1 -->
<g id="node3" class="node"><title>1</title>
<ellipse fill="none" stroke="black" cx="173.6" cy="-89" rx="18" ry="18"/>
<ellipse fill="none" stroke="black" cx="173.6" cy="-89" rx="22" ry="22"/>
<text text-anchor="middle" x="173.6" y="-85.3" font-family="Times New Roman,serif" font-size="14.00">1</text>
</g>
<!-- 0&#45;&gt;1 -->
<g id="edge2" class="edge"><title>0&#45;&gt;1</title>
<path fill="none" stroke="black" d="M107.415,-63.2023C113.556,-65.7246 120.35,-68.4954 126.6,-71 131.973,-73.1533 137.711,-75.4225 143.247,-77.5968"/>
<polygon fill="black" stroke="black" points="142.286,-80.9787 152.873,-81.3623 144.836,-74.4598 142.286,-80.9787"/>
<text text-anchor="middle" x="130.1" y="-76.8" font-family="Times New Roman,serif" font-size="14.00">x</text>
</g>
<!-- 3 -->
<g id="node5" class="node"><title>3</title>
<ellipse fill="none" stroke="black" cx="260.6" cy="-22" rx="18" ry="18"/>
<ellipse fill="none" stroke="black" cx="260.6" cy="-22" rx="22" ry="22"/>
<text text-anchor="middle" x="260.6" y="-18.3" font-family="Times New Roman,serif" font-size="14.00">3</text>
</g>
<!-- 0&#45;&gt;3 -->
<g id="edge3" class="edge"><title>0&#45;&gt;3</title>
<path fill="none" stroke="black" d="M108.204,-50.0495C114.13,-48.6789 120.61,-47.2308 126.6,-46 161.498,-38.8289 201.789,-31.7212 228.797,-27.1246"/>
<polygon fill="black" stroke="black" points="229.53,-30.5504 238.807,-25.4325 228.363,-23.6483 229.53,-30.5504"/>
<text text-anchor="middle" x="173.6" y="-43.8" font-family="Times New Roman,serif" font-size="14.00">u</text>
</g>
<!-- 1&#45;&gt;0 -->
<g id="edge5" class="edge"><title>1&#45;&gt;0</title>
<path fill="none" stroke="black" d="M159.737,-71.8935C152.915,-64.2602 143.829,-56.0803 133.6,-52 128.922,-50.1338 123.763,-49.3666 118.644,-49.2707"/>
<polygon fill="black" stroke="black" points="118.131,-45.7948 108.356,-49.8799 118.545,-52.7826 118.131,-45.7948"/>
<text text-anchor="middle" x="130.1" y="-55.8" font-family="Times New Roman,serif" font-size="14.00">u</text>
</g>
<!-- 2 -->
<g id="node4" class="node"><title>2</title>
<ellipse fill="none" stroke="black" cx="260.6" cy="-89" rx="18" ry="18"/>
<ellipse fill="none" stroke="black" cx="260.6" cy="-89" rx="22" ry="22"/>
<text text-anchor="middle" x="260.6" y="-85.3" font-family="Times New Roman,serif" font-size="14.00">2</text>
</g>
<!-- 1&#45;&gt;2 -->
<g id="edge4" class="edge"><title>1&#45;&gt;2</title>
<path fill="none" stroke="black" d="M195.611,-89C205.521,-89 217.547,-89 228.485,-89"/>
<polygon fill="black" stroke="black" points="228.536,-92.5001 238.536,-89 228.536,-85.5001 228.536,-92.5001"/>
<text text-anchor="middle" x="217.1" y="-92.8" font-family="Times New Roman,serif" font-size="14.00">x</text>
</g>
<!-- 2&#45;&gt;2 -->
<g id="edge6" class="edge"><title>2&#45;&gt;2</title>
<path fill="none" stroke="black" d="M252.917,-109.991C251.969,-120.087 254.53,-129 260.6,-129 264.489,-129 266.937,-125.342 267.946,-120.059"/>
<polygon fill="black" stroke="black" points="271.446,-120.102 268.283,-109.991 264.45,-119.868 271.446,-120.102"/>
<text text-anchor="middle" x="260.6" y="-132.8" font-family="Times New Roman,serif" font-size="14.00">x</text>
</g>
<!-- 4 -->
<g id="node6" class="node"><title>4</title>
<ellipse fill="none" stroke="black" cx="343.6" cy="-51" rx="18" ry="18"/>
<text text-anchor="middle" x="343.6" y="-47.3" font-family="Times New Roman,serif" font-size="14.00">4</text>
</g>
<!-- 2&#45;&gt;4 -->
<g id="edge7" class="edge"><title>2&#45;&gt;4</title>
<path fill="none" stroke="black" d="M280.796,-79.9945C291.834,-74.8163 305.823,-68.2535 317.699,-62.6817"/>
<polygon fill="black" stroke="black" points="319.501,-65.7026 327.068,-58.2867 316.528,-59.3654 319.501,-65.7026"/>
<text text-anchor="middle" x="304.1" y="-73.8" font-family="Times New Roman,serif" font-size="14.00">u</text>
</g>
<!-- 3&#45;&gt;4 -->
<g id="edge8" class="edge"><title>3&#45;&gt;4</title>
<path fill="none" stroke="black" d="M281.622,-29.1685C292.275,-32.9825 305.493,-37.7149 316.897,-41.7976"/>
<polygon fill="black" stroke="black" points="315.746,-45.1032 326.341,-45.1788 318.106,-38.5129 315.746,-45.1032"/>
<text text-anchor="middle" x="304.1" y="-41.8" font-family="Times New Roman,serif" font-size="14.00">x</text>
</g>
<!-- 3&#45;&gt;4 -->
<g id="edge9" class="edge"><title>3&#45;&gt;4</title>
<path fill="none" stroke="black" d="M281.886,-15.6482C290.118,-14.1183 299.561,-13.7381 307.6,-17 314.245,-19.6964 320.323,-24.3275 325.482,-29.3189"/>
<polygon fill="black" stroke="black" points="322.972,-31.7599 332.342,-36.7063 328.102,-26.9968 322.972,-31.7599"/>
<text text-anchor="middle" x="304.1" y="-20.8" font-family="Times New Roman,serif" font-size="14.00">u</text>
</g>
<!-- 4&#45;&gt;4 -->
<g id="edge10" class="edge"><title>4&#45;&gt;4</title>
<path fill="none" stroke="black" d="M340.184,-68.7817C339.604,-78.3149 340.743,-87 343.6,-87 345.341,-87 346.444,-83.7749 346.909,-79.0981"/>
<polygon fill="black" stroke="black" points="350.412,-78.8174 347.016,-68.7817 343.412,-78.745 350.412,-78.8174"/>
<text text-anchor="middle" x="343.6" y="-90.8" font-family="Times New Roman,serif" font-size="14.00">x</text>
</g>
<!-- 4&#45;&gt;4 -->
<g id="edge11" class="edge"><title>4&#45;&gt;4</title>
<path fill="none" stroke="black" d="M338.041,-68.1418C334.77,-85.585 336.623,-105 343.6,-105 349.214,-105 351.51,-92.4283 350.489,-78.4287"/>
<polygon fill="black" stroke="black" points="353.913,-77.6105 349.159,-68.1418 346.97,-78.508 353.913,-77.6105"/>
<text text-anchor="middle" x="343.6" y="-108.8" font-family="Times New Roman,serif" font-size="14.00">u</text>
</g>
</g>
</svg>
