<?xml version="1.0" encoding="UTF-8" standalone="no"?>
<!DOCTYPE svg PUBLIC "-//W3C//DTD SVG 1.1//EN"
 "http://www.w3.org/Graphics/SVG/1.1/DTD/svg11.dtd">
<!-- Generated by graphviz version 2.38.0 (20140413.2041)
 -->
<!-- Title: enfa Pages: 1 -->
<svg width="1056pt" height="146pt"
 viewBox="0.00 0.00 1055.59 146.50" xmlns="http://www.w3.org/2000/svg" xmlns:xlink="http://www.w3.org/1999/xlink">
<g id="graph0" class="graph" transform="scale(1 1) rotate(0) translate(4 142.498)">
<title>enfa</title>
<polygon fill="white" stroke="none" points="-4,4 -4,-142.498 1051.59,-142.498 1051.59,4 -4,4"/>
<!-- __start -->
<!-- 0 -->
<g id="node2" class="node"><title>0</title>
<ellipse fill="none" stroke="black" cx="82.6" cy="-38.4983" rx="18" ry="18"/>
<text text-anchor="middle" x="82.6" y="-34.7983" font-family="Times New Roman,serif" font-size="14.00">0</text>
</g>
<!-- __start&#45;&gt;0 -->
<g id="edge1" class="edge"><title>__start&#45;&gt;0</title>
<path fill="none" stroke="black" d="M3.68496,-38.4983C8.69573,-38.4983 34.008,-38.4983 54.4423,-38.4983"/>
<polygon fill="black" stroke="black" points="54.5501,-41.9984 64.5501,-38.4983 54.5501,-34.9984 54.5501,-41.9984"/>
<text text-anchor="middle" x="34.1" y="-42.2983" font-family="Times New Roman,serif" font-size="14.00">start</text>
</g>
<!-- 2 -->
<g id="node4" class="node"><title>2</title>
<ellipse fill="none" stroke="black" cx="161.6" cy="-65.4983" rx="18" ry="18"/>
<text text-anchor="middle" x="161.6" y="-61.7983" font-family="Times New Roman,serif" font-size="14.00">2</text>
</g>
<!-- 0&#45;&gt;2 -->
<g id="edge5" class="edge"><title>0&#45;&gt;2</title>
<path fill="none" stroke="black" d="M99.9297,-44.2243C110.036,-47.7682 123.235,-52.3963 134.74,-56.4304"/>
<polygon fill="black" stroke="black" points="133.699,-59.7743 144.294,-59.7805 136.015,-53.1687 133.699,-59.7743"/>
<text text-anchor="middle" x="122.1" y="-56.2983" font-family="Times New Roman,serif" font-size="14.00">ε</text>
</g>
<!-- 6 -->
<g id="node8" class="node"><title>6</title>
<ellipse fill="none" stroke="black" cx="477.6" cy="-38.4983" rx="18" ry="18"/>
<text text-anchor="middle" x="477.6" y="-34.7983" font-family="Times New Roman,serif" font-size="14.00">6</text>
</g>
<!-- 0&#45;&gt;6 -->
<g id="edge6" class="edge"><title>0&#45;&gt;6</title>
<path fill="none" stroke="black" d="M99.5412,-32.1715C114.92,-26.6444 138.983,-19.4983 160.6,-19.4983 160.6,-19.4983 160.6,-19.4983 399.6,-19.4983 417.164,-19.4983 436.343,-24.2159 451.166,-28.9496"/>
<polygon fill="black" stroke="black" points="450.064,-32.2718 460.659,-32.1715 452.314,-25.6432 450.064,-32.2718"/>
<text text-anchor="middle" x="280.1" y="-23.2983" font-family="Times New Roman,serif" font-size="14.00">ε</text>
</g>
<!-- 1 -->
<g id="node3" class="node"><title>1</title>
<ellipse fill="none" stroke="black" cx="1025.59" cy="-39.4983" rx="18" ry="18"/>
<ellipse fill="none" stroke="black" cx="1025.59" cy="-39.4983" rx="22" ry="22"/>
<text text-anchor="middle" x="1025.59" y="-35.7983" font-family="Times New Roman,serif" font-size="14.00">1</text>
</g>
<!-- 3 -->
<g id="node5" class="node"><title>3</title>
<ellipse fill="none" stroke="black" cx="240.6" cy="-107.498" rx="18" ry="18"/>
<text text-anchor="middle" x="240.6" y="-103.798" font-family="Times New Roman,serif" font-size="14.00">3</text>
</g>
<!-- 2&#45;&gt;3 -->
<g id="edge2" class="edge"><title>2&#45;&gt;3</title>
<path fill="none" stroke="black" d="M177.813,-73.7961C188.57,-79.6636 203.212,-87.6504 215.543,-94.3762"/>
<polygon fill="black" stroke="black" points="213.964,-97.5017 224.419,-99.2177 217.316,-91.3564 213.964,-97.5017"/>
<text text-anchor="middle" x="201.1" y="-91.2983" font-family="Times New Roman,serif" font-size="14.00">x</text>
</g>
<!-- 4 -->
<g id="node6" class="node"><title>4</title>
<ellipse fill="none" stroke="black" cx="319.6" cy="-107.498" rx="18" ry="18"/>
<text text-anchor="middle" x="319.6" y="-103.798" font-family="Times New Roman,serif" font-size="14.00">4</text>
</g>
<!-- 3&#45;&gt;4 -->
<g id="edge4" class="edge"><title>3&#45;&gt;4</title>
<path fill="none" stroke="black" d="M258.689,-107.498C268.259,-107.498 280.417,-107.498 291.277,-107.498"/>
<polygon fill="black" stroke="black" points="291.559,-110.998 301.559,-107.498 291.559,-103.998 291.559,-110.998"/>
<text text-anchor="middle" x="280.1" y="-111.298" font-family="Times New Roman,serif" font-size="14.00">ε</text>
</g>
<!-- 5 -->
<g id="node7" class="node"><title>5</title>
<ellipse fill="none" stroke="black" cx="398.6" cy="-65.4983" rx="18" ry="18"/>
<text text-anchor="middle" x="398.6" y="-61.7983" font-family="Times New Roman,serif" font-size="14.00">5</text>
</g>
<!-- 4&#45;&gt;5 -->
<g id="edge3" class="edge"><title>4&#45;&gt;5</title>
<path fill="none" stroke="black" d="M335.813,-99.2004C346.57,-93.3329 361.212,-85.3462 373.543,-78.6204"/>
<polygon fill="black" stroke="black" points="375.316,-81.6401 382.419,-73.7789 371.964,-75.4948 375.316,-81.6401"/>
<text text-anchor="middle" x="359.1" y="-91.2983" font-family="Times New Roman,serif" font-size="14.00">u</text>
</g>
<!-- 5&#45;&gt;2 -->
<g id="edge7" class="edge"><title>5&#45;&gt;2</title>
<path fill="none" stroke="black" d="M380.295,-65.4983C339.866,-65.4983 238.95,-65.4983 190.037,-65.4983"/>
<polygon fill="black" stroke="black" points="189.88,-61.9984 179.88,-65.4983 189.88,-68.9984 189.88,-61.9984"/>
<text text-anchor="middle" x="280.1" y="-69.2983" font-family="Times New Roman,serif" font-size="14.00">ε</text>
</g>
<!-- 5&#45;&gt;6 -->
<g id="edge8" class="edge"><title>5&#45;&gt;6</title>
<path fill="none" stroke="black" d="M415.93,-59.7723C426.036,-56.2284 439.235,-51.6003 450.74,-47.5661"/>
<polygon fill="black" stroke="black" points="452.015,-50.8279 460.294,-44.216 449.699,-44.2222 452.015,-50.8279"/>
<text text-anchor="middle" x="438.1" y="-56.2983" font-family="Times New Roman,serif" font-size="14.00">ε</text>
</g>
<!-- 13 -->
<g id="node15" class="node"><title>13</title>
<ellipse fill="none" stroke="black" cx="558.098" cy="-38.4983" rx="19.4965" ry="19.4965"/>
<text text-anchor="middle" x="558.098" y="-34.7983" font-family="Times New Roman,serif" font-size="14.00">13</text>
</g>
<!-- 6&#45;&gt;13 -->
<g id="edge19" class="edge"><title>6&#45;&gt;13</title>
<path fill="none" stroke="black" d="M495.633,-38.4983C505.201,-38.4983 517.395,-38.4983 528.395,-38.4983"/>
<polygon fill="black" stroke="black" points="528.452,-41.9984 538.452,-38.4983 528.452,-34.9984 528.452,-41.9984"/>
<text text-anchor="middle" x="517.1" y="-42.2983" font-family="Times New Roman,serif" font-size="14.00">ε</text>
</g>
<!-- 7 -->
<g id="node9" class="node"><title>7</title>
<ellipse fill="none" stroke="black" cx="749.593" cy="-109.498" rx="18" ry="18"/>
<text text-anchor="middle" x="749.593" y="-105.798" font-family="Times New Roman,serif" font-size="14.00">7</text>
</g>
<!-- 8 -->
<g id="node10" class="node"><title>8</title>
<ellipse fill="none" stroke="black" cx="860.59" cy="-109.498" rx="18" ry="18"/>
<text text-anchor="middle" x="860.59" y="-105.798" font-family="Times New Roman,serif" font-size="14.00">8</text>
</g>
<!-- 7&#45;&gt;8 -->
<g id="edge9" class="edge"><title>7&#45;&gt;8</title>
<path fill="none" stroke="black" d="M766.335,-116.132C772.261,-118.297 779.13,-120.421 785.593,-121.498 802.689,-124.348 807.494,-124.348 824.59,-121.498 827.72,-120.977 830.946,-120.209 834.114,-119.311"/>
<polygon fill="black" stroke="black" points="835.428,-122.563 843.847,-116.132 833.255,-115.909 835.428,-122.563"/>
<text text-anchor="middle" x="805.091" y="-127.298" font-family="Times New Roman,serif" font-size="14.00">x</text>
</g>
<!-- 8&#45;&gt;7 -->
<g id="edge12" class="edge"><title>8&#45;&gt;7</title>
<path fill="none" stroke="black" d="M842.986,-104.9C837.211,-103.516 830.66,-102.183 824.59,-101.498 807.367,-99.555 802.816,-99.555 785.593,-101.498 782.843,-101.809 779.993,-102.252 777.162,-102.773"/>
<polygon fill="black" stroke="black" points="776.245,-99.3897 767.196,-104.9 777.707,-106.235 776.245,-99.3897"/>
<text text-anchor="middle" x="805.091" y="-105.298" font-family="Times New Roman,serif" font-size="14.00">ε</text>
</g>
<!-- 10 -->
<g id="node12" class="node"><title>10</title>
<ellipse fill="none" stroke="black" cx="941.088" cy="-66.4983" rx="19.4965" ry="19.4965"/>
<text text-anchor="middle" x="941.088" y="-62.7983" font-family="Times New Roman,serif" font-size="14.00">10</text>
</g>
<!-- 8&#45;&gt;10 -->
<g id="edge13" class="edge"><title>8&#45;&gt;10</title>
<path fill="none" stroke="black" d="M876.725,-101.207C887.447,-95.3342 902.088,-87.3139 914.596,-80.4625"/>
<polygon fill="black" stroke="black" points="916.555,-83.3799 923.644,-75.5059 913.192,-77.2406 916.555,-83.3799"/>
<text text-anchor="middle" x="900.09" y="-92.2983" font-family="Times New Roman,serif" font-size="14.00">ε</text>
</g>
<!-- 9 -->
<g id="node11" class="node"><title>9</title>
<ellipse fill="none" stroke="black" cx="638.597" cy="-65.4983" rx="18" ry="18"/>
<text text-anchor="middle" x="638.597" y="-61.7983" font-family="Times New Roman,serif" font-size="14.00">9</text>
</g>
<!-- 9&#45;&gt;7 -->
<g id="edge10" class="edge"><title>9&#45;&gt;7</title>
<path fill="none" stroke="black" d="M655.679,-71.9906C673.389,-79.1397 702.11,-90.734 722.937,-99.1414"/>
<polygon fill="black" stroke="black" points="721.861,-102.481 732.444,-102.979 724.482,-95.9904 721.861,-102.481"/>
<text text-anchor="middle" x="694.095" y="-98.2983" font-family="Times New Roman,serif" font-size="14.00">ε</text>
</g>
<!-- 9&#45;&gt;10 -->
<g id="edge11" class="edge"><title>9&#45;&gt;10</title>
<path fill="none" stroke="black" d="M656.613,-65.5549C705.922,-65.719 849.3,-66.1961 911.141,-66.4019"/>
<polygon fill="black" stroke="black" points="911.348,-69.9026 921.36,-66.4359 911.372,-62.9026 911.348,-69.9026"/>
<text text-anchor="middle" x="805.091" y="-69.2983" font-family="Times New Roman,serif" font-size="14.00">ε</text>
</g>
<!-- 10&#45;&gt;1 -->
<g id="edge17" class="edge"><title>10&#45;&gt;1</title>
<path fill="none" stroke="black" d="M959.989,-60.6397C970.105,-57.3289 983.015,-53.1038 994.63,-49.3023"/>
<polygon fill="black" stroke="black" points="995.986,-52.5412 1004.4,-46.1043 993.809,-45.8884 995.986,-52.5412"/>
<text text-anchor="middle" x="982.086" y="-57.2983" font-family="Times New Roman,serif" font-size="14.00">ε</text>
</g>
<!-- 11 -->
<g id="node13" class="node"><title>11</title>
<ellipse fill="none" stroke="black" cx="694.095" cy="-19.4983" rx="19.4965" ry="19.4965"/>
<text text-anchor="middle" x="694.095" y="-15.7983" font-family="Times New Roman,serif" font-size="14.00">11</text>
</g>
<!-- 12 -->
<g id="node14" class="node"><title>12</title>
<ellipse fill="none" stroke="black" cx="805.091" cy="-19.4983" rx="19.4965" ry="19.4965"/>
<text text-anchor="middle" x="805.091" y="-15.7983" font-family="Times New Roman,serif" font-size="14.00">12</text>
</g>
<!-- 11&#45;&gt;12 -->
<g id="edge14" class="edge"><title>11&#45;&gt;12</title>
<path fill="none" stroke="black" d="M714.081,-19.4983C730.96,-19.4983 755.891,-19.4983 775.237,-19.4983"/>
<polygon fill="black" stroke="black" points="775.323,-22.9984 785.323,-19.4983 775.323,-15.9984 775.323,-22.9984"/>
<text text-anchor="middle" x="749.593" y="-23.2983" font-family="Times New Roman,serif" font-size="14.00">u</text>
</g>
<!-- 12&#45;&gt;1 -->
<g id="edge18" class="edge"><title>12&#45;&gt;1</title>
<path fill="none" stroke="black" d="M824.72,-21.2035C862.251,-24.6389 947.302,-32.4241 993.432,-36.6466"/>
<polygon fill="black" stroke="black" points="993.185,-40.1385 1003.46,-37.5647 993.823,-33.1676 993.185,-40.1385"/>
<text text-anchor="middle" x="900.09" y="-32.2983" font-family="Times New Roman,serif" font-size="14.00">ε</text>
</g>
<!-- 13&#45;&gt;9 -->
<g id="edge15" class="edge"><title>13&#45;&gt;9</title>
<path fill="none" stroke="black" d="M576.911,-44.625C587.267,-48.187 600.495,-52.7369 611.956,-56.679"/>
<polygon fill="black" stroke="black" points="610.862,-60.0039 621.457,-59.9468 613.139,-53.3845 610.862,-60.0039"/>
<text text-anchor="middle" x="599.097" y="-57.2983" font-family="Times New Roman,serif" font-size="14.00">ε</text>
</g>
<!-- 13&#45;&gt;11 -->
<g id="edge16" class="edge"><title>13&#45;&gt;11</title>
<path fill="none" stroke="black" d="M577.25,-34.7684C583.093,-33.6345 589.605,-32.4404 595.597,-31.4983 618.625,-27.877 644.857,-24.7017 664.307,-22.5286"/>
<polygon fill="black" stroke="black" points="664.793,-25.9964 674.352,-21.4279 664.03,-19.0381 664.793,-25.9964"/>
<text text-anchor="middle" x="599.097" y="-35.2983" font-family="Times New Roman,serif" font-size="14.00">ε</text>
</g>
</g>
</svg>
