<?xml version="1.0" encoding="UTF-8" standalone="no"?>
<!DOCTYPE svg PUBLIC "-//W3C//DTD SVG 1.1//EN"
 "http://www.w3.org/Graphics/SVG/1.1/DTD/svg11.dtd">
<!-- Generated by graphviz version 2.38.0 (20140413.2041)
 -->
<!-- Title: dfa Pages: 1 -->
<svg width="976pt" height="388pt"
 viewBox="0.00 0.00 975.64 388.39" xmlns="http://www.w3.org/2000/svg" xmlns:xlink="http://www.w3.org/1999/xlink">
<g id="graph0" class="graph" transform="scale(1 1) rotate(0) translate(4 384.388)">
<title>dfa</title>
<polygon fill="white" stroke="none" points="-4,4 -4,-384.388 971.638,-384.388 971.638,4 -4,4"/>
<!-- __start -->
<!-- {0,1,10,11,13,2,6,7,9} -->
<g id="node2" class="node"><title>{0,1,10,11,13,2,6,7,9}</title>
<ellipse fill="none" stroke="black" cx="160.242" cy="-95.6419" rx="91.778" ry="91.778"/>
<ellipse fill="none" stroke="black" cx="160.242" cy="-95.6419" rx="95.7839" ry="95.7839"/>
<text text-anchor="middle" x="160.242" y="-91.9419" font-family="Times New Roman,serif" font-size="14.00">{0,1,10,11,13,2,6,7,9}</text>
</g>
<!-- __start&#45;&gt;{0,1,10,11,13,2,6,7,9} -->
<g id="edge1" class="edge"><title>__start&#45;&gt;{0,1,10,11,13,2,6,7,9}</title>
<path fill="none" stroke="black" d="M3.79901,-95.6419C8.50852,-95.6419 29.3099,-95.6419 54.2387,-95.6419"/>
<polygon fill="black" stroke="black" points="54.3563,-99.142 64.3563,-95.6419 54.3563,-92.142 54.3563,-99.142"/>
<text text-anchor="middle" x="34.1" y="-99.4419" font-family="Times New Roman,serif" font-size="14.00">start</text>
</g>
<!-- {1,10,3,4,7,8} -->
<g id="node3" class="node"><title>{1,10,3,4,7,8}</title>
<ellipse fill="none" stroke="black" cx="365.278" cy="-170.642" rx="62.2954" ry="62.2954"/>
<ellipse fill="none" stroke="black" cx="365.278" cy="-170.642" rx="66.2891" ry="66.2891"/>
<text text-anchor="middle" x="365.278" y="-166.942" font-family="Times New Roman,serif" font-size="14.00">{1,10,3,4,7,8}</text>
</g>
<!-- {0,1,10,11,13,2,6,7,9}&#45;&gt;{1,10,3,4,7,8} -->
<g id="edge2" class="edge"><title>{0,1,10,11,13,2,6,7,9}&#45;&gt;{1,10,3,4,7,8}</title>
<path fill="none" stroke="black" d="M250.297,-128.538C264.667,-133.846 279.377,-139.28 293.249,-144.404"/>
<polygon fill="black" stroke="black" points="292.111,-147.715 302.704,-147.897 294.536,-141.149 292.111,-147.715"/>
<text text-anchor="middle" x="277.384" y="-144.442" font-family="Times New Roman,serif" font-size="14.00">x</text>
</g>
<!-- {1,12} -->
<g id="node5" class="node"><title>{1,12}</title>
<ellipse fill="none" stroke="black" cx="846.545" cy="-183.642" rx="35.1841" ry="35.1841"/>
<ellipse fill="none" stroke="black" cx="846.545" cy="-183.642" rx="39.194" ry="39.194"/>
<text text-anchor="middle" x="846.545" y="-179.942" font-family="Times New Roman,serif" font-size="14.00">{1,12}</text>
</g>
<!-- {0,1,10,11,13,2,6,7,9}&#45;&gt;{1,12} -->
<g id="edge3" class="edge"><title>{0,1,10,11,13,2,6,7,9}&#45;&gt;{1,12}</title>
<path fill="none" stroke="black" d="M254.296,-76.3869C357.02,-58.8139 526.327,-40.8184 665.956,-78.6419 719.143,-93.0492 772.721,-127.579 807.333,-153.128"/>
<polygon fill="black" stroke="black" points="805.612,-156.212 815.712,-159.412 809.812,-150.612 805.612,-156.212"/>
<text text-anchor="middle" x="453.173" y="-60.4419" font-family="Times New Roman,serif" font-size="14.00">u</text>
</g>
<!-- {1,10,7,8} -->
<g id="node4" class="node"><title>{1,10,7,8}</title>
<ellipse fill="none" stroke="black" cx="736.702" cy="-294.642" rx="48.9738" ry="48.9738"/>
<ellipse fill="none" stroke="black" cx="736.702" cy="-294.642" rx="52.9925" ry="52.9925"/>
<text text-anchor="middle" x="736.702" y="-290.942" font-family="Times New Roman,serif" font-size="14.00">{1,10,7,8}</text>
</g>
<!-- {1,10,3,4,7,8}&#45;&gt;{1,10,7,8} -->
<g id="edge4" class="edge"><title>{1,10,3,4,7,8}&#45;&gt;{1,10,7,8}</title>
<path fill="none" stroke="black" d="M401.944,-226.276C420.485,-250.068 445.407,-275.383 474.673,-288.642 538.323,-317.479 619.968,-313.762 674.856,-306.241"/>
<polygon fill="black" stroke="black" points="675.39,-309.7 684.783,-304.799 674.384,-302.773 675.39,-309.7"/>
<text text-anchor="middle" x="453.173" y="-281.442" font-family="Times New Roman,serif" font-size="14.00">x</text>
</g>
<!-- {1,10,11,13,2,5,6,7,9} -->
<g id="node6" class="node"><title>{1,10,11,13,2,5,6,7,9}</title>
<ellipse fill="none" stroke="black" cx="570.315" cy="-183.642" rx="91.778" ry="91.778"/>
<ellipse fill="none" stroke="black" cx="570.315" cy="-183.642" rx="95.7839" ry="95.7839"/>
<text text-anchor="middle" x="570.315" y="-179.942" font-family="Times New Roman,serif" font-size="14.00">{1,10,11,13,2,5,6,7,9}</text>
</g>
<!-- {1,10,3,4,7,8}&#45;&gt;{1,10,11,13,2,5,6,7,9} -->
<g id="edge5" class="edge"><title>{1,10,3,4,7,8}&#45;&gt;{1,10,11,13,2,5,6,7,9}</title>
<path fill="none" stroke="black" d="M431.638,-174.827C442.111,-175.497 453.175,-176.206 464.295,-176.918"/>
<polygon fill="black" stroke="black" points="464.304,-180.425 474.507,-177.572 464.751,-173.44 464.304,-180.425"/>
<text text-anchor="middle" x="453.173" y="-180.442" font-family="Times New Roman,serif" font-size="14.00">u</text>
</g>
<!-- {1,10,7,8}&#45;&gt;{1,10,7,8} -->
<g id="edge6" class="edge"><title>{1,10,7,8}&#45;&gt;{1,10,7,8}</title>
<path fill="none" stroke="black" d="M716.694,-343.577C718.009,-356.035 724.679,-365.388 736.702,-365.388 745.156,-365.388 750.963,-360.764 754.123,-353.688"/>
<polygon fill="black" stroke="black" points="757.622,-354.132 756.71,-343.577 750.84,-352.397 757.622,-354.132"/>
<text text-anchor="middle" x="736.702" y="-369.188" font-family="Times New Roman,serif" font-size="14.00">x</text>
</g>
<!-- {} -->
<g id="node7" class="node"><title>{}</title>
<ellipse fill="none" stroke="black" cx="948.14" cy="-221.642" rx="19.4965" ry="19.4965"/>
<text text-anchor="middle" x="948.14" y="-217.942" font-family="Times New Roman,serif" font-size="14.00">{}</text>
</g>
<!-- {1,10,7,8}&#45;&gt;{} -->
<g id="edge7" class="edge"><title>{1,10,7,8}&#45;&gt;{}</title>
<path fill="none" stroke="black" d="M786.806,-277.527C828.224,-263.09 885.992,-242.955 919.692,-231.209"/>
<polygon fill="black" stroke="black" points="921.042,-234.445 929.333,-227.849 918.738,-227.835 921.042,-234.445"/>
<text text-anchor="middle" x="846.545" y="-272.442" font-family="Times New Roman,serif" font-size="14.00">u</text>
</g>
<!-- {1,12}&#45;&gt;{} -->
<g id="edge8" class="edge"><title>{1,12}&#45;&gt;{}</title>
<path fill="none" stroke="black" d="M883.219,-197.253C895.393,-201.898 908.795,-207.012 920.169,-211.351"/>
<polygon fill="black" stroke="black" points="918.97,-214.64 929.561,-214.935 921.465,-208.1 918.97,-214.64"/>
<text text-anchor="middle" x="907.142" y="-211.442" font-family="Times New Roman,serif" font-size="14.00">x</text>
</g>
<!-- {1,12}&#45;&gt;{} -->
<g id="edge9" class="edge"><title>{1,12}&#45;&gt;{}</title>
<path fill="none" stroke="black" d="M885.897,-181.9C894.306,-182.649 902.98,-184.342 910.642,-187.642 916.905,-190.339 922.769,-194.594 927.886,-199.194"/>
<polygon fill="black" stroke="black" points="925.705,-201.96 935.263,-206.53 930.641,-196.997 925.705,-201.96"/>
<text text-anchor="middle" x="907.142" y="-191.442" font-family="Times New Roman,serif" font-size="14.00">u</text>
</g>
<!-- {1,10,11,13,2,5,6,7,9}&#45;&gt;{1,10,3,4,7,8} -->
<g id="edge10" class="edge"><title>{1,10,11,13,2,5,6,7,9}&#45;&gt;{1,10,3,4,7,8}</title>
<path fill="none" stroke="black" d="M477.918,-158.163C468.432,-157.207 458.891,-156.928 449.673,-157.642 446.796,-157.865 443.869,-158.13 440.916,-158.43"/>
<polygon fill="black" stroke="black" points="440.355,-154.971 430.812,-159.573 441.142,-161.927 440.355,-154.971"/>
<text text-anchor="middle" x="453.173" y="-161.442" font-family="Times New Roman,serif" font-size="14.00">x</text>
</g>
<!-- {1,10,11,13,2,5,6,7,9}&#45;&gt;{1,12} -->
<g id="edge11" class="edge"><title>{1,10,11,13,2,5,6,7,9}&#45;&gt;{1,12}</title>
<path fill="none" stroke="black" d="M666.073,-183.642C710.176,-183.642 760.763,-183.642 796.964,-183.642"/>
<polygon fill="black" stroke="black" points="797.244,-187.142 807.244,-183.642 797.244,-180.142 797.244,-187.142"/>
<text text-anchor="middle" x="736.702" y="-187.442" font-family="Times New Roman,serif" font-size="14.00">u</text>
</g>
<!-- {}&#45;&gt;{} -->
<g id="edge12" class="edge"><title>{}&#45;&gt;{}</title>
<path fill="none" stroke="black" d="M944.501,-240.935C943.997,-250.557 945.21,-259.14 948.14,-259.14 949.925,-259.14 951.073,-255.953 951.583,-251.286"/>
<polygon fill="black" stroke="black" points="955.089,-251 951.779,-240.935 948.09,-250.867 955.089,-251"/>
<text text-anchor="middle" x="948.14" y="-262.94" font-family="Times New Roman,serif" font-size="14.00">x</text>
</g>
<!-- {}&#45;&gt;{} -->
<g id="edge13" class="edge"><title>{}&#45;&gt;{}</title>
<path fill="none" stroke="black" d="M942.075,-240.406C938.931,-258.026 940.952,-277.14 948.14,-277.14 953.98,-277.14 956.409,-264.522 955.428,-250.339"/>
<polygon fill="black" stroke="black" points="958.901,-249.903 954.204,-240.406 951.954,-250.759 958.901,-249.903"/>
<text text-anchor="middle" x="948.14" y="-280.94" font-family="Times New Roman,serif" font-size="14.00">u</text>
</g>
</g>
</svg>
