<?xml version="1.0" encoding="UTF-8" standalone="no"?>
<!DOCTYPE svg PUBLIC "-//W3C//DTD SVG 1.1//EN"
 "http://www.w3.org/Graphics/SVG/1.1/DTD/svg11.dtd">
<!-- Generated by graphviz version 2.38.0 (20140413.2041)
 -->
<!-- Title: enfa Pages: 1 -->
<svg width="366pt" height="52pt"
 viewBox="0.00 0.00 365.60 52.00" xmlns="http://www.w3.org/2000/svg" xmlns:xlink="http://www.w3.org/1999/xlink">
<g id="graph0" class="graph" transform="scale(1 1) rotate(0) translate(4 48)">
<title>enfa</title>
<polygon fill="white" stroke="none" points="-4,4 -4,-48 361.6,-48 361.6,4 -4,4"/>
<!-- __start -->
<!-- 0 -->
<g id="node2" class="node"><title>0</title>
<ellipse fill="none" stroke="black" cx="91.6" cy="-22" rx="27" ry="18"/>
<text text-anchor="middle" x="91.6" y="-18.3" font-family="Times New Roman,serif" font-size="14.00">0</text>
</g>
<!-- __start&#45;&gt;0 -->
<g id="edge1" class="edge"><title>__start&#45;&gt;0</title>
<path fill="none" stroke="black" d="M3.78604,-22C8.86985,-22 32.7092,-22 54.1222,-22"/>
<polygon fill="black" stroke="black" points="54.3463,-25.5001 64.3463,-22 54.3463,-18.5001 54.3463,-25.5001"/>
<text text-anchor="middle" x="34.1" y="-25.8" font-family="Times New Roman,serif" font-size="14.00">start</text>
</g>
<!-- 2 -->
<g id="node4" class="node"><title>2</title>
<ellipse fill="none" stroke="black" cx="176.6" cy="-22" rx="18" ry="18"/>
<text text-anchor="middle" x="176.6" y="-18.3" font-family="Times New Roman,serif" font-size="14.00">2</text>
</g>
<!-- 0&#45;&gt;2 -->
<g id="edge2" class="edge"><title>0&#45;&gt;2</title>
<path fill="none" stroke="black" d="M118.862,-22C128.248,-22 138.841,-22 148.311,-22"/>
<polygon fill="black" stroke="black" points="148.402,-25.5001 158.402,-22 148.402,-18.5001 148.402,-25.5001"/>
<text text-anchor="middle" x="138.6" y="-25.8" font-family="Times New Roman,serif" font-size="14.00">t</text>
</g>
<!-- 1 -->
<g id="node3" class="node"><title>1</title>
<ellipse fill="none" stroke="black" cx="256.6" cy="-22" rx="18" ry="18"/>
<ellipse fill="none" stroke="black" cx="256.6" cy="-22" rx="22" ry="22"/>
<text text-anchor="middle" x="256.6" y="-18.3" font-family="Times New Roman,serif" font-size="14.00">1</text>
</g>
<!-- 3 -->
<g id="node5" class="node"><title>3</title>
<ellipse fill="none" stroke="black" cx="339.6" cy="-22" rx="18" ry="18"/>
<text text-anchor="middle" x="339.6" y="-18.3" font-family="Times New Roman,serif" font-size="14.00">3</text>
</g>
<!-- 1&#45;&gt;3 -->
<g id="edge5" class="edge"><title>1&#45;&gt;3</title>
<path fill="none" stroke="black" d="M278.882,-22C288.866,-22 300.878,-22 311.503,-22"/>
<polygon fill="black" stroke="black" points="311.54,-25.5001 321.539,-22 311.539,-18.5001 311.54,-25.5001"/>
<text text-anchor="middle" x="300.1" y="-25.8" font-family="Times New Roman,serif" font-size="14.00">h</text>
</g>
<!-- 2&#45;&gt;0 -->
<g id="edge4" class="edge"><title>2&#45;&gt;0</title>
<path fill="none" stroke="black" d="M161.289,-12.1343C155.198,-8.50652 147.837,-4.83778 140.6,-3 133.713,-1.25121 126.488,-2.40787 119.795,-4.83812"/>
<polygon fill="black" stroke="black" points="118.098,-1.76603 110.471,-9.11991 121.019,-8.12737 118.098,-1.76603"/>
<text text-anchor="middle" x="138.6" y="-6.8" font-family="Times New Roman,serif" font-size="14.00">t</text>
</g>
<!-- 2&#45;&gt;1 -->
<g id="edge3" class="edge"><title>2&#45;&gt;1</title>
<path fill="none" stroke="black" d="M194.911,-22C203.571,-22 214.325,-22 224.363,-22"/>
<polygon fill="black" stroke="black" points="224.447,-25.5001 234.447,-22 224.447,-18.5001 224.447,-25.5001"/>
<text text-anchor="middle" x="214.6" y="-25.8" font-family="Times New Roman,serif" font-size="14.00">t</text>
</g>
</g>
</svg>
