<?xml version="1.0" encoding="UTF-8" standalone="no"?>
<!DOCTYPE svg PUBLIC "-//W3C//DTD SVG 1.1//EN"
 "http://www.w3.org/Graphics/SVG/1.1/DTD/svg11.dtd">
<!-- Generated by graphviz version 2.38.0 (20140413.2041)
 -->
<!-- Title: enfa Pages: 1 -->
<svg width="356pt" height="52pt"
 viewBox="0.00 0.00 355.60 52.00" xmlns="http://www.w3.org/2000/svg" xmlns:xlink="http://www.w3.org/1999/xlink">
<g id="graph0" class="graph" transform="scale(1 1) rotate(0) translate(4 48)">
<title>enfa</title>
<polygon fill="white" stroke="none" points="-4,4 -4,-48 351.6,-48 351.6,4 -4,4"/>
<!-- __start -->
<!-- 0 -->
<g id="node2" class="node"><title>0</title>
<ellipse fill="none" stroke="black" cx="82.6" cy="-22" rx="18" ry="18"/>
<text text-anchor="middle" x="82.6" y="-18.3" font-family="Times New Roman,serif" font-size="14.00">0</text>
</g>
<!-- __start&#45;&gt;0 -->
<g id="edge1" class="edge"><title>__start&#45;&gt;0</title>
<path fill="none" stroke="black" d="M3.68496,-22C8.69573,-22 34.008,-22 54.4423,-22"/>
<polygon fill="black" stroke="black" points="54.5501,-25.5001 64.5501,-22 54.5501,-18.5001 54.5501,-25.5001"/>
<text text-anchor="middle" x="34.1" y="-25.8" font-family="Times New Roman,serif" font-size="14.00">start</text>
</g>
<!-- 2 -->
<g id="node5" class="node"><title>2</title>
<ellipse fill="none" stroke="black" cx="158.6" cy="-22" rx="18" ry="18"/>
<text text-anchor="middle" x="158.6" y="-18.3" font-family="Times New Roman,serif" font-size="14.00">2</text>
</g>
<!-- 0&#45;&gt;2 -->
<g id="edge2" class="edge"><title>0&#45;&gt;2</title>
<path fill="none" stroke="black" d="M100.763,-22C109.542,-22 120.437,-22 130.333,-22"/>
<polygon fill="black" stroke="black" points="130.53,-25.5001 140.53,-22 130.53,-18.5001 130.53,-25.5001"/>
<text text-anchor="middle" x="120.6" y="-25.8" font-family="Times New Roman,serif" font-size="14.00">t</text>
</g>
<!-- 1 -->
<g id="node3" class="node"><title>1</title>
<ellipse fill="none" stroke="black" cx="238.6" cy="-22" rx="18" ry="18"/>
<ellipse fill="none" stroke="black" cx="238.6" cy="-22" rx="22" ry="22"/>
<text text-anchor="middle" x="238.6" y="-18.3" font-family="Times New Roman,serif" font-size="14.00">1</text>
</g>
<!-- 3 -->
<g id="node4" class="node"><title>3</title>
<ellipse fill="none" stroke="black" cx="325.6" cy="-22" rx="18" ry="18"/>
<ellipse fill="none" stroke="black" cx="325.6" cy="-22" rx="22" ry="22"/>
<text text-anchor="middle" x="325.6" y="-18.3" font-family="Times New Roman,serif" font-size="14.00">3</text>
</g>
<!-- 1&#45;&gt;3 -->
<g id="edge5" class="edge"><title>1&#45;&gt;3</title>
<path fill="none" stroke="black" d="M260.611,-22C270.521,-22 282.547,-22 293.485,-22"/>
<polygon fill="black" stroke="black" points="293.536,-25.5001 303.536,-22 293.536,-18.5001 293.536,-25.5001"/>
<text text-anchor="middle" x="282.1" y="-25.8" font-family="Times New Roman,serif" font-size="14.00">h</text>
</g>
<!-- 2&#45;&gt;0 -->
<g id="edge4" class="edge"><title>2&#45;&gt;0</title>
<path fill="none" stroke="black" d="M144.759,-10.4705C137.389,-5.23063 127.798,-0.6644 118.6,-3 114.642,-4.00504 110.647,-5.55766 106.844,-7.35171"/>
<polygon fill="black" stroke="black" points="105.075,-4.32845 97.9113,-12.1343 108.379,-10.4996 105.075,-4.32845"/>
<text text-anchor="middle" x="120.6" y="-6.8" font-family="Times New Roman,serif" font-size="14.00">t</text>
</g>
<!-- 2&#45;&gt;1 -->
<g id="edge3" class="edge"><title>2&#45;&gt;1</title>
<path fill="none" stroke="black" d="M176.911,-22C185.571,-22 196.325,-22 206.363,-22"/>
<polygon fill="black" stroke="black" points="206.447,-25.5001 216.447,-22 206.447,-18.5001 206.447,-25.5001"/>
<text text-anchor="middle" x="196.6" y="-25.8" font-family="Times New Roman,serif" font-size="14.00">t</text>
</g>
</g>
</svg>
