<?xml version="1.0" encoding="UTF-8" standalone="no"?>
<!DOCTYPE svg PUBLIC "-//W3C//DTD SVG 1.1//EN"
 "http://www.w3.org/Graphics/SVG/1.1/DTD/svg11.dtd">
<!-- Generated by graphviz version 2.38.0 (20140413.2041)
 -->
<!-- Title: dfa Pages: 1 -->
<svg width="369pt" height="133pt"
 viewBox="0.00 0.00 368.60 133.00" xmlns="http://www.w3.org/2000/svg" xmlns:xlink="http://www.w3.org/1999/xlink">
<g id="graph0" class="graph" transform="scale(1 1) rotate(0) translate(4 129)">
<title>dfa</title>
<polygon fill="white" stroke="none" points="-4,4 -4,-129 364.6,-129 364.6,4 -4,4"/>
<!-- __start -->
<!-- 0 -->
<g id="node2" class="node"><title>0</title>
<ellipse fill="none" stroke="black" cx="91.6" cy="-18" rx="27" ry="18"/>
<text text-anchor="middle" x="91.6" y="-14.3" font-family="Times New Roman,serif" font-size="14.00">0</text>
</g>
<!-- __start&#45;&gt;0 -->
<g id="edge1" class="edge"><title>__start&#45;&gt;0</title>
<path fill="none" stroke="black" d="M3.78604,-18C8.86985,-18 32.7092,-18 54.1222,-18"/>
<polygon fill="black" stroke="black" points="54.3463,-21.5001 64.3463,-18 54.3463,-14.5001 54.3463,-21.5001"/>
<text text-anchor="middle" x="34.1" y="-21.8" font-family="Times New Roman,serif" font-size="14.00">start</text>
</g>
<!-- 2 -->
<g id="node4" class="node"><title>2</title>
<ellipse fill="none" stroke="black" cx="176.6" cy="-57" rx="18" ry="18"/>
<text text-anchor="middle" x="176.6" y="-53.3" font-family="Times New Roman,serif" font-size="14.00">2</text>
</g>
<!-- 0&#45;&gt;2 -->
<g id="edge2" class="edge"><title>0&#45;&gt;2</title>
<path fill="none" stroke="black" d="M114.407,-28.2468C125.589,-33.501 139.255,-39.922 150.833,-45.3623"/>
<polygon fill="black" stroke="black" points="149.428,-48.5693 159.967,-49.6544 152.405,-42.2339 149.428,-48.5693"/>
<text text-anchor="middle" x="138.6" y="-42.8" font-family="Times New Roman,serif" font-size="14.00">t</text>
</g>
<!-- 3 -->
<g id="node5" class="node"><title>3</title>
<ellipse fill="none" stroke="black" cx="342.6" cy="-41" rx="18" ry="18"/>
<text text-anchor="middle" x="342.6" y="-37.3" font-family="Times New Roman,serif" font-size="14.00">3</text>
</g>
<!-- 0&#45;&gt;3 -->
<g id="edge3" class="edge"><title>0&#45;&gt;3</title>
<path fill="none" stroke="black" d="M118.777,-20.4179C166.255,-24.8035 266.11,-34.027 314.359,-38.4837"/>
<polygon fill="black" stroke="black" points="314.096,-41.9743 324.375,-39.409 314.74,-35.0039 314.096,-41.9743"/>
<text text-anchor="middle" x="216.1" y="-32.8" font-family="Times New Roman,serif" font-size="14.00">h</text>
</g>
<!-- 1 -->
<g id="node3" class="node"><title>1</title>
<ellipse fill="none" stroke="black" cx="259.6" cy="-96" rx="18" ry="18"/>
<ellipse fill="none" stroke="black" cx="259.6" cy="-96" rx="22" ry="22"/>
<text text-anchor="middle" x="259.6" y="-92.3" font-family="Times New Roman,serif" font-size="14.00">1</text>
</g>
<!-- 1&#45;&gt;2 -->
<g id="edge6" class="edge"><title>1&#45;&gt;2</title>
<path fill="none" stroke="black" d="M241.275,-83.5846C234.696,-79.2253 227.001,-74.5378 219.6,-71 214.698,-68.6569 209.301,-66.5403 204.056,-64.7039"/>
<polygon fill="black" stroke="black" points="204.92,-61.3042 194.327,-61.5316 202.749,-67.9593 204.92,-61.3042"/>
<text text-anchor="middle" x="216.1" y="-74.8" font-family="Times New Roman,serif" font-size="14.00">t</text>
</g>
<!-- 1&#45;&gt;3 -->
<g id="edge7" class="edge"><title>1&#45;&gt;3</title>
<path fill="none" stroke="black" d="M278.176,-84.0658C290.122,-75.9542 306.036,-65.1483 318.935,-56.3901"/>
<polygon fill="black" stroke="black" points="320.99,-59.2253 327.297,-50.7122 317.057,-53.4342 320.99,-59.2253"/>
<text text-anchor="middle" x="303.1" y="-71.8" font-family="Times New Roman,serif" font-size="14.00">h</text>
</g>
<!-- 2&#45;&gt;1 -->
<g id="edge4" class="edge"><title>2&#45;&gt;1</title>
<path fill="none" stroke="black" d="M188.457,-70.7337C194.739,-77.6813 203.243,-85.5624 212.6,-90 217.093,-92.1311 222.096,-93.5832 227.1,-94.5599"/>
<polygon fill="black" stroke="black" points="226.825,-98.0552 237.211,-95.9621 227.787,-91.1216 226.825,-98.0552"/>
<text text-anchor="middle" x="216.1" y="-95.8" font-family="Times New Roman,serif" font-size="14.00">t</text>
</g>
<!-- 2&#45;&gt;3 -->
<g id="edge5" class="edge"><title>2&#45;&gt;3</title>
<path fill="none" stroke="black" d="M194.654,-54.8732C206.655,-53.4103 223.097,-51.4732 237.6,-50 263.548,-47.3642 293.189,-44.8476 314.17,-43.1493"/>
<polygon fill="black" stroke="black" points="314.599,-46.6263 324.288,-42.3394 314.04,-39.6486 314.599,-46.6263"/>
<text text-anchor="middle" x="259.6" y="-53.8" font-family="Times New Roman,serif" font-size="14.00">h</text>
</g>
<!-- 3&#45;&gt;3 -->
<g id="edge8" class="edge"><title>3&#45;&gt;3</title>
<path fill="none" stroke="black" d="M339.184,-58.7817C338.604,-68.3149 339.743,-77 342.6,-77 344.341,-77 345.444,-73.7749 345.909,-69.0981"/>
<polygon fill="black" stroke="black" points="349.412,-68.8174 346.016,-58.7817 342.412,-68.745 349.412,-68.8174"/>
<text text-anchor="middle" x="342.6" y="-80.8" font-family="Times New Roman,serif" font-size="14.00">t</text>
</g>
<!-- 3&#45;&gt;3 -->
<g id="edge9" class="edge"><title>3&#45;&gt;3</title>
<path fill="none" stroke="black" d="M337.041,-58.1418C333.77,-75.585 335.623,-95 342.6,-95 348.214,-95 350.51,-82.4283 349.489,-68.4287"/>
<polygon fill="black" stroke="black" points="352.913,-67.6105 348.159,-58.1418 345.97,-68.508 352.913,-67.6105"/>
<text text-anchor="middle" x="342.6" y="-98.8" font-family="Times New Roman,serif" font-size="14.00">h</text>
</g>
</g>
</svg>
