<?xml version="1.0" encoding="UTF-8" standalone="no"?>
<!DOCTYPE svg PUBLIC "-//W3C//DTD SVG 1.1//EN"
 "http://www.w3.org/Graphics/SVG/1.1/DTD/svg11.dtd">
<!-- Generated by graphviz version 2.38.0 (20140413.2041)
 -->
<!-- Title: dfa Pages: 1 -->
<svg width="497pt" height="153pt"
 viewBox="0.00 0.00 496.88 152.55" xmlns="http://www.w3.org/2000/svg" xmlns:xlink="http://www.w3.org/1999/xlink">
<g id="graph0" class="graph" transform="scale(1 1) rotate(0) translate(4 148.547)">
<title>dfa</title>
<polygon fill="white" stroke="none" points="-4,4 -4,-148.547 492.883,-148.547 492.883,4 -4,4"/>
<!-- __start -->
<!-- {0} -->
<g id="node2" class="node"><title>{0}</title>
<ellipse fill="none" stroke="black" cx="91.6" cy="-24" rx="27" ry="18"/>
<text text-anchor="middle" x="91.6" y="-20.3" font-family="Times New Roman,serif" font-size="14.00">{0}</text>
</g>
<!-- __start&#45;&gt;{0} -->
<g id="edge1" class="edge"><title>__start&#45;&gt;{0}</title>
<path fill="none" stroke="black" d="M3.78604,-24C8.86985,-24 32.7092,-24 54.1222,-24"/>
<polygon fill="black" stroke="black" points="54.3463,-27.5001 64.3463,-24 54.3463,-20.5001 54.3463,-27.5001"/>
<text text-anchor="middle" x="34.1" y="-27.8" font-family="Times New Roman,serif" font-size="14.00">start</text>
</g>
<!-- {2} -->
<g id="node4" class="node"><title>{2}</title>
<ellipse fill="none" stroke="black" cx="182.648" cy="-64" rx="24.0958" ry="24.0958"/>
<text text-anchor="middle" x="182.648" y="-60.3" font-family="Times New Roman,serif" font-size="14.00">{2}</text>
</g>
<!-- {0}&#45;&gt;{2} -->
<g id="edge2" class="edge"><title>{0}&#45;&gt;{2}</title>
<path fill="none" stroke="black" d="M114.612,-33.8876C125.666,-38.853 139.232,-44.9468 151.262,-50.3506"/>
<polygon fill="black" stroke="black" points="149.946,-53.5966 160.502,-54.5015 152.815,-47.2112 149.946,-53.5966"/>
<text text-anchor="middle" x="138.6" y="-49.8" font-family="Times New Roman,serif" font-size="14.00">t</text>
</g>
<!-- {} -->
<g id="node5" class="node"><title>{}</title>
<ellipse fill="none" stroke="black" cx="469.384" cy="-59" rx="19.4965" ry="19.4965"/>
<text text-anchor="middle" x="469.384" y="-55.3" font-family="Times New Roman,serif" font-size="14.00">{}</text>
</g>
<!-- {0}&#45;&gt;{} -->
<g id="edge3" class="edge"><title>{0}&#45;&gt;{}</title>
<path fill="none" stroke="black" d="M114.846,-14.5146C132.595,-7.80615 158.271,-0 181.648,-0 181.648,-0 181.648,-0 383.838,-0 410.141,-0 434.106,-19.4415 449.749,-36.0043"/>
<polygon fill="black" stroke="black" points="447.456,-38.6903 456.734,-43.806 452.672,-34.0211 447.456,-38.6903"/>
<text text-anchor="middle" x="281.243" y="-3.8" font-family="Times New Roman,serif" font-size="14.00">h</text>
</g>
<!-- {0,1} -->
<g id="node3" class="node"><title>{0,1}</title>
<ellipse fill="none" stroke="black" cx="281.243" cy="-110" rx="30.5892" ry="30.5892"/>
<ellipse fill="none" stroke="black" cx="281.243" cy="-110" rx="34.5946" ry="34.5946"/>
<text text-anchor="middle" x="281.243" y="-106.3" font-family="Times New Roman,serif" font-size="14.00">{0,1}</text>
</g>
<!-- {0,1}&#45;&gt;{2} -->
<g id="edge6" class="edge"><title>{0,1}&#45;&gt;{2}</title>
<path fill="none" stroke="black" d="M254.268,-88.1014C246.456,-82.4423 237.587,-76.863 228.696,-73 224.935,-71.3662 220.869,-70.0257 216.771,-68.9265"/>
<polygon fill="black" stroke="black" points="217.198,-65.4355 206.675,-66.6618 215.666,-72.2658 217.198,-65.4355"/>
<text text-anchor="middle" x="226.696" y="-76.8" font-family="Times New Roman,serif" font-size="14.00">t</text>
</g>
<!-- {3} -->
<g id="node6" class="node"><title>{3}</title>
<ellipse fill="none" stroke="black" cx="382.838" cy="-110" rx="24.0958" ry="24.0958"/>
<text text-anchor="middle" x="382.838" y="-106.3" font-family="Times New Roman,serif" font-size="14.00">{3}</text>
</g>
<!-- {0,1}&#45;&gt;{3} -->
<g id="edge7" class="edge"><title>{0,1}&#45;&gt;{3}</title>
<path fill="none" stroke="black" d="M315.961,-110C326.458,-110 338.022,-110 348.493,-110"/>
<polygon fill="black" stroke="black" points="348.519,-113.5 358.519,-110 348.519,-106.5 348.519,-113.5"/>
<text text-anchor="middle" x="337.29" y="-113.8" font-family="Times New Roman,serif" font-size="14.00">h</text>
</g>
<!-- {2}&#45;&gt;{0,1} -->
<g id="edge4" class="edge"><title>{2}&#45;&gt;{0,1}</title>
<path fill="none" stroke="black" d="M202.171,-78.2886C208.993,-83.0978 216.951,-88.2012 224.696,-92 228.965,-94.0939 233.534,-96.0248 238.151,-97.7822"/>
<polygon fill="black" stroke="black" points="237.017,-101.094 247.612,-101.142 239.36,-94.4972 237.017,-101.094"/>
<text text-anchor="middle" x="226.696" y="-97.8" font-family="Times New Roman,serif" font-size="14.00">t</text>
</g>
<!-- {2}&#45;&gt;{} -->
<g id="edge5" class="edge"><title>{2}&#45;&gt;{}</title>
<path fill="none" stroke="black" d="M206.949,-63.5908C258.732,-62.6815 383.242,-60.4951 439.695,-59.5038"/>
<polygon fill="black" stroke="black" points="439.787,-63.0028 449.724,-59.3277 439.664,-56.0039 439.787,-63.0028"/>
<text text-anchor="middle" x="337.29" y="-65.8" font-family="Times New Roman,serif" font-size="14.00">h</text>
</g>
<!-- {}&#45;&gt;{} -->
<g id="edge8" class="edge"><title>{}&#45;&gt;{}</title>
<path fill="none" stroke="black" d="M465.745,-78.2936C465.242,-87.9156 466.455,-96.4983 469.384,-96.4983 471.17,-96.4983 472.317,-93.3112 472.828,-88.644"/>
<polygon fill="black" stroke="black" points="476.334,-88.358 473.024,-78.2936 469.335,-88.2256 476.334,-88.358"/>
<text text-anchor="middle" x="469.384" y="-100.298" font-family="Times New Roman,serif" font-size="14.00">t</text>
</g>
<!-- {}&#45;&gt;{} -->
<g id="edge9" class="edge"><title>{}&#45;&gt;{}</title>
<path fill="none" stroke="black" d="M463.32,-77.7642C460.175,-95.3846 462.197,-114.498 469.384,-114.498 475.224,-114.498 477.654,-101.88 476.673,-87.6973"/>
<polygon fill="black" stroke="black" points="480.146,-87.2611 475.449,-77.7642 473.198,-88.1172 480.146,-87.2611"/>
<text text-anchor="middle" x="469.384" y="-118.298" font-family="Times New Roman,serif" font-size="14.00">h</text>
</g>
<!-- {3}&#45;&gt;{} -->
<g id="edge10" class="edge"><title>{3}&#45;&gt;{}</title>
<path fill="none" stroke="black" d="M406.17,-103.593C414.559,-100.691 423.973,-96.8167 431.886,-92 437.537,-88.5606 443.108,-84.1824 448.132,-79.7482"/>
<polygon fill="black" stroke="black" points="450.587,-82.244 455.507,-72.8607 445.81,-77.1279 450.587,-82.244"/>
<text text-anchor="middle" x="428.386" y="-99.8" font-family="Times New Roman,serif" font-size="14.00">t</text>
</g>
<!-- {3}&#45;&gt;{} -->
<g id="edge11" class="edge"><title>{3}&#45;&gt;{}</title>
<path fill="none" stroke="black" d="M399.739,-92.7623C406.876,-85.8385 415.74,-78.2666 424.886,-73 429.578,-70.298 434.86,-68.0417 440.084,-66.1854"/>
<polygon fill="black" stroke="black" points="441.401,-69.44 449.887,-63.0968 439.298,-62.7635 441.401,-69.44"/>
<text text-anchor="middle" x="428.386" y="-76.8" font-family="Times New Roman,serif" font-size="14.00">h</text>
</g>
</g>
</svg>
