<?xml version="1.0" encoding="UTF-8" standalone="no"?>
<!DOCTYPE svg PUBLIC "-//W3C//DTD SVG 1.1//EN"
 "http://www.w3.org/Graphics/SVG/1.1/DTD/svg11.dtd">
<!-- Generated by graphviz version 2.38.0 (20140413.2041)
 -->
<!-- Title: dfa Pages: 1 -->
<svg width="214pt" height="133pt"
 viewBox="0.00 0.00 213.60 132.53" xmlns="http://www.w3.org/2000/svg" xmlns:xlink="http://www.w3.org/1999/xlink">
<g id="graph0" class="graph" transform="scale(1 1) rotate(0) translate(4 128.527)">
<title>dfa</title>
<polygon fill="white" stroke="none" points="-4,4 -4,-128.527 209.6,-128.527 209.6,4 -4,4"/>
<!-- __start -->
<!-- 0 -->
<g id="node2" class="node"><title>0</title>
<ellipse fill="none" stroke="black" cx="91.6" cy="-40.5268" rx="27" ry="18"/>
<text text-anchor="middle" x="91.6" y="-36.8268" font-family="Times New Roman,serif" font-size="14.00">0</text>
</g>
<!-- __start&#45;&gt;0 -->
<g id="edge1" class="edge"><title>__start&#45;&gt;0</title>
<path fill="none" stroke="black" d="M3.78604,-40.5268C8.86985,-40.5268 32.7092,-40.5268 54.1222,-40.5268"/>
<polygon fill="black" stroke="black" points="54.3463,-44.0269 64.3463,-40.5268 54.3463,-37.0269 54.3463,-44.0269"/>
<text text-anchor="middle" x="34.1" y="-44.3268" font-family="Times New Roman,serif" font-size="14.00">start</text>
</g>
<!-- 0&#45;&gt;0 -->
<g id="edge6" class="edge"><title>0&#45;&gt;0</title>
<path fill="none" stroke="black" d="M87.2857,-58.3085C86.5525,-67.8417 87.9906,-76.5268 91.6,-76.5268 93.7995,-76.5268 95.1927,-73.3017 95.7796,-68.6249"/>
<polygon fill="black" stroke="black" points="99.2833,-68.3534 95.9143,-58.3085 92.2839,-68.2619 99.2833,-68.3534"/>
<text text-anchor="middle" x="91.6" y="-80.3268" font-family="Times New Roman,serif" font-size="14.00">f</text>
</g>
<!-- 0&#45;&gt;0 -->
<g id="edge7" class="edge"><title>0&#45;&gt;0</title>
<path fill="none" stroke="black" d="M84.5122,-57.947C80.4718,-75.3177 82.8344,-94.5268 91.6,-94.5268 98.6536,-94.5268 101.561,-82.0885 100.322,-68.1787"/>
<polygon fill="black" stroke="black" points="103.722,-67.2696 98.6878,-57.947 96.8094,-68.374 103.722,-67.2696"/>
<text text-anchor="middle" x="91.6" y="-98.3268" font-family="Times New Roman,serif" font-size="14.00">i</text>
</g>
<!-- 1 -->
<g id="node3" class="node"><title>1</title>
<ellipse fill="none" stroke="black" cx="183.6" cy="-40.5268" rx="18" ry="18"/>
<ellipse fill="none" stroke="black" cx="183.6" cy="-40.5268" rx="22" ry="22"/>
<text text-anchor="middle" x="183.6" y="-36.8268" font-family="Times New Roman,serif" font-size="14.00">1</text>
</g>
<!-- 0&#45;&gt;1 -->
<g id="edge5" class="edge"><title>0&#45;&gt;1</title>
<path fill="none" stroke="black" d="M111.133,-53.0737C120.655,-58.0593 132.552,-62.0749 143.6,-59.5268 147.343,-58.6635 151.142,-57.3902 154.827,-55.9044"/>
<polygon fill="black" stroke="black" points="156.563,-58.9588 164.196,-51.6109 153.647,-52.5951 156.563,-58.9588"/>
<text text-anchor="middle" x="140.1" y="-63.3268" font-family="Times New Roman,serif" font-size="14.00">e</text>
</g>
<!-- 1&#45;&gt;0 -->
<g id="edge2" class="edge"><title>1&#45;&gt;0</title>
<path fill="none" stroke="black" d="M161.469,-40.5268C151.766,-40.5268 139.98,-40.5268 128.92,-40.5268"/>
<polygon fill="black" stroke="black" points="128.632,-37.0269 118.632,-40.5268 128.632,-44.0269 128.632,-37.0269"/>
<text text-anchor="middle" x="140.1" y="-44.3268" font-family="Times New Roman,serif" font-size="14.00">e</text>
</g>
<!-- 1&#45;&gt;0 -->
<g id="edge3" class="edge"><title>1&#45;&gt;0</title>
<path fill="none" stroke="black" d="M164.196,-29.4427C157.891,-26.2298 150.645,-23.1517 143.6,-21.5268 136.004,-19.7749 128.008,-21.1255 120.657,-23.7607"/>
<polygon fill="black" stroke="black" points="118.859,-20.7294 111.133,-27.9799 121.694,-27.1296 118.859,-20.7294"/>
<text text-anchor="middle" x="140.1" y="-25.3268" font-family="Times New Roman,serif" font-size="14.00">f</text>
</g>
<!-- 1&#45;&gt;0 -->
<g id="edge4" class="edge"><title>1&#45;&gt;0</title>
<path fill="none" stroke="black" d="M171.984,-21.593C163.489,-9.18704 150.696,3.82132 136.6,-1.52676 127.682,-4.91002 119.413,-11.0191 112.506,-17.4134"/>
<polygon fill="black" stroke="black" points="109.63,-15.3426 105.068,-24.9046 114.597,-20.2749 109.63,-15.3426"/>
<text text-anchor="middle" x="140.1" y="-5.32676" font-family="Times New Roman,serif" font-size="14.00">i</text>
</g>
</g>
</svg>
