<?xml version="1.0" encoding="UTF-8" standalone="no"?>
<!DOCTYPE svg PUBLIC "-//W3C//DTD SVG 1.1//EN"
 "http://www.w3.org/Graphics/SVG/1.1/DTD/svg11.dtd">
<!-- Generated by graphviz version 2.38.0 (20140413.2041)
 -->
<!-- Title: dfa Pages: 1 -->
<svg width="522pt" height="186pt"
 viewBox="0.00 0.00 521.60 186.00" xmlns="http://www.w3.org/2000/svg" xmlns:xlink="http://www.w3.org/1999/xlink">
<g id="graph0" class="graph" transform="scale(1 1) rotate(0) translate(4 182)">
<title>dfa</title>
<polygon fill="white" stroke="none" points="-4,4 -4,-182 517.6,-182 517.6,4 -4,4"/>
<!-- __start -->
<!-- 0 -->
<g id="node2" class="node"><title>0</title>
<ellipse fill="none" stroke="black" cx="82.6" cy="-19" rx="18" ry="18"/>
<text text-anchor="middle" x="82.6" y="-15.3" font-family="Times New Roman,serif" font-size="14.00">0</text>
</g>
<!-- __start&#45;&gt;0 -->
<g id="edge1" class="edge"><title>__start&#45;&gt;0</title>
<path fill="none" stroke="black" d="M3.68496,-19C8.69573,-19 34.008,-19 54.4423,-19"/>
<polygon fill="black" stroke="black" points="54.5501,-22.5001 64.5501,-19 54.5501,-15.5001 54.5501,-22.5001"/>
<text text-anchor="middle" x="34.1" y="-22.8" font-family="Times New Roman,serif" font-size="14.00">start</text>
</g>
<!-- 3 -->
<g id="node5" class="node"><title>3</title>
<ellipse fill="none" stroke="black" cx="161.6" cy="-46" rx="18" ry="18"/>
<text text-anchor="middle" x="161.6" y="-42.3" font-family="Times New Roman,serif" font-size="14.00">3</text>
</g>
<!-- 0&#45;&gt;3 -->
<g id="edge2" class="edge"><title>0&#45;&gt;3</title>
<path fill="none" stroke="black" d="M99.9297,-24.726C110.036,-28.2699 123.235,-32.898 134.74,-36.9322"/>
<polygon fill="black" stroke="black" points="133.699,-40.2761 144.294,-40.2822 136.015,-33.6704 133.699,-40.2761"/>
<text text-anchor="middle" x="122.1" y="-37.8" font-family="Times New Roman,serif" font-size="14.00">a</text>
</g>
<!-- 4 -->
<g id="node6" class="node"><title>4</title>
<ellipse fill="none" stroke="black" cx="495.6" cy="-62" rx="18" ry="18"/>
<text text-anchor="middle" x="495.6" y="-58.3" font-family="Times New Roman,serif" font-size="14.00">4</text>
</g>
<!-- 0&#45;&gt;4 -->
<g id="edge3" class="edge"><title>0&#45;&gt;4</title>
<path fill="none" stroke="black" d="M99.5412,-12.6733C114.92,-7.14616 138.983,-0 160.6,-0 160.6,-0 160.6,-0 412.6,-0 439.441,-0 463.045,-21.397 477.952,-39.0511"/>
<polygon fill="black" stroke="black" points="475.571,-41.6786 484.548,-47.3069 481.04,-37.3094 475.571,-41.6786"/>
<text text-anchor="middle" x="288.6" y="-3.8" font-family="Times New Roman,serif" font-size="14.00">b</text>
</g>
<!-- 1 -->
<g id="node3" class="node"><title>1</title>
<ellipse fill="none" stroke="black" cx="244.6" cy="-101" rx="18" ry="18"/>
<ellipse fill="none" stroke="black" cx="244.6" cy="-101" rx="22" ry="22"/>
<text text-anchor="middle" x="244.6" y="-97.3" font-family="Times New Roman,serif" font-size="14.00">1</text>
</g>
<!-- 2 -->
<g id="node4" class="node"><title>2</title>
<ellipse fill="none" stroke="black" cx="411.6" cy="-117" rx="18" ry="18"/>
<ellipse fill="none" stroke="black" cx="411.6" cy="-117" rx="22" ry="22"/>
<text text-anchor="middle" x="411.6" y="-113.3" font-family="Times New Roman,serif" font-size="14.00">2</text>
</g>
<!-- 1&#45;&gt;2 -->
<g id="edge6" class="edge"><title>1&#45;&gt;2</title>
<path fill="none" stroke="black" d="M258.367,-118.169C270.127,-132.42 288.99,-151.655 310.6,-160 337.132,-170.246 367.03,-153.583 387.166,-138.11"/>
<polygon fill="black" stroke="black" points="389.593,-140.648 395.16,-131.633 385.187,-135.209 389.593,-140.648"/>
<text text-anchor="middle" x="328.6" y="-166.8" font-family="Times New Roman,serif" font-size="14.00">a</text>
</g>
<!-- 6 -->
<g id="node8" class="node"><title>6</title>
<ellipse fill="none" stroke="black" cx="328.6" cy="-100" rx="18" ry="18"/>
<text text-anchor="middle" x="328.6" y="-96.3" font-family="Times New Roman,serif" font-size="14.00">6</text>
</g>
<!-- 1&#45;&gt;6 -->
<g id="edge7" class="edge"><title>1&#45;&gt;6</title>
<path fill="none" stroke="black" d="M266.717,-100.742C276.896,-100.618 289.232,-100.468 300.131,-100.335"/>
<polygon fill="black" stroke="black" points="300.461,-103.831 310.418,-100.21 300.376,-96.8318 300.461,-103.831"/>
<text text-anchor="middle" x="288.6" y="-103.8" font-family="Times New Roman,serif" font-size="14.00">b</text>
</g>
<!-- 2&#45;&gt;4 -->
<g id="edge8" class="edge"><title>2&#45;&gt;4</title>
<path fill="none" stroke="black" d="M432.561,-109.332C441.215,-105.592 451.254,-100.672 459.6,-95 465.13,-91.2418 470.625,-86.6066 475.565,-82.0105"/>
<polygon fill="black" stroke="black" points="478.085,-84.4415 482.797,-74.9521 473.196,-79.4318 478.085,-84.4415"/>
<text text-anchor="middle" x="455.6" y="-102.8" font-family="Times New Roman,serif" font-size="14.00">a</text>
</g>
<!-- 2&#45;&gt;4 -->
<g id="edge9" class="edge"><title>2&#45;&gt;4</title>
<path fill="none" stroke="black" d="M425.483,-99.9043C432.435,-91.6895 441.628,-82.2877 451.6,-76 456.581,-72.8594 462.334,-70.3574 467.979,-68.3893"/>
<polygon fill="black" stroke="black" points="469.28,-71.6522 477.834,-65.4009 467.249,-64.9534 469.28,-71.6522"/>
<text text-anchor="middle" x="455.6" y="-79.8" font-family="Times New Roman,serif" font-size="14.00">b</text>
</g>
<!-- 3&#45;&gt;1 -->
<g id="edge4" class="edge"><title>3&#45;&gt;1</title>
<path fill="none" stroke="black" d="M177.081,-55.8329C188.28,-63.4368 204.081,-74.1658 217.472,-83.2591"/>
<polygon fill="black" stroke="black" points="215.613,-86.2272 225.852,-88.9491 219.545,-80.436 215.613,-86.2272"/>
<text text-anchor="middle" x="201.1" y="-76.8" font-family="Times New Roman,serif" font-size="14.00">a</text>
</g>
<!-- 5 -->
<g id="node7" class="node"><title>5</title>
<ellipse fill="none" stroke="black" cx="328.6" cy="-46" rx="18" ry="18"/>
<text text-anchor="middle" x="328.6" y="-42.3" font-family="Times New Roman,serif" font-size="14.00">5</text>
</g>
<!-- 3&#45;&gt;5 -->
<g id="edge5" class="edge"><title>3&#45;&gt;5</title>
<path fill="none" stroke="black" d="M179.636,-46C208.167,-46 265.848,-46 300.158,-46"/>
<polygon fill="black" stroke="black" points="300.409,-49.5001 310.409,-46 300.409,-42.5001 300.409,-49.5001"/>
<text text-anchor="middle" x="244.6" y="-49.8" font-family="Times New Roman,serif" font-size="14.00">b</text>
</g>
<!-- 4&#45;&gt;4 -->
<g id="edge10" class="edge"><title>4&#45;&gt;4</title>
<path fill="none" stroke="black" d="M492.005,-79.7817C491.394,-89.3149 492.592,-98 495.6,-98 497.433,-98 498.594,-94.7749 499.083,-90.0981"/>
<polygon fill="black" stroke="black" points="502.586,-89.8193 499.195,-79.7817 495.587,-89.743 502.586,-89.8193"/>
<text text-anchor="middle" x="495.6" y="-101.8" font-family="Times New Roman,serif" font-size="14.00">a</text>
</g>
<!-- 4&#45;&gt;4 -->
<g id="edge11" class="edge"><title>4&#45;&gt;4</title>
<path fill="none" stroke="black" d="M489.748,-79.1418C486.306,-96.585 488.256,-116 495.6,-116 501.509,-116 503.927,-103.428 502.852,-89.4287"/>
<polygon fill="black" stroke="black" points="506.269,-88.5785 501.452,-79.1418 499.332,-89.5224 506.269,-88.5785"/>
<text text-anchor="middle" x="495.6" y="-119.8" font-family="Times New Roman,serif" font-size="14.00">b</text>
</g>
<!-- 5&#45;&gt;2 -->
<g id="edge12" class="edge"><title>5&#45;&gt;2</title>
<path fill="none" stroke="black" d="M342.614,-57.4074C354.538,-67.8589 372.479,-83.5856 386.938,-96.2591"/>
<polygon fill="black" stroke="black" points="384.725,-98.9733 394.552,-102.933 389.339,-93.7093 384.725,-98.9733"/>
<text text-anchor="middle" x="368.1" y="-84.8" font-family="Times New Roman,serif" font-size="14.00">a</text>
</g>
<!-- 5&#45;&gt;4 -->
<g id="edge13" class="edge"><title>5&#45;&gt;4</title>
<path fill="none" stroke="black" d="M346.636,-47.652C375.167,-50.4186 432.848,-56.012 467.158,-59.3389"/>
<polygon fill="black" stroke="black" points="467.118,-62.8514 477.409,-60.333 467.794,-55.8841 467.118,-62.8514"/>
<text text-anchor="middle" x="411.6" y="-58.8" font-family="Times New Roman,serif" font-size="14.00">b</text>
</g>
<!-- 6&#45;&gt;2 -->
<g id="edge14" class="edge"><title>6&#45;&gt;2</title>
<path fill="none" stroke="black" d="M346.383,-103.522C356.033,-105.548 368.457,-108.155 379.802,-110.536"/>
<polygon fill="black" stroke="black" points="379.301,-114.007 389.806,-112.636 380.738,-107.156 379.301,-114.007"/>
<text text-anchor="middle" x="368.1" y="-111.8" font-family="Times New Roman,serif" font-size="14.00">a</text>
</g>
<!-- 6&#45;&gt;6 -->
<g id="edge15" class="edge"><title>6&#45;&gt;6</title>
<path fill="none" stroke="black" d="M321.866,-117.037C320.492,-126.858 322.737,-136 328.6,-136 332.265,-136 334.516,-132.429 335.353,-127.353"/>
<polygon fill="black" stroke="black" points="338.852,-127.031 335.334,-117.037 331.852,-127.044 338.852,-127.031"/>
<text text-anchor="middle" x="328.6" y="-139.8" font-family="Times New Roman,serif" font-size="14.00">b</text>
</g>
</g>
</svg>
