<?xml version="1.0" encoding="UTF-8" standalone="no"?>
<!DOCTYPE svg PUBLIC "-//W3C//DTD SVG 1.1//EN"
 "http://www.w3.org/Graphics/SVG/1.1/DTD/svg11.dtd">
<!-- Generated by graphviz version 2.38.0 (20140413.2041)
 -->
<!-- Title: dfa Pages: 1 -->
<svg width="980pt" height="412pt"
 viewBox="0.00 0.00 980.24 412.00" xmlns="http://www.w3.org/2000/svg" xmlns:xlink="http://www.w3.org/1999/xlink">
<g id="graph0" class="graph" transform="scale(1 1) rotate(0) translate(4 408)">
<title>dfa</title>
<polygon fill="white" stroke="none" points="-4,4 -4,-408 976.24,-408 976.24,4 -4,4"/>
<!-- __start -->
<!-- {0} -->
<g id="node2" class="node"><title>{0}</title>
<ellipse fill="none" stroke="black" cx="88.6479" cy="-39" rx="24.0958" ry="24.0958"/>
<text text-anchor="middle" x="88.6479" y="-35.3" font-family="Times New Roman,serif" font-size="14.00">{0}</text>
</g>
<!-- __start&#45;&gt;{0} -->
<g id="edge1" class="edge"><title>__start&#45;&gt;{0}</title>
<path fill="none" stroke="black" d="M3.75288,-39C8.82222,-39 33.1893,-39 54.3658,-39"/>
<polygon fill="black" stroke="black" points="54.4068,-42.5001 64.4067,-39 54.4067,-35.5001 54.4068,-42.5001"/>
<text text-anchor="middle" x="34.1" y="-42.8" font-family="Times New Roman,serif" font-size="14.00">start</text>
</g>
<!-- {13,15,16,17,2,3,4,5,7} -->
<g id="node5" class="node"><title>{13,15,16,17,2,3,4,5,7}</title>
<ellipse fill="none" stroke="black" cx="251.887" cy="-124" rx="96.3833" ry="96.3833"/>
<text text-anchor="middle" x="251.887" y="-120.3" font-family="Times New Roman,serif" font-size="14.00">{13,15,16,17,2,3,4,5,7}</text>
</g>
<!-- {0}&#45;&gt;{13,15,16,17,2,3,4,5,7} -->
<g id="edge2" class="edge"><title>{0}&#45;&gt;{13,15,16,17,2,3,4,5,7}</title>
<path fill="none" stroke="black" d="M110.397,-49.9383C122.782,-56.4675 139.487,-65.2735 157.052,-74.5331"/>
<polygon fill="black" stroke="black" points="155.819,-77.8396 166.297,-79.4069 159.083,-71.6474 155.819,-77.8396"/>
<text text-anchor="middle" x="134.196" y="-68.8" font-family="Times New Roman,serif" font-size="14.00">a</text>
</g>
<!-- {} -->
<g id="node6" class="node"><title>{}</title>
<ellipse fill="none" stroke="black" cx="952.742" cy="-102" rx="19.4965" ry="19.4965"/>
<text text-anchor="middle" x="952.742" y="-98.3" font-family="Times New Roman,serif" font-size="14.00">{}</text>
</g>
<!-- {0}&#45;&gt;{} -->
<g id="edge3" class="edge"><title>{0}&#45;&gt;{}</title>
<path fill="none" stroke="black" d="M111.155,-30.3446C141.695,-18.8549 199.623,-0 250.887,-0 250.887,-0 250.887,-0 862.196,-0 901.957,-0 928.207,-44.3147 941.482,-74.5254"/>
<polygon fill="black" stroke="black" points="938.256,-75.8833 945.336,-83.7644 944.716,-73.1878 938.256,-75.8833"/>
<text text-anchor="middle" x="608.262" y="-3.8" font-family="Times New Roman,serif" font-size="14.00">b</text>
</g>
<!-- {1,11,12,14,16,17,8,9} -->
<g id="node3" class="node"><title>{1,11,12,14,16,17,8,9}</title>
<ellipse fill="none" stroke="black" cx="488.67" cy="-242" rx="93.6797" ry="93.6797"/>
<ellipse fill="none" stroke="black" cx="488.67" cy="-242" rx="97.6835" ry="97.6835"/>
<text text-anchor="middle" x="488.67" y="-238.3" font-family="Times New Roman,serif" font-size="14.00">{1,11,12,14,16,17,8,9}</text>
</g>
<!-- {1} -->
<g id="node4" class="node"><title>{1}</title>
<ellipse fill="none" stroke="black" cx="861.196" cy="-157" rx="24.089" ry="24.089"/>
<ellipse fill="none" stroke="black" cx="861.196" cy="-157" rx="28.0958" ry="28.0958"/>
<text text-anchor="middle" x="861.196" y="-153.3" font-family="Times New Roman,serif" font-size="14.00">{1}</text>
</g>
<!-- {1,11,12,14,16,17,8,9}&#45;&gt;{1} -->
<g id="edge6" class="edge"><title>{1,11,12,14,16,17,8,9}&#45;&gt;{1}</title>
<path fill="none" stroke="black" d="M554.191,-314.93C576.135,-334.715 602.257,-353.543 630.262,-364 696.833,-388.857 732.406,-405.418 790.148,-364 843.713,-325.578 856.835,-243.956 859.738,-195.474"/>
<polygon fill="black" stroke="black" points="863.239,-195.524 860.223,-185.367 856.247,-195.188 863.239,-195.524"/>
<text text-anchor="middle" x="710.205" y="-392.8" font-family="Times New Roman,serif" font-size="14.00">a</text>
</g>
<!-- {10,12,14,16,17,9} -->
<g id="node8" class="node"><title>{10,12,14,16,17,9}</title>
<ellipse fill="none" stroke="black" cx="710.205" cy="-242" rx="79.8859" ry="79.8859"/>
<text text-anchor="middle" x="710.205" y="-238.3" font-family="Times New Roman,serif" font-size="14.00">{10,12,14,16,17,9}</text>
</g>
<!-- {1,11,12,14,16,17,8,9}&#45;&gt;{10,12,14,16,17,9} -->
<g id="edge7" class="edge"><title>{1,11,12,14,16,17,8,9}&#45;&gt;{10,12,14,16,17,9}</title>
<path fill="none" stroke="black" d="M586.281,-242C597.466,-242 608.837,-242 619.918,-242"/>
<polygon fill="black" stroke="black" points="620.001,-245.5 630.001,-242 620.001,-238.5 620.001,-245.5"/>
<text text-anchor="middle" x="608.262" y="-245.8" font-family="Times New Roman,serif" font-size="14.00">b</text>
</g>
<!-- {1}&#45;&gt;{} -->
<g id="edge8" class="edge"><title>{1}&#45;&gt;{}</title>
<path fill="none" stroke="black" d="M887.898,-148.387C896.881,-144.854 906.818,-140.331 915.244,-135 920.834,-131.463 926.382,-127.046 931.401,-122.606"/>
<polygon fill="black" stroke="black" points="933.851,-125.107 938.785,-115.731 929.081,-119.984 933.851,-125.107"/>
<text text-anchor="middle" x="911.244" y="-142.8" font-family="Times New Roman,serif" font-size="14.00">a</text>
</g>
<!-- {1}&#45;&gt;{} -->
<g id="edge9" class="edge"><title>{1}&#45;&gt;{}</title>
<path fill="none" stroke="black" d="M880.895,-136.598C888.485,-129.274 897.708,-121.48 907.244,-116 912.247,-113.125 917.912,-110.766 923.483,-108.858"/>
<polygon fill="black" stroke="black" points="924.692,-112.149 933.246,-105.898 922.66,-105.45 924.692,-112.149"/>
<text text-anchor="middle" x="911.244" y="-119.8" font-family="Times New Roman,serif" font-size="14.00">b</text>
</g>
<!-- {13,15,16,17,2,3,4,5,7}&#45;&gt;{1,11,12,14,16,17,8,9} -->
<g id="edge4" class="edge"><title>{13,15,16,17,2,3,4,5,7}&#45;&gt;{1,11,12,14,16,17,8,9}</title>
<path fill="none" stroke="black" d="M338.313,-166.935C355.731,-175.688 374.165,-184.953 391.915,-193.874"/>
<polygon fill="black" stroke="black" points="390.62,-197.14 401.126,-198.504 393.763,-190.886 390.62,-197.14"/>
<text text-anchor="middle" x="369.579" y="-186.8" font-family="Times New Roman,serif" font-size="14.00">a</text>
</g>
<!-- {14,16,17,6} -->
<g id="node7" class="node"><title>{14,16,17,6}</title>
<ellipse fill="none" stroke="black" cx="710.205" cy="-86" rx="57.6901" ry="57.6901"/>
<text text-anchor="middle" x="710.205" y="-82.3" font-family="Times New Roman,serif" font-size="14.00">{14,16,17,6}</text>
</g>
<!-- {13,15,16,17,2,3,4,5,7}&#45;&gt;{14,16,17,6} -->
<g id="edge5" class="edge"><title>{13,15,16,17,2,3,4,5,7}&#45;&gt;{14,16,17,6}</title>
<path fill="none" stroke="black" d="M347.991,-116.08C435.982,-108.753 564.557,-98.0456 642.219,-91.5783"/>
<polygon fill="black" stroke="black" points="642.688,-95.0514 652.363,-90.7335 642.107,-88.0755 642.688,-95.0514"/>
<text text-anchor="middle" x="488.67" y="-116.8" font-family="Times New Roman,serif" font-size="14.00">b</text>
</g>
<!-- {}&#45;&gt;{} -->
<g id="edge10" class="edge"><title>{}&#45;&gt;{}</title>
<path fill="none" stroke="black" d="M949.103,-121.294C948.599,-130.916 949.812,-139.498 952.742,-139.498 954.527,-139.498 955.675,-136.311 956.185,-131.644"/>
<polygon fill="black" stroke="black" points="959.691,-131.358 956.381,-121.294 952.693,-131.226 959.691,-131.358"/>
<text text-anchor="middle" x="952.742" y="-143.298" font-family="Times New Roman,serif" font-size="14.00">a</text>
</g>
<!-- {}&#45;&gt;{} -->
<g id="edge11" class="edge"><title>{}&#45;&gt;{}</title>
<path fill="none" stroke="black" d="M946.677,-120.764C943.533,-138.385 945.554,-157.498 952.742,-157.498 958.582,-157.498 961.011,-144.88 960.03,-130.697"/>
<polygon fill="black" stroke="black" points="963.503,-130.261 958.806,-120.764 956.556,-131.117 963.503,-130.261"/>
<text text-anchor="middle" x="952.742" y="-161.298" font-family="Times New Roman,serif" font-size="14.00">b</text>
</g>
<!-- {14,16,17,6}&#45;&gt;{1} -->
<g id="edge12" class="edge"><title>{14,16,17,6}&#45;&gt;{1}</title>
<path fill="none" stroke="black" d="M762.897,-110.633C783.891,-120.638 807.56,-131.917 826.297,-140.846"/>
<polygon fill="black" stroke="black" points="824.801,-144.01 835.334,-145.152 827.812,-137.691 824.801,-144.01"/>
<text text-anchor="middle" x="811.648" y="-138.8" font-family="Times New Roman,serif" font-size="14.00">a</text>
</g>
<!-- {14,16,17,6}&#45;&gt;{} -->
<g id="edge13" class="edge"><title>{14,16,17,6}&#45;&gt;{}</title>
<path fill="none" stroke="black" d="M768.209,-89.7918C816.763,-93.0215 884.55,-97.5305 922.687,-100.067"/>
<polygon fill="black" stroke="black" points="922.857,-103.586 933.067,-100.758 923.322,-96.6017 922.857,-103.586"/>
<text text-anchor="middle" x="861.196" y="-101.8" font-family="Times New Roman,serif" font-size="14.00">b</text>
</g>
<!-- {10,12,14,16,17,9}&#45;&gt;{1} -->
<g id="edge14" class="edge"><title>{10,12,14,16,17,9}&#45;&gt;{1}</title>
<path fill="none" stroke="black" d="M780.031,-202.735C796.668,-193.243 813.685,-183.535 827.735,-175.519"/>
<polygon fill="black" stroke="black" points="829.555,-178.51 836.507,-170.515 826.086,-172.43 829.555,-178.51"/>
<text text-anchor="middle" x="811.648" y="-188.8" font-family="Times New Roman,serif" font-size="14.00">a</text>
</g>
<!-- {10,12,14,16,17,9}&#45;&gt;{10,12,14,16,17,9} -->
<g id="edge15" class="edge"><title>{10,12,14,16,17,9}&#45;&gt;{10,12,14,16,17,9}</title>
<path fill="none" stroke="black" d="M693.196,-320.383C695.844,-332.051 701.514,-339.943 710.205,-339.943 716.18,-339.943 720.727,-336.213 723.846,-330.09"/>
<polygon fill="black" stroke="black" points="727.243,-330.977 727.214,-320.383 720.63,-328.683 727.243,-330.977"/>
<text text-anchor="middle" x="710.205" y="-343.743" font-family="Times New Roman,serif" font-size="14.00">b</text>
</g>
</g>
</svg>
