<?xml version="1.0" encoding="UTF-8" standalone="no"?>
<!DOCTYPE svg PUBLIC "-//W3C//DTD SVG 1.1//EN"
 "http://www.w3.org/Graphics/SVG/1.1/DTD/svg11.dtd">
<!-- Generated by graphviz version 2.38.0 (20140413.2041)
 -->
<!-- Title: enfa Pages: 1 -->
<svg width="1227pt" height="166pt"
 viewBox="0.00 0.00 1226.57 166.03" xmlns="http://www.w3.org/2000/svg" xmlns:xlink="http://www.w3.org/1999/xlink">
<g id="graph0" class="graph" transform="scale(1 1) rotate(0) translate(4 162.027)">
<title>enfa</title>
<polygon fill="white" stroke="none" points="-4,4 -4,-162.027 1222.57,-162.027 1222.57,4 -4,4"/>
<!-- __start -->
<!-- 0 -->
<g id="node2" class="node"><title>0</title>
<ellipse fill="none" stroke="black" cx="82.6" cy="-114.027" rx="18" ry="18"/>
<text text-anchor="middle" x="82.6" y="-110.327" font-family="Times New Roman,serif" font-size="14.00">0</text>
</g>
<!-- __start&#45;&gt;0 -->
<g id="edge1" class="edge"><title>__start&#45;&gt;0</title>
<path fill="none" stroke="black" d="M3.68496,-114.027C8.69573,-114.027 34.008,-114.027 54.4423,-114.027"/>
<polygon fill="black" stroke="black" points="54.5501,-117.527 64.5501,-114.027 54.5501,-110.527 54.5501,-117.527"/>
<text text-anchor="middle" x="34.1" y="-117.827" font-family="Times New Roman,serif" font-size="14.00">start</text>
</g>
<!-- 2 -->
<g id="node4" class="node"><title>2</title>
<ellipse fill="none" stroke="black" cx="161.6" cy="-114.027" rx="18" ry="18"/>
<text text-anchor="middle" x="161.6" y="-110.327" font-family="Times New Roman,serif" font-size="14.00">2</text>
</g>
<!-- 0&#45;&gt;2 -->
<g id="edge2" class="edge"><title>0&#45;&gt;2</title>
<path fill="none" stroke="black" d="M100.689,-114.027C110.259,-114.027 122.417,-114.027 133.277,-114.027"/>
<polygon fill="black" stroke="black" points="133.559,-117.527 143.559,-114.027 133.559,-110.527 133.559,-117.527"/>
<text text-anchor="middle" x="122.1" y="-117.827" font-family="Times New Roman,serif" font-size="14.00">a</text>
</g>
<!-- 1 -->
<g id="node3" class="node"><title>1</title>
<ellipse fill="none" stroke="black" cx="1196.57" cy="-121.027" rx="18" ry="18"/>
<ellipse fill="none" stroke="black" cx="1196.57" cy="-121.027" rx="22" ry="22"/>
<text text-anchor="middle" x="1196.57" y="-117.327" font-family="Times New Roman,serif" font-size="14.00">1</text>
</g>
<!-- 15 -->
<g id="node17" class="node"><title>15</title>
<ellipse fill="none" stroke="black" cx="242.098" cy="-114.027" rx="19.4965" ry="19.4965"/>
<text text-anchor="middle" x="242.098" y="-110.327" font-family="Times New Roman,serif" font-size="14.00">15</text>
</g>
<!-- 2&#45;&gt;15 -->
<g id="edge22" class="edge"><title>2&#45;&gt;15</title>
<path fill="none" stroke="black" d="M179.633,-114.027C189.201,-114.027 201.395,-114.027 212.395,-114.027"/>
<polygon fill="black" stroke="black" points="212.452,-117.527 222.452,-114.027 212.452,-110.527 212.452,-117.527"/>
<text text-anchor="middle" x="201.1" y="-117.827" font-family="Times New Roman,serif" font-size="14.00">ε</text>
</g>
<!-- 3 -->
<g id="node5" class="node"><title>3</title>
<ellipse fill="none" stroke="black" cx="324.095" cy="-140.027" rx="18" ry="18"/>
<text text-anchor="middle" x="324.095" y="-136.327" font-family="Times New Roman,serif" font-size="14.00">3</text>
</g>
<!-- 4 -->
<g id="node6" class="node"><title>4</title>
<ellipse fill="none" stroke="black" cx="458.593" cy="-140.027" rx="18" ry="18"/>
<text text-anchor="middle" x="458.593" y="-136.327" font-family="Times New Roman,serif" font-size="14.00">4</text>
</g>
<!-- 3&#45;&gt;4 -->
<g id="edge3" class="edge"><title>3&#45;&gt;4</title>
<path fill="none" stroke="black" d="M342.145,-140.027C364.383,-140.027 403.564,-140.027 430.043,-140.027"/>
<polygon fill="black" stroke="black" points="430.187,-143.527 440.187,-140.027 430.187,-136.527 430.187,-143.527"/>
<text text-anchor="middle" x="365.093" y="-143.827" font-family="Times New Roman,serif" font-size="14.00">ε</text>
</g>
<!-- 16 -->
<g id="node18" class="node"><title>16</title>
<ellipse fill="none" stroke="black" cx="1030.08" cy="-121.027" rx="19.4965" ry="19.4965"/>
<text text-anchor="middle" x="1030.08" y="-117.327" font-family="Times New Roman,serif" font-size="14.00">16</text>
</g>
<!-- 4&#45;&gt;16 -->
<g id="edge18" class="edge"><title>4&#45;&gt;16</title>
<path fill="none" stroke="black" d="M476.852,-140.027C497.83,-140.027 534.308,-140.027 565.593,-140.027 565.593,-140.027 565.593,-140.027 949.081,-140.027 966.942,-140.027 986.454,-135.488 1001.74,-130.847"/>
<polygon fill="black" stroke="black" points="1003.13,-134.075 1011.57,-127.672 1000.98,-127.414 1003.13,-134.075"/>
<text text-anchor="middle" x="742.59" y="-143.827" font-family="Times New Roman,serif" font-size="14.00">ε</text>
</g>
<!-- 5 -->
<g id="node7" class="node"><title>5</title>
<ellipse fill="none" stroke="black" cx="458.593" cy="-91.0266" rx="18" ry="18"/>
<text text-anchor="middle" x="458.593" y="-87.3266" font-family="Times New Roman,serif" font-size="14.00">5</text>
</g>
<!-- 6 -->
<g id="node8" class="node"><title>6</title>
<ellipse fill="none" stroke="black" cx="566.593" cy="-97.0266" rx="18" ry="18"/>
<text text-anchor="middle" x="566.593" y="-93.3266" font-family="Times New Roman,serif" font-size="14.00">6</text>
</g>
<!-- 5&#45;&gt;6 -->
<g id="edge4" class="edge"><title>5&#45;&gt;6</title>
<path fill="none" stroke="black" d="M476.624,-91.9906C493.314,-92.9354 519.014,-94.3901 538.509,-95.4936"/>
<polygon fill="black" stroke="black" points="538.423,-98.9942 548.605,-96.065 538.818,-92.0054 538.423,-98.9942"/>
<text text-anchor="middle" x="512.593" y="-98.8266" font-family="Times New Roman,serif" font-size="14.00">b</text>
</g>
<!-- 14 -->
<g id="node16" class="node"><title>14</title>
<ellipse fill="none" stroke="black" cx="948.081" cy="-93.0266" rx="19.4965" ry="19.4965"/>
<text text-anchor="middle" x="948.081" y="-89.3266" font-family="Times New Roman,serif" font-size="14.00">14</text>
</g>
<!-- 6&#45;&gt;14 -->
<g id="edge14" class="edge"><title>6&#45;&gt;14</title>
<path fill="none" stroke="black" d="M584.659,-97.8944C603.58,-98.7804 635.007,-100.027 662.09,-100.027 662.09,-100.027 662.09,-100.027 867.084,-100.027 884.136,-100.027 903.155,-98.4287 918.369,-96.7598"/>
<polygon fill="black" stroke="black" points="919.166,-100.191 928.692,-95.5538 918.354,-93.2379 919.166,-100.191"/>
<text text-anchor="middle" x="742.59" y="-103.827" font-family="Times New Roman,serif" font-size="14.00">ε</text>
</g>
<!-- 7 -->
<g id="node9" class="node"><title>7</title>
<ellipse fill="none" stroke="black" cx="404.593" cy="-39.0266" rx="18" ry="18"/>
<text text-anchor="middle" x="404.593" y="-35.3266" font-family="Times New Roman,serif" font-size="14.00">7</text>
</g>
<!-- 8 -->
<g id="node10" class="node"><title>8</title>
<ellipse fill="none" stroke="black" cx="512.593" cy="-37.0266" rx="18" ry="18"/>
<text text-anchor="middle" x="512.593" y="-33.3266" font-family="Times New Roman,serif" font-size="14.00">8</text>
</g>
<!-- 7&#45;&gt;8 -->
<g id="edge5" class="edge"><title>7&#45;&gt;8</title>
<path fill="none" stroke="black" d="M422.624,-38.7053C439.215,-38.3923 464.71,-37.9112 484.162,-37.5442"/>
<polygon fill="black" stroke="black" points="484.32,-41.0419 494.252,-37.3538 484.188,-34.0432 484.32,-41.0419"/>
<text text-anchor="middle" x="458.593" y="-42.8266" font-family="Times New Roman,serif" font-size="14.00">a</text>
</g>
<!-- 11 -->
<g id="node13" class="node"><title>11</title>
<ellipse fill="none" stroke="black" cx="622.091" cy="-34.0266" rx="19.4965" ry="19.4965"/>
<text text-anchor="middle" x="622.091" y="-30.3266" font-family="Times New Roman,serif" font-size="14.00">11</text>
</g>
<!-- 8&#45;&gt;11 -->
<g id="edge11" class="edge"><title>8&#45;&gt;11</title>
<path fill="none" stroke="black" d="M530.865,-36.5446C547.39,-36.0835 572.625,-35.3792 592.21,-34.8326"/>
<polygon fill="black" stroke="black" points="592.52,-38.3255 602.418,-34.5478 592.325,-31.3282 592.52,-38.3255"/>
<text text-anchor="middle" x="566.593" y="-39.8266" font-family="Times New Roman,serif" font-size="14.00">ε</text>
</g>
<!-- 9 -->
<g id="node11" class="node"><title>9</title>
<ellipse fill="none" stroke="black" cx="702.59" cy="-34.0266" rx="18" ry="18"/>
<text text-anchor="middle" x="702.59" y="-30.3266" font-family="Times New Roman,serif" font-size="14.00">9</text>
</g>
<!-- 10 -->
<g id="node12" class="node"><title>10</title>
<ellipse fill="none" stroke="black" cx="784.088" cy="-43.0266" rx="19.4965" ry="19.4965"/>
<text text-anchor="middle" x="784.088" y="-39.3266" font-family="Times New Roman,serif" font-size="14.00">10</text>
</g>
<!-- 9&#45;&gt;10 -->
<g id="edge6" class="edge"><title>9&#45;&gt;10</title>
<path fill="none" stroke="black" d="M720.628,-37.3079C726.322,-38.3079 732.713,-39.3267 738.59,-40.0266 743.611,-40.6247 748.967,-41.1129 754.159,-41.5084"/>
<polygon fill="black" stroke="black" points="754.218,-45.02 764.429,-42.1952 754.685,-38.0356 754.218,-45.02"/>
<text text-anchor="middle" x="742.59" y="-44.8266" font-family="Times New Roman,serif" font-size="14.00">b</text>
</g>
<!-- 10&#45;&gt;9 -->
<g id="edge9" class="edge"><title>10&#45;&gt;9</title>
<path fill="none" stroke="black" d="M767.962,-31.3827C761.702,-27.2607 754.145,-23.1278 746.59,-21.0266 740.621,-19.3668 734.216,-19.9889 728.22,-21.6364"/>
<polygon fill="black" stroke="black" points="726.84,-18.4149 718.666,-25.1555 729.259,-24.9836 726.84,-18.4149"/>
<text text-anchor="middle" x="742.59" y="-24.8266" font-family="Times New Roman,serif" font-size="14.00">ε</text>
</g>
<!-- 12 -->
<g id="node14" class="node"><title>12</title>
<ellipse fill="none" stroke="black" cx="866.084" cy="-43.0266" rx="19.4965" ry="19.4965"/>
<text text-anchor="middle" x="866.084" y="-39.3266" font-family="Times New Roman,serif" font-size="14.00">12</text>
</g>
<!-- 10&#45;&gt;12 -->
<g id="edge10" class="edge"><title>10&#45;&gt;12</title>
<path fill="none" stroke="black" d="M803.642,-43.0266C813.265,-43.0266 825.24,-43.0266 836.055,-43.0266"/>
<polygon fill="black" stroke="black" points="836.354,-46.5267 846.354,-43.0266 836.354,-39.5267 836.354,-46.5267"/>
<text text-anchor="middle" x="825.086" y="-46.8266" font-family="Times New Roman,serif" font-size="14.00">ε</text>
</g>
<!-- 11&#45;&gt;9 -->
<g id="edge7" class="edge"><title>11&#45;&gt;9</title>
<path fill="none" stroke="black" d="M641.694,-34.0266C651.419,-34.0266 663.508,-34.0266 674.274,-34.0266"/>
<polygon fill="black" stroke="black" points="674.461,-37.5267 684.461,-34.0266 674.461,-30.5267 674.461,-37.5267"/>
<text text-anchor="middle" x="663.09" y="-37.8266" font-family="Times New Roman,serif" font-size="14.00">ε</text>
</g>
<!-- 11&#45;&gt;12 -->
<g id="edge8" class="edge"><title>11&#45;&gt;12</title>
<path fill="none" stroke="black" d="M639.536,-25.0678C651.632,-18.915 668.672,-11.1423 684.59,-7.02664 711.354,-0.10644 719.118,1.06654 746.59,-2.02664 772.409,-4.93378 778.97,-6.7118 803.586,-15.0266 815.584,-19.0795 828.399,-24.6933 839.209,-29.8309"/>
<polygon fill="black" stroke="black" points="837.969,-33.12 848.491,-34.3568 841.036,-26.828 837.969,-33.12"/>
<text text-anchor="middle" x="742.59" y="-6.82664" font-family="Times New Roman,serif" font-size="14.00">ε</text>
</g>
<!-- 12&#45;&gt;14 -->
<g id="edge15" class="edge"><title>12&#45;&gt;14</title>
<path fill="none" stroke="black" d="M883.273,-53.1449C894.515,-60.1713 909.702,-69.6636 922.439,-77.6248"/>
<polygon fill="black" stroke="black" points="920.855,-80.7618 931.19,-83.0941 924.565,-74.8259 920.855,-80.7618"/>
<text text-anchor="middle" x="907.083" y="-73.8266" font-family="Times New Roman,serif" font-size="14.00">ε</text>
</g>
<!-- 13 -->
<g id="node15" class="node"><title>13</title>
<ellipse fill="none" stroke="black" cx="324.095" cy="-85.0266" rx="19.4965" ry="19.4965"/>
<text text-anchor="middle" x="324.095" y="-81.3266" font-family="Times New Roman,serif" font-size="14.00">13</text>
</g>
<!-- 13&#45;&gt;5 -->
<g id="edge12" class="edge"><title>13&#45;&gt;5</title>
<path fill="none" stroke="black" d="M343.798,-85.8736C366.268,-86.8911 404.162,-88.6071 429.997,-89.777"/>
<polygon fill="black" stroke="black" points="430.102,-93.2852 440.25,-90.2413 430.419,-86.2924 430.102,-93.2852"/>
<text text-anchor="middle" x="365.093" y="-89.8266" font-family="Times New Roman,serif" font-size="14.00">ε</text>
</g>
<!-- 13&#45;&gt;7 -->
<g id="edge13" class="edge"><title>13&#45;&gt;7</title>
<path fill="none" stroke="black" d="M338.295,-71.1472C344.825,-64.9168 353.114,-57.8905 361.593,-53.0266 366.387,-50.2767 371.802,-47.9671 377.11,-46.0673"/>
<polygon fill="black" stroke="black" points="378.534,-49.2869 386.996,-42.9113 376.405,-42.6185 378.534,-49.2869"/>
<text text-anchor="middle" x="365.093" y="-56.8266" font-family="Times New Roman,serif" font-size="14.00">ε</text>
</g>
<!-- 14&#45;&gt;16 -->
<g id="edge19" class="edge"><title>14&#45;&gt;16</title>
<path fill="none" stroke="black" d="M966.835,-99.2407C977.088,-102.83 990.201,-107.419 1001.74,-111.46"/>
<polygon fill="black" stroke="black" points="1000.78,-114.83 1011.37,-114.83 1003.09,-108.223 1000.78,-114.83"/>
<text text-anchor="middle" x="989.079" y="-110.827" font-family="Times New Roman,serif" font-size="14.00">ε</text>
</g>
<!-- 15&#45;&gt;3 -->
<g id="edge16" class="edge"><title>15&#45;&gt;3</title>
<path fill="none" stroke="black" d="M260.852,-119.797C271.461,-123.245 285.132,-127.688 296.958,-131.532"/>
<polygon fill="black" stroke="black" points="296.16,-134.953 306.753,-134.715 298.324,-128.296 296.16,-134.953"/>
<text text-anchor="middle" x="283.097" y="-130.827" font-family="Times New Roman,serif" font-size="14.00">ε</text>
</g>
<!-- 15&#45;&gt;13 -->
<g id="edge17" class="edge"><title>15&#45;&gt;13</title>
<path fill="none" stroke="black" d="M260.852,-107.591C271.105,-103.874 284.218,-99.12 295.762,-94.9353"/>
<polygon fill="black" stroke="black" points="297.182,-98.1433 305.391,-91.4447 294.796,-91.5624 297.182,-98.1433"/>
<text text-anchor="middle" x="283.097" y="-103.827" font-family="Times New Roman,serif" font-size="14.00">ε</text>
</g>
<!-- 17 -->
<g id="node19" class="node"><title>17</title>
<ellipse fill="none" stroke="black" cx="1112.07" cy="-121.027" rx="19.4965" ry="19.4965"/>
<text text-anchor="middle" x="1112.07" y="-117.327" font-family="Times New Roman,serif" font-size="14.00">17</text>
</g>
<!-- 16&#45;&gt;17 -->
<g id="edge21" class="edge"><title>16&#45;&gt;17</title>
<path fill="none" stroke="black" d="M1049.63,-121.027C1059.25,-121.027 1071.23,-121.027 1082.04,-121.027"/>
<polygon fill="black" stroke="black" points="1082.34,-124.527 1092.34,-121.027 1082.34,-117.527 1082.34,-124.527"/>
<text text-anchor="middle" x="1071.08" y="-124.827" font-family="Times New Roman,serif" font-size="14.00">ε</text>
</g>
<!-- 17&#45;&gt;1 -->
<g id="edge20" class="edge"><title>17&#45;&gt;1</title>
<path fill="none" stroke="black" d="M1131.79,-121.027C1141.38,-121.027 1153.3,-121.027 1164.24,-121.027"/>
<polygon fill="black" stroke="black" points="1164.31,-124.527 1174.31,-121.027 1164.31,-117.527 1164.31,-124.527"/>
<text text-anchor="middle" x="1153.07" y="-124.827" font-family="Times New Roman,serif" font-size="14.00">a</text>
</g>
</g>
</svg>
